<?xml version="1.0" encoding="utf-8" standalone="no"?>
<!DOCTYPE svg PUBLIC "-//W3C//DTD SVG 1.1//EN"
  "http://www.w3.org/Graphics/SVG/1.1/DTD/svg11.dtd">
<svg xmlns:xlink="http://www.w3.org/1999/xlink" width="404.64pt" height="244.8pt" viewBox="0 0 404.64 244.8" xmlns="http://www.w3.org/2000/svg" version="1.1">
 <metadata>
  <rdf:RDF xmlns:dc="http://purl.org/dc/elements/1.1/" xmlns:cc="http://creativecommons.org/ns#" xmlns:rdf="http://www.w3.org/1999/02/22-rdf-syntax-ns#">
   <cc:Work>
    <dc:type rdf:resource="http://purl.org/dc/dcmitype/StillImage"/>
    <dc:date>2023-05-17T09:42:24.877626</dc:date>
    <dc:format>image/svg+xml</dc:format>
    <dc:creator>
     <cc:Agent>
      <dc:title>Matplotlib v3.7.1, https://matplotlib.org/</dc:title>
     </cc:Agent>
    </dc:creator>
   </cc:Work>
  </rdf:RDF>
 </metadata>
 <defs>
  <style type="text/css">*{stroke-linejoin: round; stroke-linecap: butt}</style>
 </defs>
 <g id="figure_1">
  <g id="patch_1">
   <path d="M 0 244.8 
L 404.64 244.8 
L 404.64 0 
L 0 0 
z
" style="fill: #ffffff"/>
  </g>
  <g id="axes_1">
   <g id="patch_2">
    <path d="M 51.46625 182.23 
L 391.68 182.23 
L 391.68 17.28 
L 51.46625 17.28 
z
" style="fill: #ffffff"/>
   </g>
   <g id="patch_3">
    <path d="M 54.706381 347.18 
L 59.566577 347.18 
L 59.566577 263.842438 
L 54.706381 263.842438 
z
" clip-path="url(#pcd1987a52c)" style="fill: #0d3b66"/>
   </g>
   <g id="patch_4">
    <path d="M 70.907036 347.18 
L 75.767232 347.18 
L 75.767232 166.111809 
L 70.907036 166.111809 
z
" clip-path="url(#pcd1987a52c)" style="fill: #0d3b66"/>
   </g>
   <g id="patch_5">
    <path d="M 87.10769 347.18 
L 91.967887 347.18 
L 91.967887 157.608179 
L 87.10769 157.608179 
z
" clip-path="url(#pcd1987a52c)" style="fill: #0d3b66"/>
   </g>
   <g id="patch_6">
    <path d="M 103.308345 347.18 
L 108.168542 347.18 
L 108.168542 211.268495 
L 103.308345 211.268495 
z
" clip-path="url(#pcd1987a52c)" style="fill: #0d3b66"/>
   </g>
   <g id="patch_7">
    <path d="M 119.509 347.18 
L 124.369196 347.18 
L 124.369196 122.728856 
L 119.509 122.728856 
z
" clip-path="url(#pcd1987a52c)" style="fill: #0d3b66"/>
   </g>
   <g id="patch_8">
    <path d="M 135.709655 347.18 
L 140.569851 347.18 
L 140.569851 186.149717 
L 135.709655 186.149717 
z
" clip-path="url(#pcd1987a52c)" style="fill: #0d3b66"/>
   </g>
   <g id="patch_9">
    <path d="M 151.91031 347.18 
L 156.770506 347.18 
L 156.770506 113.05194 
L 151.91031 113.05194 
z
" clip-path="url(#pcd1987a52c)" style="fill: #0d3b66"/>
   </g>
   <g id="patch_10">
    <path d="M 168.110964 347.18 
L 172.971161 347.18 
L 172.971161 146.716743 
L 168.110964 146.716743 
z
" clip-path="url(#pcd1987a52c)" style="fill: #0d3b66"/>
   </g>
   <g id="patch_11">
    <path d="M 184.311619 347.18 
L 189.171815 347.18 
L 189.171815 112.863268 
L 184.311619 112.863268 
z
" clip-path="url(#pcd1987a52c)" style="fill: #0d3b66"/>
   </g>
   <g id="patch_12">
    <path d="M 200.512274 347.18 
L 205.37247 347.18 
L 205.37247 128.583488 
L 200.512274 128.583488 
z
" clip-path="url(#pcd1987a52c)" style="fill: #0d3b66"/>
   </g>
   <g id="patch_13">
    <path d="M 216.712929 347.18 
L 221.573125 347.18 
L 221.573125 161.964762 
L 216.712929 161.964762 
z
" clip-path="url(#pcd1987a52c)" style="fill: #0d3b66"/>
   </g>
   <g id="patch_14">
    <path d="M 232.913583 347.18 
L 237.77378 347.18 
L 237.77378 47.439142 
L 232.913583 47.439142 
z
" clip-path="url(#pcd1987a52c)" style="fill: #0d3b66"/>
   </g>
   <g id="patch_15">
    <path d="M 249.114238 347.18 
L 253.974435 347.18 
L 253.974435 32.930001 
L 249.114238 32.930001 
z
" clip-path="url(#pcd1987a52c)" style="fill: #0d3b66"/>
   </g>
   <g id="patch_16">
    <path d="M 265.314893 347.18 
L 270.175089 347.18 
L 270.175089 31.743069 
L 265.314893 31.743069 
z
" clip-path="url(#pcd1987a52c)" style="fill: #0d3b66"/>
   </g>
   <g id="patch_17">
    <path d="M 281.515548 347.18 
L 286.375744 347.18 
L 286.375744 78.792216 
L 281.515548 78.792216 
z
" clip-path="url(#pcd1987a52c)" style="fill: #0d3b66"/>
   </g>
   <g id="patch_18">
    <path d="M 297.716202 347.18 
L 302.576399 347.18 
L 302.576399 173.973463 
L 297.716202 173.973463 
z
" clip-path="url(#pcd1987a52c)" style="fill: #0d3b66"/>
   </g>
   <g id="patch_19">
    <path d="M 313.916857 347.18 
L 318.777054 347.18 
L 318.777054 196.051525 
L 313.916857 196.051525 
z
" clip-path="url(#pcd1987a52c)" style="fill: #0d3b66"/>
   </g>
   <g id="patch_20">
    <path d="M 330.117512 347.18 
L 334.977708 347.18 
L 334.977708 71.643288 
L 330.117512 71.643288 
z
" clip-path="url(#pcd1987a52c)" style="fill: #0d3b66"/>
   </g>
   <g id="patch_21">
    <path d="M 346.318167 347.18 
L 351.178363 347.18 
L 351.178363 142.552333 
L 346.318167 142.552333 
z
" clip-path="url(#pcd1987a52c)" style="fill: #0d3b66"/>
   </g>
   <g id="patch_22">
    <path d="M 362.518821 347.18 
L 367.379018 347.18 
L 367.379018 121.776471 
L 362.518821 121.776471 
z
" clip-path="url(#pcd1987a52c)" style="fill: #0d3b66"/>
   </g>
   <g id="patch_23">
    <path d="M 378.719476 347.18 
L 383.579673 347.18 
L 383.579673 24.655314 
L 378.719476 24.655314 
z
" clip-path="url(#pcd1987a52c)" style="fill: #0d3b66"/>
   </g>
   <g id="patch_24">
    <path d="M 59.566577 347.18 
L 64.426774 347.18 
L 64.426774 283.925518 
L 59.566577 283.925518 
z
" clip-path="url(#pcd1987a52c)" style="fill: #bf4e30"/>
   </g>
   <g id="patch_25">
    <path d="M 75.767232 347.18 
L 80.627429 347.18 
L 80.627429 163.615047 
L 75.767232 163.615047 
z
" clip-path="url(#pcd1987a52c)" style="fill: #bf4e30"/>
   </g>
   <g id="patch_26">
    <path d="M 91.967887 347.18 
L 96.828083 347.18 
L 96.828083 232.420128 
L 91.967887 232.420128 
z
" clip-path="url(#pcd1987a52c)" style="fill: #bf4e30"/>
   </g>
   <g id="patch_27">
    <path d="M 108.168542 347.18 
L 113.028738 347.18 
L 113.028738 128.569566 
L 108.168542 128.569566 
z
" clip-path="url(#pcd1987a52c)" style="fill: #bf4e30"/>
   </g>
   <g id="patch_28">
    <path d="M 124.369196 347.18 
L 129.229393 347.18 
L 129.229393 130.27723 
L 124.369196 130.27723 
z
" clip-path="url(#pcd1987a52c)" style="fill: #bf4e30"/>
   </g>
   <g id="patch_29">
    <path d="M 140.569851 347.18 
L 145.430048 347.18 
L 145.430048 104.072255 
L 140.569851 104.072255 
z
" clip-path="url(#pcd1987a52c)" style="fill: #bf4e30"/>
   </g>
   <g id="patch_30">
    <path d="M 156.770506 347.18 
L 161.630702 347.18 
L 161.630702 101.143327 
L 156.770506 101.143327 
z
" clip-path="url(#pcd1987a52c)" style="fill: #bf4e30"/>
   </g>
   <g id="patch_31">
    <path d="M 172.971161 347.18 
L 177.831357 347.18 
L 177.831357 76.817836 
L 172.971161 76.817836 
z
" clip-path="url(#pcd1987a52c)" style="fill: #bf4e30"/>
   </g>
   <g id="patch_32">
    <path d="M 189.171815 347.18 
L 194.032012 347.18 
L 194.032012 57.995098 
L 189.171815 57.995098 
z
" clip-path="url(#pcd1987a52c)" style="fill: #bf4e30"/>
   </g>
   <g id="patch_33">
    <path d="M 205.37247 347.18 
L 210.232667 347.18 
L 210.232667 55.562832 
L 205.37247 55.562832 
z
" clip-path="url(#pcd1987a52c)" style="fill: #bf4e30"/>
   </g>
   <g id="patch_34">
    <path d="M 221.573125 347.18 
L 226.433321 347.18 
L 226.433321 49.915454 
L 221.573125 49.915454 
z
" clip-path="url(#pcd1987a52c)" style="fill: #bf4e30"/>
   </g>
   <g id="patch_35">
    <path d="M 237.77378 347.18 
L 242.633976 347.18 
L 242.633976 48.72803 
L 237.77378 48.72803 
z
" clip-path="url(#pcd1987a52c)" style="fill: #bf4e30"/>
   </g>
   <g id="patch_36">
    <path d="M 253.974435 347.18 
L 258.834631 347.18 
L 258.834631 51.00692 
L 253.974435 51.00692 
z
" clip-path="url(#pcd1987a52c)" style="fill: #bf4e30"/>
   </g>
   <g id="patch_37">
    <path d="M 270.175089 347.18 
L 275.035286 347.18 
L 275.035286 41.495296 
L 270.175089 41.495296 
z
" clip-path="url(#pcd1987a52c)" style="fill: #bf4e30"/>
   </g>
   <g id="patch_38">
    <path d="M 286.375744 347.18 
L 291.23594 347.18 
L 291.23594 26.992074 
L 286.375744 26.992074 
z
" clip-path="url(#pcd1987a52c)" style="fill: #bf4e30"/>
   </g>
   <g id="patch_39">
    <path d="M 302.576399 347.18 
L 307.436595 347.18 
L 307.436595 25.432242 
L 302.576399 25.432242 
z
" clip-path="url(#pcd1987a52c)" style="fill: #bf4e30"/>
   </g>
   <g id="patch_40">
    <path d="M 318.777054 347.18 
L 323.63725 347.18 
L 323.63725 23.22182 
L 318.777054 23.22182 
z
" clip-path="url(#pcd1987a52c)" style="fill: #bf4e30"/>
   </g>
   <g id="patch_41">
    <path d="M 334.977708 347.18 
L 339.837905 347.18 
L 339.837905 19.683498 
L 334.977708 19.683498 
z
" clip-path="url(#pcd1987a52c)" style="fill: #bf4e30"/>
   </g>
   <g id="patch_42">
    <path d="M 351.178363 347.18 
L 356.03856 347.18 
L 356.03856 18.311807 
L 351.178363 18.311807 
z
" clip-path="url(#pcd1987a52c)" style="fill: #bf4e30"/>
   </g>
   <g id="patch_43">
    <path d="M 367.379018 347.18 
L 372.239214 347.18 
L 372.239214 17.733678 
L 367.379018 17.733678 
z
" clip-path="url(#pcd1987a52c)" style="fill: #bf4e30"/>
   </g>
   <g id="patch_44">
    <path d="M 383.579673 347.18 
L 388.439869 347.18 
L 388.439869 17.376686 
L 383.579673 17.376686 
z
" clip-path="url(#pcd1987a52c)" style="fill: #bf4e30"/>
   </g>
   <g id="matplotlib.axis_1">
    <g id="xtick_1">
     <g id="line2d_1">
      <defs>
       <path id="mde895cedd1" d="M 0 0 
L 0 3.5 
" style="stroke: #000000; stroke-width: 0.8"/>
      </defs>
      <g>
       <use xlink:href="#mde895cedd1" x="59.566577" y="182.23" style="stroke: #000000; stroke-width: 0.8"/>
      </g>
     </g>
     <g id="text_1">
      <!-- S86 -->
      <g transform="translate(62.668765 210.580625) rotate(-90) scale(0.12 -0.12)">
       <defs>
        <path id="ArialMT-53" d="M 288 1472 
L 859 1522 
Q 900 1178 1048 958 
Q 1197 738 1509 602 
Q 1822 466 2213 466 
Q 2559 466 2825 569 
Q 3091 672 3220 851 
Q 3350 1031 3350 1244 
Q 3350 1459 3225 1620 
Q 3100 1781 2813 1891 
Q 2628 1963 1997 2114 
Q 1366 2266 1113 2400 
Q 784 2572 623 2826 
Q 463 3081 463 3397 
Q 463 3744 659 4045 
Q 856 4347 1234 4503 
Q 1613 4659 2075 4659 
Q 2584 4659 2973 4495 
Q 3363 4331 3572 4012 
Q 3781 3694 3797 3291 
L 3216 3247 
Q 3169 3681 2898 3903 
Q 2628 4125 2100 4125 
Q 1550 4125 1298 3923 
Q 1047 3722 1047 3438 
Q 1047 3191 1225 3031 
Q 1400 2872 2139 2705 
Q 2878 2538 3153 2413 
Q 3553 2228 3743 1945 
Q 3934 1663 3934 1294 
Q 3934 928 3725 604 
Q 3516 281 3123 101 
Q 2731 -78 2241 -78 
Q 1619 -78 1198 103 
Q 778 284 539 648 
Q 300 1013 288 1472 
z
" transform="scale(0.015625)"/>
        <path id="ArialMT-38" d="M 1131 2484 
Q 781 2613 612 2850 
Q 444 3088 444 3419 
Q 444 3919 803 4259 
Q 1163 4600 1759 4600 
Q 2359 4600 2725 4251 
Q 3091 3903 3091 3403 
Q 3091 3084 2923 2848 
Q 2756 2613 2416 2484 
Q 2838 2347 3058 2040 
Q 3278 1734 3278 1309 
Q 3278 722 2862 322 
Q 2447 -78 1769 -78 
Q 1091 -78 675 323 
Q 259 725 259 1325 
Q 259 1772 486 2073 
Q 713 2375 1131 2484 
z
M 1019 3438 
Q 1019 3113 1228 2906 
Q 1438 2700 1772 2700 
Q 2097 2700 2305 2904 
Q 2513 3109 2513 3406 
Q 2513 3716 2298 3927 
Q 2084 4138 1766 4138 
Q 1444 4138 1231 3931 
Q 1019 3725 1019 3438 
z
M 838 1322 
Q 838 1081 952 856 
Q 1066 631 1291 507 
Q 1516 384 1775 384 
Q 2178 384 2440 643 
Q 2703 903 2703 1303 
Q 2703 1709 2433 1975 
Q 2163 2241 1756 2241 
Q 1359 2241 1098 1978 
Q 838 1716 838 1322 
z
" transform="scale(0.015625)"/>
        <path id="ArialMT-36" d="M 3184 3459 
L 2625 3416 
Q 2550 3747 2413 3897 
Q 2184 4138 1850 4138 
Q 1581 4138 1378 3988 
Q 1113 3794 959 3422 
Q 806 3050 800 2363 
Q 1003 2672 1297 2822 
Q 1591 2972 1913 2972 
Q 2475 2972 2870 2558 
Q 3266 2144 3266 1488 
Q 3266 1056 3080 686 
Q 2894 316 2569 119 
Q 2244 -78 1831 -78 
Q 1128 -78 684 439 
Q 241 956 241 2144 
Q 241 3472 731 4075 
Q 1159 4600 1884 4600 
Q 2425 4600 2770 4297 
Q 3116 3994 3184 3459 
z
M 888 1484 
Q 888 1194 1011 928 
Q 1134 663 1356 523 
Q 1578 384 1822 384 
Q 2178 384 2434 671 
Q 2691 959 2691 1453 
Q 2691 1928 2437 2201 
Q 2184 2475 1800 2475 
Q 1419 2475 1153 2201 
Q 888 1928 888 1484 
z
" transform="scale(0.015625)"/>
       </defs>
       <use xlink:href="#ArialMT-53"/>
       <use xlink:href="#ArialMT-38" x="66.699219"/>
       <use xlink:href="#ArialMT-36" x="122.314453"/>
      </g>
     </g>
    </g>
    <g id="xtick_2">
     <g id="line2d_2">
      <g>
       <use xlink:href="#mde895cedd1" x="75.767232" y="182.23" style="stroke: #000000; stroke-width: 0.8"/>
      </g>
     </g>
     <g id="text_2">
      <!-- R118 -->
      <g transform="translate(78.86942 217.030625) rotate(-90) scale(0.12 -0.12)">
       <defs>
        <path id="ArialMT-52" d="M 503 0 
L 503 4581 
L 2534 4581 
Q 3147 4581 3465 4457 
Q 3784 4334 3975 4021 
Q 4166 3709 4166 3331 
Q 4166 2844 3850 2509 
Q 3534 2175 2875 2084 
Q 3116 1969 3241 1856 
Q 3506 1613 3744 1247 
L 4541 0 
L 3778 0 
L 3172 953 
Q 2906 1366 2734 1584 
Q 2563 1803 2427 1890 
Q 2291 1978 2150 2013 
Q 2047 2034 1813 2034 
L 1109 2034 
L 1109 0 
L 503 0 
z
M 1109 2559 
L 2413 2559 
Q 2828 2559 3062 2645 
Q 3297 2731 3419 2920 
Q 3541 3109 3541 3331 
Q 3541 3656 3305 3865 
Q 3069 4075 2559 4075 
L 1109 4075 
L 1109 2559 
z
" transform="scale(0.015625)"/>
        <path id="ArialMT-31" d="M 2384 0 
L 1822 0 
L 1822 3584 
Q 1619 3391 1289 3197 
Q 959 3003 697 2906 
L 697 3450 
Q 1169 3672 1522 3987 
Q 1875 4303 2022 4600 
L 2384 4600 
L 2384 0 
z
" transform="scale(0.015625)"/>
       </defs>
       <use xlink:href="#ArialMT-52"/>
       <use xlink:href="#ArialMT-31" x="72.216797"/>
       <use xlink:href="#ArialMT-31" x="120.457031"/>
       <use xlink:href="#ArialMT-38" x="176.072266"/>
      </g>
     </g>
    </g>
    <g id="xtick_3">
     <g id="line2d_3">
      <g>
       <use xlink:href="#mde895cedd1" x="91.967887" y="182.23" style="stroke: #000000; stroke-width: 0.8"/>
      </g>
     </g>
     <g id="text_3">
      <!-- E96 -->
      <g transform="translate(95.070074 210.580625) rotate(-90) scale(0.12 -0.12)">
       <defs>
        <path id="ArialMT-45" d="M 506 0 
L 506 4581 
L 3819 4581 
L 3819 4041 
L 1113 4041 
L 1113 2638 
L 3647 2638 
L 3647 2100 
L 1113 2100 
L 1113 541 
L 3925 541 
L 3925 0 
L 506 0 
z
" transform="scale(0.015625)"/>
        <path id="ArialMT-39" d="M 350 1059 
L 891 1109 
Q 959 728 1153 556 
Q 1347 384 1650 384 
Q 1909 384 2104 503 
Q 2300 622 2425 820 
Q 2550 1019 2634 1356 
Q 2719 1694 2719 2044 
Q 2719 2081 2716 2156 
Q 2547 1888 2255 1720 
Q 1963 1553 1622 1553 
Q 1053 1553 659 1965 
Q 266 2378 266 3053 
Q 266 3750 677 4175 
Q 1088 4600 1706 4600 
Q 2153 4600 2523 4359 
Q 2894 4119 3086 3673 
Q 3278 3228 3278 2384 
Q 3278 1506 3087 986 
Q 2897 466 2520 194 
Q 2144 -78 1638 -78 
Q 1100 -78 759 220 
Q 419 519 350 1059 
z
M 2653 3081 
Q 2653 3566 2395 3850 
Q 2138 4134 1775 4134 
Q 1400 4134 1122 3828 
Q 844 3522 844 3034 
Q 844 2597 1108 2323 
Q 1372 2050 1759 2050 
Q 2150 2050 2401 2323 
Q 2653 2597 2653 3081 
z
" transform="scale(0.015625)"/>
       </defs>
       <use xlink:href="#ArialMT-45"/>
       <use xlink:href="#ArialMT-39" x="66.699219"/>
       <use xlink:href="#ArialMT-36" x="122.314453"/>
      </g>
     </g>
    </g>
    <g id="xtick_4">
     <g id="line2d_4">
      <g>
       <use xlink:href="#mde895cedd1" x="108.168542" y="182.23" style="stroke: #000000; stroke-width: 0.8"/>
      </g>
     </g>
     <g id="text_4">
      <!-- K49 -->
      <g transform="translate(111.270729 210.580625) rotate(-90) scale(0.12 -0.12)">
       <defs>
        <path id="ArialMT-4b" d="M 469 0 
L 469 4581 
L 1075 4581 
L 1075 2309 
L 3350 4581 
L 4172 4581 
L 2250 2725 
L 4256 0 
L 3456 0 
L 1825 2319 
L 1075 1588 
L 1075 0 
L 469 0 
z
" transform="scale(0.015625)"/>
        <path id="ArialMT-34" d="M 2069 0 
L 2069 1097 
L 81 1097 
L 81 1613 
L 2172 4581 
L 2631 4581 
L 2631 1613 
L 3250 1613 
L 3250 1097 
L 2631 1097 
L 2631 0 
L 2069 0 
z
M 2069 1613 
L 2069 3678 
L 634 1613 
L 2069 1613 
z
" transform="scale(0.015625)"/>
       </defs>
       <use xlink:href="#ArialMT-4b"/>
       <use xlink:href="#ArialMT-34" x="66.699219"/>
       <use xlink:href="#ArialMT-39" x="122.314453"/>
      </g>
     </g>
    </g>
    <g id="xtick_5">
     <g id="line2d_5">
      <g>
       <use xlink:href="#mde895cedd1" x="124.369196" y="182.23" style="stroke: #000000; stroke-width: 0.8"/>
      </g>
     </g>
     <g id="text_5">
      <!-- D44 -->
      <g transform="translate(127.471384 211.2425) rotate(-90) scale(0.12 -0.12)">
       <defs>
        <path id="ArialMT-44" d="M 494 0 
L 494 4581 
L 2072 4581 
Q 2606 4581 2888 4516 
Q 3281 4425 3559 4188 
Q 3922 3881 4101 3404 
Q 4281 2928 4281 2316 
Q 4281 1794 4159 1391 
Q 4038 988 3847 723 
Q 3656 459 3429 307 
Q 3203 156 2883 78 
Q 2563 0 2147 0 
L 494 0 
z
M 1100 541 
L 2078 541 
Q 2531 541 2789 625 
Q 3047 709 3200 863 
Q 3416 1078 3536 1442 
Q 3656 1806 3656 2325 
Q 3656 3044 3420 3430 
Q 3184 3816 2847 3947 
Q 2603 4041 2063 4041 
L 1100 4041 
L 1100 541 
z
" transform="scale(0.015625)"/>
       </defs>
       <use xlink:href="#ArialMT-44"/>
       <use xlink:href="#ArialMT-34" x="72.216797"/>
       <use xlink:href="#ArialMT-34" x="127.832031"/>
      </g>
     </g>
    </g>
    <g id="xtick_6">
     <g id="line2d_6">
      <g>
       <use xlink:href="#mde895cedd1" x="140.569851" y="182.23" style="stroke: #000000; stroke-width: 0.8"/>
      </g>
     </g>
     <g id="text_6">
      <!-- E93 -->
      <g transform="translate(143.672039 210.580625) rotate(-90) scale(0.12 -0.12)">
       <defs>
        <path id="ArialMT-33" d="M 269 1209 
L 831 1284 
Q 928 806 1161 595 
Q 1394 384 1728 384 
Q 2125 384 2398 659 
Q 2672 934 2672 1341 
Q 2672 1728 2419 1979 
Q 2166 2231 1775 2231 
Q 1616 2231 1378 2169 
L 1441 2663 
Q 1497 2656 1531 2656 
Q 1891 2656 2178 2843 
Q 2466 3031 2466 3422 
Q 2466 3731 2256 3934 
Q 2047 4138 1716 4138 
Q 1388 4138 1169 3931 
Q 950 3725 888 3313 
L 325 3413 
Q 428 3978 793 4289 
Q 1159 4600 1703 4600 
Q 2078 4600 2393 4439 
Q 2709 4278 2876 4000 
Q 3044 3722 3044 3409 
Q 3044 3113 2884 2869 
Q 2725 2625 2413 2481 
Q 2819 2388 3044 2092 
Q 3269 1797 3269 1353 
Q 3269 753 2831 336 
Q 2394 -81 1725 -81 
Q 1122 -81 723 278 
Q 325 638 269 1209 
z
" transform="scale(0.015625)"/>
       </defs>
       <use xlink:href="#ArialMT-45"/>
       <use xlink:href="#ArialMT-39" x="66.699219"/>
       <use xlink:href="#ArialMT-33" x="122.314453"/>
      </g>
     </g>
    </g>
    <g id="xtick_7">
     <g id="line2d_7">
      <g>
       <use xlink:href="#mde895cedd1" x="156.770506" y="182.23" style="stroke: #000000; stroke-width: 0.8"/>
      </g>
     </g>
     <g id="text_7">
      <!-- K48 -->
      <g transform="translate(159.872693 210.580625) rotate(-90) scale(0.12 -0.12)">
       <use xlink:href="#ArialMT-4b"/>
       <use xlink:href="#ArialMT-34" x="66.699219"/>
       <use xlink:href="#ArialMT-38" x="122.314453"/>
      </g>
     </g>
    </g>
    <g id="xtick_8">
     <g id="line2d_8">
      <g>
       <use xlink:href="#mde895cedd1" x="172.971161" y="182.23" style="stroke: #000000; stroke-width: 0.8"/>
      </g>
     </g>
     <g id="text_8">
      <!-- K76 -->
      <g transform="translate(176.073348 210.580625) rotate(-90) scale(0.12 -0.12)">
       <defs>
        <path id="ArialMT-37" d="M 303 3981 
L 303 4522 
L 3269 4522 
L 3269 4084 
Q 2831 3619 2401 2847 
Q 1972 2075 1738 1259 
Q 1569 684 1522 0 
L 944 0 
Q 953 541 1156 1306 
Q 1359 2072 1739 2783 
Q 2119 3494 2547 3981 
L 303 3981 
z
" transform="scale(0.015625)"/>
       </defs>
       <use xlink:href="#ArialMT-4b"/>
       <use xlink:href="#ArialMT-37" x="66.699219"/>
       <use xlink:href="#ArialMT-36" x="122.314453"/>
      </g>
     </g>
    </g>
    <g id="xtick_9">
     <g id="line2d_9">
      <g>
       <use xlink:href="#mde895cedd1" x="189.171815" y="182.23" style="stroke: #000000; stroke-width: 0.8"/>
      </g>
     </g>
     <g id="text_9">
      <!-- K41 -->
      <g transform="translate(192.274003 210.580625) rotate(-90) scale(0.12 -0.12)">
       <use xlink:href="#ArialMT-4b"/>
       <use xlink:href="#ArialMT-34" x="66.699219"/>
       <use xlink:href="#ArialMT-31" x="122.314453"/>
      </g>
     </g>
    </g>
    <g id="xtick_10">
     <g id="line2d_10">
      <g>
       <use xlink:href="#mde895cedd1" x="205.37247" y="182.23" style="stroke: #000000; stroke-width: 0.8"/>
      </g>
     </g>
     <g id="text_10">
      <!-- D45 -->
      <g transform="translate(208.474658 211.2425) rotate(-90) scale(0.12 -0.12)">
       <defs>
        <path id="ArialMT-35" d="M 266 1200 
L 856 1250 
Q 922 819 1161 601 
Q 1400 384 1738 384 
Q 2144 384 2425 690 
Q 2706 997 2706 1503 
Q 2706 1984 2436 2262 
Q 2166 2541 1728 2541 
Q 1456 2541 1237 2417 
Q 1019 2294 894 2097 
L 366 2166 
L 809 4519 
L 3088 4519 
L 3088 3981 
L 1259 3981 
L 1013 2750 
Q 1425 3038 1878 3038 
Q 2478 3038 2890 2622 
Q 3303 2206 3303 1553 
Q 3303 931 2941 478 
Q 2500 -78 1738 -78 
Q 1113 -78 717 272 
Q 322 622 266 1200 
z
" transform="scale(0.015625)"/>
       </defs>
       <use xlink:href="#ArialMT-44"/>
       <use xlink:href="#ArialMT-34" x="72.216797"/>
       <use xlink:href="#ArialMT-35" x="127.832031"/>
      </g>
     </g>
    </g>
    <g id="xtick_11">
     <g id="line2d_11">
      <g>
       <use xlink:href="#mde895cedd1" x="221.573125" y="182.23" style="stroke: #000000; stroke-width: 0.8"/>
      </g>
     </g>
     <g id="text_11">
      <!-- R89 -->
      <g transform="translate(224.675313 211.2425) rotate(-90) scale(0.12 -0.12)">
       <use xlink:href="#ArialMT-52"/>
       <use xlink:href="#ArialMT-38" x="72.216797"/>
       <use xlink:href="#ArialMT-39" x="127.832031"/>
      </g>
     </g>
    </g>
    <g id="xtick_12">
     <g id="line2d_12">
      <g>
       <use xlink:href="#mde895cedd1" x="237.77378" y="182.23" style="stroke: #000000; stroke-width: 0.8"/>
      </g>
     </g>
     <g id="text_12">
      <!-- R71 -->
      <g transform="translate(240.875967 211.2425) rotate(-90) scale(0.12 -0.12)">
       <use xlink:href="#ArialMT-52"/>
       <use xlink:href="#ArialMT-37" x="72.216797"/>
       <use xlink:href="#ArialMT-31" x="127.832031"/>
      </g>
     </g>
    </g>
    <g id="xtick_13">
     <g id="line2d_13">
      <g>
       <use xlink:href="#mde895cedd1" x="253.974435" y="182.23" style="stroke: #000000; stroke-width: 0.8"/>
      </g>
     </g>
     <g id="text_13">
      <!-- L94 -->
      <g transform="translate(257.076622 209.249375) rotate(-90) scale(0.12 -0.12)">
       <defs>
        <path id="ArialMT-4c" d="M 469 0 
L 469 4581 
L 1075 4581 
L 1075 541 
L 3331 541 
L 3331 0 
L 469 0 
z
" transform="scale(0.015625)"/>
       </defs>
       <use xlink:href="#ArialMT-4c"/>
       <use xlink:href="#ArialMT-39" x="55.615234"/>
       <use xlink:href="#ArialMT-34" x="111.230469"/>
      </g>
     </g>
    </g>
    <g id="xtick_14">
     <g id="line2d_14">
      <g>
       <use xlink:href="#mde895cedd1" x="270.175089" y="182.23" style="stroke: #000000; stroke-width: 0.8"/>
      </g>
     </g>
     <g id="text_14">
      <!-- A77 -->
      <g transform="translate(273.277277 210.580625) rotate(-90) scale(0.12 -0.12)">
       <defs>
        <path id="ArialMT-41" d="M -9 0 
L 1750 4581 
L 2403 4581 
L 4278 0 
L 3588 0 
L 3053 1388 
L 1138 1388 
L 634 0 
L -9 0 
z
M 1313 1881 
L 2866 1881 
L 2388 3150 
Q 2169 3728 2063 4100 
Q 1975 3659 1816 3225 
L 1313 1881 
z
" transform="scale(0.015625)"/>
       </defs>
       <use xlink:href="#ArialMT-41"/>
       <use xlink:href="#ArialMT-37" x="66.699219"/>
       <use xlink:href="#ArialMT-37" x="122.314453"/>
      </g>
     </g>
    </g>
    <g id="xtick_15">
     <g id="line2d_15">
      <g>
       <use xlink:href="#mde895cedd1" x="286.375744" y="182.23" style="stroke: #000000; stroke-width: 0.8"/>
      </g>
     </g>
     <g id="text_15">
      <!-- H95 -->
      <g transform="translate(289.477932 211.2425) rotate(-90) scale(0.12 -0.12)">
       <defs>
        <path id="ArialMT-48" d="M 513 0 
L 513 4581 
L 1119 4581 
L 1119 2700 
L 3500 2700 
L 3500 4581 
L 4106 4581 
L 4106 0 
L 3500 0 
L 3500 2159 
L 1119 2159 
L 1119 0 
L 513 0 
z
" transform="scale(0.015625)"/>
       </defs>
       <use xlink:href="#ArialMT-48"/>
       <use xlink:href="#ArialMT-39" x="72.216797"/>
       <use xlink:href="#ArialMT-35" x="127.832031"/>
      </g>
     </g>
    </g>
    <g id="xtick_16">
     <g id="line2d_16">
      <g>
       <use xlink:href="#mde895cedd1" x="302.576399" y="182.23" style="stroke: #000000; stroke-width: 0.8"/>
      </g>
     </g>
     <g id="text_16">
      <!-- K88 -->
      <g transform="translate(305.678586 210.580625) rotate(-90) scale(0.12 -0.12)">
       <use xlink:href="#ArialMT-4b"/>
       <use xlink:href="#ArialMT-38" x="66.699219"/>
       <use xlink:href="#ArialMT-38" x="122.314453"/>
      </g>
     </g>
    </g>
    <g id="xtick_17">
     <g id="line2d_17">
      <g>
       <use xlink:href="#mde895cedd1" x="318.777054" y="182.23" style="stroke: #000000; stroke-width: 0.8"/>
      </g>
     </g>
     <g id="text_17">
      <!-- R47 -->
      <g transform="translate(321.879241 211.2425) rotate(-90) scale(0.12 -0.12)">
       <use xlink:href="#ArialMT-52"/>
       <use xlink:href="#ArialMT-34" x="72.216797"/>
       <use xlink:href="#ArialMT-37" x="127.832031"/>
      </g>
     </g>
    </g>
    <g id="xtick_18">
     <g id="line2d_18">
      <g>
       <use xlink:href="#mde895cedd1" x="334.977708" y="182.23" style="stroke: #000000; stroke-width: 0.8"/>
      </g>
     </g>
     <g id="text_18">
      <!-- S91 -->
      <g transform="translate(338.079896 210.580625) rotate(-90) scale(0.12 -0.12)">
       <use xlink:href="#ArialMT-53"/>
       <use xlink:href="#ArialMT-39" x="66.699219"/>
       <use xlink:href="#ArialMT-31" x="122.314453"/>
      </g>
     </g>
    </g>
    <g id="xtick_19">
     <g id="line2d_19">
      <g>
       <use xlink:href="#mde895cedd1" x="351.178363" y="182.23" style="stroke: #000000; stroke-width: 0.8"/>
      </g>
     </g>
     <g id="text_19">
      <!-- H113 -->
      <g transform="translate(354.280551 217.030625) rotate(-90) scale(0.12 -0.12)">
       <use xlink:href="#ArialMT-48"/>
       <use xlink:href="#ArialMT-31" x="72.216797"/>
       <use xlink:href="#ArialMT-31" x="120.457031"/>
       <use xlink:href="#ArialMT-33" x="176.072266"/>
      </g>
     </g>
    </g>
    <g id="xtick_20">
     <g id="line2d_20">
      <g>
       <use xlink:href="#mde895cedd1" x="367.379018" y="182.23" style="stroke: #000000; stroke-width: 0.8"/>
      </g>
     </g>
     <g id="text_20">
      <!-- H117 -->
      <g transform="translate(370.481205 217.030625) rotate(-90) scale(0.12 -0.12)">
       <use xlink:href="#ArialMT-48"/>
       <use xlink:href="#ArialMT-31" x="72.216797"/>
       <use xlink:href="#ArialMT-31" x="120.457031"/>
       <use xlink:href="#ArialMT-37" x="176.072266"/>
      </g>
     </g>
    </g>
    <g id="xtick_21">
     <g id="line2d_21">
      <g>
       <use xlink:href="#mde895cedd1" x="383.579673" y="182.23" style="stroke: #000000; stroke-width: 0.8"/>
      </g>
     </g>
     <g id="text_21">
      <!-- G87 -->
      <g transform="translate(386.68186 211.91) rotate(-90) scale(0.12 -0.12)">
       <defs>
        <path id="ArialMT-47" d="M 2638 1797 
L 2638 2334 
L 4578 2338 
L 4578 638 
Q 4131 281 3656 101 
Q 3181 -78 2681 -78 
Q 2006 -78 1454 211 
Q 903 500 622 1047 
Q 341 1594 341 2269 
Q 341 2938 620 3517 
Q 900 4097 1425 4378 
Q 1950 4659 2634 4659 
Q 3131 4659 3532 4498 
Q 3934 4338 4162 4050 
Q 4391 3763 4509 3300 
L 3963 3150 
Q 3859 3500 3706 3700 
Q 3553 3900 3268 4020 
Q 2984 4141 2638 4141 
Q 2222 4141 1919 4014 
Q 1616 3888 1430 3681 
Q 1244 3475 1141 3228 
Q 966 2803 966 2306 
Q 966 1694 1177 1281 
Q 1388 869 1791 669 
Q 2194 469 2647 469 
Q 3041 469 3416 620 
Q 3791 772 3984 944 
L 3984 1797 
L 2638 1797 
z
" transform="scale(0.015625)"/>
       </defs>
       <use xlink:href="#ArialMT-47"/>
       <use xlink:href="#ArialMT-38" x="77.783203"/>
       <use xlink:href="#ArialMT-37" x="133.398438"/>
      </g>
     </g>
    </g>
    <g id="text_22">
     <!-- interface residue index -->
     <g transform="translate(161.208438 229.62) scale(0.12 -0.12)">
      <defs>
       <path id="ArialMT-69" d="M 425 3934 
L 425 4581 
L 988 4581 
L 988 3934 
L 425 3934 
z
M 425 0 
L 425 3319 
L 988 3319 
L 988 0 
L 425 0 
z
" transform="scale(0.015625)"/>
       <path id="ArialMT-6e" d="M 422 0 
L 422 3319 
L 928 3319 
L 928 2847 
Q 1294 3394 1984 3394 
Q 2284 3394 2536 3286 
Q 2788 3178 2913 3003 
Q 3038 2828 3088 2588 
Q 3119 2431 3119 2041 
L 3119 0 
L 2556 0 
L 2556 2019 
Q 2556 2363 2490 2533 
Q 2425 2703 2258 2804 
Q 2091 2906 1866 2906 
Q 1506 2906 1245 2678 
Q 984 2450 984 1813 
L 984 0 
L 422 0 
z
" transform="scale(0.015625)"/>
       <path id="ArialMT-74" d="M 1650 503 
L 1731 6 
Q 1494 -44 1306 -44 
Q 1000 -44 831 53 
Q 663 150 594 308 
Q 525 466 525 972 
L 525 2881 
L 113 2881 
L 113 3319 
L 525 3319 
L 525 4141 
L 1084 4478 
L 1084 3319 
L 1650 3319 
L 1650 2881 
L 1084 2881 
L 1084 941 
Q 1084 700 1114 631 
Q 1144 563 1211 522 
Q 1278 481 1403 481 
Q 1497 481 1650 503 
z
" transform="scale(0.015625)"/>
       <path id="ArialMT-65" d="M 2694 1069 
L 3275 997 
Q 3138 488 2766 206 
Q 2394 -75 1816 -75 
Q 1088 -75 661 373 
Q 234 822 234 1631 
Q 234 2469 665 2931 
Q 1097 3394 1784 3394 
Q 2450 3394 2872 2941 
Q 3294 2488 3294 1666 
Q 3294 1616 3291 1516 
L 816 1516 
Q 847 969 1125 678 
Q 1403 388 1819 388 
Q 2128 388 2347 550 
Q 2566 713 2694 1069 
z
M 847 1978 
L 2700 1978 
Q 2663 2397 2488 2606 
Q 2219 2931 1791 2931 
Q 1403 2931 1139 2672 
Q 875 2413 847 1978 
z
" transform="scale(0.015625)"/>
       <path id="ArialMT-72" d="M 416 0 
L 416 3319 
L 922 3319 
L 922 2816 
Q 1116 3169 1280 3281 
Q 1444 3394 1641 3394 
Q 1925 3394 2219 3213 
L 2025 2691 
Q 1819 2813 1613 2813 
Q 1428 2813 1281 2702 
Q 1134 2591 1072 2394 
Q 978 2094 978 1738 
L 978 0 
L 416 0 
z
" transform="scale(0.015625)"/>
       <path id="ArialMT-66" d="M 556 0 
L 556 2881 
L 59 2881 
L 59 3319 
L 556 3319 
L 556 3672 
Q 556 4006 616 4169 
Q 697 4388 901 4523 
Q 1106 4659 1475 4659 
Q 1713 4659 2000 4603 
L 1916 4113 
Q 1741 4144 1584 4144 
Q 1328 4144 1222 4034 
Q 1116 3925 1116 3625 
L 1116 3319 
L 1763 3319 
L 1763 2881 
L 1116 2881 
L 1116 0 
L 556 0 
z
" transform="scale(0.015625)"/>
       <path id="ArialMT-61" d="M 2588 409 
Q 2275 144 1986 34 
Q 1697 -75 1366 -75 
Q 819 -75 525 192 
Q 231 459 231 875 
Q 231 1119 342 1320 
Q 453 1522 633 1644 
Q 813 1766 1038 1828 
Q 1203 1872 1538 1913 
Q 2219 1994 2541 2106 
Q 2544 2222 2544 2253 
Q 2544 2597 2384 2738 
Q 2169 2928 1744 2928 
Q 1347 2928 1158 2789 
Q 969 2650 878 2297 
L 328 2372 
Q 403 2725 575 2942 
Q 747 3159 1072 3276 
Q 1397 3394 1825 3394 
Q 2250 3394 2515 3294 
Q 2781 3194 2906 3042 
Q 3031 2891 3081 2659 
Q 3109 2516 3109 2141 
L 3109 1391 
Q 3109 606 3145 398 
Q 3181 191 3288 0 
L 2700 0 
Q 2613 175 2588 409 
z
M 2541 1666 
Q 2234 1541 1622 1453 
Q 1275 1403 1131 1340 
Q 988 1278 909 1158 
Q 831 1038 831 891 
Q 831 666 1001 516 
Q 1172 366 1500 366 
Q 1825 366 2078 508 
Q 2331 650 2450 897 
Q 2541 1088 2541 1459 
L 2541 1666 
z
" transform="scale(0.015625)"/>
       <path id="ArialMT-63" d="M 2588 1216 
L 3141 1144 
Q 3050 572 2676 248 
Q 2303 -75 1759 -75 
Q 1078 -75 664 370 
Q 250 816 250 1647 
Q 250 2184 428 2587 
Q 606 2991 970 3192 
Q 1334 3394 1763 3394 
Q 2303 3394 2647 3120 
Q 2991 2847 3088 2344 
L 2541 2259 
Q 2463 2594 2264 2762 
Q 2066 2931 1784 2931 
Q 1359 2931 1093 2626 
Q 828 2322 828 1663 
Q 828 994 1084 691 
Q 1341 388 1753 388 
Q 2084 388 2306 591 
Q 2528 794 2588 1216 
z
" transform="scale(0.015625)"/>
       <path id="ArialMT-20" transform="scale(0.015625)"/>
       <path id="ArialMT-73" d="M 197 991 
L 753 1078 
Q 800 744 1014 566 
Q 1228 388 1613 388 
Q 2000 388 2187 545 
Q 2375 703 2375 916 
Q 2375 1106 2209 1216 
Q 2094 1291 1634 1406 
Q 1016 1563 777 1677 
Q 538 1791 414 1992 
Q 291 2194 291 2438 
Q 291 2659 392 2848 
Q 494 3038 669 3163 
Q 800 3259 1026 3326 
Q 1253 3394 1513 3394 
Q 1903 3394 2198 3281 
Q 2494 3169 2634 2976 
Q 2775 2784 2828 2463 
L 2278 2388 
Q 2241 2644 2061 2787 
Q 1881 2931 1553 2931 
Q 1166 2931 1000 2803 
Q 834 2675 834 2503 
Q 834 2394 903 2306 
Q 972 2216 1119 2156 
Q 1203 2125 1616 2013 
Q 2213 1853 2448 1751 
Q 2684 1650 2818 1456 
Q 2953 1263 2953 975 
Q 2953 694 2789 445 
Q 2625 197 2315 61 
Q 2006 -75 1616 -75 
Q 969 -75 630 194 
Q 291 463 197 991 
z
" transform="scale(0.015625)"/>
       <path id="ArialMT-64" d="M 2575 0 
L 2575 419 
Q 2259 -75 1647 -75 
Q 1250 -75 917 144 
Q 584 363 401 755 
Q 219 1147 219 1656 
Q 219 2153 384 2558 
Q 550 2963 881 3178 
Q 1213 3394 1622 3394 
Q 1922 3394 2156 3267 
Q 2391 3141 2538 2938 
L 2538 4581 
L 3097 4581 
L 3097 0 
L 2575 0 
z
M 797 1656 
Q 797 1019 1065 703 
Q 1334 388 1700 388 
Q 2069 388 2326 689 
Q 2584 991 2584 1609 
Q 2584 2291 2321 2609 
Q 2059 2928 1675 2928 
Q 1300 2928 1048 2622 
Q 797 2316 797 1656 
z
" transform="scale(0.015625)"/>
       <path id="ArialMT-75" d="M 2597 0 
L 2597 488 
Q 2209 -75 1544 -75 
Q 1250 -75 995 37 
Q 741 150 617 320 
Q 494 491 444 738 
Q 409 903 409 1263 
L 409 3319 
L 972 3319 
L 972 1478 
Q 972 1038 1006 884 
Q 1059 663 1231 536 
Q 1403 409 1656 409 
Q 1909 409 2131 539 
Q 2353 669 2445 892 
Q 2538 1116 2538 1541 
L 2538 3319 
L 3100 3319 
L 3100 0 
L 2597 0 
z
" transform="scale(0.015625)"/>
       <path id="ArialMT-78" d="M 47 0 
L 1259 1725 
L 138 3319 
L 841 3319 
L 1350 2541 
Q 1494 2319 1581 2169 
Q 1719 2375 1834 2534 
L 2394 3319 
L 3066 3319 
L 1919 1756 
L 3153 0 
L 2463 0 
L 1781 1031 
L 1600 1309 
L 728 0 
L 47 0 
z
" transform="scale(0.015625)"/>
      </defs>
      <use xlink:href="#ArialMT-69"/>
      <use xlink:href="#ArialMT-6e" x="22.216797"/>
      <use xlink:href="#ArialMT-74" x="77.832031"/>
      <use xlink:href="#ArialMT-65" x="105.615234"/>
      <use xlink:href="#ArialMT-72" x="161.230469"/>
      <use xlink:href="#ArialMT-66" x="194.53125"/>
      <use xlink:href="#ArialMT-61" x="222.314453"/>
      <use xlink:href="#ArialMT-63" x="277.929688"/>
      <use xlink:href="#ArialMT-65" x="327.929688"/>
      <use xlink:href="#ArialMT-20" x="383.544922"/>
      <use xlink:href="#ArialMT-72" x="411.328125"/>
      <use xlink:href="#ArialMT-65" x="444.628906"/>
      <use xlink:href="#ArialMT-73" x="500.244141"/>
      <use xlink:href="#ArialMT-69" x="550.244141"/>
      <use xlink:href="#ArialMT-64" x="572.460938"/>
      <use xlink:href="#ArialMT-75" x="628.076172"/>
      <use xlink:href="#ArialMT-65" x="683.691406"/>
      <use xlink:href="#ArialMT-20" x="739.306641"/>
      <use xlink:href="#ArialMT-69" x="767.089844"/>
      <use xlink:href="#ArialMT-6e" x="789.306641"/>
      <use xlink:href="#ArialMT-64" x="844.921875"/>
      <use xlink:href="#ArialMT-65" x="900.537109"/>
      <use xlink:href="#ArialMT-78" x="956.152344"/>
     </g>
    </g>
   </g>
   <g id="matplotlib.axis_2">
    <g id="ytick_1">
     <g id="line2d_22">
      <defs>
       <path id="m76bcd7d333" d="M 0 0 
L -3.5 0 
" style="stroke: #000000; stroke-width: 0.8"/>
      </defs>
      <g>
       <use xlink:href="#m76bcd7d333" x="51.46625" y="182.23" style="stroke: #000000; stroke-width: 0.8"/>
      </g>
     </g>
     <g id="text_23">
      <!-- 0.5 -->
      <g transform="translate(27.78625 186.524687) scale(0.12 -0.12)">
       <defs>
        <path id="ArialMT-30" d="M 266 2259 
Q 266 3072 433 3567 
Q 600 4063 929 4331 
Q 1259 4600 1759 4600 
Q 2128 4600 2406 4451 
Q 2684 4303 2865 4023 
Q 3047 3744 3150 3342 
Q 3253 2941 3253 2259 
Q 3253 1453 3087 958 
Q 2922 463 2592 192 
Q 2263 -78 1759 -78 
Q 1097 -78 719 397 
Q 266 969 266 2259 
z
M 844 2259 
Q 844 1131 1108 757 
Q 1372 384 1759 384 
Q 2147 384 2411 759 
Q 2675 1134 2675 2259 
Q 2675 3391 2411 3762 
Q 2147 4134 1753 4134 
Q 1366 4134 1134 3806 
Q 844 3388 844 2259 
z
" transform="scale(0.015625)"/>
        <path id="ArialMT-2e" d="M 581 0 
L 581 641 
L 1222 641 
L 1222 0 
L 581 0 
z
" transform="scale(0.015625)"/>
       </defs>
       <use xlink:href="#ArialMT-30"/>
       <use xlink:href="#ArialMT-2e" x="55.615234"/>
       <use xlink:href="#ArialMT-35" x="83.398438"/>
      </g>
     </g>
    </g>
    <g id="ytick_2">
     <g id="line2d_23">
      <g>
       <use xlink:href="#m76bcd7d333" x="51.46625" y="149.24" style="stroke: #000000; stroke-width: 0.8"/>
      </g>
     </g>
     <g id="text_24">
      <!-- 0.6 -->
      <g transform="translate(27.78625 153.534688) scale(0.12 -0.12)">
       <use xlink:href="#ArialMT-30"/>
       <use xlink:href="#ArialMT-2e" x="55.615234"/>
       <use xlink:href="#ArialMT-36" x="83.398438"/>
      </g>
     </g>
    </g>
    <g id="ytick_3">
     <g id="line2d_24">
      <g>
       <use xlink:href="#m76bcd7d333" x="51.46625" y="116.25" style="stroke: #000000; stroke-width: 0.8"/>
      </g>
     </g>
     <g id="text_25">
      <!-- 0.7 -->
      <g transform="translate(27.78625 120.544688) scale(0.12 -0.12)">
       <use xlink:href="#ArialMT-30"/>
       <use xlink:href="#ArialMT-2e" x="55.615234"/>
       <use xlink:href="#ArialMT-37" x="83.398438"/>
      </g>
     </g>
    </g>
    <g id="ytick_4">
     <g id="line2d_25">
      <g>
       <use xlink:href="#m76bcd7d333" x="51.46625" y="83.26" style="stroke: #000000; stroke-width: 0.8"/>
      </g>
     </g>
     <g id="text_26">
      <!-- 0.8 -->
      <g transform="translate(27.78625 87.554688) scale(0.12 -0.12)">
       <use xlink:href="#ArialMT-30"/>
       <use xlink:href="#ArialMT-2e" x="55.615234"/>
       <use xlink:href="#ArialMT-38" x="83.398438"/>
      </g>
     </g>
    </g>
    <g id="ytick_5">
     <g id="line2d_26">
      <g>
       <use xlink:href="#m76bcd7d333" x="51.46625" y="50.27" style="stroke: #000000; stroke-width: 0.8"/>
      </g>
     </g>
     <g id="text_27">
      <!-- 0.9 -->
      <g transform="translate(27.78625 54.564688) scale(0.12 -0.12)">
       <use xlink:href="#ArialMT-30"/>
       <use xlink:href="#ArialMT-2e" x="55.615234"/>
       <use xlink:href="#ArialMT-39" x="83.398438"/>
      </g>
     </g>
    </g>
    <g id="ytick_6">
     <g id="line2d_27">
      <g>
       <use xlink:href="#m76bcd7d333" x="51.46625" y="17.28" style="stroke: #000000; stroke-width: 0.8"/>
      </g>
     </g>
     <g id="text_28">
      <!-- 1.0 -->
      <g transform="translate(27.78625 21.574688) scale(0.12 -0.12)">
       <use xlink:href="#ArialMT-31"/>
       <use xlink:href="#ArialMT-2e" x="55.615234"/>
       <use xlink:href="#ArialMT-30" x="83.398438"/>
      </g>
     </g>
    </g>
    <g id="text_29">
     <!-- prediction confidence -->
     <g transform="translate(21.40125 156.455) rotate(-90) scale(0.12 -0.12)">
      <defs>
       <path id="ArialMT-70" d="M 422 -1272 
L 422 3319 
L 934 3319 
L 934 2888 
Q 1116 3141 1344 3267 
Q 1572 3394 1897 3394 
Q 2322 3394 2647 3175 
Q 2972 2956 3137 2557 
Q 3303 2159 3303 1684 
Q 3303 1175 3120 767 
Q 2938 359 2589 142 
Q 2241 -75 1856 -75 
Q 1575 -75 1351 44 
Q 1128 163 984 344 
L 984 -1272 
L 422 -1272 
z
M 931 1641 
Q 931 1000 1190 694 
Q 1450 388 1819 388 
Q 2194 388 2461 705 
Q 2728 1022 2728 1688 
Q 2728 2322 2467 2637 
Q 2206 2953 1844 2953 
Q 1484 2953 1207 2617 
Q 931 2281 931 1641 
z
" transform="scale(0.015625)"/>
       <path id="ArialMT-6f" d="M 213 1659 
Q 213 2581 725 3025 
Q 1153 3394 1769 3394 
Q 2453 3394 2887 2945 
Q 3322 2497 3322 1706 
Q 3322 1066 3130 698 
Q 2938 331 2570 128 
Q 2203 -75 1769 -75 
Q 1072 -75 642 372 
Q 213 819 213 1659 
z
M 791 1659 
Q 791 1022 1069 705 
Q 1347 388 1769 388 
Q 2188 388 2466 706 
Q 2744 1025 2744 1678 
Q 2744 2294 2464 2611 
Q 2184 2928 1769 2928 
Q 1347 2928 1069 2612 
Q 791 2297 791 1659 
z
" transform="scale(0.015625)"/>
      </defs>
      <use xlink:href="#ArialMT-70"/>
      <use xlink:href="#ArialMT-72" x="55.615234"/>
      <use xlink:href="#ArialMT-65" x="88.916016"/>
      <use xlink:href="#ArialMT-64" x="144.53125"/>
      <use xlink:href="#ArialMT-69" x="200.146484"/>
      <use xlink:href="#ArialMT-63" x="222.363281"/>
      <use xlink:href="#ArialMT-74" x="272.363281"/>
      <use xlink:href="#ArialMT-69" x="300.146484"/>
      <use xlink:href="#ArialMT-6f" x="322.363281"/>
      <use xlink:href="#ArialMT-6e" x="377.978516"/>
      <use xlink:href="#ArialMT-20" x="433.59375"/>
      <use xlink:href="#ArialMT-63" x="461.376953"/>
      <use xlink:href="#ArialMT-6f" x="511.376953"/>
      <use xlink:href="#ArialMT-6e" x="566.992188"/>
      <use xlink:href="#ArialMT-66" x="622.607422"/>
      <use xlink:href="#ArialMT-69" x="650.390625"/>
      <use xlink:href="#ArialMT-64" x="672.607422"/>
      <use xlink:href="#ArialMT-65" x="728.222656"/>
      <use xlink:href="#ArialMT-6e" x="783.837891"/>
      <use xlink:href="#ArialMT-63" x="839.453125"/>
      <use xlink:href="#ArialMT-65" x="889.453125"/>
     </g>
    </g>
   </g>
   <g id="patch_45">
    <path d="M 51.46625 182.23 
L 51.46625 17.28 
" style="fill: none; stroke: #000000; stroke-width: 0.8; stroke-linejoin: miter; stroke-linecap: square"/>
   </g>
   <g id="patch_46">
    <path d="M 391.68 182.23 
L 391.68 17.28 
" style="fill: none; stroke: #000000; stroke-width: 0.8; stroke-linejoin: miter; stroke-linecap: square"/>
   </g>
   <g id="patch_47">
    <path d="M 51.46625 182.23 
L 391.68 182.23 
" style="fill: none; stroke: #000000; stroke-width: 0.8; stroke-linejoin: miter; stroke-linecap: square"/>
   </g>
   <g id="patch_48">
    <path d="M 51.46625 17.28 
L 391.68 17.28 
" style="fill: none; stroke: #000000; stroke-width: 0.8; stroke-linejoin: miter; stroke-linecap: square"/>
   </g>
   <g id="legend_1">
    <g id="patch_49">
     <path d="M 58.46625 49.570625 
L 157.16625 49.570625 
Q 159.16625 49.570625 159.16625 47.570625 
L 159.16625 24.28 
Q 159.16625 22.28 157.16625 22.28 
L 58.46625 22.28 
Q 56.46625 22.28 56.46625 24.28 
L 56.46625 47.570625 
Q 56.46625 49.570625 58.46625 49.570625 
z
" style="fill: #ffffff; opacity: 0.8; stroke: #cccccc; stroke-linejoin: miter"/>
    </g>
    <g id="patch_50">
     <path d="M 60.46625 33.437813 
L 80.46625 33.437813 
L 80.46625 26.437813 
L 60.46625 26.437813 
z
" style="fill: #0d3b66"/>
    </g>
    <g id="text_30">
     <!-- without context -->
     <g transform="translate(88.46625 33.437813) scale(0.1 -0.1)">
      <defs>
       <path id="ArialMT-77" d="M 1034 0 
L 19 3319 
L 600 3319 
L 1128 1403 
L 1325 691 
Q 1338 744 1497 1375 
L 2025 3319 
L 2603 3319 
L 3100 1394 
L 3266 759 
L 3456 1400 
L 4025 3319 
L 4572 3319 
L 3534 0 
L 2950 0 
L 2422 1988 
L 2294 2553 
L 1622 0 
L 1034 0 
z
" transform="scale(0.015625)"/>
       <path id="ArialMT-68" d="M 422 0 
L 422 4581 
L 984 4581 
L 984 2938 
Q 1378 3394 1978 3394 
Q 2347 3394 2619 3248 
Q 2891 3103 3008 2847 
Q 3125 2591 3125 2103 
L 3125 0 
L 2563 0 
L 2563 2103 
Q 2563 2525 2380 2717 
Q 2197 2909 1863 2909 
Q 1613 2909 1392 2779 
Q 1172 2650 1078 2428 
Q 984 2206 984 1816 
L 984 0 
L 422 0 
z
" transform="scale(0.015625)"/>
      </defs>
      <use xlink:href="#ArialMT-77"/>
      <use xlink:href="#ArialMT-69" x="72.216797"/>
      <use xlink:href="#ArialMT-74" x="94.433594"/>
      <use xlink:href="#ArialMT-68" x="122.216797"/>
      <use xlink:href="#ArialMT-6f" x="177.832031"/>
      <use xlink:href="#ArialMT-75" x="233.447266"/>
      <use xlink:href="#ArialMT-74" x="289.0625"/>
      <use xlink:href="#ArialMT-20" x="316.845703"/>
      <use xlink:href="#ArialMT-63" x="344.628906"/>
      <use xlink:href="#ArialMT-6f" x="394.628906"/>
      <use xlink:href="#ArialMT-6e" x="450.244141"/>
      <use xlink:href="#ArialMT-74" x="505.859375"/>
      <use xlink:href="#ArialMT-65" x="533.642578"/>
      <use xlink:href="#ArialMT-78" x="589.257812"/>
      <use xlink:href="#ArialMT-74" x="639.257812"/>
     </g>
    </g>
    <g id="patch_51">
     <path d="M 60.46625 43.583125 
L 80.46625 43.583125 
L 80.46625 36.583125 
L 60.46625 36.583125 
z
" style="fill: #bf4e30"/>
    </g>
    <g id="text_31">
     <!-- with context -->
     <g transform="translate(88.46625 43.583125) scale(0.1 -0.1)">
      <use xlink:href="#ArialMT-77"/>
      <use xlink:href="#ArialMT-69" x="72.216797"/>
      <use xlink:href="#ArialMT-74" x="94.433594"/>
      <use xlink:href="#ArialMT-68" x="122.216797"/>
      <use xlink:href="#ArialMT-20" x="177.832031"/>
      <use xlink:href="#ArialMT-63" x="205.615234"/>
      <use xlink:href="#ArialMT-6f" x="255.615234"/>
      <use xlink:href="#ArialMT-6e" x="311.230469"/>
      <use xlink:href="#ArialMT-74" x="366.845703"/>
      <use xlink:href="#ArialMT-65" x="394.628906"/>
      <use xlink:href="#ArialMT-78" x="450.244141"/>
      <use xlink:href="#ArialMT-74" x="500.244141"/>
     </g>
    </g>
   </g>
  </g>
 </g>
 <defs>
  <clipPath id="pcd1987a52c">
   <rect x="51.46625" y="17.28" width="340.21375" height="164.95"/>
  </clipPath>
 </defs>
</svg>
