<?xml version="1.0" encoding="utf-8" standalone="no"?>
<!DOCTYPE svg PUBLIC "-//W3C//DTD SVG 1.1//EN"
  "http://www.w3.org/Graphics/SVG/1.1/DTD/svg11.dtd">
<svg xmlns:xlink="http://www.w3.org/1999/xlink" width="381.6pt" height="216pt" viewBox="0 0 381.6 216" xmlns="http://www.w3.org/2000/svg" version="1.1">
 <metadata>
  <rdf:RDF xmlns:dc="http://purl.org/dc/elements/1.1/" xmlns:cc="http://creativecommons.org/ns#" xmlns:rdf="http://www.w3.org/1999/02/22-rdf-syntax-ns#">
   <cc:Work>
    <dc:type rdf:resource="http://purl.org/dc/dcmitype/StillImage"/>
    <dc:date>2023-11-21T13:22:38.574531</dc:date>
    <dc:format>image/svg+xml</dc:format>
    <dc:creator>
     <cc:Agent>
      <dc:title>Matplotlib v3.7.1, https://matplotlib.org/</dc:title>
     </cc:Agent>
    </dc:creator>
   </cc:Work>
  </rdf:RDF>
 </metadata>
 <defs>
  <style type="text/css">*{stroke-linejoin: round; stroke-linecap: butt}</style>
 </defs>
 <g id="figure_1">
  <g id="patch_1">
   <path d="M 0 216 
L 381.6 216 
L 381.6 0 
L 0 0 
z
" style="fill: #ffffff"/>
  </g>
  <g id="axes_1">
   <g id="patch_2">
    <path d="M 54.74 163.94875 
L 368.64 163.94875 
L 368.64 17.28 
L 54.74 17.28 
z
" style="fill: #ffffff"/>
   </g>
   <g id="matplotlib.axis_1">
    <g id="xtick_1">
     <g id="line2d_1">
      <defs>
       <path id="m793b9c5a4e" d="M 0 0 
L 0 3.5 
" style="stroke: #000000; stroke-width: 0.8"/>
      </defs>
      <g>
       <use xlink:href="#m793b9c5a4e" x="54.74" y="163.94875" style="stroke: #000000; stroke-width: 0.8"/>
      </g>
     </g>
     <g id="text_1">
      <!-- $\mathdefault{10^{-30}}$ -->
      <g transform="translate(40.52 183.32375) scale(0.12 -0.12)">
       <defs>
        <path id="ArialMT-31" d="M 2384 0 
L 1822 0 
L 1822 3584 
Q 1619 3391 1289 3197 
Q 959 3003 697 2906 
L 697 3450 
Q 1169 3672 1522 3987 
Q 1875 4303 2022 4600 
L 2384 4600 
L 2384 0 
z
" transform="scale(0.015625)"/>
        <path id="ArialMT-30" d="M 266 2259 
Q 266 3072 433 3567 
Q 600 4063 929 4331 
Q 1259 4600 1759 4600 
Q 2128 4600 2406 4451 
Q 2684 4303 2865 4023 
Q 3047 3744 3150 3342 
Q 3253 2941 3253 2259 
Q 3253 1453 3087 958 
Q 2922 463 2592 192 
Q 2263 -78 1759 -78 
Q 1097 -78 719 397 
Q 266 969 266 2259 
z
M 844 2259 
Q 844 1131 1108 757 
Q 1372 384 1759 384 
Q 2147 384 2411 759 
Q 2675 1134 2675 2259 
Q 2675 3391 2411 3762 
Q 2147 4134 1753 4134 
Q 1366 4134 1134 3806 
Q 844 3388 844 2259 
z
" transform="scale(0.015625)"/>
        <path id="ArialMT-2212" d="M 3381 1997 
L 356 1997 
L 356 2522 
L 3381 2522 
L 3381 1997 
z
" transform="scale(0.015625)"/>
        <path id="ArialMT-33" d="M 269 1209 
L 831 1284 
Q 928 806 1161 595 
Q 1394 384 1728 384 
Q 2125 384 2398 659 
Q 2672 934 2672 1341 
Q 2672 1728 2419 1979 
Q 2166 2231 1775 2231 
Q 1616 2231 1378 2169 
L 1441 2663 
Q 1497 2656 1531 2656 
Q 1891 2656 2178 2843 
Q 2466 3031 2466 3422 
Q 2466 3731 2256 3934 
Q 2047 4138 1716 4138 
Q 1388 4138 1169 3931 
Q 950 3725 888 3313 
L 325 3413 
Q 428 3978 793 4289 
Q 1159 4600 1703 4600 
Q 2078 4600 2393 4439 
Q 2709 4278 2876 4000 
Q 3044 3722 3044 3409 
Q 3044 3113 2884 2869 
Q 2725 2625 2413 2481 
Q 2819 2388 3044 2092 
Q 3269 1797 3269 1353 
Q 3269 753 2831 336 
Q 2394 -81 1725 -81 
Q 1122 -81 723 278 
Q 325 638 269 1209 
z
" transform="scale(0.015625)"/>
       </defs>
       <use xlink:href="#ArialMT-31" transform="translate(0 0.99375)"/>
       <use xlink:href="#ArialMT-30" transform="translate(55.615234 0.99375)"/>
       <use xlink:href="#ArialMT-2212" transform="translate(112.972813 70.6875) scale(0.7)"/>
       <use xlink:href="#ArialMT-33" transform="translate(153.851719 70.6875) scale(0.7)"/>
       <use xlink:href="#ArialMT-30" transform="translate(192.782383 70.6875) scale(0.7)"/>
      </g>
     </g>
    </g>
    <g id="xtick_2">
     <g id="line2d_2">
      <g>
       <use xlink:href="#m793b9c5a4e" x="103.786875" y="163.94875" style="stroke: #000000; stroke-width: 0.8"/>
      </g>
     </g>
     <g id="text_2">
      <!-- $\mathdefault{10^{-25}}$ -->
      <g transform="translate(89.566875 183.32375) scale(0.12 -0.12)">
       <defs>
        <path id="ArialMT-32" d="M 3222 541 
L 3222 0 
L 194 0 
Q 188 203 259 391 
Q 375 700 629 1000 
Q 884 1300 1366 1694 
Q 2113 2306 2375 2664 
Q 2638 3022 2638 3341 
Q 2638 3675 2398 3904 
Q 2159 4134 1775 4134 
Q 1369 4134 1125 3890 
Q 881 3647 878 3216 
L 300 3275 
Q 359 3922 746 4261 
Q 1134 4600 1788 4600 
Q 2447 4600 2831 4234 
Q 3216 3869 3216 3328 
Q 3216 3053 3103 2787 
Q 2991 2522 2730 2228 
Q 2469 1934 1863 1422 
Q 1356 997 1212 845 
Q 1069 694 975 541 
L 3222 541 
z
" transform="scale(0.015625)"/>
        <path id="ArialMT-35" d="M 266 1200 
L 856 1250 
Q 922 819 1161 601 
Q 1400 384 1738 384 
Q 2144 384 2425 690 
Q 2706 997 2706 1503 
Q 2706 1984 2436 2262 
Q 2166 2541 1728 2541 
Q 1456 2541 1237 2417 
Q 1019 2294 894 2097 
L 366 2166 
L 809 4519 
L 3088 4519 
L 3088 3981 
L 1259 3981 
L 1013 2750 
Q 1425 3038 1878 3038 
Q 2478 3038 2890 2622 
Q 3303 2206 3303 1553 
Q 3303 931 2941 478 
Q 2500 -78 1738 -78 
Q 1113 -78 717 272 
Q 322 622 266 1200 
z
" transform="scale(0.015625)"/>
       </defs>
       <use xlink:href="#ArialMT-31" transform="translate(0 0.99375)"/>
       <use xlink:href="#ArialMT-30" transform="translate(55.615234 0.99375)"/>
       <use xlink:href="#ArialMT-2212" transform="translate(112.972813 70.6875) scale(0.7)"/>
       <use xlink:href="#ArialMT-32" transform="translate(153.851719 70.6875) scale(0.7)"/>
       <use xlink:href="#ArialMT-35" transform="translate(192.782383 70.6875) scale(0.7)"/>
      </g>
     </g>
    </g>
    <g id="xtick_3">
     <g id="line2d_3">
      <g>
       <use xlink:href="#m793b9c5a4e" x="152.83375" y="163.94875" style="stroke: #000000; stroke-width: 0.8"/>
      </g>
     </g>
     <g id="text_3">
      <!-- $\mathdefault{10^{-20}}$ -->
      <g transform="translate(138.61375 183.32375) scale(0.12 -0.12)">
       <use xlink:href="#ArialMT-31" transform="translate(0 0.99375)"/>
       <use xlink:href="#ArialMT-30" transform="translate(55.615234 0.99375)"/>
       <use xlink:href="#ArialMT-2212" transform="translate(112.972813 70.6875) scale(0.7)"/>
       <use xlink:href="#ArialMT-32" transform="translate(153.851719 70.6875) scale(0.7)"/>
       <use xlink:href="#ArialMT-30" transform="translate(192.782383 70.6875) scale(0.7)"/>
      </g>
     </g>
    </g>
    <g id="xtick_4">
     <g id="line2d_4">
      <g>
       <use xlink:href="#m793b9c5a4e" x="201.880625" y="163.94875" style="stroke: #000000; stroke-width: 0.8"/>
      </g>
     </g>
     <g id="text_4">
      <!-- $\mathdefault{10^{-15}}$ -->
      <g transform="translate(187.660625 183.32375) scale(0.12 -0.12)">
       <use xlink:href="#ArialMT-31" transform="translate(0 0.99375)"/>
       <use xlink:href="#ArialMT-30" transform="translate(55.615234 0.99375)"/>
       <use xlink:href="#ArialMT-2212" transform="translate(112.972813 70.6875) scale(0.7)"/>
       <use xlink:href="#ArialMT-31" transform="translate(153.851719 70.6875) scale(0.7)"/>
       <use xlink:href="#ArialMT-35" transform="translate(192.782383 70.6875) scale(0.7)"/>
      </g>
     </g>
    </g>
    <g id="xtick_5">
     <g id="line2d_5">
      <g>
       <use xlink:href="#m793b9c5a4e" x="250.9275" y="163.94875" style="stroke: #000000; stroke-width: 0.8"/>
      </g>
     </g>
     <g id="text_5">
      <!-- $\mathdefault{10^{-10}}$ -->
      <g transform="translate(236.7075 183.32375) scale(0.12 -0.12)">
       <use xlink:href="#ArialMT-31" transform="translate(0 0.99375)"/>
       <use xlink:href="#ArialMT-30" transform="translate(55.615234 0.99375)"/>
       <use xlink:href="#ArialMT-2212" transform="translate(112.972813 70.6875) scale(0.7)"/>
       <use xlink:href="#ArialMT-31" transform="translate(153.851719 70.6875) scale(0.7)"/>
       <use xlink:href="#ArialMT-30" transform="translate(192.782383 70.6875) scale(0.7)"/>
      </g>
     </g>
    </g>
    <g id="xtick_6">
     <g id="line2d_6">
      <g>
       <use xlink:href="#m793b9c5a4e" x="299.974375" y="163.94875" style="stroke: #000000; stroke-width: 0.8"/>
      </g>
     </g>
     <g id="text_6">
      <!-- $\mathdefault{10^{-5}}$ -->
      <g transform="translate(288.094375 183.20375) scale(0.12 -0.12)">
       <use xlink:href="#ArialMT-31" transform="translate(0 0.879688)"/>
       <use xlink:href="#ArialMT-30" transform="translate(55.615234 0.879688)"/>
       <use xlink:href="#ArialMT-2212" transform="translate(112.972813 70.573438) scale(0.7)"/>
       <use xlink:href="#ArialMT-35" transform="translate(153.851719 70.573438) scale(0.7)"/>
      </g>
     </g>
    </g>
    <g id="xtick_7">
     <g id="line2d_7">
      <g>
       <use xlink:href="#m793b9c5a4e" x="349.02125" y="163.94875" style="stroke: #000000; stroke-width: 0.8"/>
      </g>
     </g>
     <g id="text_7">
      <!-- $\mathdefault{10^{0}}$ -->
      <g transform="translate(339.60125 183.32375) scale(0.12 -0.12)">
       <use xlink:href="#ArialMT-31" transform="translate(0 0.99375)"/>
       <use xlink:href="#ArialMT-30" transform="translate(55.615234 0.99375)"/>
       <use xlink:href="#ArialMT-30" transform="translate(112.972813 70.6875) scale(0.7)"/>
      </g>
     </g>
    </g>
    <g id="text_8">
     <!-- e-value -->
     <g transform="translate(192.012812 198.298125) scale(0.12 -0.12)">
      <defs>
       <path id="ArialMT-65" d="M 2694 1069 
L 3275 997 
Q 3138 488 2766 206 
Q 2394 -75 1816 -75 
Q 1088 -75 661 373 
Q 234 822 234 1631 
Q 234 2469 665 2931 
Q 1097 3394 1784 3394 
Q 2450 3394 2872 2941 
Q 3294 2488 3294 1666 
Q 3294 1616 3291 1516 
L 816 1516 
Q 847 969 1125 678 
Q 1403 388 1819 388 
Q 2128 388 2347 550 
Q 2566 713 2694 1069 
z
M 847 1978 
L 2700 1978 
Q 2663 2397 2488 2606 
Q 2219 2931 1791 2931 
Q 1403 2931 1139 2672 
Q 875 2413 847 1978 
z
" transform="scale(0.015625)"/>
       <path id="ArialMT-2d" d="M 203 1375 
L 203 1941 
L 1931 1941 
L 1931 1375 
L 203 1375 
z
" transform="scale(0.015625)"/>
       <path id="ArialMT-76" d="M 1344 0 
L 81 3319 
L 675 3319 
L 1388 1331 
Q 1503 1009 1600 663 
Q 1675 925 1809 1294 
L 2547 3319 
L 3125 3319 
L 1869 0 
L 1344 0 
z
" transform="scale(0.015625)"/>
       <path id="ArialMT-61" d="M 2588 409 
Q 2275 144 1986 34 
Q 1697 -75 1366 -75 
Q 819 -75 525 192 
Q 231 459 231 875 
Q 231 1119 342 1320 
Q 453 1522 633 1644 
Q 813 1766 1038 1828 
Q 1203 1872 1538 1913 
Q 2219 1994 2541 2106 
Q 2544 2222 2544 2253 
Q 2544 2597 2384 2738 
Q 2169 2928 1744 2928 
Q 1347 2928 1158 2789 
Q 969 2650 878 2297 
L 328 2372 
Q 403 2725 575 2942 
Q 747 3159 1072 3276 
Q 1397 3394 1825 3394 
Q 2250 3394 2515 3294 
Q 2781 3194 2906 3042 
Q 3031 2891 3081 2659 
Q 3109 2516 3109 2141 
L 3109 1391 
Q 3109 606 3145 398 
Q 3181 191 3288 0 
L 2700 0 
Q 2613 175 2588 409 
z
M 2541 1666 
Q 2234 1541 1622 1453 
Q 1275 1403 1131 1340 
Q 988 1278 909 1158 
Q 831 1038 831 891 
Q 831 666 1001 516 
Q 1172 366 1500 366 
Q 1825 366 2078 508 
Q 2331 650 2450 897 
Q 2541 1088 2541 1459 
L 2541 1666 
z
" transform="scale(0.015625)"/>
       <path id="ArialMT-6c" d="M 409 0 
L 409 4581 
L 972 4581 
L 972 0 
L 409 0 
z
" transform="scale(0.015625)"/>
       <path id="ArialMT-75" d="M 2597 0 
L 2597 488 
Q 2209 -75 1544 -75 
Q 1250 -75 995 37 
Q 741 150 617 320 
Q 494 491 444 738 
Q 409 903 409 1263 
L 409 3319 
L 972 3319 
L 972 1478 
Q 972 1038 1006 884 
Q 1059 663 1231 536 
Q 1403 409 1656 409 
Q 1909 409 2131 539 
Q 2353 669 2445 892 
Q 2538 1116 2538 1541 
L 2538 3319 
L 3100 3319 
L 3100 0 
L 2597 0 
z
" transform="scale(0.015625)"/>
      </defs>
      <use xlink:href="#ArialMT-65"/>
      <use xlink:href="#ArialMT-2d" x="55.615234"/>
      <use xlink:href="#ArialMT-76" x="88.916016"/>
      <use xlink:href="#ArialMT-61" x="138.916016"/>
      <use xlink:href="#ArialMT-6c" x="194.53125"/>
      <use xlink:href="#ArialMT-75" x="216.748047"/>
      <use xlink:href="#ArialMT-65" x="272.363281"/>
     </g>
    </g>
   </g>
   <g id="matplotlib.axis_2">
    <g id="ytick_1">
     <g id="line2d_8">
      <defs>
       <path id="m84e55f3156" d="M 0 0 
L -3.5 0 
" style="stroke: #000000; stroke-width: 0.8"/>
      </defs>
      <g>
       <use xlink:href="#m84e55f3156" x="54.74" y="155.321176" style="stroke: #000000; stroke-width: 0.8"/>
      </g>
     </g>
     <g id="text_9">
      <!-- 20 -->
      <g transform="translate(34.39375 159.615864) scale(0.12 -0.12)">
       <use xlink:href="#ArialMT-32"/>
       <use xlink:href="#ArialMT-30" x="55.615234"/>
      </g>
     </g>
    </g>
    <g id="ytick_2">
     <g id="line2d_9">
      <g>
       <use xlink:href="#m84e55f3156" x="54.74" y="120.810882" style="stroke: #000000; stroke-width: 0.8"/>
      </g>
     </g>
     <g id="text_10">
      <!-- 40 -->
      <g transform="translate(34.39375 125.10557) scale(0.12 -0.12)">
       <defs>
        <path id="ArialMT-34" d="M 2069 0 
L 2069 1097 
L 81 1097 
L 81 1613 
L 2172 4581 
L 2631 4581 
L 2631 1613 
L 3250 1613 
L 3250 1097 
L 2631 1097 
L 2631 0 
L 2069 0 
z
M 2069 1613 
L 2069 3678 
L 634 1613 
L 2069 1613 
z
" transform="scale(0.015625)"/>
       </defs>
       <use xlink:href="#ArialMT-34"/>
       <use xlink:href="#ArialMT-30" x="55.615234"/>
      </g>
     </g>
    </g>
    <g id="ytick_3">
     <g id="line2d_10">
      <g>
       <use xlink:href="#m84e55f3156" x="54.74" y="86.300588" style="stroke: #000000; stroke-width: 0.8"/>
      </g>
     </g>
     <g id="text_11">
      <!-- 60 -->
      <g transform="translate(34.39375 90.595276) scale(0.12 -0.12)">
       <defs>
        <path id="ArialMT-36" d="M 3184 3459 
L 2625 3416 
Q 2550 3747 2413 3897 
Q 2184 4138 1850 4138 
Q 1581 4138 1378 3988 
Q 1113 3794 959 3422 
Q 806 3050 800 2363 
Q 1003 2672 1297 2822 
Q 1591 2972 1913 2972 
Q 2475 2972 2870 2558 
Q 3266 2144 3266 1488 
Q 3266 1056 3080 686 
Q 2894 316 2569 119 
Q 2244 -78 1831 -78 
Q 1128 -78 684 439 
Q 241 956 241 2144 
Q 241 3472 731 4075 
Q 1159 4600 1884 4600 
Q 2425 4600 2770 4297 
Q 3116 3994 3184 3459 
z
M 888 1484 
Q 888 1194 1011 928 
Q 1134 663 1356 523 
Q 1578 384 1822 384 
Q 2178 384 2434 671 
Q 2691 959 2691 1453 
Q 2691 1928 2437 2201 
Q 2184 2475 1800 2475 
Q 1419 2475 1153 2201 
Q 888 1928 888 1484 
z
" transform="scale(0.015625)"/>
       </defs>
       <use xlink:href="#ArialMT-36"/>
       <use xlink:href="#ArialMT-30" x="55.615234"/>
      </g>
     </g>
    </g>
    <g id="ytick_4">
     <g id="line2d_11">
      <g>
       <use xlink:href="#m84e55f3156" x="54.74" y="51.790294" style="stroke: #000000; stroke-width: 0.8"/>
      </g>
     </g>
     <g id="text_12">
      <!-- 80 -->
      <g transform="translate(34.39375 56.084982) scale(0.12 -0.12)">
       <defs>
        <path id="ArialMT-38" d="M 1131 2484 
Q 781 2613 612 2850 
Q 444 3088 444 3419 
Q 444 3919 803 4259 
Q 1163 4600 1759 4600 
Q 2359 4600 2725 4251 
Q 3091 3903 3091 3403 
Q 3091 3084 2923 2848 
Q 2756 2613 2416 2484 
Q 2838 2347 3058 2040 
Q 3278 1734 3278 1309 
Q 3278 722 2862 322 
Q 2447 -78 1769 -78 
Q 1091 -78 675 323 
Q 259 725 259 1325 
Q 259 1772 486 2073 
Q 713 2375 1131 2484 
z
M 1019 3438 
Q 1019 3113 1228 2906 
Q 1438 2700 1772 2700 
Q 2097 2700 2305 2904 
Q 2513 3109 2513 3406 
Q 2513 3716 2298 3927 
Q 2084 4138 1766 4138 
Q 1444 4138 1231 3931 
Q 1019 3725 1019 3438 
z
M 838 1322 
Q 838 1081 952 856 
Q 1066 631 1291 507 
Q 1516 384 1775 384 
Q 2178 384 2440 643 
Q 2703 903 2703 1303 
Q 2703 1709 2433 1975 
Q 2163 2241 1756 2241 
Q 1359 2241 1098 1978 
Q 838 1716 838 1322 
z
" transform="scale(0.015625)"/>
       </defs>
       <use xlink:href="#ArialMT-38"/>
       <use xlink:href="#ArialMT-30" x="55.615234"/>
      </g>
     </g>
    </g>
    <g id="ytick_5">
     <g id="line2d_12">
      <g>
       <use xlink:href="#m84e55f3156" x="54.74" y="17.28" style="stroke: #000000; stroke-width: 0.8"/>
      </g>
     </g>
     <g id="text_13">
      <!-- 100 -->
      <g transform="translate(27.720625 21.574688) scale(0.12 -0.12)">
       <use xlink:href="#ArialMT-31"/>
       <use xlink:href="#ArialMT-30" x="55.615234"/>
       <use xlink:href="#ArialMT-30" x="111.230469"/>
      </g>
     </g>
    </g>
    <g id="text_14">
     <!-- lDDT -->
     <g transform="translate(21.335625 104.278438) rotate(-90) scale(0.12 -0.12)">
      <defs>
       <path id="ArialMT-44" d="M 494 0 
L 494 4581 
L 2072 4581 
Q 2606 4581 2888 4516 
Q 3281 4425 3559 4188 
Q 3922 3881 4101 3404 
Q 4281 2928 4281 2316 
Q 4281 1794 4159 1391 
Q 4038 988 3847 723 
Q 3656 459 3429 307 
Q 3203 156 2883 78 
Q 2563 0 2147 0 
L 494 0 
z
M 1100 541 
L 2078 541 
Q 2531 541 2789 625 
Q 3047 709 3200 863 
Q 3416 1078 3536 1442 
Q 3656 1806 3656 2325 
Q 3656 3044 3420 3430 
Q 3184 3816 2847 3947 
Q 2603 4041 2063 4041 
L 1100 4041 
L 1100 541 
z
" transform="scale(0.015625)"/>
       <path id="ArialMT-54" d="M 1659 0 
L 1659 4041 
L 150 4041 
L 150 4581 
L 3781 4581 
L 3781 4041 
L 2266 4041 
L 2266 0 
L 1659 0 
z
" transform="scale(0.015625)"/>
      </defs>
      <use xlink:href="#ArialMT-6c"/>
      <use xlink:href="#ArialMT-44" x="22.216797"/>
      <use xlink:href="#ArialMT-44" x="94.433594"/>
      <use xlink:href="#ArialMT-54" x="166.650391"/>
     </g>
    </g>
   </g>
   <g id="line2d_13">
    <defs>
     <path id="m5fb7bb8fa3" d="M 0 1.5 
C 0.397805 1.5 0.77937 1.341951 1.06066 1.06066 
C 1.341951 0.77937 1.5 0.397805 1.5 0 
C 1.5 -0.397805 1.341951 -0.77937 1.06066 -1.06066 
C 0.77937 -1.341951 0.397805 -1.5 0 -1.5 
C -0.397805 -1.5 -0.77937 -1.341951 -1.06066 -1.06066 
C -1.341951 -0.77937 -1.5 -0.397805 -1.5 0 
C -1.5 0.397805 -1.341951 0.77937 -1.06066 1.06066 
C -0.77937 1.341951 -0.397805 1.5 0 1.5 
z
" style="stroke: #0d3b66"/>
    </defs>
    <g clip-path="url(#p372a3d7aaf)">
     <use xlink:href="#m5fb7bb8fa3" x="268.67815" y="32.082787" style="fill: #0d3b66; stroke: #0d3b66"/>
     <use xlink:href="#m5fb7bb8fa3" x="334.976204" y="39.925037" style="fill: #0d3b66; stroke: #0d3b66"/>
     <use xlink:href="#m5fb7bb8fa3" x="351.023539" y="94.062962" style="fill: #0d3b66; stroke: #0d3b66"/>
     <use xlink:href="#m5fb7bb8fa3" x="273.325258" y="28.655914" style="fill: #0d3b66; stroke: #0d3b66"/>
     <use xlink:href="#m5fb7bb8fa3" x="353.701511" y="98.988312" style="fill: #0d3b66; stroke: #0d3b66"/>
     <use xlink:href="#m5fb7bb8fa3" x="240.988364" y="95.110485" style="fill: #0d3b66; stroke: #0d3b66"/>
     <use xlink:href="#m5fb7bb8fa3" x="339.617911" y="63.205268" style="fill: #0d3b66; stroke: #0d3b66"/>
     <use xlink:href="#m5fb7bb8fa3" x="349.797969" y="63.367153" style="fill: #0d3b66; stroke: #0d3b66"/>
     <use xlink:href="#m5fb7bb8fa3" x="331.404789" y="80.991378" style="fill: #0d3b66; stroke: #0d3b66"/>
     <use xlink:href="#m5fb7bb8fa3" x="315.24073" y="41.185024" style="fill: #0d3b66; stroke: #0d3b66"/>
     <use xlink:href="#m5fb7bb8fa3" x="353.841201" y="50.713098" style="fill: #0d3b66; stroke: #0d3b66"/>
     <use xlink:href="#m5fb7bb8fa3" x="333.306043" y="89.013878" style="fill: #0d3b66; stroke: #0d3b66"/>
     <use xlink:href="#m5fb7bb8fa3" x="226.38749" y="25.485634" style="fill: #0d3b66; stroke: #0d3b66"/>
     <use xlink:href="#m5fb7bb8fa3" x="227.118887" y="25.712158" style="fill: #0d3b66; stroke: #0d3b66"/>
     <use xlink:href="#m5fb7bb8fa3" x="201.233139" y="29.473109" style="fill: #0d3b66; stroke: #0d3b66"/>
     <use xlink:href="#m5fb7bb8fa3" x="330.179219" y="73.742108" style="fill: #0d3b66; stroke: #0d3b66"/>
     <use xlink:href="#m5fb7bb8fa3" x="166.246657" y="27.013956" style="fill: #0d3b66; stroke: #0d3b66"/>
     <use xlink:href="#m5fb7bb8fa3" x="169.11649" y="37.215519" style="fill: #0d3b66; stroke: #0d3b66"/>
     <use xlink:href="#m5fb7bb8fa3" x="345.425805" y="123.344185" style="fill: #0d3b66; stroke: #0d3b66"/>
     <use xlink:href="#m5fb7bb8fa3" x="356.283745" y="105.636735" style="fill: #0d3b66; stroke: #0d3b66"/>
     <use xlink:href="#m5fb7bb8fa3" x="306.343944" y="69.5923" style="fill: #0d3b66; stroke: #0d3b66"/>
     <use xlink:href="#m5fb7bb8fa3" x="263.193339" y="42.379807" style="fill: #0d3b66; stroke: #0d3b66"/>
     <use xlink:href="#m5fb7bb8fa3" x="246.771673" y="40.170729" style="fill: #0d3b66; stroke: #0d3b66"/>
     <use xlink:href="#m5fb7bb8fa3" x="-1" y="32.65109" style="fill: #0d3b66; stroke: #0d3b66"/>
     <use xlink:href="#m5fb7bb8fa3" x="-1" y="54.486793" style="fill: #0d3b66; stroke: #0d3b66"/>
     <use xlink:href="#m5fb7bb8fa3" x="351.28181" y="125.704045" style="fill: #0d3b66; stroke: #0d3b66"/>
     <use xlink:href="#m5fb7bb8fa3" x="203.404374" y="48.274495" style="fill: #0d3b66; stroke: #0d3b66"/>
     <use xlink:href="#m5fb7bb8fa3" x="351.28181" y="48.081027" style="fill: #0d3b66; stroke: #0d3b66"/>
     <use xlink:href="#m5fb7bb8fa3" x="307.19014" y="42.740426" style="fill: #0d3b66; stroke: #0d3b66"/>
     <use xlink:href="#m5fb7bb8fa3" x="314.421195" y="55.476075" style="fill: #0d3b66; stroke: #0d3b66"/>
     <use xlink:href="#m5fb7bb8fa3" x="315.537805" y="57.974275" style="fill: #0d3b66; stroke: #0d3b66"/>
     <use xlink:href="#m5fb7bb8fa3" x="299.356542" y="50.109157" style="fill: #0d3b66; stroke: #0d3b66"/>
     <use xlink:href="#m5fb7bb8fa3" x="-1" y="34.991297" style="fill: #0d3b66; stroke: #0d3b66"/>
     <use xlink:href="#m5fb7bb8fa3" x="-1" y="34.760196" style="fill: #0d3b66; stroke: #0d3b66"/>
     <use xlink:href="#m5fb7bb8fa3" x="33.206663" y="36.123671" style="fill: #0d3b66; stroke: #0d3b66"/>
     <use xlink:href="#m5fb7bb8fa3" x="69.08521" y="33.295526" style="fill: #0d3b66; stroke: #0d3b66"/>
     <use xlink:href="#m5fb7bb8fa3" x="65.218236" y="38.221823" style="fill: #0d3b66; stroke: #0d3b66"/>
     <use xlink:href="#m5fb7bb8fa3" x="361.091185" y="115.473183" style="fill: #0d3b66; stroke: #0d3b66"/>
     <use xlink:href="#m5fb7bb8fa3" x="306.549068" y="112.839585" style="fill: #0d3b66; stroke: #0d3b66"/>
     <use xlink:href="#m5fb7bb8fa3" x="274.466799" y="58.046167" style="fill: #0d3b66; stroke: #0d3b66"/>
     <use xlink:href="#m5fb7bb8fa3" x="337.692384" y="42.652525" style="fill: #0d3b66; stroke: #0d3b66"/>
     <use xlink:href="#m5fb7bb8fa3" x="356.929372" y="103.810254" style="fill: #0d3b66; stroke: #0d3b66"/>
     <use xlink:href="#m5fb7bb8fa3" x="336.81716" y="62.799336" style="fill: #0d3b66; stroke: #0d3b66"/>
     <use xlink:href="#m5fb7bb8fa3" x="357.985193" y="69.489392" style="fill: #0d3b66; stroke: #0d3b66"/>
     <use xlink:href="#m5fb7bb8fa3" x="350.748595" y="92.825836" style="fill: #0d3b66; stroke: #0d3b66"/>
     <use xlink:href="#m5fb7bb8fa3" x="279.777012" y="26.220049" style="fill: #0d3b66; stroke: #0d3b66"/>
     <use xlink:href="#m5fb7bb8fa3" x="293.32577" y="46.590356" style="fill: #0d3b66; stroke: #0d3b66"/>
     <use xlink:href="#m5fb7bb8fa3" x="-1" y="51.822238" style="fill: #0d3b66; stroke: #0d3b66"/>
     <use xlink:href="#m5fb7bb8fa3" x="-1" y="32.368222" style="fill: #0d3b66; stroke: #0d3b66"/>
     <use xlink:href="#m5fb7bb8fa3" x="315.345924" y="21.627607" style="fill: #0d3b66; stroke: #0d3b66"/>
     <use xlink:href="#m5fb7bb8fa3" x="276.462719" y="25.307727" style="fill: #0d3b66; stroke: #0d3b66"/>
     <use xlink:href="#m5fb7bb8fa3" x="293.223111" y="25.575377" style="fill: #0d3b66; stroke: #0d3b66"/>
     <use xlink:href="#m5fb7bb8fa3" x="326.449584" y="32.872757" style="fill: #0d3b66; stroke: #0d3b66"/>
     <use xlink:href="#m5fb7bb8fa3" x="294.915679" y="38.0681" style="fill: #0d3b66; stroke: #0d3b66"/>
     <use xlink:href="#m5fb7bb8fa3" x="310.835413" y="32.021742" style="fill: #0d3b66; stroke: #0d3b66"/>
     <use xlink:href="#m5fb7bb8fa3" x="330.520213" y="29.115452" style="fill: #0d3b66; stroke: #0d3b66"/>
     <use xlink:href="#m5fb7bb8fa3" x="-1" y="33.082227" style="fill: #0d3b66; stroke: #0d3b66"/>
     <use xlink:href="#m5fb7bb8fa3" x="-1" y="42.378588" style="fill: #0d3b66; stroke: #0d3b66"/>
     <use xlink:href="#m5fb7bb8fa3" x="284.326791" y="46.898633" style="fill: #0d3b66; stroke: #0d3b66"/>
     <use xlink:href="#m5fb7bb8fa3" x="319.593125" y="40.38031" style="fill: #0d3b66; stroke: #0d3b66"/>
     <use xlink:href="#m5fb7bb8fa3" x="-1" y="35.594499" style="fill: #0d3b66; stroke: #0d3b66"/>
     <use xlink:href="#m5fb7bb8fa3" x="-1" y="32.318551" style="fill: #0d3b66; stroke: #0d3b66"/>
     <use xlink:href="#m5fb7bb8fa3" x="307.705814" y="26.972987" style="fill: #0d3b66; stroke: #0d3b66"/>
     <use xlink:href="#m5fb7bb8fa3" x="288.571844" y="28.972734" style="fill: #0d3b66; stroke: #0d3b66"/>
     <use xlink:href="#m5fb7bb8fa3" x="289.160786" y="25.070132" style="fill: #0d3b66; stroke: #0d3b66"/>
     <use xlink:href="#m5fb7bb8fa3" x="281.879374" y="22.964567" style="fill: #0d3b66; stroke: #0d3b66"/>
     <use xlink:href="#m5fb7bb8fa3" x="294.427849" y="38.106672" style="fill: #0d3b66; stroke: #0d3b66"/>
     <use xlink:href="#m5fb7bb8fa3" x="289.50261" y="25.439031" style="fill: #0d3b66; stroke: #0d3b66"/>
     <use xlink:href="#m5fb7bb8fa3" x="313.387282" y="31.856026" style="fill: #0d3b66; stroke: #0d3b66"/>
     <use xlink:href="#m5fb7bb8fa3" x="294.396409" y="26.612421" style="fill: #0d3b66; stroke: #0d3b66"/>
     <use xlink:href="#m5fb7bb8fa3" x="298.62197" y="28.990704" style="fill: #0d3b66; stroke: #0d3b66"/>
     <use xlink:href="#m5fb7bb8fa3" x="307.69887" y="25.708195" style="fill: #0d3b66; stroke: #0d3b66"/>
     <use xlink:href="#m5fb7bb8fa3" x="330.179219" y="43.336454" style="fill: #0d3b66; stroke: #0d3b66"/>
     <use xlink:href="#m5fb7bb8fa3" x="-1" y="38.037957" style="fill: #0d3b66; stroke: #0d3b66"/>
     <use xlink:href="#m5fb7bb8fa3" x="-1" y="27.558107" style="fill: #0d3b66; stroke: #0d3b66"/>
     <use xlink:href="#m5fb7bb8fa3" x="111.681663" y="26.600863" style="fill: #0d3b66; stroke: #0d3b66"/>
     <use xlink:href="#m5fb7bb8fa3" x="-1" y="28.89106" style="fill: #0d3b66; stroke: #0d3b66"/>
     <use xlink:href="#m5fb7bb8fa3" x="-1" y="26.486848" style="fill: #0d3b66; stroke: #0d3b66"/>
     <use xlink:href="#m5fb7bb8fa3" x="72.315365" y="26.181648" style="fill: #0d3b66; stroke: #0d3b66"/>
     <use xlink:href="#m5fb7bb8fa3" x="-1" y="25.412029" style="fill: #0d3b66; stroke: #0d3b66"/>
     <use xlink:href="#m5fb7bb8fa3" x="-1" y="31.335643" style="fill: #0d3b66; stroke: #0d3b66"/>
     <use xlink:href="#m5fb7bb8fa3" x="355.791642" y="48.060332" style="fill: #0d3b66; stroke: #0d3b66"/>
     <use xlink:href="#m5fb7bb8fa3" x="-1" y="46.968629" style="fill: #0d3b66; stroke: #0d3b66"/>
     <use xlink:href="#m5fb7bb8fa3" x="-1" y="46.775057" style="fill: #0d3b66; stroke: #0d3b66"/>
     <use xlink:href="#m5fb7bb8fa3" x="348.524798" y="47.693987" style="fill: #0d3b66; stroke: #0d3b66"/>
     <use xlink:href="#m5fb7bb8fa3" x="-1" y="52.030548" style="fill: #0d3b66; stroke: #0d3b66"/>
     <use xlink:href="#m5fb7bb8fa3" x="-1" y="79.945469" style="fill: #0d3b66; stroke: #0d3b66"/>
     <use xlink:href="#m5fb7bb8fa3" x="304.668813" y="95.981115" style="fill: #0d3b66; stroke: #0d3b66"/>
     <use xlink:href="#m5fb7bb8fa3" x="288.945106" y="118.27852" style="fill: #0d3b66; stroke: #0d3b66"/>
     <use xlink:href="#m5fb7bb8fa3" x="350.454675" y="54.882495" style="fill: #0d3b66; stroke: #0d3b66"/>
     <use xlink:href="#m5fb7bb8fa3" x="353.557085" y="54.50288" style="fill: #0d3b66; stroke: #0d3b66"/>
     <use xlink:href="#m5fb7bb8fa3" x="285.454813" y="26.554207" style="fill: #0d3b66; stroke: #0d3b66"/>
     <use xlink:href="#m5fb7bb8fa3" x="307.635859" y="48.354312" style="fill: #0d3b66; stroke: #0d3b66"/>
     <use xlink:href="#m5fb7bb8fa3" x="293.0751" y="24.234441" style="fill: #0d3b66; stroke: #0d3b66"/>
     <use xlink:href="#m5fb7bb8fa3" x="353.701511" y="107.773914" style="fill: #0d3b66; stroke: #0d3b66"/>
     <use xlink:href="#m5fb7bb8fa3" x="46.852278" y="45.789736" style="fill: #0d3b66; stroke: #0d3b66"/>
     <use xlink:href="#m5fb7bb8fa3" x="-1" y="46.313409" style="fill: #0d3b66; stroke: #0d3b66"/>
     <use xlink:href="#m5fb7bb8fa3" x="-1" y="79.933586" style="fill: #0d3b66; stroke: #0d3b66"/>
     <use xlink:href="#m5fb7bb8fa3" x="348.427972" y="106.883689" style="fill: #0d3b66; stroke: #0d3b66"/>
     <use xlink:href="#m5fb7bb8fa3" x="357.187642" y="108.799584" style="fill: #0d3b66; stroke: #0d3b66"/>
     <use xlink:href="#m5fb7bb8fa3" x="-1" y="35.420506" style="fill: #0d3b66; stroke: #0d3b66"/>
     <use xlink:href="#m5fb7bb8fa3" x="-1" y="34.217748" style="fill: #0d3b66; stroke: #0d3b66"/>
     <use xlink:href="#m5fb7bb8fa3" x="317.999969" y="87.504612" style="fill: #0d3b66; stroke: #0d3b66"/>
     <use xlink:href="#m5fb7bb8fa3" x="306.1982" y="55.305067" style="fill: #0d3b66; stroke: #0d3b66"/>
     <use xlink:href="#m5fb7bb8fa3" x="-1" y="55.776957" style="fill: #0d3b66; stroke: #0d3b66"/>
     <use xlink:href="#m5fb7bb8fa3" x="-1" y="43.972198" style="fill: #0d3b66; stroke: #0d3b66"/>
     <use xlink:href="#m5fb7bb8fa3" x="267.849599" y="30.292528" style="fill: #0d3b66; stroke: #0d3b66"/>
     <use xlink:href="#m5fb7bb8fa3" x="327.226302" y="81.629211" style="fill: #0d3b66; stroke: #0d3b66"/>
     <use xlink:href="#m5fb7bb8fa3" x="284.861978" y="34.285559" style="fill: #0d3b66; stroke: #0d3b66"/>
     <use xlink:href="#m5fb7bb8fa3" x="280.398015" y="29.282617" style="fill: #0d3b66; stroke: #0d3b66"/>
     <use xlink:href="#m5fb7bb8fa3" x="292.246428" y="58.334156" style="fill: #0d3b66; stroke: #0d3b66"/>
    </g>
   </g>
   <g id="line2d_14">
    <defs>
     <path id="m28b39b2f4a" d="M 0 1.5 
C 0.397805 1.5 0.77937 1.341951 1.06066 1.06066 
C 1.341951 0.77937 1.5 0.397805 1.5 0 
C 1.5 -0.397805 1.341951 -0.77937 1.06066 -1.06066 
C 0.77937 -1.341951 0.397805 -1.5 0 -1.5 
C -0.397805 -1.5 -0.77937 -1.341951 -1.06066 -1.06066 
C -1.341951 -0.77937 -1.5 -0.397805 -1.5 0 
C -1.5 0.397805 -1.341951 0.77937 -1.06066 1.06066 
C -0.77937 1.341951 -0.397805 1.5 0 1.5 
z
" style="stroke: #0e9595"/>
    </defs>
    <g clip-path="url(#p372a3d7aaf)">
     <use xlink:href="#m28b39b2f4a" x="316.605991" y="30.816652" style="fill: #0e9595; stroke: #0e9595"/>
     <use xlink:href="#m28b39b2f4a" x="353.252659" y="87.393845" style="fill: #0e9595; stroke: #0e9595"/>
     <use xlink:href="#m28b39b2f4a" x="361.334689" y="97.511069" style="fill: #0e9595; stroke: #0e9595"/>
     <use xlink:href="#m28b39b2f4a" x="325.498957" y="110.576388" style="fill: #0e9595; stroke: #0e9595"/>
     <use xlink:href="#m28b39b2f4a" x="356.510001" y="99.340236" style="fill: #0e9595; stroke: #0e9595"/>
     <use xlink:href="#m28b39b2f4a" x="330.179219" y="122.991413" style="fill: #0e9595; stroke: #0e9595"/>
     <use xlink:href="#m28b39b2f4a" x="344.668855" y="65.596558" style="fill: #0e9595; stroke: #0e9595"/>
     <use xlink:href="#m28b39b2f4a" x="358.567026" y="109.057308" style="fill: #0e9595; stroke: #0e9595"/>
     <use xlink:href="#m28b39b2f4a" x="352.924793" y="44.664924" style="fill: #0e9595; stroke: #0e9595"/>
     <use xlink:href="#m28b39b2f4a" x="349.427286" y="121.831431" style="fill: #0e9595; stroke: #0e9595"/>
     <use xlink:href="#m28b39b2f4a" x="358.612107" y="93.50155" style="fill: #0e9595; stroke: #0e9595"/>
     <use xlink:href="#m28b39b2f4a" x="356.283745" y="79.427972" style="fill: #0e9595; stroke: #0e9595"/>
     <use xlink:href="#m28b39b2f4a" x="262.378153" y="27.115192" style="fill: #0e9595; stroke: #0e9595"/>
     <use xlink:href="#m28b39b2f4a" x="255.922458" y="43.864448" style="fill: #0e9595; stroke: #0e9595"/>
     <use xlink:href="#m28b39b2f4a" x="229.089736" y="35.369798" style="fill: #0e9595; stroke: #0e9595"/>
     <use xlink:href="#m28b39b2f4a" x="356.995422" y="110.87273" style="fill: #0e9595; stroke: #0e9595"/>
     <use xlink:href="#m28b39b2f4a" x="232.393566" y="34.214114" style="fill: #0e9595; stroke: #0e9595"/>
     <use xlink:href="#m28b39b2f4a" x="223.809762" y="46.677862" style="fill: #0e9595; stroke: #0e9595"/>
     <use xlink:href="#m28b39b2f4a" x="353.407591" y="113.495783" style="fill: #0e9595; stroke: #0e9595"/>
     <use xlink:href="#m28b39b2f4a" x="357.826411" y="111.445997" style="fill: #0e9595; stroke: #0e9595"/>
     <use xlink:href="#m28b39b2f4a" x="322.546041" y="76.249497" style="fill: #0e9595; stroke: #0e9595"/>
     <use xlink:href="#m28b39b2f4a" x="312.841861" y="47.708244" style="fill: #0e9595; stroke: #0e9595"/>
     <use xlink:href="#m28b39b2f4a" x="284.84716" y="47.172378" style="fill: #0e9595; stroke: #0e9595"/>
     <use xlink:href="#m28b39b2f4a" x="201.781497" y="69.622342" style="fill: #0e9595; stroke: #0e9595"/>
     <use xlink:href="#m28b39b2f4a" x="179.126166" y="94.204002" style="fill: #0e9595; stroke: #0e9595"/>
     <use xlink:href="#m28b39b2f4a" x="352.569574" y="116.915678" style="fill: #0e9595; stroke: #0e9595"/>
     <use xlink:href="#m28b39b2f4a" x="286.725194" y="113.933507" style="fill: #0e9595; stroke: #0e9595"/>
     <use xlink:href="#m28b39b2f4a" x="352.569574" y="79.501115" style="fill: #0e9595; stroke: #0e9595"/>
     <use xlink:href="#m28b39b2f4a" x="342.94151" y="65.175118" style="fill: #0e9595; stroke: #0e9595"/>
     <use xlink:href="#m28b39b2f4a" x="340.93922" y="56.687077" style="fill: #0e9595; stroke: #0e9595"/>
     <use xlink:href="#m28b39b2f4a" x="356.43591" y="58.126116" style="fill: #0e9595; stroke: #0e9595"/>
     <use xlink:href="#m28b39b2f4a" x="337.986304" y="60.278915" style="fill: #0e9595; stroke: #0e9595"/>
     <use xlink:href="#m28b39b2f4a" x="227.906982" y="84.603812" style="fill: #0e9595; stroke: #0e9595"/>
     <use xlink:href="#m28b39b2f4a" x="227.963408" y="71.307086" style="fill: #0e9595; stroke: #0e9595"/>
     <use xlink:href="#m28b39b2f4a" x="216.13677" y="55.853439" style="fill: #0e9595; stroke: #0e9595"/>
     <use xlink:href="#m28b39b2f4a" x="305.124736" y="90.87828" style="fill: #0e9595; stroke: #0e9595"/>
     <use xlink:href="#m28b39b2f4a" x="354.47823" y="104.089666" style="fill: #0e9595; stroke: #0e9595"/>
     <use xlink:href="#m28b39b2f4a" x="355.032277" y="92.231051" style="fill: #0e9595; stroke: #0e9595"/>
     <use xlink:href="#m28b39b2f4a" x="346.068334" y="99.407053" style="fill: #0e9595; stroke: #0e9595"/>
     <use xlink:href="#m28b39b2f4a" x="356.724845" y="87.365304" style="fill: #0e9595; stroke: #0e9595"/>
     <use xlink:href="#m28b39b2f4a" x="357.371562" y="98.565201" style="fill: #0e9595; stroke: #0e9595"/>
     <use xlink:href="#m28b39b2f4a" x="348.378721" y="58.935649" style="fill: #0e9595; stroke: #0e9595"/>
     <use xlink:href="#m28b39b2f4a" x="359.236661" y="59.326072" style="fill: #0e9595; stroke: #0e9595"/>
     <use xlink:href="#m28b39b2f4a" x="352.569574" y="89.423344" style="fill: #0e9595; stroke: #0e9595"/>
     <use xlink:href="#m28b39b2f4a" x="318.193646" y="30.358036" style="fill: #0e9595; stroke: #0e9595"/>
     <use xlink:href="#m28b39b2f4a" x="352.569574" y="70.807725" style="fill: #0e9595; stroke: #0e9595"/>
     <use xlink:href="#m28b39b2f4a" x="57.880435" y="91.406155" style="fill: #0e9595; stroke: #0e9595"/>
     <use xlink:href="#m28b39b2f4a" x="2.412684" y="48.937847" style="fill: #0e9595; stroke: #0e9595"/>
     <use xlink:href="#m28b39b2f4a" x="45.847033" y="49.783438" style="fill: #0e9595; stroke: #0e9595"/>
     <use xlink:href="#m28b39b2f4a" x="343.892136" y="108.035995" style="fill: #0e9595; stroke: #0e9595"/>
     <use xlink:href="#m28b39b2f4a" x="341.715939" y="28.351482" style="fill: #0e9595; stroke: #0e9595"/>
     <use xlink:href="#m28b39b2f4a" x="315.897436" y="68.42798" style="fill: #0e9595; stroke: #0e9595"/>
     <use xlink:href="#m28b39b2f4a" x="347.501759" y="38.338831" style="fill: #0e9595; stroke: #0e9595"/>
     <use xlink:href="#m28b39b2f4a" x="344.668855" y="109.326175" style="fill: #0e9595; stroke: #0e9595"/>
     <use xlink:href="#m28b39b2f4a" x="346.068334" y="88.67926" style="fill: #0e9595; stroke: #0e9595"/>
     <use xlink:href="#m28b39b2f4a" x="342.372645" y="36.752532" style="fill: #0e9595; stroke: #0e9595"/>
     <use xlink:href="#m28b39b2f4a" x="20.536844" y="60.641772" style="fill: #0e9595; stroke: #0e9595"/>
     <use xlink:href="#m28b39b2f4a" x="66.132294" y="63.709026" style="fill: #0e9595; stroke: #0e9595"/>
     <use xlink:href="#m28b39b2f4a" x="-1" y="55.197016" style="fill: #0e9595; stroke: #0e9595"/>
     <use xlink:href="#m28b39b2f4a" x="-1" y="46.429707" style="fill: #0e9595; stroke: #0e9595"/>
     <use xlink:href="#m28b39b2f4a" x="305.954115" y="48.543238" style="fill: #0e9595; stroke: #0e9595"/>
     <use xlink:href="#m28b39b2f4a" x="338.856656" y="40.28043" style="fill: #0e9595; stroke: #0e9595"/>
     <use xlink:href="#m28b39b2f4a" x="-1" y="34.86382" style="fill: #0e9595; stroke: #0e9595"/>
     <use xlink:href="#m28b39b2f4a" x="-1" y="38.598883" style="fill: #0e9595; stroke: #0e9595"/>
     <use xlink:href="#m28b39b2f4a" x="335.714369" y="28.795209" style="fill: #0e9595; stroke: #0e9595"/>
     <use xlink:href="#m28b39b2f4a" x="341.946274" y="30.177259" style="fill: #0e9595; stroke: #0e9595"/>
     <use xlink:href="#m28b39b2f4a" x="327.883009" y="25.315086" style="fill: #0e9595; stroke: #0e9595"/>
     <use xlink:href="#m28b39b2f4a" x="319.593125" y="25.127279" style="fill: #0e9595; stroke: #0e9595"/>
     <use xlink:href="#m28b39b2f4a" x="328.953648" y="67.76526" style="fill: #0e9595; stroke: #0e9595"/>
     <use xlink:href="#m28b39b2f4a" x="347.378267" y="41.08392" style="fill: #0e9595; stroke: #0e9595"/>
     <use xlink:href="#m28b39b2f4a" x="335.308332" y="71.049401" style="fill: #0e9595; stroke: #0e9595"/>
     <use xlink:href="#m28b39b2f4a" x="346.845052" y="61.11633" style="fill: #0e9595; stroke: #0e9595"/>
     <use xlink:href="#m28b39b2f4a" x="338.207661" y="27.615711" style="fill: #0e9595; stroke: #0e9595"/>
     <use xlink:href="#m28b39b2f4a" x="325.498957" y="25.913511" style="fill: #0e9595; stroke: #0e9595"/>
     <use xlink:href="#m28b39b2f4a" x="345.009849" y="109.0756" style="fill: #0e9595; stroke: #0e9595"/>
     <use xlink:href="#m28b39b2f4a" x="-1" y="59.872603" style="fill: #0e9595; stroke: #0e9595"/>
     <use xlink:href="#m28b39b2f4a" x="-1" y="31.097839" style="fill: #0e9595; stroke: #0e9595"/>
     <use xlink:href="#m28b39b2f4a" x="153.680886" y="26.487212" style="fill: #0e9595; stroke: #0e9595"/>
     <use xlink:href="#m28b39b2f4a" x="-1" y="28.979177" style="fill: #0e9595; stroke: #0e9595"/>
     <use xlink:href="#m28b39b2f4a" x="-1" y="29.714236" style="fill: #0e9595; stroke: #0e9595"/>
     <use xlink:href="#m28b39b2f4a" x="147.425904" y="27.378366" style="fill: #0e9595; stroke: #0e9595"/>
     <use xlink:href="#m28b39b2f4a" x="-1" y="26.077311" style="fill: #0e9595; stroke: #0e9595"/>
     <use xlink:href="#m28b39b2f4a" x="-1" y="27.103181" style="fill: #0e9595; stroke: #0e9595"/>
     <use xlink:href="#m28b39b2f4a" x="356.582826" y="49.150996" style="fill: #0e9595; stroke: #0e9595"/>
     <use xlink:href="#m28b39b2f4a" x="-1" y="74.83452" style="fill: #0e9595; stroke: #0e9595"/>
     <use xlink:href="#m28b39b2f4a" x="-1" y="74.866415" style="fill: #0e9595; stroke: #0e9595"/>
     <use xlink:href="#m28b39b2f4a" x="359.236661" y="49.244057" style="fill: #0e9595; stroke: #0e9595"/>
     <use xlink:href="#m28b39b2f4a" x="150.28687" y="95.441062" style="fill: #0e9595; stroke: #0e9595"/>
     <use xlink:href="#m28b39b2f4a" x="201.355355" y="92.658296" style="fill: #0e9595; stroke: #0e9595"/>
     <use xlink:href="#m28b39b2f4a" x="338.261248" y="87.187582" style="fill: #0e9595; stroke: #0e9595"/>
     <use xlink:href="#m28b39b2f4a" x="319.593125" y="101.485557" style="fill: #0e9595; stroke: #0e9595"/>
     <use xlink:href="#m28b39b2f4a" x="361.783541" y="52.05335" style="fill: #0e9595; stroke: #0e9595"/>
     <use xlink:href="#m28b39b2f4a" x="355.333119" y="58.285566" style="fill: #0e9595; stroke: #0e9595"/>
     <use xlink:href="#m28b39b2f4a" x="348.123545" y="98.034837" style="fill: #0e9595; stroke: #0e9595"/>
     <use xlink:href="#m28b39b2f4a" x="348.227457" y="123.532045" style="fill: #0e9595; stroke: #0e9595"/>
     <use xlink:href="#m28b39b2f4a" x="336.172892" y="26.315677" style="fill: #0e9595; stroke: #0e9595"/>
     <use xlink:href="#m28b39b2f4a" x="353.091879" y="74.273709" style="fill: #0e9595; stroke: #0e9595"/>
     <use xlink:href="#m28b39b2f4a" x="135.348382" y="46.642423" style="fill: #0e9595; stroke: #0e9595"/>
     <use xlink:href="#m28b39b2f4a" x="-1" y="62.699291" style="fill: #0e9595; stroke: #0e9595"/>
     <use xlink:href="#m28b39b2f4a" x="-1" y="76.827683" style="fill: #0e9595; stroke: #0e9595"/>
     <use xlink:href="#m28b39b2f4a" x="346.152696" y="108.468335" style="fill: #0e9595; stroke: #0e9595"/>
     <use xlink:href="#m28b39b2f4a" x="356.724845" y="108.279205" style="fill: #0e9595; stroke: #0e9595"/>
     <use xlink:href="#m28b39b2f4a" x="71.835044" y="30.046837" style="fill: #0e9595; stroke: #0e9595"/>
     <use xlink:href="#m28b39b2f4a" x="352.924793" y="105.679776" style="fill: #0e9595; stroke: #0e9595"/>
     <use xlink:href="#m28b39b2f4a" x="354.358217" y="114.071084" style="fill: #0e9595; stroke: #0e9595"/>
     <use xlink:href="#m28b39b2f4a" x="105.001782" y="78.137963" style="fill: #0e9595; stroke: #0e9595"/>
     <use xlink:href="#m28b39b2f4a" x="291.598425" y="36.853004" style="fill: #0e9595; stroke: #0e9595"/>
     <use xlink:href="#m28b39b2f4a" x="343.892136" y="81.205105" style="fill: #0e9595; stroke: #0e9595"/>
     <use xlink:href="#m28b39b2f4a" x="309.578664" y="33.964434" style="fill: #0e9595; stroke: #0e9595"/>
     <use xlink:href="#m28b39b2f4a" x="319.593125" y="32.447789" style="fill: #0e9595; stroke: #0e9595"/>
     <use xlink:href="#m28b39b2f4a" x="349.02125" y="68.291898" style="fill: #0e9595; stroke: #0e9595"/>
    </g>
   </g>
   <g id="patch_3">
    <path d="M 54.74 163.94875 
L 54.74 17.28 
" style="fill: none; stroke: #000000; stroke-width: 0.8; stroke-linejoin: miter; stroke-linecap: square"/>
   </g>
   <g id="patch_4">
    <path d="M 368.64 163.94875 
L 368.64 17.28 
" style="fill: none; stroke: #000000; stroke-width: 0.8; stroke-linejoin: miter; stroke-linecap: square"/>
   </g>
   <g id="patch_5">
    <path d="M 54.74 163.94875 
L 368.64 163.94875 
" style="fill: none; stroke: #000000; stroke-width: 0.8; stroke-linejoin: miter; stroke-linecap: square"/>
   </g>
   <g id="patch_6">
    <path d="M 54.74 17.28 
L 368.64 17.28 
" style="fill: none; stroke: #000000; stroke-width: 0.8; stroke-linejoin: miter; stroke-linecap: square"/>
   </g>
   <g id="legend_1">
    <g id="patch_7">
     <path d="M 61.74 158.94875 
L 168.755625 158.94875 
Q 170.755625 158.94875 170.755625 156.94875 
L 170.755625 133.42375 
Q 170.755625 131.42375 168.755625 131.42375 
L 61.74 131.42375 
Q 59.74 131.42375 59.74 133.42375 
L 59.74 156.94875 
Q 59.74 158.94875 61.74 158.94875 
z
" style="fill: #ffffff; opacity: 0.8; stroke: #cccccc; stroke-linejoin: miter"/>
    </g>
    <g id="line2d_15">
     <g>
      <use xlink:href="#m5fb7bb8fa3" x="73.74" y="139.081562" style="fill: #0d3b66; stroke: #0d3b66"/>
     </g>
    </g>
    <g id="text_15">
     <!-- minimum identity -->
     <g transform="translate(91.74 142.581562) scale(0.1 -0.1)">
      <defs>
       <path id="ArialMT-6d" d="M 422 0 
L 422 3319 
L 925 3319 
L 925 2853 
Q 1081 3097 1340 3245 
Q 1600 3394 1931 3394 
Q 2300 3394 2536 3241 
Q 2772 3088 2869 2813 
Q 3263 3394 3894 3394 
Q 4388 3394 4653 3120 
Q 4919 2847 4919 2278 
L 4919 0 
L 4359 0 
L 4359 2091 
Q 4359 2428 4304 2576 
Q 4250 2725 4106 2815 
Q 3963 2906 3769 2906 
Q 3419 2906 3187 2673 
Q 2956 2441 2956 1928 
L 2956 0 
L 2394 0 
L 2394 2156 
Q 2394 2531 2256 2718 
Q 2119 2906 1806 2906 
Q 1569 2906 1367 2781 
Q 1166 2656 1075 2415 
Q 984 2175 984 1722 
L 984 0 
L 422 0 
z
" transform="scale(0.015625)"/>
       <path id="ArialMT-69" d="M 425 3934 
L 425 4581 
L 988 4581 
L 988 3934 
L 425 3934 
z
M 425 0 
L 425 3319 
L 988 3319 
L 988 0 
L 425 0 
z
" transform="scale(0.015625)"/>
       <path id="ArialMT-6e" d="M 422 0 
L 422 3319 
L 928 3319 
L 928 2847 
Q 1294 3394 1984 3394 
Q 2284 3394 2536 3286 
Q 2788 3178 2913 3003 
Q 3038 2828 3088 2588 
Q 3119 2431 3119 2041 
L 3119 0 
L 2556 0 
L 2556 2019 
Q 2556 2363 2490 2533 
Q 2425 2703 2258 2804 
Q 2091 2906 1866 2906 
Q 1506 2906 1245 2678 
Q 984 2450 984 1813 
L 984 0 
L 422 0 
z
" transform="scale(0.015625)"/>
       <path id="ArialMT-20" transform="scale(0.015625)"/>
       <path id="ArialMT-64" d="M 2575 0 
L 2575 419 
Q 2259 -75 1647 -75 
Q 1250 -75 917 144 
Q 584 363 401 755 
Q 219 1147 219 1656 
Q 219 2153 384 2558 
Q 550 2963 881 3178 
Q 1213 3394 1622 3394 
Q 1922 3394 2156 3267 
Q 2391 3141 2538 2938 
L 2538 4581 
L 3097 4581 
L 3097 0 
L 2575 0 
z
M 797 1656 
Q 797 1019 1065 703 
Q 1334 388 1700 388 
Q 2069 388 2326 689 
Q 2584 991 2584 1609 
Q 2584 2291 2321 2609 
Q 2059 2928 1675 2928 
Q 1300 2928 1048 2622 
Q 797 2316 797 1656 
z
" transform="scale(0.015625)"/>
       <path id="ArialMT-74" d="M 1650 503 
L 1731 6 
Q 1494 -44 1306 -44 
Q 1000 -44 831 53 
Q 663 150 594 308 
Q 525 466 525 972 
L 525 2881 
L 113 2881 
L 113 3319 
L 525 3319 
L 525 4141 
L 1084 4478 
L 1084 3319 
L 1650 3319 
L 1650 2881 
L 1084 2881 
L 1084 941 
Q 1084 700 1114 631 
Q 1144 563 1211 522 
Q 1278 481 1403 481 
Q 1497 481 1650 503 
z
" transform="scale(0.015625)"/>
       <path id="ArialMT-79" d="M 397 -1278 
L 334 -750 
Q 519 -800 656 -800 
Q 844 -800 956 -737 
Q 1069 -675 1141 -563 
Q 1194 -478 1313 -144 
Q 1328 -97 1363 -6 
L 103 3319 
L 709 3319 
L 1400 1397 
Q 1534 1031 1641 628 
Q 1738 1016 1872 1384 
L 2581 3319 
L 3144 3319 
L 1881 -56 
Q 1678 -603 1566 -809 
Q 1416 -1088 1222 -1217 
Q 1028 -1347 759 -1347 
Q 597 -1347 397 -1278 
z
" transform="scale(0.015625)"/>
      </defs>
      <use xlink:href="#ArialMT-6d"/>
      <use xlink:href="#ArialMT-69" x="83.300781"/>
      <use xlink:href="#ArialMT-6e" x="105.517578"/>
      <use xlink:href="#ArialMT-69" x="161.132812"/>
      <use xlink:href="#ArialMT-6d" x="183.349609"/>
      <use xlink:href="#ArialMT-75" x="266.650391"/>
      <use xlink:href="#ArialMT-6d" x="322.265625"/>
      <use xlink:href="#ArialMT-20" x="405.566406"/>
      <use xlink:href="#ArialMT-69" x="433.349609"/>
      <use xlink:href="#ArialMT-64" x="455.566406"/>
      <use xlink:href="#ArialMT-65" x="511.181641"/>
      <use xlink:href="#ArialMT-6e" x="566.796875"/>
      <use xlink:href="#ArialMT-74" x="622.412109"/>
      <use xlink:href="#ArialMT-69" x="650.195312"/>
      <use xlink:href="#ArialMT-74" x="672.412109"/>
      <use xlink:href="#ArialMT-79" x="700.195312"/>
     </g>
    </g>
    <g id="line2d_16">
     <g>
      <use xlink:href="#m28b39b2f4a" x="73.74" y="149.344063" style="fill: #0e9595; stroke: #0e9595"/>
     </g>
    </g>
    <g id="text_16">
     <!-- low similarity -->
     <g transform="translate(91.74 152.844063) scale(0.1 -0.1)">
      <defs>
       <path id="ArialMT-6f" d="M 213 1659 
Q 213 2581 725 3025 
Q 1153 3394 1769 3394 
Q 2453 3394 2887 2945 
Q 3322 2497 3322 1706 
Q 3322 1066 3130 698 
Q 2938 331 2570 128 
Q 2203 -75 1769 -75 
Q 1072 -75 642 372 
Q 213 819 213 1659 
z
M 791 1659 
Q 791 1022 1069 705 
Q 1347 388 1769 388 
Q 2188 388 2466 706 
Q 2744 1025 2744 1678 
Q 2744 2294 2464 2611 
Q 2184 2928 1769 2928 
Q 1347 2928 1069 2612 
Q 791 2297 791 1659 
z
" transform="scale(0.015625)"/>
       <path id="ArialMT-77" d="M 1034 0 
L 19 3319 
L 600 3319 
L 1128 1403 
L 1325 691 
Q 1338 744 1497 1375 
L 2025 3319 
L 2603 3319 
L 3100 1394 
L 3266 759 
L 3456 1400 
L 4025 3319 
L 4572 3319 
L 3534 0 
L 2950 0 
L 2422 1988 
L 2294 2553 
L 1622 0 
L 1034 0 
z
" transform="scale(0.015625)"/>
       <path id="ArialMT-73" d="M 197 991 
L 753 1078 
Q 800 744 1014 566 
Q 1228 388 1613 388 
Q 2000 388 2187 545 
Q 2375 703 2375 916 
Q 2375 1106 2209 1216 
Q 2094 1291 1634 1406 
Q 1016 1563 777 1677 
Q 538 1791 414 1992 
Q 291 2194 291 2438 
Q 291 2659 392 2848 
Q 494 3038 669 3163 
Q 800 3259 1026 3326 
Q 1253 3394 1513 3394 
Q 1903 3394 2198 3281 
Q 2494 3169 2634 2976 
Q 2775 2784 2828 2463 
L 2278 2388 
Q 2241 2644 2061 2787 
Q 1881 2931 1553 2931 
Q 1166 2931 1000 2803 
Q 834 2675 834 2503 
Q 834 2394 903 2306 
Q 972 2216 1119 2156 
Q 1203 2125 1616 2013 
Q 2213 1853 2448 1751 
Q 2684 1650 2818 1456 
Q 2953 1263 2953 975 
Q 2953 694 2789 445 
Q 2625 197 2315 61 
Q 2006 -75 1616 -75 
Q 969 -75 630 194 
Q 291 463 197 991 
z
" transform="scale(0.015625)"/>
       <path id="ArialMT-72" d="M 416 0 
L 416 3319 
L 922 3319 
L 922 2816 
Q 1116 3169 1280 3281 
Q 1444 3394 1641 3394 
Q 1925 3394 2219 3213 
L 2025 2691 
Q 1819 2813 1613 2813 
Q 1428 2813 1281 2702 
Q 1134 2591 1072 2394 
Q 978 2094 978 1738 
L 978 0 
L 416 0 
z
" transform="scale(0.015625)"/>
      </defs>
      <use xlink:href="#ArialMT-6c"/>
      <use xlink:href="#ArialMT-6f" x="22.216797"/>
      <use xlink:href="#ArialMT-77" x="77.832031"/>
      <use xlink:href="#ArialMT-20" x="150.048828"/>
      <use xlink:href="#ArialMT-73" x="177.832031"/>
      <use xlink:href="#ArialMT-69" x="227.832031"/>
      <use xlink:href="#ArialMT-6d" x="250.048828"/>
      <use xlink:href="#ArialMT-69" x="333.349609"/>
      <use xlink:href="#ArialMT-6c" x="355.566406"/>
      <use xlink:href="#ArialMT-61" x="377.783203"/>
      <use xlink:href="#ArialMT-72" x="433.398438"/>
      <use xlink:href="#ArialMT-69" x="466.699219"/>
      <use xlink:href="#ArialMT-74" x="488.916016"/>
      <use xlink:href="#ArialMT-79" x="516.699219"/>
     </g>
    </g>
   </g>
  </g>
 </g>
 <defs>
  <clipPath id="p372a3d7aaf">
   <rect x="54.74" y="17.28" width="313.9" height="146.66875"/>
  </clipPath>
 </defs>
</svg>
