<?xml version="1.0" encoding="utf-8" standalone="no"?>
<!DOCTYPE svg PUBLIC "-//W3C//DTD SVG 1.1//EN"
  "http://www.w3.org/Graphics/SVG/1.1/DTD/svg11.dtd">
<svg xmlns:xlink="http://www.w3.org/1999/xlink" width="201.6pt" height="216pt" viewBox="0 0 201.6 216" xmlns="http://www.w3.org/2000/svg" version="1.1">
 <metadata>
  <rdf:RDF xmlns:dc="http://purl.org/dc/elements/1.1/" xmlns:cc="http://creativecommons.org/ns#" xmlns:rdf="http://www.w3.org/1999/02/22-rdf-syntax-ns#">
   <cc:Work>
    <dc:type rdf:resource="http://purl.org/dc/dcmitype/StillImage"/>
    <dc:date>2023-11-21T13:22:38.792473</dc:date>
    <dc:format>image/svg+xml</dc:format>
    <dc:creator>
     <cc:Agent>
      <dc:title>Matplotlib v3.7.1, https://matplotlib.org/</dc:title>
     </cc:Agent>
    </dc:creator>
   </cc:Work>
  </rdf:RDF>
 </metadata>
 <defs>
  <style type="text/css">*{stroke-linejoin: round; stroke-linecap: butt}</style>
 </defs>
 <g id="figure_1">
  <g id="patch_1">
   <path d="M 0 216 
L 201.6 216 
L 201.6 0 
L 0 0 
z
" style="fill: #ffffff"/>
  </g>
  <g id="axes_1">
   <g id="patch_2">
    <path d="M 54.74 163.94875 
L 188.64 163.94875 
L 188.64 17.28 
L 54.74 17.28 
z
" style="fill: #ffffff"/>
   </g>
   <g id="matplotlib.axis_1">
    <g id="xtick_1">
     <g id="line2d_1">
      <defs>
       <path id="m27ccbf6a05" d="M 0 0 
L 0 3.5 
" style="stroke: #000000; stroke-width: 0.8"/>
      </defs>
      <g>
       <use xlink:href="#m27ccbf6a05" x="54.74" y="163.94875" style="stroke: #000000; stroke-width: 0.8"/>
      </g>
     </g>
     <g id="text_1">
      <!-- $\mathdefault{10^{-1}}$ -->
      <g transform="translate(42.86 183.32375) scale(0.12 -0.12)">
       <defs>
        <path id="ArialMT-31" d="M 2384 0 
L 1822 0 
L 1822 3584 
Q 1619 3391 1289 3197 
Q 959 3003 697 2906 
L 697 3450 
Q 1169 3672 1522 3987 
Q 1875 4303 2022 4600 
L 2384 4600 
L 2384 0 
z
" transform="scale(0.015625)"/>
        <path id="ArialMT-30" d="M 266 2259 
Q 266 3072 433 3567 
Q 600 4063 929 4331 
Q 1259 4600 1759 4600 
Q 2128 4600 2406 4451 
Q 2684 4303 2865 4023 
Q 3047 3744 3150 3342 
Q 3253 2941 3253 2259 
Q 3253 1453 3087 958 
Q 2922 463 2592 192 
Q 2263 -78 1759 -78 
Q 1097 -78 719 397 
Q 266 969 266 2259 
z
M 844 2259 
Q 844 1131 1108 757 
Q 1372 384 1759 384 
Q 2147 384 2411 759 
Q 2675 1134 2675 2259 
Q 2675 3391 2411 3762 
Q 2147 4134 1753 4134 
Q 1366 4134 1134 3806 
Q 844 3388 844 2259 
z
" transform="scale(0.015625)"/>
        <path id="ArialMT-2212" d="M 3381 1997 
L 356 1997 
L 356 2522 
L 3381 2522 
L 3381 1997 
z
" transform="scale(0.015625)"/>
       </defs>
       <use xlink:href="#ArialMT-31" transform="translate(0 0.99375)"/>
       <use xlink:href="#ArialMT-30" transform="translate(55.615234 0.99375)"/>
       <use xlink:href="#ArialMT-2212" transform="translate(112.972813 70.6875) scale(0.7)"/>
       <use xlink:href="#ArialMT-31" transform="translate(153.851719 70.6875) scale(0.7)"/>
      </g>
     </g>
    </g>
    <g id="xtick_2">
     <g id="line2d_2">
      <g>
       <use xlink:href="#m27ccbf6a05" x="110.579595" y="163.94875" style="stroke: #000000; stroke-width: 0.8"/>
      </g>
     </g>
     <g id="text_2">
      <!-- $\mathdefault{10^{0}}$ -->
      <g transform="translate(101.159595 183.32375) scale(0.12 -0.12)">
       <use xlink:href="#ArialMT-31" transform="translate(0 0.99375)"/>
       <use xlink:href="#ArialMT-30" transform="translate(55.615234 0.99375)"/>
       <use xlink:href="#ArialMT-30" transform="translate(112.972813 70.6875) scale(0.7)"/>
      </g>
     </g>
    </g>
    <g id="xtick_3">
     <g id="line2d_3">
      <g>
       <use xlink:href="#m27ccbf6a05" x="166.419191" y="163.94875" style="stroke: #000000; stroke-width: 0.8"/>
      </g>
     </g>
     <g id="text_3">
      <!-- $\mathdefault{10^{1}}$ -->
      <g transform="translate(156.999191 183.32375) scale(0.12 -0.12)">
       <use xlink:href="#ArialMT-31" transform="translate(0 0.99375)"/>
       <use xlink:href="#ArialMT-30" transform="translate(55.615234 0.99375)"/>
       <use xlink:href="#ArialMT-31" transform="translate(112.972813 70.6875) scale(0.7)"/>
      </g>
     </g>
    </g>
    <g id="xtick_4">
     <g id="line2d_4">
      <defs>
       <path id="m872921ea30" d="M 0 0 
L 0 2 
" style="stroke: #000000; stroke-width: 0.6"/>
      </defs>
      <g>
       <use xlink:href="#m872921ea30" x="71.549393" y="163.94875" style="stroke: #000000; stroke-width: 0.6"/>
      </g>
     </g>
    </g>
    <g id="xtick_5">
     <g id="line2d_5">
      <g>
       <use xlink:href="#m872921ea30" x="81.382258" y="163.94875" style="stroke: #000000; stroke-width: 0.6"/>
      </g>
     </g>
    </g>
    <g id="xtick_6">
     <g id="line2d_6">
      <g>
       <use xlink:href="#m872921ea30" x="88.358786" y="163.94875" style="stroke: #000000; stroke-width: 0.6"/>
      </g>
     </g>
    </g>
    <g id="xtick_7">
     <g id="line2d_7">
      <g>
       <use xlink:href="#m872921ea30" x="93.770202" y="163.94875" style="stroke: #000000; stroke-width: 0.6"/>
      </g>
     </g>
    </g>
    <g id="xtick_8">
     <g id="line2d_8">
      <g>
       <use xlink:href="#m872921ea30" x="98.191651" y="163.94875" style="stroke: #000000; stroke-width: 0.6"/>
      </g>
     </g>
    </g>
    <g id="xtick_9">
     <g id="line2d_9">
      <g>
       <use xlink:href="#m872921ea30" x="101.929933" y="163.94875" style="stroke: #000000; stroke-width: 0.6"/>
      </g>
     </g>
    </g>
    <g id="xtick_10">
     <g id="line2d_10">
      <g>
       <use xlink:href="#m872921ea30" x="105.16818" y="163.94875" style="stroke: #000000; stroke-width: 0.6"/>
      </g>
     </g>
    </g>
    <g id="xtick_11">
     <g id="line2d_11">
      <g>
       <use xlink:href="#m872921ea30" x="108.024516" y="163.94875" style="stroke: #000000; stroke-width: 0.6"/>
      </g>
     </g>
    </g>
    <g id="xtick_12">
     <g id="line2d_12">
      <g>
       <use xlink:href="#m872921ea30" x="127.388989" y="163.94875" style="stroke: #000000; stroke-width: 0.6"/>
      </g>
     </g>
    </g>
    <g id="xtick_13">
     <g id="line2d_13">
      <g>
       <use xlink:href="#m872921ea30" x="137.221853" y="163.94875" style="stroke: #000000; stroke-width: 0.6"/>
      </g>
     </g>
    </g>
    <g id="xtick_14">
     <g id="line2d_14">
      <g>
       <use xlink:href="#m872921ea30" x="144.198382" y="163.94875" style="stroke: #000000; stroke-width: 0.6"/>
      </g>
     </g>
    </g>
    <g id="xtick_15">
     <g id="line2d_15">
      <g>
       <use xlink:href="#m872921ea30" x="149.609798" y="163.94875" style="stroke: #000000; stroke-width: 0.6"/>
      </g>
     </g>
    </g>
    <g id="xtick_16">
     <g id="line2d_16">
      <g>
       <use xlink:href="#m872921ea30" x="154.031246" y="163.94875" style="stroke: #000000; stroke-width: 0.6"/>
      </g>
     </g>
    </g>
    <g id="xtick_17">
     <g id="line2d_17">
      <g>
       <use xlink:href="#m872921ea30" x="157.769528" y="163.94875" style="stroke: #000000; stroke-width: 0.6"/>
      </g>
     </g>
    </g>
    <g id="xtick_18">
     <g id="line2d_18">
      <g>
       <use xlink:href="#m872921ea30" x="161.007775" y="163.94875" style="stroke: #000000; stroke-width: 0.6"/>
      </g>
     </g>
    </g>
    <g id="xtick_19">
     <g id="line2d_19">
      <g>
       <use xlink:href="#m872921ea30" x="163.864111" y="163.94875" style="stroke: #000000; stroke-width: 0.6"/>
      </g>
     </g>
    </g>
    <g id="xtick_20">
     <g id="line2d_20">
      <g>
       <use xlink:href="#m872921ea30" x="183.228584" y="163.94875" style="stroke: #000000; stroke-width: 0.6"/>
      </g>
     </g>
    </g>
    <g id="text_4">
     <!-- e-value -->
     <g transform="translate(102.012812 198.298125) scale(0.12 -0.12)">
      <defs>
       <path id="ArialMT-65" d="M 2694 1069 
L 3275 997 
Q 3138 488 2766 206 
Q 2394 -75 1816 -75 
Q 1088 -75 661 373 
Q 234 822 234 1631 
Q 234 2469 665 2931 
Q 1097 3394 1784 3394 
Q 2450 3394 2872 2941 
Q 3294 2488 3294 1666 
Q 3294 1616 3291 1516 
L 816 1516 
Q 847 969 1125 678 
Q 1403 388 1819 388 
Q 2128 388 2347 550 
Q 2566 713 2694 1069 
z
M 847 1978 
L 2700 1978 
Q 2663 2397 2488 2606 
Q 2219 2931 1791 2931 
Q 1403 2931 1139 2672 
Q 875 2413 847 1978 
z
" transform="scale(0.015625)"/>
       <path id="ArialMT-2d" d="M 203 1375 
L 203 1941 
L 1931 1941 
L 1931 1375 
L 203 1375 
z
" transform="scale(0.015625)"/>
       <path id="ArialMT-76" d="M 1344 0 
L 81 3319 
L 675 3319 
L 1388 1331 
Q 1503 1009 1600 663 
Q 1675 925 1809 1294 
L 2547 3319 
L 3125 3319 
L 1869 0 
L 1344 0 
z
" transform="scale(0.015625)"/>
       <path id="ArialMT-61" d="M 2588 409 
Q 2275 144 1986 34 
Q 1697 -75 1366 -75 
Q 819 -75 525 192 
Q 231 459 231 875 
Q 231 1119 342 1320 
Q 453 1522 633 1644 
Q 813 1766 1038 1828 
Q 1203 1872 1538 1913 
Q 2219 1994 2541 2106 
Q 2544 2222 2544 2253 
Q 2544 2597 2384 2738 
Q 2169 2928 1744 2928 
Q 1347 2928 1158 2789 
Q 969 2650 878 2297 
L 328 2372 
Q 403 2725 575 2942 
Q 747 3159 1072 3276 
Q 1397 3394 1825 3394 
Q 2250 3394 2515 3294 
Q 2781 3194 2906 3042 
Q 3031 2891 3081 2659 
Q 3109 2516 3109 2141 
L 3109 1391 
Q 3109 606 3145 398 
Q 3181 191 3288 0 
L 2700 0 
Q 2613 175 2588 409 
z
M 2541 1666 
Q 2234 1541 1622 1453 
Q 1275 1403 1131 1340 
Q 988 1278 909 1158 
Q 831 1038 831 891 
Q 831 666 1001 516 
Q 1172 366 1500 366 
Q 1825 366 2078 508 
Q 2331 650 2450 897 
Q 2541 1088 2541 1459 
L 2541 1666 
z
" transform="scale(0.015625)"/>
       <path id="ArialMT-6c" d="M 409 0 
L 409 4581 
L 972 4581 
L 972 0 
L 409 0 
z
" transform="scale(0.015625)"/>
       <path id="ArialMT-75" d="M 2597 0 
L 2597 488 
Q 2209 -75 1544 -75 
Q 1250 -75 995 37 
Q 741 150 617 320 
Q 494 491 444 738 
Q 409 903 409 1263 
L 409 3319 
L 972 3319 
L 972 1478 
Q 972 1038 1006 884 
Q 1059 663 1231 536 
Q 1403 409 1656 409 
Q 1909 409 2131 539 
Q 2353 669 2445 892 
Q 2538 1116 2538 1541 
L 2538 3319 
L 3100 3319 
L 3100 0 
L 2597 0 
z
" transform="scale(0.015625)"/>
      </defs>
      <use xlink:href="#ArialMT-65"/>
      <use xlink:href="#ArialMT-2d" x="55.615234"/>
      <use xlink:href="#ArialMT-76" x="88.916016"/>
      <use xlink:href="#ArialMT-61" x="138.916016"/>
      <use xlink:href="#ArialMT-6c" x="194.53125"/>
      <use xlink:href="#ArialMT-75" x="216.748047"/>
      <use xlink:href="#ArialMT-65" x="272.363281"/>
     </g>
    </g>
   </g>
   <g id="matplotlib.axis_2">
    <g id="ytick_1">
     <g id="line2d_21">
      <defs>
       <path id="mdb09f76990" d="M 0 0 
L -3.5 0 
" style="stroke: #000000; stroke-width: 0.8"/>
      </defs>
      <g>
       <use xlink:href="#mdb09f76990" x="54.74" y="155.321176" style="stroke: #000000; stroke-width: 0.8"/>
      </g>
     </g>
     <g id="text_5">
      <!-- 20 -->
      <g transform="translate(34.39375 159.615864) scale(0.12 -0.12)">
       <defs>
        <path id="ArialMT-32" d="M 3222 541 
L 3222 0 
L 194 0 
Q 188 203 259 391 
Q 375 700 629 1000 
Q 884 1300 1366 1694 
Q 2113 2306 2375 2664 
Q 2638 3022 2638 3341 
Q 2638 3675 2398 3904 
Q 2159 4134 1775 4134 
Q 1369 4134 1125 3890 
Q 881 3647 878 3216 
L 300 3275 
Q 359 3922 746 4261 
Q 1134 4600 1788 4600 
Q 2447 4600 2831 4234 
Q 3216 3869 3216 3328 
Q 3216 3053 3103 2787 
Q 2991 2522 2730 2228 
Q 2469 1934 1863 1422 
Q 1356 997 1212 845 
Q 1069 694 975 541 
L 3222 541 
z
" transform="scale(0.015625)"/>
       </defs>
       <use xlink:href="#ArialMT-32"/>
       <use xlink:href="#ArialMT-30" x="55.615234"/>
      </g>
     </g>
    </g>
    <g id="ytick_2">
     <g id="line2d_22">
      <g>
       <use xlink:href="#mdb09f76990" x="54.74" y="120.810882" style="stroke: #000000; stroke-width: 0.8"/>
      </g>
     </g>
     <g id="text_6">
      <!-- 40 -->
      <g transform="translate(34.39375 125.10557) scale(0.12 -0.12)">
       <defs>
        <path id="ArialMT-34" d="M 2069 0 
L 2069 1097 
L 81 1097 
L 81 1613 
L 2172 4581 
L 2631 4581 
L 2631 1613 
L 3250 1613 
L 3250 1097 
L 2631 1097 
L 2631 0 
L 2069 0 
z
M 2069 1613 
L 2069 3678 
L 634 1613 
L 2069 1613 
z
" transform="scale(0.015625)"/>
       </defs>
       <use xlink:href="#ArialMT-34"/>
       <use xlink:href="#ArialMT-30" x="55.615234"/>
      </g>
     </g>
    </g>
    <g id="ytick_3">
     <g id="line2d_23">
      <g>
       <use xlink:href="#mdb09f76990" x="54.74" y="86.300588" style="stroke: #000000; stroke-width: 0.8"/>
      </g>
     </g>
     <g id="text_7">
      <!-- 60 -->
      <g transform="translate(34.39375 90.595276) scale(0.12 -0.12)">
       <defs>
        <path id="ArialMT-36" d="M 3184 3459 
L 2625 3416 
Q 2550 3747 2413 3897 
Q 2184 4138 1850 4138 
Q 1581 4138 1378 3988 
Q 1113 3794 959 3422 
Q 806 3050 800 2363 
Q 1003 2672 1297 2822 
Q 1591 2972 1913 2972 
Q 2475 2972 2870 2558 
Q 3266 2144 3266 1488 
Q 3266 1056 3080 686 
Q 2894 316 2569 119 
Q 2244 -78 1831 -78 
Q 1128 -78 684 439 
Q 241 956 241 2144 
Q 241 3472 731 4075 
Q 1159 4600 1884 4600 
Q 2425 4600 2770 4297 
Q 3116 3994 3184 3459 
z
M 888 1484 
Q 888 1194 1011 928 
Q 1134 663 1356 523 
Q 1578 384 1822 384 
Q 2178 384 2434 671 
Q 2691 959 2691 1453 
Q 2691 1928 2437 2201 
Q 2184 2475 1800 2475 
Q 1419 2475 1153 2201 
Q 888 1928 888 1484 
z
" transform="scale(0.015625)"/>
       </defs>
       <use xlink:href="#ArialMT-36"/>
       <use xlink:href="#ArialMT-30" x="55.615234"/>
      </g>
     </g>
    </g>
    <g id="ytick_4">
     <g id="line2d_24">
      <g>
       <use xlink:href="#mdb09f76990" x="54.74" y="51.790294" style="stroke: #000000; stroke-width: 0.8"/>
      </g>
     </g>
     <g id="text_8">
      <!-- 80 -->
      <g transform="translate(34.39375 56.084982) scale(0.12 -0.12)">
       <defs>
        <path id="ArialMT-38" d="M 1131 2484 
Q 781 2613 612 2850 
Q 444 3088 444 3419 
Q 444 3919 803 4259 
Q 1163 4600 1759 4600 
Q 2359 4600 2725 4251 
Q 3091 3903 3091 3403 
Q 3091 3084 2923 2848 
Q 2756 2613 2416 2484 
Q 2838 2347 3058 2040 
Q 3278 1734 3278 1309 
Q 3278 722 2862 322 
Q 2447 -78 1769 -78 
Q 1091 -78 675 323 
Q 259 725 259 1325 
Q 259 1772 486 2073 
Q 713 2375 1131 2484 
z
M 1019 3438 
Q 1019 3113 1228 2906 
Q 1438 2700 1772 2700 
Q 2097 2700 2305 2904 
Q 2513 3109 2513 3406 
Q 2513 3716 2298 3927 
Q 2084 4138 1766 4138 
Q 1444 4138 1231 3931 
Q 1019 3725 1019 3438 
z
M 838 1322 
Q 838 1081 952 856 
Q 1066 631 1291 507 
Q 1516 384 1775 384 
Q 2178 384 2440 643 
Q 2703 903 2703 1303 
Q 2703 1709 2433 1975 
Q 2163 2241 1756 2241 
Q 1359 2241 1098 1978 
Q 838 1716 838 1322 
z
" transform="scale(0.015625)"/>
       </defs>
       <use xlink:href="#ArialMT-38"/>
       <use xlink:href="#ArialMT-30" x="55.615234"/>
      </g>
     </g>
    </g>
    <g id="ytick_5">
     <g id="line2d_25">
      <g>
       <use xlink:href="#mdb09f76990" x="54.74" y="17.28" style="stroke: #000000; stroke-width: 0.8"/>
      </g>
     </g>
     <g id="text_9">
      <!-- 100 -->
      <g transform="translate(27.720625 21.574688) scale(0.12 -0.12)">
       <use xlink:href="#ArialMT-31"/>
       <use xlink:href="#ArialMT-30" x="55.615234"/>
       <use xlink:href="#ArialMT-30" x="111.230469"/>
      </g>
     </g>
    </g>
    <g id="text_10">
     <!-- lDDT -->
     <g transform="translate(21.335625 104.278438) rotate(-90) scale(0.12 -0.12)">
      <defs>
       <path id="ArialMT-44" d="M 494 0 
L 494 4581 
L 2072 4581 
Q 2606 4581 2888 4516 
Q 3281 4425 3559 4188 
Q 3922 3881 4101 3404 
Q 4281 2928 4281 2316 
Q 4281 1794 4159 1391 
Q 4038 988 3847 723 
Q 3656 459 3429 307 
Q 3203 156 2883 78 
Q 2563 0 2147 0 
L 494 0 
z
M 1100 541 
L 2078 541 
Q 2531 541 2789 625 
Q 3047 709 3200 863 
Q 3416 1078 3536 1442 
Q 3656 1806 3656 2325 
Q 3656 3044 3420 3430 
Q 3184 3816 2847 3947 
Q 2603 4041 2063 4041 
L 1100 4041 
L 1100 541 
z
" transform="scale(0.015625)"/>
       <path id="ArialMT-54" d="M 1659 0 
L 1659 4041 
L 150 4041 
L 150 4581 
L 3781 4581 
L 3781 4041 
L 2266 4041 
L 2266 0 
L 1659 0 
z
" transform="scale(0.015625)"/>
      </defs>
      <use xlink:href="#ArialMT-6c"/>
      <use xlink:href="#ArialMT-44" x="22.216797"/>
      <use xlink:href="#ArialMT-44" x="94.433594"/>
      <use xlink:href="#ArialMT-54" x="166.650391"/>
     </g>
    </g>
   </g>
   <g id="line2d_26">
    <defs>
     <path id="me984cdf2ac" d="M 0 1.5 
C 0.397805 1.5 0.77937 1.341951 1.06066 1.06066 
C 1.341951 0.77937 1.5 0.397805 1.5 0 
C 1.5 -0.397805 1.341951 -0.77937 1.06066 -1.06066 
C 0.77937 -1.341951 0.397805 -1.5 0 -1.5 
C -0.397805 -1.5 -0.77937 -1.341951 -1.06066 -1.06066 
C -1.341951 -0.77937 -1.5 -0.397805 -1.5 0 
C -1.5 0.397805 -1.341951 0.77937 -1.06066 1.06066 
C -0.77937 1.341951 -0.397805 1.5 0 1.5 
z
" style="stroke: #0d3b66"/>
    </defs>
    <g clip-path="url(#pbbf9a3e506)">
     <use xlink:href="#me984cdf2ac" x="-1" y="39.267806" style="fill: #0d3b66; stroke: #0d3b66"/>
     <use xlink:href="#me984cdf2ac" x="30.628559" y="39.925037" style="fill: #0d3b66; stroke: #0d3b66"/>
     <use xlink:href="#me984cdf2ac" x="121.977573" y="94.062962" style="fill: #0d3b66; stroke: #0d3b66"/>
     <use xlink:href="#me984cdf2ac" x="-1" y="75.876923" style="fill: #0d3b66; stroke: #0d3b66"/>
     <use xlink:href="#me984cdf2ac" x="-1" y="77.741027" style="fill: #0d3b66; stroke: #0d3b66"/>
     <use xlink:href="#me984cdf2ac" x="137.221853" y="98.988312" style="fill: #0d3b66; stroke: #0d3b66"/>
     <use xlink:href="#me984cdf2ac" x="-1" y="98.152921" style="fill: #0d3b66; stroke: #0d3b66"/>
     <use xlink:href="#me984cdf2ac" x="-1" y="66.504145" style="fill: #0d3b66; stroke: #0d3b66"/>
     <use xlink:href="#me984cdf2ac" x="57.051351" y="63.205268" style="fill: #0d3b66; stroke: #0d3b66"/>
     <use xlink:href="#me984cdf2ac" x="115.001044" y="63.367153" style="fill: #0d3b66; stroke: #0d3b66"/>
     <use xlink:href="#me984cdf2ac" x="10.298382" y="80.991378" style="fill: #0d3b66; stroke: #0d3b66"/>
     <use xlink:href="#me984cdf2ac" x="-1" y="76.103534" style="fill: #0d3b66; stroke: #0d3b66"/>
     <use xlink:href="#me984cdf2ac" x="-1" y="44.68501" style="fill: #0d3b66; stroke: #0d3b66"/>
     <use xlink:href="#me984cdf2ac" x="138.017034" y="50.713098" style="fill: #0d3b66; stroke: #0d3b66"/>
     <use xlink:href="#me984cdf2ac" x="21.121214" y="89.013878" style="fill: #0d3b66; stroke: #0d3b66"/>
     <use xlink:href="#me984cdf2ac" x="-1" y="86.70489" style="fill: #0d3b66; stroke: #0d3b66"/>
     <use xlink:href="#me984cdf2ac" x="-1" y="73.481456" style="fill: #0d3b66; stroke: #0d3b66"/>
     <use xlink:href="#me984cdf2ac" x="3.321853" y="73.742108" style="fill: #0d3b66; stroke: #0d3b66"/>
     <use xlink:href="#me984cdf2ac" x="-1" y="73.525696" style="fill: #0d3b66; stroke: #0d3b66"/>
     <use xlink:href="#me984cdf2ac" x="-1" y="115.525206" style="fill: #0d3b66; stroke: #0d3b66"/>
     <use xlink:href="#me984cdf2ac" x="90.112622" y="123.344185" style="fill: #0d3b66; stroke: #0d3b66"/>
     <use xlink:href="#me984cdf2ac" x="151.921149" y="105.636735" style="fill: #0d3b66; stroke: #0d3b66"/>
     <use xlink:href="#me984cdf2ac" x="-1" y="86.247617" style="fill: #0d3b66; stroke: #0d3b66"/>
     <use xlink:href="#me984cdf2ac" x="-1" y="121.284463" style="fill: #0d3b66; stroke: #0d3b66"/>
     <use xlink:href="#me984cdf2ac" x="123.44777" y="125.704045" style="fill: #0d3b66; stroke: #0d3b66"/>
     <use xlink:href="#me984cdf2ac" x="-1" y="114.257062" style="fill: #0d3b66; stroke: #0d3b66"/>
     <use xlink:href="#me984cdf2ac" x="-1" y="48.109629" style="fill: #0d3b66; stroke: #0d3b66"/>
     <use xlink:href="#me984cdf2ac" x="123.44777" y="48.081027" style="fill: #0d3b66; stroke: #0d3b66"/>
     <use xlink:href="#me984cdf2ac" x="-1" y="45.433016" style="fill: #0d3b66; stroke: #0d3b66"/>
     <use xlink:href="#me984cdf2ac" x="-1" y="107.20395" style="fill: #0d3b66; stroke: #0d3b66"/>
     <use xlink:href="#me984cdf2ac" x="179.287365" y="115.473183" style="fill: #0d3b66; stroke: #0d3b66"/>
     <use xlink:href="#me984cdf2ac" x="-1" y="113.943922" style="fill: #0d3b66; stroke: #0d3b66"/>
     <use xlink:href="#me984cdf2ac" x="-1" y="44.666618" style="fill: #0d3b66; stroke: #0d3b66"/>
     <use xlink:href="#me984cdf2ac" x="46.090337" y="42.652525" style="fill: #0d3b66; stroke: #0d3b66"/>
     <use xlink:href="#me984cdf2ac" x="155.596359" y="103.810254" style="fill: #0d3b66; stroke: #0d3b66"/>
     <use xlink:href="#me984cdf2ac" x="41.108151" y="62.799336" style="fill: #0d3b66; stroke: #0d3b66"/>
     <use xlink:href="#me984cdf2ac" x="161.606591" y="69.489392" style="fill: #0d3b66; stroke: #0d3b66"/>
     <use xlink:href="#me984cdf2ac" x="120.41246" y="92.825836" style="fill: #0d3b66; stroke: #0d3b66"/>
     <use xlink:href="#me984cdf2ac" x="-1" y="72.809259" style="fill: #0d3b66; stroke: #0d3b66"/>
     <use xlink:href="#me984cdf2ac" x="-1" y="29.27789" style="fill: #0d3b66; stroke: #0d3b66"/>
     <use xlink:href="#me984cdf2ac" x="5.262955" y="29.115452" style="fill: #0d3b66; stroke: #0d3b66"/>
     <use xlink:href="#me984cdf2ac" x="-1" y="29.128617" style="fill: #0d3b66; stroke: #0d3b66"/>
     <use xlink:href="#me984cdf2ac" x="-1" y="42.7411" style="fill: #0d3b66; stroke: #0d3b66"/>
     <use xlink:href="#me984cdf2ac" x="3.321853" y="43.336454" style="fill: #0d3b66; stroke: #0d3b66"/>
     <use xlink:href="#me984cdf2ac" x="-1" y="43.324308" style="fill: #0d3b66; stroke: #0d3b66"/>
     <use xlink:href="#me984cdf2ac" x="-1" y="46.824156" style="fill: #0d3b66; stroke: #0d3b66"/>
     <use xlink:href="#me984cdf2ac" x="149.119865" y="48.060332" style="fill: #0d3b66; stroke: #0d3b66"/>
     <use xlink:href="#me984cdf2ac" x="-1" y="47.979641" style="fill: #0d3b66; stroke: #0d3b66"/>
     <use xlink:href="#me984cdf2ac" x="-1" y="47.643759" style="fill: #0d3b66; stroke: #0d3b66"/>
     <use xlink:href="#me984cdf2ac" x="107.753554" y="47.693987" style="fill: #0d3b66; stroke: #0d3b66"/>
     <use xlink:href="#me984cdf2ac" x="-1" y="47.931021" style="fill: #0d3b66; stroke: #0d3b66"/>
     <use xlink:href="#me984cdf2ac" x="-1" y="76.562293" style="fill: #0d3b66; stroke: #0d3b66"/>
     <use xlink:href="#me984cdf2ac" x="118.739326" y="54.882495" style="fill: #0d3b66; stroke: #0d3b66"/>
     <use xlink:href="#me984cdf2ac" x="136.399713" y="54.50288" style="fill: #0d3b66; stroke: #0d3b66"/>
     <use xlink:href="#me984cdf2ac" x="-1" y="44.597196" style="fill: #0d3b66; stroke: #0d3b66"/>
     <use xlink:href="#me984cdf2ac" x="-1" y="74.315476" style="fill: #0d3b66; stroke: #0d3b66"/>
     <use xlink:href="#me984cdf2ac" x="137.221853" y="107.773914" style="fill: #0d3b66; stroke: #0d3b66"/>
     <use xlink:href="#me984cdf2ac" x="-1" y="102.868998" style="fill: #0d3b66; stroke: #0d3b66"/>
     <use xlink:href="#me984cdf2ac" x="-1" y="105.417673" style="fill: #0d3b66; stroke: #0d3b66"/>
     <use xlink:href="#me984cdf2ac" x="107.202375" y="106.883689" style="fill: #0d3b66; stroke: #0d3b66"/>
     <use xlink:href="#me984cdf2ac" x="157.066556" y="108.799584" style="fill: #0d3b66; stroke: #0d3b66"/>
     <use xlink:href="#me984cdf2ac" x="-1" y="103.111045" style="fill: #0d3b66; stroke: #0d3b66"/>
    </g>
   </g>
   <g id="line2d_27">
    <defs>
     <path id="m98265d6ecc" d="M 0 1.5 
C 0.397805 1.5 0.77937 1.341951 1.06066 1.06066 
C 1.341951 0.77937 1.5 0.397805 1.5 0 
C 1.5 -0.397805 1.341951 -0.77937 1.06066 -1.06066 
C 0.77937 -1.341951 0.397805 -1.5 0 -1.5 
C -0.397805 -1.5 -0.77937 -1.341951 -1.06066 -1.06066 
C -1.341951 -0.77937 -1.5 -0.397805 -1.5 0 
C -1.5 0.397805 -1.341951 0.77937 -1.06066 1.06066 
C -0.77937 1.341951 -0.397805 1.5 0 1.5 
z
" style="stroke: #0e9595"/>
    </defs>
    <g clip-path="url(#pbbf9a3e506)">
     <use xlink:href="#m98265d6ecc" x="-1" y="50.599636" style="fill: #0e9595; stroke: #0e9595"/>
     <use xlink:href="#m98265d6ecc" x="134.666774" y="87.393845" style="fill: #0e9595; stroke: #0e9595"/>
     <use xlink:href="#m98265d6ecc" x="180.673504" y="97.511069" style="fill: #0e9595; stroke: #0e9595"/>
     <use xlink:href="#m98265d6ecc" x="-1" y="109.14682" style="fill: #0e9595; stroke: #0e9595"/>
     <use xlink:href="#m98265d6ecc" x="-1" y="109.155688" style="fill: #0e9595; stroke: #0e9595"/>
     <use xlink:href="#m98265d6ecc" x="153.209106" y="99.340236" style="fill: #0e9595; stroke: #0e9595"/>
     <use xlink:href="#m98265d6ecc" x="3.321853" y="122.991413" style="fill: #0e9595; stroke: #0e9595"/>
     <use xlink:href="#m98265d6ecc" x="85.803707" y="65.596558" style="fill: #0e9595; stroke: #0e9595"/>
     <use xlink:href="#m98265d6ecc" x="164.918661" y="109.057308" style="fill: #0e9595; stroke: #0e9595"/>
     <use xlink:href="#m98265d6ecc" x="132.800405" y="44.664924" style="fill: #0e9595; stroke: #0e9595"/>
     <use xlink:href="#m98265d6ecc" x="112.890946" y="121.831431" style="fill: #0e9595; stroke: #0e9595"/>
     <use xlink:href="#m98265d6ecc" x="165.175286" y="93.50155" style="fill: #0e9595; stroke: #0e9595"/>
     <use xlink:href="#m98265d6ecc" x="151.921149" y="79.427972" style="fill: #0e9595; stroke: #0e9595"/>
     <use xlink:href="#m98265d6ecc" x="-1" y="64.462757" style="fill: #0e9595; stroke: #0e9595"/>
     <use xlink:href="#m98265d6ecc" x="-1" y="94.594912" style="fill: #0e9595; stroke: #0e9595"/>
     <use xlink:href="#m98265d6ecc" x="155.972348" y="110.87273" style="fill: #0e9595; stroke: #0e9595"/>
     <use xlink:href="#m98265d6ecc" x="-1" y="93.907542" style="fill: #0e9595; stroke: #0e9595"/>
     <use xlink:href="#m98265d6ecc" x="-1" y="101.128283" style="fill: #0e9595; stroke: #0e9595"/>
     <use xlink:href="#m98265d6ecc" x="135.548719" y="113.495783" style="fill: #0e9595; stroke: #0e9595"/>
     <use xlink:href="#m98265d6ecc" x="160.702729" y="111.445997" style="fill: #0e9595; stroke: #0e9595"/>
     <use xlink:href="#m98265d6ecc" x="-1" y="83.107111" style="fill: #0e9595; stroke: #0e9595"/>
     <use xlink:href="#m98265d6ecc" x="-1" y="113.884339" style="fill: #0e9595; stroke: #0e9595"/>
     <use xlink:href="#m98265d6ecc" x="130.778331" y="116.915678" style="fill: #0e9595; stroke: #0e9595"/>
     <use xlink:href="#m98265d6ecc" x="-1" y="115.867206" style="fill: #0e9595; stroke: #0e9595"/>
     <use xlink:href="#m98265d6ecc" x="-1" y="91.606861" style="fill: #0e9595; stroke: #0e9595"/>
     <use xlink:href="#m98265d6ecc" x="130.778331" y="79.501115" style="fill: #0e9595; stroke: #0e9595"/>
     <use xlink:href="#m98265d6ecc" x="75.970842" y="65.175118" style="fill: #0e9595; stroke: #0e9595"/>
     <use xlink:href="#m98265d6ecc" x="64.572865" y="56.687077" style="fill: #0e9595; stroke: #0e9595"/>
     <use xlink:href="#m98265d6ecc" x="152.787342" y="58.126116" style="fill: #0e9595; stroke: #0e9595"/>
     <use xlink:href="#m98265d6ecc" x="47.763471" y="60.278915" style="fill: #0e9595; stroke: #0e9595"/>
     <use xlink:href="#m98265d6ecc" x="-1" y="62.171864" style="fill: #0e9595; stroke: #0e9595"/>
     <use xlink:href="#m98265d6ecc" x="-1" y="97.381853" style="fill: #0e9595; stroke: #0e9595"/>
     <use xlink:href="#m98265d6ecc" x="141.643302" y="104.089666" style="fill: #0e9595; stroke: #0e9595"/>
     <use xlink:href="#m98265d6ecc" x="144.797198" y="92.231051" style="fill: #0e9595; stroke: #0e9595"/>
     <use xlink:href="#m98265d6ecc" x="93.770202" y="99.407053" style="fill: #0e9595; stroke: #0e9595"/>
     <use xlink:href="#m98265d6ecc" x="154.432096" y="87.365304" style="fill: #0e9595; stroke: #0e9595"/>
     <use xlink:href="#m98265d6ecc" x="158.113517" y="98.565201" style="fill: #0e9595; stroke: #0e9595"/>
     <use xlink:href="#m98265d6ecc" x="106.922015" y="58.935649" style="fill: #0e9595; stroke: #0e9595"/>
     <use xlink:href="#m98265d6ecc" x="168.730542" y="59.326072" style="fill: #0e9595; stroke: #0e9595"/>
     <use xlink:href="#m98265d6ecc" x="130.778331" y="89.423344" style="fill: #0e9595; stroke: #0e9595"/>
     <use xlink:href="#m98265d6ecc" x="-1" y="49.647343" style="fill: #0e9595; stroke: #0e9595"/>
     <use xlink:href="#m98265d6ecc" x="-1" y="43.56793" style="fill: #0e9595; stroke: #0e9595"/>
     <use xlink:href="#m98265d6ecc" x="130.778331" y="70.807725" style="fill: #0e9595; stroke: #0e9595"/>
     <use xlink:href="#m98265d6ecc" x="-1" y="72.425853" style="fill: #0e9595; stroke: #0e9595"/>
     <use xlink:href="#m98265d6ecc" x="-1" y="105.207433" style="fill: #0e9595; stroke: #0e9595"/>
     <use xlink:href="#m98265d6ecc" x="81.382258" y="108.035995" style="fill: #0e9595; stroke: #0e9595"/>
     <use xlink:href="#m98265d6ecc" x="68.994313" y="28.351482" style="fill: #0e9595; stroke: #0e9595"/>
     <use xlink:href="#m98265d6ecc" x="-1" y="47.437729" style="fill: #0e9595; stroke: #0e9595"/>
     <use xlink:href="#m98265d6ecc" x="-1" y="55.553718" style="fill: #0e9595; stroke: #0e9595"/>
     <use xlink:href="#m98265d6ecc" x="101.929933" y="38.338831" style="fill: #0e9595; stroke: #0e9595"/>
     <use xlink:href="#m98265d6ecc" x="85.803707" y="109.326175" style="fill: #0e9595; stroke: #0e9595"/>
     <use xlink:href="#m98265d6ecc" x="93.770202" y="88.67926" style="fill: #0e9595; stroke: #0e9595"/>
     <use xlink:href="#m98265d6ecc" x="72.732595" y="36.752532" style="fill: #0e9595; stroke: #0e9595"/>
     <use xlink:href="#m98265d6ecc" x="-1" y="37.713982" style="fill: #0e9595; stroke: #0e9595"/>
     <use xlink:href="#m98265d6ecc" x="-1" y="42.650256" style="fill: #0e9595; stroke: #0e9595"/>
     <use xlink:href="#m98265d6ecc" x="52.717927" y="40.28043" style="fill: #0e9595; stroke: #0e9595"/>
     <use xlink:href="#m98265d6ecc" x="-1" y="40.130029" style="fill: #0e9595; stroke: #0e9595"/>
     <use xlink:href="#m98265d6ecc" x="-1" y="28.978474" style="fill: #0e9595; stroke: #0e9595"/>
     <use xlink:href="#m98265d6ecc" x="34.830542" y="28.795209" style="fill: #0e9595; stroke: #0e9595"/>
     <use xlink:href="#m98265d6ecc" x="70.305488" y="30.177259" style="fill: #0e9595; stroke: #0e9595"/>
     <use xlink:href="#m98265d6ecc" x="-1" y="25.846477" style="fill: #0e9595; stroke: #0e9595"/>
     <use xlink:href="#m98265d6ecc" x="-1" y="67.089924" style="fill: #0e9595; stroke: #0e9595"/>
     <use xlink:href="#m98265d6ecc" x="101.226961" y="41.08392" style="fill: #0e9595; stroke: #0e9595"/>
     <use xlink:href="#m98265d6ecc" x="32.519191" y="71.049401" style="fill: #0e9595; stroke: #0e9595"/>
     <use xlink:href="#m98265d6ecc" x="98.191651" y="61.11633" style="fill: #0e9595; stroke: #0e9595"/>
     <use xlink:href="#m98265d6ecc" x="49.023538" y="27.615711" style="fill: #0e9595; stroke: #0e9595"/>
     <use xlink:href="#m98265d6ecc" x="-1" y="26.438694" style="fill: #0e9595; stroke: #0e9595"/>
     <use xlink:href="#m98265d6ecc" x="-1" y="42.626318" style="fill: #0e9595; stroke: #0e9595"/>
     <use xlink:href="#m98265d6ecc" x="87.744809" y="109.0756" style="fill: #0e9595; stroke: #0e9595"/>
     <use xlink:href="#m98265d6ecc" x="-1" y="106.858705" style="fill: #0e9595; stroke: #0e9595"/>
     <use xlink:href="#m98265d6ecc" x="-1" y="47.476192" style="fill: #0e9595; stroke: #0e9595"/>
     <use xlink:href="#m98265d6ecc" x="153.62366" y="49.150996" style="fill: #0e9595; stroke: #0e9595"/>
     <use xlink:href="#m98265d6ecc" x="-1" y="51.101977" style="fill: #0e9595; stroke: #0e9595"/>
     <use xlink:href="#m98265d6ecc" x="-1" y="51.364811" style="fill: #0e9595; stroke: #0e9595"/>
     <use xlink:href="#m98265d6ecc" x="168.730542" y="49.244057" style="fill: #0e9595; stroke: #0e9595"/>
     <use xlink:href="#m98265d6ecc" x="-1" y="55.836266" style="fill: #0e9595; stroke: #0e9595"/>
     <use xlink:href="#m98265d6ecc" x="-1" y="87.540875" style="fill: #0e9595; stroke: #0e9595"/>
     <use xlink:href="#m98265d6ecc" x="49.328584" y="87.187582" style="fill: #0e9595; stroke: #0e9595"/>
     <use xlink:href="#m98265d6ecc" x="-1" y="93.959125" style="fill: #0e9595; stroke: #0e9595"/>
     <use xlink:href="#m98265d6ecc" x="-1" y="89.971949" style="fill: #0e9595; stroke: #0e9595"/>
     <use xlink:href="#m98265d6ecc" x="183.228584" y="52.05335" style="fill: #0e9595; stroke: #0e9595"/>
     <use xlink:href="#m98265d6ecc" x="146.509733" y="58.285566" style="fill: #0e9595; stroke: #0e9595"/>
     <use xlink:href="#m98265d6ecc" x="105.469436" y="98.034837" style="fill: #0e9595; stroke: #0e9595"/>
     <use xlink:href="#m98265d6ecc" x="106.060949" y="123.532045" style="fill: #0e9595; stroke: #0e9595"/>
     <use xlink:href="#m98265d6ecc" x="37.440674" y="26.315677" style="fill: #0e9595; stroke: #0e9595"/>
     <use xlink:href="#m98265d6ecc" x="133.751539" y="74.273709" style="fill: #0e9595; stroke: #0e9595"/>
     <use xlink:href="#m98265d6ecc" x="-1" y="71.269787" style="fill: #0e9595; stroke: #0e9595"/>
     <use xlink:href="#m98265d6ecc" x="-1" y="106.943261" style="fill: #0e9595; stroke: #0e9595"/>
     <use xlink:href="#m98265d6ecc" x="94.250432" y="108.468335" style="fill: #0e9595; stroke: #0e9595"/>
     <use xlink:href="#m98265d6ecc" x="154.432096" y="108.279205" style="fill: #0e9595; stroke: #0e9595"/>
     <use xlink:href="#m98265d6ecc" x="-1" y="100.781138" style="fill: #0e9595; stroke: #0e9595"/>
     <use xlink:href="#m98265d6ecc" x="-1" y="99.355331" style="fill: #0e9595; stroke: #0e9595"/>
     <use xlink:href="#m98265d6ecc" x="132.800405" y="105.679776" style="fill: #0e9595; stroke: #0e9595"/>
     <use xlink:href="#m98265d6ecc" x="140.960135" y="114.071084" style="fill: #0e9595; stroke: #0e9595"/>
     <use xlink:href="#m98265d6ecc" x="-1" y="110.477401" style="fill: #0e9595; stroke: #0e9595"/>
     <use xlink:href="#m98265d6ecc" x="-1" y="68.930784" style="fill: #0e9595; stroke: #0e9595"/>
     <use xlink:href="#m98265d6ecc" x="81.382258" y="81.205105" style="fill: #0e9595; stroke: #0e9595"/>
     <use xlink:href="#m98265d6ecc" x="-1" y="61.280755" style="fill: #0e9595; stroke: #0e9595"/>
     <use xlink:href="#m98265d6ecc" x="-1" y="44.417136" style="fill: #0e9595; stroke: #0e9595"/>
     <use xlink:href="#m98265d6ecc" x="110.579595" y="68.291898" style="fill: #0e9595; stroke: #0e9595"/>
    </g>
   </g>
   <g id="patch_3">
    <path d="M 54.74 163.94875 
L 54.74 17.28 
" style="fill: none; stroke: #000000; stroke-width: 0.8; stroke-linejoin: miter; stroke-linecap: square"/>
   </g>
   <g id="patch_4">
    <path d="M 188.64 163.94875 
L 188.64 17.28 
" style="fill: none; stroke: #000000; stroke-width: 0.8; stroke-linejoin: miter; stroke-linecap: square"/>
   </g>
   <g id="patch_5">
    <path d="M 54.74 163.94875 
L 188.64 163.94875 
" style="fill: none; stroke: #000000; stroke-width: 0.8; stroke-linejoin: miter; stroke-linecap: square"/>
   </g>
   <g id="patch_6">
    <path d="M 54.74 17.28 
L 188.64 17.28 
" style="fill: none; stroke: #000000; stroke-width: 0.8; stroke-linejoin: miter; stroke-linecap: square"/>
   </g>
  </g>
 </g>
 <defs>
  <clipPath id="pbbf9a3e506">
   <rect x="54.74" y="17.28" width="133.9" height="146.66875"/>
  </clipPath>
 </defs>
</svg>
