<?xml version="1.0" encoding="utf-8" standalone="no"?>
<!DOCTYPE svg PUBLIC "-//W3C//DTD SVG 1.1//EN"
  "http://www.w3.org/Graphics/SVG/1.1/DTD/svg11.dtd">
<svg xmlns:xlink="http://www.w3.org/1999/xlink" width="324pt" height="288pt" viewBox="0 0 324 288" xmlns="http://www.w3.org/2000/svg" version="1.1">
 <metadata>
  <rdf:RDF xmlns:dc="http://purl.org/dc/elements/1.1/" xmlns:cc="http://creativecommons.org/ns#" xmlns:rdf="http://www.w3.org/1999/02/22-rdf-syntax-ns#">
   <cc:Work>
    <dc:type rdf:resource="http://purl.org/dc/dcmitype/StillImage"/>
    <dc:date>2023-04-30T17:10:06.554180</dc:date>
    <dc:format>image/svg+xml</dc:format>
    <dc:creator>
     <cc:Agent>
      <dc:title>Matplotlib v3.7.1, https://matplotlib.org/</dc:title>
     </cc:Agent>
    </dc:creator>
   </cc:Work>
  </rdf:RDF>
 </metadata>
 <defs>
  <style type="text/css">*{stroke-linejoin: round; stroke-linecap: butt}</style>
 </defs>
 <g id="figure_1">
  <g id="patch_1">
   <path d="M 0 288 
L 324 288 
L 324 0 
L 0 0 
z
" style="fill: #ffffff"/>
  </g>
  <g id="axes_1">
   <g id="patch_2">
    <path d="M 58.7 235.96 
L 299.07 235.96 
L 299.07 20.16 
L 58.7 20.16 
z
" style="fill: #ffffff"/>
   </g>
   <g id="matplotlib.axis_1">
    <g id="xtick_1">
     <g id="line2d_1">
      <defs>
       <path id="md586850da2" d="M 0 0 
L 0 3.5 
" style="stroke: #000000; stroke-width: 0.8"/>
      </defs>
      <g>
       <use xlink:href="#md586850da2" x="58.7" y="235.96" style="stroke: #000000; stroke-width: 0.8"/>
      </g>
     </g>
     <g id="text_1">
      <!-- 0.0 -->
      <g transform="translate(48.97 252.980938) scale(0.14 -0.14)">
       <defs>
        <path id="ArialMT-30" d="M 266 2259 
Q 266 3072 433 3567 
Q 600 4063 929 4331 
Q 1259 4600 1759 4600 
Q 2128 4600 2406 4451 
Q 2684 4303 2865 4023 
Q 3047 3744 3150 3342 
Q 3253 2941 3253 2259 
Q 3253 1453 3087 958 
Q 2922 463 2592 192 
Q 2263 -78 1759 -78 
Q 1097 -78 719 397 
Q 266 969 266 2259 
z
M 844 2259 
Q 844 1131 1108 757 
Q 1372 384 1759 384 
Q 2147 384 2411 759 
Q 2675 1134 2675 2259 
Q 2675 3391 2411 3762 
Q 2147 4134 1753 4134 
Q 1366 4134 1134 3806 
Q 844 3388 844 2259 
z
" transform="scale(0.015625)"/>
        <path id="ArialMT-2e" d="M 581 0 
L 581 641 
L 1222 641 
L 1222 0 
L 581 0 
z
" transform="scale(0.015625)"/>
       </defs>
       <use xlink:href="#ArialMT-30"/>
       <use xlink:href="#ArialMT-2e" x="55.615234"/>
       <use xlink:href="#ArialMT-30" x="83.398438"/>
      </g>
     </g>
    </g>
    <g id="xtick_2">
     <g id="line2d_2">
      <g>
       <use xlink:href="#md586850da2" x="106.774" y="235.96" style="stroke: #000000; stroke-width: 0.8"/>
      </g>
     </g>
     <g id="text_2">
      <!-- 0.2 -->
      <g transform="translate(97.044 252.980938) scale(0.14 -0.14)">
       <defs>
        <path id="ArialMT-32" d="M 3222 541 
L 3222 0 
L 194 0 
Q 188 203 259 391 
Q 375 700 629 1000 
Q 884 1300 1366 1694 
Q 2113 2306 2375 2664 
Q 2638 3022 2638 3341 
Q 2638 3675 2398 3904 
Q 2159 4134 1775 4134 
Q 1369 4134 1125 3890 
Q 881 3647 878 3216 
L 300 3275 
Q 359 3922 746 4261 
Q 1134 4600 1788 4600 
Q 2447 4600 2831 4234 
Q 3216 3869 3216 3328 
Q 3216 3053 3103 2787 
Q 2991 2522 2730 2228 
Q 2469 1934 1863 1422 
Q 1356 997 1212 845 
Q 1069 694 975 541 
L 3222 541 
z
" transform="scale(0.015625)"/>
       </defs>
       <use xlink:href="#ArialMT-30"/>
       <use xlink:href="#ArialMT-2e" x="55.615234"/>
       <use xlink:href="#ArialMT-32" x="83.398438"/>
      </g>
     </g>
    </g>
    <g id="xtick_3">
     <g id="line2d_3">
      <g>
       <use xlink:href="#md586850da2" x="154.848" y="235.96" style="stroke: #000000; stroke-width: 0.8"/>
      </g>
     </g>
     <g id="text_3">
      <!-- 0.4 -->
      <g transform="translate(145.118 252.980938) scale(0.14 -0.14)">
       <defs>
        <path id="ArialMT-34" d="M 2069 0 
L 2069 1097 
L 81 1097 
L 81 1613 
L 2172 4581 
L 2631 4581 
L 2631 1613 
L 3250 1613 
L 3250 1097 
L 2631 1097 
L 2631 0 
L 2069 0 
z
M 2069 1613 
L 2069 3678 
L 634 1613 
L 2069 1613 
z
" transform="scale(0.015625)"/>
       </defs>
       <use xlink:href="#ArialMT-30"/>
       <use xlink:href="#ArialMT-2e" x="55.615234"/>
       <use xlink:href="#ArialMT-34" x="83.398438"/>
      </g>
     </g>
    </g>
    <g id="xtick_4">
     <g id="line2d_4">
      <g>
       <use xlink:href="#md586850da2" x="202.922" y="235.96" style="stroke: #000000; stroke-width: 0.8"/>
      </g>
     </g>
     <g id="text_4">
      <!-- 0.6 -->
      <g transform="translate(193.192 252.980938) scale(0.14 -0.14)">
       <defs>
        <path id="ArialMT-36" d="M 3184 3459 
L 2625 3416 
Q 2550 3747 2413 3897 
Q 2184 4138 1850 4138 
Q 1581 4138 1378 3988 
Q 1113 3794 959 3422 
Q 806 3050 800 2363 
Q 1003 2672 1297 2822 
Q 1591 2972 1913 2972 
Q 2475 2972 2870 2558 
Q 3266 2144 3266 1488 
Q 3266 1056 3080 686 
Q 2894 316 2569 119 
Q 2244 -78 1831 -78 
Q 1128 -78 684 439 
Q 241 956 241 2144 
Q 241 3472 731 4075 
Q 1159 4600 1884 4600 
Q 2425 4600 2770 4297 
Q 3116 3994 3184 3459 
z
M 888 1484 
Q 888 1194 1011 928 
Q 1134 663 1356 523 
Q 1578 384 1822 384 
Q 2178 384 2434 671 
Q 2691 959 2691 1453 
Q 2691 1928 2437 2201 
Q 2184 2475 1800 2475 
Q 1419 2475 1153 2201 
Q 888 1928 888 1484 
z
" transform="scale(0.015625)"/>
       </defs>
       <use xlink:href="#ArialMT-30"/>
       <use xlink:href="#ArialMT-2e" x="55.615234"/>
       <use xlink:href="#ArialMT-36" x="83.398438"/>
      </g>
     </g>
    </g>
    <g id="xtick_5">
     <g id="line2d_5">
      <g>
       <use xlink:href="#md586850da2" x="250.996" y="235.96" style="stroke: #000000; stroke-width: 0.8"/>
      </g>
     </g>
     <g id="text_5">
      <!-- 0.8 -->
      <g transform="translate(241.266 252.980938) scale(0.14 -0.14)">
       <defs>
        <path id="ArialMT-38" d="M 1131 2484 
Q 781 2613 612 2850 
Q 444 3088 444 3419 
Q 444 3919 803 4259 
Q 1163 4600 1759 4600 
Q 2359 4600 2725 4251 
Q 3091 3903 3091 3403 
Q 3091 3084 2923 2848 
Q 2756 2613 2416 2484 
Q 2838 2347 3058 2040 
Q 3278 1734 3278 1309 
Q 3278 722 2862 322 
Q 2447 -78 1769 -78 
Q 1091 -78 675 323 
Q 259 725 259 1325 
Q 259 1772 486 2073 
Q 713 2375 1131 2484 
z
M 1019 3438 
Q 1019 3113 1228 2906 
Q 1438 2700 1772 2700 
Q 2097 2700 2305 2904 
Q 2513 3109 2513 3406 
Q 2513 3716 2298 3927 
Q 2084 4138 1766 4138 
Q 1444 4138 1231 3931 
Q 1019 3725 1019 3438 
z
M 838 1322 
Q 838 1081 952 856 
Q 1066 631 1291 507 
Q 1516 384 1775 384 
Q 2178 384 2440 643 
Q 2703 903 2703 1303 
Q 2703 1709 2433 1975 
Q 2163 2241 1756 2241 
Q 1359 2241 1098 1978 
Q 838 1716 838 1322 
z
" transform="scale(0.015625)"/>
       </defs>
       <use xlink:href="#ArialMT-30"/>
       <use xlink:href="#ArialMT-2e" x="55.615234"/>
       <use xlink:href="#ArialMT-38" x="83.398438"/>
      </g>
     </g>
    </g>
    <g id="xtick_6">
     <g id="line2d_6">
      <g>
       <use xlink:href="#md586850da2" x="299.07" y="235.96" style="stroke: #000000; stroke-width: 0.8"/>
      </g>
     </g>
     <g id="text_6">
      <!-- 1.0 -->
      <g transform="translate(289.34 252.980938) scale(0.14 -0.14)">
       <defs>
        <path id="ArialMT-31" d="M 2384 0 
L 1822 0 
L 1822 3584 
Q 1619 3391 1289 3197 
Q 959 3003 697 2906 
L 697 3450 
Q 1169 3672 1522 3987 
Q 1875 4303 2022 4600 
L 2384 4600 
L 2384 0 
z
" transform="scale(0.015625)"/>
       </defs>
       <use xlink:href="#ArialMT-31"/>
       <use xlink:href="#ArialMT-2e" x="55.615234"/>
       <use xlink:href="#ArialMT-30" x="83.398438"/>
      </g>
     </g>
    </g>
    <g id="text_7">
     <!-- prediction confidence -->
     <g transform="translate(112.735 269.955) scale(0.14 -0.14)">
      <defs>
       <path id="ArialMT-70" d="M 422 -1272 
L 422 3319 
L 934 3319 
L 934 2888 
Q 1116 3141 1344 3267 
Q 1572 3394 1897 3394 
Q 2322 3394 2647 3175 
Q 2972 2956 3137 2557 
Q 3303 2159 3303 1684 
Q 3303 1175 3120 767 
Q 2938 359 2589 142 
Q 2241 -75 1856 -75 
Q 1575 -75 1351 44 
Q 1128 163 984 344 
L 984 -1272 
L 422 -1272 
z
M 931 1641 
Q 931 1000 1190 694 
Q 1450 388 1819 388 
Q 2194 388 2461 705 
Q 2728 1022 2728 1688 
Q 2728 2322 2467 2637 
Q 2206 2953 1844 2953 
Q 1484 2953 1207 2617 
Q 931 2281 931 1641 
z
" transform="scale(0.015625)"/>
       <path id="ArialMT-72" d="M 416 0 
L 416 3319 
L 922 3319 
L 922 2816 
Q 1116 3169 1280 3281 
Q 1444 3394 1641 3394 
Q 1925 3394 2219 3213 
L 2025 2691 
Q 1819 2813 1613 2813 
Q 1428 2813 1281 2702 
Q 1134 2591 1072 2394 
Q 978 2094 978 1738 
L 978 0 
L 416 0 
z
" transform="scale(0.015625)"/>
       <path id="ArialMT-65" d="M 2694 1069 
L 3275 997 
Q 3138 488 2766 206 
Q 2394 -75 1816 -75 
Q 1088 -75 661 373 
Q 234 822 234 1631 
Q 234 2469 665 2931 
Q 1097 3394 1784 3394 
Q 2450 3394 2872 2941 
Q 3294 2488 3294 1666 
Q 3294 1616 3291 1516 
L 816 1516 
Q 847 969 1125 678 
Q 1403 388 1819 388 
Q 2128 388 2347 550 
Q 2566 713 2694 1069 
z
M 847 1978 
L 2700 1978 
Q 2663 2397 2488 2606 
Q 2219 2931 1791 2931 
Q 1403 2931 1139 2672 
Q 875 2413 847 1978 
z
" transform="scale(0.015625)"/>
       <path id="ArialMT-64" d="M 2575 0 
L 2575 419 
Q 2259 -75 1647 -75 
Q 1250 -75 917 144 
Q 584 363 401 755 
Q 219 1147 219 1656 
Q 219 2153 384 2558 
Q 550 2963 881 3178 
Q 1213 3394 1622 3394 
Q 1922 3394 2156 3267 
Q 2391 3141 2538 2938 
L 2538 4581 
L 3097 4581 
L 3097 0 
L 2575 0 
z
M 797 1656 
Q 797 1019 1065 703 
Q 1334 388 1700 388 
Q 2069 388 2326 689 
Q 2584 991 2584 1609 
Q 2584 2291 2321 2609 
Q 2059 2928 1675 2928 
Q 1300 2928 1048 2622 
Q 797 2316 797 1656 
z
" transform="scale(0.015625)"/>
       <path id="ArialMT-69" d="M 425 3934 
L 425 4581 
L 988 4581 
L 988 3934 
L 425 3934 
z
M 425 0 
L 425 3319 
L 988 3319 
L 988 0 
L 425 0 
z
" transform="scale(0.015625)"/>
       <path id="ArialMT-63" d="M 2588 1216 
L 3141 1144 
Q 3050 572 2676 248 
Q 2303 -75 1759 -75 
Q 1078 -75 664 370 
Q 250 816 250 1647 
Q 250 2184 428 2587 
Q 606 2991 970 3192 
Q 1334 3394 1763 3394 
Q 2303 3394 2647 3120 
Q 2991 2847 3088 2344 
L 2541 2259 
Q 2463 2594 2264 2762 
Q 2066 2931 1784 2931 
Q 1359 2931 1093 2626 
Q 828 2322 828 1663 
Q 828 994 1084 691 
Q 1341 388 1753 388 
Q 2084 388 2306 591 
Q 2528 794 2588 1216 
z
" transform="scale(0.015625)"/>
       <path id="ArialMT-74" d="M 1650 503 
L 1731 6 
Q 1494 -44 1306 -44 
Q 1000 -44 831 53 
Q 663 150 594 308 
Q 525 466 525 972 
L 525 2881 
L 113 2881 
L 113 3319 
L 525 3319 
L 525 4141 
L 1084 4478 
L 1084 3319 
L 1650 3319 
L 1650 2881 
L 1084 2881 
L 1084 941 
Q 1084 700 1114 631 
Q 1144 563 1211 522 
Q 1278 481 1403 481 
Q 1497 481 1650 503 
z
" transform="scale(0.015625)"/>
       <path id="ArialMT-6f" d="M 213 1659 
Q 213 2581 725 3025 
Q 1153 3394 1769 3394 
Q 2453 3394 2887 2945 
Q 3322 2497 3322 1706 
Q 3322 1066 3130 698 
Q 2938 331 2570 128 
Q 2203 -75 1769 -75 
Q 1072 -75 642 372 
Q 213 819 213 1659 
z
M 791 1659 
Q 791 1022 1069 705 
Q 1347 388 1769 388 
Q 2188 388 2466 706 
Q 2744 1025 2744 1678 
Q 2744 2294 2464 2611 
Q 2184 2928 1769 2928 
Q 1347 2928 1069 2612 
Q 791 2297 791 1659 
z
" transform="scale(0.015625)"/>
       <path id="ArialMT-6e" d="M 422 0 
L 422 3319 
L 928 3319 
L 928 2847 
Q 1294 3394 1984 3394 
Q 2284 3394 2536 3286 
Q 2788 3178 2913 3003 
Q 3038 2828 3088 2588 
Q 3119 2431 3119 2041 
L 3119 0 
L 2556 0 
L 2556 2019 
Q 2556 2363 2490 2533 
Q 2425 2703 2258 2804 
Q 2091 2906 1866 2906 
Q 1506 2906 1245 2678 
Q 984 2450 984 1813 
L 984 0 
L 422 0 
z
" transform="scale(0.015625)"/>
       <path id="ArialMT-20" transform="scale(0.015625)"/>
       <path id="ArialMT-66" d="M 556 0 
L 556 2881 
L 59 2881 
L 59 3319 
L 556 3319 
L 556 3672 
Q 556 4006 616 4169 
Q 697 4388 901 4523 
Q 1106 4659 1475 4659 
Q 1713 4659 2000 4603 
L 1916 4113 
Q 1741 4144 1584 4144 
Q 1328 4144 1222 4034 
Q 1116 3925 1116 3625 
L 1116 3319 
L 1763 3319 
L 1763 2881 
L 1116 2881 
L 1116 0 
L 556 0 
z
" transform="scale(0.015625)"/>
      </defs>
      <use xlink:href="#ArialMT-70"/>
      <use xlink:href="#ArialMT-72" x="55.615234"/>
      <use xlink:href="#ArialMT-65" x="88.916016"/>
      <use xlink:href="#ArialMT-64" x="144.53125"/>
      <use xlink:href="#ArialMT-69" x="200.146484"/>
      <use xlink:href="#ArialMT-63" x="222.363281"/>
      <use xlink:href="#ArialMT-74" x="272.363281"/>
      <use xlink:href="#ArialMT-69" x="300.146484"/>
      <use xlink:href="#ArialMT-6f" x="322.363281"/>
      <use xlink:href="#ArialMT-6e" x="377.978516"/>
      <use xlink:href="#ArialMT-20" x="433.59375"/>
      <use xlink:href="#ArialMT-63" x="461.376953"/>
      <use xlink:href="#ArialMT-6f" x="511.376953"/>
      <use xlink:href="#ArialMT-6e" x="566.992188"/>
      <use xlink:href="#ArialMT-66" x="622.607422"/>
      <use xlink:href="#ArialMT-69" x="650.390625"/>
      <use xlink:href="#ArialMT-64" x="672.607422"/>
      <use xlink:href="#ArialMT-65" x="728.222656"/>
      <use xlink:href="#ArialMT-6e" x="783.837891"/>
      <use xlink:href="#ArialMT-63" x="839.453125"/>
      <use xlink:href="#ArialMT-65" x="889.453125"/>
     </g>
    </g>
   </g>
   <g id="matplotlib.axis_2">
    <g id="ytick_1">
     <g id="line2d_7">
      <defs>
       <path id="m0e6dd72810" d="M 0 0 
L -3.5 0 
" style="stroke: #000000; stroke-width: 0.8"/>
      </defs>
      <g>
       <use xlink:href="#m0e6dd72810" x="58.7" y="235.96" style="stroke: #000000; stroke-width: 0.8"/>
      </g>
     </g>
     <g id="text_8">
      <!-- 0.0 -->
      <g transform="translate(32.24 240.970469) scale(0.14 -0.14)">
       <use xlink:href="#ArialMT-30"/>
       <use xlink:href="#ArialMT-2e" x="55.615234"/>
       <use xlink:href="#ArialMT-30" x="83.398438"/>
      </g>
     </g>
    </g>
    <g id="ytick_2">
     <g id="line2d_8">
      <g>
       <use xlink:href="#m0e6dd72810" x="58.7" y="192.8" style="stroke: #000000; stroke-width: 0.8"/>
      </g>
     </g>
     <g id="text_9">
      <!-- 0.2 -->
      <g transform="translate(32.24 197.810469) scale(0.14 -0.14)">
       <use xlink:href="#ArialMT-30"/>
       <use xlink:href="#ArialMT-2e" x="55.615234"/>
       <use xlink:href="#ArialMT-32" x="83.398438"/>
      </g>
     </g>
    </g>
    <g id="ytick_3">
     <g id="line2d_9">
      <g>
       <use xlink:href="#m0e6dd72810" x="58.7" y="149.64" style="stroke: #000000; stroke-width: 0.8"/>
      </g>
     </g>
     <g id="text_10">
      <!-- 0.4 -->
      <g transform="translate(32.24 154.650469) scale(0.14 -0.14)">
       <use xlink:href="#ArialMT-30"/>
       <use xlink:href="#ArialMT-2e" x="55.615234"/>
       <use xlink:href="#ArialMT-34" x="83.398438"/>
      </g>
     </g>
    </g>
    <g id="ytick_4">
     <g id="line2d_10">
      <g>
       <use xlink:href="#m0e6dd72810" x="58.7" y="106.48" style="stroke: #000000; stroke-width: 0.8"/>
      </g>
     </g>
     <g id="text_11">
      <!-- 0.6 -->
      <g transform="translate(32.24 111.490469) scale(0.14 -0.14)">
       <use xlink:href="#ArialMT-30"/>
       <use xlink:href="#ArialMT-2e" x="55.615234"/>
       <use xlink:href="#ArialMT-36" x="83.398438"/>
      </g>
     </g>
    </g>
    <g id="ytick_5">
     <g id="line2d_11">
      <g>
       <use xlink:href="#m0e6dd72810" x="58.7" y="63.32" style="stroke: #000000; stroke-width: 0.8"/>
      </g>
     </g>
     <g id="text_12">
      <!-- 0.8 -->
      <g transform="translate(32.24 68.330469) scale(0.14 -0.14)">
       <use xlink:href="#ArialMT-30"/>
       <use xlink:href="#ArialMT-2e" x="55.615234"/>
       <use xlink:href="#ArialMT-38" x="83.398438"/>
      </g>
     </g>
    </g>
    <g id="ytick_6">
     <g id="line2d_12">
      <g>
       <use xlink:href="#m0e6dd72810" x="58.7" y="20.16" style="stroke: #000000; stroke-width: 0.8"/>
      </g>
     </g>
     <g id="text_13">
      <!-- 1.0 -->
      <g transform="translate(32.24 25.170469) scale(0.14 -0.14)">
       <use xlink:href="#ArialMT-31"/>
       <use xlink:href="#ArialMT-2e" x="55.615234"/>
       <use xlink:href="#ArialMT-30" x="83.398438"/>
      </g>
     </g>
    </g>
    <g id="text_14">
     <!-- correct prediction probability -->
     <g transform="translate(25.293437 215.595) rotate(-90) scale(0.14 -0.14)">
      <defs>
       <path id="ArialMT-62" d="M 941 0 
L 419 0 
L 419 4581 
L 981 4581 
L 981 2947 
Q 1338 3394 1891 3394 
Q 2197 3394 2470 3270 
Q 2744 3147 2920 2923 
Q 3097 2700 3197 2384 
Q 3297 2069 3297 1709 
Q 3297 856 2875 390 
Q 2453 -75 1863 -75 
Q 1275 -75 941 416 
L 941 0 
z
M 934 1684 
Q 934 1088 1097 822 
Q 1363 388 1816 388 
Q 2184 388 2453 708 
Q 2722 1028 2722 1663 
Q 2722 2313 2464 2622 
Q 2206 2931 1841 2931 
Q 1472 2931 1203 2611 
Q 934 2291 934 1684 
z
" transform="scale(0.015625)"/>
       <path id="ArialMT-61" d="M 2588 409 
Q 2275 144 1986 34 
Q 1697 -75 1366 -75 
Q 819 -75 525 192 
Q 231 459 231 875 
Q 231 1119 342 1320 
Q 453 1522 633 1644 
Q 813 1766 1038 1828 
Q 1203 1872 1538 1913 
Q 2219 1994 2541 2106 
Q 2544 2222 2544 2253 
Q 2544 2597 2384 2738 
Q 2169 2928 1744 2928 
Q 1347 2928 1158 2789 
Q 969 2650 878 2297 
L 328 2372 
Q 403 2725 575 2942 
Q 747 3159 1072 3276 
Q 1397 3394 1825 3394 
Q 2250 3394 2515 3294 
Q 2781 3194 2906 3042 
Q 3031 2891 3081 2659 
Q 3109 2516 3109 2141 
L 3109 1391 
Q 3109 606 3145 398 
Q 3181 191 3288 0 
L 2700 0 
Q 2613 175 2588 409 
z
M 2541 1666 
Q 2234 1541 1622 1453 
Q 1275 1403 1131 1340 
Q 988 1278 909 1158 
Q 831 1038 831 891 
Q 831 666 1001 516 
Q 1172 366 1500 366 
Q 1825 366 2078 508 
Q 2331 650 2450 897 
Q 2541 1088 2541 1459 
L 2541 1666 
z
" transform="scale(0.015625)"/>
       <path id="ArialMT-6c" d="M 409 0 
L 409 4581 
L 972 4581 
L 972 0 
L 409 0 
z
" transform="scale(0.015625)"/>
       <path id="ArialMT-79" d="M 397 -1278 
L 334 -750 
Q 519 -800 656 -800 
Q 844 -800 956 -737 
Q 1069 -675 1141 -563 
Q 1194 -478 1313 -144 
Q 1328 -97 1363 -6 
L 103 3319 
L 709 3319 
L 1400 1397 
Q 1534 1031 1641 628 
Q 1738 1016 1872 1384 
L 2581 3319 
L 3144 3319 
L 1881 -56 
Q 1678 -603 1566 -809 
Q 1416 -1088 1222 -1217 
Q 1028 -1347 759 -1347 
Q 597 -1347 397 -1278 
z
" transform="scale(0.015625)"/>
      </defs>
      <use xlink:href="#ArialMT-63"/>
      <use xlink:href="#ArialMT-6f" x="50"/>
      <use xlink:href="#ArialMT-72" x="105.615234"/>
      <use xlink:href="#ArialMT-72" x="138.916016"/>
      <use xlink:href="#ArialMT-65" x="172.216797"/>
      <use xlink:href="#ArialMT-63" x="227.832031"/>
      <use xlink:href="#ArialMT-74" x="277.832031"/>
      <use xlink:href="#ArialMT-20" x="305.615234"/>
      <use xlink:href="#ArialMT-70" x="333.398438"/>
      <use xlink:href="#ArialMT-72" x="389.013672"/>
      <use xlink:href="#ArialMT-65" x="422.314453"/>
      <use xlink:href="#ArialMT-64" x="477.929688"/>
      <use xlink:href="#ArialMT-69" x="533.544922"/>
      <use xlink:href="#ArialMT-63" x="555.761719"/>
      <use xlink:href="#ArialMT-74" x="605.761719"/>
      <use xlink:href="#ArialMT-69" x="633.544922"/>
      <use xlink:href="#ArialMT-6f" x="655.761719"/>
      <use xlink:href="#ArialMT-6e" x="711.376953"/>
      <use xlink:href="#ArialMT-20" x="766.992188"/>
      <use xlink:href="#ArialMT-70" x="794.775391"/>
      <use xlink:href="#ArialMT-72" x="850.390625"/>
      <use xlink:href="#ArialMT-6f" x="883.691406"/>
      <use xlink:href="#ArialMT-62" x="939.306641"/>
      <use xlink:href="#ArialMT-61" x="994.921875"/>
      <use xlink:href="#ArialMT-62" x="1050.537109"/>
      <use xlink:href="#ArialMT-69" x="1106.152344"/>
      <use xlink:href="#ArialMT-6c" x="1128.369141"/>
      <use xlink:href="#ArialMT-69" x="1150.585938"/>
      <use xlink:href="#ArialMT-74" x="1172.802734"/>
      <use xlink:href="#ArialMT-79" x="1200.585938"/>
     </g>
    </g>
   </g>
   <g id="line2d_13">
    <path d="M 58.7 235.917116 
L 63.531558 235.437282 
L 69.571005 234.693644 
L 71.986784 234.489613 
L 80.44201 233.115742 
L 82.857789 232.655365 
L 85.273568 232.544723 
L 91.313015 231.924235 
L 94.936683 231.049265 
L 100.976131 230.295091 
L 102.18402 230.026779 
L 103.39191 229.946507 
L 104.599799 230.055295 
L 105.807688 229.93122 
L 108.223467 229.429494 
L 110.639246 228.559408 
L 111.847136 228.324561 
L 113.055025 228.304684 
L 117.886583 227.542303 
L 120.302362 226.911288 
L 122.718141 226.679915 
L 126.341809 225.768739 
L 128.757588 225.575294 
L 129.965477 225.215634 
L 131.173367 224.973821 
L 132.381256 225.059012 
L 133.589146 224.905846 
L 134.797035 224.348923 
L 136.004925 223.974909 
L 137.212814 223.87167 
L 138.420704 223.45076 
L 140.836482 223.115448 
L 142.044372 223.237946 
L 145.66804 222.420933 
L 146.87593 222.29608 
L 149.291709 221.763421 
L 150.499598 221.526826 
L 151.707487 221.511845 
L 154.123266 221.102581 
L 156.539045 220.389154 
L 157.746935 220.003436 
L 160.162714 218.207496 
L 161.370603 218.249199 
L 162.578492 218.004952 
L 166.202161 217.815713 
L 168.61794 216.885347 
L 169.825829 215.895344 
L 171.033719 215.789258 
L 172.241608 215.1587 
L 173.449497 214.775735 
L 175.865276 213.479085 
L 177.073166 213.268114 
L 178.281055 213.688355 
L 179.488945 213.48175 
L 180.696834 213.567962 
L 183.112613 212.824898 
L 185.528392 211.517379 
L 186.736281 211.556577 
L 187.944171 211.246047 
L 189.15206 210.616624 
L 191.567839 209.945582 
L 192.775729 209.423558 
L 193.983618 208.294748 
L 195.191508 206.945625 
L 196.399397 206.061968 
L 197.607286 204.911048 
L 198.815176 204.534075 
L 200.023065 204.541527 
L 202.438844 204.219574 
L 204.854623 203.562637 
L 206.062513 202.564009 
L 207.270402 201.727088 
L 208.478291 200.747084 
L 209.686181 200.307291 
L 210.89407 199.330525 
L 212.10196 199.407012 
L 213.309849 199.971807 
L 214.517739 200.082175 
L 216.933518 198.232253 
L 218.141407 196.650428 
L 219.349296 195.815812 
L 220.557186 194.35822 
L 221.765075 193.839566 
L 222.972965 193.758684 
L 224.180854 192.375661 
L 225.388744 191.85083 
L 226.596633 191.639849 
L 227.804523 190.807558 
L 229.012412 190.187819 
L 230.220302 189.0854 
L 231.428191 188.439615 
L 232.63608 187.511535 
L 233.84397 185.504164 
L 236.259749 183.529479 
L 237.467638 182.276316 
L 238.675528 180.699427 
L 239.883417 179.576511 
L 241.091307 179.547592 
L 242.299196 179.006161 
L 243.507085 178.201636 
L 244.714975 177.617274 
L 245.922864 176.587217 
L 247.130754 175.09347 
L 248.338643 173.222392 
L 249.546533 171.723761 
L 250.754422 170.836098 
L 251.962312 169.408829 
L 253.170201 167.43065 
L 254.37809 166.641303 
L 256.793869 163.559197 
L 258.001759 162.201269 
L 259.209648 159.679536 
L 260.417538 158.414006 
L 261.625427 156.541467 
L 262.833317 152.967648 
L 264.041206 151.405601 
L 265.249095 149.630307 
L 266.456985 147.273184 
L 267.664874 145.589589 
L 270.080653 143.006927 
L 271.288543 141.109466 
L 274.912211 131.105918 
L 276.120101 126.719403 
L 277.32799 123.243494 
L 278.535879 121.394332 
L 279.743769 118.827503 
L 282.159548 111.543581 
L 289.406884 86.011729 
L 293.030553 66.644303 
L 295.446332 50.817164 
L 297.862111 32.777415 
L 299.07 22.931349 
L 299.07 22.931349 
" clip-path="url(#pacba2a5a2b)" style="fill: none; stroke: #1f77b4; stroke-width: 1.5; stroke-linecap: square"/>
   </g>
   <g id="line2d_14">
    <path d="M 58.7 235.925902 
L 61.115779 235.749524 
L 69.571005 234.826133 
L 71.986784 234.665135 
L 74.402563 234.458476 
L 80.44201 233.926536 
L 82.857789 233.624946 
L 85.273568 233.462028 
L 87.689347 233.0492 
L 88.897236 232.9789 
L 91.313015 232.685526 
L 94.936683 232.43169 
L 96.144573 232.090352 
L 102.18402 231.651105 
L 103.39191 231.717285 
L 105.807688 231.415655 
L 108.223467 230.763085 
L 114.262915 230.137128 
L 115.470804 230.200749 
L 116.678693 229.940316 
L 117.886583 229.955491 
L 120.302362 229.573373 
L 121.510251 229.067359 
L 122.718141 228.847141 
L 123.92603 228.424164 
L 125.13392 228.340921 
L 126.341809 228.033989 
L 127.549698 228.008336 
L 128.757588 227.659316 
L 129.965477 227.44951 
L 132.381256 227.323804 
L 136.004925 227.063038 
L 137.212814 226.927388 
L 138.420704 226.649279 
L 139.628593 226.626483 
L 140.836482 226.719169 
L 142.044372 226.345618 
L 143.252261 226.157139 
L 145.66804 225.472563 
L 146.87593 224.88093 
L 148.083819 224.535062 
L 149.291709 224.735283 
L 150.499598 224.61909 
L 151.707487 224.800281 
L 152.915377 224.445039 
L 155.331156 224.095086 
L 157.746935 222.976121 
L 158.954824 222.708909 
L 160.162714 222.101021 
L 161.370603 222.094607 
L 162.578492 221.613161 
L 163.786382 221.83389 
L 166.202161 221.835362 
L 167.41005 221.59092 
L 172.241608 220.083066 
L 173.449497 219.884571 
L 174.657387 219.538575 
L 177.073166 219.226071 
L 178.281055 218.852494 
L 181.904724 218.052757 
L 183.112613 217.507148 
L 184.320503 216.737911 
L 185.528392 216.225428 
L 186.736281 215.585073 
L 189.15206 214.917417 
L 190.35995 215.342443 
L 191.567839 215.097632 
L 192.775729 215.349328 
L 195.191508 214.390972 
L 196.399397 213.400193 
L 198.815176 211.939359 
L 201.230955 211.328201 
L 202.438844 211.68463 
L 203.646734 211.609223 
L 206.062513 210.880222 
L 208.478291 209.705484 
L 209.686181 209.034605 
L 210.89407 208.566082 
L 212.10196 208.314931 
L 214.517739 206.871161 
L 215.725628 206.698745 
L 216.933518 206.893216 
L 219.349296 205.645081 
L 221.765075 205.19941 
L 225.388744 202.747119 
L 226.596633 202.07036 
L 227.804523 200.960253 
L 229.012412 200.130586 
L 231.428191 197.99114 
L 232.63608 197.862958 
L 233.84397 197.556807 
L 235.051859 197.033609 
L 236.259749 196.306914 
L 237.467638 196.022398 
L 238.675528 195.337755 
L 239.883417 193.272278 
L 242.299196 191.445878 
L 243.507085 190.657392 
L 248.338643 185.836242 
L 249.546533 184.262265 
L 250.754422 183.820525 
L 251.962312 182.52161 
L 253.170201 180.788955 
L 255.58598 178.788521 
L 256.793869 177.248041 
L 258.001759 175.42409 
L 259.209648 174.233793 
L 260.417538 173.365966 
L 261.625427 171.721689 
L 262.833317 169.466218 
L 264.041206 167.799074 
L 265.249095 165.80706 
L 266.456985 163.265962 
L 267.664874 160.452076 
L 270.080653 155.960211 
L 272.496432 152.431486 
L 274.912211 146.058859 
L 276.120101 143.565374 
L 277.32799 140.446238 
L 278.535879 135.8054 
L 279.743769 132.547157 
L 280.951658 128.635015 
L 284.575327 109.78575 
L 288.198995 92.457895 
L 289.406884 89.128854 
L 290.614774 82.858277 
L 293.030553 67.045997 
L 294.238442 58.347428 
L 296.654221 37.556323 
L 297.862111 29.541016 
L 299.07 24.769084 
L 299.07 24.769084 
" clip-path="url(#pacba2a5a2b)" style="fill: none; stroke: #aec7e8; stroke-width: 1.5; stroke-linecap: square"/>
   </g>
   <g id="line2d_15">
    <path d="M 58.7 235.975061 
L 62.323668 235.629585 
L 68.363116 235.135471 
L 71.986784 234.917902 
L 74.402563 234.79728 
L 79.234121 234.339725 
L 84.065678 234.092139 
L 90.105126 233.296177 
L 92.520905 233.131699 
L 94.936683 233.2366 
L 96.144573 233.346164 
L 99.768241 232.804907 
L 102.18402 232.335288 
L 103.39191 232.134487 
L 104.599799 232.279634 
L 108.223467 232.105905 
L 109.431357 232.021022 
L 110.639246 232.177832 
L 111.847136 232.131321 
L 113.055025 231.797895 
L 114.262915 231.760367 
L 116.678693 231.079602 
L 119.094472 230.782035 
L 120.302362 230.998283 
L 122.718141 230.85129 
L 125.13392 230.746185 
L 126.341809 230.566515 
L 127.549698 230.513965 
L 128.757588 230.287388 
L 131.173367 230.280478 
L 132.381256 230.342797 
L 134.797035 229.773494 
L 137.212814 229.651649 
L 139.628593 229.25991 
L 140.836482 229.210877 
L 143.252261 228.218908 
L 144.460151 227.799078 
L 145.66804 227.682112 
L 146.87593 227.893387 
L 148.083819 227.728967 
L 149.291709 227.992885 
L 152.915377 227.432733 
L 155.331156 226.971676 
L 157.746935 226.737013 
L 158.954824 227.066035 
L 160.162714 226.988224 
L 161.370603 227.044768 
L 162.578492 226.71103 
L 163.786382 226.161569 
L 167.41005 225.157382 
L 171.033719 225.177546 
L 173.449497 224.947045 
L 174.657387 224.978597 
L 175.865276 224.696488 
L 177.073166 224.209256 
L 178.281055 223.921779 
L 179.488945 223.227562 
L 183.112613 222.826154 
L 184.320503 222.881292 
L 186.736281 222.481147 
L 187.944171 222.622727 
L 189.15206 222.395781 
L 190.35995 222.492074 
L 192.775729 221.77301 
L 193.983618 221.350016 
L 195.191508 220.738852 
L 197.607286 220.403387 
L 198.815176 220.120498 
L 200.023065 220.022133 
L 201.230955 219.648107 
L 203.646734 218.408829 
L 204.854623 217.519872 
L 207.270402 216.844024 
L 212.10196 216.793863 
L 213.309849 216.58766 
L 214.517739 215.763668 
L 215.725628 215.343005 
L 216.933518 214.772566 
L 218.141407 213.93406 
L 219.349296 213.281741 
L 221.765075 213.058894 
L 222.972965 213.150294 
L 224.180854 213.095903 
L 225.388744 212.719725 
L 226.596633 212.1847 
L 227.804523 210.780645 
L 229.012412 209.866468 
L 231.428191 209.162465 
L 232.63608 209.1753 
L 236.259749 208.132874 
L 237.467638 206.880485 
L 238.675528 206.116729 
L 239.883417 205.649308 
L 241.091307 204.93475 
L 242.299196 204.059542 
L 243.507085 202.670963 
L 244.714975 202.122831 
L 245.922864 201.098999 
L 247.130754 200.508301 
L 248.338643 200.371731 
L 250.754422 199.062823 
L 251.962312 197.910988 
L 253.170201 196.137729 
L 254.37809 194.564915 
L 255.58598 193.174865 
L 256.793869 192.718502 
L 258.001759 192.046936 
L 260.417538 190.108117 
L 261.625427 188.62344 
L 262.833317 186.757664 
L 264.041206 185.291938 
L 265.249095 183.501576 
L 266.456985 181.45185 
L 267.664874 179.180691 
L 268.872764 176.231386 
L 270.080653 173.587802 
L 272.496432 170.182254 
L 273.704322 168.812678 
L 274.912211 167.19016 
L 276.120101 164.292897 
L 277.32799 161.909713 
L 278.535879 158.774542 
L 280.951658 151.953453 
L 283.367437 143.064513 
L 286.991106 127.929651 
L 288.198995 122.12068 
L 289.406884 114.71894 
L 293.030553 89.19107 
L 295.446332 68.8874 
L 296.654221 57.023266 
L 297.862111 42.32755 
L 299.07 23.89565 
L 299.07 23.89565 
" clip-path="url(#pacba2a5a2b)" style="fill: none; stroke: #ff7f0e; stroke-width: 1.5; stroke-linecap: square"/>
   </g>
   <g id="line2d_16">
    <path d="M 58.7 235.962675 
L 62.323668 235.630929 
L 79.234121 234.472648 
L 81.649899 234.08609 
L 94.936683 233.228324 
L 97.352462 232.720528 
L 98.560352 232.42133 
L 103.39191 232.530975 
L 104.599799 232.415461 
L 109.431357 231.134474 
L 111.847136 231.02393 
L 114.262915 231.062448 
L 116.678693 231.475792 
L 119.094472 231.214709 
L 122.718141 230.207619 
L 123.92603 229.774974 
L 126.341809 229.98821 
L 132.381256 229.024199 
L 133.589146 228.559716 
L 134.797035 228.591327 
L 137.212814 228.269902 
L 138.420704 228.082504 
L 139.628593 228.245208 
L 140.836482 227.897103 
L 142.044372 227.987419 
L 143.252261 227.563711 
L 144.460151 227.435289 
L 145.66804 227.18715 
L 146.87593 227.140759 
L 148.083819 226.948066 
L 149.291709 226.642062 
L 150.499598 226.177172 
L 152.915377 225.821345 
L 155.331156 225.345636 
L 156.539045 225.380616 
L 157.746935 225.561254 
L 160.162714 224.969599 
L 164.994271 223.642542 
L 168.61794 224.041908 
L 171.033719 223.363876 
L 173.449497 221.990896 
L 178.281055 221.964993 
L 180.696834 221.198202 
L 181.904724 220.407101 
L 183.112613 220.10499 
L 184.320503 220.09113 
L 185.528392 220.244303 
L 186.736281 219.851525 
L 187.944171 219.615761 
L 191.567839 218.003668 
L 193.983618 217.608222 
L 195.191508 217.685372 
L 197.607286 217.295957 
L 198.815176 216.644431 
L 202.438844 215.642526 
L 203.646734 215.180567 
L 206.062513 214.673028 
L 210.89407 211.989221 
L 218.141407 209.743412 
L 220.557186 208.548641 
L 221.765075 207.782084 
L 222.972965 207.159539 
L 224.180854 206.731676 
L 225.388744 205.787102 
L 227.804523 204.764289 
L 229.012412 204.71995 
L 230.220302 204.014042 
L 235.051859 201.678553 
L 237.467638 199.832462 
L 238.675528 199.263319 
L 242.299196 197.016978 
L 243.507085 195.532766 
L 244.714975 194.48127 
L 245.922864 192.926926 
L 247.130754 191.837276 
L 248.338643 191.274081 
L 249.546533 191.147351 
L 250.754422 190.789131 
L 251.962312 190.286578 
L 254.37809 188.172036 
L 255.58598 187.098181 
L 256.793869 185.372631 
L 258.001759 183.265407 
L 259.209648 182.005656 
L 260.417538 180.221846 
L 261.625427 178.829782 
L 262.833317 178.036047 
L 265.249095 174.337692 
L 267.664874 169.261026 
L 268.872764 167.388448 
L 270.080653 164.805084 
L 271.288543 161.881504 
L 272.496432 159.98856 
L 273.704322 157.38161 
L 274.912211 155.408712 
L 276.120101 151.681546 
L 277.32799 149.388366 
L 278.535879 145.553276 
L 280.951658 135.302769 
L 282.159548 131.290762 
L 284.575327 124.719478 
L 285.783216 120.128797 
L 286.991106 117.373731 
L 289.406884 105.044949 
L 290.614774 98.345942 
L 293.030553 81.879143 
L 295.446332 61.214498 
L 296.654221 49.361451 
L 299.07 22.246593 
L 299.07 22.246593 
" clip-path="url(#pacba2a5a2b)" style="fill: none; stroke: #ffbb78; stroke-width: 1.5; stroke-linecap: square"/>
   </g>
   <g id="line2d_17">
    <path d="M 58.7 235.94896 
L 63.531558 235.723338 
L 70.778894 235.235907 
L 73.194673 235.034032 
L 75.610452 234.917993 
L 80.44201 234.331283 
L 82.857789 234.047672 
L 85.273568 233.784204 
L 88.897236 233.48477 
L 91.313015 233.498233 
L 92.520905 233.487429 
L 98.560352 232.625126 
L 99.768241 232.593498 
L 100.976131 232.723534 
L 104.599799 232.34819 
L 105.807688 232.025317 
L 107.015578 231.90105 
L 108.223467 231.582979 
L 110.639246 231.461622 
L 111.847136 231.212586 
L 113.055025 231.122258 
L 117.886583 230.118886 
L 123.92603 229.447656 
L 125.13392 229.472288 
L 126.341809 229.232681 
L 127.549698 229.166358 
L 129.965477 229.280043 
L 131.173367 228.886819 
L 133.589146 227.754452 
L 136.004925 227.298 
L 138.420704 227.378805 
L 139.628593 227.124478 
L 143.252261 226.043448 
L 144.460151 225.78833 
L 145.66804 225.388899 
L 146.87593 225.472282 
L 149.291709 225.281504 
L 151.707487 225.767932 
L 152.915377 225.584038 
L 156.539045 224.754307 
L 157.746935 224.144627 
L 160.162714 223.725108 
L 162.578492 223.7322 
L 164.994271 223.710589 
L 166.202161 223.266453 
L 169.825829 221.38718 
L 171.033719 221.200866 
L 172.241608 221.15546 
L 173.449497 220.989188 
L 174.657387 220.471703 
L 175.865276 219.748438 
L 178.281055 219.063247 
L 180.696834 219.260825 
L 183.112613 219.39586 
L 184.320503 219.100399 
L 185.528392 218.48771 
L 186.736281 218.391297 
L 187.944171 217.66867 
L 189.15206 217.187908 
L 190.35995 216.558418 
L 191.567839 216.563585 
L 192.775729 216.368396 
L 193.983618 215.999387 
L 195.191508 215.227105 
L 196.399397 214.760468 
L 197.607286 213.992437 
L 198.815176 213.38484 
L 200.023065 213.203259 
L 201.230955 213.463282 
L 202.438844 213.31187 
L 203.646734 212.425964 
L 204.854623 212.067294 
L 207.270402 211.221163 
L 208.478291 210.956349 
L 209.686181 211.147038 
L 210.89407 211.059689 
L 212.10196 210.851069 
L 213.309849 209.271398 
L 214.517739 208.386274 
L 215.725628 207.281316 
L 216.933518 206.878377 
L 218.141407 206.733225 
L 220.557186 205.951675 
L 221.765075 205.746439 
L 222.972965 204.323715 
L 224.180854 203.192483 
L 225.388744 202.417514 
L 226.596633 202.903623 
L 227.804523 202.757261 
L 229.012412 201.934243 
L 231.428191 201.13436 
L 233.84397 199.181016 
L 235.051859 197.604291 
L 236.259749 197.065066 
L 237.467638 196.190601 
L 238.675528 194.664062 
L 239.883417 193.759032 
L 241.091307 192.437757 
L 243.507085 192.483877 
L 244.714975 191.512452 
L 245.922864 191.546002 
L 247.130754 190.54278 
L 249.546533 187.951431 
L 250.754422 185.986075 
L 251.962312 185.28521 
L 253.170201 184.451738 
L 255.58598 181.874958 
L 256.793869 179.893016 
L 258.001759 178.647429 
L 259.209648 176.994581 
L 260.417538 176.171883 
L 261.625427 176.184426 
L 262.833317 175.450494 
L 264.041206 173.631822 
L 265.249095 171.229372 
L 266.456985 169.743801 
L 268.872764 165.167305 
L 270.080653 164.102685 
L 271.288543 162.21434 
L 272.496432 158.610812 
L 273.704322 155.379948 
L 274.912211 152.50523 
L 277.32799 147.870296 
L 278.535879 144.425613 
L 279.743769 141.456792 
L 280.951658 137.376217 
L 283.367437 131.547538 
L 284.575327 128.163311 
L 285.783216 124.115651 
L 286.991106 118.688216 
L 290.614774 98.426709 
L 291.822663 92.377009 
L 293.030553 85.141324 
L 294.238442 77.204995 
L 295.446332 67.575007 
L 296.654221 56.186303 
L 297.862111 42.7481 
L 299.07 26.969617 
L 299.07 26.969617 
" clip-path="url(#pacba2a5a2b)" style="fill: none; stroke: #2ca02c; stroke-width: 1.5; stroke-linecap: square"/>
   </g>
   <g id="line2d_18">
    <path d="M 58.7 235.951354 
L 67.155226 235.607531 
L 84.065678 234.511351 
L 91.313015 233.890595 
L 93.728794 233.709995 
L 94.936683 233.659935 
L 96.144573 233.456358 
L 97.352462 233.404559 
L 98.560352 233.525102 
L 100.976131 233.245391 
L 103.39191 233.228813 
L 105.807688 232.881696 
L 107.015578 232.701162 
L 108.223467 232.663189 
L 109.431357 232.460783 
L 111.847136 232.289259 
L 113.055025 232.057727 
L 116.678693 231.854027 
L 119.094472 231.866645 
L 120.302362 231.806853 
L 123.92603 230.93329 
L 125.13392 230.779768 
L 127.549698 230.629738 
L 128.757588 230.52909 
L 129.965477 230.701336 
L 131.173367 230.65691 
L 133.589146 230.044426 
L 138.420704 229.783502 
L 140.836482 229.841908 
L 142.044372 229.296014 
L 154.123266 227.51875 
L 158.954824 226.593379 
L 160.162714 226.398193 
L 161.370603 226.55348 
L 164.994271 226.558647 
L 166.202161 225.823766 
L 168.61794 224.578058 
L 171.033719 223.88361 
L 173.449497 224.438062 
L 174.657387 224.343499 
L 175.865276 223.642782 
L 178.281055 223.429785 
L 179.488945 223.126713 
L 180.696834 223.063284 
L 181.904724 223.19913 
L 184.320503 222.488559 
L 185.528392 221.762969 
L 187.944171 220.77095 
L 191.567839 219.829057 
L 193.983618 220.058459 
L 195.191508 219.932788 
L 197.607286 219.347608 
L 198.815176 219.236444 
L 200.023065 218.756843 
L 201.230955 218.482863 
L 203.646734 217.528851 
L 204.854623 217.16428 
L 206.062513 216.009177 
L 208.478291 214.999759 
L 209.686181 214.977218 
L 213.309849 214.16348 
L 214.517739 214.136315 
L 215.725628 212.627818 
L 216.933518 212.600182 
L 218.141407 211.530269 
L 220.557186 210.046533 
L 221.765075 209.270432 
L 222.972965 208.305337 
L 224.180854 208.434846 
L 225.388744 208.143055 
L 226.596633 208.472779 
L 227.804523 207.824008 
L 229.012412 207.369642 
L 230.220302 207.049173 
L 232.63608 205.312674 
L 233.84397 205.102613 
L 235.051859 205.030465 
L 236.259749 204.191444 
L 237.467638 202.849807 
L 238.675528 201.239799 
L 239.883417 199.969367 
L 241.091307 198.311057 
L 242.299196 196.256233 
L 243.507085 195.632934 
L 244.714975 195.501826 
L 245.922864 194.981375 
L 247.130754 194.159017 
L 248.338643 193.035917 
L 249.546533 192.877422 
L 250.754422 191.987086 
L 254.37809 188.783171 
L 256.793869 185.462875 
L 258.001759 182.681361 
L 259.209648 180.985311 
L 261.625427 176.771252 
L 262.833317 174.902398 
L 264.041206 173.313897 
L 265.249095 172.183873 
L 266.456985 170.570377 
L 268.872764 165.834427 
L 270.080653 162.951514 
L 271.288543 159.726443 
L 272.496432 157.957281 
L 273.704322 154.485346 
L 274.912211 152.129945 
L 277.32799 145.245237 
L 278.535879 140.64168 
L 279.743769 137.415029 
L 282.159548 129.373397 
L 283.367437 124.290951 
L 284.575327 119.839105 
L 285.783216 114.760093 
L 288.198995 102.988669 
L 289.406884 97.356902 
L 290.614774 90.096308 
L 294.238442 64.901577 
L 296.654221 45.626694 
L 299.07 23.992458 
L 299.07 23.992458 
" clip-path="url(#pacba2a5a2b)" style="fill: none; stroke: #98df8a; stroke-width: 1.5; stroke-linecap: square"/>
   </g>
   <g id="line2d_19">
    <path d="M 58.7 235.956524 
L 63.531558 235.748307 
L 69.571005 235.435882 
L 81.649899 234.924739 
L 82.857789 234.919381 
L 84.065678 234.751812 
L 92.520905 234.434363 
L 99.768241 233.698816 
L 102.18402 233.508707 
L 104.599799 233.139012 
L 108.223467 233.191484 
L 109.431357 233.318789 
L 110.639246 233.328897 
L 111.847136 233.079758 
L 113.055025 233.042586 
L 114.262915 233.139089 
L 115.470804 232.945174 
L 116.678693 232.948647 
L 117.886583 232.478968 
L 119.094472 232.458497 
L 121.510251 231.915642 
L 123.92603 232.168606 
L 126.341809 232.135752 
L 127.549698 231.968313 
L 128.757588 231.992786 
L 131.173367 231.665401 
L 133.589146 231.728488 
L 134.797035 231.76692 
L 137.212814 231.530228 
L 138.420704 231.511197 
L 142.044372 230.772665 
L 143.252261 230.662465 
L 144.460151 230.290351 
L 145.66804 229.795075 
L 146.87593 229.597107 
L 148.083819 229.538916 
L 149.291709 229.263158 
L 152.915377 229.582028 
L 154.123266 229.549083 
L 155.331156 229.110739 
L 157.746935 229.080547 
L 160.162714 228.86367 
L 162.578492 228.416026 
L 163.786382 228.337817 
L 164.994271 227.771362 
L 166.202161 227.921443 
L 167.41005 227.889472 
L 168.61794 227.590779 
L 169.825829 227.010623 
L 171.033719 226.769066 
L 172.241608 226.750648 
L 173.449497 226.536728 
L 175.865276 226.699528 
L 177.073166 226.625838 
L 178.281055 226.227035 
L 180.696834 226.056976 
L 183.112613 225.244238 
L 184.320503 225.227029 
L 185.528392 225.090674 
L 187.944171 225.316738 
L 189.15206 225.68256 
L 190.35995 225.292567 
L 191.567839 224.632491 
L 193.983618 223.875784 
L 195.191508 224.222982 
L 196.399397 224.267544 
L 198.815176 223.823612 
L 200.023065 223.019773 
L 201.230955 222.40167 
L 202.438844 222.031297 
L 203.646734 221.905935 
L 204.854623 222.236497 
L 206.062513 222.318183 
L 207.270402 222.541007 
L 208.478291 223.125611 
L 210.89407 222.60616 
L 212.10196 221.458879 
L 213.309849 220.671705 
L 214.517739 219.726968 
L 215.725628 219.186087 
L 216.933518 218.843623 
L 218.141407 219.167784 
L 219.349296 218.83317 
L 220.557186 218.720052 
L 221.765075 217.925043 
L 222.972965 217.477599 
L 224.180854 216.877759 
L 225.388744 215.639465 
L 226.596633 214.785221 
L 230.220302 213.756084 
L 231.428191 214.144838 
L 232.63608 213.939024 
L 233.84397 213.475095 
L 235.051859 212.159805 
L 236.259749 211.147595 
L 237.467638 209.905282 
L 238.675528 209.963125 
L 241.091307 210.673474 
L 243.507085 209.078282 
L 244.714975 207.804858 
L 245.922864 206.742737 
L 247.130754 205.917849 
L 248.338643 205.530723 
L 249.546533 205.334407 
L 251.962312 202.749513 
L 254.37809 201.407867 
L 255.58598 201.156526 
L 256.793869 199.835635 
L 258.001759 197.493666 
L 259.209648 196.281328 
L 260.417538 194.220885 
L 261.625427 192.66963 
L 262.833317 192.362967 
L 264.041206 191.826491 
L 265.249095 191.573771 
L 266.456985 190.939988 
L 267.664874 189.224615 
L 268.872764 188.369873 
L 271.288543 184.032004 
L 272.496432 181.890726 
L 273.704322 178.962964 
L 277.32799 173.082653 
L 278.535879 172.008051 
L 279.743769 169.623769 
L 280.951658 166.977498 
L 282.159548 162.338338 
L 284.575327 152.491771 
L 286.991106 144.161378 
L 288.198995 139.026528 
L 289.406884 132.915218 
L 290.614774 126.03814 
L 293.030553 107.366407 
L 294.238442 96.338067 
L 295.446332 83.998071 
L 296.654221 68.875536 
L 297.862111 50.144059 
L 299.07 26.977237 
L 299.07 26.977237 
" clip-path="url(#pacba2a5a2b)" style="fill: none; stroke: #d62728; stroke-width: 1.5; stroke-linecap: square"/>
   </g>
   <g id="line2d_20">
    <path d="M 58.7 235.912976 
L 74.402563 234.851324 
L 76.818342 234.542861 
L 79.234121 234.635422 
L 88.897236 234.241029 
L 91.313015 233.76844 
L 93.728794 233.516327 
L 96.144573 233.27047 
L 107.015578 232.542121 
L 109.431357 232.242963 
L 110.639246 232.206054 
L 113.055025 231.932943 
L 114.262915 231.923969 
L 116.678693 231.575256 
L 121.510251 231.255136 
L 123.92603 230.648614 
L 128.757588 229.820957 
L 133.589146 229.877228 
L 138.420704 228.789257 
L 139.628593 228.530579 
L 140.836482 228.546134 
L 143.252261 229.158693 
L 146.87593 228.018529 
L 148.083819 227.709018 
L 149.291709 227.180109 
L 150.499598 227.059021 
L 152.915377 227.197962 
L 154.123266 227.065888 
L 155.331156 226.770646 
L 156.539045 226.685004 
L 157.746935 226.359352 
L 158.954824 225.782135 
L 160.162714 225.677498 
L 161.370603 225.341831 
L 166.202161 225.238697 
L 167.41005 225.306691 
L 168.61794 225.084831 
L 169.825829 225.014823 
L 172.241608 224.170842 
L 174.657387 223.548044 
L 175.865276 223.413524 
L 177.073166 223.506662 
L 178.281055 223.4235 
L 180.696834 222.871597 
L 183.112613 222.555281 
L 184.320503 222.29261 
L 185.528392 222.215197 
L 186.736281 221.851618 
L 189.15206 221.271344 
L 190.35995 221.310717 
L 191.567839 221.225903 
L 193.983618 220.329873 
L 196.399397 219.070998 
L 197.607286 218.631572 
L 198.815176 217.922179 
L 200.023065 217.727007 
L 201.230955 217.209422 
L 203.646734 216.599819 
L 206.062513 216.295492 
L 207.270402 216.298 
L 208.478291 215.794388 
L 209.686181 215.544563 
L 210.89407 215.006895 
L 212.10196 214.796344 
L 214.517739 214.052486 
L 215.725628 213.344023 
L 216.933518 213.191611 
L 218.141407 212.675282 
L 221.765075 211.88042 
L 224.180854 210.465572 
L 225.388744 209.806756 
L 226.596633 209.373792 
L 227.804523 208.681535 
L 230.220302 207.530011 
L 231.428191 206.662235 
L 233.84397 204.595504 
L 235.051859 204.16609 
L 236.259749 204.278212 
L 237.467638 203.875774 
L 238.675528 203.796447 
L 239.883417 203.529683 
L 241.091307 202.914255 
L 242.299196 202.151801 
L 243.507085 201.215254 
L 245.922864 200.610591 
L 247.130754 199.647003 
L 248.338643 198.847394 
L 250.754422 195.374132 
L 251.962312 194.364006 
L 253.170201 193.038992 
L 254.37809 192.52247 
L 255.58598 191.193979 
L 256.793869 190.594704 
L 258.001759 189.709271 
L 259.209648 187.698894 
L 260.417538 186.041376 
L 261.625427 185.086676 
L 262.833317 183.280239 
L 264.041206 182.103316 
L 265.249095 179.928797 
L 266.456985 178.509666 
L 267.664874 176.441572 
L 270.080653 170.87729 
L 271.288543 168.911581 
L 272.496432 166.486997 
L 277.32799 158.97233 
L 278.535879 155.497474 
L 279.743769 151.363816 
L 282.159548 144.786883 
L 284.575327 136.935749 
L 285.783216 133.132495 
L 286.991106 129.699386 
L 290.614774 110.435053 
L 291.822663 103.479491 
L 293.030553 95.214594 
L 295.446332 75.894416 
L 296.654221 63.145122 
L 297.862111 46.687231 
L 299.07 25.497972 
L 299.07 25.497972 
" clip-path="url(#pacba2a5a2b)" style="fill: none; stroke: #ff9896; stroke-width: 1.5; stroke-linecap: square"/>
   </g>
   <g id="line2d_21">
    <path d="M 58.7 235.959182 
L 76.818342 235.214985 
L 85.273568 234.854489 
L 88.897236 234.525024 
L 94.936683 234.39665 
L 97.352462 234.164144 
L 99.768241 234.17704 
L 100.976131 233.966602 
L 111.847136 233.321438 
L 114.262915 233.295561 
L 115.470804 233.093497 
L 119.094472 232.960777 
L 121.510251 232.609761 
L 123.92603 232.88322 
L 128.757588 231.967982 
L 131.173367 231.713327 
L 133.589146 231.932321 
L 134.797035 231.924784 
L 138.420704 231.354704 
L 145.66804 230.917385 
L 149.291709 230.204968 
L 150.499598 230.452465 
L 151.707487 230.368757 
L 152.915377 230.469472 
L 154.123266 230.708401 
L 155.331156 230.747186 
L 156.539045 230.390003 
L 157.746935 229.636802 
L 160.162714 229.28483 
L 161.370603 228.955119 
L 162.578492 228.929113 
L 164.994271 229.113158 
L 166.202161 229.051128 
L 167.41005 228.771819 
L 168.61794 228.978165 
L 171.033719 228.474536 
L 172.241608 228.334731 
L 174.657387 227.364799 
L 175.865276 227.248594 
L 177.073166 227.006028 
L 181.904724 227.902499 
L 185.528392 227.047283 
L 186.736281 226.220868 
L 187.944171 225.618812 
L 190.35995 225.096827 
L 191.567839 224.66015 
L 195.191508 224.878707 
L 196.399397 224.739537 
L 198.815176 224.962537 
L 200.023065 224.737884 
L 201.230955 223.965468 
L 202.438844 223.978996 
L 207.270402 222.756419 
L 210.89407 222.112351 
L 212.10196 222.107351 
L 214.517739 221.391336 
L 216.933518 221.12278 
L 221.765075 218.779662 
L 222.972965 217.835828 
L 224.180854 217.25559 
L 225.388744 216.908398 
L 226.596633 217.286087 
L 229.012412 216.755504 
L 230.220302 216.665509 
L 232.63608 216.017006 
L 238.675528 213.017047 
L 239.883417 212.68167 
L 241.091307 211.708922 
L 242.299196 211.3563 
L 243.507085 210.259549 
L 244.714975 208.582768 
L 245.922864 207.667068 
L 248.338643 207.462446 
L 249.546533 208.39221 
L 250.754422 208.101738 
L 251.962312 206.811982 
L 254.37809 203.378665 
L 255.58598 202.237718 
L 256.793869 202.062287 
L 258.001759 201.167195 
L 259.209648 201.463074 
L 260.417538 199.949383 
L 261.625427 198.233943 
L 262.833317 196.980229 
L 264.041206 196.076358 
L 265.249095 194.23504 
L 266.456985 193.318888 
L 267.664874 191.540165 
L 268.872764 190.714228 
L 270.080653 189.486853 
L 273.704322 183.749041 
L 274.912211 181.483132 
L 277.32799 177.60515 
L 278.535879 175.743798 
L 279.743769 173.296139 
L 280.951658 170.380589 
L 284.575327 159.292032 
L 286.991106 150.728426 
L 290.614774 135.057424 
L 291.822663 127.366777 
L 293.030553 118.756172 
L 294.238442 108.666425 
L 295.446332 96.027902 
L 296.654221 79.658287 
L 297.862111 58.550143 
L 299.07 31.696035 
L 299.07 31.696035 
" clip-path="url(#pacba2a5a2b)" style="fill: none; stroke: #9467bd; stroke-width: 1.5; stroke-linecap: square"/>
   </g>
   <g id="line2d_22">
    <path d="M 58.7 235.937592 
L 63.531558 235.597202 
L 69.571005 235.084605 
L 76.818342 234.584897 
L 80.44201 234.078897 
L 81.649899 233.825034 
L 85.273568 233.558023 
L 92.520905 232.843025 
L 93.728794 232.548983 
L 94.936683 232.427862 
L 98.560352 231.776305 
L 100.976131 231.689712 
L 102.18402 231.62896 
L 103.39191 231.299064 
L 104.599799 231.166223 
L 105.807688 230.753332 
L 109.431357 230.482519 
L 111.847136 230.508417 
L 115.470804 229.643989 
L 116.678693 229.511509 
L 119.094472 228.887947 
L 120.302362 228.945717 
L 121.510251 228.690835 
L 125.13392 228.303903 
L 127.549698 227.789703 
L 128.757588 227.380844 
L 129.965477 227.09114 
L 131.173367 226.542553 
L 132.381256 226.375246 
L 133.589146 226.007982 
L 136.004925 225.80284 
L 137.212814 225.523716 
L 138.420704 225.50774 
L 139.628593 225.777771 
L 142.044372 225.285945 
L 143.252261 224.810181 
L 144.460151 224.464028 
L 146.87593 223.160152 
L 152.915377 222.505843 
L 154.123266 222.349563 
L 155.331156 221.939878 
L 156.539045 221.811603 
L 158.954824 220.780694 
L 161.370603 220.528663 
L 163.786382 220.214606 
L 164.994271 219.831927 
L 168.61794 218.405528 
L 169.825829 218.191689 
L 171.033719 217.678262 
L 172.241608 217.484947 
L 173.449497 216.889464 
L 174.657387 216.440826 
L 175.865276 215.870781 
L 177.073166 216.105159 
L 179.488945 215.845291 
L 181.904724 215.042378 
L 183.112613 213.984222 
L 184.320503 213.554549 
L 185.528392 212.928852 
L 186.736281 212.778512 
L 187.944171 212.351517 
L 189.15206 211.518746 
L 191.567839 210.704778 
L 192.775729 210.203384 
L 193.983618 210.3514 
L 195.191508 209.953765 
L 196.399397 209.697631 
L 197.607286 209.099521 
L 198.815176 207.878332 
L 200.023065 207.253625 
L 201.230955 206.382437 
L 203.646734 206.033417 
L 204.854623 205.462339 
L 207.270402 205.184483 
L 208.478291 204.298404 
L 209.686181 203.589737 
L 210.89407 203.058362 
L 212.10196 203.017127 
L 213.309849 202.572449 
L 214.517739 201.322956 
L 215.725628 200.893338 
L 216.933518 200.782107 
L 218.141407 199.347761 
L 219.349296 198.648161 
L 220.557186 198.670435 
L 221.765075 198.199249 
L 222.972965 196.944585 
L 224.180854 195.369661 
L 226.596633 193.077108 
L 227.804523 191.288483 
L 230.220302 189.730598 
L 231.428191 188.315512 
L 236.259749 186.757319 
L 238.675528 184.733916 
L 239.883417 184.246083 
L 241.091307 182.970745 
L 242.299196 182.65677 
L 243.507085 180.202566 
L 244.714975 178.567203 
L 245.922864 177.427356 
L 247.130754 175.989917 
L 248.338643 175.59637 
L 249.546533 175.847874 
L 251.962312 173.555061 
L 253.170201 170.728862 
L 254.37809 169.224343 
L 255.58598 167.383596 
L 256.793869 166.201745 
L 258.001759 165.454936 
L 259.209648 164.237418 
L 261.625427 162.144389 
L 262.833317 160.386011 
L 264.041206 158.397718 
L 265.249095 155.262201 
L 266.456985 153.525897 
L 267.664874 150.800115 
L 268.872764 148.732511 
L 270.080653 146.061146 
L 271.288543 144.647762 
L 273.704322 138.759064 
L 274.912211 136.20888 
L 276.120101 134.892234 
L 277.32799 132.039394 
L 278.535879 129.964747 
L 279.743769 125.193851 
L 280.951658 121.685358 
L 282.159548 115.791243 
L 284.575327 106.463859 
L 285.783216 102.459606 
L 286.991106 98.004174 
L 288.198995 93.047783 
L 290.614774 80.957704 
L 295.446332 50.248427 
L 297.862111 32.720353 
L 299.07 23.209363 
L 299.07 23.209363 
" clip-path="url(#pacba2a5a2b)" style="fill: none; stroke: #c5b0d5; stroke-width: 1.5; stroke-linecap: square"/>
   </g>
   <g id="line2d_23">
    <path d="M 58.7 235.93543 
L 73.194673 235.200287 
L 81.649899 234.718355 
L 84.065678 234.561556 
L 86.481457 234.321545 
L 87.689347 234.250955 
L 90.105126 233.90723 
L 94.936683 233.689501 
L 98.560352 233.624659 
L 99.768241 233.341653 
L 102.18402 233.187806 
L 108.223467 232.766238 
L 110.639246 232.437597 
L 111.847136 232.50801 
L 119.094472 231.442857 
L 120.302362 231.352393 
L 121.510251 231.48285 
L 125.13392 231.314961 
L 126.341809 231.274657 
L 129.965477 230.476538 
L 136.004925 230.164451 
L 137.212814 229.849118 
L 138.420704 229.662467 
L 139.628593 229.262329 
L 140.836482 229.190494 
L 144.460151 229.294912 
L 145.66804 229.194179 
L 150.499598 227.768699 
L 152.915377 227.794902 
L 154.123266 227.67859 
L 155.331156 227.718203 
L 157.746935 227.043518 
L 161.370603 226.814528 
L 163.786382 226.980675 
L 164.994271 226.862097 
L 166.202161 226.517625 
L 167.41005 226.05602 
L 171.033719 225.131921 
L 173.449497 225.122977 
L 174.657387 224.629793 
L 175.865276 224.524622 
L 177.073166 224.233959 
L 178.281055 224.2475 
L 179.488945 223.975881 
L 180.696834 223.506411 
L 183.112613 223.533483 
L 186.736281 222.36842 
L 187.944171 221.905392 
L 189.15206 221.066354 
L 190.35995 220.463729 
L 191.567839 220.46962 
L 193.983618 221.287667 
L 195.191508 221.47 
L 196.399397 221.098339 
L 197.607286 220.381842 
L 198.815176 219.472699 
L 200.023065 218.990549 
L 201.230955 218.288249 
L 204.854623 217.754625 
L 206.062513 217.18057 
L 207.270402 216.749646 
L 208.478291 216.042951 
L 209.686181 216.124986 
L 210.89407 215.780129 
L 212.10196 215.689534 
L 213.309849 215.440717 
L 214.517739 214.849508 
L 216.933518 213.385638 
L 218.141407 212.362098 
L 219.349296 212.387686 
L 220.557186 211.90282 
L 221.765075 211.989666 
L 222.972965 211.868919 
L 224.180854 211.390468 
L 225.388744 210.602942 
L 226.596633 209.570153 
L 227.804523 208.707121 
L 231.428191 208.106307 
L 235.051859 206.370092 
L 237.467638 203.978431 
L 238.675528 203.048867 
L 239.883417 202.26479 
L 241.091307 201.152637 
L 242.299196 200.226945 
L 243.507085 199.081246 
L 244.714975 199.277621 
L 245.922864 198.859205 
L 248.338643 197.508524 
L 249.546533 196.509917 
L 251.962312 193.622519 
L 253.170201 191.980638 
L 254.37809 190.582092 
L 255.58598 189.585272 
L 258.001759 187.03151 
L 259.209648 185.476725 
L 260.417538 183.375859 
L 261.625427 182.191865 
L 262.833317 181.692482 
L 264.041206 179.855608 
L 265.249095 178.887954 
L 266.456985 176.765981 
L 268.872764 170.932272 
L 270.080653 167.255702 
L 271.288543 165.339426 
L 274.912211 157.909809 
L 276.120101 155.530446 
L 277.32799 153.56099 
L 278.535879 150.421617 
L 279.743769 146.897844 
L 280.951658 143.749892 
L 282.159548 138.683843 
L 285.783216 125.925051 
L 286.991106 121.346512 
L 289.406884 108.349349 
L 290.614774 101.107413 
L 293.030553 84.586853 
L 294.238442 75.476381 
L 295.446332 64.728922 
L 296.654221 52.830427 
L 299.07 25.64535 
L 299.07 25.64535 
" clip-path="url(#pacba2a5a2b)" style="fill: none; stroke: #8c564b; stroke-width: 1.5; stroke-linecap: square"/>
   </g>
   <g id="line2d_24">
    <path d="M 58.7 235.899498 
L 67.155226 235.395858 
L 73.194673 234.944575 
L 76.818342 234.930631 
L 79.234121 234.914679 
L 84.065678 234.254216 
L 87.689347 233.86049 
L 90.105126 233.714397 
L 92.520905 233.46386 
L 99.768241 233.152118 
L 105.807688 232.443008 
L 108.223467 232.320438 
L 109.431357 232.40276 
L 117.886583 231.106627 
L 125.13392 230.56728 
L 129.965477 229.891201 
L 133.589146 229.640234 
L 136.004925 229.055734 
L 137.212814 228.984303 
L 139.628593 228.468391 
L 142.044372 228.354067 
L 143.252261 228.051686 
L 145.66804 227.80591 
L 146.87593 227.778553 
L 149.291709 227.324716 
L 150.499598 227.32251 
L 151.707487 227.076415 
L 152.915377 226.547025 
L 154.123266 226.35359 
L 155.331156 226.022996 
L 156.539045 225.86676 
L 158.954824 225.310001 
L 161.370603 225.253347 
L 162.578492 225.141397 
L 163.786382 224.87482 
L 164.994271 224.353809 
L 166.202161 224.123571 
L 167.41005 223.658393 
L 169.825829 223.294811 
L 172.241608 223.116382 
L 173.449497 222.801427 
L 174.657387 222.35828 
L 175.865276 222.302051 
L 177.073166 221.706598 
L 179.488945 221.36813 
L 181.904724 220.936691 
L 184.320503 220.20181 
L 185.528392 220.122561 
L 186.736281 219.589907 
L 189.15206 219.294131 
L 191.567839 218.865649 
L 192.775729 218.458036 
L 195.191508 218.191988 
L 197.607286 216.951334 
L 198.815176 216.828741 
L 200.023065 216.299056 
L 201.230955 216.386128 
L 202.438844 215.673765 
L 204.854623 214.9551 
L 206.062513 214.386463 
L 207.270402 214.073973 
L 208.478291 213.904573 
L 210.89407 213.266599 
L 213.309849 211.336793 
L 214.517739 210.720363 
L 216.933518 210.973354 
L 218.141407 210.98137 
L 219.349296 211.110838 
L 220.557186 210.922552 
L 221.765075 210.246748 
L 222.972965 208.818813 
L 226.596633 206.458314 
L 229.012412 204.4693 
L 231.428191 202.776142 
L 233.84397 202.577713 
L 235.051859 201.904993 
L 236.259749 201.529784 
L 238.675528 199.29957 
L 239.883417 198.017361 
L 241.091307 196.96517 
L 242.299196 196.562746 
L 243.507085 194.758558 
L 245.922864 193.170812 
L 247.130754 192.933169 
L 248.338643 192.539265 
L 249.546533 191.62876 
L 251.962312 188.670152 
L 253.170201 186.106808 
L 254.37809 184.50002 
L 255.58598 182.254866 
L 256.793869 181.640519 
L 258.001759 181.572802 
L 259.209648 180.313994 
L 261.625427 178.688623 
L 262.833317 176.336856 
L 264.041206 174.655911 
L 265.249095 172.463537 
L 267.664874 170.589727 
L 268.872764 167.473476 
L 270.080653 164.816949 
L 272.496432 157.030113 
L 274.912211 152.949776 
L 276.120101 151.726634 
L 277.32799 148.896255 
L 279.743769 142.19531 
L 280.951658 138.178594 
L 284.575327 124.736634 
L 285.783216 119.068887 
L 290.614774 94.272635 
L 294.238442 68.966463 
L 296.654221 47.642021 
L 299.07 23.70501 
L 299.07 23.70501 
" clip-path="url(#pacba2a5a2b)" style="fill: none; stroke: #c49c94; stroke-width: 1.5; stroke-linecap: square"/>
   </g>
   <g id="line2d_25">
    <path d="M 58.7 235.937368 
L 63.531558 235.718821 
L 79.234121 234.958198 
L 80.44201 234.83381 
L 82.857789 234.861461 
L 85.273568 234.893736 
L 93.728794 234.201602 
L 97.352462 234.246415 
L 98.560352 234.290989 
L 103.39191 233.708013 
L 105.807688 233.609343 
L 107.015578 233.736654 
L 108.223467 233.668764 
L 110.639246 233.325684 
L 111.847136 233.130078 
L 114.262915 232.981229 
L 117.886583 233.137666 
L 120.302362 232.874166 
L 122.718141 232.355158 
L 123.92603 232.205849 
L 126.341809 232.323624 
L 131.173367 231.924408 
L 134.797035 231.958149 
L 136.004925 231.853258 
L 137.212814 231.472984 
L 142.044372 231.207448 
L 143.252261 231.01455 
L 144.460151 231.008034 
L 148.083819 230.505362 
L 151.707487 229.811507 
L 152.915377 229.697253 
L 154.123266 229.905534 
L 156.539045 229.772436 
L 157.746935 229.534494 
L 160.162714 229.302349 
L 161.370603 229.062347 
L 163.786382 228.9314 
L 167.41005 228.591648 
L 168.61794 228.691136 
L 171.033719 228.127113 
L 172.241608 228.083849 
L 173.449497 227.585583 
L 174.657387 227.338665 
L 177.073166 227.468819 
L 178.281055 227.632269 
L 181.904724 227.484921 
L 183.112613 226.854744 
L 184.320503 226.661942 
L 185.528392 226.594688 
L 187.944171 226.182499 
L 190.35995 225.968319 
L 191.567839 226.154962 
L 195.191508 225.687106 
L 197.607286 224.647972 
L 198.815176 224.432354 
L 200.023065 224.416567 
L 201.230955 224.565244 
L 202.438844 224.58419 
L 203.646734 224.471962 
L 206.062513 223.358539 
L 207.270402 223.003204 
L 209.686181 222.785793 
L 210.89407 222.651013 
L 212.10196 222.23114 
L 213.309849 222.068315 
L 214.517739 221.33204 
L 216.933518 221.158708 
L 218.141407 221.341499 
L 219.349296 221.194531 
L 220.557186 220.747909 
L 221.765075 220.576565 
L 222.972965 220.769869 
L 224.180854 220.347929 
L 225.388744 219.772031 
L 226.596633 219.456768 
L 227.804523 219.40309 
L 229.012412 218.60705 
L 230.220302 217.497909 
L 231.428191 217.345108 
L 232.63608 217.047081 
L 235.051859 215.733848 
L 236.259749 215.352341 
L 237.467638 215.131688 
L 238.675528 214.751747 
L 239.883417 213.998024 
L 241.091307 214.022062 
L 242.299196 213.817781 
L 243.507085 213.23741 
L 244.714975 212.887273 
L 247.130754 211.567338 
L 248.338643 210.073864 
L 249.546533 209.313144 
L 250.754422 208.155806 
L 251.962312 207.508837 
L 253.170201 206.510626 
L 255.58598 205.973716 
L 256.793869 205.449826 
L 258.001759 204.477698 
L 259.209648 204.190779 
L 261.625427 202.34589 
L 262.833317 201.0591 
L 264.041206 200.761624 
L 265.249095 199.908724 
L 268.872764 195.650345 
L 270.080653 194.172155 
L 271.288543 191.524734 
L 274.912211 186.293425 
L 276.120101 183.528261 
L 278.535879 179.192063 
L 279.743769 177.308601 
L 280.951658 175.64994 
L 282.159548 173.446155 
L 283.367437 169.952916 
L 284.575327 166.835114 
L 285.783216 161.575368 
L 286.991106 157.083088 
L 290.614774 142.098882 
L 291.822663 134.506219 
L 294.238442 114.027706 
L 295.446332 99.459295 
L 296.654221 81.353595 
L 297.862111 59.249331 
L 299.07 32.68523 
L 299.07 32.68523 
" clip-path="url(#pacba2a5a2b)" style="fill: none; stroke: #e377c2; stroke-width: 1.5; stroke-linecap: square"/>
   </g>
   <g id="line2d_26">
    <path d="M 58.7 235.919391 
L 61.115779 235.873891 
L 68.363116 235.46809 
L 78.026231 235.02199 
L 82.857789 234.863983 
L 100.976131 233.982417 
L 103.39191 233.730148 
L 105.807688 233.698607 
L 107.015578 233.717066 
L 108.223467 233.485143 
L 109.431357 233.537853 
L 113.055025 232.969796 
L 114.262915 232.984842 
L 117.886583 232.652099 
L 119.094472 232.852349 
L 123.92603 232.814875 
L 128.757588 232.147048 
L 129.965477 232.03912 
L 132.381256 232.183644 
L 138.420704 232.047164 
L 140.836482 231.906981 
L 142.044372 231.636187 
L 143.252261 231.223339 
L 144.460151 230.931489 
L 149.291709 230.7854 
L 151.707487 230.551025 
L 152.915377 230.230812 
L 154.123266 230.041495 
L 156.539045 229.899141 
L 157.746935 229.76349 
L 158.954824 229.504603 
L 161.370603 229.410067 
L 162.578492 228.973254 
L 163.786382 228.888109 
L 167.41005 228.900994 
L 168.61794 228.740994 
L 169.825829 228.702839 
L 171.033719 228.483223 
L 172.241608 227.984161 
L 173.449497 227.799405 
L 177.073166 227.64079 
L 183.112613 226.524163 
L 189.15206 225.852341 
L 190.35995 225.605381 
L 191.567839 225.91423 
L 192.775729 225.840764 
L 193.983618 225.37556 
L 196.399397 224.83248 
L 197.607286 224.249196 
L 200.023065 223.510511 
L 206.062513 222.962199 
L 207.270402 222.552283 
L 208.478291 222.431328 
L 209.686181 221.756642 
L 210.89407 221.235198 
L 212.10196 220.979868 
L 214.517739 220.677584 
L 215.725628 220.398363 
L 216.933518 220.40322 
L 218.141407 220.238507 
L 221.765075 219.22249 
L 222.972965 218.520038 
L 224.180854 218.013996 
L 225.388744 217.148579 
L 229.012412 215.880482 
L 230.220302 215.113112 
L 231.428191 215.004001 
L 232.63608 214.771457 
L 233.84397 214.215787 
L 235.051859 213.313959 
L 236.259749 212.870171 
L 237.467638 212.148718 
L 238.675528 211.692838 
L 239.883417 210.677299 
L 241.091307 210.456803 
L 244.714975 209.206651 
L 249.546533 206.009786 
L 251.962312 203.615067 
L 253.170201 202.992981 
L 254.37809 202.024818 
L 255.58598 201.427419 
L 256.793869 200.598247 
L 258.001759 199.536414 
L 259.209648 198.648508 
L 260.417538 197.008206 
L 261.625427 195.73886 
L 264.041206 193.736312 
L 265.249095 193.383918 
L 266.456985 192.292099 
L 267.664874 190.229704 
L 270.080653 183.657855 
L 272.496432 178.914834 
L 273.704322 176.90242 
L 274.912211 175.534491 
L 276.120101 174.865597 
L 277.32799 173.71156 
L 278.535879 170.050096 
L 279.743769 168.21601 
L 280.951658 165.604178 
L 282.159548 161.582203 
L 285.783216 146.573087 
L 286.991106 139.980011 
L 288.198995 131.992258 
L 291.822663 114.146698 
L 294.238442 97.067524 
L 295.446332 84.412894 
L 296.654221 68.538415 
L 297.862111 49.091335 
L 299.07 25.718903 
L 299.07 25.718903 
" clip-path="url(#pacba2a5a2b)" style="fill: none; stroke: #f7b6d2; stroke-width: 1.5; stroke-linecap: square"/>
   </g>
   <g id="line2d_27">
    <path d="M 58.7 235.988015 
L 61.115779 235.759199 
L 67.155226 235.54818 
L 73.194673 235.175236 
L 74.402563 235.336148 
L 75.610452 235.169693 
L 78.026231 235.170894 
L 79.234121 235.243617 
L 85.273568 234.481188 
L 91.313015 233.90801 
L 93.728794 233.59128 
L 94.936683 233.852114 
L 99.768241 233.933184 
L 102.18402 233.487671 
L 103.39191 233.342806 
L 104.599799 233.397839 
L 105.807688 233.193525 
L 107.015578 233.256926 
L 109.431357 232.872537 
L 110.639246 232.643804 
L 111.847136 232.538499 
L 114.262915 232.868486 
L 116.678693 232.787819 
L 117.886583 232.925975 
L 119.094472 232.87508 
L 120.302362 232.973277 
L 122.718141 231.994862 
L 123.92603 231.76046 
L 125.13392 231.812308 
L 126.341809 232.156374 
L 128.757588 233.315255 
L 129.965477 233.576853 
L 131.173367 232.642147 
L 132.381256 231.904398 
L 133.589146 231.519267 
L 136.004925 230.955541 
L 137.212814 230.882269 
L 138.420704 231.587957 
L 139.628593 232.010593 
L 140.836482 231.59722 
L 143.252261 232.275063 
L 144.460151 231.744626 
L 145.66804 230.826062 
L 146.87593 230.381257 
L 148.083819 230.131778 
L 149.291709 229.653484 
L 150.499598 229.460185 
L 151.707487 230.23008 
L 152.915377 230.863328 
L 154.123266 230.680679 
L 156.539045 230.54783 
L 157.746935 230.338234 
L 158.954824 229.775675 
L 160.162714 229.57512 
L 161.370603 229.234364 
L 163.786382 228.34158 
L 164.994271 228.045284 
L 166.202161 228.185662 
L 167.41005 228.52358 
L 169.825829 228.40516 
L 171.033719 228.700553 
L 172.241608 228.636692 
L 173.449497 228.830682 
L 174.657387 227.994233 
L 175.865276 227.855546 
L 177.073166 227.280063 
L 178.281055 226.462104 
L 181.904724 226.822931 
L 184.320503 226.379908 
L 185.528392 226.582322 
L 186.736281 226.320695 
L 187.944171 225.374308 
L 189.15206 225.377208 
L 190.35995 225.633933 
L 191.567839 225.506637 
L 192.775729 224.636329 
L 195.191508 223.752891 
L 196.399397 223.885505 
L 197.607286 223.26065 
L 198.815176 223.946739 
L 200.023065 224.366583 
L 201.230955 223.760803 
L 203.646734 223.015781 
L 204.854623 222.300594 
L 206.062513 221.333194 
L 207.270402 220.613368 
L 208.478291 220.622772 
L 209.686181 220.377605 
L 210.89407 220.448121 
L 212.10196 221.731806 
L 213.309849 222.113377 
L 214.517739 221.813461 
L 215.725628 220.317666 
L 216.933518 219.469289 
L 218.141407 218.480412 
L 220.557186 217.966287 
L 221.765075 218.829203 
L 222.972965 218.529357 
L 224.180854 218.679024 
L 225.388744 218.182679 
L 226.596633 216.728158 
L 229.012412 215.242956 
L 230.220302 214.939222 
L 231.428191 214.294878 
L 232.63608 213.920433 
L 233.84397 212.89112 
L 235.051859 212.247882 
L 236.259749 211.309999 
L 239.883417 212.623394 
L 241.091307 211.059169 
L 242.299196 211.062438 
L 243.507085 210.069392 
L 244.714975 208.361598 
L 245.922864 208.581647 
L 247.130754 207.762471 
L 248.338643 207.252151 
L 249.546533 206.119804 
L 250.754422 204.695442 
L 251.962312 203.836365 
L 253.170201 202.319191 
L 254.37809 200.358318 
L 255.58598 200.518605 
L 256.793869 198.37182 
L 258.001759 197.737681 
L 259.209648 196.262836 
L 260.417538 194.986917 
L 261.625427 192.599453 
L 262.833317 190.960495 
L 264.041206 188.400916 
L 265.249095 186.622043 
L 266.456985 184.453426 
L 267.664874 184.800681 
L 268.872764 184.180161 
L 270.080653 182.768248 
L 272.496432 178.754608 
L 273.704322 174.499078 
L 274.912211 171.379769 
L 276.120101 169.060695 
L 277.32799 167.586804 
L 278.535879 165.881005 
L 279.743769 162.086124 
L 280.951658 158.830856 
L 282.159548 154.152494 
L 283.367437 148.572853 
L 285.783216 139.056699 
L 286.991106 133.469064 
L 288.198995 128.566918 
L 290.614774 114.47616 
L 293.030553 94.195294 
L 294.238442 83.993384 
L 295.446332 72.305548 
L 296.654221 59.119006 
L 297.862111 44.098317 
L 299.07 26.908039 
L 299.07 26.908039 
" clip-path="url(#pacba2a5a2b)" style="fill: none; stroke: #7f7f7f; stroke-width: 1.5; stroke-linecap: square"/>
   </g>
   <g id="line2d_28">
    <path d="M 58.7 235.948313 
L 76.818342 234.668828 
L 80.44201 234.275792 
L 87.689347 233.727709 
L 92.520905 233.221379 
L 96.144573 232.873143 
L 99.768241 232.673485 
L 111.847136 231.111402 
L 113.055025 230.846327 
L 114.262915 230.789324 
L 115.470804 230.356103 
L 117.886583 230.012999 
L 119.094472 229.945946 
L 120.302362 229.718053 
L 121.510251 229.681879 
L 122.718141 229.486083 
L 123.92603 229.51975 
L 126.341809 228.877225 
L 127.549698 228.98744 
L 128.757588 228.900381 
L 131.173367 228.329419 
L 132.381256 227.870891 
L 133.589146 227.877558 
L 134.797035 227.670187 
L 136.004925 227.322946 
L 137.212814 227.87017 
L 142.044372 227.051391 
L 143.252261 226.984082 
L 144.460151 226.415327 
L 145.66804 226.174337 
L 146.87593 226.280875 
L 149.291709 225.184216 
L 150.499598 225.011529 
L 151.707487 224.369564 
L 154.123266 223.54809 
L 156.539045 223.757082 
L 157.746935 223.416013 
L 160.162714 223.769947 
L 161.370603 223.5913 
L 162.578492 223.262043 
L 163.786382 223.185467 
L 164.994271 223.356516 
L 167.41005 222.305668 
L 169.825829 221.917748 
L 171.033719 221.027203 
L 172.241608 220.507649 
L 174.657387 219.949817 
L 175.865276 219.772919 
L 177.073166 219.263406 
L 179.488945 217.799341 
L 180.696834 217.522788 
L 181.904724 217.019906 
L 186.736281 215.93975 
L 189.15206 216.138469 
L 190.35995 216.57933 
L 191.567839 216.340624 
L 192.775729 216.921447 
L 193.983618 216.035581 
L 196.399397 213.92824 
L 197.607286 212.822344 
L 198.815176 211.971851 
L 200.023065 210.969287 
L 201.230955 211.367602 
L 202.438844 211.563417 
L 203.646734 211.463594 
L 204.854623 211.033412 
L 206.062513 209.56248 
L 207.270402 208.791737 
L 208.478291 208.520037 
L 209.686181 207.548094 
L 210.89407 207.769738 
L 213.309849 206.849914 
L 214.517739 205.439251 
L 215.725628 204.685457 
L 218.141407 205.125161 
L 219.349296 204.738071 
L 220.557186 205.053996 
L 221.765075 204.445246 
L 224.180854 201.681048 
L 225.388744 201.490981 
L 226.596633 201.123572 
L 227.804523 199.922217 
L 229.012412 200.87696 
L 230.220302 200.591521 
L 231.428191 198.72324 
L 232.63608 198.161373 
L 233.84397 196.698799 
L 235.051859 196.423929 
L 236.259749 195.572201 
L 237.467638 194.266257 
L 238.675528 193.889244 
L 239.883417 192.243354 
L 241.091307 189.502384 
L 242.299196 189.461948 
L 243.507085 189.233053 
L 244.714975 189.696258 
L 245.922864 188.624636 
L 247.130754 187.024499 
L 249.546533 181.667448 
L 250.754422 178.165929 
L 251.962312 176.231655 
L 253.170201 176.764978 
L 254.37809 175.982984 
L 255.58598 175.394279 
L 256.793869 175.254445 
L 258.001759 175.332997 
L 260.417538 170.283244 
L 261.625427 168.326425 
L 262.833317 167.045749 
L 265.249095 160.125625 
L 266.456985 160.1131 
L 267.664874 159.34447 
L 268.872764 156.859402 
L 270.080653 155.758468 
L 271.288543 155.674506 
L 272.496432 152.457322 
L 274.912211 143.463064 
L 276.120101 143.396027 
L 277.32799 141.289467 
L 278.535879 137.870556 
L 280.951658 132.965706 
L 282.159548 128.259533 
L 283.367437 122.712005 
L 284.575327 117.718831 
L 285.783216 113.496632 
L 289.406884 95.253724 
L 293.030553 74.599738 
L 294.238442 66.915106 
L 295.446332 57.839451 
L 296.654221 47.458597 
L 297.862111 35.546699 
L 299.07 21.877912 
L 299.07 21.877912 
" clip-path="url(#pacba2a5a2b)" style="fill: none; stroke: #c7c7c7; stroke-width: 1.5; stroke-linecap: square"/>
   </g>
   <g id="line2d_29">
    <path d="M 58.7 235.951516 
L 81.649899 235.358621 
L 86.481457 235.309615 
L 90.105126 235.344897 
L 92.520905 235.166299 
L 93.728794 235.184066 
L 96.144573 234.959018 
L 99.768241 234.829637 
L 108.223467 234.749872 
L 110.639246 234.628882 
L 117.886583 234.467048 
L 119.094472 234.247636 
L 122.718141 234.168434 
L 125.13392 234.157971 
L 126.341809 234.01578 
L 129.965477 234.039644 
L 132.381256 233.970644 
L 136.004925 233.685929 
L 137.212814 233.613424 
L 139.628593 233.72364 
L 142.044372 233.626365 
L 144.460151 233.346519 
L 145.66804 233.348806 
L 146.87593 233.230049 
L 148.083819 233.347068 
L 154.123266 232.947105 
L 157.746935 233.026924 
L 160.162714 232.641771 
L 163.786382 232.391976 
L 166.202161 232.517599 
L 167.41005 232.484162 
L 169.825829 231.896263 
L 171.033719 231.848317 
L 172.241608 231.651989 
L 173.449497 231.656334 
L 174.657387 231.905195 
L 177.073166 231.853473 
L 178.281055 231.714937 
L 180.696834 231.789982 
L 181.904724 231.437304 
L 184.320503 231.185569 
L 186.736281 230.656647 
L 187.944171 230.656628 
L 190.35995 231.04635 
L 193.983618 230.923008 
L 197.607286 230.154857 
L 198.815176 229.884002 
L 200.023065 229.812922 
L 202.438844 229.37466 
L 204.854623 229.182173 
L 206.062513 229.264548 
L 207.270402 229.182211 
L 208.478291 228.910326 
L 209.686181 228.847587 
L 210.89407 228.536249 
L 213.309849 228.291166 
L 215.725628 228.433448 
L 219.349296 227.991979 
L 220.557186 227.683857 
L 224.180854 227.438244 
L 226.596633 226.843019 
L 227.804523 226.729918 
L 230.220302 226.051345 
L 232.63608 225.505135 
L 233.84397 225.39266 
L 235.051859 225.076949 
L 238.675528 224.672366 
L 239.883417 224.369262 
L 241.091307 223.541109 
L 243.507085 222.501505 
L 244.714975 222.101853 
L 248.338643 221.241165 
L 249.546533 221.285841 
L 250.754422 220.459491 
L 251.962312 220.238205 
L 254.37809 219.267859 
L 255.58598 218.475944 
L 256.793869 217.918936 
L 258.001759 216.967595 
L 259.209648 216.904053 
L 260.417538 215.589014 
L 264.041206 213.54618 
L 265.249095 212.544908 
L 266.456985 212.392091 
L 267.664874 211.895227 
L 268.872764 212.088105 
L 270.080653 211.178179 
L 271.288543 209.674398 
L 272.496432 207.82576 
L 273.704322 206.33303 
L 274.912211 203.612527 
L 276.120101 202.627406 
L 277.32799 201.237346 
L 278.535879 200.628055 
L 279.743769 199.727209 
L 280.951658 197.102813 
L 282.159548 195.33199 
L 283.367437 193.023787 
L 285.783216 185.328271 
L 289.406884 173.186387 
L 290.614774 166.609961 
L 291.822663 161.031627 
L 293.030553 152.189751 
L 294.238442 141.068364 
L 295.446332 124.93552 
L 296.654221 102.639247 
L 297.862111 72.772222 
L 299.07 33.927122 
L 299.07 33.927122 
" clip-path="url(#pacba2a5a2b)" style="fill: none; stroke: #bcbd22; stroke-width: 1.5; stroke-linecap: square"/>
   </g>
   <g id="line2d_30">
    <path d="M 58.7 235.957704 
L 74.402563 235.691188 
L 96.144573 235.285746 
L 98.560352 235.282793 
L 103.39191 235.072602 
L 107.015578 235.135926 
L 111.847136 234.777573 
L 121.510251 234.540002 
L 122.718141 234.476933 
L 123.92603 234.613815 
L 125.13392 234.495096 
L 128.757588 234.390744 
L 136.004925 234.179877 
L 137.212814 234.244529 
L 139.628593 233.945062 
L 145.66804 233.87246 
L 146.87593 233.996859 
L 150.499598 233.871262 
L 155.331156 233.376108 
L 156.539045 233.392556 
L 160.162714 233.080734 
L 162.578492 233.013125 
L 167.41005 233.44852 
L 171.033719 232.585803 
L 174.657387 232.036079 
L 175.865276 232.405658 
L 177.073166 232.588244 
L 178.281055 232.339299 
L 179.488945 232.49184 
L 180.696834 232.344486 
L 184.320503 231.624803 
L 185.528392 231.652984 
L 186.736281 231.508827 
L 189.15206 231.606676 
L 190.35995 231.256917 
L 193.983618 231.633853 
L 196.399397 231.081104 
L 197.607286 231.027892 
L 198.815176 230.506262 
L 200.023065 230.279564 
L 201.230955 230.167942 
L 202.438844 230.301527 
L 204.854623 229.888376 
L 206.062513 230.169502 
L 207.270402 230.313538 
L 208.478291 230.001647 
L 209.686181 230.168496 
L 210.89407 229.785455 
L 212.10196 229.770785 
L 213.309849 229.172651 
L 214.517739 229.255508 
L 215.725628 229.011983 
L 216.933518 228.184283 
L 218.141407 227.794746 
L 219.349296 227.722783 
L 220.557186 227.815136 
L 221.765075 228.34574 
L 224.180854 228.765386 
L 225.388744 228.21401 
L 226.596633 227.353174 
L 227.804523 226.318998 
L 229.012412 225.728631 
L 230.220302 225.643055 
L 232.63608 226.812615 
L 233.84397 226.685754 
L 236.259749 225.888617 
L 237.467638 224.923203 
L 238.675528 224.619496 
L 239.883417 223.943564 
L 241.091307 224.128713 
L 242.299196 223.849533 
L 243.507085 222.863949 
L 244.714975 222.371146 
L 245.922864 223.084264 
L 247.130754 222.639307 
L 248.338643 222.792089 
L 249.546533 222.318237 
L 250.754422 222.390702 
L 251.962312 221.418291 
L 254.37809 220.288276 
L 255.58598 220.101361 
L 256.793869 219.406086 
L 259.209648 218.877875 
L 260.417538 218.329369 
L 262.833317 214.951763 
L 264.041206 213.946506 
L 265.249095 212.786336 
L 267.664874 212.307846 
L 268.872764 212.379596 
L 270.080653 212.195829 
L 271.288543 211.104404 
L 272.496432 209.216119 
L 273.704322 207.967547 
L 274.912211 205.918906 
L 276.120101 204.609933 
L 277.32799 202.627004 
L 278.535879 201.245483 
L 279.743769 200.78341 
L 280.951658 198.962314 
L 282.159548 196.713284 
L 284.575327 190.623114 
L 285.783216 186.830698 
L 286.991106 181.106729 
L 288.198995 176.647699 
L 289.406884 173.040741 
L 291.822663 163.051079 
L 293.030553 155.696408 
L 294.238442 149.392126 
L 295.446332 136.954832 
L 296.654221 117.153097 
L 297.862111 87.688647 
L 299.07 46.26321 
L 299.07 46.26321 
" clip-path="url(#pacba2a5a2b)" style="fill: none; stroke: #dbdb8d; stroke-width: 1.5; stroke-linecap: square"/>
   </g>
   <g id="line2d_31">
    <path d="M 58.7 235.918544 
L 62.323668 235.907368 
L 69.571005 235.717954 
L 88.897236 235.290755 
L 94.936683 235.182732 
L 98.560352 235.185548 
L 102.18402 235.124481 
L 103.39191 235.003119 
L 105.807688 234.98773 
L 108.223467 234.943465 
L 114.262915 234.840213 
L 116.678693 234.647096 
L 120.302362 234.521852 
L 122.718141 234.467998 
L 123.92603 234.477784 
L 126.341809 234.268945 
L 131.173367 234.295192 
L 133.589146 234.151561 
L 134.797035 233.872343 
L 137.212814 233.855605 
L 140.836482 233.799265 
L 145.66804 233.32906 
L 146.87593 233.269307 
L 148.083819 233.343738 
L 149.291709 233.291392 
L 150.499598 233.376204 
L 155.331156 233.144098 
L 156.539045 232.979782 
L 158.954824 232.916464 
L 160.162714 232.81641 
L 163.786382 232.920372 
L 164.994271 232.85226 
L 169.825829 232.064204 
L 175.865276 231.606555 
L 177.073166 231.638714 
L 178.281055 231.521954 
L 179.488945 231.53155 
L 183.112613 231.092487 
L 184.320503 231.043075 
L 186.736281 231.121416 
L 190.35995 231.046853 
L 191.567839 230.948324 
L 195.191508 230.143906 
L 198.815176 229.917183 
L 201.230955 230.153597 
L 203.646734 229.945159 
L 207.270402 228.912816 
L 209.686181 228.073094 
L 212.10196 227.768402 
L 213.309849 227.87738 
L 215.725628 227.627281 
L 216.933518 227.511469 
L 218.141407 227.188219 
L 219.349296 226.567271 
L 222.972965 225.817823 
L 225.388744 225.86612 
L 229.012412 225.06232 
L 231.428191 225.036081 
L 232.63608 224.811569 
L 233.84397 224.977906 
L 235.051859 224.71639 
L 236.259749 223.895401 
L 238.675528 223.102436 
L 239.883417 222.964212 
L 241.091307 222.967346 
L 242.299196 222.691147 
L 243.507085 222.660679 
L 245.922864 220.901629 
L 247.130754 220.411694 
L 248.338643 219.37912 
L 250.754422 218.833971 
L 251.962312 219.357173 
L 253.170201 219.271931 
L 255.58598 217.222608 
L 256.793869 216.603412 
L 260.417538 214.277101 
L 261.625427 213.949676 
L 262.833317 213.073327 
L 265.249095 210.844616 
L 266.456985 210.659508 
L 267.664874 210.031455 
L 268.872764 208.698342 
L 270.080653 207.67892 
L 271.288543 205.777407 
L 276.120101 200.594535 
L 277.32799 199.174979 
L 278.535879 197.075849 
L 279.743769 195.599971 
L 280.951658 191.707043 
L 282.159548 188.964255 
L 283.367437 186.55139 
L 284.575327 183.229061 
L 285.783216 177.818928 
L 286.991106 173.832159 
L 288.198995 170.549382 
L 289.406884 165.443102 
L 290.614774 157.640756 
L 291.822663 151.189073 
L 293.030553 142.206204 
L 294.238442 129.02281 
L 295.446332 111.910359 
L 296.654221 90.684497 
L 297.862111 65.003906 
L 299.07 34.527268 
L 299.07 34.527268 
" clip-path="url(#pacba2a5a2b)" style="fill: none; stroke: #17becf; stroke-width: 1.5; stroke-linecap: square"/>
   </g>
   <g id="line2d_32">
    <path d="M 58.7 235.949668 
L 68.363116 235.835863 
L 84.065678 235.546635 
L 90.105126 235.547647 
L 98.560352 235.366238 
L 100.976131 235.24866 
L 107.015578 235.197731 
L 110.639246 235.232201 
L 115.470804 234.958103 
L 122.718141 234.897554 
L 127.549698 234.613127 
L 132.381256 234.672096 
L 149.291709 233.863593 
L 150.499598 233.949551 
L 154.123266 233.881018 
L 155.331156 233.994908 
L 157.746935 233.816692 
L 162.578492 234.090967 
L 163.786382 233.986272 
L 167.41005 233.32876 
L 168.61794 233.26048 
L 169.825829 233.31812 
L 172.241608 233.092722 
L 175.865276 232.693596 
L 179.488945 232.796118 
L 181.904724 232.669655 
L 184.320503 232.304189 
L 186.736281 232.464681 
L 187.944171 232.299952 
L 189.15206 232.332317 
L 190.35995 232.216423 
L 191.567839 231.949255 
L 192.775729 231.529596 
L 193.983618 231.478971 
L 196.399397 231.715583 
L 197.607286 231.799149 
L 198.815176 231.674923 
L 200.023065 231.329215 
L 201.230955 231.394831 
L 202.438844 231.011984 
L 204.854623 231.187834 
L 207.270402 231.0053 
L 208.478291 230.505049 
L 209.686181 230.473391 
L 210.89407 230.576024 
L 218.141407 229.398549 
L 219.349296 229.622239 
L 220.557186 229.408449 
L 221.765075 229.928568 
L 225.388744 230.224801 
L 229.012412 229.334615 
L 230.220302 228.52239 
L 233.84397 226.965652 
L 235.051859 226.738594 
L 236.259749 226.385293 
L 237.467638 226.195202 
L 239.883417 227.04714 
L 241.091307 227.071635 
L 242.299196 227.260815 
L 243.507085 226.558715 
L 244.714975 225.987721 
L 245.922864 225.638634 
L 247.130754 224.868041 
L 248.338643 224.417699 
L 249.546533 225.037071 
L 253.170201 223.717268 
L 254.37809 223.494369 
L 255.58598 223.019426 
L 258.001759 220.739668 
L 259.209648 220.89723 
L 260.417538 220.008893 
L 261.625427 218.84543 
L 264.041206 218.829598 
L 266.456985 217.538066 
L 267.664874 216.253989 
L 270.080653 214.776268 
L 271.288543 213.031667 
L 272.496432 211.930604 
L 273.704322 211.997719 
L 276.120101 209.137969 
L 277.32799 207.878136 
L 279.743769 204.767886 
L 282.159548 199.757711 
L 283.367437 198.035676 
L 284.575327 194.334123 
L 288.198995 184.939251 
L 289.406884 181.465235 
L 290.614774 175.555504 
L 291.822663 168.523392 
L 294.238442 153.229164 
L 295.446332 141.134518 
L 296.654221 120.459364 
L 297.862111 87.758872 
L 299.07 39.588209 
L 299.07 39.588209 
" clip-path="url(#pacba2a5a2b)" style="fill: none; stroke: #9edae5; stroke-width: 1.5; stroke-linecap: square"/>
   </g>
   <g id="patch_3">
    <path d="M 58.7 235.96 
L 58.7 20.16 
" style="fill: none; stroke: #000000; stroke-width: 0.8; stroke-linejoin: miter; stroke-linecap: square"/>
   </g>
   <g id="patch_4">
    <path d="M 299.07 235.96 
L 299.07 20.16 
" style="fill: none; stroke: #000000; stroke-width: 0.8; stroke-linejoin: miter; stroke-linecap: square"/>
   </g>
   <g id="patch_5">
    <path d="M 58.7 235.96 
L 299.07 235.96 
" style="fill: none; stroke: #000000; stroke-width: 0.8; stroke-linejoin: miter; stroke-linecap: square"/>
   </g>
   <g id="patch_6">
    <path d="M 58.7 20.16 
L 299.07 20.16 
" style="fill: none; stroke: #000000; stroke-width: 0.8; stroke-linejoin: miter; stroke-linecap: square"/>
   </g>
   <g id="legend_1">
    <g id="patch_7">
     <path d="M 65.7 169.613125 
L 189.040625 169.613125 
Q 191.040625 169.613125 191.040625 167.613125 
L 191.040625 27.16 
Q 191.040625 25.16 189.040625 25.16 
L 65.7 25.16 
Q 63.7 25.16 63.7 27.16 
L 63.7 167.613125 
Q 63.7 169.613125 65.7 169.613125 
z
" style="fill: #ffffff; opacity: 0.8; stroke: #cccccc; stroke-linejoin: miter"/>
    </g>
    <g id="line2d_33">
     <path d="M 67.7 32.817812 
L 77.7 32.817812 
L 87.7 32.817812 
" style="fill: none; stroke: #1f77b4; stroke-width: 1.5; stroke-linecap: square"/>
    </g>
    <g id="text_15">
     <!-- LEU -->
     <g transform="translate(95.7 36.317812) scale(0.1 -0.1)">
      <defs>
       <path id="ArialMT-4c" d="M 469 0 
L 469 4581 
L 1075 4581 
L 1075 541 
L 3331 541 
L 3331 0 
L 469 0 
z
" transform="scale(0.015625)"/>
       <path id="ArialMT-45" d="M 506 0 
L 506 4581 
L 3819 4581 
L 3819 4041 
L 1113 4041 
L 1113 2638 
L 3647 2638 
L 3647 2100 
L 1113 2100 
L 1113 541 
L 3925 541 
L 3925 0 
L 506 0 
z
" transform="scale(0.015625)"/>
       <path id="ArialMT-55" d="M 3500 4581 
L 4106 4581 
L 4106 1934 
Q 4106 1244 3950 837 
Q 3794 431 3386 176 
Q 2978 -78 2316 -78 
Q 1672 -78 1262 144 
Q 853 366 678 786 
Q 503 1206 503 1934 
L 503 4581 
L 1109 4581 
L 1109 1938 
Q 1109 1341 1220 1058 
Q 1331 775 1601 622 
Q 1872 469 2263 469 
Q 2931 469 3215 772 
Q 3500 1075 3500 1938 
L 3500 4581 
z
" transform="scale(0.015625)"/>
      </defs>
      <use xlink:href="#ArialMT-4c"/>
      <use xlink:href="#ArialMT-45" x="55.615234"/>
      <use xlink:href="#ArialMT-55" x="122.314453"/>
     </g>
    </g>
    <g id="line2d_34">
     <path d="M 67.7 46.963125 
L 77.7 46.963125 
L 87.7 46.963125 
" style="fill: none; stroke: #aec7e8; stroke-width: 1.5; stroke-linecap: square"/>
    </g>
    <g id="text_16">
     <!-- GLU -->
     <g transform="translate(95.7 50.463125) scale(0.1 -0.1)">
      <defs>
       <path id="ArialMT-47" d="M 2638 1797 
L 2638 2334 
L 4578 2338 
L 4578 638 
Q 4131 281 3656 101 
Q 3181 -78 2681 -78 
Q 2006 -78 1454 211 
Q 903 500 622 1047 
Q 341 1594 341 2269 
Q 341 2938 620 3517 
Q 900 4097 1425 4378 
Q 1950 4659 2634 4659 
Q 3131 4659 3532 4498 
Q 3934 4338 4162 4050 
Q 4391 3763 4509 3300 
L 3963 3150 
Q 3859 3500 3706 3700 
Q 3553 3900 3268 4020 
Q 2984 4141 2638 4141 
Q 2222 4141 1919 4014 
Q 1616 3888 1430 3681 
Q 1244 3475 1141 3228 
Q 966 2803 966 2306 
Q 966 1694 1177 1281 
Q 1388 869 1791 669 
Q 2194 469 2647 469 
Q 3041 469 3416 620 
Q 3791 772 3984 944 
L 3984 1797 
L 2638 1797 
z
" transform="scale(0.015625)"/>
      </defs>
      <use xlink:href="#ArialMT-47"/>
      <use xlink:href="#ArialMT-4c" x="77.783203"/>
      <use xlink:href="#ArialMT-55" x="133.398438"/>
     </g>
    </g>
    <g id="line2d_35">
     <path d="M 67.7 61.108437 
L 77.7 61.108437 
L 87.7 61.108437 
" style="fill: none; stroke: #ff7f0e; stroke-width: 1.5; stroke-linecap: square"/>
    </g>
    <g id="text_17">
     <!-- ARG -->
     <g transform="translate(95.7 64.608437) scale(0.1 -0.1)">
      <defs>
       <path id="ArialMT-41" d="M -9 0 
L 1750 4581 
L 2403 4581 
L 4278 0 
L 3588 0 
L 3053 1388 
L 1138 1388 
L 634 0 
L -9 0 
z
M 1313 1881 
L 2866 1881 
L 2388 3150 
Q 2169 3728 2063 4100 
Q 1975 3659 1816 3225 
L 1313 1881 
z
" transform="scale(0.015625)"/>
       <path id="ArialMT-52" d="M 503 0 
L 503 4581 
L 2534 4581 
Q 3147 4581 3465 4457 
Q 3784 4334 3975 4021 
Q 4166 3709 4166 3331 
Q 4166 2844 3850 2509 
Q 3534 2175 2875 2084 
Q 3116 1969 3241 1856 
Q 3506 1613 3744 1247 
L 4541 0 
L 3778 0 
L 3172 953 
Q 2906 1366 2734 1584 
Q 2563 1803 2427 1890 
Q 2291 1978 2150 2013 
Q 2047 2034 1813 2034 
L 1109 2034 
L 1109 0 
L 503 0 
z
M 1109 2559 
L 2413 2559 
Q 2828 2559 3062 2645 
Q 3297 2731 3419 2920 
Q 3541 3109 3541 3331 
Q 3541 3656 3305 3865 
Q 3069 4075 2559 4075 
L 1109 4075 
L 1109 2559 
z
" transform="scale(0.015625)"/>
      </defs>
      <use xlink:href="#ArialMT-41"/>
      <use xlink:href="#ArialMT-52" x="66.699219"/>
      <use xlink:href="#ArialMT-47" x="138.916016"/>
     </g>
    </g>
    <g id="line2d_36">
     <path d="M 67.7 75.25375 
L 77.7 75.25375 
L 87.7 75.25375 
" style="fill: none; stroke: #ffbb78; stroke-width: 1.5; stroke-linecap: square"/>
    </g>
    <g id="text_18">
     <!-- LYS -->
     <g transform="translate(95.7 78.75375) scale(0.1 -0.1)">
      <defs>
       <path id="ArialMT-59" d="M 1784 0 
L 1784 1941 
L 19 4581 
L 756 4581 
L 1659 3200 
Q 1909 2813 2125 2425 
Q 2331 2784 2625 3234 
L 3513 4581 
L 4219 4581 
L 2391 1941 
L 2391 0 
L 1784 0 
z
" transform="scale(0.015625)"/>
       <path id="ArialMT-53" d="M 288 1472 
L 859 1522 
Q 900 1178 1048 958 
Q 1197 738 1509 602 
Q 1822 466 2213 466 
Q 2559 466 2825 569 
Q 3091 672 3220 851 
Q 3350 1031 3350 1244 
Q 3350 1459 3225 1620 
Q 3100 1781 2813 1891 
Q 2628 1963 1997 2114 
Q 1366 2266 1113 2400 
Q 784 2572 623 2826 
Q 463 3081 463 3397 
Q 463 3744 659 4045 
Q 856 4347 1234 4503 
Q 1613 4659 2075 4659 
Q 2584 4659 2973 4495 
Q 3363 4331 3572 4012 
Q 3781 3694 3797 3291 
L 3216 3247 
Q 3169 3681 2898 3903 
Q 2628 4125 2100 4125 
Q 1550 4125 1298 3923 
Q 1047 3722 1047 3438 
Q 1047 3191 1225 3031 
Q 1400 2872 2139 2705 
Q 2878 2538 3153 2413 
Q 3553 2228 3743 1945 
Q 3934 1663 3934 1294 
Q 3934 928 3725 604 
Q 3516 281 3123 101 
Q 2731 -78 2241 -78 
Q 1619 -78 1198 103 
Q 778 284 539 648 
Q 300 1013 288 1472 
z
" transform="scale(0.015625)"/>
      </defs>
      <use xlink:href="#ArialMT-4c"/>
      <use xlink:href="#ArialMT-59" x="48.240234"/>
      <use xlink:href="#ArialMT-53" x="114.939453"/>
     </g>
    </g>
    <g id="line2d_37">
     <path d="M 67.7 89.399062 
L 77.7 89.399062 
L 87.7 89.399062 
" style="fill: none; stroke: #2ca02c; stroke-width: 1.5; stroke-linecap: square"/>
    </g>
    <g id="text_19">
     <!-- VAL -->
     <g transform="translate(95.7 92.899062) scale(0.1 -0.1)">
      <defs>
       <path id="ArialMT-56" d="M 1803 0 
L 28 4581 
L 684 4581 
L 1875 1253 
Q 2019 853 2116 503 
Q 2222 878 2363 1253 
L 3600 4581 
L 4219 4581 
L 2425 0 
L 1803 0 
z
" transform="scale(0.015625)"/>
      </defs>
      <use xlink:href="#ArialMT-56"/>
      <use xlink:href="#ArialMT-41" x="59.324219"/>
      <use xlink:href="#ArialMT-4c" x="126.023438"/>
     </g>
    </g>
    <g id="line2d_38">
     <path d="M 67.7 103.544375 
L 77.7 103.544375 
L 87.7 103.544375 
" style="fill: none; stroke: #98df8a; stroke-width: 1.5; stroke-linecap: square"/>
    </g>
    <g id="text_20">
     <!-- ILE -->
     <g transform="translate(95.7 107.044375) scale(0.1 -0.1)">
      <defs>
       <path id="ArialMT-49" d="M 597 0 
L 597 4581 
L 1203 4581 
L 1203 0 
L 597 0 
z
" transform="scale(0.015625)"/>
      </defs>
      <use xlink:href="#ArialMT-49"/>
      <use xlink:href="#ArialMT-4c" x="27.783203"/>
      <use xlink:href="#ArialMT-45" x="83.398438"/>
     </g>
    </g>
    <g id="line2d_39">
     <path d="M 67.7 117.689687 
L 77.7 117.689687 
L 87.7 117.689687 
" style="fill: none; stroke: #d62728; stroke-width: 1.5; stroke-linecap: square"/>
    </g>
    <g id="text_21">
     <!-- PHE -->
     <g transform="translate(95.7 121.189687) scale(0.1 -0.1)">
      <defs>
       <path id="ArialMT-50" d="M 494 0 
L 494 4581 
L 2222 4581 
Q 2678 4581 2919 4538 
Q 3256 4481 3484 4323 
Q 3713 4166 3852 3881 
Q 3991 3597 3991 3256 
Q 3991 2672 3619 2267 
Q 3247 1863 2275 1863 
L 1100 1863 
L 1100 0 
L 494 0 
z
M 1100 2403 
L 2284 2403 
Q 2872 2403 3119 2622 
Q 3366 2841 3366 3238 
Q 3366 3525 3220 3729 
Q 3075 3934 2838 4000 
Q 2684 4041 2272 4041 
L 1100 4041 
L 1100 2403 
z
" transform="scale(0.015625)"/>
       <path id="ArialMT-48" d="M 513 0 
L 513 4581 
L 1119 4581 
L 1119 2700 
L 3500 2700 
L 3500 4581 
L 4106 4581 
L 4106 0 
L 3500 0 
L 3500 2159 
L 1119 2159 
L 1119 0 
L 513 0 
z
" transform="scale(0.015625)"/>
      </defs>
      <use xlink:href="#ArialMT-50"/>
      <use xlink:href="#ArialMT-48" x="66.699219"/>
      <use xlink:href="#ArialMT-45" x="138.916016"/>
     </g>
    </g>
    <g id="line2d_40">
     <path d="M 67.7 131.835 
L 77.7 131.835 
L 87.7 131.835 
" style="fill: none; stroke: #ff9896; stroke-width: 1.5; stroke-linecap: square"/>
    </g>
    <g id="text_22">
     <!-- ASP -->
     <g transform="translate(95.7 135.335) scale(0.1 -0.1)">
      <use xlink:href="#ArialMT-41"/>
      <use xlink:href="#ArialMT-53" x="66.699219"/>
      <use xlink:href="#ArialMT-50" x="133.398438"/>
     </g>
    </g>
    <g id="line2d_41">
     <path d="M 67.7 145.980312 
L 77.7 145.980312 
L 87.7 145.980312 
" style="fill: none; stroke: #9467bd; stroke-width: 1.5; stroke-linecap: square"/>
    </g>
    <g id="text_23">
     <!-- TYR -->
     <g transform="translate(95.7 149.480312) scale(0.1 -0.1)">
      <defs>
       <path id="ArialMT-54" d="M 1659 0 
L 1659 4041 
L 150 4041 
L 150 4581 
L 3781 4581 
L 3781 4041 
L 2266 4041 
L 2266 0 
L 1659 0 
z
" transform="scale(0.015625)"/>
      </defs>
      <use xlink:href="#ArialMT-54"/>
      <use xlink:href="#ArialMT-59" x="61.083984"/>
      <use xlink:href="#ArialMT-52" x="127.783203"/>
     </g>
    </g>
    <g id="line2d_42">
     <path d="M 67.7 160.125625 
L 77.7 160.125625 
L 87.7 160.125625 
" style="fill: none; stroke: #c5b0d5; stroke-width: 1.5; stroke-linecap: square"/>
    </g>
    <g id="text_24">
     <!-- ALA -->
     <g transform="translate(95.7 163.625625) scale(0.1 -0.1)">
      <use xlink:href="#ArialMT-41"/>
      <use xlink:href="#ArialMT-4c" x="66.699219"/>
      <use xlink:href="#ArialMT-41" x="122.314453"/>
     </g>
    </g>
    <g id="line2d_43">
     <path d="M 137.370313 32.817812 
L 147.370313 32.817812 
L 157.370313 32.817812 
" style="fill: none; stroke: #8c564b; stroke-width: 1.5; stroke-linecap: square"/>
    </g>
    <g id="text_25">
     <!-- THR -->
     <g transform="translate(165.370313 36.317812) scale(0.1 -0.1)">
      <use xlink:href="#ArialMT-54"/>
      <use xlink:href="#ArialMT-48" x="61.083984"/>
      <use xlink:href="#ArialMT-52" x="133.300781"/>
     </g>
    </g>
    <g id="line2d_44">
     <path d="M 137.370313 46.963125 
L 147.370313 46.963125 
L 157.370313 46.963125 
" style="fill: none; stroke: #c49c94; stroke-width: 1.5; stroke-linecap: square"/>
    </g>
    <g id="text_26">
     <!-- SER -->
     <g transform="translate(165.370313 50.463125) scale(0.1 -0.1)">
      <use xlink:href="#ArialMT-53"/>
      <use xlink:href="#ArialMT-45" x="66.699219"/>
      <use xlink:href="#ArialMT-52" x="133.398438"/>
     </g>
    </g>
    <g id="line2d_45">
     <path d="M 137.370313 61.108437 
L 147.370313 61.108437 
L 157.370313 61.108437 
" style="fill: none; stroke: #e377c2; stroke-width: 1.5; stroke-linecap: square"/>
    </g>
    <g id="text_27">
     <!-- GLN -->
     <g transform="translate(165.370313 64.608437) scale(0.1 -0.1)">
      <defs>
       <path id="ArialMT-4e" d="M 488 0 
L 488 4581 
L 1109 4581 
L 3516 984 
L 3516 4581 
L 4097 4581 
L 4097 0 
L 3475 0 
L 1069 3600 
L 1069 0 
L 488 0 
z
" transform="scale(0.015625)"/>
      </defs>
      <use xlink:href="#ArialMT-47"/>
      <use xlink:href="#ArialMT-4c" x="77.783203"/>
      <use xlink:href="#ArialMT-4e" x="133.398438"/>
     </g>
    </g>
    <g id="line2d_46">
     <path d="M 137.370313 75.25375 
L 147.370313 75.25375 
L 157.370313 75.25375 
" style="fill: none; stroke: #f7b6d2; stroke-width: 1.5; stroke-linecap: square"/>
    </g>
    <g id="text_28">
     <!-- ASN -->
     <g transform="translate(165.370313 78.75375) scale(0.1 -0.1)">
      <use xlink:href="#ArialMT-41"/>
      <use xlink:href="#ArialMT-53" x="66.699219"/>
      <use xlink:href="#ArialMT-4e" x="133.398438"/>
     </g>
    </g>
    <g id="line2d_47">
     <path d="M 137.370313 89.399062 
L 147.370313 89.399062 
L 157.370313 89.399062 
" style="fill: none; stroke: #7f7f7f; stroke-width: 1.5; stroke-linecap: square"/>
    </g>
    <g id="text_29">
     <!-- PRO -->
     <g transform="translate(165.370313 92.899062) scale(0.1 -0.1)">
      <defs>
       <path id="ArialMT-4f" d="M 309 2231 
Q 309 3372 921 4017 
Q 1534 4663 2503 4663 
Q 3138 4663 3647 4359 
Q 4156 4056 4423 3514 
Q 4691 2972 4691 2284 
Q 4691 1588 4409 1038 
Q 4128 488 3612 205 
Q 3097 -78 2500 -78 
Q 1853 -78 1343 234 
Q 834 547 571 1087 
Q 309 1628 309 2231 
z
M 934 2222 
Q 934 1394 1379 917 
Q 1825 441 2497 441 
Q 3181 441 3623 922 
Q 4066 1403 4066 2288 
Q 4066 2847 3877 3264 
Q 3688 3681 3323 3911 
Q 2959 4141 2506 4141 
Q 1863 4141 1398 3698 
Q 934 3256 934 2222 
z
" transform="scale(0.015625)"/>
      </defs>
      <use xlink:href="#ArialMT-50"/>
      <use xlink:href="#ArialMT-52" x="66.699219"/>
      <use xlink:href="#ArialMT-4f" x="138.916016"/>
     </g>
    </g>
    <g id="line2d_48">
     <path d="M 137.370313 103.544375 
L 147.370313 103.544375 
L 157.370313 103.544375 
" style="fill: none; stroke: #c7c7c7; stroke-width: 1.5; stroke-linecap: square"/>
    </g>
    <g id="text_30">
     <!-- GLY -->
     <g transform="translate(165.370313 107.044375) scale(0.1 -0.1)">
      <use xlink:href="#ArialMT-47"/>
      <use xlink:href="#ArialMT-4c" x="77.783203"/>
      <use xlink:href="#ArialMT-59" x="126.023438"/>
     </g>
    </g>
    <g id="line2d_49">
     <path d="M 137.370313 117.689687 
L 147.370313 117.689687 
L 157.370313 117.689687 
" style="fill: none; stroke: #bcbd22; stroke-width: 1.5; stroke-linecap: square"/>
    </g>
    <g id="text_31">
     <!-- HIS -->
     <g transform="translate(165.370313 121.189687) scale(0.1 -0.1)">
      <use xlink:href="#ArialMT-48"/>
      <use xlink:href="#ArialMT-49" x="72.216797"/>
      <use xlink:href="#ArialMT-53" x="100"/>
     </g>
    </g>
    <g id="line2d_50">
     <path d="M 137.370313 131.835 
L 147.370313 131.835 
L 157.370313 131.835 
" style="fill: none; stroke: #dbdb8d; stroke-width: 1.5; stroke-linecap: square"/>
    </g>
    <g id="text_32">
     <!-- TRP -->
     <g transform="translate(165.370313 135.335) scale(0.1 -0.1)">
      <use xlink:href="#ArialMT-54"/>
      <use xlink:href="#ArialMT-52" x="61.083984"/>
      <use xlink:href="#ArialMT-50" x="133.300781"/>
     </g>
    </g>
    <g id="line2d_51">
     <path d="M 137.370313 145.980312 
L 147.370313 145.980312 
L 157.370313 145.980312 
" style="fill: none; stroke: #17becf; stroke-width: 1.5; stroke-linecap: square"/>
    </g>
    <g id="text_33">
     <!-- MET -->
     <g transform="translate(165.370313 149.480312) scale(0.1 -0.1)">
      <defs>
       <path id="ArialMT-4d" d="M 475 0 
L 475 4581 
L 1388 4581 
L 2472 1338 
Q 2622 884 2691 659 
Q 2769 909 2934 1394 
L 4031 4581 
L 4847 4581 
L 4847 0 
L 4263 0 
L 4263 3834 
L 2931 0 
L 2384 0 
L 1059 3900 
L 1059 0 
L 475 0 
z
" transform="scale(0.015625)"/>
      </defs>
      <use xlink:href="#ArialMT-4d"/>
      <use xlink:href="#ArialMT-45" x="83.300781"/>
      <use xlink:href="#ArialMT-54" x="150"/>
     </g>
    </g>
    <g id="line2d_52">
     <path d="M 137.370313 160.125625 
L 147.370313 160.125625 
L 157.370313 160.125625 
" style="fill: none; stroke: #9edae5; stroke-width: 1.5; stroke-linecap: square"/>
    </g>
    <g id="text_34">
     <!-- CYS -->
     <g transform="translate(165.370313 163.625625) scale(0.1 -0.1)">
      <defs>
       <path id="ArialMT-43" d="M 3763 1606 
L 4369 1453 
Q 4178 706 3683 314 
Q 3188 -78 2472 -78 
Q 1731 -78 1267 223 
Q 803 525 561 1097 
Q 319 1669 319 2325 
Q 319 3041 592 3573 
Q 866 4106 1370 4382 
Q 1875 4659 2481 4659 
Q 3169 4659 3637 4309 
Q 4106 3959 4291 3325 
L 3694 3184 
Q 3534 3684 3231 3912 
Q 2928 4141 2469 4141 
Q 1941 4141 1586 3887 
Q 1231 3634 1087 3207 
Q 944 2781 944 2328 
Q 944 1744 1114 1308 
Q 1284 872 1643 656 
Q 2003 441 2422 441 
Q 2931 441 3284 734 
Q 3638 1028 3763 1606 
z
" transform="scale(0.015625)"/>
      </defs>
      <use xlink:href="#ArialMT-43"/>
      <use xlink:href="#ArialMT-59" x="72.216797"/>
      <use xlink:href="#ArialMT-53" x="138.916016"/>
     </g>
    </g>
   </g>
  </g>
 </g>
 <defs>
  <clipPath id="pacba2a5a2b">
   <rect x="58.7" y="20.16" width="240.37" height="215.8"/>
  </clipPath>
 </defs>
</svg>
