<?xml version="1.0" encoding="utf-8" standalone="no"?>
<!DOCTYPE svg PUBLIC "-//W3C//DTD SVG 1.1//EN"
  "http://www.w3.org/Graphics/SVG/1.1/DTD/svg11.dtd">
<svg xmlns:xlink="http://www.w3.org/1999/xlink" width="288pt" height="216pt" viewBox="0 0 288 216" xmlns="http://www.w3.org/2000/svg" version="1.1">
 <metadata>
  <rdf:RDF xmlns:dc="http://purl.org/dc/elements/1.1/" xmlns:cc="http://creativecommons.org/ns#" xmlns:rdf="http://www.w3.org/1999/02/22-rdf-syntax-ns#">
   <cc:Work>
    <dc:type rdf:resource="http://purl.org/dc/dcmitype/StillImage"/>
    <dc:date>2023-11-28T16:41:53.821956</dc:date>
    <dc:format>image/svg+xml</dc:format>
    <dc:creator>
     <cc:Agent>
      <dc:title>Matplotlib v3.7.1, https://matplotlib.org/</dc:title>
     </cc:Agent>
    </dc:creator>
   </cc:Work>
  </rdf:RDF>
 </metadata>
 <defs>
  <style type="text/css">*{stroke-linejoin: round; stroke-linecap: butt}</style>
 </defs>
 <g id="figure_1">
  <g id="patch_1">
   <path d="M 0 216 
L 288 216 
L 288 0 
L 0 0 
z
" style="fill: #ffffff"/>
  </g>
  <g id="axes_1">
   <g id="patch_2">
    <path d="M 54.74 170.38375 
L 275.04 170.38375 
L 275.04 17.28 
L 54.74 17.28 
z
" style="fill: #ffffff"/>
   </g>
   <g id="matplotlib.axis_1">
    <g id="xtick_1">
     <g id="line2d_1">
      <defs>
       <path id="mf0ae7e4c3e" d="M 0 0 
L 0 3.5 
" style="stroke: #000000; stroke-width: 0.8"/>
      </defs>
      <g>
       <use xlink:href="#mf0ae7e4c3e" x="76.77" y="170.38375" style="stroke: #000000; stroke-width: 0.8"/>
      </g>
     </g>
     <g id="text_1">
      <!-- 2 -->
      <g transform="translate(73.433438 185.973125) scale(0.12 -0.12)">
       <defs>
        <path id="ArialMT-32" d="M 3222 541 
L 3222 0 
L 194 0 
Q 188 203 259 391 
Q 375 700 629 1000 
Q 884 1300 1366 1694 
Q 2113 2306 2375 2664 
Q 2638 3022 2638 3341 
Q 2638 3675 2398 3904 
Q 2159 4134 1775 4134 
Q 1369 4134 1125 3890 
Q 881 3647 878 3216 
L 300 3275 
Q 359 3922 746 4261 
Q 1134 4600 1788 4600 
Q 2447 4600 2831 4234 
Q 3216 3869 3216 3328 
Q 3216 3053 3103 2787 
Q 2991 2522 2730 2228 
Q 2469 1934 1863 1422 
Q 1356 997 1212 845 
Q 1069 694 975 541 
L 3222 541 
z
" transform="scale(0.015625)"/>
       </defs>
       <use xlink:href="#ArialMT-32"/>
      </g>
     </g>
    </g>
    <g id="xtick_2">
     <g id="line2d_2">
      <g>
       <use xlink:href="#mf0ae7e4c3e" x="120.83" y="170.38375" style="stroke: #000000; stroke-width: 0.8"/>
      </g>
     </g>
     <g id="text_2">
      <!-- 3 -->
      <g transform="translate(117.493437 185.973125) scale(0.12 -0.12)">
       <defs>
        <path id="ArialMT-33" d="M 269 1209 
L 831 1284 
Q 928 806 1161 595 
Q 1394 384 1728 384 
Q 2125 384 2398 659 
Q 2672 934 2672 1341 
Q 2672 1728 2419 1979 
Q 2166 2231 1775 2231 
Q 1616 2231 1378 2169 
L 1441 2663 
Q 1497 2656 1531 2656 
Q 1891 2656 2178 2843 
Q 2466 3031 2466 3422 
Q 2466 3731 2256 3934 
Q 2047 4138 1716 4138 
Q 1388 4138 1169 3931 
Q 950 3725 888 3313 
L 325 3413 
Q 428 3978 793 4289 
Q 1159 4600 1703 4600 
Q 2078 4600 2393 4439 
Q 2709 4278 2876 4000 
Q 3044 3722 3044 3409 
Q 3044 3113 2884 2869 
Q 2725 2625 2413 2481 
Q 2819 2388 3044 2092 
Q 3269 1797 3269 1353 
Q 3269 753 2831 336 
Q 2394 -81 1725 -81 
Q 1122 -81 723 278 
Q 325 638 269 1209 
z
" transform="scale(0.015625)"/>
       </defs>
       <use xlink:href="#ArialMT-33"/>
      </g>
     </g>
    </g>
    <g id="xtick_3">
     <g id="line2d_3">
      <g>
       <use xlink:href="#mf0ae7e4c3e" x="164.89" y="170.38375" style="stroke: #000000; stroke-width: 0.8"/>
      </g>
     </g>
     <g id="text_3">
      <!-- 4 -->
      <g transform="translate(161.553437 185.973125) scale(0.12 -0.12)">
       <defs>
        <path id="ArialMT-34" d="M 2069 0 
L 2069 1097 
L 81 1097 
L 81 1613 
L 2172 4581 
L 2631 4581 
L 2631 1613 
L 3250 1613 
L 3250 1097 
L 2631 1097 
L 2631 0 
L 2069 0 
z
M 2069 1613 
L 2069 3678 
L 634 1613 
L 2069 1613 
z
" transform="scale(0.015625)"/>
       </defs>
       <use xlink:href="#ArialMT-34"/>
      </g>
     </g>
    </g>
    <g id="xtick_4">
     <g id="line2d_4">
      <g>
       <use xlink:href="#mf0ae7e4c3e" x="208.95" y="170.38375" style="stroke: #000000; stroke-width: 0.8"/>
      </g>
     </g>
     <g id="text_4">
      <!-- 5 -->
      <g transform="translate(205.613437 185.973125) scale(0.12 -0.12)">
       <defs>
        <path id="ArialMT-35" d="M 266 1200 
L 856 1250 
Q 922 819 1161 601 
Q 1400 384 1738 384 
Q 2144 384 2425 690 
Q 2706 997 2706 1503 
Q 2706 1984 2436 2262 
Q 2166 2541 1728 2541 
Q 1456 2541 1237 2417 
Q 1019 2294 894 2097 
L 366 2166 
L 809 4519 
L 3088 4519 
L 3088 3981 
L 1259 3981 
L 1013 2750 
Q 1425 3038 1878 3038 
Q 2478 3038 2890 2622 
Q 3303 2206 3303 1553 
Q 3303 931 2941 478 
Q 2500 -78 1738 -78 
Q 1113 -78 717 272 
Q 322 622 266 1200 
z
" transform="scale(0.015625)"/>
       </defs>
       <use xlink:href="#ArialMT-35"/>
      </g>
     </g>
    </g>
    <g id="xtick_5">
     <g id="line2d_5">
      <g>
       <use xlink:href="#mf0ae7e4c3e" x="253.01" y="170.38375" style="stroke: #000000; stroke-width: 0.8"/>
      </g>
     </g>
     <g id="text_5">
      <!-- 6 -->
      <g transform="translate(249.673437 185.973125) scale(0.12 -0.12)">
       <defs>
        <path id="ArialMT-36" d="M 3184 3459 
L 2625 3416 
Q 2550 3747 2413 3897 
Q 2184 4138 1850 4138 
Q 1581 4138 1378 3988 
Q 1113 3794 959 3422 
Q 806 3050 800 2363 
Q 1003 2672 1297 2822 
Q 1591 2972 1913 2972 
Q 2475 2972 2870 2558 
Q 3266 2144 3266 1488 
Q 3266 1056 3080 686 
Q 2894 316 2569 119 
Q 2244 -78 1831 -78 
Q 1128 -78 684 439 
Q 241 956 241 2144 
Q 241 3472 731 4075 
Q 1159 4600 1884 4600 
Q 2425 4600 2770 4297 
Q 3116 3994 3184 3459 
z
M 888 1484 
Q 888 1194 1011 928 
Q 1134 663 1356 523 
Q 1578 384 1822 384 
Q 2178 384 2434 671 
Q 2691 959 2691 1453 
Q 2691 1928 2437 2201 
Q 2184 2475 1800 2475 
Q 1419 2475 1153 2201 
Q 888 1928 888 1484 
z
" transform="scale(0.015625)"/>
       </defs>
       <use xlink:href="#ArialMT-36"/>
      </g>
     </g>
    </g>
    <g id="text_6">
     <!-- average number of options -->
     <g transform="translate(93.517187 201.09375) scale(0.12 -0.12)">
      <defs>
       <path id="ArialMT-61" d="M 2588 409 
Q 2275 144 1986 34 
Q 1697 -75 1366 -75 
Q 819 -75 525 192 
Q 231 459 231 875 
Q 231 1119 342 1320 
Q 453 1522 633 1644 
Q 813 1766 1038 1828 
Q 1203 1872 1538 1913 
Q 2219 1994 2541 2106 
Q 2544 2222 2544 2253 
Q 2544 2597 2384 2738 
Q 2169 2928 1744 2928 
Q 1347 2928 1158 2789 
Q 969 2650 878 2297 
L 328 2372 
Q 403 2725 575 2942 
Q 747 3159 1072 3276 
Q 1397 3394 1825 3394 
Q 2250 3394 2515 3294 
Q 2781 3194 2906 3042 
Q 3031 2891 3081 2659 
Q 3109 2516 3109 2141 
L 3109 1391 
Q 3109 606 3145 398 
Q 3181 191 3288 0 
L 2700 0 
Q 2613 175 2588 409 
z
M 2541 1666 
Q 2234 1541 1622 1453 
Q 1275 1403 1131 1340 
Q 988 1278 909 1158 
Q 831 1038 831 891 
Q 831 666 1001 516 
Q 1172 366 1500 366 
Q 1825 366 2078 508 
Q 2331 650 2450 897 
Q 2541 1088 2541 1459 
L 2541 1666 
z
" transform="scale(0.015625)"/>
       <path id="ArialMT-76" d="M 1344 0 
L 81 3319 
L 675 3319 
L 1388 1331 
Q 1503 1009 1600 663 
Q 1675 925 1809 1294 
L 2547 3319 
L 3125 3319 
L 1869 0 
L 1344 0 
z
" transform="scale(0.015625)"/>
       <path id="ArialMT-65" d="M 2694 1069 
L 3275 997 
Q 3138 488 2766 206 
Q 2394 -75 1816 -75 
Q 1088 -75 661 373 
Q 234 822 234 1631 
Q 234 2469 665 2931 
Q 1097 3394 1784 3394 
Q 2450 3394 2872 2941 
Q 3294 2488 3294 1666 
Q 3294 1616 3291 1516 
L 816 1516 
Q 847 969 1125 678 
Q 1403 388 1819 388 
Q 2128 388 2347 550 
Q 2566 713 2694 1069 
z
M 847 1978 
L 2700 1978 
Q 2663 2397 2488 2606 
Q 2219 2931 1791 2931 
Q 1403 2931 1139 2672 
Q 875 2413 847 1978 
z
" transform="scale(0.015625)"/>
       <path id="ArialMT-72" d="M 416 0 
L 416 3319 
L 922 3319 
L 922 2816 
Q 1116 3169 1280 3281 
Q 1444 3394 1641 3394 
Q 1925 3394 2219 3213 
L 2025 2691 
Q 1819 2813 1613 2813 
Q 1428 2813 1281 2702 
Q 1134 2591 1072 2394 
Q 978 2094 978 1738 
L 978 0 
L 416 0 
z
" transform="scale(0.015625)"/>
       <path id="ArialMT-67" d="M 319 -275 
L 866 -356 
Q 900 -609 1056 -725 
Q 1266 -881 1628 -881 
Q 2019 -881 2231 -725 
Q 2444 -569 2519 -288 
Q 2563 -116 2559 434 
Q 2191 0 1641 0 
Q 956 0 581 494 
Q 206 988 206 1678 
Q 206 2153 378 2554 
Q 550 2956 876 3175 
Q 1203 3394 1644 3394 
Q 2231 3394 2613 2919 
L 2613 3319 
L 3131 3319 
L 3131 450 
Q 3131 -325 2973 -648 
Q 2816 -972 2473 -1159 
Q 2131 -1347 1631 -1347 
Q 1038 -1347 672 -1080 
Q 306 -813 319 -275 
z
M 784 1719 
Q 784 1066 1043 766 
Q 1303 466 1694 466 
Q 2081 466 2343 764 
Q 2606 1063 2606 1700 
Q 2606 2309 2336 2618 
Q 2066 2928 1684 2928 
Q 1309 2928 1046 2623 
Q 784 2319 784 1719 
z
" transform="scale(0.015625)"/>
       <path id="ArialMT-20" transform="scale(0.015625)"/>
       <path id="ArialMT-6e" d="M 422 0 
L 422 3319 
L 928 3319 
L 928 2847 
Q 1294 3394 1984 3394 
Q 2284 3394 2536 3286 
Q 2788 3178 2913 3003 
Q 3038 2828 3088 2588 
Q 3119 2431 3119 2041 
L 3119 0 
L 2556 0 
L 2556 2019 
Q 2556 2363 2490 2533 
Q 2425 2703 2258 2804 
Q 2091 2906 1866 2906 
Q 1506 2906 1245 2678 
Q 984 2450 984 1813 
L 984 0 
L 422 0 
z
" transform="scale(0.015625)"/>
       <path id="ArialMT-75" d="M 2597 0 
L 2597 488 
Q 2209 -75 1544 -75 
Q 1250 -75 995 37 
Q 741 150 617 320 
Q 494 491 444 738 
Q 409 903 409 1263 
L 409 3319 
L 972 3319 
L 972 1478 
Q 972 1038 1006 884 
Q 1059 663 1231 536 
Q 1403 409 1656 409 
Q 1909 409 2131 539 
Q 2353 669 2445 892 
Q 2538 1116 2538 1541 
L 2538 3319 
L 3100 3319 
L 3100 0 
L 2597 0 
z
" transform="scale(0.015625)"/>
       <path id="ArialMT-6d" d="M 422 0 
L 422 3319 
L 925 3319 
L 925 2853 
Q 1081 3097 1340 3245 
Q 1600 3394 1931 3394 
Q 2300 3394 2536 3241 
Q 2772 3088 2869 2813 
Q 3263 3394 3894 3394 
Q 4388 3394 4653 3120 
Q 4919 2847 4919 2278 
L 4919 0 
L 4359 0 
L 4359 2091 
Q 4359 2428 4304 2576 
Q 4250 2725 4106 2815 
Q 3963 2906 3769 2906 
Q 3419 2906 3187 2673 
Q 2956 2441 2956 1928 
L 2956 0 
L 2394 0 
L 2394 2156 
Q 2394 2531 2256 2718 
Q 2119 2906 1806 2906 
Q 1569 2906 1367 2781 
Q 1166 2656 1075 2415 
Q 984 2175 984 1722 
L 984 0 
L 422 0 
z
" transform="scale(0.015625)"/>
       <path id="ArialMT-62" d="M 941 0 
L 419 0 
L 419 4581 
L 981 4581 
L 981 2947 
Q 1338 3394 1891 3394 
Q 2197 3394 2470 3270 
Q 2744 3147 2920 2923 
Q 3097 2700 3197 2384 
Q 3297 2069 3297 1709 
Q 3297 856 2875 390 
Q 2453 -75 1863 -75 
Q 1275 -75 941 416 
L 941 0 
z
M 934 1684 
Q 934 1088 1097 822 
Q 1363 388 1816 388 
Q 2184 388 2453 708 
Q 2722 1028 2722 1663 
Q 2722 2313 2464 2622 
Q 2206 2931 1841 2931 
Q 1472 2931 1203 2611 
Q 934 2291 934 1684 
z
" transform="scale(0.015625)"/>
       <path id="ArialMT-6f" d="M 213 1659 
Q 213 2581 725 3025 
Q 1153 3394 1769 3394 
Q 2453 3394 2887 2945 
Q 3322 2497 3322 1706 
Q 3322 1066 3130 698 
Q 2938 331 2570 128 
Q 2203 -75 1769 -75 
Q 1072 -75 642 372 
Q 213 819 213 1659 
z
M 791 1659 
Q 791 1022 1069 705 
Q 1347 388 1769 388 
Q 2188 388 2466 706 
Q 2744 1025 2744 1678 
Q 2744 2294 2464 2611 
Q 2184 2928 1769 2928 
Q 1347 2928 1069 2612 
Q 791 2297 791 1659 
z
" transform="scale(0.015625)"/>
       <path id="ArialMT-66" d="M 556 0 
L 556 2881 
L 59 2881 
L 59 3319 
L 556 3319 
L 556 3672 
Q 556 4006 616 4169 
Q 697 4388 901 4523 
Q 1106 4659 1475 4659 
Q 1713 4659 2000 4603 
L 1916 4113 
Q 1741 4144 1584 4144 
Q 1328 4144 1222 4034 
Q 1116 3925 1116 3625 
L 1116 3319 
L 1763 3319 
L 1763 2881 
L 1116 2881 
L 1116 0 
L 556 0 
z
" transform="scale(0.015625)"/>
       <path id="ArialMT-70" d="M 422 -1272 
L 422 3319 
L 934 3319 
L 934 2888 
Q 1116 3141 1344 3267 
Q 1572 3394 1897 3394 
Q 2322 3394 2647 3175 
Q 2972 2956 3137 2557 
Q 3303 2159 3303 1684 
Q 3303 1175 3120 767 
Q 2938 359 2589 142 
Q 2241 -75 1856 -75 
Q 1575 -75 1351 44 
Q 1128 163 984 344 
L 984 -1272 
L 422 -1272 
z
M 931 1641 
Q 931 1000 1190 694 
Q 1450 388 1819 388 
Q 2194 388 2461 705 
Q 2728 1022 2728 1688 
Q 2728 2322 2467 2637 
Q 2206 2953 1844 2953 
Q 1484 2953 1207 2617 
Q 931 2281 931 1641 
z
" transform="scale(0.015625)"/>
       <path id="ArialMT-74" d="M 1650 503 
L 1731 6 
Q 1494 -44 1306 -44 
Q 1000 -44 831 53 
Q 663 150 594 308 
Q 525 466 525 972 
L 525 2881 
L 113 2881 
L 113 3319 
L 525 3319 
L 525 4141 
L 1084 4478 
L 1084 3319 
L 1650 3319 
L 1650 2881 
L 1084 2881 
L 1084 941 
Q 1084 700 1114 631 
Q 1144 563 1211 522 
Q 1278 481 1403 481 
Q 1497 481 1650 503 
z
" transform="scale(0.015625)"/>
       <path id="ArialMT-69" d="M 425 3934 
L 425 4581 
L 988 4581 
L 988 3934 
L 425 3934 
z
M 425 0 
L 425 3319 
L 988 3319 
L 988 0 
L 425 0 
z
" transform="scale(0.015625)"/>
       <path id="ArialMT-73" d="M 197 991 
L 753 1078 
Q 800 744 1014 566 
Q 1228 388 1613 388 
Q 2000 388 2187 545 
Q 2375 703 2375 916 
Q 2375 1106 2209 1216 
Q 2094 1291 1634 1406 
Q 1016 1563 777 1677 
Q 538 1791 414 1992 
Q 291 2194 291 2438 
Q 291 2659 392 2848 
Q 494 3038 669 3163 
Q 800 3259 1026 3326 
Q 1253 3394 1513 3394 
Q 1903 3394 2198 3281 
Q 2494 3169 2634 2976 
Q 2775 2784 2828 2463 
L 2278 2388 
Q 2241 2644 2061 2787 
Q 1881 2931 1553 2931 
Q 1166 2931 1000 2803 
Q 834 2675 834 2503 
Q 834 2394 903 2306 
Q 972 2216 1119 2156 
Q 1203 2125 1616 2013 
Q 2213 1853 2448 1751 
Q 2684 1650 2818 1456 
Q 2953 1263 2953 975 
Q 2953 694 2789 445 
Q 2625 197 2315 61 
Q 2006 -75 1616 -75 
Q 969 -75 630 194 
Q 291 463 197 991 
z
" transform="scale(0.015625)"/>
      </defs>
      <use xlink:href="#ArialMT-61"/>
      <use xlink:href="#ArialMT-76" x="55.615234"/>
      <use xlink:href="#ArialMT-65" x="105.615234"/>
      <use xlink:href="#ArialMT-72" x="161.230469"/>
      <use xlink:href="#ArialMT-61" x="194.53125"/>
      <use xlink:href="#ArialMT-67" x="250.146484"/>
      <use xlink:href="#ArialMT-65" x="305.761719"/>
      <use xlink:href="#ArialMT-20" x="361.376953"/>
      <use xlink:href="#ArialMT-6e" x="389.160156"/>
      <use xlink:href="#ArialMT-75" x="444.775391"/>
      <use xlink:href="#ArialMT-6d" x="500.390625"/>
      <use xlink:href="#ArialMT-62" x="583.691406"/>
      <use xlink:href="#ArialMT-65" x="639.306641"/>
      <use xlink:href="#ArialMT-72" x="694.921875"/>
      <use xlink:href="#ArialMT-20" x="728.222656"/>
      <use xlink:href="#ArialMT-6f" x="756.005859"/>
      <use xlink:href="#ArialMT-66" x="811.621094"/>
      <use xlink:href="#ArialMT-20" x="839.404297"/>
      <use xlink:href="#ArialMT-6f" x="867.1875"/>
      <use xlink:href="#ArialMT-70" x="922.802734"/>
      <use xlink:href="#ArialMT-74" x="978.417969"/>
      <use xlink:href="#ArialMT-69" x="1006.201172"/>
      <use xlink:href="#ArialMT-6f" x="1028.417969"/>
      <use xlink:href="#ArialMT-6e" x="1084.033203"/>
      <use xlink:href="#ArialMT-73" x="1139.648438"/>
     </g>
    </g>
   </g>
   <g id="matplotlib.axis_2">
    <g id="ytick_1">
     <g id="line2d_6">
      <defs>
       <path id="me767b7c816" d="M 0 0 
L -3.5 0 
" style="stroke: #000000; stroke-width: 0.8"/>
      </defs>
      <g>
       <use xlink:href="#me767b7c816" x="54.74" y="148.511786" style="stroke: #000000; stroke-width: 0.8"/>
      </g>
     </g>
     <g id="text_7">
      <!-- 70 -->
      <g transform="translate(34.39375 152.806473) scale(0.12 -0.12)">
       <defs>
        <path id="ArialMT-37" d="M 303 3981 
L 303 4522 
L 3269 4522 
L 3269 4084 
Q 2831 3619 2401 2847 
Q 1972 2075 1738 1259 
Q 1569 684 1522 0 
L 944 0 
Q 953 541 1156 1306 
Q 1359 2072 1739 2783 
Q 2119 3494 2547 3981 
L 303 3981 
z
" transform="scale(0.015625)"/>
        <path id="ArialMT-30" d="M 266 2259 
Q 266 3072 433 3567 
Q 600 4063 929 4331 
Q 1259 4600 1759 4600 
Q 2128 4600 2406 4451 
Q 2684 4303 2865 4023 
Q 3047 3744 3150 3342 
Q 3253 2941 3253 2259 
Q 3253 1453 3087 958 
Q 2922 463 2592 192 
Q 2263 -78 1759 -78 
Q 1097 -78 719 397 
Q 266 969 266 2259 
z
M 844 2259 
Q 844 1131 1108 757 
Q 1372 384 1759 384 
Q 2147 384 2411 759 
Q 2675 1134 2675 2259 
Q 2675 3391 2411 3762 
Q 2147 4134 1753 4134 
Q 1366 4134 1134 3806 
Q 844 3388 844 2259 
z
" transform="scale(0.015625)"/>
       </defs>
       <use xlink:href="#ArialMT-37"/>
       <use xlink:href="#ArialMT-30" x="55.615234"/>
      </g>
     </g>
    </g>
    <g id="ytick_2">
     <g id="line2d_7">
      <g>
       <use xlink:href="#me767b7c816" x="54.74" y="104.767857" style="stroke: #000000; stroke-width: 0.8"/>
      </g>
     </g>
     <g id="text_8">
      <!-- 80 -->
      <g transform="translate(34.39375 109.062545) scale(0.12 -0.12)">
       <defs>
        <path id="ArialMT-38" d="M 1131 2484 
Q 781 2613 612 2850 
Q 444 3088 444 3419 
Q 444 3919 803 4259 
Q 1163 4600 1759 4600 
Q 2359 4600 2725 4251 
Q 3091 3903 3091 3403 
Q 3091 3084 2923 2848 
Q 2756 2613 2416 2484 
Q 2838 2347 3058 2040 
Q 3278 1734 3278 1309 
Q 3278 722 2862 322 
Q 2447 -78 1769 -78 
Q 1091 -78 675 323 
Q 259 725 259 1325 
Q 259 1772 486 2073 
Q 713 2375 1131 2484 
z
M 1019 3438 
Q 1019 3113 1228 2906 
Q 1438 2700 1772 2700 
Q 2097 2700 2305 2904 
Q 2513 3109 2513 3406 
Q 2513 3716 2298 3927 
Q 2084 4138 1766 4138 
Q 1444 4138 1231 3931 
Q 1019 3725 1019 3438 
z
M 838 1322 
Q 838 1081 952 856 
Q 1066 631 1291 507 
Q 1516 384 1775 384 
Q 2178 384 2440 643 
Q 2703 903 2703 1303 
Q 2703 1709 2433 1975 
Q 2163 2241 1756 2241 
Q 1359 2241 1098 1978 
Q 838 1716 838 1322 
z
" transform="scale(0.015625)"/>
       </defs>
       <use xlink:href="#ArialMT-38"/>
       <use xlink:href="#ArialMT-30" x="55.615234"/>
      </g>
     </g>
    </g>
    <g id="ytick_3">
     <g id="line2d_8">
      <g>
       <use xlink:href="#me767b7c816" x="54.74" y="61.023929" style="stroke: #000000; stroke-width: 0.8"/>
      </g>
     </g>
     <g id="text_9">
      <!-- 90 -->
      <g transform="translate(34.39375 65.318616) scale(0.12 -0.12)">
       <defs>
        <path id="ArialMT-39" d="M 350 1059 
L 891 1109 
Q 959 728 1153 556 
Q 1347 384 1650 384 
Q 1909 384 2104 503 
Q 2300 622 2425 820 
Q 2550 1019 2634 1356 
Q 2719 1694 2719 2044 
Q 2719 2081 2716 2156 
Q 2547 1888 2255 1720 
Q 1963 1553 1622 1553 
Q 1053 1553 659 1965 
Q 266 2378 266 3053 
Q 266 3750 677 4175 
Q 1088 4600 1706 4600 
Q 2153 4600 2523 4359 
Q 2894 4119 3086 3673 
Q 3278 3228 3278 2384 
Q 3278 1506 3087 986 
Q 2897 466 2520 194 
Q 2144 -78 1638 -78 
Q 1100 -78 759 220 
Q 419 519 350 1059 
z
M 2653 3081 
Q 2653 3566 2395 3850 
Q 2138 4134 1775 4134 
Q 1400 4134 1122 3828 
Q 844 3522 844 3034 
Q 844 2597 1108 2323 
Q 1372 2050 1759 2050 
Q 2150 2050 2401 2323 
Q 2653 2597 2653 3081 
z
" transform="scale(0.015625)"/>
       </defs>
       <use xlink:href="#ArialMT-39"/>
       <use xlink:href="#ArialMT-30" x="55.615234"/>
      </g>
     </g>
    </g>
    <g id="ytick_4">
     <g id="line2d_9">
      <g>
       <use xlink:href="#me767b7c816" x="54.74" y="17.28" style="stroke: #000000; stroke-width: 0.8"/>
      </g>
     </g>
     <g id="text_10">
      <!-- 100 -->
      <g transform="translate(27.720625 21.574688) scale(0.12 -0.12)">
       <defs>
        <path id="ArialMT-31" d="M 2384 0 
L 1822 0 
L 1822 3584 
Q 1619 3391 1289 3197 
Q 959 3003 697 2906 
L 697 3450 
Q 1169 3672 1522 3987 
Q 1875 4303 2022 4600 
L 2384 4600 
L 2384 0 
z
" transform="scale(0.015625)"/>
       </defs>
       <use xlink:href="#ArialMT-31"/>
       <use xlink:href="#ArialMT-30" x="55.615234"/>
       <use xlink:href="#ArialMT-30" x="111.230469"/>
      </g>
     </g>
    </g>
    <g id="text_11">
     <!-- maximum sequence recovery [%] -->
     <g transform="translate(21.195 182.525938) rotate(-90) scale(0.12 -0.12)">
      <defs>
       <path id="ArialMT-78" d="M 47 0 
L 1259 1725 
L 138 3319 
L 841 3319 
L 1350 2541 
Q 1494 2319 1581 2169 
Q 1719 2375 1834 2534 
L 2394 3319 
L 3066 3319 
L 1919 1756 
L 3153 0 
L 2463 0 
L 1781 1031 
L 1600 1309 
L 728 0 
L 47 0 
z
" transform="scale(0.015625)"/>
       <path id="ArialMT-71" d="M 2538 -1272 
L 2538 353 
Q 2406 169 2170 47 
Q 1934 -75 1669 -75 
Q 1078 -75 651 397 
Q 225 869 225 1691 
Q 225 2191 398 2587 
Q 572 2984 901 3189 
Q 1231 3394 1625 3394 
Q 2241 3394 2594 2875 
L 2594 3319 
L 3100 3319 
L 3100 -1272 
L 2538 -1272 
z
M 803 1669 
Q 803 1028 1072 708 
Q 1341 388 1716 388 
Q 2075 388 2334 692 
Q 2594 997 2594 1619 
Q 2594 2281 2320 2615 
Q 2047 2950 1678 2950 
Q 1313 2950 1058 2639 
Q 803 2328 803 1669 
z
" transform="scale(0.015625)"/>
       <path id="ArialMT-63" d="M 2588 1216 
L 3141 1144 
Q 3050 572 2676 248 
Q 2303 -75 1759 -75 
Q 1078 -75 664 370 
Q 250 816 250 1647 
Q 250 2184 428 2587 
Q 606 2991 970 3192 
Q 1334 3394 1763 3394 
Q 2303 3394 2647 3120 
Q 2991 2847 3088 2344 
L 2541 2259 
Q 2463 2594 2264 2762 
Q 2066 2931 1784 2931 
Q 1359 2931 1093 2626 
Q 828 2322 828 1663 
Q 828 994 1084 691 
Q 1341 388 1753 388 
Q 2084 388 2306 591 
Q 2528 794 2588 1216 
z
" transform="scale(0.015625)"/>
       <path id="ArialMT-79" d="M 397 -1278 
L 334 -750 
Q 519 -800 656 -800 
Q 844 -800 956 -737 
Q 1069 -675 1141 -563 
Q 1194 -478 1313 -144 
Q 1328 -97 1363 -6 
L 103 3319 
L 709 3319 
L 1400 1397 
Q 1534 1031 1641 628 
Q 1738 1016 1872 1384 
L 2581 3319 
L 3144 3319 
L 1881 -56 
Q 1678 -603 1566 -809 
Q 1416 -1088 1222 -1217 
Q 1028 -1347 759 -1347 
Q 597 -1347 397 -1278 
z
" transform="scale(0.015625)"/>
       <path id="ArialMT-5b" d="M 434 -1272 
L 434 4581 
L 1675 4581 
L 1675 4116 
L 997 4116 
L 997 -806 
L 1675 -806 
L 1675 -1272 
L 434 -1272 
z
" transform="scale(0.015625)"/>
       <path id="ArialMT-25" d="M 372 3481 
Q 372 3972 619 4315 
Q 866 4659 1334 4659 
Q 1766 4659 2048 4351 
Q 2331 4044 2331 3447 
Q 2331 2866 2045 2552 
Q 1759 2238 1341 2238 
Q 925 2238 648 2547 
Q 372 2856 372 3481 
z
M 1350 4272 
Q 1141 4272 1002 4090 
Q 863 3909 863 3425 
Q 863 2984 1003 2804 
Q 1144 2625 1350 2625 
Q 1563 2625 1702 2806 
Q 1841 2988 1841 3469 
Q 1841 3913 1700 4092 
Q 1559 4272 1350 4272 
z
M 1353 -169 
L 3859 4659 
L 4316 4659 
L 1819 -169 
L 1353 -169 
z
M 3334 1075 
Q 3334 1569 3581 1911 
Q 3828 2253 4300 2253 
Q 4731 2253 5014 1945 
Q 5297 1638 5297 1041 
Q 5297 459 5011 145 
Q 4725 -169 4303 -169 
Q 3888 -169 3611 142 
Q 3334 453 3334 1075 
z
M 4316 1866 
Q 4103 1866 3964 1684 
Q 3825 1503 3825 1019 
Q 3825 581 3965 400 
Q 4106 219 4313 219 
Q 4528 219 4667 400 
Q 4806 581 4806 1063 
Q 4806 1506 4665 1686 
Q 4525 1866 4316 1866 
z
" transform="scale(0.015625)"/>
       <path id="ArialMT-5d" d="M 1363 -1272 
L 122 -1272 
L 122 -806 
L 800 -806 
L 800 4116 
L 122 4116 
L 122 4581 
L 1363 4581 
L 1363 -1272 
z
" transform="scale(0.015625)"/>
      </defs>
      <use xlink:href="#ArialMT-6d"/>
      <use xlink:href="#ArialMT-61" x="83.300781"/>
      <use xlink:href="#ArialMT-78" x="138.916016"/>
      <use xlink:href="#ArialMT-69" x="188.916016"/>
      <use xlink:href="#ArialMT-6d" x="211.132812"/>
      <use xlink:href="#ArialMT-75" x="294.433594"/>
      <use xlink:href="#ArialMT-6d" x="350.048828"/>
      <use xlink:href="#ArialMT-20" x="433.349609"/>
      <use xlink:href="#ArialMT-73" x="461.132812"/>
      <use xlink:href="#ArialMT-65" x="511.132812"/>
      <use xlink:href="#ArialMT-71" x="566.748047"/>
      <use xlink:href="#ArialMT-75" x="622.363281"/>
      <use xlink:href="#ArialMT-65" x="677.978516"/>
      <use xlink:href="#ArialMT-6e" x="733.59375"/>
      <use xlink:href="#ArialMT-63" x="789.208984"/>
      <use xlink:href="#ArialMT-65" x="839.208984"/>
      <use xlink:href="#ArialMT-20" x="894.824219"/>
      <use xlink:href="#ArialMT-72" x="922.607422"/>
      <use xlink:href="#ArialMT-65" x="955.908203"/>
      <use xlink:href="#ArialMT-63" x="1011.523438"/>
      <use xlink:href="#ArialMT-6f" x="1061.523438"/>
      <use xlink:href="#ArialMT-76" x="1117.138672"/>
      <use xlink:href="#ArialMT-65" x="1167.138672"/>
      <use xlink:href="#ArialMT-72" x="1222.753906"/>
      <use xlink:href="#ArialMT-79" x="1256.054688"/>
      <use xlink:href="#ArialMT-20" x="1306.054688"/>
      <use xlink:href="#ArialMT-5b" x="1333.837891"/>
      <use xlink:href="#ArialMT-25" x="1361.621094"/>
      <use xlink:href="#ArialMT-5d" x="1450.537109"/>
     </g>
    </g>
   </g>
   <g id="line2d_10">
    <defs>
     <path id="maed82e056a" d="M 0 1.5 
C 0.397805 1.5 0.77937 1.341951 1.06066 1.06066 
C 1.341951 0.77937 1.5 0.397805 1.5 0 
C 1.5 -0.397805 1.341951 -0.77937 1.06066 -1.06066 
C 0.77937 -1.341951 0.397805 -1.5 0 -1.5 
C -0.397805 -1.5 -0.77937 -1.341951 -1.06066 -1.06066 
C -1.341951 -0.77937 -1.5 -0.397805 -1.5 0 
C -1.5 0.397805 -1.341951 0.77937 -1.06066 1.06066 
C -0.77937 1.341951 -0.397805 1.5 0 1.5 
z
" style="stroke: #0d3b66"/>
    </defs>
    <g clip-path="url(#pf5cb4d7ca6)">
     <use xlink:href="#maed82e056a" x="113.509259" y="59.00497" style="fill: #0d3b66; stroke: #0d3b66"/>
     <use xlink:href="#maed82e056a" x="129.027213" y="41.017035" style="fill: #0d3b66; stroke: #0d3b66"/>
     <use xlink:href="#maed82e056a" x="177.785618" y="81.295511" style="fill: #0d3b66; stroke: #0d3b66"/>
     <use xlink:href="#maed82e056a" x="160.124123" y="76.184655" style="fill: #0d3b66; stroke: #0d3b66"/>
     <use xlink:href="#maed82e056a" x="123.003364" y="64.358689" style="fill: #0d3b66; stroke: #0d3b66"/>
     <use xlink:href="#maed82e056a" x="135.149502" y="95.654528" style="fill: #0d3b66; stroke: #0d3b66"/>
     <use xlink:href="#maed82e056a" x="152.925436" y="64.417861" style="fill: #0d3b66; stroke: #0d3b66"/>
     <use xlink:href="#maed82e056a" x="130.333139" y="85.897915" style="fill: #0d3b66; stroke: #0d3b66"/>
     <use xlink:href="#maed82e056a" x="151.941753" y="77.985881" style="fill: #0d3b66; stroke: #0d3b66"/>
     <use xlink:href="#maed82e056a" x="161.232844" y="76.066311" style="fill: #0d3b66; stroke: #0d3b66"/>
     <use xlink:href="#maed82e056a" x="115.362702" y="55.595853" style="fill: #0d3b66; stroke: #0d3b66"/>
     <use xlink:href="#maed82e056a" x="143.922542" y="55.25704" style="fill: #0d3b66; stroke: #0d3b66"/>
     <use xlink:href="#maed82e056a" x="163.976835" y="85.275724" style="fill: #0d3b66; stroke: #0d3b66"/>
     <use xlink:href="#maed82e056a" x="119.588878" y="48.085575" style="fill: #0d3b66; stroke: #0d3b66"/>
     <use xlink:href="#maed82e056a" x="133.214438" y="62.206201" style="fill: #0d3b66; stroke: #0d3b66"/>
     <use xlink:href="#maed82e056a" x="143.080305" y="74.147107" style="fill: #0d3b66; stroke: #0d3b66"/>
     <use xlink:href="#maed82e056a" x="139.35991" y="72.470933" style="fill: #0d3b66; stroke: #0d3b66"/>
     <use xlink:href="#maed82e056a" x="149.293544" y="98.574049" style="fill: #0d3b66; stroke: #0d3b66"/>
     <use xlink:href="#maed82e056a" x="162.246403" y="82.895893" style="fill: #0d3b66; stroke: #0d3b66"/>
     <use xlink:href="#maed82e056a" x="137.835612" y="78.674987" style="fill: #0d3b66; stroke: #0d3b66"/>
     <use xlink:href="#maed82e056a" x="163.877124" y="107.784664" style="fill: #0d3b66; stroke: #0d3b66"/>
     <use xlink:href="#maed82e056a" x="153.027689" y="109.815236" style="fill: #0d3b66; stroke: #0d3b66"/>
     <use xlink:href="#maed82e056a" x="91.718924" y="44.619955" style="fill: #0d3b66; stroke: #0d3b66"/>
     <use xlink:href="#maed82e056a" x="167.360648" y="90.867899" style="fill: #0d3b66; stroke: #0d3b66"/>
     <use xlink:href="#maed82e056a" x="146.110329" y="98.552857" style="fill: #0d3b66; stroke: #0d3b66"/>
     <use xlink:href="#maed82e056a" x="127.559168" y="74.544791" style="fill: #0d3b66; stroke: #0d3b66"/>
     <use xlink:href="#maed82e056a" x="145.138968" y="87.672542" style="fill: #0d3b66; stroke: #0d3b66"/>
     <use xlink:href="#maed82e056a" x="153.409578" y="81.971734" style="fill: #0d3b66; stroke: #0d3b66"/>
     <use xlink:href="#maed82e056a" x="166.125334" y="78.603266" style="fill: #0d3b66; stroke: #0d3b66"/>
     <use xlink:href="#maed82e056a" x="128.559827" y="72.096944" style="fill: #0d3b66; stroke: #0d3b66"/>
     <use xlink:href="#maed82e056a" x="125.684064" y="64.545683" style="fill: #0d3b66; stroke: #0d3b66"/>
     <use xlink:href="#maed82e056a" x="227.775639" y="148.511786" style="fill: #0d3b66; stroke: #0d3b66"/>
     <use xlink:href="#maed82e056a" x="161.960474" y="83.593943" style="fill: #0d3b66; stroke: #0d3b66"/>
     <use xlink:href="#maed82e056a" x="216.864972" y="106.339504" style="fill: #0d3b66; stroke: #0d3b66"/>
     <use xlink:href="#maed82e056a" x="244.572985" y="166.195517" style="fill: #0d3b66; stroke: #0d3b66"/>
     <use xlink:href="#maed82e056a" x="154.3079" y="84.137538" style="fill: #0d3b66; stroke: #0d3b66"/>
     <use xlink:href="#maed82e056a" x="139.559343" y="91.964768" style="fill: #0d3b66; stroke: #0d3b66"/>
     <use xlink:href="#maed82e056a" x="204.616235" y="74.649085" style="fill: #0d3b66; stroke: #0d3b66"/>
     <use xlink:href="#maed82e056a" x="168.712564" y="97.177582" style="fill: #0d3b66; stroke: #0d3b66"/>
     <use xlink:href="#maed82e056a" x="197.55517" y="130.410846" style="fill: #0d3b66; stroke: #0d3b66"/>
     <use xlink:href="#maed82e056a" x="156.893343" y="81.884027" style="fill: #0d3b66; stroke: #0d3b66"/>
     <use xlink:href="#maed82e056a" x="196.248026" y="147.329513" style="fill: #0d3b66; stroke: #0d3b66"/>
     <use xlink:href="#maed82e056a" x="66.220422" y="48.085575" style="fill: #0d3b66; stroke: #0d3b66"/>
     <use xlink:href="#maed82e056a" x="133.788825" y="77.320671" style="fill: #0d3b66; stroke: #0d3b66"/>
     <use xlink:href="#maed82e056a" x="143.948941" y="73.831089" style="fill: #0d3b66; stroke: #0d3b66"/>
     <use xlink:href="#maed82e056a" x="175.333858" y="104.767857" style="fill: #0d3b66; stroke: #0d3b66"/>
     <use xlink:href="#maed82e056a" x="151.016886" y="86.147986" style="fill: #0d3b66; stroke: #0d3b66"/>
     <use xlink:href="#maed82e056a" x="216.817848" y="126.639821" style="fill: #0d3b66; stroke: #0d3b66"/>
     <use xlink:href="#maed82e056a" x="141.124305" y="65.000671" style="fill: #0d3b66; stroke: #0d3b66"/>
     <use xlink:href="#maed82e056a" x="134.645422" y="52.49758" style="fill: #0d3b66; stroke: #0d3b66"/>
     <use xlink:href="#maed82e056a" x="124.960625" y="85.629888" style="fill: #0d3b66; stroke: #0d3b66"/>
     <use xlink:href="#maed82e056a" x="268.675777" y="159.852828" style="fill: #0d3b66; stroke: #0d3b66"/>
     <use xlink:href="#maed82e056a" x="136.584783" y="54.396059" style="fill: #0d3b66; stroke: #0d3b66"/>
     <use xlink:href="#maed82e056a" x="197.393271" y="53.135691" style="fill: #0d3b66; stroke: #0d3b66"/>
     <use xlink:href="#maed82e056a" x="185.30805" y="102.633992" style="fill: #0d3b66; stroke: #0d3b66"/>
     <use xlink:href="#maed82e056a" x="159.3825" y="79.771322" style="fill: #0d3b66; stroke: #0d3b66"/>
     <use xlink:href="#maed82e056a" x="144.061635" y="86.209828" style="fill: #0d3b66; stroke: #0d3b66"/>
     <use xlink:href="#maed82e056a" x="144.670689" y="50.237762" style="fill: #0d3b66; stroke: #0d3b66"/>
     <use xlink:href="#maed82e056a" x="136.434587" y="77.427902" style="fill: #0d3b66; stroke: #0d3b66"/>
     <use xlink:href="#maed82e056a" x="132.149028" y="68.361029" style="fill: #0d3b66; stroke: #0d3b66"/>
     <use xlink:href="#maed82e056a" x="161.301398" y="96.454535" style="fill: #0d3b66; stroke: #0d3b66"/>
     <use xlink:href="#maed82e056a" x="158.080723" y="104.767857" style="fill: #0d3b66; stroke: #0d3b66"/>
     <use xlink:href="#maed82e056a" x="210.555416" y="112.914476" style="fill: #0d3b66; stroke: #0d3b66"/>
     <use xlink:href="#maed82e056a" x="128.96012" y="66.752303" style="fill: #0d3b66; stroke: #0d3b66"/>
     <use xlink:href="#maed82e056a" x="135.981066" y="70.879262" style="fill: #0d3b66; stroke: #0d3b66"/>
     <use xlink:href="#maed82e056a" x="214.164838" y="118.715206" style="fill: #0d3b66; stroke: #0d3b66"/>
     <use xlink:href="#maed82e056a" x="119.919671" y="76.930797" style="fill: #0d3b66; stroke: #0d3b66"/>
     <use xlink:href="#maed82e056a" x="143.291965" y="77.320671" style="fill: #0d3b66; stroke: #0d3b66"/>
     <use xlink:href="#maed82e056a" x="152.816618" y="85.775833" style="fill: #0d3b66; stroke: #0d3b66"/>
     <use xlink:href="#maed82e056a" x="151.855583" y="102.945205" style="fill: #0d3b66; stroke: #0d3b66"/>
     <use xlink:href="#maed82e056a" x="146.249233" y="101.40296" style="fill: #0d3b66; stroke: #0d3b66"/>
     <use xlink:href="#maed82e056a" x="131.294248" y="73.782563" style="fill: #0d3b66; stroke: #0d3b66"/>
     <use xlink:href="#maed82e056a" x="149.475423" y="64.467321" style="fill: #0d3b66; stroke: #0d3b66"/>
     <use xlink:href="#maed82e056a" x="171.903625" y="97.625995" style="fill: #0d3b66; stroke: #0d3b66"/>
     <use xlink:href="#maed82e056a" x="150.203337" y="83.79125" style="fill: #0d3b66; stroke: #0d3b66"/>
     <use xlink:href="#maed82e056a" x="145.289165" y="80.484156" style="fill: #0d3b66; stroke: #0d3b66"/>
     <use xlink:href="#maed82e056a" x="151.888694" y="69.868331" style="fill: #0d3b66; stroke: #0d3b66"/>
     <use xlink:href="#maed82e056a" x="132.407812" y="79.543244" style="fill: #0d3b66; stroke: #0d3b66"/>
     <use xlink:href="#maed82e056a" x="218.047405" y="132.395596" style="fill: #0d3b66; stroke: #0d3b66"/>
     <use xlink:href="#maed82e056a" x="141.810956" y="68.80794" style="fill: #0d3b66; stroke: #0d3b66"/>
     <use xlink:href="#maed82e056a" x="119.639185" y="62.206201" style="fill: #0d3b66; stroke: #0d3b66"/>
     <use xlink:href="#maed82e056a" x="111.608135" y="51.190022" style="fill: #0d3b66; stroke: #0d3b66"/>
     <use xlink:href="#maed82e056a" x="205.151723" y="85.158514" style="fill: #0d3b66; stroke: #0d3b66"/>
     <use xlink:href="#maed82e056a" x="172.062562" y="97.210756" style="fill: #0d3b66; stroke: #0d3b66"/>
     <use xlink:href="#maed82e056a" x="168.209597" y="65.218536" style="fill: #0d3b66; stroke: #0d3b66"/>
     <use xlink:href="#maed82e056a" x="172.541136" y="98.481303" style="fill: #0d3b66; stroke: #0d3b66"/>
     <use xlink:href="#maed82e056a" x="181.334933" y="81.971734" style="fill: #0d3b66; stroke: #0d3b66"/>
     <use xlink:href="#maed82e056a" x="117.273584" y="68.281899" style="fill: #0d3b66; stroke: #0d3b66"/>
     <use xlink:href="#maed82e056a" x="153.232867" y="87.897983" style="fill: #0d3b66; stroke: #0d3b66"/>
     <use xlink:href="#maed82e056a" x="136.584783" y="57.047187" style="fill: #0d3b66; stroke: #0d3b66"/>
     <use xlink:href="#maed82e056a" x="141.970901" y="70.243487" style="fill: #0d3b66; stroke: #0d3b66"/>
     <use xlink:href="#maed82e056a" x="145.621093" y="84.937278" style="fill: #0d3b66; stroke: #0d3b66"/>
     <use xlink:href="#maed82e056a" x="144.155884" y="103.052402" style="fill: #0d3b66; stroke: #0d3b66"/>
     <use xlink:href="#maed82e056a" x="177.902536" y="96.608356" style="fill: #0d3b66; stroke: #0d3b66"/>
     <use xlink:href="#maed82e056a" x="143.054957" y="114.058603" style="fill: #0d3b66; stroke: #0d3b66"/>
     <use xlink:href="#maed82e056a" x="215.834375" y="112.969844" style="fill: #0d3b66; stroke: #0d3b66"/>
     <use xlink:href="#maed82e056a" x="177.564788" y="113.157105" style="fill: #0d3b66; stroke: #0d3b66"/>
     <use xlink:href="#maed82e056a" x="167.668562" y="107.920562" style="fill: #0d3b66; stroke: #0d3b66"/>
     <use xlink:href="#maed82e056a" x="132.672215" y="66.556765" style="fill: #0d3b66; stroke: #0d3b66"/>
     <use xlink:href="#maed82e056a" x="174.264477" y="156.888285" style="fill: #0d3b66; stroke: #0d3b66"/>
    </g>
   </g>
   <g id="line2d_11">
    <defs>
     <path id="m16389b5d58" d="M 0 1.5 
C 0.397805 1.5 0.77937 1.341951 1.06066 1.06066 
C 1.341951 0.77937 1.5 0.397805 1.5 0 
C 1.5 -0.397805 1.341951 -0.77937 1.06066 -1.06066 
C 0.77937 -1.341951 0.397805 -1.5 0 -1.5 
C -0.397805 -1.5 -0.77937 -1.341951 -1.06066 -1.06066 
C -1.341951 -0.77937 -1.5 -0.397805 -1.5 0 
C -1.5 0.397805 -1.341951 0.77937 -1.06066 1.06066 
C -0.77937 1.341951 -0.397805 1.5 0 1.5 
z
" style="stroke: #bf4e30"/>
    </defs>
    <g clip-path="url(#pf5cb4d7ca6)">
     <use xlink:href="#m16389b5d58" x="121.372275" y="63.042887" style="fill: #bf4e30; stroke: #bf4e30"/>
     <use xlink:href="#m16389b5d58" x="129.368764" y="41.017035" style="fill: #bf4e30; stroke: #bf4e30"/>
     <use xlink:href="#m16389b5d58" x="160.591468" y="102.633992" style="fill: #bf4e30; stroke: #bf4e30"/>
     <use xlink:href="#m16389b5d58" x="139.698961" y="80.047224" style="fill: #bf4e30; stroke: #bf4e30"/>
     <use xlink:href="#m16389b5d58" x="136.636278" y="76.128353" style="fill: #bf4e30; stroke: #bf4e30"/>
     <use xlink:href="#m16389b5d58" x="139.004746" y="86.541231" style="fill: #bf4e30; stroke: #bf4e30"/>
     <use xlink:href="#m16389b5d58" x="156.153968" y="102.128143" style="fill: #bf4e30; stroke: #bf4e30"/>
     <use xlink:href="#m16389b5d58" x="131.197058" y="77.320671" style="fill: #bf4e30; stroke: #bf4e30"/>
     <use xlink:href="#m16389b5d58" x="135.756444" y="86.913184" style="fill: #bf4e30; stroke: #bf4e30"/>
     <use xlink:href="#m16389b5d58" x="135.284467" y="86.440342" style="fill: #bf4e30; stroke: #bf4e30"/>
     <use xlink:href="#m16389b5d58" x="123.242042" y="60.385318" style="fill: #bf4e30; stroke: #bf4e30"/>
     <use xlink:href="#m16389b5d58" x="139.955728" y="55.25704" style="fill: #bf4e30; stroke: #bf4e30"/>
     <use xlink:href="#m16389b5d58" x="151.649175" y="119.273619" style="fill: #bf4e30; stroke: #bf4e30"/>
     <use xlink:href="#m16389b5d58" x="111.521545" y="35.763338" style="fill: #bf4e30; stroke: #bf4e30"/>
     <use xlink:href="#m16389b5d58" x="123.449783" y="59.841656" style="fill: #bf4e30; stroke: #bf4e30"/>
     <use xlink:href="#m16389b5d58" x="140.436697" y="87.270286" style="fill: #bf4e30; stroke: #bf4e30"/>
     <use xlink:href="#m16389b5d58" x="146.87481" y="75.5371" style="fill: #bf4e30; stroke: #bf4e30"/>
     <use xlink:href="#m16389b5d58" x="134.476906" y="121.800896" style="fill: #bf4e30; stroke: #bf4e30"/>
     <use xlink:href="#m16389b5d58" x="146.605102" y="87.270286" style="fill: #bf4e30; stroke: #bf4e30"/>
     <use xlink:href="#m16389b5d58" x="152.006956" y="86.349364" style="fill: #bf4e30; stroke: #bf4e30"/>
     <use xlink:href="#m16389b5d58" x="158.812755" y="127.896819" style="fill: #bf4e30; stroke: #bf4e30"/>
     <use xlink:href="#m16389b5d58" x="133.539611" y="109.815236" style="fill: #bf4e30; stroke: #bf4e30"/>
     <use xlink:href="#m16389b5d58" x="121.223391" y="52.431366" style="fill: #bf4e30; stroke: #bf4e30"/>
     <use xlink:href="#m16389b5d58" x="162.831116" y="94.956144" style="fill: #bf4e30; stroke: #bf4e30"/>
     <use xlink:href="#m16389b5d58" x="141.054259" y="93.772136" style="fill: #bf4e30; stroke: #bf4e30"/>
     <use xlink:href="#m16389b5d58" x="134.448543" y="80.907539" style="fill: #bf4e30; stroke: #bf4e30"/>
     <use xlink:href="#m16389b5d58" x="155.774138" y="117.840741" style="fill: #bf4e30; stroke: #bf4e30"/>
     <use xlink:href="#m16389b5d58" x="155.271267" y="88.132836" style="fill: #bf4e30; stroke: #bf4e30"/>
     <use xlink:href="#m16389b5d58" x="162.419342" y="94.956144" style="fill: #bf4e30; stroke: #bf4e30"/>
     <use xlink:href="#m16389b5d58" x="138.277315" y="81.963992" style="fill: #bf4e30; stroke: #bf4e30"/>
     <use xlink:href="#m16389b5d58" x="139.686187" y="89.568684" style="fill: #bf4e30; stroke: #bf4e30"/>
     <use xlink:href="#m16389b5d58" x="173.701992" y="128.628176" style="fill: #bf4e30; stroke: #bf4e30"/>
     <use xlink:href="#m16389b5d58" x="147.078508" y="97.554775" style="fill: #bf4e30; stroke: #bf4e30"/>
     <use xlink:href="#m16389b5d58" x="164.626163" y="101.100692" style="fill: #bf4e30; stroke: #bf4e30"/>
     <use xlink:href="#m16389b5d58" x="123.642345" y="138.273854" style="fill: #bf4e30; stroke: #bf4e30"/>
     <use xlink:href="#m16389b5d58" x="155.077507" y="89.868182" style="fill: #bf4e30; stroke: #bf4e30"/>
     <use xlink:href="#m16389b5d58" x="135.874874" y="81.295511" style="fill: #bf4e30; stroke: #bf4e30"/>
     <use xlink:href="#m16389b5d58" x="172.112942" y="96.162513" style="fill: #bf4e30; stroke: #bf4e30"/>
     <use xlink:href="#m16389b5d58" x="154.629449" y="125.141731" style="fill: #bf4e30; stroke: #bf4e30"/>
     <use xlink:href="#m16389b5d58" x="141.340691" y="115.326713" style="fill: #bf4e30; stroke: #bf4e30"/>
     <use xlink:href="#m16389b5d58" x="157.20694" y="96.672901" style="fill: #bf4e30; stroke: #bf4e30"/>
     <use xlink:href="#m16389b5d58" x="158.142071" y="127.625054" style="fill: #bf4e30; stroke: #bf4e30"/>
     <use xlink:href="#m16389b5d58" x="113.383244" y="29.602237" style="fill: #bf4e30; stroke: #bf4e30"/>
     <use xlink:href="#m16389b5d58" x="130.333139" y="77.320671" style="fill: #bf4e30; stroke: #bf4e30"/>
     <use xlink:href="#m16389b5d58" x="150.315023" y="73.831089" style="fill: #bf4e30; stroke: #bf4e30"/>
     <use xlink:href="#m16389b5d58" x="156.077998" y="98.287266" style="fill: #bf4e30; stroke: #bf4e30"/>
     <use xlink:href="#m16389b5d58" x="157.696534" y="86.147986" style="fill: #bf4e30; stroke: #bf4e30"/>
     <use xlink:href="#m16389b5d58" x="144.433576" y="103.205588" style="fill: #bf4e30; stroke: #bf4e30"/>
     <use xlink:href="#m16389b5d58" x="140.323215" y="67.651799" style="fill: #bf4e30; stroke: #bf4e30"/>
     <use xlink:href="#m16389b5d58" x="121.20339" y="59.911808" style="fill: #bf4e30; stroke: #bf4e30"/>
     <use xlink:href="#m16389b5d58" x="123.58375" y="112.969844" style="fill: #bf4e30; stroke: #bf4e30"/>
     <use xlink:href="#m16389b5d58" x="148.571481" y="127.449908" style="fill: #bf4e30; stroke: #bf4e30"/>
     <use xlink:href="#m16389b5d58" x="133.380423" y="65.000671" style="fill: #bf4e30; stroke: #bf4e30"/>
     <use xlink:href="#m16389b5d58" x="169.94607" y="103.333644" style="fill: #bf4e30; stroke: #bf4e30"/>
     <use xlink:href="#m16389b5d58" x="155.218291" y="113.303283" style="fill: #bf4e30; stroke: #bf4e30"/>
     <use xlink:href="#m16389b5d58" x="133.418576" y="111.016999" style="fill: #bf4e30; stroke: #bf4e30"/>
     <use xlink:href="#m16389b5d58" x="140.590245" y="78.256377" style="fill: #bf4e30; stroke: #bf4e30"/>
     <use xlink:href="#m16389b5d58" x="149.800964" y="71.210865" style="fill: #bf4e30; stroke: #bf4e30"/>
     <use xlink:href="#m16389b5d58" x="142.86" y="82.895893" style="fill: #bf4e30; stroke: #bf4e30"/>
     <use xlink:href="#m16389b5d58" x="143.093867" y="89.722171" style="fill: #bf4e30; stroke: #bf4e30"/>
     <use xlink:href="#m16389b5d58" x="158.510272" y="96.454535" style="fill: #bf4e30; stroke: #bf4e30"/>
     <use xlink:href="#m16389b5d58" x="158.481268" y="124.651467" style="fill: #bf4e30; stroke: #bf4e30"/>
     <use xlink:href="#m16389b5d58" x="185.938901" y="114.685499" style="fill: #bf4e30; stroke: #bf4e30"/>
     <use xlink:href="#m16389b5d58" x="136.390877" y="84.111006" style="fill: #bf4e30; stroke: #bf4e30"/>
     <use xlink:href="#m16389b5d58" x="135.981066" y="91.627391" style="fill: #bf4e30; stroke: #bf4e30"/>
     <use xlink:href="#m16389b5d58" x="176.06463" y="102.865941" style="fill: #bf4e30; stroke: #bf4e30"/>
     <use xlink:href="#m16389b5d58" x="132.30017" y="78.738431" style="fill: #bf4e30; stroke: #bf4e30"/>
     <use xlink:href="#m16389b5d58" x="134.652744" y="68.743428" style="fill: #bf4e30; stroke: #bf4e30"/>
     <use xlink:href="#m16389b5d58" x="134.628153" y="85.775833" style="fill: #bf4e30; stroke: #bf4e30"/>
     <use xlink:href="#m16389b5d58" x="137.3525" y="82.895893" style="fill: #bf4e30; stroke: #bf4e30"/>
     <use xlink:href="#m16389b5d58" x="133.539611" y="101.40296" style="fill: #bf4e30; stroke: #bf4e30"/>
     <use xlink:href="#m16389b5d58" x="139.188337" y="88.363884" style="fill: #bf4e30; stroke: #bf4e30"/>
     <use xlink:href="#m16389b5d58" x="157.311168" y="92.52465" style="fill: #bf4e30; stroke: #bf4e30"/>
     <use xlink:href="#m16389b5d58" x="131.80004" y="79.771322" style="fill: #bf4e30; stroke: #bf4e30"/>
     <use xlink:href="#m16389b5d58" x="149.945677" y="91.465627" style="fill: #bf4e30; stroke: #bf4e30"/>
     <use xlink:href="#m16389b5d58" x="148.63973" y="78.820898" style="fill: #bf4e30; stroke: #bf4e30"/>
     <use xlink:href="#m16389b5d58" x="143.221152" y="88.991348" style="fill: #bf4e30; stroke: #bf4e30"/>
     <use xlink:href="#m16389b5d58" x="124.850073" y="57.19233" style="fill: #bf4e30; stroke: #bf4e30"/>
     <use xlink:href="#m16389b5d58" x="186.652424" y="107.601474" style="fill: #bf4e30; stroke: #bf4e30"/>
     <use xlink:href="#m16389b5d58" x="136.952207" y="86.349364" style="fill: #bf4e30; stroke: #bf4e30"/>
     <use xlink:href="#m16389b5d58" x="123.21162" y="64.570747" style="fill: #bf4e30; stroke: #bf4e30"/>
     <use xlink:href="#m16389b5d58" x="132.101158" y="41.017035" style="fill: #bf4e30; stroke: #bf4e30"/>
     <use xlink:href="#m16389b5d58" x="142.10034" y="115.326713" style="fill: #bf4e30; stroke: #bf4e30"/>
     <use xlink:href="#m16389b5d58" x="132.68668" y="87.037736" style="fill: #bf4e30; stroke: #bf4e30"/>
     <use xlink:href="#m16389b5d58" x="150.102744" y="53.23391" style="fill: #bf4e30; stroke: #bf4e30"/>
     <use xlink:href="#m16389b5d58" x="165.681489" y="103.720081" style="fill: #bf4e30; stroke: #bf4e30"/>
     <use xlink:href="#m16389b5d58" x="156.822678" y="85.052285" style="fill: #bf4e30; stroke: #bf4e30"/>
     <use xlink:href="#m16389b5d58" x="128.337977" y="68.281899" style="fill: #bf4e30; stroke: #bf4e30"/>
     <use xlink:href="#m16389b5d58" x="131.894393" y="91.821227" style="fill: #bf4e30; stroke: #bf4e30"/>
     <use xlink:href="#m16389b5d58" x="133.647453" y="70.30296" style="fill: #bf4e30; stroke: #bf4e30"/>
     <use xlink:href="#m16389b5d58" x="137.821746" y="78.089941" style="fill: #bf4e30; stroke: #bf4e30"/>
     <use xlink:href="#m16389b5d58" x="146.67853" y="82.604271" style="fill: #bf4e30; stroke: #bf4e30"/>
     <use xlink:href="#m16389b5d58" x="131.197058" y="68.743428" style="fill: #bf4e30; stroke: #bf4e30"/>
     <use xlink:href="#m16389b5d58" x="152.790618" y="119.273619" style="fill: #bf4e30; stroke: #bf4e30"/>
     <use xlink:href="#m16389b5d58" x="143.444871" y="129.54319" style="fill: #bf4e30; stroke: #bf4e30"/>
     <use xlink:href="#m16389b5d58" x="138.729375" y="112.969844" style="fill: #bf4e30; stroke: #bf4e30"/>
     <use xlink:href="#m16389b5d58" x="156.037765" y="123.144299" style="fill: #bf4e30; stroke: #bf4e30"/>
     <use xlink:href="#m16389b5d58" x="155.760451" y="111.861461" style="fill: #bf4e30; stroke: #bf4e30"/>
     <use xlink:href="#m16389b5d58" x="141.292653" y="84.711337" style="fill: #bf4e30; stroke: #bf4e30"/>
     <use xlink:href="#m16389b5d58" x="106.768294" y="119.659389" style="fill: #bf4e30; stroke: #bf4e30"/>
    </g>
   </g>
   <g id="patch_3">
    <path d="M 54.74 170.38375 
L 54.74 17.28 
" style="fill: none; stroke: #000000; stroke-width: 0.8; stroke-linejoin: miter; stroke-linecap: square"/>
   </g>
   <g id="patch_4">
    <path d="M 275.04 170.38375 
L 275.04 17.28 
" style="fill: none; stroke: #000000; stroke-width: 0.8; stroke-linejoin: miter; stroke-linecap: square"/>
   </g>
   <g id="patch_5">
    <path d="M 54.74 170.38375 
L 275.04 170.38375 
" style="fill: none; stroke: #000000; stroke-width: 0.8; stroke-linejoin: miter; stroke-linecap: square"/>
   </g>
   <g id="patch_6">
    <path d="M 54.74 17.28 
L 275.04 17.28 
" style="fill: none; stroke: #000000; stroke-width: 0.8; stroke-linejoin: miter; stroke-linecap: square"/>
   </g>
   <g id="legend_1">
    <g id="patch_7">
     <path d="M 153.77125 49.687813 
L 268.04 49.687813 
Q 270.04 49.687813 270.04 47.687813 
L 270.04 24.28 
Q 270.04 22.28 268.04 22.28 
L 153.77125 22.28 
Q 151.77125 22.28 151.77125 24.28 
L 151.77125 47.687813 
Q 151.77125 49.687813 153.77125 49.687813 
z
" style="fill: #ffffff; opacity: 0.8; stroke: #cccccc; stroke-linejoin: miter"/>
    </g>
    <g id="line2d_12">
     <g>
      <use xlink:href="#maed82e056a" x="165.77125" y="29.937813" style="fill: #0d3b66; stroke: #0d3b66"/>
     </g>
    </g>
    <g id="text_12">
     <!-- reference -->
     <g transform="translate(183.77125 33.437813) scale(0.1 -0.1)">
      <use xlink:href="#ArialMT-72"/>
      <use xlink:href="#ArialMT-65" x="33.300781"/>
      <use xlink:href="#ArialMT-66" x="88.916016"/>
      <use xlink:href="#ArialMT-65" x="116.699219"/>
      <use xlink:href="#ArialMT-72" x="172.314453"/>
      <use xlink:href="#ArialMT-65" x="205.615234"/>
      <use xlink:href="#ArialMT-6e" x="261.230469"/>
      <use xlink:href="#ArialMT-63" x="316.845703"/>
      <use xlink:href="#ArialMT-65" x="366.845703"/>
     </g>
    </g>
    <g id="line2d_13">
     <g>
      <use xlink:href="#m16389b5d58" x="165.77125" y="40.083125" style="fill: #bf4e30; stroke: #bf4e30"/>
     </g>
    </g>
    <g id="text_13">
     <!-- average prediction -->
     <g transform="translate(183.77125 43.583125) scale(0.1 -0.1)">
      <defs>
       <path id="ArialMT-64" d="M 2575 0 
L 2575 419 
Q 2259 -75 1647 -75 
Q 1250 -75 917 144 
Q 584 363 401 755 
Q 219 1147 219 1656 
Q 219 2153 384 2558 
Q 550 2963 881 3178 
Q 1213 3394 1622 3394 
Q 1922 3394 2156 3267 
Q 2391 3141 2538 2938 
L 2538 4581 
L 3097 4581 
L 3097 0 
L 2575 0 
z
M 797 1656 
Q 797 1019 1065 703 
Q 1334 388 1700 388 
Q 2069 388 2326 689 
Q 2584 991 2584 1609 
Q 2584 2291 2321 2609 
Q 2059 2928 1675 2928 
Q 1300 2928 1048 2622 
Q 797 2316 797 1656 
z
" transform="scale(0.015625)"/>
      </defs>
      <use xlink:href="#ArialMT-61"/>
      <use xlink:href="#ArialMT-76" x="55.615234"/>
      <use xlink:href="#ArialMT-65" x="105.615234"/>
      <use xlink:href="#ArialMT-72" x="161.230469"/>
      <use xlink:href="#ArialMT-61" x="194.53125"/>
      <use xlink:href="#ArialMT-67" x="250.146484"/>
      <use xlink:href="#ArialMT-65" x="305.761719"/>
      <use xlink:href="#ArialMT-20" x="361.376953"/>
      <use xlink:href="#ArialMT-70" x="389.160156"/>
      <use xlink:href="#ArialMT-72" x="444.775391"/>
      <use xlink:href="#ArialMT-65" x="478.076172"/>
      <use xlink:href="#ArialMT-64" x="533.691406"/>
      <use xlink:href="#ArialMT-69" x="589.306641"/>
      <use xlink:href="#ArialMT-63" x="611.523438"/>
      <use xlink:href="#ArialMT-74" x="661.523438"/>
      <use xlink:href="#ArialMT-69" x="689.306641"/>
      <use xlink:href="#ArialMT-6f" x="711.523438"/>
      <use xlink:href="#ArialMT-6e" x="767.138672"/>
     </g>
    </g>
   </g>
  </g>
 </g>
 <defs>
  <clipPath id="pf5cb4d7ca6">
   <rect x="54.74" y="17.28" width="220.3" height="153.10375"/>
  </clipPath>
 </defs>
</svg>
