<?xml version="1.0" encoding="utf-8" standalone="no"?>
<!DOCTYPE svg PUBLIC "-//W3C//DTD SVG 1.1//EN"
  "http://www.w3.org/Graphics/SVG/1.1/DTD/svg11.dtd">
<svg xmlns:xlink="http://www.w3.org/1999/xlink" width="360pt" height="216pt" viewBox="0 0 360 216" xmlns="http://www.w3.org/2000/svg" version="1.1">
 <metadata>
  <rdf:RDF xmlns:dc="http://purl.org/dc/elements/1.1/" xmlns:cc="http://creativecommons.org/ns#" xmlns:rdf="http://www.w3.org/1999/02/22-rdf-syntax-ns#">
   <cc:Work>
    <dc:type rdf:resource="http://purl.org/dc/dcmitype/StillImage"/>
    <dc:date>2023-10-20T12:55:26.457791</dc:date>
    <dc:format>image/svg+xml</dc:format>
    <dc:creator>
     <cc:Agent>
      <dc:title>Matplotlib v3.7.1, https://matplotlib.org/</dc:title>
     </cc:Agent>
    </dc:creator>
   </cc:Work>
  </rdf:RDF>
 </metadata>
 <defs>
  <style type="text/css">*{stroke-linejoin: round; stroke-linecap: butt}</style>
 </defs>
 <g id="figure_1">
  <g id="patch_1">
   <path d="M 0 216 
L 360 216 
L 360 0 
L 0 0 
z
" style="fill: #ffffff"/>
  </g>
  <g id="axes_1">
   <g id="patch_2">
    <path d="M 54.74 170.3275 
L 347.04 170.3275 
L 347.04 17.28 
L 54.74 17.28 
z
" style="fill: #ffffff"/>
   </g>
   <g id="PolyCollection_1">
    <defs>
     <path id="m76352d3091" d="M 74.26429 -45.6725 
L 73.86695 -45.6725 
L 73.905555 -47.218434 
L 73.981908 -48.764369 
L 74.037201 -50.310303 
L 74.059357 -51.856237 
L 74.064724 -53.402172 
L 74.065532 -54.948106 
L 74.065585 -56.49404 
L 74.065486 -58.039975 
L 74.065221 -59.585909 
L 74.064822 -61.131843 
L 74.064461 -62.677778 
L 74.06413 -64.223712 
L 74.063555 -65.769646 
L 74.062655 -67.315581 
L 74.061627 -68.861515 
L 74.0607 -70.407449 
L 74.05969 -71.953384 
L 74.057568 -73.499318 
L 74.054299 -75.045253 
L 74.052296 -76.591187 
L 74.052487 -78.137121 
L 74.051296 -79.683056 
L 74.04485 -81.22899 
L 74.035642 -82.774924 
L 74.031614 -84.320859 
L 74.03462 -85.866793 
L 74.037738 -87.412727 
L 74.038112 -88.958662 
L 74.038298 -90.504596 
L 74.032928 -92.05053 
L 74.009456 -93.596465 
L 73.971596 -95.142399 
L 73.949953 -96.688333 
L 73.964129 -98.234268 
L 73.99112 -99.780202 
L 74.000437 -101.326136 
L 73.988523 -102.872071 
L 73.964433 -104.418005 
L 73.939168 -105.963939 
L 73.92572 -107.509874 
L 73.920463 -109.055808 
L 73.907457 -110.601742 
L 73.889239 -112.147677 
L 73.883327 -113.693611 
L 73.893811 -115.239545 
L 73.888791 -116.78548 
L 73.795934 -118.331414 
L 73.574987 -119.877348 
L 73.348358 -121.423283 
L 73.321144 -122.969217 
L 73.482855 -124.515152 
L 73.614464 -126.061086 
L 73.592614 -127.60702 
L 73.466856 -129.152955 
L 73.325718 -130.698889 
L 73.214182 -132.244823 
L 73.12164 -133.790758 
L 73.006079 -135.336692 
L 72.861107 -136.882626 
L 72.725358 -138.428561 
L 72.596598 -139.974495 
L 72.438147 -141.520429 
L 72.231835 -143.066364 
L 71.920644 -144.612298 
L 71.47655 -146.158232 
L 71.071896 -147.704167 
L 70.849171 -149.250101 
L 70.655472 -150.796035 
L 70.33671 -152.34197 
L 69.952215 -153.887904 
L 69.596618 -155.433838 
L 69.29591 -156.979773 
L 69.029853 -158.525707 
L 68.779496 -160.071641 
L 68.556009 -161.617576 
L 68.364295 -163.16351 
L 68.204323 -164.709444 
L 68.080394 -166.255379 
L 68.026364 -167.801313 
L 68.125725 -169.347247 
L 68.40244 -170.893182 
L 68.773242 -172.439116 
L 69.128679 -173.985051 
L 69.417597 -175.530985 
L 69.718376 -177.076919 
L 70.157062 -178.622854 
L 70.704149 -180.168788 
L 71.200429 -181.714722 
L 71.583087 -183.260657 
L 71.927162 -184.806591 
L 72.287133 -186.352525 
L 72.645687 -187.89846 
L 72.988824 -189.444394 
L 73.311259 -190.990328 
L 73.555983 -192.536263 
L 73.575343 -194.082197 
L 73.203584 -195.628131 
L 72.566984 -197.174066 
L 72.235593 -198.72 
L 75.895647 -198.72 
L 75.895647 -198.72 
L 75.564256 -197.174066 
L 74.927656 -195.628131 
L 74.555897 -194.082197 
L 74.575257 -192.536263 
L 74.819981 -190.990328 
L 75.142416 -189.444394 
L 75.485552 -187.89846 
L 75.844107 -186.352525 
L 76.204078 -184.806591 
L 76.548153 -183.260657 
L 76.93081 -181.714722 
L 77.427091 -180.168788 
L 77.974177 -178.622854 
L 78.412863 -177.076919 
L 78.713643 -175.530985 
L 79.002561 -173.985051 
L 79.357997 -172.439116 
L 79.7288 -170.893182 
L 80.005515 -169.347247 
L 80.104876 -167.801313 
L 80.050846 -166.255379 
L 79.926916 -164.709444 
L 79.766945 -163.16351 
L 79.57523 -161.617576 
L 79.351743 -160.071641 
L 79.101387 -158.525707 
L 78.83533 -156.979773 
L 78.534622 -155.433838 
L 78.179025 -153.887904 
L 77.794529 -152.34197 
L 77.475767 -150.796035 
L 77.282069 -149.250101 
L 77.059343 -147.704167 
L 76.654689 -146.158232 
L 76.210595 -144.612298 
L 75.899405 -143.066364 
L 75.693093 -141.520429 
L 75.534642 -139.974495 
L 75.405882 -138.428561 
L 75.270133 -136.882626 
L 75.125161 -135.336692 
L 75.0096 -133.790758 
L 74.917058 -132.244823 
L 74.805522 -130.698889 
L 74.664384 -129.152955 
L 74.538625 -127.60702 
L 74.516776 -126.061086 
L 74.648384 -124.515152 
L 74.810096 -122.969217 
L 74.782882 -121.423283 
L 74.556252 -119.877348 
L 74.335306 -118.331414 
L 74.242449 -116.78548 
L 74.237428 -115.239545 
L 74.247913 -113.693611 
L 74.242 -112.147677 
L 74.223783 -110.601742 
L 74.210777 -109.055808 
L 74.20552 -107.509874 
L 74.192072 -105.963939 
L 74.166806 -104.418005 
L 74.142717 -102.872071 
L 74.130803 -101.326136 
L 74.140119 -99.780202 
L 74.167111 -98.234268 
L 74.181287 -96.688333 
L 74.159644 -95.142399 
L 74.121783 -93.596465 
L 74.098311 -92.05053 
L 74.092941 -90.504596 
L 74.093127 -88.958662 
L 74.093501 -87.412727 
L 74.09662 -85.866793 
L 74.099625 -84.320859 
L 74.095598 -82.774924 
L 74.086389 -81.22899 
L 74.079944 -79.683056 
L 74.078752 -78.137121 
L 74.078944 -76.591187 
L 74.076941 -75.045253 
L 74.073672 -73.499318 
L 74.071549 -71.953384 
L 74.07054 -70.407449 
L 74.069613 -68.861515 
L 74.068585 -67.315581 
L 74.067685 -65.769646 
L 74.06711 -64.223712 
L 74.066779 -62.677778 
L 74.066417 -61.131843 
L 74.066019 -59.585909 
L 74.065754 -58.039975 
L 74.065654 -56.49404 
L 74.065707 -54.948106 
L 74.066516 -53.402172 
L 74.071883 -51.856237 
L 74.094039 -50.310303 
L 74.149332 -48.764369 
L 74.225685 -47.218434 
L 74.26429 -45.6725 
z
" style="stroke: #0d3b66; stroke-opacity: 0.3"/>
    </defs>
    <g clip-path="url(#p1c2fdc9eba)">
     <use xlink:href="#m76352d3091" x="0" y="216" style="fill: #0d3b66; fill-opacity: 0.3; stroke: #0d3b66; stroke-opacity: 0.3"/>
    </g>
   </g>
   <g id="PolyCollection_2">
    <defs>
     <path id="m8199960ca6" d="M 122.565005 -45.6725 
L 122.194334 -45.6725 
L 122.203337 -47.218434 
L 122.227805 -48.764369 
L 122.261276 -50.310303 
L 122.296119 -51.856237 
L 122.326297 -53.402172 
L 122.348806 -54.948106 
L 122.363512 -56.49404 
L 122.372005 -58.039975 
L 122.376357 -59.585909 
L 122.378312 -61.131843 
L 122.379012 -62.677778 
L 122.379043 -64.223712 
L 122.378612 -65.769646 
L 122.377705 -67.315581 
L 122.376217 -68.861515 
L 122.374023 -70.407449 
L 122.371013 -71.953384 
L 122.367076 -73.499318 
L 122.362061 -75.045253 
L 122.355786 -76.591187 
L 122.34815 -78.137121 
L 122.33929 -79.683056 
L 122.329678 -81.22899 
L 122.319973 -82.774924 
L 122.310671 -84.320859 
L 122.301733 -85.866793 
L 122.29249 -87.412727 
L 122.281973 -88.958662 
L 122.269545 -90.504596 
L 122.255492 -92.05053 
L 122.241192 -93.596465 
L 122.228649 -95.142399 
L 122.219547 -96.688333 
L 122.214317 -98.234268 
L 122.211791 -99.780202 
L 122.209697 -101.326136 
L 122.205736 -102.872071 
L 122.19856 -104.418005 
L 122.188083 -105.963939 
L 122.174959 -107.509874 
L 122.159561 -109.055808 
L 122.141038 -110.601742 
L 122.116973 -112.147677 
L 122.083969 -113.693611 
L 122.039174 -115.239545 
L 121.982257 -116.78548 
L 121.916689 -118.331414 
L 121.849086 -119.877348 
L 121.786198 -121.423283 
L 121.730915 -122.969217 
L 121.679816 -124.515152 
L 121.624202 -126.061086 
L 121.554303 -127.60702 
L 121.464175 -129.152955 
L 121.354397 -130.698889 
L 121.231128 -132.244823 
L 121.10231 -133.790758 
L 120.973292 -135.336692 
L 120.844252 -136.882626 
L 120.71059 -138.428561 
L 120.565565 -139.974495 
L 120.403237 -141.520429 
L 120.219847 -143.066364 
L 120.013269 -144.612298 
L 119.781639 -146.158232 
L 119.522702 -147.704167 
L 119.234536 -149.250101 
L 118.9171 -150.796035 
L 118.573567 -152.34197 
L 118.210851 -153.887904 
L 117.839584 -155.433838 
L 117.473903 -156.979773 
L 117.130957 -158.525707 
L 116.829606 -160.071641 
L 116.588149 -161.617576 
L 116.421739 -163.16351 
L 116.340413 -164.709444 
L 116.3482 -166.255379 
L 116.443143 -167.801313 
L 116.618003 -169.347247 
L 116.861632 -170.893182 
L 117.160925 -172.439116 
L 117.50279 -173.985051 
L 117.875363 -175.530985 
L 118.268179 -177.076919 
L 118.67173 -178.622854 
L 119.07711 -180.168788 
L 119.475994 -181.714722 
L 119.860414 -183.260657 
L 120.221632 -184.806591 
L 120.548079 -186.352525 
L 120.823629 -187.89846 
L 121.028538 -189.444394 
L 121.145118 -190.990328 
L 121.167794 -192.536263 
L 121.113199 -194.082197 
L 121.023155 -195.628131 
L 120.955123 -197.174066 
L 120.961832 -198.72 
L 123.797506 -198.72 
L 123.797506 -198.72 
L 123.804216 -197.174066 
L 123.736184 -195.628131 
L 123.646139 -194.082197 
L 123.591545 -192.536263 
L 123.614221 -190.990328 
L 123.730801 -189.444394 
L 123.935709 -187.89846 
L 124.211259 -186.352525 
L 124.537707 -184.806591 
L 124.898925 -183.260657 
L 125.283345 -181.714722 
L 125.682229 -180.168788 
L 126.087609 -178.622854 
L 126.49116 -177.076919 
L 126.883976 -175.530985 
L 127.256549 -173.985051 
L 127.598413 -172.439116 
L 127.897707 -170.893182 
L 128.141336 -169.347247 
L 128.316196 -167.801313 
L 128.411138 -166.255379 
L 128.418926 -164.709444 
L 128.3376 -163.16351 
L 128.17119 -161.617576 
L 127.929733 -160.071641 
L 127.628381 -158.525707 
L 127.285436 -156.979773 
L 126.919755 -155.433838 
L 126.548488 -153.887904 
L 126.185772 -152.34197 
L 125.842238 -150.796035 
L 125.524803 -149.250101 
L 125.236636 -147.704167 
L 124.977699 -146.158232 
L 124.74607 -144.612298 
L 124.539492 -143.066364 
L 124.356102 -141.520429 
L 124.193773 -139.974495 
L 124.048749 -138.428561 
L 123.915086 -136.882626 
L 123.786047 -135.336692 
L 123.657028 -133.790758 
L 123.528211 -132.244823 
L 123.404942 -130.698889 
L 123.295164 -129.152955 
L 123.205036 -127.60702 
L 123.135136 -126.061086 
L 123.079523 -124.515152 
L 123.028424 -122.969217 
L 122.973141 -121.423283 
L 122.910252 -119.877348 
L 122.842649 -118.331414 
L 122.777082 -116.78548 
L 122.720165 -115.239545 
L 122.67537 -113.693611 
L 122.642365 -112.147677 
L 122.618301 -110.601742 
L 122.599778 -109.055808 
L 122.58438 -107.509874 
L 122.571256 -105.963939 
L 122.560779 -104.418005 
L 122.553603 -102.872071 
L 122.549641 -101.326136 
L 122.547548 -99.780202 
L 122.545022 -98.234268 
L 122.539792 -96.688333 
L 122.53069 -95.142399 
L 122.518147 -93.596465 
L 122.503847 -92.05053 
L 122.489794 -90.504596 
L 122.477366 -88.958662 
L 122.466849 -87.412727 
L 122.457606 -85.866793 
L 122.448668 -84.320859 
L 122.439366 -82.774924 
L 122.429661 -81.22899 
L 122.420048 -79.683056 
L 122.411189 -78.137121 
L 122.403552 -76.591187 
L 122.397278 -75.045253 
L 122.392263 -73.499318 
L 122.388326 -71.953384 
L 122.385316 -70.407449 
L 122.383122 -68.861515 
L 122.381633 -67.315581 
L 122.380727 -65.769646 
L 122.380296 -64.223712 
L 122.380327 -62.677778 
L 122.381027 -61.131843 
L 122.382982 -59.585909 
L 122.387333 -58.039975 
L 122.395827 -56.49404 
L 122.410533 -54.948106 
L 122.433042 -53.402172 
L 122.46322 -51.856237 
L 122.498063 -50.310303 
L 122.531534 -48.764369 
L 122.556002 -47.218434 
L 122.565005 -45.6725 
z
" style="stroke: #0d3b66; stroke-opacity: 0.3"/>
    </defs>
    <g clip-path="url(#p1c2fdc9eba)">
     <use xlink:href="#m8199960ca6" x="0" y="216" style="fill: #0d3b66; fill-opacity: 0.3; stroke: #0d3b66; stroke-opacity: 0.3"/>
    </g>
   </g>
   <g id="PolyCollection_3">
    <defs>
     <path id="ma31aefe83f" d="M 170.998646 -45.6725 
L 170.388792 -45.6725 
L 170.391826 -47.218434 
L 170.402237 -48.764369 
L 170.41896 -50.310303 
L 170.440434 -51.856237 
L 170.464791 -53.402172 
L 170.490073 -54.948106 
L 170.514445 -56.49404 
L 170.536372 -58.039975 
L 170.554728 -59.585909 
L 170.568846 -61.131843 
L 170.578487 -62.677778 
L 170.583764 -64.223712 
L 170.585014 -65.769646 
L 170.582669 -67.315581 
L 170.577123 -68.861515 
L 170.568639 -70.407449 
L 170.557284 -71.953384 
L 170.542928 -73.499318 
L 170.525282 -75.045253 
L 170.503984 -76.591187 
L 170.478716 -78.137121 
L 170.449331 -79.683056 
L 170.415972 -81.22899 
L 170.379167 -82.774924 
L 170.339882 -84.320859 
L 170.299513 -85.866793 
L 170.259816 -87.412727 
L 170.222784 -88.958662 
L 170.190466 -90.504596 
L 170.164757 -92.05053 
L 170.147177 -93.596465 
L 170.138668 -95.142399 
L 170.139444 -96.688333 
L 170.148906 -98.234268 
L 170.165637 -99.780202 
L 170.1875 -101.326136 
L 170.211807 -102.872071 
L 170.235553 -104.418005 
L 170.255685 -105.963939 
L 170.269372 -107.509874 
L 170.274246 -109.055808 
L 170.268583 -110.601742 
L 170.251414 -112.147677 
L 170.222543 -113.693611 
L 170.18249 -115.239545 
L 170.132355 -116.78548 
L 170.073637 -118.331414 
L 170.008031 -119.877348 
L 169.937221 -121.423283 
L 169.862703 -122.969217 
L 169.785661 -124.515152 
L 169.706882 -126.061086 
L 169.626728 -127.60702 
L 169.54514 -129.152955 
L 169.461666 -130.698889 
L 169.375474 -132.244823 
L 169.285365 -133.790758 
L 169.18975 -135.336692 
L 169.086624 -136.882626 
L 168.973535 -138.428561 
L 168.847593 -139.974495 
L 168.705537 -141.520429 
L 168.543893 -143.066364 
L 168.359243 -144.612298 
L 168.148605 -146.158232 
L 167.9099 -147.704167 
L 167.642464 -149.250101 
L 167.34754 -150.796035 
L 167.028671 -152.34197 
L 166.691919 -153.887904 
L 166.345844 -155.433838 
L 166.001209 -156.979773 
L 165.670411 -158.525707 
L 165.366675 -160.071641 
L 165.103097 -161.617576 
L 164.891641 -163.16351 
L 164.742209 -164.709444 
L 164.661888 -166.255379 
L 164.654463 -167.801313 
L 164.720231 -169.347247 
L 164.85613 -170.893182 
L 165.05612 -172.439116 
L 165.311768 -173.985051 
L 165.612928 -175.530985 
L 165.948458 -177.076919 
L 166.306884 -178.622854 
L 166.676999 -180.168788 
L 167.048348 -181.714722 
L 167.411634 -183.260657 
L 167.759028 -184.806591 
L 168.0844 -186.352525 
L 168.383466 -187.89846 
L 168.653834 -189.444394 
L 168.894938 -190.990328 
L 169.107843 -192.536263 
L 169.294923 -194.082197 
L 169.459444 -195.628131 
L 169.605088 -197.174066 
L 169.735486 -198.72 
L 171.651952 -198.72 
L 171.651952 -198.72 
L 171.78235 -197.174066 
L 171.927994 -195.628131 
L 172.092515 -194.082197 
L 172.279595 -192.536263 
L 172.4925 -190.990328 
L 172.733604 -189.444394 
L 173.003972 -187.89846 
L 173.303038 -186.352525 
L 173.62841 -184.806591 
L 173.975804 -183.260657 
L 174.33909 -181.714722 
L 174.710439 -180.168788 
L 175.080554 -178.622854 
L 175.43898 -177.076919 
L 175.77451 -175.530985 
L 176.07567 -173.985051 
L 176.331318 -172.439116 
L 176.531308 -170.893182 
L 176.667207 -169.347247 
L 176.732975 -167.801313 
L 176.72555 -166.255379 
L 176.645229 -164.709444 
L 176.495797 -163.16351 
L 176.284341 -161.617576 
L 176.020763 -160.071641 
L 175.717027 -158.525707 
L 175.386229 -156.979773 
L 175.041594 -155.433838 
L 174.695519 -153.887904 
L 174.358767 -152.34197 
L 174.039898 -150.796035 
L 173.744974 -149.250101 
L 173.477538 -147.704167 
L 173.238833 -146.158232 
L 173.028195 -144.612298 
L 172.843545 -143.066364 
L 172.681901 -141.520429 
L 172.539845 -139.974495 
L 172.413903 -138.428561 
L 172.300814 -136.882626 
L 172.197688 -135.336692 
L 172.102073 -133.790758 
L 172.011964 -132.244823 
L 171.925772 -130.698889 
L 171.842298 -129.152955 
L 171.76071 -127.60702 
L 171.680556 -126.061086 
L 171.601777 -124.515152 
L 171.524735 -122.969217 
L 171.450218 -121.423283 
L 171.379407 -119.877348 
L 171.313801 -118.331414 
L 171.255083 -116.78548 
L 171.204948 -115.239545 
L 171.164895 -113.693611 
L 171.136024 -112.147677 
L 171.118855 -110.601742 
L 171.113192 -109.055808 
L 171.118066 -107.509874 
L 171.131753 -105.963939 
L 171.151885 -104.418005 
L 171.175631 -102.872071 
L 171.199938 -101.326136 
L 171.221801 -99.780202 
L 171.238532 -98.234268 
L 171.247994 -96.688333 
L 171.24877 -95.142399 
L 171.240261 -93.596465 
L 171.222681 -92.05053 
L 171.196972 -90.504596 
L 171.164654 -88.958662 
L 171.127622 -87.412727 
L 171.087925 -85.866793 
L 171.047556 -84.320859 
L 171.008271 -82.774924 
L 170.971466 -81.22899 
L 170.938107 -79.683056 
L 170.908722 -78.137121 
L 170.883454 -76.591187 
L 170.862156 -75.045253 
L 170.84451 -73.499318 
L 170.830154 -71.953384 
L 170.818799 -70.407449 
L 170.810315 -68.861515 
L 170.804769 -67.315581 
L 170.802424 -65.769646 
L 170.803674 -64.223712 
L 170.808951 -62.677778 
L 170.818592 -61.131843 
L 170.83271 -59.585909 
L 170.851066 -58.039975 
L 170.872993 -56.49404 
L 170.897365 -54.948106 
L 170.922647 -53.402172 
L 170.947004 -51.856237 
L 170.968478 -50.310303 
L 170.985201 -48.764369 
L 170.995612 -47.218434 
L 170.998646 -45.6725 
z
" style="stroke: #0d3b66; stroke-opacity: 0.3"/>
    </defs>
    <g clip-path="url(#p1c2fdc9eba)">
     <use xlink:href="#ma31aefe83f" x="0" y="216" style="fill: #0d3b66; fill-opacity: 0.3; stroke: #0d3b66; stroke-opacity: 0.3"/>
    </g>
   </g>
   <g id="PolyCollection_4">
    <defs>
     <path id="m5b33022cfe" d="M 219.602319 -45.6725 
L 218.413219 -45.6725 
L 218.44998 -47.218434 
L 218.54718 -48.764369 
L 218.67302 -50.310303 
L 218.793634 -51.856237 
L 218.887203 -53.402172 
L 218.948015 -54.948106 
L 218.981688 -56.49404 
L 218.997711 -58.039975 
L 219.004262 -59.585909 
L 219.006492 -61.131843 
L 219.006965 -62.677778 
L 219.006698 -64.223712 
L 219.005967 -65.769646 
L 219.004743 -67.315581 
L 219.002902 -68.861515 
L 219.00034 -70.407449 
L 218.997033 -71.953384 
L 218.993023 -73.499318 
L 218.988284 -75.045253 
L 218.982627 -76.591187 
L 218.975871 -78.137121 
L 218.968315 -79.683056 
L 218.961138 -81.22899 
L 218.956097 -82.774924 
L 218.954316 -84.320859 
L 218.95483 -85.866793 
L 218.954011 -87.412727 
L 218.946705 -88.958662 
L 218.928899 -90.504596 
L 218.900697 -92.05053 
L 218.867739 -93.596465 
L 218.839485 -95.142399 
L 218.824561 -96.688333 
L 218.825793 -98.234268 
L 218.838522 -99.780202 
L 218.853758 -101.326136 
L 218.86396 -102.872071 
L 218.867223 -104.418005 
L 218.867014 -105.963939 
L 218.868068 -107.509874 
L 218.871331 -109.055808 
L 218.870643 -110.601742 
L 218.852255 -112.147677 
L 218.797645 -113.693611 
L 218.690559 -115.239545 
L 218.528211 -116.78548 
L 218.332052 -118.331414 
L 218.148702 -119.877348 
L 218.034071 -121.423283 
L 218.025779 -122.969217 
L 218.121348 -124.515152 
L 218.278387 -126.061086 
L 218.436866 -127.60702 
L 218.547361 -129.152955 
L 218.588006 -130.698889 
L 218.564864 -132.244823 
L 218.5017 -133.790758 
L 218.426772 -135.336692 
L 218.360229 -136.882626 
L 218.304475 -138.428561 
L 218.242386 -139.974495 
L 218.148245 -141.520429 
L 218.008704 -143.066364 
L 217.840412 -144.612298 
L 217.6884 -146.158232 
L 217.601465 -147.704167 
L 217.599927 -149.250101 
L 217.659689 -150.796035 
L 217.724705 -152.34197 
L 217.738407 -153.887904 
L 217.672653 -155.433838 
L 217.53796 -156.979773 
L 217.372226 -158.525707 
L 217.216624 -160.071641 
L 217.093461 -161.617576 
L 216.999837 -163.16351 
L 216.920092 -164.709444 
L 216.845005 -166.255379 
L 216.780739 -167.801313 
L 216.741915 -169.347247 
L 216.738803 -170.893182 
L 216.771752 -172.439116 
L 216.835674 -173.985051 
L 216.927418 -175.530985 
L 217.048596 -177.076919 
L 217.202664 -178.622854 
L 217.389745 -180.168788 
L 217.602708 -181.714722 
L 217.825346 -183.260657 
L 218.030699 -184.806591 
L 218.176746 -186.352525 
L 218.199396 -187.89846 
L 218.009958 -189.444394 
L 217.512479 -190.990328 
L 216.654259 -192.536263 
L 215.498701 -194.082197 
L 214.271706 -195.628131 
L 213.319976 -197.174066 
L 212.968512 -198.72 
L 225.047025 -198.72 
L 225.047025 -198.72 
L 224.695561 -197.174066 
L 223.743831 -195.628131 
L 222.516837 -194.082197 
L 221.361278 -192.536263 
L 220.503058 -190.990328 
L 220.005579 -189.444394 
L 219.816141 -187.89846 
L 219.838792 -186.352525 
L 219.984839 -184.806591 
L 220.190191 -183.260657 
L 220.412829 -181.714722 
L 220.625793 -180.168788 
L 220.812873 -178.622854 
L 220.966941 -177.076919 
L 221.088119 -175.530985 
L 221.179863 -173.985051 
L 221.243785 -172.439116 
L 221.276734 -170.893182 
L 221.273623 -169.347247 
L 221.234798 -167.801313 
L 221.170532 -166.255379 
L 221.095445 -164.709444 
L 221.0157 -163.16351 
L 220.922077 -161.617576 
L 220.798913 -160.071641 
L 220.643311 -158.525707 
L 220.477577 -156.979773 
L 220.342884 -155.433838 
L 220.27713 -153.887904 
L 220.290832 -152.34197 
L 220.355848 -150.796035 
L 220.41561 -149.250101 
L 220.414073 -147.704167 
L 220.327137 -146.158232 
L 220.175126 -144.612298 
L 220.006834 -143.066364 
L 219.867292 -141.520429 
L 219.773151 -139.974495 
L 219.711062 -138.428561 
L 219.655308 -136.882626 
L 219.588765 -135.336692 
L 219.513837 -133.790758 
L 219.450673 -132.244823 
L 219.427531 -130.698889 
L 219.468176 -129.152955 
L 219.578671 -127.60702 
L 219.73715 -126.061086 
L 219.89419 -124.515152 
L 219.989758 -122.969217 
L 219.981466 -121.423283 
L 219.866835 -119.877348 
L 219.683485 -118.331414 
L 219.487326 -116.78548 
L 219.324978 -115.239545 
L 219.217892 -113.693611 
L 219.163282 -112.147677 
L 219.144895 -110.601742 
L 219.144206 -109.055808 
L 219.147469 -107.509874 
L 219.148523 -105.963939 
L 219.148315 -104.418005 
L 219.151577 -102.872071 
L 219.16178 -101.326136 
L 219.177015 -99.780202 
L 219.189744 -98.234268 
L 219.190976 -96.688333 
L 219.176053 -95.142399 
L 219.147799 -93.596465 
L 219.11484 -92.05053 
L 219.086638 -90.504596 
L 219.068832 -88.958662 
L 219.061526 -87.412727 
L 219.060708 -85.866793 
L 219.061221 -84.320859 
L 219.059441 -82.774924 
L 219.054399 -81.22899 
L 219.047222 -79.683056 
L 219.039666 -78.137121 
L 219.03291 -76.591187 
L 219.027253 -75.045253 
L 219.022514 -73.499318 
L 219.018504 -71.953384 
L 219.015198 -70.407449 
L 219.012635 -68.861515 
L 219.010794 -67.315581 
L 219.009571 -65.769646 
L 219.008839 -64.223712 
L 219.008572 -62.677778 
L 219.009045 -61.131843 
L 219.011275 -59.585909 
L 219.017827 -58.039975 
L 219.033849 -56.49404 
L 219.067522 -54.948106 
L 219.128334 -53.402172 
L 219.221903 -51.856237 
L 219.342517 -50.310303 
L 219.468357 -48.764369 
L 219.565557 -47.218434 
L 219.602319 -45.6725 
z
" style="stroke: #0d3b66; stroke-opacity: 0.3"/>
    </defs>
    <g clip-path="url(#p1c2fdc9eba)">
     <use xlink:href="#m5b33022cfe" x="0" y="216" style="fill: #0d3b66; fill-opacity: 0.3; stroke: #0d3b66; stroke-opacity: 0.3"/>
    </g>
   </g>
   <g id="PolyCollection_5">
    <defs>
     <path id="mb09a00a097" d="M 267.670709 -45.6725 
L 266.972928 -45.6725 
L 266.991563 -47.218434 
L 267.041707 -48.764369 
L 267.108932 -50.310303 
L 267.176821 -51.856237 
L 267.233252 -53.402172 
L 267.273135 -54.948106 
L 267.297319 -56.49404 
L 267.309604 -58.039975 
L 267.314028 -59.585909 
L 267.313506 -61.131843 
L 267.309706 -62.677778 
L 267.303577 -64.223712 
L 267.29595 -65.769646 
L 267.287876 -67.315581 
L 267.280588 -68.861515 
L 267.275163 -70.407449 
L 267.272089 -71.953384 
L 267.271003 -73.499318 
L 267.270775 -75.045253 
L 267.269951 -76.591187 
L 267.26741 -78.137121 
L 267.262926 -79.683056 
L 267.257281 -81.22899 
L 267.251689 -82.774924 
L 267.246645 -84.320859 
L 267.240821 -85.866793 
L 267.230837 -87.412727 
L 267.212494 -88.958662 
L 267.183268 -90.504596 
L 267.144921 -92.05053 
L 267.104433 -93.596465 
L 267.071979 -95.142399 
L 267.056353 -96.688333 
L 267.060322 -98.234268 
L 267.079003 -99.780202 
L 267.102568 -101.326136 
L 267.121566 -102.872071 
L 267.131385 -104.418005 
L 267.133145 -105.963939 
L 267.130829 -107.509874 
L 267.126561 -109.055808 
L 267.116556 -110.601742 
L 267.08983 -112.147677 
L 267.031061 -113.693611 
L 266.927946 -115.239545 
L 266.781072 -116.78548 
L 266.611143 -118.331414 
L 266.457126 -119.877348 
L 266.362641 -121.423283 
L 266.355937 -122.969217 
L 266.435082 -124.515152 
L 266.568079 -126.061086 
L 266.707978 -127.60702 
L 266.813382 -129.152955 
L 266.862794 -130.698889 
L 266.857232 -132.244823 
L 266.813147 -133.790758 
L 266.75122 -135.336692 
L 266.686047 -136.882626 
L 266.620134 -138.428561 
L 266.544694 -139.974495 
L 266.447915 -141.520429 
L 266.327194 -143.066364 
L 266.197442 -144.612298 
L 266.087872 -146.158232 
L 266.026837 -147.704167 
L 266.023914 -149.250101 
L 266.061914 -150.796035 
L 266.104832 -152.34197 
L 266.116372 -153.887904 
L 266.077082 -155.433838 
L 265.990746 -156.979773 
L 265.878603 -158.525707 
L 265.76674 -160.071641 
L 265.674359 -161.617576 
L 265.608612 -163.16351 
L 265.566773 -164.709444 
L 265.541892 -166.255379 
L 265.527086 -167.801313 
L 265.516849 -169.347247 
L 265.507475 -170.893182 
L 265.498788 -172.439116 
L 265.496442 -173.985051 
L 265.512112 -175.530985 
L 265.56021 -177.076919 
L 265.652518 -178.622854 
L 265.793236 -180.168788 
L 265.975629 -181.714722 
L 266.179573 -183.260657 
L 266.368686 -184.806591 
L 266.486953 -186.352525 
L 266.457796 -187.89846 
L 266.192611 -189.444394 
L 265.617341 -190.990328 
L 264.718416 -192.536263 
L 263.590979 -194.082197 
L 262.453836 -195.628131 
L 261.5992 -197.174066 
L 261.282562 -198.72 
L 273.361074 -198.72 
L 273.361074 -198.72 
L 273.044437 -197.174066 
L 272.189801 -195.628131 
L 271.052657 -194.082197 
L 269.92522 -192.536263 
L 269.026296 -190.990328 
L 268.451026 -189.444394 
L 268.185841 -187.89846 
L 268.156683 -186.352525 
L 268.27495 -184.806591 
L 268.464064 -183.260657 
L 268.668008 -181.714722 
L 268.850401 -180.168788 
L 268.991119 -178.622854 
L 269.083426 -177.076919 
L 269.131524 -175.530985 
L 269.147194 -173.985051 
L 269.144848 -172.439116 
L 269.136161 -170.893182 
L 269.126787 -169.347247 
L 269.11655 -167.801313 
L 269.101744 -166.255379 
L 269.076864 -164.709444 
L 269.035025 -163.16351 
L 268.969277 -161.617576 
L 268.876897 -160.071641 
L 268.765033 -158.525707 
L 268.652891 -156.979773 
L 268.566554 -155.433838 
L 268.527264 -153.887904 
L 268.538805 -152.34197 
L 268.581723 -150.796035 
L 268.619722 -149.250101 
L 268.616799 -147.704167 
L 268.555764 -146.158232 
L 268.446194 -144.612298 
L 268.316442 -143.066364 
L 268.195721 -141.520429 
L 268.098942 -139.974495 
L 268.023502 -138.428561 
L 267.957589 -136.882626 
L 267.892417 -135.336692 
L 267.83049 -133.790758 
L 267.786404 -132.244823 
L 267.780842 -130.698889 
L 267.830254 -129.152955 
L 267.935659 -127.60702 
L 268.075558 -126.061086 
L 268.208555 -124.515152 
L 268.2877 -122.969217 
L 268.280996 -121.423283 
L 268.18651 -119.877348 
L 268.032494 -118.331414 
L 267.862565 -116.78548 
L 267.715691 -115.239545 
L 267.612576 -113.693611 
L 267.553807 -112.147677 
L 267.52708 -110.601742 
L 267.517075 -109.055808 
L 267.512807 -107.509874 
L 267.510491 -105.963939 
L 267.512251 -104.418005 
L 267.52207 -102.872071 
L 267.541069 -101.326136 
L 267.564634 -99.780202 
L 267.583315 -98.234268 
L 267.587284 -96.688333 
L 267.571657 -95.142399 
L 267.539204 -93.596465 
L 267.498715 -92.05053 
L 267.460368 -90.504596 
L 267.431143 -88.958662 
L 267.412799 -87.412727 
L 267.402815 -85.866793 
L 267.396991 -84.320859 
L 267.391947 -82.774924 
L 267.386355 -81.22899 
L 267.38071 -79.683056 
L 267.376226 -78.137121 
L 267.373685 -76.591187 
L 267.372861 -75.045253 
L 267.372633 -73.499318 
L 267.371548 -71.953384 
L 267.368473 -70.407449 
L 267.363048 -68.861515 
L 267.35576 -67.315581 
L 267.347686 -65.769646 
L 267.340059 -64.223712 
L 267.33393 -62.677778 
L 267.33013 -61.131843 
L 267.329608 -59.585909 
L 267.334033 -58.039975 
L 267.346317 -56.49404 
L 267.370501 -54.948106 
L 267.410384 -53.402172 
L 267.466815 -51.856237 
L 267.534704 -50.310303 
L 267.60193 -48.764369 
L 267.652073 -47.218434 
L 267.670709 -45.6725 
z
" style="stroke: #0d3b66; stroke-opacity: 0.3"/>
    </defs>
    <g clip-path="url(#p1c2fdc9eba)">
     <use xlink:href="#mb09a00a097" x="0" y="216" style="fill: #0d3b66; fill-opacity: 0.3; stroke: #0d3b66; stroke-opacity: 0.3"/>
    </g>
   </g>
   <g id="PolyCollection_6">
    <defs>
     <path id="m5332243ed5" d="M 315.916747 -45.6725 
L 315.354988 -45.6725 
L 315.357607 -47.218434 
L 315.365486 -48.764369 
L 315.378119 -50.310303 
L 315.394726 -51.856237 
L 315.414305 -53.402172 
L 315.435714 -54.948106 
L 315.457742 -56.49404 
L 315.479177 -58.039975 
L 315.498863 -59.585909 
L 315.515723 -61.131843 
L 315.528774 -62.677778 
L 315.537114 -64.223712 
L 315.539893 -65.769646 
L 315.536288 -67.315581 
L 315.525465 -68.861515 
L 315.506577 -70.407449 
L 315.478763 -71.953384 
L 315.441195 -73.499318 
L 315.393146 -75.045253 
L 315.334099 -76.591187 
L 315.263866 -78.137121 
L 315.182732 -79.683056 
L 315.091571 -81.22899 
L 314.991944 -82.774924 
L 314.886128 -84.320859 
L 314.777071 -85.866793 
L 314.66826 -87.412727 
L 314.563491 -88.958662 
L 314.466567 -90.504596 
L 314.380936 -92.05053 
L 314.309329 -93.596465 
L 314.253429 -95.142399 
L 314.213628 -96.688333 
L 314.188919 -98.234268 
L 314.176943 -99.780202 
L 314.174203 -101.326136 
L 314.176426 -102.872071 
L 314.179035 -104.418005 
L 314.17768 -105.963939 
L 314.168739 -107.509874 
L 314.149742 -109.055808 
L 314.119634 -110.601742 
L 314.078861 -112.147677 
L 314.029225 -113.693611 
L 313.973564 -115.239545 
L 313.915258 -116.78548 
L 313.857648 -118.331414 
L 313.803447 -119.877348 
L 313.754208 -121.423283 
L 313.709949 -122.969217 
L 313.668967 -124.515152 
L 313.627899 -126.061086 
L 313.581999 -127.60702 
L 313.525621 -129.152955 
L 313.452842 -130.698889 
L 313.358144 -132.244823 
L 313.23707 -133.790758 
L 313.086776 -135.336692 
L 312.906407 -136.882626 
L 312.697253 -138.428561 
L 312.462677 -139.974495 
L 312.207821 -141.520429 
L 311.939137 -143.066364 
L 311.663815 -144.612298 
L 311.389172 -146.158232 
L 311.12208 -147.704167 
L 310.868512 -149.250101 
L 310.633234 -150.796035 
L 310.41968 -152.34197 
L 310.23 -153.887904 
L 310.065256 -155.433838 
L 309.925702 -156.979773 
L 309.811122 -158.525707 
L 309.72113 -160.071641 
L 309.655414 -161.617576 
L 309.613866 -163.16351 
L 309.596612 -164.709444 
L 309.60391 -166.255379 
L 309.635989 -167.801313 
L 309.692821 -169.347247 
L 309.773906 -170.893182 
L 309.878088 -172.439116 
L 310.003452 -173.985051 
L 310.147321 -175.530985 
L 310.306356 -177.076919 
L 310.47676 -178.622854 
L 310.654561 -180.168788 
L 310.835944 -181.714722 
L 311.017587 -183.260657 
L 311.196963 -184.806591 
L 311.372574 -186.352525 
L 311.544065 -187.89846 
L 311.712223 -189.444394 
L 311.878822 -190.990328 
L 312.046363 -192.536263 
L 312.217698 -194.082197 
L 312.395616 -195.628131 
L 312.582413 -197.174066 
L 312.779523 -198.72 
L 318.492212 -198.72 
L 318.492212 -198.72 
L 318.689323 -197.174066 
L 318.87612 -195.628131 
L 319.054037 -194.082197 
L 319.225373 -192.536263 
L 319.392913 -190.990328 
L 319.559513 -189.444394 
L 319.72767 -187.89846 
L 319.899162 -186.352525 
L 320.074773 -184.806591 
L 320.254149 -183.260657 
L 320.435791 -181.714722 
L 320.617174 -180.168788 
L 320.794976 -178.622854 
L 320.96538 -177.076919 
L 321.124414 -175.530985 
L 321.268284 -173.985051 
L 321.393648 -172.439116 
L 321.49783 -170.893182 
L 321.578915 -169.347247 
L 321.635747 -167.801313 
L 321.667825 -166.255379 
L 321.675124 -164.709444 
L 321.657869 -163.16351 
L 321.616322 -161.617576 
L 321.550605 -160.071641 
L 321.460613 -158.525707 
L 321.346033 -156.979773 
L 321.20648 -155.433838 
L 321.041735 -153.887904 
L 320.852056 -152.34197 
L 320.638502 -150.796035 
L 320.403223 -149.250101 
L 320.149655 -147.704167 
L 319.882564 -146.158232 
L 319.60792 -144.612298 
L 319.332599 -143.066364 
L 319.063915 -141.520429 
L 318.809058 -139.974495 
L 318.574482 -138.428561 
L 318.365329 -136.882626 
L 318.18496 -135.336692 
L 318.034666 -133.790758 
L 317.913592 -132.244823 
L 317.818894 -130.698889 
L 317.746115 -129.152955 
L 317.689737 -127.60702 
L 317.643836 -126.061086 
L 317.602768 -124.515152 
L 317.561787 -122.969217 
L 317.517527 -121.423283 
L 317.468288 -119.877348 
L 317.414087 -118.331414 
L 317.356478 -116.78548 
L 317.298171 -115.239545 
L 317.242511 -113.693611 
L 317.192875 -112.147677 
L 317.152101 -110.601742 
L 317.121994 -109.055808 
L 317.102996 -107.509874 
L 317.094055 -105.963939 
L 317.0927 -104.418005 
L 317.09531 -102.872071 
L 317.097532 -101.326136 
L 317.094792 -99.780202 
L 317.082817 -98.234268 
L 317.058108 -96.688333 
L 317.018307 -95.142399 
L 316.962406 -93.596465 
L 316.890799 -92.05053 
L 316.805168 -90.504596 
L 316.708244 -88.958662 
L 316.603476 -87.412727 
L 316.494665 -85.866793 
L 316.385608 -84.320859 
L 316.279791 -82.774924 
L 316.180164 -81.22899 
L 316.089004 -79.683056 
L 316.007869 -78.137121 
L 315.937637 -76.591187 
L 315.878589 -75.045253 
L 315.830541 -73.499318 
L 315.792973 -71.953384 
L 315.765159 -70.407449 
L 315.74627 -68.861515 
L 315.735448 -67.315581 
L 315.731842 -65.769646 
L 315.734622 -64.223712 
L 315.742962 -62.677778 
L 315.756013 -61.131843 
L 315.772873 -59.585909 
L 315.792558 -58.039975 
L 315.813994 -56.49404 
L 315.836022 -54.948106 
L 315.857431 -53.402172 
L 315.87701 -51.856237 
L 315.893616 -50.310303 
L 315.90625 -48.764369 
L 315.914128 -47.218434 
L 315.916747 -45.6725 
z
" style="stroke: #0d3b66; stroke-opacity: 0.3"/>
    </defs>
    <g clip-path="url(#p1c2fdc9eba)">
     <use xlink:href="#m5332243ed5" x="0" y="216" style="fill: #0d3b66; fill-opacity: 0.3; stroke: #0d3b66; stroke-opacity: 0.3"/>
    </g>
   </g>
   <g id="PolyCollection_7">
    <defs>
     <path id="m51f0936995" d="M 86.251575 -45.6725 
L 86.036689 -45.6725 
L 86.065004 -47.218434 
L 86.112525 -48.764369 
L 86.137285 -50.310303 
L 86.143328 -51.856237 
L 86.144081 -53.402172 
L 86.14413 -54.948106 
L 86.144132 -56.49404 
L 86.144132 -58.039975 
L 86.144132 -59.585909 
L 86.144132 -61.131843 
L 86.144132 -62.677778 
L 86.14413 -64.223712 
L 86.144112 -65.769646 
L 86.144006 -67.315581 
L 86.143703 -68.861515 
L 86.143332 -70.407449 
L 86.143265 -71.953384 
L 86.143387 -73.499318 
L 86.143305 -75.045253 
L 86.143259 -76.591187 
L 86.143431 -78.137121 
L 86.142841 -79.683056 
L 86.139751 -81.22899 
L 86.134789 -82.774924 
L 86.133191 -84.320859 
L 86.136875 -85.866793 
L 86.140472 -87.412727 
L 86.14096 -88.958662 
L 86.140203 -90.504596 
L 86.139044 -92.05053 
L 86.133639 -93.596465 
L 86.121539 -95.142399 
L 86.113738 -96.688333 
L 86.120523 -98.234268 
L 86.131498 -99.780202 
L 86.135589 -101.326136 
L 86.133658 -102.872071 
L 86.125826 -104.418005 
L 86.114406 -105.963939 
L 86.111942 -107.509874 
L 86.11987 -109.055808 
L 86.124163 -110.601742 
L 86.120978 -112.147677 
L 86.118035 -113.693611 
L 86.121553 -115.239545 
L 86.125031 -116.78548 
L 86.100877 -118.331414 
L 86.014679 -119.877348 
L 85.908414 -121.423283 
L 85.907131 -122.969217 
L 86.008606 -124.515152 
L 86.082538 -126.061086 
L 86.084659 -127.60702 
L 86.056219 -129.152955 
L 86.030108 -130.698889 
L 86.012347 -132.244823 
L 86.001811 -133.790758 
L 85.978579 -135.336692 
L 85.935932 -136.882626 
L 85.911368 -138.428561 
L 85.903096 -139.974495 
L 85.88898 -141.520429 
L 85.873804 -143.066364 
L 85.809612 -144.612298 
L 85.641989 -146.158232 
L 85.505768 -147.704167 
L 85.536735 -149.250101 
L 85.572271 -150.796035 
L 85.467745 -152.34197 
L 85.297691 -153.887904 
L 85.173154 -155.433838 
L 85.093444 -156.979773 
L 84.938628 -158.525707 
L 84.704482 -160.071641 
L 84.529607 -161.617576 
L 84.367955 -163.16351 
L 84.101243 -164.709444 
L 83.708993 -166.255379 
L 83.272958 -167.801313 
L 82.957985 -169.347247 
L 82.722856 -170.893182 
L 82.433464 -172.439116 
L 82.062906 -173.985051 
L 81.579864 -175.530985 
L 81.090401 -177.076919 
L 80.818342 -178.622854 
L 80.684626 -180.168788 
L 80.424296 -181.714722 
L 80.104876 -183.260657 
L 80.132484 -184.806591 
L 80.593142 -186.352525 
L 81.149619 -187.89846 
L 81.72623 -189.444394 
L 82.467181 -190.990328 
L 83.367424 -192.536263 
L 84.131975 -194.082197 
L 84.018745 -195.628131 
L 82.729108 -197.174066 
L 81.895781 -198.72 
L 90.392484 -198.72 
L 90.392484 -198.72 
L 89.559156 -197.174066 
L 88.269519 -195.628131 
L 88.15629 -194.082197 
L 88.920841 -192.536263 
L 89.821084 -190.990328 
L 90.562034 -189.444394 
L 91.138646 -187.89846 
L 91.695123 -186.352525 
L 92.15578 -184.806591 
L 92.183388 -183.260657 
L 91.863969 -181.714722 
L 91.603638 -180.168788 
L 91.469922 -178.622854 
L 91.197864 -177.076919 
L 90.708401 -175.530985 
L 90.225358 -173.985051 
L 89.854801 -172.439116 
L 89.565409 -170.893182 
L 89.33028 -169.347247 
L 89.015306 -167.801313 
L 88.579272 -166.255379 
L 88.187022 -164.709444 
L 87.92031 -163.16351 
L 87.758657 -161.617576 
L 87.583782 -160.071641 
L 87.349636 -158.525707 
L 87.19482 -156.979773 
L 87.115111 -155.433838 
L 86.990574 -153.887904 
L 86.82052 -152.34197 
L 86.715994 -150.796035 
L 86.751529 -149.250101 
L 86.782496 -147.704167 
L 86.646276 -146.158232 
L 86.478653 -144.612298 
L 86.414461 -143.066364 
L 86.399284 -141.520429 
L 86.385168 -139.974495 
L 86.376896 -138.428561 
L 86.352333 -136.882626 
L 86.309686 -135.336692 
L 86.286453 -133.790758 
L 86.275918 -132.244823 
L 86.258156 -130.698889 
L 86.232045 -129.152955 
L 86.203605 -127.60702 
L 86.205726 -126.061086 
L 86.279659 -124.515152 
L 86.381133 -122.969217 
L 86.37985 -121.423283 
L 86.273585 -119.877348 
L 86.187387 -118.331414 
L 86.163233 -116.78548 
L 86.166712 -115.239545 
L 86.170229 -113.693611 
L 86.167287 -112.147677 
L 86.164101 -110.601742 
L 86.168395 -109.055808 
L 86.176323 -107.509874 
L 86.173859 -105.963939 
L 86.162439 -104.418005 
L 86.154606 -102.872071 
L 86.152676 -101.326136 
L 86.156767 -99.780202 
L 86.167741 -98.234268 
L 86.174527 -96.688333 
L 86.166725 -95.142399 
L 86.154625 -93.596465 
L 86.14922 -92.05053 
L 86.148061 -90.504596 
L 86.147305 -88.958662 
L 86.147793 -87.412727 
L 86.151389 -85.866793 
L 86.155074 -84.320859 
L 86.153475 -82.774924 
L 86.148514 -81.22899 
L 86.145423 -79.683056 
L 86.144833 -78.137121 
L 86.145006 -76.591187 
L 86.14496 -75.045253 
L 86.144877 -73.499318 
L 86.145 -71.953384 
L 86.144932 -70.407449 
L 86.144561 -68.861515 
L 86.144258 -67.315581 
L 86.144152 -65.769646 
L 86.144134 -64.223712 
L 86.144132 -62.677778 
L 86.144132 -61.131843 
L 86.144132 -59.585909 
L 86.144132 -58.039975 
L 86.144132 -56.49404 
L 86.144134 -54.948106 
L 86.144184 -53.402172 
L 86.144937 -51.856237 
L 86.15098 -50.310303 
L 86.175739 -48.764369 
L 86.22326 -47.218434 
L 86.251575 -45.6725 
z
" style="stroke: #bf4e30; stroke-opacity: 0.3"/>
    </defs>
    <g clip-path="url(#p1c2fdc9eba)">
     <use xlink:href="#m51f0936995" x="0" y="216" style="fill: #bf4e30; fill-opacity: 0.3; stroke: #bf4e30; stroke-opacity: 0.3"/>
    </g>
   </g>
   <g id="PolyCollection_8">
    <defs>
     <path id="ma47201625b" d="M 134.568814 -45.6725 
L 134.34755 -45.6725 
L 134.354649 -47.218434 
L 134.373327 -48.764369 
L 134.397275 -50.310303 
L 134.419894 -51.856237 
L 134.437103 -53.402172 
L 134.448019 -54.948106 
L 134.45389 -56.49404 
L 134.456595 -58.039975 
L 134.457668 -59.585909 
L 134.458036 -61.131843 
L 134.458145 -62.677778 
L 134.458173 -64.223712 
L 134.458176 -65.769646 
L 134.458163 -67.315581 
L 134.458108 -68.861515 
L 134.457931 -70.407449 
L 134.457433 -71.953384 
L 134.456222 -73.499318 
L 134.453691 -75.045253 
L 134.449171 -76.591187 
L 134.442346 -78.137121 
L 134.433799 -79.683056 
L 134.425267 -81.22899 
L 134.419145 -82.774924 
L 134.417253 -84.320859 
L 134.419571 -85.866793 
L 134.423881 -87.412727 
L 134.426712 -88.958662 
L 134.425137 -90.504596 
L 134.418425 -92.05053 
L 134.408652 -93.596465 
L 134.3998 -95.142399 
L 134.395634 -96.688333 
L 134.397529 -98.234268 
L 134.403664 -99.780202 
L 134.410216 -101.326136 
L 134.413699 -102.872071 
L 134.412826 -104.418005 
L 134.408778 -105.963939 
L 134.403996 -107.509874 
L 134.40043 -109.055808 
L 134.398178 -110.601742 
L 134.394998 -112.147677 
L 134.386904 -113.693611 
L 134.369949 -115.239545 
L 134.342865 -116.78548 
L 134.309345 -118.331414 
L 134.278075 -119.877348 
L 134.25932 -121.423283 
L 134.259329 -122.969217 
L 134.276091 -124.515152 
L 134.299641 -126.061086 
L 134.316844 -127.60702 
L 134.317342 -129.152955 
L 134.297078 -130.698889 
L 134.25812 -132.244823 
L 134.206032 -133.790758 
L 134.146805 -135.336692 
L 134.084803 -136.882626 
L 134.022118 -138.428561 
L 133.958886 -139.974495 
L 133.893968 -141.520429 
L 133.82561 -143.066364 
L 133.751923 -144.612298 
L 133.670896 -146.158232 
L 133.579932 -147.704167 
L 133.475501 -149.250101 
L 133.353612 -150.796035 
L 133.210724 -152.34197 
L 133.044147 -153.887904 
L 132.852023 -155.433838 
L 132.633873 -156.979773 
L 132.391338 -158.525707 
L 132.127299 -160.071641 
L 131.84318 -161.617576 
L 131.537467 -163.16351 
L 131.208152 -164.709444 
L 130.857384 -166.255379 
L 130.4937 -167.801313 
L 130.129675 -169.347247 
L 129.777568 -170.893182 
L 129.446827 -172.439116 
L 129.144659 -173.985051 
L 128.87832 -175.530985 
L 128.657634 -177.076919 
L 128.497338 -178.622854 
L 128.418926 -180.168788 
L 128.4503 -181.714722 
L 128.620304 -183.260657 
L 128.946497 -184.806591 
L 129.418685 -186.352525 
L 129.985075 -187.89846 
L 130.550055 -189.444394 
L 130.992391 -190.990328 
L 131.208304 -192.536263 
L 131.169623 -194.082197 
L 130.964867 -195.628131 
L 130.782126 -197.174066 
L 130.822421 -198.72 
L 138.093942 -198.72 
L 138.093942 -198.72 
L 138.134237 -197.174066 
L 137.951497 -195.628131 
L 137.746741 -194.082197 
L 137.70806 -192.536263 
L 137.923972 -190.990328 
L 138.366309 -189.444394 
L 138.931289 -187.89846 
L 139.497679 -186.352525 
L 139.969867 -184.806591 
L 140.29606 -183.260657 
L 140.466064 -181.714722 
L 140.497438 -180.168788 
L 140.419026 -178.622854 
L 140.25873 -177.076919 
L 140.038044 -175.530985 
L 139.771704 -173.985051 
L 139.469536 -172.439116 
L 139.138796 -170.893182 
L 138.786689 -169.347247 
L 138.422663 -167.801313 
L 138.05898 -166.255379 
L 137.708212 -164.709444 
L 137.378896 -163.16351 
L 137.073184 -161.617576 
L 136.789065 -160.071641 
L 136.525025 -158.525707 
L 136.282491 -156.979773 
L 136.064341 -155.433838 
L 135.872217 -153.887904 
L 135.705639 -152.34197 
L 135.562751 -150.796035 
L 135.440863 -149.250101 
L 135.336432 -147.704167 
L 135.245468 -146.158232 
L 135.164441 -144.612298 
L 135.090753 -143.066364 
L 135.022396 -141.520429 
L 134.957477 -139.974495 
L 134.894245 -138.428561 
L 134.83156 -136.882626 
L 134.769559 -135.336692 
L 134.710331 -133.790758 
L 134.658244 -132.244823 
L 134.619286 -130.698889 
L 134.599021 -129.152955 
L 134.59952 -127.60702 
L 134.616722 -126.061086 
L 134.640272 -124.515152 
L 134.657034 -122.969217 
L 134.657044 -121.423283 
L 134.638289 -119.877348 
L 134.607019 -118.331414 
L 134.573499 -116.78548 
L 134.546414 -115.239545 
L 134.52946 -113.693611 
L 134.521366 -112.147677 
L 134.518186 -110.601742 
L 134.515934 -109.055808 
L 134.512368 -107.509874 
L 134.507586 -105.963939 
L 134.503538 -104.418005 
L 134.502664 -102.872071 
L 134.506147 -101.326136 
L 134.5127 -99.780202 
L 134.518835 -98.234268 
L 134.520729 -96.688333 
L 134.516564 -95.142399 
L 134.507711 -93.596465 
L 134.497939 -92.05053 
L 134.491226 -90.504596 
L 134.489651 -88.958662 
L 134.492483 -87.412727 
L 134.496793 -85.866793 
L 134.499111 -84.320859 
L 134.497219 -82.774924 
L 134.491097 -81.22899 
L 134.482565 -79.683056 
L 134.474018 -78.137121 
L 134.467192 -76.591187 
L 134.462673 -75.045253 
L 134.460142 -73.499318 
L 134.458931 -71.953384 
L 134.458433 -70.407449 
L 134.458255 -68.861515 
L 134.458201 -67.315581 
L 134.458188 -65.769646 
L 134.458191 -64.223712 
L 134.458218 -62.677778 
L 134.458328 -61.131843 
L 134.458696 -59.585909 
L 134.459769 -58.039975 
L 134.462473 -56.49404 
L 134.468345 -54.948106 
L 134.479261 -53.402172 
L 134.496469 -51.856237 
L 134.519089 -50.310303 
L 134.543036 -48.764369 
L 134.561715 -47.218434 
L 134.568814 -45.6725 
z
" style="stroke: #bf4e30; stroke-opacity: 0.3"/>
    </defs>
    <g clip-path="url(#p1c2fdc9eba)">
     <use xlink:href="#ma47201625b" x="0" y="216" style="fill: #bf4e30; fill-opacity: 0.3; stroke: #bf4e30; stroke-opacity: 0.3"/>
    </g>
   </g>
   <g id="PolyCollection_9">
    <defs>
     <path id="mcb0e86a51c" d="M 182.918718 -45.6725 
L 182.625744 -45.6725 
L 182.62995 -47.218434 
L 182.641856 -48.764369 
L 182.659527 -50.310303 
L 182.680317 -51.856237 
L 182.701515 -53.402172 
L 182.720903 -54.948106 
L 182.737084 -56.49404 
L 182.749526 -58.039975 
L 182.758394 -59.585909 
L 182.764275 -61.131843 
L 182.767916 -62.677778 
L 182.770023 -64.223712 
L 182.771165 -65.769646 
L 182.771746 -67.315581 
L 182.772023 -68.861515 
L 182.772147 -70.407449 
L 182.772199 -71.953384 
L 182.77222 -73.499318 
L 182.772227 -75.045253 
L 182.77223 -76.591187 
L 182.772231 -78.137121 
L 182.772231 -79.683056 
L 182.772231 -81.22899 
L 182.772231 -82.774924 
L 182.772231 -84.320859 
L 182.772231 -85.866793 
L 182.772231 -87.412727 
L 182.772231 -88.958662 
L 182.772231 -90.504596 
L 182.772231 -92.05053 
L 182.772231 -93.596465 
L 182.772231 -95.142399 
L 182.772231 -96.688333 
L 182.772231 -98.234268 
L 182.772231 -99.780202 
L 182.772231 -101.326136 
L 182.772231 -102.872071 
L 182.77223 -104.418005 
L 182.772228 -105.963939 
L 182.772222 -107.509874 
L 182.772203 -109.055808 
L 182.772154 -110.601742 
L 182.772032 -112.147677 
L 182.771744 -113.693611 
L 182.771104 -115.239545 
L 182.769768 -116.78548 
L 182.767137 -118.331414 
L 182.76226 -119.877348 
L 182.753746 -121.423283 
L 182.739759 -122.969217 
L 182.71813 -124.515152 
L 182.686653 -126.061086 
L 182.643534 -127.60702 
L 182.587914 -129.152955 
L 182.520294 -130.698889 
L 182.442697 -132.244823 
L 182.358428 -133.790758 
L 182.271477 -135.336692 
L 182.18572 -136.882626 
L 182.104187 -138.428561 
L 182.0286 -139.974495 
L 181.959255 -141.520429 
L 181.89516 -143.066364 
L 181.834232 -144.612298 
L 181.773432 -146.158232 
L 181.708831 -147.704167 
L 181.635715 -149.250101 
L 181.548873 -150.796035 
L 181.443118 -152.34197 
L 181.313929 -153.887904 
L 181.158061 -155.433838 
L 180.973921 -156.979773 
L 180.761653 -158.525707 
L 180.522966 -160.071641 
L 180.260814 -161.617576 
L 179.979002 -163.16351 
L 179.681751 -164.709444 
L 179.373238 -166.255379 
L 179.057188 -167.801313 
L 178.736695 -169.347247 
L 178.414522 -170.893182 
L 178.093994 -172.439116 
L 177.780381 -173.985051 
L 177.482285 -175.530985 
L 177.212374 -177.076919 
L 176.986795 -178.622854 
L 176.822922 -180.168788 
L 176.735637 -181.714722 
L 176.732975 -183.260657 
L 176.812486 -184.806591 
L 176.959895 -186.352525 
L 177.151286 -187.89846 
L 177.359052 -189.444394 
L 177.560347 -190.990328 
L 177.745321 -192.536263 
L 177.921771 -194.082197 
L 178.11367 -195.628131 
L 178.353234 -197.174066 
L 178.669032 -198.72 
L 186.875431 -198.72 
L 186.875431 -198.72 
L 187.191228 -197.174066 
L 187.430793 -195.628131 
L 187.622692 -194.082197 
L 187.799142 -192.536263 
L 187.984116 -190.990328 
L 188.185411 -189.444394 
L 188.393177 -187.89846 
L 188.584567 -186.352525 
L 188.731976 -184.806591 
L 188.811488 -183.260657 
L 188.808826 -181.714722 
L 188.721541 -180.168788 
L 188.557668 -178.622854 
L 188.332089 -177.076919 
L 188.062178 -175.530985 
L 187.764082 -173.985051 
L 187.450469 -172.439116 
L 187.129941 -170.893182 
L 186.807767 -169.347247 
L 186.487275 -167.801313 
L 186.171225 -166.255379 
L 185.862712 -164.709444 
L 185.565461 -163.16351 
L 185.283649 -161.617576 
L 185.021497 -160.071641 
L 184.78281 -158.525707 
L 184.570542 -156.979773 
L 184.386402 -155.433838 
L 184.230534 -153.887904 
L 184.101345 -152.34197 
L 183.995589 -150.796035 
L 183.908748 -149.250101 
L 183.835632 -147.704167 
L 183.771031 -146.158232 
L 183.710231 -144.612298 
L 183.649303 -143.066364 
L 183.585208 -141.520429 
L 183.515863 -139.974495 
L 183.440275 -138.428561 
L 183.358743 -136.882626 
L 183.272986 -135.336692 
L 183.186035 -133.790758 
L 183.101766 -132.244823 
L 183.024169 -130.698889 
L 182.956549 -129.152955 
L 182.900928 -127.60702 
L 182.85781 -126.061086 
L 182.826333 -124.515152 
L 182.804704 -122.969217 
L 182.790716 -121.423283 
L 182.782203 -119.877348 
L 182.777326 -118.331414 
L 182.774695 -116.78548 
L 182.773358 -115.239545 
L 182.772719 -113.693611 
L 182.772431 -112.147677 
L 182.772309 -110.601742 
L 182.77226 -109.055808 
L 182.772241 -107.509874 
L 182.772235 -105.963939 
L 182.772232 -104.418005 
L 182.772232 -102.872071 
L 182.772231 -101.326136 
L 182.772231 -99.780202 
L 182.772231 -98.234268 
L 182.772231 -96.688333 
L 182.772231 -95.142399 
L 182.772231 -93.596465 
L 182.772231 -92.05053 
L 182.772231 -90.504596 
L 182.772231 -88.958662 
L 182.772231 -87.412727 
L 182.772231 -85.866793 
L 182.772231 -84.320859 
L 182.772231 -82.774924 
L 182.772231 -81.22899 
L 182.772232 -79.683056 
L 182.772232 -78.137121 
L 182.772233 -76.591187 
L 182.772235 -75.045253 
L 182.772243 -73.499318 
L 182.772264 -71.953384 
L 182.772316 -70.407449 
L 182.77244 -68.861515 
L 182.772717 -67.315581 
L 182.773297 -65.769646 
L 182.77444 -64.223712 
L 182.776547 -62.677778 
L 182.780187 -61.131843 
L 182.786069 -59.585909 
L 182.794937 -58.039975 
L 182.807379 -56.49404 
L 182.82356 -54.948106 
L 182.842948 -53.402172 
L 182.864145 -51.856237 
L 182.884935 -50.310303 
L 182.902607 -48.764369 
L 182.914513 -47.218434 
L 182.918718 -45.6725 
z
" style="stroke: #bf4e30; stroke-opacity: 0.3"/>
    </defs>
    <g clip-path="url(#p1c2fdc9eba)">
     <use xlink:href="#mcb0e86a51c" x="0" y="216" style="fill: #bf4e30; fill-opacity: 0.3; stroke: #bf4e30; stroke-opacity: 0.3"/>
    </g>
   </g>
   <g id="PolyCollection_10">
    <defs>
     <path id="m68be66becb" d="M 231.215815 -45.6725 
L 230.956747 -45.6725 
L 230.971397 -47.218434 
L 231.006132 -48.764369 
L 231.042297 -50.310303 
L 231.067294 -51.856237 
L 231.079834 -53.402172 
L 231.084559 -54.948106 
L 231.085919 -56.49404 
L 231.086221 -58.039975 
L 231.086273 -59.585909 
L 231.08628 -61.131843 
L 231.086281 -62.677778 
L 231.086279 -64.223712 
L 231.086272 -65.769646 
L 231.086241 -67.315581 
L 231.086138 -68.861515 
L 231.085879 -70.407449 
L 231.08539 -71.953384 
L 231.084708 -73.499318 
L 231.08402 -75.045253 
L 231.083457 -76.591187 
L 231.0828 -78.137121 
L 231.081579 -79.683056 
L 231.079719 -81.22899 
L 231.078025 -82.774924 
L 231.07765 -84.320859 
L 231.078907 -85.866793 
L 231.080697 -87.412727 
L 231.080926 -88.958662 
L 231.077147 -90.504596 
L 231.067481 -92.05053 
L 231.052748 -93.596465 
L 231.038376 -95.142399 
L 231.032124 -96.688333 
L 231.037579 -98.234268 
L 231.050345 -99.780202 
L 231.061877 -101.326136 
L 231.066558 -102.872071 
L 231.064889 -104.418005 
L 231.061427 -105.963939 
L 231.060554 -107.509874 
L 231.063457 -109.055808 
L 231.068185 -110.601742 
L 231.071485 -112.147677 
L 231.068925 -113.693611 
L 231.052374 -115.239545 
L 231.009817 -116.78548 
L 230.934988 -118.331414 
L 230.844263 -119.877348 
L 230.779427 -121.423283 
L 230.77925 -122.969217 
L 230.843435 -124.515152 
L 230.932433 -126.061086 
L 231.003173 -127.60702 
L 231.037272 -129.152955 
L 231.03816 -130.698889 
L 231.014791 -132.244823 
L 230.974934 -133.790758 
L 230.93014 -135.336692 
L 230.89822 -136.882626 
L 230.892136 -138.428561 
L 230.903752 -139.974495 
L 230.902008 -141.520429 
L 230.852973 -143.066364 
L 230.751528 -144.612298 
L 230.640114 -146.158232 
L 230.58501 -147.704167 
L 230.617681 -149.250101 
L 230.703332 -150.796035 
L 230.775406 -152.34197 
L 230.789166 -153.887904 
L 230.73507 -155.433838 
L 230.626084 -156.979773 
L 230.498281 -158.525707 
L 230.406482 -160.071641 
L 230.381505 -161.617576 
L 230.39062 -163.16351 
L 230.369204 -164.709444 
L 230.295402 -166.255379 
L 230.209499 -167.801313 
L 230.155938 -169.347247 
L 230.13354 -170.893182 
L 230.114581 -172.439116 
L 230.087456 -173.985051 
L 230.063467 -175.530985 
L 230.058491 -177.076919 
L 230.081125 -178.622854 
L 230.130681 -180.168788 
L 230.200793 -181.714722 
L 230.286076 -183.260657 
L 230.382599 -184.806591 
L 230.479136 -186.352525 
L 230.549915 -187.89846 
L 230.548951 -189.444394 
L 230.382044 -190.990328 
L 229.866509 -192.536263 
L 228.79557 -194.082197 
L 227.212898 -195.628131 
L 225.678802 -197.174066 
L 225.047025 -198.72 
L 237.125537 -198.72 
L 237.125537 -198.72 
L 236.49376 -197.174066 
L 234.959664 -195.628131 
L 233.376992 -194.082197 
L 232.306053 -192.536263 
L 231.790518 -190.990328 
L 231.623611 -189.444394 
L 231.622647 -187.89846 
L 231.693426 -186.352525 
L 231.789963 -184.806591 
L 231.886486 -183.260657 
L 231.971769 -181.714722 
L 232.041881 -180.168788 
L 232.091437 -178.622854 
L 232.114071 -177.076919 
L 232.109095 -175.530985 
L 232.085106 -173.985051 
L 232.057981 -172.439116 
L 232.039022 -170.893182 
L 232.016624 -169.347247 
L 231.963063 -167.801313 
L 231.87716 -166.255379 
L 231.803358 -164.709444 
L 231.781942 -163.16351 
L 231.791057 -161.617576 
L 231.76608 -160.071641 
L 231.674281 -158.525707 
L 231.546478 -156.979773 
L 231.437492 -155.433838 
L 231.383396 -153.887904 
L 231.397156 -152.34197 
L 231.46923 -150.796035 
L 231.554881 -149.250101 
L 231.587552 -147.704167 
L 231.532447 -146.158232 
L 231.421034 -144.612298 
L 231.319589 -143.066364 
L 231.270554 -141.520429 
L 231.26881 -139.974495 
L 231.280426 -138.428561 
L 231.274342 -136.882626 
L 231.242422 -135.336692 
L 231.197628 -133.790758 
L 231.157771 -132.244823 
L 231.134402 -130.698889 
L 231.13529 -129.152955 
L 231.169389 -127.60702 
L 231.240129 -126.061086 
L 231.329127 -124.515152 
L 231.393312 -122.969217 
L 231.393135 -121.423283 
L 231.328299 -119.877348 
L 231.237574 -118.331414 
L 231.162745 -116.78548 
L 231.120188 -115.239545 
L 231.103637 -113.693611 
L 231.101077 -112.147677 
L 231.104377 -110.601742 
L 231.109105 -109.055808 
L 231.112008 -107.509874 
L 231.111135 -105.963939 
L 231.107673 -104.418005 
L 231.106004 -102.872071 
L 231.110685 -101.326136 
L 231.122217 -99.780202 
L 231.134983 -98.234268 
L 231.140438 -96.688333 
L 231.134186 -95.142399 
L 231.119814 -93.596465 
L 231.105081 -92.05053 
L 231.095415 -90.504596 
L 231.091636 -88.958662 
L 231.091865 -87.412727 
L 231.093655 -85.866793 
L 231.094912 -84.320859 
L 231.094537 -82.774924 
L 231.092843 -81.22899 
L 231.090983 -79.683056 
L 231.089762 -78.137121 
L 231.089105 -76.591187 
L 231.088542 -75.045253 
L 231.087854 -73.499318 
L 231.087172 -71.953384 
L 231.086683 -70.407449 
L 231.086424 -68.861515 
L 231.086321 -67.315581 
L 231.08629 -65.769646 
L 231.086283 -64.223712 
L 231.086281 -62.677778 
L 231.086282 -61.131843 
L 231.086289 -59.585909 
L 231.086341 -58.039975 
L 231.086643 -56.49404 
L 231.088003 -54.948106 
L 231.092728 -53.402172 
L 231.105268 -51.856237 
L 231.130265 -50.310303 
L 231.16643 -48.764369 
L 231.201165 -47.218434 
L 231.215815 -45.6725 
z
" style="stroke: #bf4e30; stroke-opacity: 0.3"/>
    </defs>
    <g clip-path="url(#p1c2fdc9eba)">
     <use xlink:href="#m68be66becb" x="0" y="216" style="fill: #bf4e30; fill-opacity: 0.3; stroke: #bf4e30; stroke-opacity: 0.3"/>
    </g>
   </g>
   <g id="PolyCollection_11">
    <defs>
     <path id="mc231cd81d6" d="M 279.53016 -45.6725 
L 279.270501 -45.6725 
L 279.281465 -47.218434 
L 279.309108 -48.764369 
L 279.341647 -50.310303 
L 279.368687 -51.856237 
L 279.386028 -53.402172 
L 279.394911 -54.948106 
L 279.398609 -56.49404 
L 279.399872 -58.039975 
L 279.400225 -59.585909 
L 279.400301 -61.131843 
L 279.400295 -62.677778 
L 279.400249 -64.223712 
L 279.400153 -65.769646 
L 279.399988 -67.315581 
L 279.39974 -68.861515 
L 279.3994 -70.407449 
L 279.398966 -71.953384 
L 279.398439 -73.499318 
L 279.397764 -75.045253 
L 279.396767 -76.591187 
L 279.395174 -78.137121 
L 279.392864 -79.683056 
L 279.390224 -81.22899 
L 279.388177 -82.774924 
L 279.387612 -84.320859 
L 279.388521 -85.866793 
L 279.389549 -87.412727 
L 279.388328 -88.958662 
L 279.382501 -90.504596 
L 279.371225 -92.05053 
L 279.356604 -93.596465 
L 279.343718 -95.142399 
L 279.338137 -96.688333 
L 279.342119 -98.234268 
L 279.352807 -99.780202 
L 279.364331 -101.326136 
L 279.371915 -102.872071 
L 279.374443 -104.418005 
L 279.37393 -105.963939 
L 279.373183 -107.509874 
L 279.373732 -109.055808 
L 279.374916 -110.601742 
L 279.373498 -112.147677 
L 279.363124 -113.693611 
L 279.334761 -115.239545 
L 279.280904 -116.78548 
L 279.204132 -118.331414 
L 279.12385 -119.877348 
L 279.071139 -121.423283 
L 279.070099 -122.969217 
L 279.119839 -124.515152 
L 279.194406 -126.061086 
L 279.260905 -127.60702 
L 279.298757 -129.152955 
L 279.305596 -130.698889 
L 279.290856 -132.244823 
L 279.266952 -133.790758 
L 279.244307 -135.336692 
L 279.229101 -136.882626 
L 279.220422 -138.428561 
L 279.207558 -139.974495 
L 279.172769 -141.520429 
L 279.103326 -143.066364 
L 279.007248 -144.612298 
L 278.917537 -146.158232 
L 278.873907 -147.704167 
L 278.892677 -149.250101 
L 278.95229 -150.796035 
L 279.008577 -152.34197 
L 279.023756 -153.887904 
L 278.984762 -155.433838 
L 278.904968 -156.979773 
L 278.816312 -158.525707 
L 278.753539 -160.071641 
L 278.732626 -161.617576 
L 278.739346 -163.16351 
L 278.74278 -164.709444 
L 278.722056 -166.255379 
L 278.67812 -167.801313 
L 278.622322 -169.347247 
L 278.561624 -170.893182 
L 278.498158 -172.439116 
L 278.437502 -173.985051 
L 278.391365 -175.530985 
L 278.372557 -177.076919 
L 278.390187 -178.622854 
L 278.44925 -180.168788 
L 278.551063 -181.714722 
L 278.690332 -183.260657 
L 278.850097 -184.806591 
L 278.998023 -186.352525 
L 279.081556 -187.89846 
L 279.015386 -189.444394 
L 278.669852 -190.990328 
L 277.900442 -192.536263 
L 276.660236 -194.082197 
L 275.153732 -195.628131 
L 273.870355 -197.174066 
L 273.361074 -198.72 
L 285.439587 -198.72 
L 285.439587 -198.72 
L 284.930306 -197.174066 
L 283.646929 -195.628131 
L 282.140425 -194.082197 
L 280.900219 -192.536263 
L 280.130809 -190.990328 
L 279.785275 -189.444394 
L 279.719105 -187.89846 
L 279.802638 -186.352525 
L 279.950565 -184.806591 
L 280.110329 -183.260657 
L 280.249598 -181.714722 
L 280.351411 -180.168788 
L 280.410474 -178.622854 
L 280.428104 -177.076919 
L 280.409296 -175.530985 
L 280.363159 -173.985051 
L 280.302503 -172.439116 
L 280.239037 -170.893182 
L 280.178339 -169.347247 
L 280.122541 -167.801313 
L 280.078605 -166.255379 
L 280.057881 -164.709444 
L 280.061316 -163.16351 
L 280.068035 -161.617576 
L 280.047123 -160.071641 
L 279.984349 -158.525707 
L 279.895693 -156.979773 
L 279.815899 -155.433838 
L 279.776905 -153.887904 
L 279.792085 -152.34197 
L 279.848371 -150.796035 
L 279.907984 -149.250101 
L 279.926755 -147.704167 
L 279.883124 -146.158232 
L 279.793413 -144.612298 
L 279.697335 -143.066364 
L 279.627892 -141.520429 
L 279.593103 -139.974495 
L 279.580239 -138.428561 
L 279.57156 -136.882626 
L 279.556354 -135.336692 
L 279.533709 -133.790758 
L 279.509805 -132.244823 
L 279.495065 -130.698889 
L 279.501904 -129.152955 
L 279.539756 -127.60702 
L 279.606255 -126.061086 
L 279.680822 -124.515152 
L 279.730562 -122.969217 
L 279.729522 -121.423283 
L 279.676811 -119.877348 
L 279.596529 -118.331414 
L 279.519757 -116.78548 
L 279.4659 -115.239545 
L 279.437537 -113.693611 
L 279.427163 -112.147677 
L 279.425745 -110.601742 
L 279.426929 -109.055808 
L 279.427478 -107.509874 
L 279.426732 -105.963939 
L 279.426219 -104.418005 
L 279.428746 -102.872071 
L 279.43633 -101.326136 
L 279.447854 -99.780202 
L 279.458543 -98.234268 
L 279.462524 -96.688333 
L 279.456943 -95.142399 
L 279.444057 -93.596465 
L 279.429436 -92.05053 
L 279.41816 -90.504596 
L 279.412333 -88.958662 
L 279.411112 -87.412727 
L 279.41214 -85.866793 
L 279.413049 -84.320859 
L 279.412484 -82.774924 
L 279.410437 -81.22899 
L 279.407797 -79.683056 
L 279.405487 -78.137121 
L 279.403894 -76.591187 
L 279.402897 -75.045253 
L 279.402223 -73.499318 
L 279.401695 -71.953384 
L 279.401262 -70.407449 
L 279.400921 -68.861515 
L 279.400673 -67.315581 
L 279.400509 -65.769646 
L 279.400412 -64.223712 
L 279.400366 -62.677778 
L 279.400361 -61.131843 
L 279.400436 -59.585909 
L 279.40079 -58.039975 
L 279.402052 -56.49404 
L 279.40575 -54.948106 
L 279.414634 -53.402172 
L 279.431974 -51.856237 
L 279.459014 -50.310303 
L 279.491553 -48.764369 
L 279.519196 -47.218434 
L 279.53016 -45.6725 
z
" style="stroke: #bf4e30; stroke-opacity: 0.3"/>
    </defs>
    <g clip-path="url(#p1c2fdc9eba)">
     <use xlink:href="#mc231cd81d6" x="0" y="216" style="fill: #bf4e30; fill-opacity: 0.3; stroke: #bf4e30; stroke-opacity: 0.3"/>
    </g>
   </g>
   <g id="PolyCollection_12">
    <defs>
     <path id="m0a6c0ad149" d="M 327.783524 -96.688335 
L 327.645237 -96.688335 
L 327.645997 -97.718958 
L 327.648345 -98.749581 
L 327.652046 -99.780203 
L 327.656743 -100.810826 
L 327.661981 -101.841449 
L 327.667235 -102.872072 
L 327.671938 -103.902695 
L 327.67551 -104.933318 
L 327.677376 -105.963941 
L 327.67699 -106.994564 
L 327.673849 -108.025187 
L 327.667521 -109.055809 
L 327.657683 -110.086432 
L 327.644159 -111.117055 
L 327.626975 -112.147678 
L 327.606407 -113.178301 
L 327.583024 -114.208924 
L 327.5577 -115.239547 
L 327.5316 -116.27017 
L 327.506118 -117.300792 
L 327.482772 -118.331415 
L 327.463074 -119.362038 
L 327.448364 -120.392661 
L 327.439663 -121.423284 
L 327.437537 -122.453907 
L 327.44201 -123.48453 
L 327.452533 -124.515153 
L 327.468005 -125.545776 
L 327.486851 -126.576398 
L 327.50713 -127.607021 
L 327.526658 -128.637644 
L 327.543134 -129.668267 
L 327.554242 -130.69889 
L 327.557752 -131.729513 
L 327.551588 -132.760136 
L 327.533915 -133.790759 
L 327.503224 -134.821381 
L 327.458447 -135.852004 
L 327.399086 -136.882627 
L 327.325351 -137.91325 
L 327.238274 -138.943873 
L 327.139767 -139.974496 
L 327.032584 -141.005119 
L 326.920157 -142.035742 
L 326.806304 -143.066364 
L 326.694817 -144.096987 
L 326.588984 -145.12761 
L 326.491109 -146.158233 
L 326.402132 -147.188856 
L 326.321404 -148.219479 
L 326.2467 -149.250102 
L 326.174485 -150.280725 
L 326.100393 -151.311348 
L 326.019881 -152.34197 
L 325.928916 -153.372593 
L 325.824608 -154.403216 
L 325.705672 -155.433839 
L 325.572632 -156.464462 
L 325.42776 -157.495085 
L 325.274758 -158.525708 
L 325.11825 -159.556331 
L 324.963194 -160.586953 
L 324.814297 -161.617576 
L 324.675529 -162.648199 
L 324.549793 -163.678822 
L 324.438776 -164.709445 
L 324.342954 -165.740068 
L 324.261735 -166.770691 
L 324.193674 -167.801314 
L 324.136725 -168.831936 
L 324.088502 -169.862559 
L 324.046516 -170.893182 
L 324.008398 -171.923805 
L 323.972089 -172.954428 
L 323.936019 -173.985051 
L 323.899227 -175.015674 
L 323.861438 -176.046297 
L 323.823031 -177.07692 
L 323.784895 -178.107542 
L 323.748139 -179.138165 
L 323.713672 -180.168788 
L 323.681691 -181.199411 
L 323.651164 -182.230034 
L 323.619409 -183.260657 
L 323.581903 -184.29128 
L 323.532442 -185.321903 
L 323.463727 -186.352525 
L 323.368382 -187.383148 
L 323.24033 -188.413771 
L 323.076347 -189.444394 
L 322.87754 -190.475017 
L 322.650447 -191.50564 
L 322.407484 -192.536263 
L 322.16653 -193.566886 
L 321.949574 -194.597508 
L 321.780549 -195.628131 
L 321.682585 -196.658754 
L 321.675124 -197.689377 
L 321.771326 -198.72 
L 333.657434 -198.72 
L 333.657434 -198.72 
L 333.753636 -197.689377 
L 333.746175 -196.658754 
L 333.648212 -195.628131 
L 333.479186 -194.597508 
L 333.262231 -193.566886 
L 333.021276 -192.536263 
L 332.778314 -191.50564 
L 332.551221 -190.475017 
L 332.352414 -189.444394 
L 332.188431 -188.413771 
L 332.060378 -187.383148 
L 331.965033 -186.352525 
L 331.896318 -185.321903 
L 331.846858 -184.29128 
L 331.809351 -183.260657 
L 331.777596 -182.230034 
L 331.747069 -181.199411 
L 331.715089 -180.168788 
L 331.680621 -179.138165 
L 331.643865 -178.107542 
L 331.605729 -177.07692 
L 331.567322 -176.046297 
L 331.529533 -175.015674 
L 331.492742 -173.985051 
L 331.456671 -172.954428 
L 331.420363 -171.923805 
L 331.382244 -170.893182 
L 331.340259 -169.862559 
L 331.292036 -168.831936 
L 331.235087 -167.801314 
L 331.167025 -166.770691 
L 331.085806 -165.740068 
L 330.989985 -164.709445 
L 330.878967 -163.678822 
L 330.753231 -162.648199 
L 330.614463 -161.617576 
L 330.465566 -160.586953 
L 330.310511 -159.556331 
L 330.154003 -158.525708 
L 330.001 -157.495085 
L 329.856128 -156.464462 
L 329.723088 -155.433839 
L 329.604152 -154.403216 
L 329.499845 -153.372593 
L 329.408879 -152.34197 
L 329.328367 -151.311348 
L 329.254276 -150.280725 
L 329.18206 -149.250102 
L 329.107356 -148.219479 
L 329.026628 -147.188856 
L 328.937651 -146.158233 
L 328.839777 -145.12761 
L 328.733943 -144.096987 
L 328.622457 -143.066364 
L 328.508604 -142.035742 
L 328.396177 -141.005119 
L 328.288993 -139.974496 
L 328.190486 -138.943873 
L 328.103409 -137.91325 
L 328.029674 -136.882627 
L 327.970313 -135.852004 
L 327.925536 -134.821381 
L 327.894846 -133.790759 
L 327.877172 -132.760136 
L 327.871009 -131.729513 
L 327.874518 -130.69889 
L 327.885627 -129.668267 
L 327.902102 -128.637644 
L 327.92163 -127.607021 
L 327.941909 -126.576398 
L 327.960755 -125.545776 
L 327.976228 -124.515153 
L 327.98675 -123.48453 
L 327.991223 -122.453907 
L 327.989097 -121.423284 
L 327.980396 -120.392661 
L 327.965686 -119.362038 
L 327.945988 -118.331415 
L 327.922643 -117.300792 
L 327.89716 -116.27017 
L 327.87106 -115.239547 
L 327.845736 -114.208924 
L 327.822353 -113.178301 
L 327.801785 -112.147678 
L 327.784601 -111.117055 
L 327.771077 -110.086432 
L 327.761239 -109.055809 
L 327.754912 -108.025187 
L 327.75177 -106.994564 
L 327.751384 -105.963941 
L 327.753251 -104.933318 
L 327.756823 -103.902695 
L 327.761526 -102.872072 
L 327.766779 -101.841449 
L 327.772017 -100.810826 
L 327.776714 -99.780203 
L 327.780415 -98.749581 
L 327.782763 -97.718958 
L 327.783524 -96.688335 
z
" style="stroke: #bf4e30; stroke-opacity: 0.3"/>
    </defs>
    <g clip-path="url(#p1c2fdc9eba)">
     <use xlink:href="#m0a6c0ad149" x="0" y="216" style="fill: #bf4e30; fill-opacity: 0.3; stroke: #bf4e30; stroke-opacity: 0.3"/>
    </g>
   </g>
   <g id="matplotlib.axis_1">
    <g id="xtick_1">
     <g id="line2d_1">
      <defs>
       <path id="macec087803" d="M 0 0 
L 0 3.5 
" style="stroke: #000000; stroke-width: 0.8"/>
      </defs>
      <g>
       <use xlink:href="#macec087803" x="80.104876" y="170.3275" style="stroke: #000000; stroke-width: 0.8"/>
      </g>
     </g>
     <g id="text_1">
      <!-- protein -->
      <g transform="translate(61.760814 185.916875) scale(0.12 -0.12)">
       <defs>
        <path id="ArialMT-70" d="M 422 -1272 
L 422 3319 
L 934 3319 
L 934 2888 
Q 1116 3141 1344 3267 
Q 1572 3394 1897 3394 
Q 2322 3394 2647 3175 
Q 2972 2956 3137 2557 
Q 3303 2159 3303 1684 
Q 3303 1175 3120 767 
Q 2938 359 2589 142 
Q 2241 -75 1856 -75 
Q 1575 -75 1351 44 
Q 1128 163 984 344 
L 984 -1272 
L 422 -1272 
z
M 931 1641 
Q 931 1000 1190 694 
Q 1450 388 1819 388 
Q 2194 388 2461 705 
Q 2728 1022 2728 1688 
Q 2728 2322 2467 2637 
Q 2206 2953 1844 2953 
Q 1484 2953 1207 2617 
Q 931 2281 931 1641 
z
" transform="scale(0.015625)"/>
        <path id="ArialMT-72" d="M 416 0 
L 416 3319 
L 922 3319 
L 922 2816 
Q 1116 3169 1280 3281 
Q 1444 3394 1641 3394 
Q 1925 3394 2219 3213 
L 2025 2691 
Q 1819 2813 1613 2813 
Q 1428 2813 1281 2702 
Q 1134 2591 1072 2394 
Q 978 2094 978 1738 
L 978 0 
L 416 0 
z
" transform="scale(0.015625)"/>
        <path id="ArialMT-6f" d="M 213 1659 
Q 213 2581 725 3025 
Q 1153 3394 1769 3394 
Q 2453 3394 2887 2945 
Q 3322 2497 3322 1706 
Q 3322 1066 3130 698 
Q 2938 331 2570 128 
Q 2203 -75 1769 -75 
Q 1072 -75 642 372 
Q 213 819 213 1659 
z
M 791 1659 
Q 791 1022 1069 705 
Q 1347 388 1769 388 
Q 2188 388 2466 706 
Q 2744 1025 2744 1678 
Q 2744 2294 2464 2611 
Q 2184 2928 1769 2928 
Q 1347 2928 1069 2612 
Q 791 2297 791 1659 
z
" transform="scale(0.015625)"/>
        <path id="ArialMT-74" d="M 1650 503 
L 1731 6 
Q 1494 -44 1306 -44 
Q 1000 -44 831 53 
Q 663 150 594 308 
Q 525 466 525 972 
L 525 2881 
L 113 2881 
L 113 3319 
L 525 3319 
L 525 4141 
L 1084 4478 
L 1084 3319 
L 1650 3319 
L 1650 2881 
L 1084 2881 
L 1084 941 
Q 1084 700 1114 631 
Q 1144 563 1211 522 
Q 1278 481 1403 481 
Q 1497 481 1650 503 
z
" transform="scale(0.015625)"/>
        <path id="ArialMT-65" d="M 2694 1069 
L 3275 997 
Q 3138 488 2766 206 
Q 2394 -75 1816 -75 
Q 1088 -75 661 373 
Q 234 822 234 1631 
Q 234 2469 665 2931 
Q 1097 3394 1784 3394 
Q 2450 3394 2872 2941 
Q 3294 2488 3294 1666 
Q 3294 1616 3291 1516 
L 816 1516 
Q 847 969 1125 678 
Q 1403 388 1819 388 
Q 2128 388 2347 550 
Q 2566 713 2694 1069 
z
M 847 1978 
L 2700 1978 
Q 2663 2397 2488 2606 
Q 2219 2931 1791 2931 
Q 1403 2931 1139 2672 
Q 875 2413 847 1978 
z
" transform="scale(0.015625)"/>
        <path id="ArialMT-69" d="M 425 3934 
L 425 4581 
L 988 4581 
L 988 3934 
L 425 3934 
z
M 425 0 
L 425 3319 
L 988 3319 
L 988 0 
L 425 0 
z
" transform="scale(0.015625)"/>
        <path id="ArialMT-6e" d="M 422 0 
L 422 3319 
L 928 3319 
L 928 2847 
Q 1294 3394 1984 3394 
Q 2284 3394 2536 3286 
Q 2788 3178 2913 3003 
Q 3038 2828 3088 2588 
Q 3119 2431 3119 2041 
L 3119 0 
L 2556 0 
L 2556 2019 
Q 2556 2363 2490 2533 
Q 2425 2703 2258 2804 
Q 2091 2906 1866 2906 
Q 1506 2906 1245 2678 
Q 984 2450 984 1813 
L 984 0 
L 422 0 
z
" transform="scale(0.015625)"/>
       </defs>
       <use xlink:href="#ArialMT-70"/>
       <use xlink:href="#ArialMT-72" x="55.615234"/>
       <use xlink:href="#ArialMT-6f" x="88.916016"/>
       <use xlink:href="#ArialMT-74" x="144.53125"/>
       <use xlink:href="#ArialMT-65" x="172.314453"/>
       <use xlink:href="#ArialMT-69" x="227.929688"/>
       <use xlink:href="#ArialMT-6e" x="250.146484"/>
      </g>
     </g>
    </g>
    <g id="xtick_2">
     <g id="line2d_2">
      <g>
       <use xlink:href="#macec087803" x="128.418926" y="170.3275" style="stroke: #000000; stroke-width: 0.8"/>
      </g>
     </g>
     <g id="text_2">
      <!-- DNA -->
      <g transform="translate(115.750488 185.916875) scale(0.12 -0.12)">
       <defs>
        <path id="ArialMT-44" d="M 494 0 
L 494 4581 
L 2072 4581 
Q 2606 4581 2888 4516 
Q 3281 4425 3559 4188 
Q 3922 3881 4101 3404 
Q 4281 2928 4281 2316 
Q 4281 1794 4159 1391 
Q 4038 988 3847 723 
Q 3656 459 3429 307 
Q 3203 156 2883 78 
Q 2563 0 2147 0 
L 494 0 
z
M 1100 541 
L 2078 541 
Q 2531 541 2789 625 
Q 3047 709 3200 863 
Q 3416 1078 3536 1442 
Q 3656 1806 3656 2325 
Q 3656 3044 3420 3430 
Q 3184 3816 2847 3947 
Q 2603 4041 2063 4041 
L 1100 4041 
L 1100 541 
z
" transform="scale(0.015625)"/>
        <path id="ArialMT-4e" d="M 488 0 
L 488 4581 
L 1109 4581 
L 3516 984 
L 3516 4581 
L 4097 4581 
L 4097 0 
L 3475 0 
L 1069 3600 
L 1069 0 
L 488 0 
z
" transform="scale(0.015625)"/>
        <path id="ArialMT-41" d="M -9 0 
L 1750 4581 
L 2403 4581 
L 4278 0 
L 3588 0 
L 3053 1388 
L 1138 1388 
L 634 0 
L -9 0 
z
M 1313 1881 
L 2866 1881 
L 2388 3150 
Q 2169 3728 2063 4100 
Q 1975 3659 1816 3225 
L 1313 1881 
z
" transform="scale(0.015625)"/>
       </defs>
       <use xlink:href="#ArialMT-44"/>
       <use xlink:href="#ArialMT-4e" x="72.216797"/>
       <use xlink:href="#ArialMT-41" x="144.433594"/>
      </g>
     </g>
    </g>
    <g id="xtick_3">
     <g id="line2d_3">
      <g>
       <use xlink:href="#macec087803" x="176.732975" y="170.3275" style="stroke: #000000; stroke-width: 0.8"/>
      </g>
     </g>
     <g id="text_3">
      <!-- RNA -->
      <g transform="translate(164.064538 185.916875) scale(0.12 -0.12)">
       <defs>
        <path id="ArialMT-52" d="M 503 0 
L 503 4581 
L 2534 4581 
Q 3147 4581 3465 4457 
Q 3784 4334 3975 4021 
Q 4166 3709 4166 3331 
Q 4166 2844 3850 2509 
Q 3534 2175 2875 2084 
Q 3116 1969 3241 1856 
Q 3506 1613 3744 1247 
L 4541 0 
L 3778 0 
L 3172 953 
Q 2906 1366 2734 1584 
Q 2563 1803 2427 1890 
Q 2291 1978 2150 2013 
Q 2047 2034 1813 2034 
L 1109 2034 
L 1109 0 
L 503 0 
z
M 1109 2559 
L 2413 2559 
Q 2828 2559 3062 2645 
Q 3297 2731 3419 2920 
Q 3541 3109 3541 3331 
Q 3541 3656 3305 3865 
Q 3069 4075 2559 4075 
L 1109 4075 
L 1109 2559 
z
" transform="scale(0.015625)"/>
       </defs>
       <use xlink:href="#ArialMT-52"/>
       <use xlink:href="#ArialMT-4e" x="72.216797"/>
       <use xlink:href="#ArialMT-41" x="144.433594"/>
      </g>
     </g>
    </g>
    <g id="xtick_4">
     <g id="line2d_4">
      <g>
       <use xlink:href="#macec087803" x="225.047025" y="170.3275" style="stroke: #000000; stroke-width: 0.8"/>
      </g>
     </g>
     <g id="text_4">
      <!-- ligand -->
      <g transform="translate(209.034525 185.916875) scale(0.12 -0.12)">
       <defs>
        <path id="ArialMT-6c" d="M 409 0 
L 409 4581 
L 972 4581 
L 972 0 
L 409 0 
z
" transform="scale(0.015625)"/>
        <path id="ArialMT-67" d="M 319 -275 
L 866 -356 
Q 900 -609 1056 -725 
Q 1266 -881 1628 -881 
Q 2019 -881 2231 -725 
Q 2444 -569 2519 -288 
Q 2563 -116 2559 434 
Q 2191 0 1641 0 
Q 956 0 581 494 
Q 206 988 206 1678 
Q 206 2153 378 2554 
Q 550 2956 876 3175 
Q 1203 3394 1644 3394 
Q 2231 3394 2613 2919 
L 2613 3319 
L 3131 3319 
L 3131 450 
Q 3131 -325 2973 -648 
Q 2816 -972 2473 -1159 
Q 2131 -1347 1631 -1347 
Q 1038 -1347 672 -1080 
Q 306 -813 319 -275 
z
M 784 1719 
Q 784 1066 1043 766 
Q 1303 466 1694 466 
Q 2081 466 2343 764 
Q 2606 1063 2606 1700 
Q 2606 2309 2336 2618 
Q 2066 2928 1684 2928 
Q 1309 2928 1046 2623 
Q 784 2319 784 1719 
z
" transform="scale(0.015625)"/>
        <path id="ArialMT-61" d="M 2588 409 
Q 2275 144 1986 34 
Q 1697 -75 1366 -75 
Q 819 -75 525 192 
Q 231 459 231 875 
Q 231 1119 342 1320 
Q 453 1522 633 1644 
Q 813 1766 1038 1828 
Q 1203 1872 1538 1913 
Q 2219 1994 2541 2106 
Q 2544 2222 2544 2253 
Q 2544 2597 2384 2738 
Q 2169 2928 1744 2928 
Q 1347 2928 1158 2789 
Q 969 2650 878 2297 
L 328 2372 
Q 403 2725 575 2942 
Q 747 3159 1072 3276 
Q 1397 3394 1825 3394 
Q 2250 3394 2515 3294 
Q 2781 3194 2906 3042 
Q 3031 2891 3081 2659 
Q 3109 2516 3109 2141 
L 3109 1391 
Q 3109 606 3145 398 
Q 3181 191 3288 0 
L 2700 0 
Q 2613 175 2588 409 
z
M 2541 1666 
Q 2234 1541 1622 1453 
Q 1275 1403 1131 1340 
Q 988 1278 909 1158 
Q 831 1038 831 891 
Q 831 666 1001 516 
Q 1172 366 1500 366 
Q 1825 366 2078 508 
Q 2331 650 2450 897 
Q 2541 1088 2541 1459 
L 2541 1666 
z
" transform="scale(0.015625)"/>
        <path id="ArialMT-64" d="M 2575 0 
L 2575 419 
Q 2259 -75 1647 -75 
Q 1250 -75 917 144 
Q 584 363 401 755 
Q 219 1147 219 1656 
Q 219 2153 384 2558 
Q 550 2963 881 3178 
Q 1213 3394 1622 3394 
Q 1922 3394 2156 3267 
Q 2391 3141 2538 2938 
L 2538 4581 
L 3097 4581 
L 3097 0 
L 2575 0 
z
M 797 1656 
Q 797 1019 1065 703 
Q 1334 388 1700 388 
Q 2069 388 2326 689 
Q 2584 991 2584 1609 
Q 2584 2291 2321 2609 
Q 2059 2928 1675 2928 
Q 1300 2928 1048 2622 
Q 797 2316 797 1656 
z
" transform="scale(0.015625)"/>
       </defs>
       <use xlink:href="#ArialMT-6c"/>
       <use xlink:href="#ArialMT-69" x="22.216797"/>
       <use xlink:href="#ArialMT-67" x="44.433594"/>
       <use xlink:href="#ArialMT-61" x="100.048828"/>
       <use xlink:href="#ArialMT-6e" x="155.664062"/>
       <use xlink:href="#ArialMT-64" x="211.279297"/>
      </g>
     </g>
    </g>
    <g id="xtick_5">
     <g id="line2d_5">
      <g>
       <use xlink:href="#macec087803" x="273.361074" y="170.3275" style="stroke: #000000; stroke-width: 0.8"/>
      </g>
     </g>
     <g id="text_5">
      <!-- ion -->
      <g transform="translate(265.354824 185.916875) scale(0.12 -0.12)">
       <use xlink:href="#ArialMT-69"/>
       <use xlink:href="#ArialMT-6f" x="22.216797"/>
       <use xlink:href="#ArialMT-6e" x="77.832031"/>
      </g>
     </g>
    </g>
    <g id="xtick_6">
     <g id="line2d_6">
      <g>
       <use xlink:href="#macec087803" x="321.675124" y="170.3275" style="stroke: #000000; stroke-width: 0.8"/>
      </g>
     </g>
     <g id="text_6">
      <!-- lipid -->
      <g transform="translate(311.002624 185.916875) scale(0.12 -0.12)">
       <use xlink:href="#ArialMT-6c"/>
       <use xlink:href="#ArialMT-69" x="22.216797"/>
       <use xlink:href="#ArialMT-70" x="44.433594"/>
       <use xlink:href="#ArialMT-69" x="100.048828"/>
       <use xlink:href="#ArialMT-64" x="122.265625"/>
      </g>
     </g>
    </g>
    <g id="text_7">
     <!-- protein interface type -->
     <g transform="translate(144.86125 201.178125) scale(0.12 -0.12)">
      <defs>
       <path id="ArialMT-20" transform="scale(0.015625)"/>
       <path id="ArialMT-66" d="M 556 0 
L 556 2881 
L 59 2881 
L 59 3319 
L 556 3319 
L 556 3672 
Q 556 4006 616 4169 
Q 697 4388 901 4523 
Q 1106 4659 1475 4659 
Q 1713 4659 2000 4603 
L 1916 4113 
Q 1741 4144 1584 4144 
Q 1328 4144 1222 4034 
Q 1116 3925 1116 3625 
L 1116 3319 
L 1763 3319 
L 1763 2881 
L 1116 2881 
L 1116 0 
L 556 0 
z
" transform="scale(0.015625)"/>
       <path id="ArialMT-63" d="M 2588 1216 
L 3141 1144 
Q 3050 572 2676 248 
Q 2303 -75 1759 -75 
Q 1078 -75 664 370 
Q 250 816 250 1647 
Q 250 2184 428 2587 
Q 606 2991 970 3192 
Q 1334 3394 1763 3394 
Q 2303 3394 2647 3120 
Q 2991 2847 3088 2344 
L 2541 2259 
Q 2463 2594 2264 2762 
Q 2066 2931 1784 2931 
Q 1359 2931 1093 2626 
Q 828 2322 828 1663 
Q 828 994 1084 691 
Q 1341 388 1753 388 
Q 2084 388 2306 591 
Q 2528 794 2588 1216 
z
" transform="scale(0.015625)"/>
       <path id="ArialMT-79" d="M 397 -1278 
L 334 -750 
Q 519 -800 656 -800 
Q 844 -800 956 -737 
Q 1069 -675 1141 -563 
Q 1194 -478 1313 -144 
Q 1328 -97 1363 -6 
L 103 3319 
L 709 3319 
L 1400 1397 
Q 1534 1031 1641 628 
Q 1738 1016 1872 1384 
L 2581 3319 
L 3144 3319 
L 1881 -56 
Q 1678 -603 1566 -809 
Q 1416 -1088 1222 -1217 
Q 1028 -1347 759 -1347 
Q 597 -1347 397 -1278 
z
" transform="scale(0.015625)"/>
      </defs>
      <use xlink:href="#ArialMT-70"/>
      <use xlink:href="#ArialMT-72" x="55.615234"/>
      <use xlink:href="#ArialMT-6f" x="88.916016"/>
      <use xlink:href="#ArialMT-74" x="144.53125"/>
      <use xlink:href="#ArialMT-65" x="172.314453"/>
      <use xlink:href="#ArialMT-69" x="227.929688"/>
      <use xlink:href="#ArialMT-6e" x="250.146484"/>
      <use xlink:href="#ArialMT-20" x="305.761719"/>
      <use xlink:href="#ArialMT-69" x="333.544922"/>
      <use xlink:href="#ArialMT-6e" x="355.761719"/>
      <use xlink:href="#ArialMT-74" x="411.376953"/>
      <use xlink:href="#ArialMT-65" x="439.160156"/>
      <use xlink:href="#ArialMT-72" x="494.775391"/>
      <use xlink:href="#ArialMT-66" x="528.076172"/>
      <use xlink:href="#ArialMT-61" x="555.859375"/>
      <use xlink:href="#ArialMT-63" x="611.474609"/>
      <use xlink:href="#ArialMT-65" x="661.474609"/>
      <use xlink:href="#ArialMT-20" x="717.089844"/>
      <use xlink:href="#ArialMT-74" x="744.873047"/>
      <use xlink:href="#ArialMT-79" x="772.65625"/>
      <use xlink:href="#ArialMT-70" x="822.65625"/>
      <use xlink:href="#ArialMT-65" x="878.271484"/>
     </g>
    </g>
   </g>
   <g id="matplotlib.axis_2">
    <g id="ytick_1">
     <g id="line2d_7">
      <defs>
       <path id="m8f6b0a07ad" d="M 0 0 
L -3.5 0 
" style="stroke: #000000; stroke-width: 0.8"/>
      </defs>
      <g>
       <use xlink:href="#m8f6b0a07ad" x="54.74" y="170.3275" style="stroke: #000000; stroke-width: 0.8"/>
      </g>
     </g>
     <g id="text_8">
      <!-- 0 -->
      <g transform="translate(41.066875 174.622187) scale(0.12 -0.12)">
       <defs>
        <path id="ArialMT-30" d="M 266 2259 
Q 266 3072 433 3567 
Q 600 4063 929 4331 
Q 1259 4600 1759 4600 
Q 2128 4600 2406 4451 
Q 2684 4303 2865 4023 
Q 3047 3744 3150 3342 
Q 3253 2941 3253 2259 
Q 3253 1453 3087 958 
Q 2922 463 2592 192 
Q 2263 -78 1759 -78 
Q 1097 -78 719 397 
Q 266 969 266 2259 
z
M 844 2259 
Q 844 1131 1108 757 
Q 1372 384 1759 384 
Q 2147 384 2411 759 
Q 2675 1134 2675 2259 
Q 2675 3391 2411 3762 
Q 2147 4134 1753 4134 
Q 1366 4134 1134 3806 
Q 844 3388 844 2259 
z
" transform="scale(0.015625)"/>
       </defs>
       <use xlink:href="#ArialMT-30"/>
      </g>
     </g>
    </g>
    <g id="ytick_2">
     <g id="line2d_8">
      <g>
       <use xlink:href="#m8f6b0a07ad" x="54.74" y="139.718" style="stroke: #000000; stroke-width: 0.8"/>
      </g>
     </g>
     <g id="text_9">
      <!-- 20 -->
      <g transform="translate(34.39375 144.012688) scale(0.12 -0.12)">
       <defs>
        <path id="ArialMT-32" d="M 3222 541 
L 3222 0 
L 194 0 
Q 188 203 259 391 
Q 375 700 629 1000 
Q 884 1300 1366 1694 
Q 2113 2306 2375 2664 
Q 2638 3022 2638 3341 
Q 2638 3675 2398 3904 
Q 2159 4134 1775 4134 
Q 1369 4134 1125 3890 
Q 881 3647 878 3216 
L 300 3275 
Q 359 3922 746 4261 
Q 1134 4600 1788 4600 
Q 2447 4600 2831 4234 
Q 3216 3869 3216 3328 
Q 3216 3053 3103 2787 
Q 2991 2522 2730 2228 
Q 2469 1934 1863 1422 
Q 1356 997 1212 845 
Q 1069 694 975 541 
L 3222 541 
z
" transform="scale(0.015625)"/>
       </defs>
       <use xlink:href="#ArialMT-32"/>
       <use xlink:href="#ArialMT-30" x="55.615234"/>
      </g>
     </g>
    </g>
    <g id="ytick_3">
     <g id="line2d_9">
      <g>
       <use xlink:href="#m8f6b0a07ad" x="54.74" y="109.1085" style="stroke: #000000; stroke-width: 0.8"/>
      </g>
     </g>
     <g id="text_10">
      <!-- 40 -->
      <g transform="translate(34.39375 113.403188) scale(0.12 -0.12)">
       <defs>
        <path id="ArialMT-34" d="M 2069 0 
L 2069 1097 
L 81 1097 
L 81 1613 
L 2172 4581 
L 2631 4581 
L 2631 1613 
L 3250 1613 
L 3250 1097 
L 2631 1097 
L 2631 0 
L 2069 0 
z
M 2069 1613 
L 2069 3678 
L 634 1613 
L 2069 1613 
z
" transform="scale(0.015625)"/>
       </defs>
       <use xlink:href="#ArialMT-34"/>
       <use xlink:href="#ArialMT-30" x="55.615234"/>
      </g>
     </g>
    </g>
    <g id="ytick_4">
     <g id="line2d_10">
      <g>
       <use xlink:href="#m8f6b0a07ad" x="54.74" y="78.499" style="stroke: #000000; stroke-width: 0.8"/>
      </g>
     </g>
     <g id="text_11">
      <!-- 60 -->
      <g transform="translate(34.39375 82.793688) scale(0.12 -0.12)">
       <defs>
        <path id="ArialMT-36" d="M 3184 3459 
L 2625 3416 
Q 2550 3747 2413 3897 
Q 2184 4138 1850 4138 
Q 1581 4138 1378 3988 
Q 1113 3794 959 3422 
Q 806 3050 800 2363 
Q 1003 2672 1297 2822 
Q 1591 2972 1913 2972 
Q 2475 2972 2870 2558 
Q 3266 2144 3266 1488 
Q 3266 1056 3080 686 
Q 2894 316 2569 119 
Q 2244 -78 1831 -78 
Q 1128 -78 684 439 
Q 241 956 241 2144 
Q 241 3472 731 4075 
Q 1159 4600 1884 4600 
Q 2425 4600 2770 4297 
Q 3116 3994 3184 3459 
z
M 888 1484 
Q 888 1194 1011 928 
Q 1134 663 1356 523 
Q 1578 384 1822 384 
Q 2178 384 2434 671 
Q 2691 959 2691 1453 
Q 2691 1928 2437 2201 
Q 2184 2475 1800 2475 
Q 1419 2475 1153 2201 
Q 888 1928 888 1484 
z
" transform="scale(0.015625)"/>
       </defs>
       <use xlink:href="#ArialMT-36"/>
       <use xlink:href="#ArialMT-30" x="55.615234"/>
      </g>
     </g>
    </g>
    <g id="ytick_5">
     <g id="line2d_11">
      <g>
       <use xlink:href="#m8f6b0a07ad" x="54.74" y="47.8895" style="stroke: #000000; stroke-width: 0.8"/>
      </g>
     </g>
     <g id="text_12">
      <!-- 80 -->
      <g transform="translate(34.39375 52.184188) scale(0.12 -0.12)">
       <defs>
        <path id="ArialMT-38" d="M 1131 2484 
Q 781 2613 612 2850 
Q 444 3088 444 3419 
Q 444 3919 803 4259 
Q 1163 4600 1759 4600 
Q 2359 4600 2725 4251 
Q 3091 3903 3091 3403 
Q 3091 3084 2923 2848 
Q 2756 2613 2416 2484 
Q 2838 2347 3058 2040 
Q 3278 1734 3278 1309 
Q 3278 722 2862 322 
Q 2447 -78 1769 -78 
Q 1091 -78 675 323 
Q 259 725 259 1325 
Q 259 1772 486 2073 
Q 713 2375 1131 2484 
z
M 1019 3438 
Q 1019 3113 1228 2906 
Q 1438 2700 1772 2700 
Q 2097 2700 2305 2904 
Q 2513 3109 2513 3406 
Q 2513 3716 2298 3927 
Q 2084 4138 1766 4138 
Q 1444 4138 1231 3931 
Q 1019 3725 1019 3438 
z
M 838 1322 
Q 838 1081 952 856 
Q 1066 631 1291 507 
Q 1516 384 1775 384 
Q 2178 384 2440 643 
Q 2703 903 2703 1303 
Q 2703 1709 2433 1975 
Q 2163 2241 1756 2241 
Q 1359 2241 1098 1978 
Q 838 1716 838 1322 
z
" transform="scale(0.015625)"/>
       </defs>
       <use xlink:href="#ArialMT-38"/>
       <use xlink:href="#ArialMT-30" x="55.615234"/>
      </g>
     </g>
    </g>
    <g id="ytick_6">
     <g id="line2d_12">
      <g>
       <use xlink:href="#m8f6b0a07ad" x="54.74" y="17.28" style="stroke: #000000; stroke-width: 0.8"/>
      </g>
     </g>
     <g id="text_13">
      <!-- 100 -->
      <g transform="translate(27.720625 21.574688) scale(0.12 -0.12)">
       <defs>
        <path id="ArialMT-31" d="M 2384 0 
L 1822 0 
L 1822 3584 
Q 1619 3391 1289 3197 
Q 959 3003 697 2906 
L 697 3450 
Q 1169 3672 1522 3987 
Q 1875 4303 2022 4600 
L 2384 4600 
L 2384 0 
z
" transform="scale(0.015625)"/>
       </defs>
       <use xlink:href="#ArialMT-31"/>
       <use xlink:href="#ArialMT-30" x="55.615234"/>
       <use xlink:href="#ArialMT-30" x="111.230469"/>
      </g>
     </g>
    </g>
    <g id="text_14">
     <!-- sequence recovery [%] -->
     <g transform="translate(21.195 154.83125) rotate(-90) scale(0.12 -0.12)">
      <defs>
       <path id="ArialMT-73" d="M 197 991 
L 753 1078 
Q 800 744 1014 566 
Q 1228 388 1613 388 
Q 2000 388 2187 545 
Q 2375 703 2375 916 
Q 2375 1106 2209 1216 
Q 2094 1291 1634 1406 
Q 1016 1563 777 1677 
Q 538 1791 414 1992 
Q 291 2194 291 2438 
Q 291 2659 392 2848 
Q 494 3038 669 3163 
Q 800 3259 1026 3326 
Q 1253 3394 1513 3394 
Q 1903 3394 2198 3281 
Q 2494 3169 2634 2976 
Q 2775 2784 2828 2463 
L 2278 2388 
Q 2241 2644 2061 2787 
Q 1881 2931 1553 2931 
Q 1166 2931 1000 2803 
Q 834 2675 834 2503 
Q 834 2394 903 2306 
Q 972 2216 1119 2156 
Q 1203 2125 1616 2013 
Q 2213 1853 2448 1751 
Q 2684 1650 2818 1456 
Q 2953 1263 2953 975 
Q 2953 694 2789 445 
Q 2625 197 2315 61 
Q 2006 -75 1616 -75 
Q 969 -75 630 194 
Q 291 463 197 991 
z
" transform="scale(0.015625)"/>
       <path id="ArialMT-71" d="M 2538 -1272 
L 2538 353 
Q 2406 169 2170 47 
Q 1934 -75 1669 -75 
Q 1078 -75 651 397 
Q 225 869 225 1691 
Q 225 2191 398 2587 
Q 572 2984 901 3189 
Q 1231 3394 1625 3394 
Q 2241 3394 2594 2875 
L 2594 3319 
L 3100 3319 
L 3100 -1272 
L 2538 -1272 
z
M 803 1669 
Q 803 1028 1072 708 
Q 1341 388 1716 388 
Q 2075 388 2334 692 
Q 2594 997 2594 1619 
Q 2594 2281 2320 2615 
Q 2047 2950 1678 2950 
Q 1313 2950 1058 2639 
Q 803 2328 803 1669 
z
" transform="scale(0.015625)"/>
       <path id="ArialMT-75" d="M 2597 0 
L 2597 488 
Q 2209 -75 1544 -75 
Q 1250 -75 995 37 
Q 741 150 617 320 
Q 494 491 444 738 
Q 409 903 409 1263 
L 409 3319 
L 972 3319 
L 972 1478 
Q 972 1038 1006 884 
Q 1059 663 1231 536 
Q 1403 409 1656 409 
Q 1909 409 2131 539 
Q 2353 669 2445 892 
Q 2538 1116 2538 1541 
L 2538 3319 
L 3100 3319 
L 3100 0 
L 2597 0 
z
" transform="scale(0.015625)"/>
       <path id="ArialMT-76" d="M 1344 0 
L 81 3319 
L 675 3319 
L 1388 1331 
Q 1503 1009 1600 663 
Q 1675 925 1809 1294 
L 2547 3319 
L 3125 3319 
L 1869 0 
L 1344 0 
z
" transform="scale(0.015625)"/>
       <path id="ArialMT-5b" d="M 434 -1272 
L 434 4581 
L 1675 4581 
L 1675 4116 
L 997 4116 
L 997 -806 
L 1675 -806 
L 1675 -1272 
L 434 -1272 
z
" transform="scale(0.015625)"/>
       <path id="ArialMT-25" d="M 372 3481 
Q 372 3972 619 4315 
Q 866 4659 1334 4659 
Q 1766 4659 2048 4351 
Q 2331 4044 2331 3447 
Q 2331 2866 2045 2552 
Q 1759 2238 1341 2238 
Q 925 2238 648 2547 
Q 372 2856 372 3481 
z
M 1350 4272 
Q 1141 4272 1002 4090 
Q 863 3909 863 3425 
Q 863 2984 1003 2804 
Q 1144 2625 1350 2625 
Q 1563 2625 1702 2806 
Q 1841 2988 1841 3469 
Q 1841 3913 1700 4092 
Q 1559 4272 1350 4272 
z
M 1353 -169 
L 3859 4659 
L 4316 4659 
L 1819 -169 
L 1353 -169 
z
M 3334 1075 
Q 3334 1569 3581 1911 
Q 3828 2253 4300 2253 
Q 4731 2253 5014 1945 
Q 5297 1638 5297 1041 
Q 5297 459 5011 145 
Q 4725 -169 4303 -169 
Q 3888 -169 3611 142 
Q 3334 453 3334 1075 
z
M 4316 1866 
Q 4103 1866 3964 1684 
Q 3825 1503 3825 1019 
Q 3825 581 3965 400 
Q 4106 219 4313 219 
Q 4528 219 4667 400 
Q 4806 581 4806 1063 
Q 4806 1506 4665 1686 
Q 4525 1866 4316 1866 
z
" transform="scale(0.015625)"/>
       <path id="ArialMT-5d" d="M 1363 -1272 
L 122 -1272 
L 122 -806 
L 800 -806 
L 800 4116 
L 122 4116 
L 122 4581 
L 1363 4581 
L 1363 -1272 
z
" transform="scale(0.015625)"/>
      </defs>
      <use xlink:href="#ArialMT-73"/>
      <use xlink:href="#ArialMT-65" x="50"/>
      <use xlink:href="#ArialMT-71" x="105.615234"/>
      <use xlink:href="#ArialMT-75" x="161.230469"/>
      <use xlink:href="#ArialMT-65" x="216.845703"/>
      <use xlink:href="#ArialMT-6e" x="272.460938"/>
      <use xlink:href="#ArialMT-63" x="328.076172"/>
      <use xlink:href="#ArialMT-65" x="378.076172"/>
      <use xlink:href="#ArialMT-20" x="433.691406"/>
      <use xlink:href="#ArialMT-72" x="461.474609"/>
      <use xlink:href="#ArialMT-65" x="494.775391"/>
      <use xlink:href="#ArialMT-63" x="550.390625"/>
      <use xlink:href="#ArialMT-6f" x="600.390625"/>
      <use xlink:href="#ArialMT-76" x="656.005859"/>
      <use xlink:href="#ArialMT-65" x="706.005859"/>
      <use xlink:href="#ArialMT-72" x="761.621094"/>
      <use xlink:href="#ArialMT-79" x="794.921875"/>
      <use xlink:href="#ArialMT-20" x="844.921875"/>
      <use xlink:href="#ArialMT-5b" x="872.705078"/>
      <use xlink:href="#ArialMT-25" x="900.488281"/>
      <use xlink:href="#ArialMT-5d" x="989.404297"/>
     </g>
    </g>
   </g>
   <g id="LineCollection_1">
    <path d="M 71.045992 51.290554 
L 77.085248 51.290554 
" clip-path="url(#p1c2fdc9eba)" style="fill: none; stroke: #0d3b66; stroke-width: 1.5"/>
    <path d="M 119.360041 51.839116 
L 125.399298 51.839116 
" clip-path="url(#p1c2fdc9eba)" style="fill: none; stroke: #0d3b66; stroke-width: 1.5"/>
    <path d="M 167.674091 51.290554 
L 173.713347 51.290554 
" clip-path="url(#p1c2fdc9eba)" style="fill: none; stroke: #0d3b66; stroke-width: 1.5"/>
    <path d="M 215.98814 42.098517 
L 222.027397 42.098517 
" clip-path="url(#p1c2fdc9eba)" style="fill: none; stroke: #0d3b66; stroke-width: 1.5"/>
    <path d="M 264.30219 39.143927 
L 270.341446 39.143927 
" clip-path="url(#p1c2fdc9eba)" style="fill: none; stroke: #0d3b66; stroke-width: 1.5"/>
    <path d="M 312.61624 54.011401 
L 318.655496 54.011401 
" clip-path="url(#p1c2fdc9eba)" style="fill: none; stroke: #0d3b66; stroke-width: 1.5"/>
   </g>
   <g id="LineCollection_2">
    <path d="M 83.124504 35.285587 
L 89.16376 35.285587 
" clip-path="url(#p1c2fdc9eba)" style="fill: none; stroke: #bf4e30; stroke-width: 1.5"/>
    <path d="M 131.438554 37.242722 
L 137.47781 37.242722 
" clip-path="url(#p1c2fdc9eba)" style="fill: none; stroke: #bf4e30; stroke-width: 1.5"/>
    <path d="M 179.752603 34.285277 
L 185.79186 34.285277 
" clip-path="url(#p1c2fdc9eba)" style="fill: none; stroke: #bf4e30; stroke-width: 1.5"/>
    <path d="M 228.066653 17.28 
L 234.105909 17.28 
" clip-path="url(#p1c2fdc9eba)" style="fill: none; stroke: #bf4e30; stroke-width: 1.5"/>
    <path d="M 276.380702 17.28 
L 282.419959 17.28 
" clip-path="url(#p1c2fdc9eba)" style="fill: none; stroke: #bf4e30; stroke-width: 1.5"/>
    <path d="M 324.694752 31.855952 
L 330.734008 31.855952 
" clip-path="url(#p1c2fdc9eba)" style="fill: none; stroke: #bf4e30; stroke-width: 1.5"/>
   </g>
   <g id="patch_3">
    <path d="M 54.74 170.3275 
L 54.74 17.28 
" style="fill: none; stroke: #000000; stroke-width: 0.8; stroke-linejoin: miter; stroke-linecap: square"/>
   </g>
   <g id="patch_4">
    <path d="M 347.04 170.3275 
L 347.04 17.28 
" style="fill: none; stroke: #000000; stroke-width: 0.8; stroke-linejoin: miter; stroke-linecap: square"/>
   </g>
   <g id="patch_5">
    <path d="M 54.74 170.3275 
L 347.04 170.3275 
" style="fill: none; stroke: #000000; stroke-width: 0.8; stroke-linejoin: miter; stroke-linecap: square"/>
   </g>
   <g id="patch_6">
    <path d="M 54.74 17.28 
L 347.04 17.28 
" style="fill: none; stroke: #000000; stroke-width: 0.8; stroke-linejoin: miter; stroke-linecap: square"/>
   </g>
   <g id="legend_1">
    <g id="patch_7">
     <path d="M 61.74 165.3275 
L 160.44 165.3275 
Q 162.44 165.3275 162.44 163.3275 
L 162.44 140.036875 
Q 162.44 138.036875 160.44 138.036875 
L 61.74 138.036875 
Q 59.74 138.036875 59.74 140.036875 
L 59.74 163.3275 
Q 59.74 165.3275 61.74 165.3275 
z
" style="fill: #ffffff; opacity: 0.8; stroke: #cccccc; stroke-linejoin: miter"/>
    </g>
    <g id="patch_8">
     <path d="M 63.74 149.194687 
L 83.74 149.194687 
L 83.74 142.194687 
L 63.74 142.194687 
z
" style="fill: #0d3b66; fill-opacity: 0.3; stroke: #0d3b66; stroke-opacity: 0.3; stroke-linejoin: miter"/>
    </g>
    <g id="text_15">
     <!-- without context -->
     <g transform="translate(91.74 149.194687) scale(0.1 -0.1)">
      <defs>
       <path id="ArialMT-77" d="M 1034 0 
L 19 3319 
L 600 3319 
L 1128 1403 
L 1325 691 
Q 1338 744 1497 1375 
L 2025 3319 
L 2603 3319 
L 3100 1394 
L 3266 759 
L 3456 1400 
L 4025 3319 
L 4572 3319 
L 3534 0 
L 2950 0 
L 2422 1988 
L 2294 2553 
L 1622 0 
L 1034 0 
z
" transform="scale(0.015625)"/>
       <path id="ArialMT-68" d="M 422 0 
L 422 4581 
L 984 4581 
L 984 2938 
Q 1378 3394 1978 3394 
Q 2347 3394 2619 3248 
Q 2891 3103 3008 2847 
Q 3125 2591 3125 2103 
L 3125 0 
L 2563 0 
L 2563 2103 
Q 2563 2525 2380 2717 
Q 2197 2909 1863 2909 
Q 1613 2909 1392 2779 
Q 1172 2650 1078 2428 
Q 984 2206 984 1816 
L 984 0 
L 422 0 
z
" transform="scale(0.015625)"/>
       <path id="ArialMT-78" d="M 47 0 
L 1259 1725 
L 138 3319 
L 841 3319 
L 1350 2541 
Q 1494 2319 1581 2169 
Q 1719 2375 1834 2534 
L 2394 3319 
L 3066 3319 
L 1919 1756 
L 3153 0 
L 2463 0 
L 1781 1031 
L 1600 1309 
L 728 0 
L 47 0 
z
" transform="scale(0.015625)"/>
      </defs>
      <use xlink:href="#ArialMT-77"/>
      <use xlink:href="#ArialMT-69" x="72.216797"/>
      <use xlink:href="#ArialMT-74" x="94.433594"/>
      <use xlink:href="#ArialMT-68" x="122.216797"/>
      <use xlink:href="#ArialMT-6f" x="177.832031"/>
      <use xlink:href="#ArialMT-75" x="233.447266"/>
      <use xlink:href="#ArialMT-74" x="289.0625"/>
      <use xlink:href="#ArialMT-20" x="316.845703"/>
      <use xlink:href="#ArialMT-63" x="344.628906"/>
      <use xlink:href="#ArialMT-6f" x="394.628906"/>
      <use xlink:href="#ArialMT-6e" x="450.244141"/>
      <use xlink:href="#ArialMT-74" x="505.859375"/>
      <use xlink:href="#ArialMT-65" x="533.642578"/>
      <use xlink:href="#ArialMT-78" x="589.257812"/>
      <use xlink:href="#ArialMT-74" x="639.257812"/>
     </g>
    </g>
    <g id="patch_9">
     <path d="M 63.74 159.34 
L 83.74 159.34 
L 83.74 152.34 
L 63.74 152.34 
z
" style="fill: #bf4e30; fill-opacity: 0.3; stroke: #bf4e30; stroke-opacity: 0.3; stroke-linejoin: miter"/>
    </g>
    <g id="text_16">
     <!-- with context -->
     <g transform="translate(91.74 159.34) scale(0.1 -0.1)">
      <use xlink:href="#ArialMT-77"/>
      <use xlink:href="#ArialMT-69" x="72.216797"/>
      <use xlink:href="#ArialMT-74" x="94.433594"/>
      <use xlink:href="#ArialMT-68" x="122.216797"/>
      <use xlink:href="#ArialMT-20" x="177.832031"/>
      <use xlink:href="#ArialMT-63" x="205.615234"/>
      <use xlink:href="#ArialMT-6f" x="255.615234"/>
      <use xlink:href="#ArialMT-6e" x="311.230469"/>
      <use xlink:href="#ArialMT-74" x="366.845703"/>
      <use xlink:href="#ArialMT-65" x="394.628906"/>
      <use xlink:href="#ArialMT-78" x="450.244141"/>
      <use xlink:href="#ArialMT-74" x="500.244141"/>
     </g>
    </g>
   </g>
  </g>
 </g>
 <defs>
  <clipPath id="p1c2fdc9eba">
   <rect x="54.74" y="17.28" width="292.3" height="153.0475"/>
  </clipPath>
 </defs>
</svg>
