<?xml version="1.0" encoding="utf-8" standalone="no"?>
<!DOCTYPE svg PUBLIC "-//W3C//DTD SVG 1.1//EN"
  "http://www.w3.org/Graphics/SVG/1.1/DTD/svg11.dtd">
<svg xmlns:xlink="http://www.w3.org/1999/xlink" width="288pt" height="129.6pt" viewBox="0 0 288 129.6" xmlns="http://www.w3.org/2000/svg" version="1.1">
 <metadata>
  <rdf:RDF xmlns:dc="http://purl.org/dc/elements/1.1/" xmlns:cc="http://creativecommons.org/ns#" xmlns:rdf="http://www.w3.org/1999/02/22-rdf-syntax-ns#">
   <cc:Work>
    <dc:type rdf:resource="http://purl.org/dc/dcmitype/StillImage"/>
    <dc:date>2024-05-06T17:23:18.848830</dc:date>
    <dc:format>image/svg+xml</dc:format>
    <dc:creator>
     <cc:Agent>
      <dc:title>Matplotlib v3.7.1, https://matplotlib.org/</dc:title>
     </cc:Agent>
    </dc:creator>
   </cc:Work>
  </rdf:RDF>
 </metadata>
 <defs>
  <style type="text/css">*{stroke-linejoin: round; stroke-linecap: butt}</style>
 </defs>
 <g id="figure_1">
  <g id="patch_1">
   <path d="M 0 129.6 
L 288 129.6 
L 288 0 
L 0 0 
z
" style="fill: #ffffff"/>
  </g>
  <g id="axes_1">
   <g id="patch_2">
    <path d="M 93.31 84.04 
L 275.04 84.04 
L 275.04 26.88 
L 93.31 26.88 
z
" style="fill: #ffffff"/>
   </g>
   <g id="PolyCollection_1">
    <defs>
     <path id="m4e0e69379c" d="M 83.80883 -55.456933 
L 83.80883 -54.331485 
L 85.547005 -54.282107 
L 87.28518 -54.233324 
L 89.023354 -54.185446 
L 90.761529 -54.138657 
L 92.499704 -54.093008 
L 94.237879 -54.048405 
L 95.976053 -54.004622 
L 97.714228 -53.961304 
L 99.452403 -53.917993 
L 101.190577 -53.874146 
L 102.928752 -53.829171 
L 104.666927 -53.78245 
L 106.405102 -53.733378 
L 108.143276 -53.681395 
L 109.881451 -53.626017 
L 111.619626 -53.566867 
L 113.3578 -53.503699 
L 115.095975 -53.436417 
L 116.83415 -53.365094 
L 118.572324 -53.289978 
L 120.310499 -53.211494 
L 122.048674 -53.130244 
L 123.786849 -53.046994 
L 125.525023 -52.962667 
L 127.263198 -52.878318 
L 129.001373 -52.795107 
L 130.739547 -52.714273 
L 132.477722 -52.637087 
L 134.215897 -52.564803 
L 135.954072 -52.498597 
L 137.692246 -52.4395 
L 139.430421 -52.388322 
L 141.168596 -52.345568 
L 142.90677 -52.311364 
L 144.644945 -52.285385 
L 146.38312 -52.266801 
L 148.121295 -52.254244 
L 149.859469 -52.245804 
L 151.597644 -52.239057 
L 153.335819 -52.231134 
L 155.073993 -52.218815 
L 156.812168 -52.198662 
L 158.550343 -52.167174 
L 160.288517 -52.120957 
L 162.026692 -52.0569 
L 163.764867 -51.972346 
L 165.503042 -51.865249 
L 167.241216 -51.734301 
L 168.979391 -51.579037 
L 170.717566 -51.399888 
L 172.45574 -51.198212 
L 174.193915 -50.976265 
L 175.93209 -50.737146 
L 177.670265 -50.484705 
L 179.408439 -50.223407 
L 181.146614 -49.95819 
L 182.884789 -49.694286 
L 184.622963 -49.437048 
L 186.361138 -49.191765 
L 188.099313 -48.963491 
L 189.837488 -48.756889 
L 191.575662 -48.576101 
L 193.313837 -48.424647 
L 195.052012 -48.305362 
L 196.790186 -48.220364 
L 198.528361 -48.171061 
L 200.266536 -48.158182 
L 202.00471 -48.181829 
L 203.742885 -48.241548 
L 205.48106 -48.336393 
L 207.219235 -48.464998 
L 208.957409 -48.625624 
L 210.695584 -48.816204 
L 212.433759 -49.034366 
L 214.171933 -49.277451 
L 215.910108 -49.542515 
L 217.648283 -49.826343 
L 219.386458 -50.125459 
L 221.124632 -50.436159 
L 222.862807 -50.754558 
L 224.600982 -51.076656 
L 226.339156 -51.398429 
L 228.077331 -51.715928 
L 229.815506 -52.025391 
L 231.553681 -52.323359 
L 233.291855 -52.606779 
L 235.03003 -52.873093 
L 236.768205 -53.12031 
L 238.506379 -53.347044 
L 240.244554 -53.552525 
L 241.982729 -53.736581 
L 243.720904 -53.899593 
L 245.459078 -54.042422 
L 247.197253 -54.166327 
L 248.935428 -54.272862 
L 250.673602 -54.363778 
L 252.411777 -54.440925 
L 254.149952 -54.506155 
L 255.888126 -54.561254 
L 255.888126 -55.227163 
L 255.888126 -55.227163 
L 254.149952 -55.282262 
L 252.411777 -55.347493 
L 250.673602 -55.424639 
L 248.935428 -55.515556 
L 247.197253 -55.622091 
L 245.459078 -55.745995 
L 243.720904 -55.888825 
L 241.982729 -56.051837 
L 240.244554 -56.235893 
L 238.506379 -56.441374 
L 236.768205 -56.668107 
L 235.03003 -56.915325 
L 233.291855 -57.181639 
L 231.553681 -57.465058 
L 229.815506 -57.763026 
L 228.077331 -58.072489 
L 226.339156 -58.389988 
L 224.600982 -58.711761 
L 222.862807 -59.03386 
L 221.124632 -59.352259 
L 219.386458 -59.662959 
L 217.648283 -59.962075 
L 215.910108 -60.245903 
L 214.171933 -60.510967 
L 212.433759 -60.754052 
L 210.695584 -60.972214 
L 208.957409 -61.162794 
L 207.219235 -61.323419 
L 205.48106 -61.452024 
L 203.742885 -61.54687 
L 202.00471 -61.606589 
L 200.266536 -61.630236 
L 198.528361 -61.617356 
L 196.790186 -61.568053 
L 195.052012 -61.483055 
L 193.313837 -61.36377 
L 191.575662 -61.212316 
L 189.837488 -61.031528 
L 188.099313 -60.824926 
L 186.361138 -60.596652 
L 184.622963 -60.351369 
L 182.884789 -60.094132 
L 181.146614 -59.830228 
L 179.408439 -59.56501 
L 177.670265 -59.303713 
L 175.93209 -59.051271 
L 174.193915 -58.812153 
L 172.45574 -58.590206 
L 170.717566 -58.388529 
L 168.979391 -58.209381 
L 167.241216 -58.054116 
L 165.503042 -57.923169 
L 163.764867 -57.816071 
L 162.026692 -57.731517 
L 160.288517 -57.66746 
L 158.550343 -57.621243 
L 156.812168 -57.589756 
L 155.073993 -57.569603 
L 153.335819 -57.557284 
L 151.597644 -57.54936 
L 149.859469 -57.542614 
L 148.121295 -57.534173 
L 146.38312 -57.521616 
L 144.644945 -57.503032 
L 142.90677 -57.477053 
L 141.168596 -57.442849 
L 139.430421 -57.400095 
L 137.692246 -57.348917 
L 135.954072 -57.289821 
L 134.215897 -57.223615 
L 132.477722 -57.15133 
L 130.739547 -57.074144 
L 129.001373 -56.99331 
L 127.263198 -56.9101 
L 125.525023 -56.82575 
L 123.786849 -56.741423 
L 122.048674 -56.658174 
L 120.310499 -56.576923 
L 118.572324 -56.498439 
L 116.83415 -56.423323 
L 115.095975 -56.352001 
L 113.3578 -56.284719 
L 111.619626 -56.22155 
L 109.881451 -56.1624 
L 108.143276 -56.107023 
L 106.405102 -56.05504 
L 104.666927 -56.005968 
L 102.928752 -55.959247 
L 101.190577 -55.914271 
L 99.452403 -55.870425 
L 97.714228 -55.827114 
L 95.976053 -55.783796 
L 94.237879 -55.740012 
L 92.499704 -55.69541 
L 90.761529 -55.64976 
L 89.023354 -55.602972 
L 87.28518 -55.555093 
L 85.547005 -55.50631 
L 83.80883 -55.456933 
z
" style="stroke: #0e9595; stroke-opacity: 0.3"/>
    </defs>
    <g clip-path="url(#pa433243e9a)">
     <use xlink:href="#m4e0e69379c" x="0" y="129.6" style="fill: #0e9595; fill-opacity: 0.3; stroke: #0e9595; stroke-opacity: 0.3"/>
    </g>
   </g>
   <g id="PolyCollection_2">
    <defs>
     <path id="m30cb3d6c93" d="M 102.096057 -74.581641 
L 102.096057 -73.698359 
L 103.77234 -73.648825 
L 105.448623 -73.596668 
L 107.124905 -73.541942 
L 108.801188 -73.484725 
L 110.477471 -73.425125 
L 112.153754 -73.363301 
L 113.830036 -73.299475 
L 115.506319 -73.233936 
L 117.182602 -73.167038 
L 118.858884 -73.099186 
L 120.535167 -73.030811 
L 122.21145 -72.962327 
L 123.887733 -72.894088 
L 125.564015 -72.826334 
L 127.240298 -72.759141 
L 128.916581 -72.692385 
L 130.592863 -72.625709 
L 132.269146 -72.558529 
L 133.945429 -72.490052 
L 135.621712 -72.419333 
L 137.297994 -72.345347 
L 138.974277 -72.267089 
L 140.65056 -72.183687 
L 142.326842 -72.09451 
L 144.003125 -71.999279 
L 145.679408 -71.898145 
L 147.355691 -71.791748 
L 149.031973 -71.681237 
L 150.708256 -71.56824 
L 152.384539 -71.45481 
L 154.060821 -71.343315 
L 155.737104 -71.236307 
L 157.413387 -71.136359 
L 159.08967 -71.045898 
L 160.765952 -70.967031 
L 162.442235 -70.901374 
L 164.118518 -70.849915 
L 165.7948 -70.812898 
L 167.471083 -70.789749 
L 169.147366 -70.779045 
L 170.823649 -70.778535 
L 172.499931 -70.785208 
L 174.176214 -70.795414 
L 175.852497 -70.805022 
L 177.528779 -70.809626 
L 179.205062 -70.804765 
L 180.881345 -70.786166 
L 182.557628 -70.749984 
L 184.23391 -70.693022 
L 185.910193 -70.612921 
L 187.586476 -70.508311 
L 189.262758 -70.378895 
L 190.939041 -70.225478 
L 192.615324 -70.049926 
L 194.291607 -69.855069 
L 195.967889 -69.64454 
L 197.644172 -69.422584 
L 199.320455 -69.193835 
L 200.996738 -68.963096 
L 202.67302 -68.735126 
L 204.349303 -68.51446 
L 206.025586 -68.305274 
L 207.701868 -68.111302 
L 209.378151 -67.935803 
L 211.054434 -67.78158 
L 212.730717 -67.651033 
L 214.406999 -67.546241 
L 216.083282 -67.469041 
L 217.759565 -67.421103 
L 219.435847 -67.403973 
L 221.11213 -67.419083 
L 222.788413 -67.467708 
L 224.464696 -67.550895 
L 226.140978 -67.669342 
L 227.817261 -67.823267 
L 229.493544 -68.012266 
L 231.169826 -68.235187 
L 232.846109 -68.490036 
L 234.522392 -68.773934 
L 236.198675 -69.083121 
L 237.874957 -69.413039 
L 239.55124 -69.75846 
L 241.227523 -70.11368 
L 242.903805 -70.472741 
L 244.580088 -70.829684 
L 246.256371 -71.178801 
L 247.932654 -71.514869 
L 249.608936 -71.833355 
L 251.285219 -72.130573 
L 252.961502 -72.403778 
L 254.637784 -72.651214 
L 256.314067 -72.872091 
L 257.99035 -73.066519 
L 259.666633 -73.23539 
L 261.342915 -73.380234 
L 263.019198 -73.503063 
L 264.695481 -73.606198 
L 266.371763 -73.692114 
L 268.048046 -73.763299 
L 268.048046 -74.516701 
L 268.048046 -74.516701 
L 266.371763 -74.587886 
L 264.695481 -74.673802 
L 263.019198 -74.776937 
L 261.342915 -74.899766 
L 259.666633 -75.04461 
L 257.99035 -75.213481 
L 256.314067 -75.407909 
L 254.637784 -75.628786 
L 252.961502 -75.876222 
L 251.285219 -76.149427 
L 249.608936 -76.446645 
L 247.932654 -76.765131 
L 246.256371 -77.101199 
L 244.580088 -77.450316 
L 242.903805 -77.807259 
L 241.227523 -78.16632 
L 239.55124 -78.52154 
L 237.874957 -78.866961 
L 236.198675 -79.196879 
L 234.522392 -79.506066 
L 232.846109 -79.789964 
L 231.169826 -80.044813 
L 229.493544 -80.267734 
L 227.817261 -80.456733 
L 226.140978 -80.610658 
L 224.464696 -80.729105 
L 222.788413 -80.812292 
L 221.11213 -80.860917 
L 219.435847 -80.876027 
L 217.759565 -80.858897 
L 216.083282 -80.810959 
L 214.406999 -80.733759 
L 212.730717 -80.628967 
L 211.054434 -80.49842 
L 209.378151 -80.344197 
L 207.701868 -80.168698 
L 206.025586 -79.974726 
L 204.349303 -79.76554 
L 202.67302 -79.544874 
L 200.996738 -79.316904 
L 199.320455 -79.086165 
L 197.644172 -78.857416 
L 195.967889 -78.63546 
L 194.291607 -78.424931 
L 192.615324 -78.230074 
L 190.939041 -78.054522 
L 189.262758 -77.901105 
L 187.586476 -77.771689 
L 185.910193 -77.667079 
L 184.23391 -77.586978 
L 182.557628 -77.530016 
L 180.881345 -77.493834 
L 179.205062 -77.475235 
L 177.528779 -77.470374 
L 175.852497 -77.474978 
L 174.176214 -77.484586 
L 172.499931 -77.494792 
L 170.823649 -77.501465 
L 169.147366 -77.500955 
L 167.471083 -77.490251 
L 165.7948 -77.467102 
L 164.118518 -77.430085 
L 162.442235 -77.378626 
L 160.765952 -77.312969 
L 159.08967 -77.234102 
L 157.413387 -77.143641 
L 155.737104 -77.043693 
L 154.060821 -76.936685 
L 152.384539 -76.82519 
L 150.708256 -76.71176 
L 149.031973 -76.598763 
L 147.355691 -76.488252 
L 145.679408 -76.381855 
L 144.003125 -76.280721 
L 142.326842 -76.18549 
L 140.65056 -76.096313 
L 138.974277 -76.012911 
L 137.297994 -75.934653 
L 135.621712 -75.860667 
L 133.945429 -75.789948 
L 132.269146 -75.721471 
L 130.592863 -75.654291 
L 128.916581 -75.587615 
L 127.240298 -75.520859 
L 125.564015 -75.453666 
L 123.887733 -75.385912 
L 122.21145 -75.317673 
L 120.535167 -75.249189 
L 118.858884 -75.180814 
L 117.182602 -75.112962 
L 115.506319 -75.046064 
L 113.830036 -74.980525 
L 112.153754 -74.916699 
L 110.477471 -74.854875 
L 108.801188 -74.795275 
L 107.124905 -74.738058 
L 105.448623 -74.683332 
L 103.77234 -74.631175 
L 102.096057 -74.581641 
z
" style="stroke: #0d3b66; stroke-opacity: 0.3"/>
    </defs>
    <g clip-path="url(#pa433243e9a)">
     <use xlink:href="#m30cb3d6c93" x="0" y="129.6" style="fill: #0d3b66; fill-opacity: 0.3; stroke: #0d3b66; stroke-opacity: 0.3"/>
    </g>
   </g>
   <g id="PolyCollection_3">
    <defs>
     <path id="m9ae6dd46e3" d="M 128.483548 -94.63271 
L 128.483548 -92.138873 
L 129.70905 -92.032602 
L 130.934551 -91.926653 
L 132.160052 -91.822141 
L 133.385553 -91.720155 
L 134.611054 -91.621734 
L 135.836556 -91.52783 
L 137.062057 -91.439289 
L 138.287558 -91.356827 
L 139.513059 -91.281014 
L 140.73856 -91.212262 
L 141.964062 -91.150821 
L 143.189563 -91.09678 
L 144.415064 -91.050072 
L 145.640565 -91.010483 
L 146.866066 -90.977673 
L 148.091567 -90.951189 
L 149.317069 -90.930488 
L 150.54257 -90.914964 
L 151.768071 -90.903965 
L 152.993572 -90.896824 
L 154.219073 -90.892873 
L 155.444575 -90.891465 
L 156.670076 -90.891987 
L 157.895577 -90.89387 
L 159.121078 -90.896596 
L 160.346579 -90.899689 
L 161.572081 -90.902717 
L 162.797582 -90.905273 
L 164.023083 -90.906963 
L 165.248584 -90.907382 
L 166.474085 -90.906095 
L 167.699587 -90.902614 
L 168.925088 -90.896382 
L 170.150589 -90.886754 
L 171.37609 -90.87299 
L 172.601591 -90.854253 
L 173.827093 -90.829614 
L 175.052594 -90.798066 
L 176.278095 -90.758551 
L 177.503596 -90.709985 
L 178.729097 -90.6513 
L 179.954599 -90.581483 
L 181.1801 -90.49962 
L 182.405601 -90.404943 
L 183.631102 -90.296872 
L 184.856603 -90.175052 
L 186.082105 -90.039389 
L 187.307606 -89.890078 
L 188.533107 -89.727619 
L 189.758608 -89.552829 
L 190.984109 -89.366846 
L 192.20961 -89.171122 
L 193.435112 -88.967406 
L 194.660613 -88.757726 
L 195.886114 -88.544357 
L 197.111615 -88.329785 
L 198.337116 -88.116671 
L 199.562618 -87.907796 
L 200.788119 -87.706023 
L 202.01362 -87.514232 
L 203.239121 -87.335277 
L 204.464622 -87.171921 
L 205.690124 -87.026787 
L 206.915625 -86.902304 
L 208.141126 -86.800649 
L 209.366627 -86.723708 
L 210.592128 -86.673023 
L 211.81763 -86.649764 
L 213.043131 -86.654689 
L 214.268632 -86.688124 
L 215.494133 -86.749949 
L 216.719634 -86.839588 
L 217.945136 -86.956019 
L 219.170637 -87.097788 
L 220.396138 -87.263037 
L 221.621639 -87.44954 
L 222.84714 -87.654763 
L 224.072642 -87.875918 
L 225.298143 -88.110038 
L 226.523644 -88.354054 
L 227.749145 -88.604878 
L 228.974646 -88.859488 
L 230.200148 -89.115005 
L 231.425649 -89.368771 
L 232.65115 -89.61841 
L 233.876651 -89.861878 
L 235.102152 -90.0975 
L 236.327653 -90.323985 
L 237.553155 -90.540421 
L 238.778656 -90.746262 
L 240.004157 -90.941292 
L 241.229658 -91.125574 
L 242.455159 -91.299399 
L 243.680661 -91.463224 
L 244.906162 -91.617608 
L 246.131663 -91.763157 
L 247.357164 -91.900473 
L 248.582665 -92.03011 
L 249.808167 -92.152547 
L 249.808167 -94.619035 
L 249.808167 -94.619035 
L 248.582665 -94.741472 
L 247.357164 -94.871109 
L 246.131663 -95.008425 
L 244.906162 -95.153974 
L 243.680661 -95.308358 
L 242.455159 -95.472183 
L 241.229658 -95.646009 
L 240.004157 -95.830291 
L 238.778656 -96.02532 
L 237.553155 -96.231162 
L 236.327653 -96.447598 
L 235.102152 -96.674082 
L 233.876651 -96.909704 
L 232.65115 -97.153173 
L 231.425649 -97.402811 
L 230.200148 -97.656577 
L 228.974646 -97.912095 
L 227.749145 -98.166704 
L 226.523644 -98.417529 
L 225.298143 -98.661545 
L 224.072642 -98.895664 
L 222.84714 -99.116819 
L 221.621639 -99.322042 
L 220.396138 -99.508546 
L 219.170637 -99.673794 
L 217.945136 -99.815563 
L 216.719634 -99.931995 
L 215.494133 -100.021634 
L 214.268632 -100.083458 
L 213.043131 -100.116893 
L 211.81763 -100.121818 
L 210.592128 -100.098559 
L 209.366627 -100.047875 
L 208.141126 -99.970933 
L 206.915625 -99.869279 
L 205.690124 -99.744795 
L 204.464622 -99.599662 
L 203.239121 -99.436306 
L 202.01362 -99.25735 
L 200.788119 -99.06556 
L 199.562618 -98.863786 
L 198.337116 -98.654912 
L 197.111615 -98.441797 
L 195.886114 -98.227226 
L 194.660613 -98.013856 
L 193.435112 -97.804176 
L 192.20961 -97.60046 
L 190.984109 -97.404736 
L 189.758608 -97.218754 
L 188.533107 -97.043964 
L 187.307606 -96.881504 
L 186.082105 -96.732193 
L 184.856603 -96.596531 
L 183.631102 -96.474711 
L 182.405601 -96.366639 
L 181.1801 -96.271963 
L 179.954599 -96.1901 
L 178.729097 -96.120282 
L 177.503596 -96.061597 
L 176.278095 -96.013031 
L 175.052594 -95.973516 
L 173.827093 -95.941969 
L 172.601591 -95.917329 
L 171.37609 -95.898593 
L 170.150589 -95.884829 
L 168.925088 -95.875201 
L 167.699587 -95.868969 
L 166.474085 -95.865488 
L 165.248584 -95.8642 
L 164.023083 -95.864619 
L 162.797582 -95.866309 
L 161.572081 -95.868866 
L 160.346579 -95.871894 
L 159.121078 -95.874987 
L 157.895577 -95.877712 
L 156.670076 -95.879596 
L 155.444575 -95.880117 
L 154.219073 -95.878709 
L 152.993572 -95.874758 
L 151.768071 -95.867617 
L 150.54257 -95.856619 
L 149.317069 -95.841094 
L 148.091567 -95.820394 
L 146.866066 -95.793909 
L 145.640565 -95.761099 
L 144.415064 -95.721511 
L 143.189563 -95.674803 
L 141.964062 -95.620762 
L 140.73856 -95.559321 
L 139.513059 -95.490569 
L 138.287558 -95.414755 
L 137.062057 -95.332293 
L 135.836556 -95.243753 
L 134.611054 -95.149849 
L 133.385553 -95.051427 
L 132.160052 -94.949442 
L 130.934551 -94.844929 
L 129.70905 -94.73898 
L 128.483548 -94.63271 
z
" style="stroke: #bf4e30; stroke-opacity: 0.3"/>
    </defs>
    <g clip-path="url(#pa433243e9a)">
     <use xlink:href="#m9ae6dd46e3" x="0" y="129.6" style="fill: #bf4e30; fill-opacity: 0.3; stroke: #bf4e30; stroke-opacity: 0.3"/>
    </g>
   </g>
   <g id="matplotlib.axis_1">
    <g id="xtick_1">
     <g id="line2d_1">
      <defs>
       <path id="m8b979982b6" d="M 0 0 
L 0 3.5 
" style="stroke: #000000; stroke-width: 0.8"/>
      </defs>
      <g>
       <use xlink:href="#m8b979982b6" x="111.185082" y="84.04" style="stroke: #000000; stroke-width: 0.8"/>
      </g>
     </g>
     <g id="text_1">
      <!-- 20 -->
      <g transform="translate(104.511957 99.629375) scale(0.12 -0.12)">
       <defs>
        <path id="ArialMT-32" d="M 3222 541 
L 3222 0 
L 194 0 
Q 188 203 259 391 
Q 375 700 629 1000 
Q 884 1300 1366 1694 
Q 2113 2306 2375 2664 
Q 2638 3022 2638 3341 
Q 2638 3675 2398 3904 
Q 2159 4134 1775 4134 
Q 1369 4134 1125 3890 
Q 881 3647 878 3216 
L 300 3275 
Q 359 3922 746 4261 
Q 1134 4600 1788 4600 
Q 2447 4600 2831 4234 
Q 3216 3869 3216 3328 
Q 3216 3053 3103 2787 
Q 2991 2522 2730 2228 
Q 2469 1934 1863 1422 
Q 1356 997 1212 845 
Q 1069 694 975 541 
L 3222 541 
z
" transform="scale(0.015625)"/>
        <path id="ArialMT-30" d="M 266 2259 
Q 266 3072 433 3567 
Q 600 4063 929 4331 
Q 1259 4600 1759 4600 
Q 2128 4600 2406 4451 
Q 2684 4303 2865 4023 
Q 3047 3744 3150 3342 
Q 3253 2941 3253 2259 
Q 3253 1453 3087 958 
Q 2922 463 2592 192 
Q 2263 -78 1759 -78 
Q 1097 -78 719 397 
Q 266 969 266 2259 
z
M 844 2259 
Q 844 1131 1108 757 
Q 1372 384 1759 384 
Q 2147 384 2411 759 
Q 2675 1134 2675 2259 
Q 2675 3391 2411 3762 
Q 2147 4134 1753 4134 
Q 1366 4134 1134 3806 
Q 844 3388 844 2259 
z
" transform="scale(0.015625)"/>
       </defs>
       <use xlink:href="#ArialMT-32"/>
       <use xlink:href="#ArialMT-30" x="55.615234"/>
      </g>
     </g>
    </g>
    <g id="xtick_2">
     <g id="line2d_2">
      <g>
       <use xlink:href="#m8b979982b6" x="170.768689" y="84.04" style="stroke: #000000; stroke-width: 0.8"/>
      </g>
     </g>
     <g id="text_2">
      <!-- 40 -->
      <g transform="translate(164.095564 99.629375) scale(0.12 -0.12)">
       <defs>
        <path id="ArialMT-34" d="M 2069 0 
L 2069 1097 
L 81 1097 
L 81 1613 
L 2172 4581 
L 2631 4581 
L 2631 1613 
L 3250 1613 
L 3250 1097 
L 2631 1097 
L 2631 0 
L 2069 0 
z
M 2069 1613 
L 2069 3678 
L 634 1613 
L 2069 1613 
z
" transform="scale(0.015625)"/>
       </defs>
       <use xlink:href="#ArialMT-34"/>
       <use xlink:href="#ArialMT-30" x="55.615234"/>
      </g>
     </g>
    </g>
    <g id="xtick_3">
     <g id="line2d_3">
      <g>
       <use xlink:href="#m8b979982b6" x="230.352295" y="84.04" style="stroke: #000000; stroke-width: 0.8"/>
      </g>
     </g>
     <g id="text_3">
      <!-- 60 -->
      <g transform="translate(223.67917 99.629375) scale(0.12 -0.12)">
       <defs>
        <path id="ArialMT-36" d="M 3184 3459 
L 2625 3416 
Q 2550 3747 2413 3897 
Q 2184 4138 1850 4138 
Q 1581 4138 1378 3988 
Q 1113 3794 959 3422 
Q 806 3050 800 2363 
Q 1003 2672 1297 2822 
Q 1591 2972 1913 2972 
Q 2475 2972 2870 2558 
Q 3266 2144 3266 1488 
Q 3266 1056 3080 686 
Q 2894 316 2569 119 
Q 2244 -78 1831 -78 
Q 1128 -78 684 439 
Q 241 956 241 2144 
Q 241 3472 731 4075 
Q 1159 4600 1884 4600 
Q 2425 4600 2770 4297 
Q 3116 3994 3184 3459 
z
M 888 1484 
Q 888 1194 1011 928 
Q 1134 663 1356 523 
Q 1578 384 1822 384 
Q 2178 384 2434 671 
Q 2691 959 2691 1453 
Q 2691 1928 2437 2201 
Q 2184 2475 1800 2475 
Q 1419 2475 1153 2201 
Q 888 1928 888 1484 
z
" transform="scale(0.015625)"/>
       </defs>
       <use xlink:href="#ArialMT-36"/>
       <use xlink:href="#ArialMT-30" x="55.615234"/>
      </g>
     </g>
    </g>
    <g id="text_4">
     <!-- sequence recovery [%] -->
     <g transform="translate(123.1475 114.75) scale(0.12 -0.12)">
      <defs>
       <path id="ArialMT-73" d="M 197 991 
L 753 1078 
Q 800 744 1014 566 
Q 1228 388 1613 388 
Q 2000 388 2187 545 
Q 2375 703 2375 916 
Q 2375 1106 2209 1216 
Q 2094 1291 1634 1406 
Q 1016 1563 777 1677 
Q 538 1791 414 1992 
Q 291 2194 291 2438 
Q 291 2659 392 2848 
Q 494 3038 669 3163 
Q 800 3259 1026 3326 
Q 1253 3394 1513 3394 
Q 1903 3394 2198 3281 
Q 2494 3169 2634 2976 
Q 2775 2784 2828 2463 
L 2278 2388 
Q 2241 2644 2061 2787 
Q 1881 2931 1553 2931 
Q 1166 2931 1000 2803 
Q 834 2675 834 2503 
Q 834 2394 903 2306 
Q 972 2216 1119 2156 
Q 1203 2125 1616 2013 
Q 2213 1853 2448 1751 
Q 2684 1650 2818 1456 
Q 2953 1263 2953 975 
Q 2953 694 2789 445 
Q 2625 197 2315 61 
Q 2006 -75 1616 -75 
Q 969 -75 630 194 
Q 291 463 197 991 
z
" transform="scale(0.015625)"/>
       <path id="ArialMT-65" d="M 2694 1069 
L 3275 997 
Q 3138 488 2766 206 
Q 2394 -75 1816 -75 
Q 1088 -75 661 373 
Q 234 822 234 1631 
Q 234 2469 665 2931 
Q 1097 3394 1784 3394 
Q 2450 3394 2872 2941 
Q 3294 2488 3294 1666 
Q 3294 1616 3291 1516 
L 816 1516 
Q 847 969 1125 678 
Q 1403 388 1819 388 
Q 2128 388 2347 550 
Q 2566 713 2694 1069 
z
M 847 1978 
L 2700 1978 
Q 2663 2397 2488 2606 
Q 2219 2931 1791 2931 
Q 1403 2931 1139 2672 
Q 875 2413 847 1978 
z
" transform="scale(0.015625)"/>
       <path id="ArialMT-71" d="M 2538 -1272 
L 2538 353 
Q 2406 169 2170 47 
Q 1934 -75 1669 -75 
Q 1078 -75 651 397 
Q 225 869 225 1691 
Q 225 2191 398 2587 
Q 572 2984 901 3189 
Q 1231 3394 1625 3394 
Q 2241 3394 2594 2875 
L 2594 3319 
L 3100 3319 
L 3100 -1272 
L 2538 -1272 
z
M 803 1669 
Q 803 1028 1072 708 
Q 1341 388 1716 388 
Q 2075 388 2334 692 
Q 2594 997 2594 1619 
Q 2594 2281 2320 2615 
Q 2047 2950 1678 2950 
Q 1313 2950 1058 2639 
Q 803 2328 803 1669 
z
" transform="scale(0.015625)"/>
       <path id="ArialMT-75" d="M 2597 0 
L 2597 488 
Q 2209 -75 1544 -75 
Q 1250 -75 995 37 
Q 741 150 617 320 
Q 494 491 444 738 
Q 409 903 409 1263 
L 409 3319 
L 972 3319 
L 972 1478 
Q 972 1038 1006 884 
Q 1059 663 1231 536 
Q 1403 409 1656 409 
Q 1909 409 2131 539 
Q 2353 669 2445 892 
Q 2538 1116 2538 1541 
L 2538 3319 
L 3100 3319 
L 3100 0 
L 2597 0 
z
" transform="scale(0.015625)"/>
       <path id="ArialMT-6e" d="M 422 0 
L 422 3319 
L 928 3319 
L 928 2847 
Q 1294 3394 1984 3394 
Q 2284 3394 2536 3286 
Q 2788 3178 2913 3003 
Q 3038 2828 3088 2588 
Q 3119 2431 3119 2041 
L 3119 0 
L 2556 0 
L 2556 2019 
Q 2556 2363 2490 2533 
Q 2425 2703 2258 2804 
Q 2091 2906 1866 2906 
Q 1506 2906 1245 2678 
Q 984 2450 984 1813 
L 984 0 
L 422 0 
z
" transform="scale(0.015625)"/>
       <path id="ArialMT-63" d="M 2588 1216 
L 3141 1144 
Q 3050 572 2676 248 
Q 2303 -75 1759 -75 
Q 1078 -75 664 370 
Q 250 816 250 1647 
Q 250 2184 428 2587 
Q 606 2991 970 3192 
Q 1334 3394 1763 3394 
Q 2303 3394 2647 3120 
Q 2991 2847 3088 2344 
L 2541 2259 
Q 2463 2594 2264 2762 
Q 2066 2931 1784 2931 
Q 1359 2931 1093 2626 
Q 828 2322 828 1663 
Q 828 994 1084 691 
Q 1341 388 1753 388 
Q 2084 388 2306 591 
Q 2528 794 2588 1216 
z
" transform="scale(0.015625)"/>
       <path id="ArialMT-20" transform="scale(0.015625)"/>
       <path id="ArialMT-72" d="M 416 0 
L 416 3319 
L 922 3319 
L 922 2816 
Q 1116 3169 1280 3281 
Q 1444 3394 1641 3394 
Q 1925 3394 2219 3213 
L 2025 2691 
Q 1819 2813 1613 2813 
Q 1428 2813 1281 2702 
Q 1134 2591 1072 2394 
Q 978 2094 978 1738 
L 978 0 
L 416 0 
z
" transform="scale(0.015625)"/>
       <path id="ArialMT-6f" d="M 213 1659 
Q 213 2581 725 3025 
Q 1153 3394 1769 3394 
Q 2453 3394 2887 2945 
Q 3322 2497 3322 1706 
Q 3322 1066 3130 698 
Q 2938 331 2570 128 
Q 2203 -75 1769 -75 
Q 1072 -75 642 372 
Q 213 819 213 1659 
z
M 791 1659 
Q 791 1022 1069 705 
Q 1347 388 1769 388 
Q 2188 388 2466 706 
Q 2744 1025 2744 1678 
Q 2744 2294 2464 2611 
Q 2184 2928 1769 2928 
Q 1347 2928 1069 2612 
Q 791 2297 791 1659 
z
" transform="scale(0.015625)"/>
       <path id="ArialMT-76" d="M 1344 0 
L 81 3319 
L 675 3319 
L 1388 1331 
Q 1503 1009 1600 663 
Q 1675 925 1809 1294 
L 2547 3319 
L 3125 3319 
L 1869 0 
L 1344 0 
z
" transform="scale(0.015625)"/>
       <path id="ArialMT-79" d="M 397 -1278 
L 334 -750 
Q 519 -800 656 -800 
Q 844 -800 956 -737 
Q 1069 -675 1141 -563 
Q 1194 -478 1313 -144 
Q 1328 -97 1363 -6 
L 103 3319 
L 709 3319 
L 1400 1397 
Q 1534 1031 1641 628 
Q 1738 1016 1872 1384 
L 2581 3319 
L 3144 3319 
L 1881 -56 
Q 1678 -603 1566 -809 
Q 1416 -1088 1222 -1217 
Q 1028 -1347 759 -1347 
Q 597 -1347 397 -1278 
z
" transform="scale(0.015625)"/>
       <path id="ArialMT-5b" d="M 434 -1272 
L 434 4581 
L 1675 4581 
L 1675 4116 
L 997 4116 
L 997 -806 
L 1675 -806 
L 1675 -1272 
L 434 -1272 
z
" transform="scale(0.015625)"/>
       <path id="ArialMT-25" d="M 372 3481 
Q 372 3972 619 4315 
Q 866 4659 1334 4659 
Q 1766 4659 2048 4351 
Q 2331 4044 2331 3447 
Q 2331 2866 2045 2552 
Q 1759 2238 1341 2238 
Q 925 2238 648 2547 
Q 372 2856 372 3481 
z
M 1350 4272 
Q 1141 4272 1002 4090 
Q 863 3909 863 3425 
Q 863 2984 1003 2804 
Q 1144 2625 1350 2625 
Q 1563 2625 1702 2806 
Q 1841 2988 1841 3469 
Q 1841 3913 1700 4092 
Q 1559 4272 1350 4272 
z
M 1353 -169 
L 3859 4659 
L 4316 4659 
L 1819 -169 
L 1353 -169 
z
M 3334 1075 
Q 3334 1569 3581 1911 
Q 3828 2253 4300 2253 
Q 4731 2253 5014 1945 
Q 5297 1638 5297 1041 
Q 5297 459 5011 145 
Q 4725 -169 4303 -169 
Q 3888 -169 3611 142 
Q 3334 453 3334 1075 
z
M 4316 1866 
Q 4103 1866 3964 1684 
Q 3825 1503 3825 1019 
Q 3825 581 3965 400 
Q 4106 219 4313 219 
Q 4528 219 4667 400 
Q 4806 581 4806 1063 
Q 4806 1506 4665 1686 
Q 4525 1866 4316 1866 
z
" transform="scale(0.015625)"/>
       <path id="ArialMT-5d" d="M 1363 -1272 
L 122 -1272 
L 122 -806 
L 800 -806 
L 800 4116 
L 122 4116 
L 122 4581 
L 1363 4581 
L 1363 -1272 
z
" transform="scale(0.015625)"/>
      </defs>
      <use xlink:href="#ArialMT-73"/>
      <use xlink:href="#ArialMT-65" x="50"/>
      <use xlink:href="#ArialMT-71" x="105.615234"/>
      <use xlink:href="#ArialMT-75" x="161.230469"/>
      <use xlink:href="#ArialMT-65" x="216.845703"/>
      <use xlink:href="#ArialMT-6e" x="272.460938"/>
      <use xlink:href="#ArialMT-63" x="328.076172"/>
      <use xlink:href="#ArialMT-65" x="378.076172"/>
      <use xlink:href="#ArialMT-20" x="433.691406"/>
      <use xlink:href="#ArialMT-72" x="461.474609"/>
      <use xlink:href="#ArialMT-65" x="494.775391"/>
      <use xlink:href="#ArialMT-63" x="550.390625"/>
      <use xlink:href="#ArialMT-6f" x="600.390625"/>
      <use xlink:href="#ArialMT-76" x="656.005859"/>
      <use xlink:href="#ArialMT-65" x="706.005859"/>
      <use xlink:href="#ArialMT-72" x="761.621094"/>
      <use xlink:href="#ArialMT-79" x="794.921875"/>
      <use xlink:href="#ArialMT-20" x="844.921875"/>
      <use xlink:href="#ArialMT-5b" x="872.705078"/>
      <use xlink:href="#ArialMT-25" x="900.488281"/>
      <use xlink:href="#ArialMT-5d" x="989.404297"/>
     </g>
    </g>
   </g>
   <g id="matplotlib.axis_2">
    <g id="ytick_1">
     <g id="line2d_4">
      <defs>
       <path id="mdbf4f8ea52" d="M 0 0 
L -3.5 0 
" style="stroke: #000000; stroke-width: 0.8"/>
      </defs>
      <g>
       <use xlink:href="#mdbf4f8ea52" x="93.31" y="74.705791" style="stroke: #000000; stroke-width: 0.8"/>
      </g>
     </g>
     <g id="text_5">
      <!-- ProteinMPNN -->
      <g transform="translate(12.958125 79.000479) scale(0.12 -0.12)">
       <defs>
        <path id="ArialMT-50" d="M 494 0 
L 494 4581 
L 2222 4581 
Q 2678 4581 2919 4538 
Q 3256 4481 3484 4323 
Q 3713 4166 3852 3881 
Q 3991 3597 3991 3256 
Q 3991 2672 3619 2267 
Q 3247 1863 2275 1863 
L 1100 1863 
L 1100 0 
L 494 0 
z
M 1100 2403 
L 2284 2403 
Q 2872 2403 3119 2622 
Q 3366 2841 3366 3238 
Q 3366 3525 3220 3729 
Q 3075 3934 2838 4000 
Q 2684 4041 2272 4041 
L 1100 4041 
L 1100 2403 
z
" transform="scale(0.015625)"/>
        <path id="ArialMT-74" d="M 1650 503 
L 1731 6 
Q 1494 -44 1306 -44 
Q 1000 -44 831 53 
Q 663 150 594 308 
Q 525 466 525 972 
L 525 2881 
L 113 2881 
L 113 3319 
L 525 3319 
L 525 4141 
L 1084 4478 
L 1084 3319 
L 1650 3319 
L 1650 2881 
L 1084 2881 
L 1084 941 
Q 1084 700 1114 631 
Q 1144 563 1211 522 
Q 1278 481 1403 481 
Q 1497 481 1650 503 
z
" transform="scale(0.015625)"/>
        <path id="ArialMT-69" d="M 425 3934 
L 425 4581 
L 988 4581 
L 988 3934 
L 425 3934 
z
M 425 0 
L 425 3319 
L 988 3319 
L 988 0 
L 425 0 
z
" transform="scale(0.015625)"/>
        <path id="ArialMT-4d" d="M 475 0 
L 475 4581 
L 1388 4581 
L 2472 1338 
Q 2622 884 2691 659 
Q 2769 909 2934 1394 
L 4031 4581 
L 4847 4581 
L 4847 0 
L 4263 0 
L 4263 3834 
L 2931 0 
L 2384 0 
L 1059 3900 
L 1059 0 
L 475 0 
z
" transform="scale(0.015625)"/>
        <path id="ArialMT-4e" d="M 488 0 
L 488 4581 
L 1109 4581 
L 3516 984 
L 3516 4581 
L 4097 4581 
L 4097 0 
L 3475 0 
L 1069 3600 
L 1069 0 
L 488 0 
z
" transform="scale(0.015625)"/>
       </defs>
       <use xlink:href="#ArialMT-50"/>
       <use xlink:href="#ArialMT-72" x="66.699219"/>
       <use xlink:href="#ArialMT-6f" x="100"/>
       <use xlink:href="#ArialMT-74" x="155.615234"/>
       <use xlink:href="#ArialMT-65" x="183.398438"/>
       <use xlink:href="#ArialMT-69" x="239.013672"/>
       <use xlink:href="#ArialMT-6e" x="261.230469"/>
       <use xlink:href="#ArialMT-4d" x="316.845703"/>
       <use xlink:href="#ArialMT-50" x="400.146484"/>
       <use xlink:href="#ArialMT-4e" x="466.845703"/>
       <use xlink:href="#ArialMT-4e" x="539.0625"/>
      </g>
     </g>
    </g>
    <g id="ytick_2">
     <g id="line2d_5">
      <g>
       <use xlink:href="#mdbf4f8ea52" x="93.31" y="55.46" style="stroke: #000000; stroke-width: 0.8"/>
      </g>
     </g>
     <g id="text_6">
      <!-- ESM-IF1 -->
      <g transform="translate(38.97375 59.754688) scale(0.12 -0.12)">
       <defs>
        <path id="ArialMT-45" d="M 506 0 
L 506 4581 
L 3819 4581 
L 3819 4041 
L 1113 4041 
L 1113 2638 
L 3647 2638 
L 3647 2100 
L 1113 2100 
L 1113 541 
L 3925 541 
L 3925 0 
L 506 0 
z
" transform="scale(0.015625)"/>
        <path id="ArialMT-53" d="M 288 1472 
L 859 1522 
Q 900 1178 1048 958 
Q 1197 738 1509 602 
Q 1822 466 2213 466 
Q 2559 466 2825 569 
Q 3091 672 3220 851 
Q 3350 1031 3350 1244 
Q 3350 1459 3225 1620 
Q 3100 1781 2813 1891 
Q 2628 1963 1997 2114 
Q 1366 2266 1113 2400 
Q 784 2572 623 2826 
Q 463 3081 463 3397 
Q 463 3744 659 4045 
Q 856 4347 1234 4503 
Q 1613 4659 2075 4659 
Q 2584 4659 2973 4495 
Q 3363 4331 3572 4012 
Q 3781 3694 3797 3291 
L 3216 3247 
Q 3169 3681 2898 3903 
Q 2628 4125 2100 4125 
Q 1550 4125 1298 3923 
Q 1047 3722 1047 3438 
Q 1047 3191 1225 3031 
Q 1400 2872 2139 2705 
Q 2878 2538 3153 2413 
Q 3553 2228 3743 1945 
Q 3934 1663 3934 1294 
Q 3934 928 3725 604 
Q 3516 281 3123 101 
Q 2731 -78 2241 -78 
Q 1619 -78 1198 103 
Q 778 284 539 648 
Q 300 1013 288 1472 
z
" transform="scale(0.015625)"/>
        <path id="ArialMT-2d" d="M 203 1375 
L 203 1941 
L 1931 1941 
L 1931 1375 
L 203 1375 
z
" transform="scale(0.015625)"/>
        <path id="ArialMT-49" d="M 597 0 
L 597 4581 
L 1203 4581 
L 1203 0 
L 597 0 
z
" transform="scale(0.015625)"/>
        <path id="ArialMT-46" d="M 525 0 
L 525 4581 
L 3616 4581 
L 3616 4041 
L 1131 4041 
L 1131 2622 
L 3281 2622 
L 3281 2081 
L 1131 2081 
L 1131 0 
L 525 0 
z
" transform="scale(0.015625)"/>
        <path id="ArialMT-31" d="M 2384 0 
L 1822 0 
L 1822 3584 
Q 1619 3391 1289 3197 
Q 959 3003 697 2906 
L 697 3450 
Q 1169 3672 1522 3987 
Q 1875 4303 2022 4600 
L 2384 4600 
L 2384 0 
z
" transform="scale(0.015625)"/>
       </defs>
       <use xlink:href="#ArialMT-45"/>
       <use xlink:href="#ArialMT-53" x="66.699219"/>
       <use xlink:href="#ArialMT-4d" x="133.398438"/>
       <use xlink:href="#ArialMT-2d" x="216.699219"/>
       <use xlink:href="#ArialMT-49" x="250"/>
       <use xlink:href="#ArialMT-46" x="277.783203"/>
       <use xlink:href="#ArialMT-31" x="338.867188"/>
      </g>
     </g>
    </g>
    <g id="ytick_3">
     <g id="line2d_6">
      <g>
       <use xlink:href="#mdbf4f8ea52" x="93.31" y="36.214209" style="stroke: #000000; stroke-width: 0.8"/>
      </g>
     </g>
     <g id="text_7">
      <!-- CARBonAra -->
      <g transform="translate(20.949375 40.508896) scale(0.12 -0.12)">
       <defs>
        <path id="ArialMT-43" d="M 3763 1606 
L 4369 1453 
Q 4178 706 3683 314 
Q 3188 -78 2472 -78 
Q 1731 -78 1267 223 
Q 803 525 561 1097 
Q 319 1669 319 2325 
Q 319 3041 592 3573 
Q 866 4106 1370 4382 
Q 1875 4659 2481 4659 
Q 3169 4659 3637 4309 
Q 4106 3959 4291 3325 
L 3694 3184 
Q 3534 3684 3231 3912 
Q 2928 4141 2469 4141 
Q 1941 4141 1586 3887 
Q 1231 3634 1087 3207 
Q 944 2781 944 2328 
Q 944 1744 1114 1308 
Q 1284 872 1643 656 
Q 2003 441 2422 441 
Q 2931 441 3284 734 
Q 3638 1028 3763 1606 
z
" transform="scale(0.015625)"/>
        <path id="ArialMT-41" d="M -9 0 
L 1750 4581 
L 2403 4581 
L 4278 0 
L 3588 0 
L 3053 1388 
L 1138 1388 
L 634 0 
L -9 0 
z
M 1313 1881 
L 2866 1881 
L 2388 3150 
Q 2169 3728 2063 4100 
Q 1975 3659 1816 3225 
L 1313 1881 
z
" transform="scale(0.015625)"/>
        <path id="ArialMT-52" d="M 503 0 
L 503 4581 
L 2534 4581 
Q 3147 4581 3465 4457 
Q 3784 4334 3975 4021 
Q 4166 3709 4166 3331 
Q 4166 2844 3850 2509 
Q 3534 2175 2875 2084 
Q 3116 1969 3241 1856 
Q 3506 1613 3744 1247 
L 4541 0 
L 3778 0 
L 3172 953 
Q 2906 1366 2734 1584 
Q 2563 1803 2427 1890 
Q 2291 1978 2150 2013 
Q 2047 2034 1813 2034 
L 1109 2034 
L 1109 0 
L 503 0 
z
M 1109 2559 
L 2413 2559 
Q 2828 2559 3062 2645 
Q 3297 2731 3419 2920 
Q 3541 3109 3541 3331 
Q 3541 3656 3305 3865 
Q 3069 4075 2559 4075 
L 1109 4075 
L 1109 2559 
z
" transform="scale(0.015625)"/>
        <path id="ArialMT-42" d="M 469 0 
L 469 4581 
L 2188 4581 
Q 2713 4581 3030 4442 
Q 3347 4303 3526 4014 
Q 3706 3725 3706 3409 
Q 3706 3116 3547 2856 
Q 3388 2597 3066 2438 
Q 3481 2316 3704 2022 
Q 3928 1728 3928 1328 
Q 3928 1006 3792 729 
Q 3656 453 3456 303 
Q 3256 153 2954 76 
Q 2653 0 2216 0 
L 469 0 
z
M 1075 2656 
L 2066 2656 
Q 2469 2656 2644 2709 
Q 2875 2778 2992 2937 
Q 3109 3097 3109 3338 
Q 3109 3566 3000 3739 
Q 2891 3913 2687 3977 
Q 2484 4041 1991 4041 
L 1075 4041 
L 1075 2656 
z
M 1075 541 
L 2216 541 
Q 2509 541 2628 563 
Q 2838 600 2978 687 
Q 3119 775 3209 942 
Q 3300 1109 3300 1328 
Q 3300 1584 3169 1773 
Q 3038 1963 2805 2039 
Q 2572 2116 2134 2116 
L 1075 2116 
L 1075 541 
z
" transform="scale(0.015625)"/>
        <path id="ArialMT-61" d="M 2588 409 
Q 2275 144 1986 34 
Q 1697 -75 1366 -75 
Q 819 -75 525 192 
Q 231 459 231 875 
Q 231 1119 342 1320 
Q 453 1522 633 1644 
Q 813 1766 1038 1828 
Q 1203 1872 1538 1913 
Q 2219 1994 2541 2106 
Q 2544 2222 2544 2253 
Q 2544 2597 2384 2738 
Q 2169 2928 1744 2928 
Q 1347 2928 1158 2789 
Q 969 2650 878 2297 
L 328 2372 
Q 403 2725 575 2942 
Q 747 3159 1072 3276 
Q 1397 3394 1825 3394 
Q 2250 3394 2515 3294 
Q 2781 3194 2906 3042 
Q 3031 2891 3081 2659 
Q 3109 2516 3109 2141 
L 3109 1391 
Q 3109 606 3145 398 
Q 3181 191 3288 0 
L 2700 0 
Q 2613 175 2588 409 
z
M 2541 1666 
Q 2234 1541 1622 1453 
Q 1275 1403 1131 1340 
Q 988 1278 909 1158 
Q 831 1038 831 891 
Q 831 666 1001 516 
Q 1172 366 1500 366 
Q 1825 366 2078 508 
Q 2331 650 2450 897 
Q 2541 1088 2541 1459 
L 2541 1666 
z
" transform="scale(0.015625)"/>
       </defs>
       <use xlink:href="#ArialMT-43"/>
       <use xlink:href="#ArialMT-41" x="72.216797"/>
       <use xlink:href="#ArialMT-52" x="138.916016"/>
       <use xlink:href="#ArialMT-42" x="211.132812"/>
       <use xlink:href="#ArialMT-6f" x="277.832031"/>
       <use xlink:href="#ArialMT-6e" x="333.447266"/>
       <use xlink:href="#ArialMT-41" x="389.0625"/>
       <use xlink:href="#ArialMT-72" x="455.761719"/>
       <use xlink:href="#ArialMT-61" x="489.0625"/>
      </g>
     </g>
    </g>
   </g>
   <g id="LineCollection_1">
    <path d="M 190.726199 78.073805 
L 190.726199 71.337778 
" clip-path="url(#pa433243e9a)" style="fill: none; stroke: #0e9595; stroke-width: 1.5"/>
   </g>
   <g id="LineCollection_2">
    <path d="M 205.939298 58.828013 
L 205.939298 52.091987 
" clip-path="url(#pa433243e9a)" style="fill: none; stroke: #0d3b66; stroke-width: 1.5"/>
   </g>
   <g id="LineCollection_3">
    <path d="M 205.50071 39.582222 
L 205.50071 32.846195 
" clip-path="url(#pa433243e9a)" style="fill: none; stroke: #bf4e30; stroke-width: 1.5"/>
   </g>
   <g id="patch_3">
    <path d="M 93.31 84.04 
L 93.31 26.88 
" style="fill: none; stroke: #000000; stroke-width: 0.8; stroke-linejoin: miter; stroke-linecap: square"/>
   </g>
   <g id="patch_4">
    <path d="M 275.04 84.04 
L 275.04 26.88 
" style="fill: none; stroke: #000000; stroke-width: 0.8; stroke-linejoin: miter; stroke-linecap: square"/>
   </g>
   <g id="patch_5">
    <path d="M 93.31 84.04 
L 275.04 84.04 
" style="fill: none; stroke: #000000; stroke-width: 0.8; stroke-linejoin: miter; stroke-linecap: square"/>
   </g>
   <g id="patch_6">
    <path d="M 93.31 26.88 
L 275.04 26.88 
" style="fill: none; stroke: #000000; stroke-width: 0.8; stroke-linejoin: miter; stroke-linecap: square"/>
   </g>
   <g id="text_8">
    <!-- 46.7 -->
    <g transform="translate(193.70538 78.642588) scale(0.11 -0.11)">
     <defs>
      <path id="ArialMT-2e" d="M 581 0 
L 581 641 
L 1222 641 
L 1222 0 
L 581 0 
z
" transform="scale(0.015625)"/>
      <path id="ArialMT-37" d="M 303 3981 
L 303 4522 
L 3269 4522 
L 3269 4084 
Q 2831 3619 2401 2847 
Q 1972 2075 1738 1259 
Q 1569 684 1522 0 
L 944 0 
Q 953 541 1156 1306 
Q 1359 2072 1739 2783 
Q 2119 3494 2547 3981 
L 303 3981 
z
" transform="scale(0.015625)"/>
     </defs>
     <use xlink:href="#ArialMT-34"/>
     <use xlink:href="#ArialMT-36" x="55.615234"/>
     <use xlink:href="#ArialMT-2e" x="111.230469"/>
     <use xlink:href="#ArialMT-37" x="139.013672"/>
    </g>
   </g>
   <g id="text_9">
    <!-- 51.8 -->
    <g transform="translate(208.918479 59.396797) scale(0.11 -0.11)">
     <defs>
      <path id="ArialMT-35" d="M 266 1200 
L 856 1250 
Q 922 819 1161 601 
Q 1400 384 1738 384 
Q 2144 384 2425 690 
Q 2706 997 2706 1503 
Q 2706 1984 2436 2262 
Q 2166 2541 1728 2541 
Q 1456 2541 1237 2417 
Q 1019 2294 894 2097 
L 366 2166 
L 809 4519 
L 3088 4519 
L 3088 3981 
L 1259 3981 
L 1013 2750 
Q 1425 3038 1878 3038 
Q 2478 3038 2890 2622 
Q 3303 2206 3303 1553 
Q 3303 931 2941 478 
Q 2500 -78 1738 -78 
Q 1113 -78 717 272 
Q 322 622 266 1200 
z
" transform="scale(0.015625)"/>
      <path id="ArialMT-38" d="M 1131 2484 
Q 781 2613 612 2850 
Q 444 3088 444 3419 
Q 444 3919 803 4259 
Q 1163 4600 1759 4600 
Q 2359 4600 2725 4251 
Q 3091 3903 3091 3403 
Q 3091 3084 2923 2848 
Q 2756 2613 2416 2484 
Q 2838 2347 3058 2040 
Q 3278 1734 3278 1309 
Q 3278 722 2862 322 
Q 2447 -78 1769 -78 
Q 1091 -78 675 323 
Q 259 725 259 1325 
Q 259 1772 486 2073 
Q 713 2375 1131 2484 
z
M 1019 3438 
Q 1019 3113 1228 2906 
Q 1438 2700 1772 2700 
Q 2097 2700 2305 2904 
Q 2513 3109 2513 3406 
Q 2513 3716 2298 3927 
Q 2084 4138 1766 4138 
Q 1444 4138 1231 3931 
Q 1019 3725 1019 3438 
z
M 838 1322 
Q 838 1081 952 856 
Q 1066 631 1291 507 
Q 1516 384 1775 384 
Q 2178 384 2440 643 
Q 2703 903 2703 1303 
Q 2703 1709 2433 1975 
Q 2163 2241 1756 2241 
Q 1359 2241 1098 1978 
Q 838 1716 838 1322 
z
" transform="scale(0.015625)"/>
     </defs>
     <use xlink:href="#ArialMT-35"/>
     <use xlink:href="#ArialMT-31" x="55.615234"/>
     <use xlink:href="#ArialMT-2e" x="111.230469"/>
     <use xlink:href="#ArialMT-38" x="139.013672"/>
    </g>
   </g>
   <g id="text_10">
    <!-- 51.7 -->
    <g transform="translate(208.47989 40.151006) scale(0.11 -0.11)">
     <use xlink:href="#ArialMT-35"/>
     <use xlink:href="#ArialMT-31" x="55.615234"/>
     <use xlink:href="#ArialMT-2e" x="111.230469"/>
     <use xlink:href="#ArialMT-37" x="139.013672"/>
    </g>
   </g>
   <g id="text_11">
    <!-- monomers -->
    <g transform="translate(158.196953 20.88) scale(0.11 -0.11)">
     <defs>
      <path id="ArialMT-6d" d="M 422 0 
L 422 3319 
L 925 3319 
L 925 2853 
Q 1081 3097 1340 3245 
Q 1600 3394 1931 3394 
Q 2300 3394 2536 3241 
Q 2772 3088 2869 2813 
Q 3263 3394 3894 3394 
Q 4388 3394 4653 3120 
Q 4919 2847 4919 2278 
L 4919 0 
L 4359 0 
L 4359 2091 
Q 4359 2428 4304 2576 
Q 4250 2725 4106 2815 
Q 3963 2906 3769 2906 
Q 3419 2906 3187 2673 
Q 2956 2441 2956 1928 
L 2956 0 
L 2394 0 
L 2394 2156 
Q 2394 2531 2256 2718 
Q 2119 2906 1806 2906 
Q 1569 2906 1367 2781 
Q 1166 2656 1075 2415 
Q 984 2175 984 1722 
L 984 0 
L 422 0 
z
" transform="scale(0.015625)"/>
     </defs>
     <use xlink:href="#ArialMT-6d"/>
     <use xlink:href="#ArialMT-6f" x="83.300781"/>
     <use xlink:href="#ArialMT-6e" x="138.916016"/>
     <use xlink:href="#ArialMT-6f" x="194.53125"/>
     <use xlink:href="#ArialMT-6d" x="250.146484"/>
     <use xlink:href="#ArialMT-65" x="333.447266"/>
     <use xlink:href="#ArialMT-72" x="389.0625"/>
     <use xlink:href="#ArialMT-73" x="422.363281"/>
    </g>
   </g>
  </g>
 </g>
 <defs>
  <clipPath id="pa433243e9a">
   <rect x="93.31" y="26.88" width="181.73" height="57.16"/>
  </clipPath>
 </defs>
</svg>
