<?xml version="1.0" encoding="utf-8" standalone="no"?>
<!DOCTYPE svg PUBLIC "-//W3C//DTD SVG 1.1//EN"
  "http://www.w3.org/Graphics/SVG/1.1/DTD/svg11.dtd">
<svg xmlns:xlink="http://www.w3.org/1999/xlink" width="288pt" height="129.6pt" viewBox="0 0 288 129.6" xmlns="http://www.w3.org/2000/svg" version="1.1">
 <metadata>
  <rdf:RDF xmlns:dc="http://purl.org/dc/elements/1.1/" xmlns:cc="http://creativecommons.org/ns#" xmlns:rdf="http://www.w3.org/1999/02/22-rdf-syntax-ns#">
   <cc:Work>
    <dc:type rdf:resource="http://purl.org/dc/dcmitype/StillImage"/>
    <dc:date>2023-06-07T09:18:32.701817</dc:date>
    <dc:format>image/svg+xml</dc:format>
    <dc:creator>
     <cc:Agent>
      <dc:title>Matplotlib v3.7.1, https://matplotlib.org/</dc:title>
     </cc:Agent>
    </dc:creator>
   </cc:Work>
  </rdf:RDF>
 </metadata>
 <defs>
  <style type="text/css">*{stroke-linejoin: round; stroke-linecap: butt}</style>
 </defs>
 <g id="figure_1">
  <g id="patch_1">
   <path d="M 0 129.6 
L 288 129.6 
L 288 0 
L 0 0 
z
" style="fill: #ffffff"/>
  </g>
  <g id="axes_1">
   <g id="patch_2">
    <path d="M 93.31 84.04 
L 275.04 84.04 
L 275.04 26.88 
L 93.31 26.88 
z
" style="fill: #ffffff"/>
   </g>
   <g id="PolyCollection_1">
    <defs>
     <path id="mcacb1fc6ec" d="M 138.990765 -55.422547 
L 138.990765 -54.365871 
L 141.048925 -54.355229 
L 143.107086 -54.347967 
L 145.165246 -54.342932 
L 147.223407 -54.338585 
L 149.281567 -54.333036 
L 151.339727 -54.324103 
L 153.397888 -54.30938 
L 155.456048 -54.286313 
L 157.514209 -54.252282 
L 159.572369 -54.204689 
L 161.630529 -54.141036 
L 163.68869 -54.059009 
L 165.74685 -53.956551 
L 167.805011 -53.831938 
L 169.863171 -53.683844 
L 171.921331 -53.51141 
L 173.979492 -53.314302 
L 176.037652 -53.092759 
L 178.095812 -52.847634 
L 180.153973 -52.580415 
L 182.212133 -52.293226 
L 184.270294 -51.988804 
L 186.328454 -51.670451 
L 188.386614 -51.341966 
L 190.444775 -51.007547 
L 192.502935 -50.671688 
L 194.561096 -50.339065 
L 196.619256 -50.014428 
L 198.677416 -49.702497 
L 200.735577 -49.407887 
L 202.793737 -49.135047 
L 204.851898 -48.888214 
L 206.910058 -48.671397 
L 208.968218 -48.488348 
L 211.026379 -48.342545 
L 213.084539 -48.237145 
L 215.1427 -48.174924 
L 217.20086 -48.158182 
L 219.25902 -48.188614 
L 221.317181 -48.267171 
L 223.375341 -48.393908 
L 225.433501 -48.56784 
L 227.491662 -48.786836 
L 229.549822 -49.047562 
L 231.607983 -49.34549 
L 233.666143 -49.674986 
L 235.724303 -50.029487 
L 237.782464 -50.401735 
L 239.840624 -50.784084 
L 241.898785 -51.168833 
L 243.956945 -51.548569 
L 246.015105 -51.916494 
L 248.073266 -52.266703 
L 250.131426 -52.594395 
L 252.189587 -52.896012 
L 254.247747 -53.169279 
L 256.305907 -53.413176 
L 258.364068 -53.627823 
L 260.422228 -53.814318 
L 262.480389 -53.974529 
L 264.538549 -54.110872 
L 266.596709 -54.226088 
L 268.65487 -54.32304 
L 270.71303 -54.404534 
L 272.77119 -54.473184 
L 274.829351 -54.531319 
L 276.887511 -54.580924 
L 278.945672 -54.62362 
L 281.003832 -54.660679 
L 283.061992 -54.693049 
L 285.120153 -54.721403 
L 287.178313 -54.746187 
L 289.236474 -54.767669 
L 291.294634 -54.785988 
L 293.352794 -54.801187 
L 295.410955 -54.813245 
L 297.469115 -54.822095 
L 299.527276 -54.827642 
L 301.585436 -54.829771 
L 303.643596 -54.828359 
L 305.701757 -54.823282 
L 307.759917 -54.81443 
L 309.818078 -54.801722 
L 311.876238 -54.785131 
L 313.934398 -54.764705 
L 315.992559 -54.740594 
L 318.050719 -54.713077 
L 320.10888 -54.682581 
L 322.16704 -54.649695 
L 324.2252 -54.615172 
L 326.283361 -54.57992 
L 328.341521 -54.544974 
L 330.399681 -54.511461 
L 332.457842 -54.480546 
L 334.516002 -54.453369 
L 336.574163 -54.430987 
L 338.632323 -54.4143 
L 340.690483 -54.404001 
L 342.748644 -54.400524 
L 342.748644 -55.387893 
L 342.748644 -55.387893 
L 340.690483 -55.384417 
L 338.632323 -55.374117 
L 336.574163 -55.357431 
L 334.516002 -55.335048 
L 332.457842 -55.307872 
L 330.399681 -55.276956 
L 328.341521 -55.243443 
L 326.283361 -55.208498 
L 324.2252 -55.173245 
L 322.16704 -55.138723 
L 320.10888 -55.105837 
L 318.050719 -55.075341 
L 315.992559 -55.047824 
L 313.934398 -55.023713 
L 311.876238 -55.003286 
L 309.818078 -54.986695 
L 307.759917 -54.973987 
L 305.701757 -54.965135 
L 303.643596 -54.960058 
L 301.585436 -54.958646 
L 299.527276 -54.960776 
L 297.469115 -54.966323 
L 295.410955 -54.975173 
L 293.352794 -54.98723 
L 291.294634 -55.002429 
L 289.236474 -55.020748 
L 287.178313 -55.042231 
L 285.120153 -55.067014 
L 283.061992 -55.095368 
L 281.003832 -55.127738 
L 278.945672 -55.164797 
L 276.887511 -55.207494 
L 274.829351 -55.257098 
L 272.77119 -55.315233 
L 270.71303 -55.383884 
L 268.65487 -55.465378 
L 266.596709 -55.562329 
L 264.538549 -55.677546 
L 262.480389 -55.813889 
L 260.422228 -55.9741 
L 258.364068 -56.160595 
L 256.305907 -56.375242 
L 254.247747 -56.619138 
L 252.189587 -56.892406 
L 250.131426 -57.194022 
L 248.073266 -57.521715 
L 246.015105 -57.871923 
L 243.956945 -58.239848 
L 241.898785 -58.619584 
L 239.840624 -59.004333 
L 237.782464 -59.386682 
L 235.724303 -59.758931 
L 233.666143 -60.113431 
L 231.607983 -60.442928 
L 229.549822 -60.740855 
L 227.491662 -61.001581 
L 225.433501 -61.220578 
L 223.375341 -61.39451 
L 221.317181 -61.521247 
L 219.25902 -61.599804 
L 217.20086 -61.630236 
L 215.1427 -61.613493 
L 213.084539 -61.551273 
L 211.026379 -61.445873 
L 208.968218 -61.300069 
L 206.910058 -61.11702 
L 204.851898 -60.900203 
L 202.793737 -60.653371 
L 200.735577 -60.38053 
L 198.677416 -60.085921 
L 196.619256 -59.77399 
L 194.561096 -59.449352 
L 192.502935 -59.11673 
L 190.444775 -58.780871 
L 188.386614 -58.446451 
L 186.328454 -58.117966 
L 184.270294 -57.799614 
L 182.212133 -57.495191 
L 180.153973 -57.208002 
L 178.095812 -56.940783 
L 176.037652 -56.695659 
L 173.979492 -56.474116 
L 171.921331 -56.277008 
L 169.863171 -56.104574 
L 167.805011 -55.95648 
L 165.74685 -55.831866 
L 163.68869 -55.729409 
L 161.630529 -55.647382 
L 159.572369 -55.583729 
L 157.514209 -55.536136 
L 155.456048 -55.502105 
L 153.397888 -55.479037 
L 151.339727 -55.464314 
L 149.281567 -55.455382 
L 147.223407 -55.449833 
L 145.165246 -55.445485 
L 143.107086 -55.44045 
L 141.048925 -55.433188 
L 138.990765 -55.422547 
z
" style="stroke: #0e9595; stroke-opacity: 0.3"/>
    </defs>
    <g clip-path="url(#pf208501d11)">
     <use xlink:href="#mcacb1fc6ec" x="0" y="129.6" style="fill: #0e9595; fill-opacity: 0.3; stroke: #0e9595; stroke-opacity: 0.3"/>
    </g>
   </g>
   <g id="PolyCollection_2">
    <defs>
     <path id="m0c31edc100" d="M 112.539255 -74.684868 
L 112.539255 -73.595132 
L 113.971824 -73.584822 
L 115.404393 -73.57998 
L 116.836962 -73.58075 
L 118.269531 -73.587109 
L 119.702101 -73.598867 
L 121.13467 -73.615678 
L 122.567239 -73.637054 
L 123.999808 -73.662389 
L 125.432377 -73.690992 
L 126.864946 -73.722111 
L 128.297515 -73.754969 
L 129.730084 -73.788795 
L 131.162654 -73.822852 
L 132.595223 -73.856463 
L 134.027792 -73.889025 
L 135.460361 -73.92003 
L 136.89293 -73.949064 
L 138.325499 -73.975813 
L 139.758068 -74.000056 
L 141.190638 -74.021656 
L 142.623207 -74.040545 
L 144.055776 -74.056709 
L 145.488345 -74.070169 
L 146.920914 -74.08096 
L 148.353483 -74.089114 
L 149.786052 -74.094638 
L 151.218621 -74.0975 
L 152.651191 -74.097608 
L 154.08376 -74.094801 
L 155.516329 -74.088835 
L 156.948898 -74.079379 
L 158.381467 -74.066006 
L 159.814036 -74.048198 
L 161.246605 -74.025347 
L 162.679175 -73.996769 
L 164.111744 -73.961714 
L 165.544313 -73.91939 
L 166.976882 -73.868986 
L 168.409451 -73.809702 
L 169.84202 -73.740783 
L 171.274589 -73.66155 
L 172.707159 -73.571441 
L 174.139728 -73.470036 
L 175.572297 -73.357093 
L 177.004866 -73.232565 
L 178.437435 -73.096616 
L 179.870004 -72.949625 
L 181.302573 -72.792176 
L 182.735142 -72.62504 
L 184.167712 -72.449145 
L 185.600281 -72.265534 
L 187.03285 -72.075323 
L 188.465419 -71.879645 
L 189.897988 -71.679609 
L 191.330557 -71.476246 
L 192.763126 -71.270482 
L 194.195696 -71.063107 
L 195.628265 -70.854769 
L 197.060834 -70.645979 
L 198.493403 -70.437133 
L 199.925972 -70.228546 
L 201.358541 -70.020502 
L 202.79111 -69.813305 
L 204.223679 -69.607339 
L 205.656249 -69.403115 
L 207.088818 -69.201322 
L 208.521387 -69.002854 
L 209.953956 -68.808828 
L 211.386525 -68.620578 
L 212.819094 -68.439634 
L 214.251663 -68.267682 
L 215.684233 -68.10651 
L 217.116802 -67.957947 
L 218.549371 -67.82379 
L 219.98194 -67.705747 
L 221.414509 -67.605367 
L 222.847078 -67.524003 
L 224.279647 -67.462775 
L 225.712217 -67.422556 
L 227.144786 -67.403973 
L 228.577355 -67.407424 
L 230.009924 -67.433103 
L 231.442493 -67.48103 
L 232.875062 -67.551085 
L 234.307631 -67.643034 
L 235.7402 -67.756546 
L 237.17277 -67.891196 
L 238.605339 -68.046461 
L 240.037908 -68.221693 
L 241.470477 -68.41609 
L 242.903046 -68.628656 
L 244.335615 -68.858166 
L 245.768184 -69.103131 
L 247.200754 -69.361774 
L 248.633323 -69.632024 
L 250.065892 -69.91153 
L 251.498461 -70.197689 
L 252.93103 -70.487703 
L 254.363599 -70.77864 
L 254.363599 -77.50136 
L 254.363599 -77.50136 
L 252.93103 -77.792297 
L 251.498461 -78.082311 
L 250.065892 -78.36847 
L 248.633323 -78.647976 
L 247.200754 -78.918226 
L 245.768184 -79.176869 
L 244.335615 -79.421834 
L 242.903046 -79.651344 
L 241.470477 -79.86391 
L 240.037908 -80.058307 
L 238.605339 -80.233539 
L 237.17277 -80.388804 
L 235.7402 -80.523454 
L 234.307631 -80.636966 
L 232.875062 -80.728915 
L 231.442493 -80.79897 
L 230.009924 -80.846897 
L 228.577355 -80.872576 
L 227.144786 -80.876027 
L 225.712217 -80.857444 
L 224.279647 -80.817225 
L 222.847078 -80.755997 
L 221.414509 -80.674633 
L 219.98194 -80.574253 
L 218.549371 -80.45621 
L 217.116802 -80.322053 
L 215.684233 -80.17349 
L 214.251663 -80.012318 
L 212.819094 -79.840366 
L 211.386525 -79.659422 
L 209.953956 -79.471172 
L 208.521387 -79.277146 
L 207.088818 -79.078678 
L 205.656249 -78.876885 
L 204.223679 -78.672661 
L 202.79111 -78.466695 
L 201.358541 -78.259498 
L 199.925972 -78.051454 
L 198.493403 -77.842867 
L 197.060834 -77.634021 
L 195.628265 -77.425231 
L 194.195696 -77.216893 
L 192.763126 -77.009518 
L 191.330557 -76.803754 
L 189.897988 -76.600391 
L 188.465419 -76.400355 
L 187.03285 -76.204677 
L 185.600281 -76.014466 
L 184.167712 -75.830855 
L 182.735142 -75.65496 
L 181.302573 -75.487824 
L 179.870004 -75.330375 
L 178.437435 -75.183384 
L 177.004866 -75.047435 
L 175.572297 -74.922907 
L 174.139728 -74.809964 
L 172.707159 -74.708559 
L 171.274589 -74.61845 
L 169.84202 -74.539217 
L 168.409451 -74.470298 
L 166.976882 -74.411014 
L 165.544313 -74.36061 
L 164.111744 -74.318286 
L 162.679175 -74.283231 
L 161.246605 -74.254653 
L 159.814036 -74.231802 
L 158.381467 -74.213994 
L 156.948898 -74.200621 
L 155.516329 -74.191165 
L 154.08376 -74.185199 
L 152.651191 -74.182392 
L 151.218621 -74.1825 
L 149.786052 -74.185362 
L 148.353483 -74.190886 
L 146.920914 -74.19904 
L 145.488345 -74.209831 
L 144.055776 -74.223291 
L 142.623207 -74.239455 
L 141.190638 -74.258344 
L 139.758068 -74.279944 
L 138.325499 -74.304187 
L 136.89293 -74.330936 
L 135.460361 -74.35997 
L 134.027792 -74.390975 
L 132.595223 -74.423537 
L 131.162654 -74.457148 
L 129.730084 -74.491205 
L 128.297515 -74.525031 
L 126.864946 -74.557889 
L 125.432377 -74.589008 
L 123.999808 -74.617611 
L 122.567239 -74.642946 
L 121.13467 -74.664322 
L 119.702101 -74.681133 
L 118.269531 -74.692891 
L 116.836962 -74.69925 
L 115.404393 -74.70002 
L 113.971824 -74.695178 
L 112.539255 -74.684868 
z
" style="stroke: #0d3b66; stroke-opacity: 0.3"/>
    </defs>
    <g clip-path="url(#pf208501d11)">
     <use xlink:href="#m0c31edc100" x="0" y="129.6" style="fill: #0d3b66; fill-opacity: 0.3; stroke: #0d3b66; stroke-opacity: 0.3"/>
    </g>
   </g>
   <g id="PolyCollection_3">
    <defs>
     <path id="m26eeb03b93" d="M 146.393577 -94.091602 
L 146.393577 -92.679981 
L 147.482386 -92.644431 
L 148.571196 -92.611906 
L 149.660006 -92.582805 
L 150.748816 -92.557454 
L 151.837625 -92.536105 
L 152.926435 -92.518925 
L 154.015245 -92.506 
L 155.104054 -92.49733 
L 156.192864 -92.492835 
L 157.281674 -92.492357 
L 158.370484 -92.495667 
L 159.459293 -92.502465 
L 160.548103 -92.512393 
L 161.636913 -92.525032 
L 162.725722 -92.539911 
L 163.814532 -92.556507 
L 164.903342 -92.574247 
L 165.992151 -92.592509 
L 167.080961 -92.61062 
L 168.169771 -92.62786 
L 169.258581 -92.643458 
L 170.34739 -92.656597 
L 171.4362 -92.666412 
L 172.52501 -92.671997 
L 173.613819 -92.672407 
L 174.702629 -92.666673 
L 175.791439 -92.653805 
L 176.880249 -92.632806 
L 177.969058 -92.60269 
L 179.057868 -92.562495 
L 180.146678 -92.511299 
L 181.235487 -92.448245 
L 182.324297 -92.372556 
L 183.413107 -92.283558 
L 184.501916 -92.180702 
L 185.590726 -92.063587 
L 186.679536 -91.931978 
L 187.768346 -91.78583 
L 188.857155 -91.625305 
L 189.945965 -91.450788 
L 191.034775 -91.262897 
L 192.123584 -91.062492 
L 193.212394 -90.85067 
L 194.301204 -90.62876 
L 195.390014 -90.398302 
L 196.478823 -90.161028 
L 197.567633 -89.918817 
L 198.656443 -89.673664 
L 199.745252 -89.427626 
L 200.834062 -89.182772 
L 201.922872 -88.941135 
L 203.011681 -88.70466 
L 204.100491 -88.475166 
L 205.189301 -88.254312 
L 206.278111 -88.043574 
L 207.36692 -87.844242 
L 208.45573 -87.657422 
L 209.54454 -87.48406 
L 210.633349 -87.324967 
L 211.722159 -87.180862 
L 212.810969 -87.052411 
L 213.899779 -86.940267 
L 214.988588 -86.845109 
L 216.077398 -86.767666 
L 217.166208 -86.708724 
L 218.255017 -86.669131 
L 219.343827 -86.649764 
L 220.432637 -86.651499 
L 221.521447 -86.67515 
L 222.610256 -86.721409 
L 223.699066 -86.790771 
L 224.787876 -86.883464 
L 225.876685 -86.999384 
L 226.965495 -87.138034 
L 228.054305 -87.298492 
L 229.143114 -87.47939 
L 230.231924 -87.678923 
L 231.320734 -87.894873 
L 232.409544 -88.124671 
L 233.498353 -88.365464 
L 234.587163 -88.614213 
L 235.675973 -88.867789 
L 236.764782 -89.123084 
L 237.853592 -89.377118 
L 238.942402 -89.627132 
L 240.031212 -89.870677 
L 241.120021 -90.105679 
L 242.208831 -90.330487 
L 243.297641 -90.543892 
L 244.38645 -90.745132 
L 245.47526 -90.933866 
L 246.56407 -91.110139 
L 247.652879 -91.274324 
L 248.741689 -91.427057 
L 249.830499 -91.569167 
L 250.919309 -91.701603 
L 252.008118 -91.825363 
L 253.096928 -91.941435 
L 254.185738 -92.050741 
L 254.185738 -94.720841 
L 254.185738 -94.720841 
L 253.096928 -94.830148 
L 252.008118 -94.946219 
L 250.919309 -95.069979 
L 249.830499 -95.202415 
L 248.741689 -95.344525 
L 247.652879 -95.497258 
L 246.56407 -95.661443 
L 245.47526 -95.837716 
L 244.38645 -96.026451 
L 243.297641 -96.22769 
L 242.208831 -96.441096 
L 241.120021 -96.665903 
L 240.031212 -96.900906 
L 238.942402 -97.144451 
L 237.853592 -97.394465 
L 236.764782 -97.648498 
L 235.675973 -97.903794 
L 234.587163 -98.15737 
L 233.498353 -98.406118 
L 232.409544 -98.646912 
L 231.320734 -98.876709 
L 230.231924 -99.09266 
L 229.143114 -99.292192 
L 228.054305 -99.473091 
L 226.965495 -99.633549 
L 225.876685 -99.772199 
L 224.787876 -99.888118 
L 223.699066 -99.980812 
L 222.610256 -100.050174 
L 221.521447 -100.096433 
L 220.432637 -100.120084 
L 219.343827 -100.121818 
L 218.255017 -100.102452 
L 217.166208 -100.062858 
L 216.077398 -100.003917 
L 214.988588 -99.926473 
L 213.899779 -99.831315 
L 212.810969 -99.719172 
L 211.722159 -99.59072 
L 210.633349 -99.446615 
L 209.54454 -99.287523 
L 208.45573 -99.11416 
L 207.36692 -98.927341 
L 206.278111 -98.728008 
L 205.189301 -98.51727 
L 204.100491 -98.296416 
L 203.011681 -98.066922 
L 201.922872 -97.830448 
L 200.834062 -97.588811 
L 199.745252 -97.343957 
L 198.656443 -97.097918 
L 197.567633 -96.852766 
L 196.478823 -96.610555 
L 195.390014 -96.37328 
L 194.301204 -96.142823 
L 193.212394 -95.920912 
L 192.123584 -95.70909 
L 191.034775 -95.508685 
L 189.945965 -95.320795 
L 188.857155 -95.146278 
L 187.768346 -94.985753 
L 186.679536 -94.839605 
L 185.590726 -94.707996 
L 184.501916 -94.59088 
L 183.413107 -94.488025 
L 182.324297 -94.399027 
L 181.235487 -94.323337 
L 180.146678 -94.260283 
L 179.057868 -94.209088 
L 177.969058 -94.168892 
L 176.880249 -94.138777 
L 175.791439 -94.117778 
L 174.702629 -94.104909 
L 173.613819 -94.099175 
L 172.52501 -94.099586 
L 171.4362 -94.10517 
L 170.34739 -94.114985 
L 169.258581 -94.128124 
L 168.169771 -94.143723 
L 167.080961 -94.160963 
L 165.992151 -94.179074 
L 164.903342 -94.197335 
L 163.814532 -94.215075 
L 162.725722 -94.231671 
L 161.636913 -94.246551 
L 160.548103 -94.25919 
L 159.459293 -94.269118 
L 158.370484 -94.275916 
L 157.281674 -94.279225 
L 156.192864 -94.278747 
L 155.104054 -94.274252 
L 154.015245 -94.265582 
L 152.926435 -94.252657 
L 151.837625 -94.235478 
L 150.748816 -94.214128 
L 149.660006 -94.188778 
L 148.571196 -94.159676 
L 147.482386 -94.127152 
L 146.393577 -94.091602 
z
" style="stroke: #bf4e30; stroke-opacity: 0.3"/>
    </defs>
    <g clip-path="url(#pf208501d11)">
     <use xlink:href="#m26eeb03b93" x="0" y="129.6" style="fill: #bf4e30; fill-opacity: 0.3; stroke: #bf4e30; stroke-opacity: 0.3"/>
    </g>
   </g>
   <g id="matplotlib.axis_1">
    <g id="xtick_1">
     <g id="line2d_1">
      <defs>
       <path id="mee1be96a99" d="M 0 0 
L 0 3.5 
" style="stroke: #000000; stroke-width: 0.8"/>
      </defs>
      <g>
       <use xlink:href="#mee1be96a99" x="111.185082" y="84.04" style="stroke: #000000; stroke-width: 0.8"/>
      </g>
     </g>
     <g id="text_1">
      <!-- 20 -->
      <g transform="translate(104.511957 99.629375) scale(0.12 -0.12)">
       <defs>
        <path id="ArialMT-32" d="M 3222 541 
L 3222 0 
L 194 0 
Q 188 203 259 391 
Q 375 700 629 1000 
Q 884 1300 1366 1694 
Q 2113 2306 2375 2664 
Q 2638 3022 2638 3341 
Q 2638 3675 2398 3904 
Q 2159 4134 1775 4134 
Q 1369 4134 1125 3890 
Q 881 3647 878 3216 
L 300 3275 
Q 359 3922 746 4261 
Q 1134 4600 1788 4600 
Q 2447 4600 2831 4234 
Q 3216 3869 3216 3328 
Q 3216 3053 3103 2787 
Q 2991 2522 2730 2228 
Q 2469 1934 1863 1422 
Q 1356 997 1212 845 
Q 1069 694 975 541 
L 3222 541 
z
" transform="scale(0.015625)"/>
        <path id="ArialMT-30" d="M 266 2259 
Q 266 3072 433 3567 
Q 600 4063 929 4331 
Q 1259 4600 1759 4600 
Q 2128 4600 2406 4451 
Q 2684 4303 2865 4023 
Q 3047 3744 3150 3342 
Q 3253 2941 3253 2259 
Q 3253 1453 3087 958 
Q 2922 463 2592 192 
Q 2263 -78 1759 -78 
Q 1097 -78 719 397 
Q 266 969 266 2259 
z
M 844 2259 
Q 844 1131 1108 757 
Q 1372 384 1759 384 
Q 2147 384 2411 759 
Q 2675 1134 2675 2259 
Q 2675 3391 2411 3762 
Q 2147 4134 1753 4134 
Q 1366 4134 1134 3806 
Q 844 3388 844 2259 
z
" transform="scale(0.015625)"/>
       </defs>
       <use xlink:href="#ArialMT-32"/>
       <use xlink:href="#ArialMT-30" x="55.615234"/>
      </g>
     </g>
    </g>
    <g id="xtick_2">
     <g id="line2d_2">
      <g>
       <use xlink:href="#mee1be96a99" x="170.768689" y="84.04" style="stroke: #000000; stroke-width: 0.8"/>
      </g>
     </g>
     <g id="text_2">
      <!-- 40 -->
      <g transform="translate(164.095564 99.629375) scale(0.12 -0.12)">
       <defs>
        <path id="ArialMT-34" d="M 2069 0 
L 2069 1097 
L 81 1097 
L 81 1613 
L 2172 4581 
L 2631 4581 
L 2631 1613 
L 3250 1613 
L 3250 1097 
L 2631 1097 
L 2631 0 
L 2069 0 
z
M 2069 1613 
L 2069 3678 
L 634 1613 
L 2069 1613 
z
" transform="scale(0.015625)"/>
       </defs>
       <use xlink:href="#ArialMT-34"/>
       <use xlink:href="#ArialMT-30" x="55.615234"/>
      </g>
     </g>
    </g>
    <g id="xtick_3">
     <g id="line2d_3">
      <g>
       <use xlink:href="#mee1be96a99" x="230.352295" y="84.04" style="stroke: #000000; stroke-width: 0.8"/>
      </g>
     </g>
     <g id="text_3">
      <!-- 60 -->
      <g transform="translate(223.67917 99.629375) scale(0.12 -0.12)">
       <defs>
        <path id="ArialMT-36" d="M 3184 3459 
L 2625 3416 
Q 2550 3747 2413 3897 
Q 2184 4138 1850 4138 
Q 1581 4138 1378 3988 
Q 1113 3794 959 3422 
Q 806 3050 800 2363 
Q 1003 2672 1297 2822 
Q 1591 2972 1913 2972 
Q 2475 2972 2870 2558 
Q 3266 2144 3266 1488 
Q 3266 1056 3080 686 
Q 2894 316 2569 119 
Q 2244 -78 1831 -78 
Q 1128 -78 684 439 
Q 241 956 241 2144 
Q 241 3472 731 4075 
Q 1159 4600 1884 4600 
Q 2425 4600 2770 4297 
Q 3116 3994 3184 3459 
z
M 888 1484 
Q 888 1194 1011 928 
Q 1134 663 1356 523 
Q 1578 384 1822 384 
Q 2178 384 2434 671 
Q 2691 959 2691 1453 
Q 2691 1928 2437 2201 
Q 2184 2475 1800 2475 
Q 1419 2475 1153 2201 
Q 888 1928 888 1484 
z
" transform="scale(0.015625)"/>
       </defs>
       <use xlink:href="#ArialMT-36"/>
       <use xlink:href="#ArialMT-30" x="55.615234"/>
      </g>
     </g>
    </g>
    <g id="text_4">
     <!-- sequence recovery [%] -->
     <g transform="translate(123.1475 114.75) scale(0.12 -0.12)">
      <defs>
       <path id="ArialMT-73" d="M 197 991 
L 753 1078 
Q 800 744 1014 566 
Q 1228 388 1613 388 
Q 2000 388 2187 545 
Q 2375 703 2375 916 
Q 2375 1106 2209 1216 
Q 2094 1291 1634 1406 
Q 1016 1563 777 1677 
Q 538 1791 414 1992 
Q 291 2194 291 2438 
Q 291 2659 392 2848 
Q 494 3038 669 3163 
Q 800 3259 1026 3326 
Q 1253 3394 1513 3394 
Q 1903 3394 2198 3281 
Q 2494 3169 2634 2976 
Q 2775 2784 2828 2463 
L 2278 2388 
Q 2241 2644 2061 2787 
Q 1881 2931 1553 2931 
Q 1166 2931 1000 2803 
Q 834 2675 834 2503 
Q 834 2394 903 2306 
Q 972 2216 1119 2156 
Q 1203 2125 1616 2013 
Q 2213 1853 2448 1751 
Q 2684 1650 2818 1456 
Q 2953 1263 2953 975 
Q 2953 694 2789 445 
Q 2625 197 2315 61 
Q 2006 -75 1616 -75 
Q 969 -75 630 194 
Q 291 463 197 991 
z
" transform="scale(0.015625)"/>
       <path id="ArialMT-65" d="M 2694 1069 
L 3275 997 
Q 3138 488 2766 206 
Q 2394 -75 1816 -75 
Q 1088 -75 661 373 
Q 234 822 234 1631 
Q 234 2469 665 2931 
Q 1097 3394 1784 3394 
Q 2450 3394 2872 2941 
Q 3294 2488 3294 1666 
Q 3294 1616 3291 1516 
L 816 1516 
Q 847 969 1125 678 
Q 1403 388 1819 388 
Q 2128 388 2347 550 
Q 2566 713 2694 1069 
z
M 847 1978 
L 2700 1978 
Q 2663 2397 2488 2606 
Q 2219 2931 1791 2931 
Q 1403 2931 1139 2672 
Q 875 2413 847 1978 
z
" transform="scale(0.015625)"/>
       <path id="ArialMT-71" d="M 2538 -1272 
L 2538 353 
Q 2406 169 2170 47 
Q 1934 -75 1669 -75 
Q 1078 -75 651 397 
Q 225 869 225 1691 
Q 225 2191 398 2587 
Q 572 2984 901 3189 
Q 1231 3394 1625 3394 
Q 2241 3394 2594 2875 
L 2594 3319 
L 3100 3319 
L 3100 -1272 
L 2538 -1272 
z
M 803 1669 
Q 803 1028 1072 708 
Q 1341 388 1716 388 
Q 2075 388 2334 692 
Q 2594 997 2594 1619 
Q 2594 2281 2320 2615 
Q 2047 2950 1678 2950 
Q 1313 2950 1058 2639 
Q 803 2328 803 1669 
z
" transform="scale(0.015625)"/>
       <path id="ArialMT-75" d="M 2597 0 
L 2597 488 
Q 2209 -75 1544 -75 
Q 1250 -75 995 37 
Q 741 150 617 320 
Q 494 491 444 738 
Q 409 903 409 1263 
L 409 3319 
L 972 3319 
L 972 1478 
Q 972 1038 1006 884 
Q 1059 663 1231 536 
Q 1403 409 1656 409 
Q 1909 409 2131 539 
Q 2353 669 2445 892 
Q 2538 1116 2538 1541 
L 2538 3319 
L 3100 3319 
L 3100 0 
L 2597 0 
z
" transform="scale(0.015625)"/>
       <path id="ArialMT-6e" d="M 422 0 
L 422 3319 
L 928 3319 
L 928 2847 
Q 1294 3394 1984 3394 
Q 2284 3394 2536 3286 
Q 2788 3178 2913 3003 
Q 3038 2828 3088 2588 
Q 3119 2431 3119 2041 
L 3119 0 
L 2556 0 
L 2556 2019 
Q 2556 2363 2490 2533 
Q 2425 2703 2258 2804 
Q 2091 2906 1866 2906 
Q 1506 2906 1245 2678 
Q 984 2450 984 1813 
L 984 0 
L 422 0 
z
" transform="scale(0.015625)"/>
       <path id="ArialMT-63" d="M 2588 1216 
L 3141 1144 
Q 3050 572 2676 248 
Q 2303 -75 1759 -75 
Q 1078 -75 664 370 
Q 250 816 250 1647 
Q 250 2184 428 2587 
Q 606 2991 970 3192 
Q 1334 3394 1763 3394 
Q 2303 3394 2647 3120 
Q 2991 2847 3088 2344 
L 2541 2259 
Q 2463 2594 2264 2762 
Q 2066 2931 1784 2931 
Q 1359 2931 1093 2626 
Q 828 2322 828 1663 
Q 828 994 1084 691 
Q 1341 388 1753 388 
Q 2084 388 2306 591 
Q 2528 794 2588 1216 
z
" transform="scale(0.015625)"/>
       <path id="ArialMT-20" transform="scale(0.015625)"/>
       <path id="ArialMT-72" d="M 416 0 
L 416 3319 
L 922 3319 
L 922 2816 
Q 1116 3169 1280 3281 
Q 1444 3394 1641 3394 
Q 1925 3394 2219 3213 
L 2025 2691 
Q 1819 2813 1613 2813 
Q 1428 2813 1281 2702 
Q 1134 2591 1072 2394 
Q 978 2094 978 1738 
L 978 0 
L 416 0 
z
" transform="scale(0.015625)"/>
       <path id="ArialMT-6f" d="M 213 1659 
Q 213 2581 725 3025 
Q 1153 3394 1769 3394 
Q 2453 3394 2887 2945 
Q 3322 2497 3322 1706 
Q 3322 1066 3130 698 
Q 2938 331 2570 128 
Q 2203 -75 1769 -75 
Q 1072 -75 642 372 
Q 213 819 213 1659 
z
M 791 1659 
Q 791 1022 1069 705 
Q 1347 388 1769 388 
Q 2188 388 2466 706 
Q 2744 1025 2744 1678 
Q 2744 2294 2464 2611 
Q 2184 2928 1769 2928 
Q 1347 2928 1069 2612 
Q 791 2297 791 1659 
z
" transform="scale(0.015625)"/>
       <path id="ArialMT-76" d="M 1344 0 
L 81 3319 
L 675 3319 
L 1388 1331 
Q 1503 1009 1600 663 
Q 1675 925 1809 1294 
L 2547 3319 
L 3125 3319 
L 1869 0 
L 1344 0 
z
" transform="scale(0.015625)"/>
       <path id="ArialMT-79" d="M 397 -1278 
L 334 -750 
Q 519 -800 656 -800 
Q 844 -800 956 -737 
Q 1069 -675 1141 -563 
Q 1194 -478 1313 -144 
Q 1328 -97 1363 -6 
L 103 3319 
L 709 3319 
L 1400 1397 
Q 1534 1031 1641 628 
Q 1738 1016 1872 1384 
L 2581 3319 
L 3144 3319 
L 1881 -56 
Q 1678 -603 1566 -809 
Q 1416 -1088 1222 -1217 
Q 1028 -1347 759 -1347 
Q 597 -1347 397 -1278 
z
" transform="scale(0.015625)"/>
       <path id="ArialMT-5b" d="M 434 -1272 
L 434 4581 
L 1675 4581 
L 1675 4116 
L 997 4116 
L 997 -806 
L 1675 -806 
L 1675 -1272 
L 434 -1272 
z
" transform="scale(0.015625)"/>
       <path id="ArialMT-25" d="M 372 3481 
Q 372 3972 619 4315 
Q 866 4659 1334 4659 
Q 1766 4659 2048 4351 
Q 2331 4044 2331 3447 
Q 2331 2866 2045 2552 
Q 1759 2238 1341 2238 
Q 925 2238 648 2547 
Q 372 2856 372 3481 
z
M 1350 4272 
Q 1141 4272 1002 4090 
Q 863 3909 863 3425 
Q 863 2984 1003 2804 
Q 1144 2625 1350 2625 
Q 1563 2625 1702 2806 
Q 1841 2988 1841 3469 
Q 1841 3913 1700 4092 
Q 1559 4272 1350 4272 
z
M 1353 -169 
L 3859 4659 
L 4316 4659 
L 1819 -169 
L 1353 -169 
z
M 3334 1075 
Q 3334 1569 3581 1911 
Q 3828 2253 4300 2253 
Q 4731 2253 5014 1945 
Q 5297 1638 5297 1041 
Q 5297 459 5011 145 
Q 4725 -169 4303 -169 
Q 3888 -169 3611 142 
Q 3334 453 3334 1075 
z
M 4316 1866 
Q 4103 1866 3964 1684 
Q 3825 1503 3825 1019 
Q 3825 581 3965 400 
Q 4106 219 4313 219 
Q 4528 219 4667 400 
Q 4806 581 4806 1063 
Q 4806 1506 4665 1686 
Q 4525 1866 4316 1866 
z
" transform="scale(0.015625)"/>
       <path id="ArialMT-5d" d="M 1363 -1272 
L 122 -1272 
L 122 -806 
L 800 -806 
L 800 4116 
L 122 4116 
L 122 4581 
L 1363 4581 
L 1363 -1272 
z
" transform="scale(0.015625)"/>
      </defs>
      <use xlink:href="#ArialMT-73"/>
      <use xlink:href="#ArialMT-65" x="50"/>
      <use xlink:href="#ArialMT-71" x="105.615234"/>
      <use xlink:href="#ArialMT-75" x="161.230469"/>
      <use xlink:href="#ArialMT-65" x="216.845703"/>
      <use xlink:href="#ArialMT-6e" x="272.460938"/>
      <use xlink:href="#ArialMT-63" x="328.076172"/>
      <use xlink:href="#ArialMT-65" x="378.076172"/>
      <use xlink:href="#ArialMT-20" x="433.691406"/>
      <use xlink:href="#ArialMT-72" x="461.474609"/>
      <use xlink:href="#ArialMT-65" x="494.775391"/>
      <use xlink:href="#ArialMT-63" x="550.390625"/>
      <use xlink:href="#ArialMT-6f" x="600.390625"/>
      <use xlink:href="#ArialMT-76" x="656.005859"/>
      <use xlink:href="#ArialMT-65" x="706.005859"/>
      <use xlink:href="#ArialMT-72" x="761.621094"/>
      <use xlink:href="#ArialMT-79" x="794.921875"/>
      <use xlink:href="#ArialMT-20" x="844.921875"/>
      <use xlink:href="#ArialMT-5b" x="872.705078"/>
      <use xlink:href="#ArialMT-25" x="900.488281"/>
      <use xlink:href="#ArialMT-5d" x="989.404297"/>
     </g>
    </g>
   </g>
   <g id="matplotlib.axis_2">
    <g id="ytick_1">
     <g id="line2d_4">
      <defs>
       <path id="m883f026bc2" d="M 0 0 
L -3.5 0 
" style="stroke: #000000; stroke-width: 0.8"/>
      </defs>
      <g>
       <use xlink:href="#m883f026bc2" x="93.31" y="74.705791" style="stroke: #000000; stroke-width: 0.8"/>
      </g>
     </g>
     <g id="text_5">
      <!-- ProteinMPNN -->
      <g transform="translate(12.958125 79.000479) scale(0.12 -0.12)">
       <defs>
        <path id="ArialMT-50" d="M 494 0 
L 494 4581 
L 2222 4581 
Q 2678 4581 2919 4538 
Q 3256 4481 3484 4323 
Q 3713 4166 3852 3881 
Q 3991 3597 3991 3256 
Q 3991 2672 3619 2267 
Q 3247 1863 2275 1863 
L 1100 1863 
L 1100 0 
L 494 0 
z
M 1100 2403 
L 2284 2403 
Q 2872 2403 3119 2622 
Q 3366 2841 3366 3238 
Q 3366 3525 3220 3729 
Q 3075 3934 2838 4000 
Q 2684 4041 2272 4041 
L 1100 4041 
L 1100 2403 
z
" transform="scale(0.015625)"/>
        <path id="ArialMT-74" d="M 1650 503 
L 1731 6 
Q 1494 -44 1306 -44 
Q 1000 -44 831 53 
Q 663 150 594 308 
Q 525 466 525 972 
L 525 2881 
L 113 2881 
L 113 3319 
L 525 3319 
L 525 4141 
L 1084 4478 
L 1084 3319 
L 1650 3319 
L 1650 2881 
L 1084 2881 
L 1084 941 
Q 1084 700 1114 631 
Q 1144 563 1211 522 
Q 1278 481 1403 481 
Q 1497 481 1650 503 
z
" transform="scale(0.015625)"/>
        <path id="ArialMT-69" d="M 425 3934 
L 425 4581 
L 988 4581 
L 988 3934 
L 425 3934 
z
M 425 0 
L 425 3319 
L 988 3319 
L 988 0 
L 425 0 
z
" transform="scale(0.015625)"/>
        <path id="ArialMT-4d" d="M 475 0 
L 475 4581 
L 1388 4581 
L 2472 1338 
Q 2622 884 2691 659 
Q 2769 909 2934 1394 
L 4031 4581 
L 4847 4581 
L 4847 0 
L 4263 0 
L 4263 3834 
L 2931 0 
L 2384 0 
L 1059 3900 
L 1059 0 
L 475 0 
z
" transform="scale(0.015625)"/>
        <path id="ArialMT-4e" d="M 488 0 
L 488 4581 
L 1109 4581 
L 3516 984 
L 3516 4581 
L 4097 4581 
L 4097 0 
L 3475 0 
L 1069 3600 
L 1069 0 
L 488 0 
z
" transform="scale(0.015625)"/>
       </defs>
       <use xlink:href="#ArialMT-50"/>
       <use xlink:href="#ArialMT-72" x="66.699219"/>
       <use xlink:href="#ArialMT-6f" x="100"/>
       <use xlink:href="#ArialMT-74" x="155.615234"/>
       <use xlink:href="#ArialMT-65" x="183.398438"/>
       <use xlink:href="#ArialMT-69" x="239.013672"/>
       <use xlink:href="#ArialMT-6e" x="261.230469"/>
       <use xlink:href="#ArialMT-4d" x="316.845703"/>
       <use xlink:href="#ArialMT-50" x="400.146484"/>
       <use xlink:href="#ArialMT-4e" x="466.845703"/>
       <use xlink:href="#ArialMT-4e" x="539.0625"/>
      </g>
     </g>
    </g>
    <g id="ytick_2">
     <g id="line2d_5">
      <g>
       <use xlink:href="#m883f026bc2" x="93.31" y="55.46" style="stroke: #000000; stroke-width: 0.8"/>
      </g>
     </g>
     <g id="text_6">
      <!-- ESM-IF1 -->
      <g transform="translate(38.97375 59.754688) scale(0.12 -0.12)">
       <defs>
        <path id="ArialMT-45" d="M 506 0 
L 506 4581 
L 3819 4581 
L 3819 4041 
L 1113 4041 
L 1113 2638 
L 3647 2638 
L 3647 2100 
L 1113 2100 
L 1113 541 
L 3925 541 
L 3925 0 
L 506 0 
z
" transform="scale(0.015625)"/>
        <path id="ArialMT-53" d="M 288 1472 
L 859 1522 
Q 900 1178 1048 958 
Q 1197 738 1509 602 
Q 1822 466 2213 466 
Q 2559 466 2825 569 
Q 3091 672 3220 851 
Q 3350 1031 3350 1244 
Q 3350 1459 3225 1620 
Q 3100 1781 2813 1891 
Q 2628 1963 1997 2114 
Q 1366 2266 1113 2400 
Q 784 2572 623 2826 
Q 463 3081 463 3397 
Q 463 3744 659 4045 
Q 856 4347 1234 4503 
Q 1613 4659 2075 4659 
Q 2584 4659 2973 4495 
Q 3363 4331 3572 4012 
Q 3781 3694 3797 3291 
L 3216 3247 
Q 3169 3681 2898 3903 
Q 2628 4125 2100 4125 
Q 1550 4125 1298 3923 
Q 1047 3722 1047 3438 
Q 1047 3191 1225 3031 
Q 1400 2872 2139 2705 
Q 2878 2538 3153 2413 
Q 3553 2228 3743 1945 
Q 3934 1663 3934 1294 
Q 3934 928 3725 604 
Q 3516 281 3123 101 
Q 2731 -78 2241 -78 
Q 1619 -78 1198 103 
Q 778 284 539 648 
Q 300 1013 288 1472 
z
" transform="scale(0.015625)"/>
        <path id="ArialMT-2d" d="M 203 1375 
L 203 1941 
L 1931 1941 
L 1931 1375 
L 203 1375 
z
" transform="scale(0.015625)"/>
        <path id="ArialMT-49" d="M 597 0 
L 597 4581 
L 1203 4581 
L 1203 0 
L 597 0 
z
" transform="scale(0.015625)"/>
        <path id="ArialMT-46" d="M 525 0 
L 525 4581 
L 3616 4581 
L 3616 4041 
L 1131 4041 
L 1131 2622 
L 3281 2622 
L 3281 2081 
L 1131 2081 
L 1131 0 
L 525 0 
z
" transform="scale(0.015625)"/>
        <path id="ArialMT-31" d="M 2384 0 
L 1822 0 
L 1822 3584 
Q 1619 3391 1289 3197 
Q 959 3003 697 2906 
L 697 3450 
Q 1169 3672 1522 3987 
Q 1875 4303 2022 4600 
L 2384 4600 
L 2384 0 
z
" transform="scale(0.015625)"/>
       </defs>
       <use xlink:href="#ArialMT-45"/>
       <use xlink:href="#ArialMT-53" x="66.699219"/>
       <use xlink:href="#ArialMT-4d" x="133.398438"/>
       <use xlink:href="#ArialMT-2d" x="216.699219"/>
       <use xlink:href="#ArialMT-49" x="250"/>
       <use xlink:href="#ArialMT-46" x="277.783203"/>
       <use xlink:href="#ArialMT-31" x="338.867188"/>
      </g>
     </g>
    </g>
    <g id="ytick_3">
     <g id="line2d_6">
      <g>
       <use xlink:href="#m883f026bc2" x="93.31" y="36.214209" style="stroke: #000000; stroke-width: 0.8"/>
      </g>
     </g>
     <g id="text_7">
      <!-- CARBonAra -->
      <g transform="translate(20.949375 40.508896) scale(0.12 -0.12)">
       <defs>
        <path id="ArialMT-43" d="M 3763 1606 
L 4369 1453 
Q 4178 706 3683 314 
Q 3188 -78 2472 -78 
Q 1731 -78 1267 223 
Q 803 525 561 1097 
Q 319 1669 319 2325 
Q 319 3041 592 3573 
Q 866 4106 1370 4382 
Q 1875 4659 2481 4659 
Q 3169 4659 3637 4309 
Q 4106 3959 4291 3325 
L 3694 3184 
Q 3534 3684 3231 3912 
Q 2928 4141 2469 4141 
Q 1941 4141 1586 3887 
Q 1231 3634 1087 3207 
Q 944 2781 944 2328 
Q 944 1744 1114 1308 
Q 1284 872 1643 656 
Q 2003 441 2422 441 
Q 2931 441 3284 734 
Q 3638 1028 3763 1606 
z
" transform="scale(0.015625)"/>
        <path id="ArialMT-41" d="M -9 0 
L 1750 4581 
L 2403 4581 
L 4278 0 
L 3588 0 
L 3053 1388 
L 1138 1388 
L 634 0 
L -9 0 
z
M 1313 1881 
L 2866 1881 
L 2388 3150 
Q 2169 3728 2063 4100 
Q 1975 3659 1816 3225 
L 1313 1881 
z
" transform="scale(0.015625)"/>
        <path id="ArialMT-52" d="M 503 0 
L 503 4581 
L 2534 4581 
Q 3147 4581 3465 4457 
Q 3784 4334 3975 4021 
Q 4166 3709 4166 3331 
Q 4166 2844 3850 2509 
Q 3534 2175 2875 2084 
Q 3116 1969 3241 1856 
Q 3506 1613 3744 1247 
L 4541 0 
L 3778 0 
L 3172 953 
Q 2906 1366 2734 1584 
Q 2563 1803 2427 1890 
Q 2291 1978 2150 2013 
Q 2047 2034 1813 2034 
L 1109 2034 
L 1109 0 
L 503 0 
z
M 1109 2559 
L 2413 2559 
Q 2828 2559 3062 2645 
Q 3297 2731 3419 2920 
Q 3541 3109 3541 3331 
Q 3541 3656 3305 3865 
Q 3069 4075 2559 4075 
L 1109 4075 
L 1109 2559 
z
" transform="scale(0.015625)"/>
        <path id="ArialMT-42" d="M 469 0 
L 469 4581 
L 2188 4581 
Q 2713 4581 3030 4442 
Q 3347 4303 3526 4014 
Q 3706 3725 3706 3409 
Q 3706 3116 3547 2856 
Q 3388 2597 3066 2438 
Q 3481 2316 3704 2022 
Q 3928 1728 3928 1328 
Q 3928 1006 3792 729 
Q 3656 453 3456 303 
Q 3256 153 2954 76 
Q 2653 0 2216 0 
L 469 0 
z
M 1075 2656 
L 2066 2656 
Q 2469 2656 2644 2709 
Q 2875 2778 2992 2937 
Q 3109 3097 3109 3338 
Q 3109 3566 3000 3739 
Q 2891 3913 2687 3977 
Q 2484 4041 1991 4041 
L 1075 4041 
L 1075 2656 
z
M 1075 541 
L 2216 541 
Q 2509 541 2628 563 
Q 2838 600 2978 687 
Q 3119 775 3209 942 
Q 3300 1109 3300 1328 
Q 3300 1584 3169 1773 
Q 3038 1963 2805 2039 
Q 2572 2116 2134 2116 
L 1075 2116 
L 1075 541 
z
" transform="scale(0.015625)"/>
        <path id="ArialMT-61" d="M 2588 409 
Q 2275 144 1986 34 
Q 1697 -75 1366 -75 
Q 819 -75 525 192 
Q 231 459 231 875 
Q 231 1119 342 1320 
Q 453 1522 633 1644 
Q 813 1766 1038 1828 
Q 1203 1872 1538 1913 
Q 2219 1994 2541 2106 
Q 2544 2222 2544 2253 
Q 2544 2597 2384 2738 
Q 2169 2928 1744 2928 
Q 1347 2928 1158 2789 
Q 969 2650 878 2297 
L 328 2372 
Q 403 2725 575 2942 
Q 747 3159 1072 3276 
Q 1397 3394 1825 3394 
Q 2250 3394 2515 3294 
Q 2781 3194 2906 3042 
Q 3031 2891 3081 2659 
Q 3109 2516 3109 2141 
L 3109 1391 
Q 3109 606 3145 398 
Q 3181 191 3288 0 
L 2700 0 
Q 2613 175 2588 409 
z
M 2541 1666 
Q 2234 1541 1622 1453 
Q 1275 1403 1131 1340 
Q 988 1278 909 1158 
Q 831 1038 831 891 
Q 831 666 1001 516 
Q 1172 366 1500 366 
Q 1825 366 2078 508 
Q 2331 650 2450 897 
Q 2541 1088 2541 1459 
L 2541 1666 
z
" transform="scale(0.015625)"/>
       </defs>
       <use xlink:href="#ArialMT-43"/>
       <use xlink:href="#ArialMT-41" x="72.216797"/>
       <use xlink:href="#ArialMT-52" x="138.916016"/>
       <use xlink:href="#ArialMT-42" x="211.132812"/>
       <use xlink:href="#ArialMT-6f" x="277.832031"/>
       <use xlink:href="#ArialMT-6e" x="333.447266"/>
       <use xlink:href="#ArialMT-41" x="389.0625"/>
       <use xlink:href="#ArialMT-72" x="455.761719"/>
       <use xlink:href="#ArialMT-61" x="489.0625"/>
      </g>
     </g>
    </g>
   </g>
   <g id="LineCollection_1">
    <path d="M 216.387476 78.073805 
L 216.387476 71.337778 
" clip-path="url(#pf208501d11)" style="fill: none; stroke: #0e9595; stroke-width: 1.5"/>
   </g>
   <g id="LineCollection_2">
    <path d="M 225.307929 58.828013 
L 225.307929 52.091987 
" clip-path="url(#pf208501d11)" style="fill: none; stroke: #0d3b66; stroke-width: 1.5"/>
   </g>
   <g id="LineCollection_3">
    <path d="M 218.538304 39.582222 
L 218.538304 32.846195 
" clip-path="url(#pf208501d11)" style="fill: none; stroke: #bf4e30; stroke-width: 1.5"/>
   </g>
   <g id="patch_3">
    <path d="M 93.31 84.04 
L 93.31 26.88 
" style="fill: none; stroke: #000000; stroke-width: 0.8; stroke-linejoin: miter; stroke-linecap: square"/>
   </g>
   <g id="patch_4">
    <path d="M 275.04 84.04 
L 275.04 26.88 
" style="fill: none; stroke: #000000; stroke-width: 0.8; stroke-linejoin: miter; stroke-linecap: square"/>
   </g>
   <g id="patch_5">
    <path d="M 93.31 84.04 
L 275.04 84.04 
" style="fill: none; stroke: #000000; stroke-width: 0.8; stroke-linejoin: miter; stroke-linecap: square"/>
   </g>
   <g id="patch_6">
    <path d="M 93.31 26.88 
L 275.04 26.88 
" style="fill: none; stroke: #000000; stroke-width: 0.8; stroke-linejoin: miter; stroke-linecap: square"/>
   </g>
   <g id="text_8">
    <!-- 55.3 -->
    <g transform="translate(219.366657 78.642588) scale(0.11 -0.11)">
     <defs>
      <path id="ArialMT-35" d="M 266 1200 
L 856 1250 
Q 922 819 1161 601 
Q 1400 384 1738 384 
Q 2144 384 2425 690 
Q 2706 997 2706 1503 
Q 2706 1984 2436 2262 
Q 2166 2541 1728 2541 
Q 1456 2541 1237 2417 
Q 1019 2294 894 2097 
L 366 2166 
L 809 4519 
L 3088 4519 
L 3088 3981 
L 1259 3981 
L 1013 2750 
Q 1425 3038 1878 3038 
Q 2478 3038 2890 2622 
Q 3303 2206 3303 1553 
Q 3303 931 2941 478 
Q 2500 -78 1738 -78 
Q 1113 -78 717 272 
Q 322 622 266 1200 
z
" transform="scale(0.015625)"/>
      <path id="ArialMT-2e" d="M 581 0 
L 581 641 
L 1222 641 
L 1222 0 
L 581 0 
z
" transform="scale(0.015625)"/>
      <path id="ArialMT-33" d="M 269 1209 
L 831 1284 
Q 928 806 1161 595 
Q 1394 384 1728 384 
Q 2125 384 2398 659 
Q 2672 934 2672 1341 
Q 2672 1728 2419 1979 
Q 2166 2231 1775 2231 
Q 1616 2231 1378 2169 
L 1441 2663 
Q 1497 2656 1531 2656 
Q 1891 2656 2178 2843 
Q 2466 3031 2466 3422 
Q 2466 3731 2256 3934 
Q 2047 4138 1716 4138 
Q 1388 4138 1169 3931 
Q 950 3725 888 3313 
L 325 3413 
Q 428 3978 793 4289 
Q 1159 4600 1703 4600 
Q 2078 4600 2393 4439 
Q 2709 4278 2876 4000 
Q 3044 3722 3044 3409 
Q 3044 3113 2884 2869 
Q 2725 2625 2413 2481 
Q 2819 2388 3044 2092 
Q 3269 1797 3269 1353 
Q 3269 753 2831 336 
Q 2394 -81 1725 -81 
Q 1122 -81 723 278 
Q 325 638 269 1209 
z
" transform="scale(0.015625)"/>
     </defs>
     <use xlink:href="#ArialMT-35"/>
     <use xlink:href="#ArialMT-35" x="55.615234"/>
     <use xlink:href="#ArialMT-2e" x="111.230469"/>
     <use xlink:href="#ArialMT-33" x="139.013672"/>
    </g>
   </g>
   <g id="text_9">
    <!-- 58.3 -->
    <g transform="translate(228.28711 59.396797) scale(0.11 -0.11)">
     <defs>
      <path id="ArialMT-38" d="M 1131 2484 
Q 781 2613 612 2850 
Q 444 3088 444 3419 
Q 444 3919 803 4259 
Q 1163 4600 1759 4600 
Q 2359 4600 2725 4251 
Q 3091 3903 3091 3403 
Q 3091 3084 2923 2848 
Q 2756 2613 2416 2484 
Q 2838 2347 3058 2040 
Q 3278 1734 3278 1309 
Q 3278 722 2862 322 
Q 2447 -78 1769 -78 
Q 1091 -78 675 323 
Q 259 725 259 1325 
Q 259 1772 486 2073 
Q 713 2375 1131 2484 
z
M 1019 3438 
Q 1019 3113 1228 2906 
Q 1438 2700 1772 2700 
Q 2097 2700 2305 2904 
Q 2513 3109 2513 3406 
Q 2513 3716 2298 3927 
Q 2084 4138 1766 4138 
Q 1444 4138 1231 3931 
Q 1019 3725 1019 3438 
z
M 838 1322 
Q 838 1081 952 856 
Q 1066 631 1291 507 
Q 1516 384 1775 384 
Q 2178 384 2440 643 
Q 2703 903 2703 1303 
Q 2703 1709 2433 1975 
Q 2163 2241 1756 2241 
Q 1359 2241 1098 1978 
Q 838 1716 838 1322 
z
" transform="scale(0.015625)"/>
     </defs>
     <use xlink:href="#ArialMT-35"/>
     <use xlink:href="#ArialMT-38" x="55.615234"/>
     <use xlink:href="#ArialMT-2e" x="111.230469"/>
     <use xlink:href="#ArialMT-33" x="139.013672"/>
    </g>
   </g>
   <g id="text_10">
    <!-- 56.0 -->
    <g transform="translate(221.517484 40.151006) scale(0.11 -0.11)">
     <use xlink:href="#ArialMT-35"/>
     <use xlink:href="#ArialMT-36" x="55.615234"/>
     <use xlink:href="#ArialMT-2e" x="111.230469"/>
     <use xlink:href="#ArialMT-30" x="139.013672"/>
    </g>
   </g>
   <g id="text_11">
    <!-- dimers -->
    <g transform="translate(167.673281 20.88) scale(0.11 -0.11)">
     <defs>
      <path id="ArialMT-64" d="M 2575 0 
L 2575 419 
Q 2259 -75 1647 -75 
Q 1250 -75 917 144 
Q 584 363 401 755 
Q 219 1147 219 1656 
Q 219 2153 384 2558 
Q 550 2963 881 3178 
Q 1213 3394 1622 3394 
Q 1922 3394 2156 3267 
Q 2391 3141 2538 2938 
L 2538 4581 
L 3097 4581 
L 3097 0 
L 2575 0 
z
M 797 1656 
Q 797 1019 1065 703 
Q 1334 388 1700 388 
Q 2069 388 2326 689 
Q 2584 991 2584 1609 
Q 2584 2291 2321 2609 
Q 2059 2928 1675 2928 
Q 1300 2928 1048 2622 
Q 797 2316 797 1656 
z
" transform="scale(0.015625)"/>
      <path id="ArialMT-6d" d="M 422 0 
L 422 3319 
L 925 3319 
L 925 2853 
Q 1081 3097 1340 3245 
Q 1600 3394 1931 3394 
Q 2300 3394 2536 3241 
Q 2772 3088 2869 2813 
Q 3263 3394 3894 3394 
Q 4388 3394 4653 3120 
Q 4919 2847 4919 2278 
L 4919 0 
L 4359 0 
L 4359 2091 
Q 4359 2428 4304 2576 
Q 4250 2725 4106 2815 
Q 3963 2906 3769 2906 
Q 3419 2906 3187 2673 
Q 2956 2441 2956 1928 
L 2956 0 
L 2394 0 
L 2394 2156 
Q 2394 2531 2256 2718 
Q 2119 2906 1806 2906 
Q 1569 2906 1367 2781 
Q 1166 2656 1075 2415 
Q 984 2175 984 1722 
L 984 0 
L 422 0 
z
" transform="scale(0.015625)"/>
     </defs>
     <use xlink:href="#ArialMT-64"/>
     <use xlink:href="#ArialMT-69" x="55.615234"/>
     <use xlink:href="#ArialMT-6d" x="77.832031"/>
     <use xlink:href="#ArialMT-65" x="161.132812"/>
     <use xlink:href="#ArialMT-72" x="216.748047"/>
     <use xlink:href="#ArialMT-73" x="250.048828"/>
    </g>
   </g>
  </g>
 </g>
 <defs>
  <clipPath id="pf208501d11">
   <rect x="93.31" y="26.88" width="181.73" height="57.16"/>
  </clipPath>
 </defs>
</svg>
