<?xml version="1.0" encoding="utf-8" standalone="no"?>
<!DOCTYPE svg PUBLIC "-//W3C//DTD SVG 1.1//EN"
  "http://www.w3.org/Graphics/SVG/1.1/DTD/svg11.dtd">
<svg xmlns:xlink="http://www.w3.org/1999/xlink" width="360pt" height="165.6pt" viewBox="0 0 360 165.6" xmlns="http://www.w3.org/2000/svg" version="1.1">
 <metadata>
  <rdf:RDF xmlns:dc="http://purl.org/dc/elements/1.1/" xmlns:cc="http://creativecommons.org/ns#" xmlns:rdf="http://www.w3.org/1999/02/22-rdf-syntax-ns#">
   <cc:Work>
    <dc:type rdf:resource="http://purl.org/dc/dcmitype/StillImage"/>
    <dc:date>2024-05-06T17:30:46.804495</dc:date>
    <dc:format>image/svg+xml</dc:format>
    <dc:creator>
     <cc:Agent>
      <dc:title>Matplotlib v3.7.1, https://matplotlib.org/</dc:title>
     </cc:Agent>
    </dc:creator>
   </cc:Work>
  </rdf:RDF>
 </metadata>
 <defs>
  <style type="text/css">*{stroke-linejoin: round; stroke-linecap: butt}</style>
 </defs>
 <g id="figure_1">
  <g id="patch_1">
   <path d="M 0 165.6 
L 360 165.6 
L 360 0 
L 0 0 
z
" style="fill: #ffffff"/>
  </g>
  <g id="axes_1">
   <g id="patch_2">
    <path d="M 177.37 119.98375 
L 337.05 119.98375 
L 337.05 26.88 
L 177.37 26.88 
z
" style="fill: #ffffff"/>
   </g>
   <g id="PolyCollection_1">
    <defs>
     <path id="mcad0c4ce1f" d="M 190.676667 -61.09873 
L 190.676667 -60.541392 
L 191.845006 -60.528383 
L 193.013346 -60.517561 
L 194.181686 -60.508646 
L 195.350026 -60.501248 
L 196.518366 -60.494911 
L 197.686706 -60.489158 
L 198.855045 -60.483517 
L 200.023385 -60.477525 
L 201.191725 -60.470723 
L 202.360065 -60.462625 
L 203.528405 -60.452699 
L 204.696744 -60.440339 
L 205.865084 -60.42487 
L 207.033424 -60.405564 
L 208.201764 -60.381692 
L 209.370104 -60.352588 
L 210.538443 -60.317733 
L 211.706783 -60.276838 
L 212.875123 -60.22991 
L 214.043463 -60.177299 
L 215.211803 -60.11971 
L 216.380142 -60.05817 
L 217.548482 -59.993965 
L 218.716822 -59.928538 
L 219.885162 -59.863355 
L 221.053502 -59.799764 
L 222.221841 -59.738842 
L 223.390181 -59.681263 
L 224.558521 -59.627186 
L 225.726861 -59.576189 
L 226.895201 -59.527242 
L 228.063541 -59.478754 
L 229.23188 -59.428664 
L 230.40022 -59.374585 
L 231.56856 -59.313992 
L 232.7369 -59.244414 
L 233.90524 -59.163633 
L 235.073579 -59.069841 
L 236.241919 -58.961744 
L 237.410259 -58.838606 
L 238.578599 -58.700209 
L 239.746939 -58.546758 
L 240.915278 -58.378734 
L 242.083618 -58.196721 
L 243.251958 -58.001256 
L 244.420298 -57.792696 
L 245.588638 -57.571157 
L 246.756977 -57.336506 
L 247.925317 -57.088431 
L 249.093657 -56.826548 
L 250.261997 -56.550543 
L 251.430337 -56.260319 
L 252.598677 -55.956111 
L 253.767016 -55.638566 
L 254.935356 -55.308773 
L 256.103696 -54.968235 
L 257.272036 -54.618804 
L 258.440376 -54.262592 
L 259.608715 -53.901876 
L 260.777055 -53.539019 
L 261.945395 -53.176424 
L 263.113735 -52.816523 
L 264.282075 -52.461814 
L 265.450414 -52.114918 
L 266.618754 -51.778667 
L 267.787094 -51.456186 
L 268.955434 -51.150964 
L 270.123774 -50.866888 
L 271.292113 -50.608228 
L 272.460453 -50.379573 
L 273.628793 -50.185691 
L 274.797133 -50.031353 
L 275.965473 -49.921091 
L 277.133812 -49.858951 
L 278.302152 -49.848239 
L 279.470492 -49.89129 
L 280.638832 -49.989305 
L 281.807172 -50.142249 
L 282.975512 -50.348841 
L 284.143851 -50.606628 
L 285.312191 -50.912122 
L 286.480531 -51.260997 
L 287.648871 -51.648301 
L 288.817211 -52.068671 
L 289.98555 -52.516523 
L 291.15389 -52.986211 
L 292.32223 -53.472138 
L 293.49057 -53.968844 
L 294.65891 -54.471053 
L 295.827249 -54.973712 
L 296.995589 -55.472023 
L 298.163929 -55.961468 
L 299.332269 -56.437851 
L 300.500609 -56.897327 
L 301.668948 -57.336453 
L 302.837288 -57.752221 
L 304.005628 -58.142105 
L 305.173968 -58.504087 
L 306.342308 -58.836688 
L 306.342308 -62.803434 
L 306.342308 -62.803434 
L 305.173968 -63.136035 
L 304.005628 -63.498017 
L 302.837288 -63.887901 
L 301.668948 -64.30367 
L 300.500609 -64.742795 
L 299.332269 -65.202271 
L 298.163929 -65.678654 
L 296.995589 -66.168099 
L 295.827249 -66.66641 
L 294.65891 -67.169069 
L 293.49057 -67.671278 
L 292.32223 -68.167984 
L 291.15389 -68.653911 
L 289.98555 -69.123599 
L 288.817211 -69.571451 
L 287.648871 -69.991821 
L 286.480531 -70.379125 
L 285.312191 -70.728 
L 284.143851 -71.033494 
L 282.975512 -71.291281 
L 281.807172 -71.497874 
L 280.638832 -71.650817 
L 279.470492 -71.748832 
L 278.302152 -71.791883 
L 277.133812 -71.781171 
L 275.965473 -71.719031 
L 274.797133 -71.608769 
L 273.628793 -71.454431 
L 272.460453 -71.26055 
L 271.292113 -71.031894 
L 270.123774 -70.773234 
L 268.955434 -70.489158 
L 267.787094 -70.183936 
L 266.618754 -69.861455 
L 265.450414 -69.525204 
L 264.282075 -69.178308 
L 263.113735 -68.823599 
L 261.945395 -68.463698 
L 260.777055 -68.101103 
L 259.608715 -67.738246 
L 258.440376 -67.37753 
L 257.272036 -67.021318 
L 256.103696 -66.671887 
L 254.935356 -66.331349 
L 253.767016 -66.001556 
L 252.598677 -65.684011 
L 251.430337 -65.379803 
L 250.261997 -65.089579 
L 249.093657 -64.813574 
L 247.925317 -64.551691 
L 246.756977 -64.303616 
L 245.588638 -64.068965 
L 244.420298 -63.847426 
L 243.251958 -63.638866 
L 242.083618 -63.443401 
L 240.915278 -63.261388 
L 239.746939 -63.093364 
L 238.578599 -62.939913 
L 237.410259 -62.801516 
L 236.241919 -62.678378 
L 235.073579 -62.570281 
L 233.90524 -62.476489 
L 232.7369 -62.395708 
L 231.56856 -62.32613 
L 230.40022 -62.265537 
L 229.23188 -62.211458 
L 228.063541 -62.161368 
L 226.895201 -62.11288 
L 225.726861 -62.063933 
L 224.558521 -62.012936 
L 223.390181 -61.958859 
L 222.221841 -61.901281 
L 221.053502 -61.840358 
L 219.885162 -61.776767 
L 218.716822 -61.711584 
L 217.548482 -61.646157 
L 216.380142 -61.581952 
L 215.211803 -61.520412 
L 214.043463 -61.462823 
L 212.875123 -61.410212 
L 211.706783 -61.363284 
L 210.538443 -61.322389 
L 209.370104 -61.287534 
L 208.201764 -61.25843 
L 207.033424 -61.234558 
L 205.865084 -61.215252 
L 204.696744 -61.199783 
L 203.528405 -61.187423 
L 202.360065 -61.177497 
L 201.191725 -61.169399 
L 200.023385 -61.162597 
L 198.855045 -61.156605 
L 197.686706 -61.150964 
L 196.518366 -61.145211 
L 195.350026 -61.138874 
L 194.181686 -61.131476 
L 193.013346 -61.122561 
L 191.845006 -61.111739 
L 190.676667 -61.09873 
z
" style="stroke: #0d3b66; stroke-opacity: 0.3"/>
    </defs>
    <g clip-path="url(#pe2088fc298)">
     <use xlink:href="#mcad0c4ce1f" x="0" y="165.6" style="fill: #0d3b66; fill-opacity: 0.3; stroke: #0d3b66; stroke-opacity: 0.3"/>
    </g>
   </g>
   <g id="PolyCollection_2">
    <defs>
     <path id="mad7a17582a" d="M 203.983333 -92.342466 
L 203.983333 -91.993784 
L 205.153634 -91.991261 
L 206.323935 -91.991 
L 207.494235 -91.991947 
L 208.664536 -91.992739 
L 209.834837 -91.991838 
L 211.005138 -91.987686 
L 212.175438 -91.978866 
L 213.345739 -91.964247 
L 214.51604 -91.943087 
L 215.68634 -91.915088 
L 216.856641 -91.880389 
L 218.026942 -91.839511 
L 219.197243 -91.793257 
L 220.367543 -91.742577 
L 221.537844 -91.688429 
L 222.708145 -91.631645 
L 223.878445 -91.572809 
L 225.048746 -91.512167 
L 226.219047 -91.449568 
L 227.389347 -91.384432 
L 228.559648 -91.315762 
L 229.729949 -91.242198 
L 230.90025 -91.162118 
L 232.07055 -91.073795 
L 233.240851 -90.975601 
L 234.411152 -90.866244 
L 235.581452 -90.745009 
L 236.751753 -90.61196 
L 237.922054 -90.468065 
L 239.092355 -90.315197 
L 240.262655 -90.156023 
L 241.432956 -89.993756 
L 242.603257 -89.831849 
L 243.773557 -89.67365 
L 244.943858 -89.522101 
L 246.114159 -89.379521 
L 247.28446 -89.2475 
L 248.45476 -89.126892 
L 249.625061 -89.0179 
L 250.795362 -88.920176 
L 251.965662 -88.832924 
L 253.135963 -88.754949 
L 254.306264 -88.684641 
L 255.476564 -88.619921 
L 256.646865 -88.558154 
L 257.817166 -88.496084 
L 258.987467 -88.429824 
L 260.157767 -88.354935 
L 261.328068 -88.266594 
L 262.498369 -88.159848 
L 263.668669 -88.029912 
L 264.83897 -87.872486 
L 266.009271 -87.684023 
L 267.179572 -87.461923 
L 268.349872 -87.204633 
L 269.520173 -86.911642 
L 270.690474 -86.583413 
L 271.860774 -86.221297 
L 273.031075 -85.827464 
L 274.201376 -85.404929 
L 275.371677 -84.957689 
L 276.541977 -84.490966 
L 277.712278 -84.01155 
L 278.882579 -83.52815 
L 280.052879 -83.051682 
L 281.22318 -82.595391 
L 282.393481 -82.174696 
L 283.563781 -81.806718 
L 284.734082 -81.509453 
L 285.904383 -81.30062 
L 287.074684 -81.196303 
L 288.244984 -81.2095 
L 289.415285 -81.34879 
L 290.585586 -81.617272 
L 291.755886 -82.011949 
L 292.926187 -82.52364 
L 294.096488 -83.137461 
L 295.266789 -83.833813 
L 296.437089 -84.589769 
L 297.60739 -85.380681 
L 298.777691 -86.18185 
L 299.947991 -86.970057 
L 301.118292 -87.724844 
L 302.288593 -88.429437 
L 303.458894 -89.071274 
L 304.629194 -89.642159 
L 305.799495 -90.138079 
L 306.969796 -90.558768 
L 308.140096 -90.907095 
L 309.310397 -91.188363 
L 310.480698 -91.409593 
L 311.650998 -91.578847 
L 312.821299 -91.704622 
L 313.9916 -91.795342 
L 315.161901 -91.858955 
L 316.332201 -91.902626 
L 317.502502 -91.932534 
L 318.672803 -91.95375 
L 319.843103 -91.970199 
L 319.843103 -92.366051 
L 319.843103 -92.366051 
L 318.672803 -92.3825 
L 317.502502 -92.403716 
L 316.332201 -92.433624 
L 315.161901 -92.477295 
L 313.9916 -92.540908 
L 312.821299 -92.631628 
L 311.650998 -92.757403 
L 310.480698 -92.926657 
L 309.310397 -93.147887 
L 308.140096 -93.429155 
L 306.969796 -93.777482 
L 305.799495 -94.198171 
L 304.629194 -94.694091 
L 303.458894 -95.264976 
L 302.288593 -95.906813 
L 301.118292 -96.611406 
L 299.947991 -97.366193 
L 298.777691 -98.1544 
L 297.60739 -98.955569 
L 296.437089 -99.746481 
L 295.266789 -100.502437 
L 294.096488 -101.198789 
L 292.926187 -101.81261 
L 291.755886 -102.324301 
L 290.585586 -102.718978 
L 289.415285 -102.98746 
L 288.244984 -103.12675 
L 287.074684 -103.139947 
L 285.904383 -103.03563 
L 284.734082 -102.826797 
L 283.563781 -102.529532 
L 282.393481 -102.161554 
L 281.22318 -101.740859 
L 280.052879 -101.284568 
L 278.882579 -100.8081 
L 277.712278 -100.3247 
L 276.541977 -99.845284 
L 275.371677 -99.378561 
L 274.201376 -98.931321 
L 273.031075 -98.508786 
L 271.860774 -98.114953 
L 270.690474 -97.752837 
L 269.520173 -97.424608 
L 268.349872 -97.131617 
L 267.179572 -96.874327 
L 266.009271 -96.652227 
L 264.83897 -96.463764 
L 263.668669 -96.306338 
L 262.498369 -96.176402 
L 261.328068 -96.069656 
L 260.157767 -95.981315 
L 258.987467 -95.906426 
L 257.817166 -95.840166 
L 256.646865 -95.778096 
L 255.476564 -95.716329 
L 254.306264 -95.651609 
L 253.135963 -95.581301 
L 251.965662 -95.503326 
L 250.795362 -95.416074 
L 249.625061 -95.31835 
L 248.45476 -95.209358 
L 247.28446 -95.08875 
L 246.114159 -94.956729 
L 244.943858 -94.814149 
L 243.773557 -94.6626 
L 242.603257 -94.504401 
L 241.432956 -94.342494 
L 240.262655 -94.180227 
L 239.092355 -94.021053 
L 237.922054 -93.868185 
L 236.751753 -93.72429 
L 235.581452 -93.591241 
L 234.411152 -93.470006 
L 233.240851 -93.360649 
L 232.07055 -93.262455 
L 230.90025 -93.174132 
L 229.729949 -93.094052 
L 228.559648 -93.020488 
L 227.389347 -92.951818 
L 226.219047 -92.886682 
L 225.048746 -92.824083 
L 223.878445 -92.763441 
L 222.708145 -92.704605 
L 221.537844 -92.647821 
L 220.367543 -92.593673 
L 219.197243 -92.542993 
L 218.026942 -92.496739 
L 216.856641 -92.455861 
L 215.68634 -92.421162 
L 214.51604 -92.393163 
L 213.345739 -92.372003 
L 212.175438 -92.357384 
L 211.005138 -92.348564 
L 209.834837 -92.344412 
L 208.664536 -92.343511 
L 207.494235 -92.344303 
L 206.323935 -92.34525 
L 205.153634 -92.344989 
L 203.983333 -92.342466 
z
" style="stroke: #0d3b66; stroke-opacity: 0.3"/>
    </defs>
    <g clip-path="url(#pe2088fc298)">
     <use xlink:href="#mad7a17582a" x="0" y="165.6" style="fill: #0d3b66; fill-opacity: 0.3; stroke: #0d3b66; stroke-opacity: 0.3"/>
    </g>
   </g>
   <g id="PolyCollection_3">
    <defs>
     <path id="m732b06a2b1" d="M 211.810784 -123.939101 
L 211.810784 -123.093277 
L 212.768277 -123.04619 
L 213.725769 -122.995496 
L 214.683262 -122.94097 
L 215.640754 -122.882459 
L 216.598247 -122.819907 
L 217.555739 -122.753381 
L 218.513232 -122.683076 
L 219.470724 -122.609306 
L 220.428217 -122.532495 
L 221.385709 -122.453144 
L 222.343202 -122.371799 
L 223.300694 -122.289029 
L 224.258187 -122.205395 
L 225.215679 -122.121441 
L 226.173172 -122.037685 
L 227.130664 -121.954635 
L 228.088157 -121.872791 
L 229.045649 -121.792661 
L 230.003142 -121.714766 
L 230.960634 -121.639628 
L 231.918127 -121.567744 
L 232.875619 -121.499542 
L 233.833112 -121.435314 
L 234.790604 -121.375146 
L 235.748097 -121.318841 
L 236.705589 -121.265852 
L 237.663082 -121.21524 
L 238.620574 -121.165662 
L 239.578067 -121.115394 
L 240.535559 -121.062402 
L 241.493052 -121.004449 
L 242.450544 -120.939232 
L 243.408037 -120.864545 
L 244.36553 -120.778442 
L 245.323022 -120.679387 
L 246.280515 -120.566384 
L 247.238007 -120.439059 
L 248.1955 -120.297701 
L 249.152992 -120.143246 
L 250.110485 -119.977216 
L 251.067977 -119.801603 
L 252.02547 -119.618726 
L 252.982962 -119.43106 
L 253.940455 -119.241045 
L 254.897947 -119.050906 
L 255.85544 -118.862473 
L 256.812932 -118.677025 
L 257.770425 -118.495168 
L 258.727917 -118.316744 
L 259.68541 -118.140793 
L 260.642902 -117.96557 
L 261.600395 -117.788608 
L 262.557887 -117.606857 
L 263.51538 -117.416867 
L 264.472872 -117.215037 
L 265.430365 -116.997893 
L 266.387857 -116.762406 
L 267.34535 -116.506305 
L 268.302842 -116.228377 
L 269.260335 -115.928729 
L 270.217827 -115.608975 
L 271.17532 -115.272343 
L 272.132812 -114.923683 
L 273.090305 -114.569361 
L 274.047797 -114.217059 
L 275.00529 -113.875473 
L 275.962782 -113.553947 
L 276.920275 -113.26205 
L 277.877767 -113.009142 
L 278.83526 -112.80394 
L 279.792752 -112.654133 
L 280.750245 -112.566043 
L 281.707737 -112.544367 
L 282.66523 -112.592001 
L 283.622722 -112.709957 
L 284.580215 -112.897351 
L 285.537707 -113.151484 
L 286.4952 -113.467979 
L 287.452692 -113.840984 
L 288.410185 -114.263418 
L 289.367677 -114.727247 
L 290.32517 -115.2238 
L 291.282662 -115.744073 
L 292.240155 -116.279054 
L 293.197647 -116.820021 
L 294.15514 -117.358819 
L 295.112632 -117.888089 
L 296.070125 -118.401451 
L 297.027617 -118.893628 
L 297.98511 -119.3605 
L 298.942602 -119.799099 
L 299.900095 -120.207546 
L 300.857587 -120.584939 
L 301.81508 -120.931212 
L 302.772572 -121.246969 
L 303.730065 -121.533321 
L 304.687557 -121.791727 
L 305.64505 -122.023858 
L 306.602542 -122.231483 
L 306.602542 -124.800895 
L 306.602542 -124.800895 
L 305.64505 -125.00852 
L 304.687557 -125.240651 
L 303.730065 -125.499057 
L 302.772572 -125.785409 
L 301.81508 -126.101166 
L 300.857587 -126.447439 
L 299.900095 -126.824832 
L 298.942602 -127.233279 
L 297.98511 -127.671878 
L 297.027617 -128.13875 
L 296.070125 -128.630927 
L 295.112632 -129.144289 
L 294.15514 -129.673559 
L 293.197647 -130.212356 
L 292.240155 -130.753324 
L 291.282662 -131.288305 
L 290.32517 -131.808578 
L 289.367677 -132.30513 
L 288.410185 -132.76896 
L 287.452692 -133.191394 
L 286.4952 -133.564399 
L 285.537707 -133.880894 
L 284.580215 -134.135027 
L 283.622722 -134.322421 
L 282.66523 -134.440377 
L 281.707737 -134.488011 
L 280.750245 -134.466335 
L 279.792752 -134.378245 
L 278.83526 -134.228438 
L 277.877767 -134.023236 
L 276.920275 -133.770328 
L 275.962782 -133.478431 
L 275.00529 -133.156905 
L 274.047797 -132.815319 
L 273.090305 -132.463017 
L 272.132812 -132.108695 
L 271.17532 -131.760035 
L 270.217827 -131.423403 
L 269.260335 -131.103649 
L 268.302842 -130.804001 
L 267.34535 -130.526073 
L 266.387857 -130.269972 
L 265.430365 -130.034485 
L 264.472872 -129.817341 
L 263.51538 -129.615511 
L 262.557887 -129.425521 
L 261.600395 -129.24377 
L 260.642902 -129.066808 
L 259.68541 -128.891584 
L 258.727917 -128.715634 
L 257.770425 -128.53721 
L 256.812932 -128.355352 
L 255.85544 -128.169905 
L 254.897947 -127.981472 
L 253.940455 -127.791333 
L 252.982962 -127.601318 
L 252.02547 -127.413651 
L 251.067977 -127.230775 
L 250.110485 -127.055162 
L 249.152992 -126.889132 
L 248.1955 -126.734677 
L 247.238007 -126.593319 
L 246.280515 -126.465994 
L 245.323022 -126.35299 
L 244.36553 -126.253936 
L 243.408037 -126.167833 
L 242.450544 -126.093146 
L 241.493052 -126.027929 
L 240.535559 -125.969976 
L 239.578067 -125.916984 
L 238.620574 -125.866716 
L 237.663082 -125.817138 
L 236.705589 -125.766526 
L 235.748097 -125.713537 
L 234.790604 -125.657232 
L 233.833112 -125.597064 
L 232.875619 -125.532836 
L 231.918127 -125.464634 
L 230.960634 -125.39275 
L 230.003142 -125.317612 
L 229.045649 -125.239717 
L 228.088157 -125.159587 
L 227.130664 -125.077743 
L 226.173172 -124.994693 
L 225.215679 -124.910937 
L 224.258187 -124.826983 
L 223.300694 -124.743349 
L 222.343202 -124.660579 
L 221.385709 -124.579234 
L 220.428217 -124.499883 
L 219.470724 -124.423072 
L 218.513232 -124.349302 
L 217.555739 -124.278996 
L 216.598247 -124.212471 
L 215.640754 -124.149919 
L 214.683262 -124.091407 
L 213.725769 -124.036882 
L 212.768277 -123.986188 
L 211.810784 -123.939101 
z
" style="stroke: #0d3b66; stroke-opacity: 0.3"/>
    </defs>
    <g clip-path="url(#pe2088fc298)">
     <use xlink:href="#m732b06a2b1" x="0" y="165.6" style="fill: #0d3b66; fill-opacity: 0.3; stroke: #0d3b66; stroke-opacity: 0.3"/>
    </g>
   </g>
   <g id="matplotlib.axis_1">
    <g id="xtick_1">
     <g id="line2d_1">
      <defs>
       <path id="md245cc1497" d="M 0 0 
L 0 3.5 
" style="stroke: #000000; stroke-width: 0.8"/>
      </defs>
      <g>
       <use xlink:href="#md245cc1497" x="177.37" y="119.98375" style="stroke: #000000; stroke-width: 0.8"/>
      </g>
     </g>
     <g id="text_1">
      <!-- 20 -->
      <g transform="translate(170.696875 135.573125) scale(0.12 -0.12)">
       <defs>
        <path id="ArialMT-32" d="M 3222 541 
L 3222 0 
L 194 0 
Q 188 203 259 391 
Q 375 700 629 1000 
Q 884 1300 1366 1694 
Q 2113 2306 2375 2664 
Q 2638 3022 2638 3341 
Q 2638 3675 2398 3904 
Q 2159 4134 1775 4134 
Q 1369 4134 1125 3890 
Q 881 3647 878 3216 
L 300 3275 
Q 359 3922 746 4261 
Q 1134 4600 1788 4600 
Q 2447 4600 2831 4234 
Q 3216 3869 3216 3328 
Q 3216 3053 3103 2787 
Q 2991 2522 2730 2228 
Q 2469 1934 1863 1422 
Q 1356 997 1212 845 
Q 1069 694 975 541 
L 3222 541 
z
" transform="scale(0.015625)"/>
        <path id="ArialMT-30" d="M 266 2259 
Q 266 3072 433 3567 
Q 600 4063 929 4331 
Q 1259 4600 1759 4600 
Q 2128 4600 2406 4451 
Q 2684 4303 2865 4023 
Q 3047 3744 3150 3342 
Q 3253 2941 3253 2259 
Q 3253 1453 3087 958 
Q 2922 463 2592 192 
Q 2263 -78 1759 -78 
Q 1097 -78 719 397 
Q 266 969 266 2259 
z
M 844 2259 
Q 844 1131 1108 757 
Q 1372 384 1759 384 
Q 2147 384 2411 759 
Q 2675 1134 2675 2259 
Q 2675 3391 2411 3762 
Q 2147 4134 1753 4134 
Q 1366 4134 1134 3806 
Q 844 3388 844 2259 
z
" transform="scale(0.015625)"/>
       </defs>
       <use xlink:href="#ArialMT-32"/>
       <use xlink:href="#ArialMT-30" x="55.615234"/>
      </g>
     </g>
    </g>
    <g id="xtick_2">
     <g id="line2d_2">
      <g>
       <use xlink:href="#md245cc1497" x="217.29" y="119.98375" style="stroke: #000000; stroke-width: 0.8"/>
      </g>
     </g>
     <g id="text_2">
      <!-- 40 -->
      <g transform="translate(210.616875 135.573125) scale(0.12 -0.12)">
       <defs>
        <path id="ArialMT-34" d="M 2069 0 
L 2069 1097 
L 81 1097 
L 81 1613 
L 2172 4581 
L 2631 4581 
L 2631 1613 
L 3250 1613 
L 3250 1097 
L 2631 1097 
L 2631 0 
L 2069 0 
z
M 2069 1613 
L 2069 3678 
L 634 1613 
L 2069 1613 
z
" transform="scale(0.015625)"/>
       </defs>
       <use xlink:href="#ArialMT-34"/>
       <use xlink:href="#ArialMT-30" x="55.615234"/>
      </g>
     </g>
    </g>
    <g id="xtick_3">
     <g id="line2d_3">
      <g>
       <use xlink:href="#md245cc1497" x="257.21" y="119.98375" style="stroke: #000000; stroke-width: 0.8"/>
      </g>
     </g>
     <g id="text_3">
      <!-- 60 -->
      <g transform="translate(250.536875 135.573125) scale(0.12 -0.12)">
       <defs>
        <path id="ArialMT-36" d="M 3184 3459 
L 2625 3416 
Q 2550 3747 2413 3897 
Q 2184 4138 1850 4138 
Q 1581 4138 1378 3988 
Q 1113 3794 959 3422 
Q 806 3050 800 2363 
Q 1003 2672 1297 2822 
Q 1591 2972 1913 2972 
Q 2475 2972 2870 2558 
Q 3266 2144 3266 1488 
Q 3266 1056 3080 686 
Q 2894 316 2569 119 
Q 2244 -78 1831 -78 
Q 1128 -78 684 439 
Q 241 956 241 2144 
Q 241 3472 731 4075 
Q 1159 4600 1884 4600 
Q 2425 4600 2770 4297 
Q 3116 3994 3184 3459 
z
M 888 1484 
Q 888 1194 1011 928 
Q 1134 663 1356 523 
Q 1578 384 1822 384 
Q 2178 384 2434 671 
Q 2691 959 2691 1453 
Q 2691 1928 2437 2201 
Q 2184 2475 1800 2475 
Q 1419 2475 1153 2201 
Q 888 1928 888 1484 
z
" transform="scale(0.015625)"/>
       </defs>
       <use xlink:href="#ArialMT-36"/>
       <use xlink:href="#ArialMT-30" x="55.615234"/>
      </g>
     </g>
    </g>
    <g id="xtick_4">
     <g id="line2d_4">
      <g>
       <use xlink:href="#md245cc1497" x="297.13" y="119.98375" style="stroke: #000000; stroke-width: 0.8"/>
      </g>
     </g>
     <g id="text_4">
      <!-- 80 -->
      <g transform="translate(290.456875 135.573125) scale(0.12 -0.12)">
       <defs>
        <path id="ArialMT-38" d="M 1131 2484 
Q 781 2613 612 2850 
Q 444 3088 444 3419 
Q 444 3919 803 4259 
Q 1163 4600 1759 4600 
Q 2359 4600 2725 4251 
Q 3091 3903 3091 3403 
Q 3091 3084 2923 2848 
Q 2756 2613 2416 2484 
Q 2838 2347 3058 2040 
Q 3278 1734 3278 1309 
Q 3278 722 2862 322 
Q 2447 -78 1769 -78 
Q 1091 -78 675 323 
Q 259 725 259 1325 
Q 259 1772 486 2073 
Q 713 2375 1131 2484 
z
M 1019 3438 
Q 1019 3113 1228 2906 
Q 1438 2700 1772 2700 
Q 2097 2700 2305 2904 
Q 2513 3109 2513 3406 
Q 2513 3716 2298 3927 
Q 2084 4138 1766 4138 
Q 1444 4138 1231 3931 
Q 1019 3725 1019 3438 
z
M 838 1322 
Q 838 1081 952 856 
Q 1066 631 1291 507 
Q 1516 384 1775 384 
Q 2178 384 2440 643 
Q 2703 903 2703 1303 
Q 2703 1709 2433 1975 
Q 2163 2241 1756 2241 
Q 1359 2241 1098 1978 
Q 838 1716 838 1322 
z
" transform="scale(0.015625)"/>
       </defs>
       <use xlink:href="#ArialMT-38"/>
       <use xlink:href="#ArialMT-30" x="55.615234"/>
      </g>
     </g>
    </g>
    <g id="xtick_5">
     <g id="line2d_5">
      <g>
       <use xlink:href="#md245cc1497" x="337.05" y="119.98375" style="stroke: #000000; stroke-width: 0.8"/>
      </g>
     </g>
     <g id="text_5">
      <!-- 100 -->
      <g transform="translate(327.040312 135.573125) scale(0.12 -0.12)">
       <defs>
        <path id="ArialMT-31" d="M 2384 0 
L 1822 0 
L 1822 3584 
Q 1619 3391 1289 3197 
Q 959 3003 697 2906 
L 697 3450 
Q 1169 3672 1522 3987 
Q 1875 4303 2022 4600 
L 2384 4600 
L 2384 0 
z
" transform="scale(0.015625)"/>
       </defs>
       <use xlink:href="#ArialMT-31"/>
       <use xlink:href="#ArialMT-30" x="55.615234"/>
       <use xlink:href="#ArialMT-30" x="111.230469"/>
      </g>
     </g>
    </g>
    <g id="text_6">
     <!-- sequence identity [%] -->
     <g transform="translate(200.178125 150.69375) scale(0.12 -0.12)">
      <defs>
       <path id="ArialMT-73" d="M 197 991 
L 753 1078 
Q 800 744 1014 566 
Q 1228 388 1613 388 
Q 2000 388 2187 545 
Q 2375 703 2375 916 
Q 2375 1106 2209 1216 
Q 2094 1291 1634 1406 
Q 1016 1563 777 1677 
Q 538 1791 414 1992 
Q 291 2194 291 2438 
Q 291 2659 392 2848 
Q 494 3038 669 3163 
Q 800 3259 1026 3326 
Q 1253 3394 1513 3394 
Q 1903 3394 2198 3281 
Q 2494 3169 2634 2976 
Q 2775 2784 2828 2463 
L 2278 2388 
Q 2241 2644 2061 2787 
Q 1881 2931 1553 2931 
Q 1166 2931 1000 2803 
Q 834 2675 834 2503 
Q 834 2394 903 2306 
Q 972 2216 1119 2156 
Q 1203 2125 1616 2013 
Q 2213 1853 2448 1751 
Q 2684 1650 2818 1456 
Q 2953 1263 2953 975 
Q 2953 694 2789 445 
Q 2625 197 2315 61 
Q 2006 -75 1616 -75 
Q 969 -75 630 194 
Q 291 463 197 991 
z
" transform="scale(0.015625)"/>
       <path id="ArialMT-65" d="M 2694 1069 
L 3275 997 
Q 3138 488 2766 206 
Q 2394 -75 1816 -75 
Q 1088 -75 661 373 
Q 234 822 234 1631 
Q 234 2469 665 2931 
Q 1097 3394 1784 3394 
Q 2450 3394 2872 2941 
Q 3294 2488 3294 1666 
Q 3294 1616 3291 1516 
L 816 1516 
Q 847 969 1125 678 
Q 1403 388 1819 388 
Q 2128 388 2347 550 
Q 2566 713 2694 1069 
z
M 847 1978 
L 2700 1978 
Q 2663 2397 2488 2606 
Q 2219 2931 1791 2931 
Q 1403 2931 1139 2672 
Q 875 2413 847 1978 
z
" transform="scale(0.015625)"/>
       <path id="ArialMT-71" d="M 2538 -1272 
L 2538 353 
Q 2406 169 2170 47 
Q 1934 -75 1669 -75 
Q 1078 -75 651 397 
Q 225 869 225 1691 
Q 225 2191 398 2587 
Q 572 2984 901 3189 
Q 1231 3394 1625 3394 
Q 2241 3394 2594 2875 
L 2594 3319 
L 3100 3319 
L 3100 -1272 
L 2538 -1272 
z
M 803 1669 
Q 803 1028 1072 708 
Q 1341 388 1716 388 
Q 2075 388 2334 692 
Q 2594 997 2594 1619 
Q 2594 2281 2320 2615 
Q 2047 2950 1678 2950 
Q 1313 2950 1058 2639 
Q 803 2328 803 1669 
z
" transform="scale(0.015625)"/>
       <path id="ArialMT-75" d="M 2597 0 
L 2597 488 
Q 2209 -75 1544 -75 
Q 1250 -75 995 37 
Q 741 150 617 320 
Q 494 491 444 738 
Q 409 903 409 1263 
L 409 3319 
L 972 3319 
L 972 1478 
Q 972 1038 1006 884 
Q 1059 663 1231 536 
Q 1403 409 1656 409 
Q 1909 409 2131 539 
Q 2353 669 2445 892 
Q 2538 1116 2538 1541 
L 2538 3319 
L 3100 3319 
L 3100 0 
L 2597 0 
z
" transform="scale(0.015625)"/>
       <path id="ArialMT-6e" d="M 422 0 
L 422 3319 
L 928 3319 
L 928 2847 
Q 1294 3394 1984 3394 
Q 2284 3394 2536 3286 
Q 2788 3178 2913 3003 
Q 3038 2828 3088 2588 
Q 3119 2431 3119 2041 
L 3119 0 
L 2556 0 
L 2556 2019 
Q 2556 2363 2490 2533 
Q 2425 2703 2258 2804 
Q 2091 2906 1866 2906 
Q 1506 2906 1245 2678 
Q 984 2450 984 1813 
L 984 0 
L 422 0 
z
" transform="scale(0.015625)"/>
       <path id="ArialMT-63" d="M 2588 1216 
L 3141 1144 
Q 3050 572 2676 248 
Q 2303 -75 1759 -75 
Q 1078 -75 664 370 
Q 250 816 250 1647 
Q 250 2184 428 2587 
Q 606 2991 970 3192 
Q 1334 3394 1763 3394 
Q 2303 3394 2647 3120 
Q 2991 2847 3088 2344 
L 2541 2259 
Q 2463 2594 2264 2762 
Q 2066 2931 1784 2931 
Q 1359 2931 1093 2626 
Q 828 2322 828 1663 
Q 828 994 1084 691 
Q 1341 388 1753 388 
Q 2084 388 2306 591 
Q 2528 794 2588 1216 
z
" transform="scale(0.015625)"/>
       <path id="ArialMT-20" transform="scale(0.015625)"/>
       <path id="ArialMT-69" d="M 425 3934 
L 425 4581 
L 988 4581 
L 988 3934 
L 425 3934 
z
M 425 0 
L 425 3319 
L 988 3319 
L 988 0 
L 425 0 
z
" transform="scale(0.015625)"/>
       <path id="ArialMT-64" d="M 2575 0 
L 2575 419 
Q 2259 -75 1647 -75 
Q 1250 -75 917 144 
Q 584 363 401 755 
Q 219 1147 219 1656 
Q 219 2153 384 2558 
Q 550 2963 881 3178 
Q 1213 3394 1622 3394 
Q 1922 3394 2156 3267 
Q 2391 3141 2538 2938 
L 2538 4581 
L 3097 4581 
L 3097 0 
L 2575 0 
z
M 797 1656 
Q 797 1019 1065 703 
Q 1334 388 1700 388 
Q 2069 388 2326 689 
Q 2584 991 2584 1609 
Q 2584 2291 2321 2609 
Q 2059 2928 1675 2928 
Q 1300 2928 1048 2622 
Q 797 2316 797 1656 
z
" transform="scale(0.015625)"/>
       <path id="ArialMT-74" d="M 1650 503 
L 1731 6 
Q 1494 -44 1306 -44 
Q 1000 -44 831 53 
Q 663 150 594 308 
Q 525 466 525 972 
L 525 2881 
L 113 2881 
L 113 3319 
L 525 3319 
L 525 4141 
L 1084 4478 
L 1084 3319 
L 1650 3319 
L 1650 2881 
L 1084 2881 
L 1084 941 
Q 1084 700 1114 631 
Q 1144 563 1211 522 
Q 1278 481 1403 481 
Q 1497 481 1650 503 
z
" transform="scale(0.015625)"/>
       <path id="ArialMT-79" d="M 397 -1278 
L 334 -750 
Q 519 -800 656 -800 
Q 844 -800 956 -737 
Q 1069 -675 1141 -563 
Q 1194 -478 1313 -144 
Q 1328 -97 1363 -6 
L 103 3319 
L 709 3319 
L 1400 1397 
Q 1534 1031 1641 628 
Q 1738 1016 1872 1384 
L 2581 3319 
L 3144 3319 
L 1881 -56 
Q 1678 -603 1566 -809 
Q 1416 -1088 1222 -1217 
Q 1028 -1347 759 -1347 
Q 597 -1347 397 -1278 
z
" transform="scale(0.015625)"/>
       <path id="ArialMT-5b" d="M 434 -1272 
L 434 4581 
L 1675 4581 
L 1675 4116 
L 997 4116 
L 997 -806 
L 1675 -806 
L 1675 -1272 
L 434 -1272 
z
" transform="scale(0.015625)"/>
       <path id="ArialMT-25" d="M 372 3481 
Q 372 3972 619 4315 
Q 866 4659 1334 4659 
Q 1766 4659 2048 4351 
Q 2331 4044 2331 3447 
Q 2331 2866 2045 2552 
Q 1759 2238 1341 2238 
Q 925 2238 648 2547 
Q 372 2856 372 3481 
z
M 1350 4272 
Q 1141 4272 1002 4090 
Q 863 3909 863 3425 
Q 863 2984 1003 2804 
Q 1144 2625 1350 2625 
Q 1563 2625 1702 2806 
Q 1841 2988 1841 3469 
Q 1841 3913 1700 4092 
Q 1559 4272 1350 4272 
z
M 1353 -169 
L 3859 4659 
L 4316 4659 
L 1819 -169 
L 1353 -169 
z
M 3334 1075 
Q 3334 1569 3581 1911 
Q 3828 2253 4300 2253 
Q 4731 2253 5014 1945 
Q 5297 1638 5297 1041 
Q 5297 459 5011 145 
Q 4725 -169 4303 -169 
Q 3888 -169 3611 142 
Q 3334 453 3334 1075 
z
M 4316 1866 
Q 4103 1866 3964 1684 
Q 3825 1503 3825 1019 
Q 3825 581 3965 400 
Q 4106 219 4313 219 
Q 4528 219 4667 400 
Q 4806 581 4806 1063 
Q 4806 1506 4665 1686 
Q 4525 1866 4316 1866 
z
" transform="scale(0.015625)"/>
       <path id="ArialMT-5d" d="M 1363 -1272 
L 122 -1272 
L 122 -806 
L 800 -806 
L 800 4116 
L 122 4116 
L 122 4581 
L 1363 4581 
L 1363 -1272 
z
" transform="scale(0.015625)"/>
      </defs>
      <use xlink:href="#ArialMT-73"/>
      <use xlink:href="#ArialMT-65" x="50"/>
      <use xlink:href="#ArialMT-71" x="105.615234"/>
      <use xlink:href="#ArialMT-75" x="161.230469"/>
      <use xlink:href="#ArialMT-65" x="216.845703"/>
      <use xlink:href="#ArialMT-6e" x="272.460938"/>
      <use xlink:href="#ArialMT-63" x="328.076172"/>
      <use xlink:href="#ArialMT-65" x="378.076172"/>
      <use xlink:href="#ArialMT-20" x="433.691406"/>
      <use xlink:href="#ArialMT-69" x="461.474609"/>
      <use xlink:href="#ArialMT-64" x="483.691406"/>
      <use xlink:href="#ArialMT-65" x="539.306641"/>
      <use xlink:href="#ArialMT-6e" x="594.921875"/>
      <use xlink:href="#ArialMT-74" x="650.537109"/>
      <use xlink:href="#ArialMT-69" x="678.320312"/>
      <use xlink:href="#ArialMT-74" x="700.537109"/>
      <use xlink:href="#ArialMT-79" x="728.320312"/>
      <use xlink:href="#ArialMT-20" x="778.320312"/>
      <use xlink:href="#ArialMT-5b" x="806.103516"/>
      <use xlink:href="#ArialMT-25" x="833.886719"/>
      <use xlink:href="#ArialMT-5d" x="922.802734"/>
     </g>
    </g>
   </g>
   <g id="matplotlib.axis_2">
    <g id="ytick_1">
     <g id="line2d_6">
      <defs>
       <path id="m9fc8d292ac" d="M 0 0 
L -3.5 0 
" style="stroke: #000000; stroke-width: 0.8"/>
      </defs>
      <g>
       <use xlink:href="#m9fc8d292ac" x="177.37" y="104.779939" style="stroke: #000000; stroke-width: 0.8"/>
      </g>
     </g>
     <g id="text_7">
      <!-- ProteinMPNN vs ESM-IF1 -->
      <g transform="translate(31.014375 109.074626) scale(0.12 -0.12)">
       <defs>
        <path id="ArialMT-50" d="M 494 0 
L 494 4581 
L 2222 4581 
Q 2678 4581 2919 4538 
Q 3256 4481 3484 4323 
Q 3713 4166 3852 3881 
Q 3991 3597 3991 3256 
Q 3991 2672 3619 2267 
Q 3247 1863 2275 1863 
L 1100 1863 
L 1100 0 
L 494 0 
z
M 1100 2403 
L 2284 2403 
Q 2872 2403 3119 2622 
Q 3366 2841 3366 3238 
Q 3366 3525 3220 3729 
Q 3075 3934 2838 4000 
Q 2684 4041 2272 4041 
L 1100 4041 
L 1100 2403 
z
" transform="scale(0.015625)"/>
        <path id="ArialMT-72" d="M 416 0 
L 416 3319 
L 922 3319 
L 922 2816 
Q 1116 3169 1280 3281 
Q 1444 3394 1641 3394 
Q 1925 3394 2219 3213 
L 2025 2691 
Q 1819 2813 1613 2813 
Q 1428 2813 1281 2702 
Q 1134 2591 1072 2394 
Q 978 2094 978 1738 
L 978 0 
L 416 0 
z
" transform="scale(0.015625)"/>
        <path id="ArialMT-6f" d="M 213 1659 
Q 213 2581 725 3025 
Q 1153 3394 1769 3394 
Q 2453 3394 2887 2945 
Q 3322 2497 3322 1706 
Q 3322 1066 3130 698 
Q 2938 331 2570 128 
Q 2203 -75 1769 -75 
Q 1072 -75 642 372 
Q 213 819 213 1659 
z
M 791 1659 
Q 791 1022 1069 705 
Q 1347 388 1769 388 
Q 2188 388 2466 706 
Q 2744 1025 2744 1678 
Q 2744 2294 2464 2611 
Q 2184 2928 1769 2928 
Q 1347 2928 1069 2612 
Q 791 2297 791 1659 
z
" transform="scale(0.015625)"/>
        <path id="ArialMT-4d" d="M 475 0 
L 475 4581 
L 1388 4581 
L 2472 1338 
Q 2622 884 2691 659 
Q 2769 909 2934 1394 
L 4031 4581 
L 4847 4581 
L 4847 0 
L 4263 0 
L 4263 3834 
L 2931 0 
L 2384 0 
L 1059 3900 
L 1059 0 
L 475 0 
z
" transform="scale(0.015625)"/>
        <path id="ArialMT-4e" d="M 488 0 
L 488 4581 
L 1109 4581 
L 3516 984 
L 3516 4581 
L 4097 4581 
L 4097 0 
L 3475 0 
L 1069 3600 
L 1069 0 
L 488 0 
z
" transform="scale(0.015625)"/>
        <path id="ArialMT-76" d="M 1344 0 
L 81 3319 
L 675 3319 
L 1388 1331 
Q 1503 1009 1600 663 
Q 1675 925 1809 1294 
L 2547 3319 
L 3125 3319 
L 1869 0 
L 1344 0 
z
" transform="scale(0.015625)"/>
        <path id="ArialMT-45" d="M 506 0 
L 506 4581 
L 3819 4581 
L 3819 4041 
L 1113 4041 
L 1113 2638 
L 3647 2638 
L 3647 2100 
L 1113 2100 
L 1113 541 
L 3925 541 
L 3925 0 
L 506 0 
z
" transform="scale(0.015625)"/>
        <path id="ArialMT-53" d="M 288 1472 
L 859 1522 
Q 900 1178 1048 958 
Q 1197 738 1509 602 
Q 1822 466 2213 466 
Q 2559 466 2825 569 
Q 3091 672 3220 851 
Q 3350 1031 3350 1244 
Q 3350 1459 3225 1620 
Q 3100 1781 2813 1891 
Q 2628 1963 1997 2114 
Q 1366 2266 1113 2400 
Q 784 2572 623 2826 
Q 463 3081 463 3397 
Q 463 3744 659 4045 
Q 856 4347 1234 4503 
Q 1613 4659 2075 4659 
Q 2584 4659 2973 4495 
Q 3363 4331 3572 4012 
Q 3781 3694 3797 3291 
L 3216 3247 
Q 3169 3681 2898 3903 
Q 2628 4125 2100 4125 
Q 1550 4125 1298 3923 
Q 1047 3722 1047 3438 
Q 1047 3191 1225 3031 
Q 1400 2872 2139 2705 
Q 2878 2538 3153 2413 
Q 3553 2228 3743 1945 
Q 3934 1663 3934 1294 
Q 3934 928 3725 604 
Q 3516 281 3123 101 
Q 2731 -78 2241 -78 
Q 1619 -78 1198 103 
Q 778 284 539 648 
Q 300 1013 288 1472 
z
" transform="scale(0.015625)"/>
        <path id="ArialMT-2d" d="M 203 1375 
L 203 1941 
L 1931 1941 
L 1931 1375 
L 203 1375 
z
" transform="scale(0.015625)"/>
        <path id="ArialMT-49" d="M 597 0 
L 597 4581 
L 1203 4581 
L 1203 0 
L 597 0 
z
" transform="scale(0.015625)"/>
        <path id="ArialMT-46" d="M 525 0 
L 525 4581 
L 3616 4581 
L 3616 4041 
L 1131 4041 
L 1131 2622 
L 3281 2622 
L 3281 2081 
L 1131 2081 
L 1131 0 
L 525 0 
z
" transform="scale(0.015625)"/>
       </defs>
       <use xlink:href="#ArialMT-50"/>
       <use xlink:href="#ArialMT-72" x="66.699219"/>
       <use xlink:href="#ArialMT-6f" x="100"/>
       <use xlink:href="#ArialMT-74" x="155.615234"/>
       <use xlink:href="#ArialMT-65" x="183.398438"/>
       <use xlink:href="#ArialMT-69" x="239.013672"/>
       <use xlink:href="#ArialMT-6e" x="261.230469"/>
       <use xlink:href="#ArialMT-4d" x="316.845703"/>
       <use xlink:href="#ArialMT-50" x="400.146484"/>
       <use xlink:href="#ArialMT-4e" x="466.845703"/>
       <use xlink:href="#ArialMT-4e" x="539.0625"/>
       <use xlink:href="#ArialMT-20" x="611.279297"/>
       <use xlink:href="#ArialMT-76" x="639.0625"/>
       <use xlink:href="#ArialMT-73" x="689.0625"/>
       <use xlink:href="#ArialMT-20" x="739.0625"/>
       <use xlink:href="#ArialMT-45" x="766.845703"/>
       <use xlink:href="#ArialMT-53" x="833.544922"/>
       <use xlink:href="#ArialMT-4d" x="900.244141"/>
       <use xlink:href="#ArialMT-2d" x="983.544922"/>
       <use xlink:href="#ArialMT-49" x="1016.845703"/>
       <use xlink:href="#ArialMT-46" x="1044.628906"/>
       <use xlink:href="#ArialMT-31" x="1105.712891"/>
      </g>
     </g>
    </g>
    <g id="ytick_2">
     <g id="line2d_7">
      <g>
       <use xlink:href="#m9fc8d292ac" x="177.37" y="73.431875" style="stroke: #000000; stroke-width: 0.8"/>
      </g>
     </g>
     <g id="text_8">
      <!-- CARBonAra vs ESM-IF1 -->
      <g transform="translate(39.005625 77.726563) scale(0.12 -0.12)">
       <defs>
        <path id="ArialMT-43" d="M 3763 1606 
L 4369 1453 
Q 4178 706 3683 314 
Q 3188 -78 2472 -78 
Q 1731 -78 1267 223 
Q 803 525 561 1097 
Q 319 1669 319 2325 
Q 319 3041 592 3573 
Q 866 4106 1370 4382 
Q 1875 4659 2481 4659 
Q 3169 4659 3637 4309 
Q 4106 3959 4291 3325 
L 3694 3184 
Q 3534 3684 3231 3912 
Q 2928 4141 2469 4141 
Q 1941 4141 1586 3887 
Q 1231 3634 1087 3207 
Q 944 2781 944 2328 
Q 944 1744 1114 1308 
Q 1284 872 1643 656 
Q 2003 441 2422 441 
Q 2931 441 3284 734 
Q 3638 1028 3763 1606 
z
" transform="scale(0.015625)"/>
        <path id="ArialMT-41" d="M -9 0 
L 1750 4581 
L 2403 4581 
L 4278 0 
L 3588 0 
L 3053 1388 
L 1138 1388 
L 634 0 
L -9 0 
z
M 1313 1881 
L 2866 1881 
L 2388 3150 
Q 2169 3728 2063 4100 
Q 1975 3659 1816 3225 
L 1313 1881 
z
" transform="scale(0.015625)"/>
        <path id="ArialMT-52" d="M 503 0 
L 503 4581 
L 2534 4581 
Q 3147 4581 3465 4457 
Q 3784 4334 3975 4021 
Q 4166 3709 4166 3331 
Q 4166 2844 3850 2509 
Q 3534 2175 2875 2084 
Q 3116 1969 3241 1856 
Q 3506 1613 3744 1247 
L 4541 0 
L 3778 0 
L 3172 953 
Q 2906 1366 2734 1584 
Q 2563 1803 2427 1890 
Q 2291 1978 2150 2013 
Q 2047 2034 1813 2034 
L 1109 2034 
L 1109 0 
L 503 0 
z
M 1109 2559 
L 2413 2559 
Q 2828 2559 3062 2645 
Q 3297 2731 3419 2920 
Q 3541 3109 3541 3331 
Q 3541 3656 3305 3865 
Q 3069 4075 2559 4075 
L 1109 4075 
L 1109 2559 
z
" transform="scale(0.015625)"/>
        <path id="ArialMT-42" d="M 469 0 
L 469 4581 
L 2188 4581 
Q 2713 4581 3030 4442 
Q 3347 4303 3526 4014 
Q 3706 3725 3706 3409 
Q 3706 3116 3547 2856 
Q 3388 2597 3066 2438 
Q 3481 2316 3704 2022 
Q 3928 1728 3928 1328 
Q 3928 1006 3792 729 
Q 3656 453 3456 303 
Q 3256 153 2954 76 
Q 2653 0 2216 0 
L 469 0 
z
M 1075 2656 
L 2066 2656 
Q 2469 2656 2644 2709 
Q 2875 2778 2992 2937 
Q 3109 3097 3109 3338 
Q 3109 3566 3000 3739 
Q 2891 3913 2687 3977 
Q 2484 4041 1991 4041 
L 1075 4041 
L 1075 2656 
z
M 1075 541 
L 2216 541 
Q 2509 541 2628 563 
Q 2838 600 2978 687 
Q 3119 775 3209 942 
Q 3300 1109 3300 1328 
Q 3300 1584 3169 1773 
Q 3038 1963 2805 2039 
Q 2572 2116 2134 2116 
L 1075 2116 
L 1075 541 
z
" transform="scale(0.015625)"/>
        <path id="ArialMT-61" d="M 2588 409 
Q 2275 144 1986 34 
Q 1697 -75 1366 -75 
Q 819 -75 525 192 
Q 231 459 231 875 
Q 231 1119 342 1320 
Q 453 1522 633 1644 
Q 813 1766 1038 1828 
Q 1203 1872 1538 1913 
Q 2219 1994 2541 2106 
Q 2544 2222 2544 2253 
Q 2544 2597 2384 2738 
Q 2169 2928 1744 2928 
Q 1347 2928 1158 2789 
Q 969 2650 878 2297 
L 328 2372 
Q 403 2725 575 2942 
Q 747 3159 1072 3276 
Q 1397 3394 1825 3394 
Q 2250 3394 2515 3294 
Q 2781 3194 2906 3042 
Q 3031 2891 3081 2659 
Q 3109 2516 3109 2141 
L 3109 1391 
Q 3109 606 3145 398 
Q 3181 191 3288 0 
L 2700 0 
Q 2613 175 2588 409 
z
M 2541 1666 
Q 2234 1541 1622 1453 
Q 1275 1403 1131 1340 
Q 988 1278 909 1158 
Q 831 1038 831 891 
Q 831 666 1001 516 
Q 1172 366 1500 366 
Q 1825 366 2078 508 
Q 2331 650 2450 897 
Q 2541 1088 2541 1459 
L 2541 1666 
z
" transform="scale(0.015625)"/>
       </defs>
       <use xlink:href="#ArialMT-43"/>
       <use xlink:href="#ArialMT-41" x="72.216797"/>
       <use xlink:href="#ArialMT-52" x="138.916016"/>
       <use xlink:href="#ArialMT-42" x="211.132812"/>
       <use xlink:href="#ArialMT-6f" x="277.832031"/>
       <use xlink:href="#ArialMT-6e" x="333.447266"/>
       <use xlink:href="#ArialMT-41" x="389.0625"/>
       <use xlink:href="#ArialMT-72" x="455.761719"/>
       <use xlink:href="#ArialMT-61" x="489.0625"/>
       <use xlink:href="#ArialMT-20" x="544.677734"/>
       <use xlink:href="#ArialMT-76" x="572.460938"/>
       <use xlink:href="#ArialMT-73" x="622.460938"/>
       <use xlink:href="#ArialMT-20" x="672.460938"/>
       <use xlink:href="#ArialMT-45" x="700.244141"/>
       <use xlink:href="#ArialMT-53" x="766.943359"/>
       <use xlink:href="#ArialMT-4d" x="833.642578"/>
       <use xlink:href="#ArialMT-2d" x="916.943359"/>
       <use xlink:href="#ArialMT-49" x="950.244141"/>
       <use xlink:href="#ArialMT-46" x="978.027344"/>
       <use xlink:href="#ArialMT-31" x="1039.111328"/>
      </g>
     </g>
    </g>
    <g id="ytick_3">
     <g id="line2d_8">
      <g>
       <use xlink:href="#m9fc8d292ac" x="177.37" y="42.083811" style="stroke: #000000; stroke-width: 0.8"/>
      </g>
     </g>
     <g id="text_9">
      <!-- CARBonAra vs ProteinMPNN -->
      <g transform="translate(12.99 46.378499) scale(0.12 -0.12)">
       <use xlink:href="#ArialMT-43"/>
       <use xlink:href="#ArialMT-41" x="72.216797"/>
       <use xlink:href="#ArialMT-52" x="138.916016"/>
       <use xlink:href="#ArialMT-42" x="211.132812"/>
       <use xlink:href="#ArialMT-6f" x="277.832031"/>
       <use xlink:href="#ArialMT-6e" x="333.447266"/>
       <use xlink:href="#ArialMT-41" x="389.0625"/>
       <use xlink:href="#ArialMT-72" x="455.761719"/>
       <use xlink:href="#ArialMT-61" x="489.0625"/>
       <use xlink:href="#ArialMT-20" x="544.677734"/>
       <use xlink:href="#ArialMT-76" x="572.460938"/>
       <use xlink:href="#ArialMT-73" x="622.460938"/>
       <use xlink:href="#ArialMT-20" x="672.460938"/>
       <use xlink:href="#ArialMT-50" x="700.244141"/>
       <use xlink:href="#ArialMT-72" x="766.943359"/>
       <use xlink:href="#ArialMT-6f" x="800.244141"/>
       <use xlink:href="#ArialMT-74" x="855.859375"/>
       <use xlink:href="#ArialMT-65" x="883.642578"/>
       <use xlink:href="#ArialMT-69" x="939.257812"/>
       <use xlink:href="#ArialMT-6e" x="961.474609"/>
       <use xlink:href="#ArialMT-4d" x="1017.089844"/>
       <use xlink:href="#ArialMT-50" x="1100.390625"/>
       <use xlink:href="#ArialMT-4e" x="1167.089844"/>
       <use xlink:href="#ArialMT-4e" x="1239.306641"/>
      </g>
     </g>
    </g>
   </g>
   <g id="LineCollection_1">
    <path d="M 273.888233 110.26585 
L 273.888233 99.294028 
" clip-path="url(#pe2088fc298)" style="fill: none; stroke: #0d3b66; stroke-width: 1.5"/>
   </g>
   <g id="LineCollection_2">
    <path d="M 282.009991 78.917786 
L 282.009991 67.945964 
" clip-path="url(#pe2088fc298)" style="fill: none; stroke: #0d3b66; stroke-width: 1.5"/>
   </g>
   <g id="LineCollection_3">
    <path d="M 276.726109 47.569722 
L 276.726109 36.5979 
" clip-path="url(#pe2088fc298)" style="fill: none; stroke: #0d3b66; stroke-width: 1.5"/>
   </g>
   <g id="patch_3">
    <path d="M 177.37 119.98375 
L 177.37 26.88 
" style="fill: none; stroke: #000000; stroke-width: 0.8; stroke-linejoin: miter; stroke-linecap: square"/>
   </g>
   <g id="patch_4">
    <path d="M 337.05 119.98375 
L 337.05 26.88 
" style="fill: none; stroke: #000000; stroke-width: 0.8; stroke-linejoin: miter; stroke-linecap: square"/>
   </g>
   <g id="patch_5">
    <path d="M 177.37 119.98375 
L 337.05 119.98375 
" style="fill: none; stroke: #000000; stroke-width: 0.8; stroke-linejoin: miter; stroke-linecap: square"/>
   </g>
   <g id="patch_6">
    <path d="M 177.37 26.88 
L 337.05 26.88 
" style="fill: none; stroke: #000000; stroke-width: 0.8; stroke-linejoin: miter; stroke-linecap: square"/>
   </g>
   <g id="text_10">
    <!-- 68.4 -->
    <g transform="translate(275.884233 108.716736) scale(0.11 -0.11)">
     <defs>
      <path id="ArialMT-2e" d="M 581 0 
L 581 641 
L 1222 641 
L 1222 0 
L 581 0 
z
" transform="scale(0.015625)"/>
     </defs>
     <use xlink:href="#ArialMT-36"/>
     <use xlink:href="#ArialMT-38" x="55.615234"/>
     <use xlink:href="#ArialMT-2e" x="111.230469"/>
     <use xlink:href="#ArialMT-34" x="139.013672"/>
    </g>
   </g>
   <g id="text_11">
    <!-- 72.4 -->
    <g transform="translate(284.005991 77.368672) scale(0.11 -0.11)">
     <defs>
      <path id="ArialMT-37" d="M 303 3981 
L 303 4522 
L 3269 4522 
L 3269 4084 
Q 2831 3619 2401 2847 
Q 1972 2075 1738 1259 
Q 1569 684 1522 0 
L 944 0 
Q 953 541 1156 1306 
Q 1359 2072 1739 2783 
Q 2119 3494 2547 3981 
L 303 3981 
z
" transform="scale(0.015625)"/>
     </defs>
     <use xlink:href="#ArialMT-37"/>
     <use xlink:href="#ArialMT-32" x="55.615234"/>
     <use xlink:href="#ArialMT-2e" x="111.230469"/>
     <use xlink:href="#ArialMT-34" x="139.013672"/>
    </g>
   </g>
   <g id="text_12">
    <!-- 69.8 -->
    <g transform="translate(278.722109 46.020608) scale(0.11 -0.11)">
     <defs>
      <path id="ArialMT-39" d="M 350 1059 
L 891 1109 
Q 959 728 1153 556 
Q 1347 384 1650 384 
Q 1909 384 2104 503 
Q 2300 622 2425 820 
Q 2550 1019 2634 1356 
Q 2719 1694 2719 2044 
Q 2719 2081 2716 2156 
Q 2547 1888 2255 1720 
Q 1963 1553 1622 1553 
Q 1053 1553 659 1965 
Q 266 2378 266 3053 
Q 266 3750 677 4175 
Q 1088 4600 1706 4600 
Q 2153 4600 2523 4359 
Q 2894 4119 3086 3673 
Q 3278 3228 3278 2384 
Q 3278 1506 3087 986 
Q 2897 466 2520 194 
Q 2144 -78 1638 -78 
Q 1100 -78 759 220 
Q 419 519 350 1059 
z
M 2653 3081 
Q 2653 3566 2395 3850 
Q 2138 4134 1775 4134 
Q 1400 4134 1122 3828 
Q 844 3522 844 3034 
Q 844 2597 1108 2323 
Q 1372 2050 1759 2050 
Q 2150 2050 2401 2323 
Q 2653 2597 2653 3081 
z
" transform="scale(0.015625)"/>
     </defs>
     <use xlink:href="#ArialMT-36"/>
     <use xlink:href="#ArialMT-39" x="55.615234"/>
     <use xlink:href="#ArialMT-2e" x="111.230469"/>
     <use xlink:href="#ArialMT-38" x="139.013672"/>
    </g>
   </g>
   <g id="text_13">
    <!-- monomers -->
    <g transform="translate(231.231953 20.88) scale(0.11 -0.11)">
     <defs>
      <path id="ArialMT-6d" d="M 422 0 
L 422 3319 
L 925 3319 
L 925 2853 
Q 1081 3097 1340 3245 
Q 1600 3394 1931 3394 
Q 2300 3394 2536 3241 
Q 2772 3088 2869 2813 
Q 3263 3394 3894 3394 
Q 4388 3394 4653 3120 
Q 4919 2847 4919 2278 
L 4919 0 
L 4359 0 
L 4359 2091 
Q 4359 2428 4304 2576 
Q 4250 2725 4106 2815 
Q 3963 2906 3769 2906 
Q 3419 2906 3187 2673 
Q 2956 2441 2956 1928 
L 2956 0 
L 2394 0 
L 2394 2156 
Q 2394 2531 2256 2718 
Q 2119 2906 1806 2906 
Q 1569 2906 1367 2781 
Q 1166 2656 1075 2415 
Q 984 2175 984 1722 
L 984 0 
L 422 0 
z
" transform="scale(0.015625)"/>
     </defs>
     <use xlink:href="#ArialMT-6d"/>
     <use xlink:href="#ArialMT-6f" x="83.300781"/>
     <use xlink:href="#ArialMT-6e" x="138.916016"/>
     <use xlink:href="#ArialMT-6f" x="194.53125"/>
     <use xlink:href="#ArialMT-6d" x="250.146484"/>
     <use xlink:href="#ArialMT-65" x="333.447266"/>
     <use xlink:href="#ArialMT-72" x="389.0625"/>
     <use xlink:href="#ArialMT-73" x="422.363281"/>
    </g>
   </g>
  </g>
 </g>
 <defs>
  <clipPath id="pe2088fc298">
   <rect x="177.37" y="26.88" width="159.68" height="93.10375"/>
  </clipPath>
 </defs>
</svg>
