<?xml version="1.0" encoding="utf-8" standalone="no"?>
<!DOCTYPE svg PUBLIC "-//W3C//DTD SVG 1.1//EN"
  "http://www.w3.org/Graphics/SVG/1.1/DTD/svg11.dtd">
<svg xmlns:xlink="http://www.w3.org/1999/xlink" width="360pt" height="165.6pt" viewBox="0 0 360 165.6" xmlns="http://www.w3.org/2000/svg" version="1.1">
 <metadata>
  <rdf:RDF xmlns:dc="http://purl.org/dc/elements/1.1/" xmlns:cc="http://creativecommons.org/ns#" xmlns:rdf="http://www.w3.org/1999/02/22-rdf-syntax-ns#">
   <cc:Work>
    <dc:type rdf:resource="http://purl.org/dc/dcmitype/StillImage"/>
    <dc:date>2024-05-06T17:30:45.790575</dc:date>
    <dc:format>image/svg+xml</dc:format>
    <dc:creator>
     <cc:Agent>
      <dc:title>Matplotlib v3.7.1, https://matplotlib.org/</dc:title>
     </cc:Agent>
    </dc:creator>
   </cc:Work>
  </rdf:RDF>
 </metadata>
 <defs>
  <style type="text/css">*{stroke-linejoin: round; stroke-linecap: butt}</style>
 </defs>
 <g id="figure_1">
  <g id="patch_1">
   <path d="M 0 165.6 
L 360 165.6 
L 360 0 
L 0 0 
z
" style="fill: #ffffff"/>
  </g>
  <g id="axes_1">
   <g id="patch_2">
    <path d="M 177.37 119.98375 
L 340.38 119.98375 
L 340.38 26.88 
L 177.37 26.88 
z
" style="fill: #ffffff"/>
   </g>
   <g id="PolyCollection_1">
    <defs>
     <path id="m32af70af4d" d="M 194.233103 -61.615488 
L 194.233103 -60.024634 
L 195.507714 -59.984284 
L 196.782325 -59.950304 
L 198.056936 -59.922815 
L 199.331547 -59.901611 
L 200.606158 -59.886191 
L 201.880769 -59.875805 
L 203.15538 -59.869515 
L 204.429991 -59.866249 
L 205.704602 -59.864852 
L 206.979213 -59.864132 
L 208.253824 -59.862875 
L 209.528435 -59.859871 
L 210.803046 -59.853911 
L 212.077657 -59.843796 
L 213.352268 -59.828339 
L 214.626879 -59.806391 
L 215.90149 -59.776868 
L 217.176101 -59.738797 
L 218.450712 -59.691372 
L 219.725323 -59.634018 
L 220.999934 -59.566444 
L 222.274545 -59.488684 
L 223.549156 -59.40112 
L 224.823767 -59.304463 
L 226.098378 -59.199715 
L 227.372989 -59.088088 
L 228.6476 -58.970896 
L 229.922211 -58.849436 
L 231.196822 -58.724856 
L 232.471433 -58.598028 
L 233.746044 -58.469447 
L 235.020655 -58.339153 
L 236.295266 -58.206696 
L 237.569877 -58.071141 
L 238.844488 -57.931122 
L 240.119099 -57.78493 
L 241.39371 -57.630646 
L 242.668321 -57.46629 
L 243.942932 -57.289994 
L 245.217543 -57.100172 
L 246.492154 -56.895673 
L 247.766765 -56.675919 
L 249.041376 -56.440994 
L 250.315987 -56.191683 
L 251.590598 -55.929461 
L 252.865209 -55.656416 
L 254.13982 -55.375124 
L 255.414431 -55.088475 
L 256.689042 -54.799475 
L 257.963653 -54.511034 
L 259.238264 -54.22577 
L 260.512875 -53.945848 
L 261.787486 -53.672864 
L 263.062097 -53.407797 
L 264.336708 -53.151021 
L 265.611319 -52.90238 
L 266.88593 -52.661313 
L 268.160541 -52.42701 
L 269.435152 -52.198584 
L 270.709763 -51.975228 
L 271.984374 -51.756362 
L 273.258985 -51.541742 
L 274.533596 -51.331539 
L 275.808207 -51.126387 
L 277.082818 -50.927408 
L 278.357429 -50.736225 
L 279.63204 -50.554968 
L 280.906651 -50.386283 
L 282.181262 -50.233328 
L 283.455873 -50.099777 
L 284.730484 -49.989782 
L 286.005095 -49.907918 
L 287.279706 -49.859064 
L 288.554317 -49.848239 
L 289.828928 -49.880362 
L 291.103539 -49.959979 
L 292.37815 -50.090937 
L 293.652761 -50.276058 
L 294.927372 -50.516834 
L 296.201983 -50.813173 
L 297.476594 -51.163232 
L 298.751205 -51.563366 
L 300.025816 -52.008191 
L 301.300427 -52.49078 
L 302.575038 -53.002972 
L 303.849649 -53.535761 
L 305.12426 -54.079756 
L 306.398871 -54.625642 
L 307.673482 -55.164631 
L 308.948093 -55.688849 
L 310.222704 -56.19163 
L 311.497315 -56.667715 
L 312.771926 -57.11333 
L 314.046537 -57.526156 
L 315.321148 -57.90521 
L 316.595759 -58.250652 
L 317.87037 -58.563546 
L 319.144981 -58.845607 
L 320.419592 -59.098951 
L 320.419592 -62.541171 
L 320.419592 -62.541171 
L 319.144981 -62.794515 
L 317.87037 -63.076576 
L 316.595759 -63.38947 
L 315.321148 -63.734912 
L 314.046537 -64.113966 
L 312.771926 -64.526792 
L 311.497315 -64.972407 
L 310.222704 -65.448492 
L 308.948093 -65.951273 
L 307.673482 -66.475491 
L 306.398871 -67.01448 
L 305.12426 -67.560366 
L 303.849649 -68.104361 
L 302.575038 -68.63715 
L 301.300427 -69.149342 
L 300.025816 -69.631931 
L 298.751205 -70.076756 
L 297.476594 -70.47689 
L 296.201983 -70.826949 
L 294.927372 -71.123288 
L 293.652761 -71.364064 
L 292.37815 -71.549185 
L 291.103539 -71.680143 
L 289.828928 -71.75976 
L 288.554317 -71.791883 
L 287.279706 -71.781058 
L 286.005095 -71.732204 
L 284.730484 -71.65034 
L 283.455873 -71.540346 
L 282.181262 -71.406794 
L 280.906651 -71.253839 
L 279.63204 -71.085154 
L 278.357429 -70.903897 
L 277.082818 -70.712714 
L 275.808207 -70.513735 
L 274.533596 -70.308583 
L 273.258985 -70.09838 
L 271.984374 -69.88376 
L 270.709763 -69.664894 
L 269.435152 -69.441538 
L 268.160541 -69.213112 
L 266.88593 -68.97881 
L 265.611319 -68.737742 
L 264.336708 -68.489101 
L 263.062097 -68.232325 
L 261.787486 -67.967258 
L 260.512875 -67.694274 
L 259.238264 -67.414352 
L 257.963653 -67.129089 
L 256.689042 -66.840647 
L 255.414431 -66.551647 
L 254.13982 -66.264998 
L 252.865209 -65.983706 
L 251.590598 -65.710661 
L 250.315987 -65.448439 
L 249.041376 -65.199128 
L 247.766765 -64.964203 
L 246.492154 -64.744449 
L 245.217543 -64.539951 
L 243.942932 -64.350128 
L 242.668321 -64.173832 
L 241.39371 -64.009476 
L 240.119099 -63.855192 
L 238.844488 -63.709 
L 237.569877 -63.568981 
L 236.295266 -63.433427 
L 235.020655 -63.300969 
L 233.746044 -63.170675 
L 232.471433 -63.042094 
L 231.196822 -62.915266 
L 229.922211 -62.790686 
L 228.6476 -62.669226 
L 227.372989 -62.552034 
L 226.098378 -62.440407 
L 224.823767 -62.335659 
L 223.549156 -62.239002 
L 222.274545 -62.151438 
L 220.999934 -62.073678 
L 219.725323 -62.006104 
L 218.450712 -61.94875 
L 217.176101 -61.901325 
L 215.90149 -61.863254 
L 214.626879 -61.833731 
L 213.352268 -61.811783 
L 212.077657 -61.796326 
L 210.803046 -61.786211 
L 209.528435 -61.780251 
L 208.253824 -61.777247 
L 206.979213 -61.77599 
L 205.704602 -61.77527 
L 204.429991 -61.773873 
L 203.15538 -61.770607 
L 201.880769 -61.764317 
L 200.606158 -61.753931 
L 199.331547 -61.738511 
L 198.056936 -61.717307 
L 196.782325 -61.689818 
L 195.507714 -61.655838 
L 194.233103 -61.615488 
z
" style="stroke: #0d3b66; stroke-opacity: 0.3"/>
    </defs>
    <g clip-path="url(#p548fb88f2c)">
     <use xlink:href="#m32af70af4d" x="0" y="165.6" style="fill: #0d3b66; fill-opacity: 0.3; stroke: #0d3b66; stroke-opacity: 0.3"/>
    </g>
   </g>
   <g id="PolyCollection_2">
    <defs>
     <path id="m7ce6f33458" d="M 204.310028 -92.500846 
L 204.310028 -91.835404 
L 205.506027 -91.791144 
L 206.702025 -91.740831 
L 207.898024 -91.683748 
L 209.094023 -91.619357 
L 210.290021 -91.547388 
L 211.48602 -91.467928 
L 212.682018 -91.381474 
L 213.878017 -91.28896 
L 215.074016 -91.191748 
L 216.270014 -91.091564 
L 217.466013 -90.990405 
L 218.662011 -90.890405 
L 219.85801 -90.79368 
L 221.054009 -90.702169 
L 222.250007 -90.61747 
L 223.446006 -90.540715 
L 224.642005 -90.47247 
L 225.838003 -90.41268 
L 227.034002 -90.36067 
L 228.23 -90.31519 
L 229.425999 -90.274506 
L 230.621998 -90.236527 
L 231.817996 -90.198964 
L 233.013995 -90.159491 
L 234.209994 -90.115916 
L 235.405992 -90.06634 
L 236.601991 -90.009288 
L 237.797989 -89.943813 
L 238.993988 -89.869561 
L 240.189987 -89.786791 
L 241.385985 -89.696347 
L 242.581984 -89.599591 
L 243.777983 -89.49828 
L 244.973981 -89.394422 
L 246.16998 -89.290089 
L 247.365978 -89.187226 
L 248.561977 -89.087458 
L 249.757976 -88.991911 
L 250.953974 -88.901071 
L 252.149973 -88.814694 
L 253.345972 -88.73178 
L 254.54197 -88.650613 
L 255.737969 -88.568878 
L 256.933967 -88.483841 
L 258.129966 -88.392577 
L 259.325965 -88.292222 
L 260.521963 -88.180228 
L 261.717962 -88.054585 
L 262.913961 -87.913981 
L 264.109959 -87.757886 
L 265.305958 -87.586531 
L 266.501956 -87.4008 
L 267.697955 -87.202021 
L 268.893954 -86.991709 
L 270.089952 -86.771262 
L 271.285951 -86.541691 
L 272.481949 -86.303389 
L 273.677948 -86.056007 
L 274.873947 -85.798457 
L 276.069945 -85.529051 
L 277.265944 -85.245792 
L 278.461943 -84.946769 
L 279.657941 -84.630647 
L 280.85394 -84.297177 
L 282.049938 -83.947665 
L 283.245937 -83.585362 
L 284.441936 -83.215682 
L 285.637934 -82.84624 
L 286.833933 -82.48667 
L 288.029932 -82.148224 
L 289.22593 -81.843187 
L 290.421929 -81.584144 
L 291.617927 -81.383168 
L 292.813926 -81.251001 
L 294.009925 -81.196303 
L 295.205923 -81.225036 
L 296.401922 -81.340045 
L 297.597921 -81.54085 
L 298.793919 -81.823691 
L 299.989918 -82.181785 
L 301.185916 -82.605788 
L 302.381915 -83.08439 
L 303.577914 -83.605016 
L 304.773912 -84.154545 
L 305.969911 -84.720011 
L 307.16591 -85.289227 
L 308.361908 -85.851297 
L 309.557907 -86.396994 
L 310.753905 -86.918986 
L 311.949904 -87.411927 
L 313.145903 -87.872402 
L 314.341901 -88.298764 
L 315.5379 -88.690884 
L 316.733899 -89.049836 
L 317.929897 -89.377563 
L 319.125896 -89.676537 
L 320.321894 -89.949449 
L 321.517893 -90.198954 
L 322.713892 -90.427465 
L 322.713892 -93.908785 
L 322.713892 -93.908785 
L 321.517893 -94.137296 
L 320.321894 -94.386801 
L 319.125896 -94.659713 
L 317.929897 -94.958687 
L 316.733899 -95.286414 
L 315.5379 -95.645366 
L 314.341901 -96.037486 
L 313.145903 -96.463848 
L 311.949904 -96.924323 
L 310.753905 -97.417264 
L 309.557907 -97.939256 
L 308.361908 -98.484953 
L 307.16591 -99.047023 
L 305.969911 -99.616239 
L 304.773912 -100.181705 
L 303.577914 -100.731234 
L 302.381915 -101.25186 
L 301.185916 -101.730462 
L 299.989918 -102.154465 
L 298.793919 -102.512559 
L 297.597921 -102.7954 
L 296.401922 -102.996205 
L 295.205923 -103.111214 
L 294.009925 -103.139947 
L 292.813926 -103.085249 
L 291.617927 -102.953082 
L 290.421929 -102.752106 
L 289.22593 -102.493063 
L 288.029932 -102.188026 
L 286.833933 -101.84958 
L 285.637934 -101.49001 
L 284.441936 -101.120568 
L 283.245937 -100.750888 
L 282.049938 -100.388585 
L 280.85394 -100.039073 
L 279.657941 -99.705603 
L 278.461943 -99.389481 
L 277.265944 -99.090458 
L 276.069945 -98.807199 
L 274.873947 -98.537793 
L 273.677948 -98.280243 
L 272.481949 -98.032861 
L 271.285951 -97.794559 
L 270.089952 -97.564988 
L 268.893954 -97.344541 
L 267.697955 -97.134229 
L 266.501956 -96.93545 
L 265.305958 -96.749719 
L 264.109959 -96.578364 
L 262.913961 -96.422269 
L 261.717962 -96.281665 
L 260.521963 -96.156022 
L 259.325965 -96.044028 
L 258.129966 -95.943673 
L 256.933967 -95.852409 
L 255.737969 -95.767372 
L 254.54197 -95.685637 
L 253.345972 -95.60447 
L 252.149973 -95.521556 
L 250.953974 -95.435179 
L 249.757976 -95.344339 
L 248.561977 -95.248792 
L 247.365978 -95.149024 
L 246.16998 -95.046161 
L 244.973981 -94.941828 
L 243.777983 -94.83797 
L 242.581984 -94.736659 
L 241.385985 -94.639903 
L 240.189987 -94.549459 
L 238.993988 -94.466689 
L 237.797989 -94.392437 
L 236.601991 -94.326962 
L 235.405992 -94.26991 
L 234.209994 -94.220334 
L 233.013995 -94.176759 
L 231.817996 -94.137286 
L 230.621998 -94.099723 
L 229.425999 -94.061744 
L 228.23 -94.02106 
L 227.034002 -93.97558 
L 225.838003 -93.92357 
L 224.642005 -93.86378 
L 223.446006 -93.795535 
L 222.250007 -93.71878 
L 221.054009 -93.634081 
L 219.85801 -93.54257 
L 218.662011 -93.445845 
L 217.466013 -93.345845 
L 216.270014 -93.244686 
L 215.074016 -93.144502 
L 213.878017 -93.04729 
L 212.682018 -92.954776 
L 211.48602 -92.868322 
L 210.290021 -92.788862 
L 209.094023 -92.716893 
L 207.898024 -92.652502 
L 206.702025 -92.595419 
L 205.506027 -92.545106 
L 204.310028 -92.500846 
z
" style="stroke: #0d3b66; stroke-opacity: 0.3"/>
    </defs>
    <g clip-path="url(#p548fb88f2c)">
     <use xlink:href="#m7ce6f33458" x="0" y="165.6" style="fill: #0d3b66; fill-opacity: 0.3; stroke: #0d3b66; stroke-opacity: 0.3"/>
    </g>
   </g>
   <g id="PolyCollection_3">
    <defs>
     <path id="m7a85e96f0a" d="M 201.286525 -124.432692 
L 201.286525 -122.599685 
L 202.531894 -122.517372 
L 203.777262 -122.43502 
L 205.022631 -122.35324 
L 206.267999 -122.272586 
L 207.513368 -122.193563 
L 208.758736 -122.116635 
L 210.004105 -122.042241 
L 211.249473 -121.970804 
L 212.494842 -121.902734 
L 213.74021 -121.838424 
L 214.985579 -121.77823 
L 216.230948 -121.722435 
L 217.476316 -121.671209 
L 218.721685 -121.624549 
L 219.967053 -121.582226 
L 221.212422 -121.543733 
L 222.45779 -121.508239 
L 223.703159 -121.47457 
L 224.948527 -121.441212 
L 226.193896 -121.406344 
L 227.439264 -121.367896 
L 228.684633 -121.323644 
L 229.930001 -121.27132 
L 231.17537 -121.208743 
L 232.420739 -121.133949 
L 233.666107 -121.045326 
L 234.911476 -120.941719 
L 236.156844 -120.822523 
L 237.402213 -120.68773 
L 238.647581 -120.537945 
L 239.89295 -120.374358 
L 241.138318 -120.198678 
L 242.383687 -120.013032 
L 243.629055 -119.819845 
L 244.874424 -119.621693 
L 246.119792 -119.421164 
L 247.365161 -119.220723 
L 248.610529 -119.022582 
L 249.855898 -118.828613 
L 251.101267 -118.640272 
L 252.346635 -118.458558 
L 253.592004 -118.283999 
L 254.837372 -118.116661 
L 256.082741 -117.956166 
L 257.328109 -117.801725 
L 258.573478 -117.652178 
L 259.818846 -117.506028 
L 261.064215 -117.361481 
L 262.309583 -117.216491 
L 263.554952 -117.068804 
L 264.80032 -116.916027 
L 266.045689 -116.755705 
L 267.291058 -116.585431 
L 268.536426 -116.402969 
L 269.781795 -116.206405 
L 271.027163 -115.99431 
L 272.272532 -115.765902 
L 273.5179 -115.521206 
L 274.763269 -115.261181 
L 276.008637 -114.987811 
L 277.254006 -114.704152 
L 278.499374 -114.414314 
L 279.744743 -114.12339 
L 280.990111 -113.837323 
L 282.23548 -113.562725 
L 283.480849 -113.306649 
L 284.726217 -113.076342 
L 285.971586 -112.878969 
L 287.216954 -112.721344 
L 288.462323 -112.60966 
L 289.707691 -112.549251 
L 290.95306 -112.544367 
L 292.198428 -112.597996 
L 293.443797 -112.711725 
L 294.689165 -112.885646 
L 295.934534 -113.118326 
L 297.179902 -113.406818 
L 298.425271 -113.746754 
L 299.670639 -114.132476 
L 300.916008 -114.55724 
L 302.161377 -115.013462 
L 303.406745 -115.493007 
L 304.652114 -115.987501 
L 305.897482 -116.488654 
L 307.142851 -116.98857 
L 308.388219 -117.480033 
L 309.633588 -117.956743 
L 310.878956 -118.413498 
L 312.124325 -118.846306 
L 313.369693 -119.252419 
L 314.615062 -119.630305 
L 315.86043 -119.979551 
L 317.105799 -120.300707 
L 318.351168 -120.595103 
L 319.596536 -120.864636 
L 320.841905 -121.111548 
L 322.087273 -121.338224 
L 323.332642 -121.54701 
L 324.57801 -121.740064 
L 324.57801 -125.292314 
L 324.57801 -125.292314 
L 323.332642 -125.485368 
L 322.087273 -125.694154 
L 320.841905 -125.92083 
L 319.596536 -126.167742 
L 318.351168 -126.437275 
L 317.105799 -126.731671 
L 315.86043 -127.052827 
L 314.615062 -127.402073 
L 313.369693 -127.779959 
L 312.124325 -128.186072 
L 310.878956 -128.61888 
L 309.633588 -129.075635 
L 308.388219 -129.552345 
L 307.142851 -130.043808 
L 305.897482 -130.543724 
L 304.652114 -131.044877 
L 303.406745 -131.539371 
L 302.161377 -132.018916 
L 300.916008 -132.475138 
L 299.670639 -132.899902 
L 298.425271 -133.285624 
L 297.179902 -133.62556 
L 295.934534 -133.914052 
L 294.689165 -134.146732 
L 293.443797 -134.320653 
L 292.198428 -134.434382 
L 290.95306 -134.488011 
L 289.707691 -134.483127 
L 288.462323 -134.422718 
L 287.216954 -134.311034 
L 285.971586 -134.153408 
L 284.726217 -133.956036 
L 283.480849 -133.725729 
L 282.23548 -133.469653 
L 280.990111 -133.195055 
L 279.744743 -132.908988 
L 278.499374 -132.618064 
L 277.254006 -132.328226 
L 276.008637 -132.044567 
L 274.763269 -131.771197 
L 273.5179 -131.511172 
L 272.272532 -131.266476 
L 271.027163 -131.038068 
L 269.781795 -130.825973 
L 268.536426 -130.629409 
L 267.291058 -130.446947 
L 266.045689 -130.276673 
L 264.80032 -130.116351 
L 263.554952 -129.963574 
L 262.309583 -129.815887 
L 261.064215 -129.670897 
L 259.818846 -129.52635 
L 258.573478 -129.3802 
L 257.328109 -129.230653 
L 256.082741 -129.076212 
L 254.837372 -128.915717 
L 253.592004 -128.748379 
L 252.346635 -128.57382 
L 251.101267 -128.392106 
L 249.855898 -128.203765 
L 248.610529 -128.009796 
L 247.365161 -127.811655 
L 246.119792 -127.611213 
L 244.874424 -127.410685 
L 243.629055 -127.212533 
L 242.383687 -127.019346 
L 241.138318 -126.8337 
L 239.89295 -126.65802 
L 238.647581 -126.494433 
L 237.402213 -126.344648 
L 236.156844 -126.209855 
L 234.911476 -126.090659 
L 233.666107 -125.987052 
L 232.420739 -125.898429 
L 231.17537 -125.823635 
L 229.930001 -125.761058 
L 228.684633 -125.708734 
L 227.439264 -125.664482 
L 226.193896 -125.626034 
L 224.948527 -125.591166 
L 223.703159 -125.557808 
L 222.45779 -125.524139 
L 221.212422 -125.488645 
L 219.967053 -125.450151 
L 218.721685 -125.407829 
L 217.476316 -125.361169 
L 216.230948 -125.309943 
L 214.985579 -125.254148 
L 213.74021 -125.193954 
L 212.494842 -125.129644 
L 211.249473 -125.061574 
L 210.004105 -124.990137 
L 208.758736 -124.915743 
L 207.513368 -124.838815 
L 206.267999 -124.759792 
L 205.022631 -124.679138 
L 203.777262 -124.597358 
L 202.531894 -124.515006 
L 201.286525 -124.432692 
z
" style="stroke: #0d3b66; stroke-opacity: 0.3"/>
    </defs>
    <g clip-path="url(#p548fb88f2c)">
     <use xlink:href="#m7a85e96f0a" x="0" y="165.6" style="fill: #0d3b66; fill-opacity: 0.3; stroke: #0d3b66; stroke-opacity: 0.3"/>
    </g>
   </g>
   <g id="matplotlib.axis_1">
    <g id="xtick_1">
     <g id="line2d_1">
      <defs>
       <path id="me54922a3e5" d="M 0 0 
L 0 3.5 
" style="stroke: #000000; stroke-width: 0.8"/>
      </defs>
      <g>
       <use xlink:href="#me54922a3e5" x="200.657143" y="119.98375" style="stroke: #000000; stroke-width: 0.8"/>
      </g>
     </g>
     <g id="text_1">
      <!-- 20 -->
      <g transform="translate(193.984018 135.573125) scale(0.12 -0.12)">
       <defs>
        <path id="ArialMT-32" d="M 3222 541 
L 3222 0 
L 194 0 
Q 188 203 259 391 
Q 375 700 629 1000 
Q 884 1300 1366 1694 
Q 2113 2306 2375 2664 
Q 2638 3022 2638 3341 
Q 2638 3675 2398 3904 
Q 2159 4134 1775 4134 
Q 1369 4134 1125 3890 
Q 881 3647 878 3216 
L 300 3275 
Q 359 3922 746 4261 
Q 1134 4600 1788 4600 
Q 2447 4600 2831 4234 
Q 3216 3869 3216 3328 
Q 3216 3053 3103 2787 
Q 2991 2522 2730 2228 
Q 2469 1934 1863 1422 
Q 1356 997 1212 845 
Q 1069 694 975 541 
L 3222 541 
z
" transform="scale(0.015625)"/>
        <path id="ArialMT-30" d="M 266 2259 
Q 266 3072 433 3567 
Q 600 4063 929 4331 
Q 1259 4600 1759 4600 
Q 2128 4600 2406 4451 
Q 2684 4303 2865 4023 
Q 3047 3744 3150 3342 
Q 3253 2941 3253 2259 
Q 3253 1453 3087 958 
Q 2922 463 2592 192 
Q 2263 -78 1759 -78 
Q 1097 -78 719 397 
Q 266 969 266 2259 
z
M 844 2259 
Q 844 1131 1108 757 
Q 1372 384 1759 384 
Q 2147 384 2411 759 
Q 2675 1134 2675 2259 
Q 2675 3391 2411 3762 
Q 2147 4134 1753 4134 
Q 1366 4134 1134 3806 
Q 844 3388 844 2259 
z
" transform="scale(0.015625)"/>
       </defs>
       <use xlink:href="#ArialMT-32"/>
       <use xlink:href="#ArialMT-30" x="55.615234"/>
      </g>
     </g>
    </g>
    <g id="xtick_2">
     <g id="line2d_2">
      <g>
       <use xlink:href="#me54922a3e5" x="247.231429" y="119.98375" style="stroke: #000000; stroke-width: 0.8"/>
      </g>
     </g>
     <g id="text_2">
      <!-- 40 -->
      <g transform="translate(240.558304 135.573125) scale(0.12 -0.12)">
       <defs>
        <path id="ArialMT-34" d="M 2069 0 
L 2069 1097 
L 81 1097 
L 81 1613 
L 2172 4581 
L 2631 4581 
L 2631 1613 
L 3250 1613 
L 3250 1097 
L 2631 1097 
L 2631 0 
L 2069 0 
z
M 2069 1613 
L 2069 3678 
L 634 1613 
L 2069 1613 
z
" transform="scale(0.015625)"/>
       </defs>
       <use xlink:href="#ArialMT-34"/>
       <use xlink:href="#ArialMT-30" x="55.615234"/>
      </g>
     </g>
    </g>
    <g id="xtick_3">
     <g id="line2d_3">
      <g>
       <use xlink:href="#me54922a3e5" x="293.805714" y="119.98375" style="stroke: #000000; stroke-width: 0.8"/>
      </g>
     </g>
     <g id="text_3">
      <!-- 60 -->
      <g transform="translate(287.132589 135.573125) scale(0.12 -0.12)">
       <defs>
        <path id="ArialMT-36" d="M 3184 3459 
L 2625 3416 
Q 2550 3747 2413 3897 
Q 2184 4138 1850 4138 
Q 1581 4138 1378 3988 
Q 1113 3794 959 3422 
Q 806 3050 800 2363 
Q 1003 2672 1297 2822 
Q 1591 2972 1913 2972 
Q 2475 2972 2870 2558 
Q 3266 2144 3266 1488 
Q 3266 1056 3080 686 
Q 2894 316 2569 119 
Q 2244 -78 1831 -78 
Q 1128 -78 684 439 
Q 241 956 241 2144 
Q 241 3472 731 4075 
Q 1159 4600 1884 4600 
Q 2425 4600 2770 4297 
Q 3116 3994 3184 3459 
z
M 888 1484 
Q 888 1194 1011 928 
Q 1134 663 1356 523 
Q 1578 384 1822 384 
Q 2178 384 2434 671 
Q 2691 959 2691 1453 
Q 2691 1928 2437 2201 
Q 2184 2475 1800 2475 
Q 1419 2475 1153 2201 
Q 888 1928 888 1484 
z
" transform="scale(0.015625)"/>
       </defs>
       <use xlink:href="#ArialMT-36"/>
       <use xlink:href="#ArialMT-30" x="55.615234"/>
      </g>
     </g>
    </g>
    <g id="xtick_4">
     <g id="line2d_4">
      <g>
       <use xlink:href="#me54922a3e5" x="340.38" y="119.98375" style="stroke: #000000; stroke-width: 0.8"/>
      </g>
     </g>
     <g id="text_4">
      <!-- 80 -->
      <g transform="translate(333.706875 135.573125) scale(0.12 -0.12)">
       <defs>
        <path id="ArialMT-38" d="M 1131 2484 
Q 781 2613 612 2850 
Q 444 3088 444 3419 
Q 444 3919 803 4259 
Q 1163 4600 1759 4600 
Q 2359 4600 2725 4251 
Q 3091 3903 3091 3403 
Q 3091 3084 2923 2848 
Q 2756 2613 2416 2484 
Q 2838 2347 3058 2040 
Q 3278 1734 3278 1309 
Q 3278 722 2862 322 
Q 2447 -78 1769 -78 
Q 1091 -78 675 323 
Q 259 725 259 1325 
Q 259 1772 486 2073 
Q 713 2375 1131 2484 
z
M 1019 3438 
Q 1019 3113 1228 2906 
Q 1438 2700 1772 2700 
Q 2097 2700 2305 2904 
Q 2513 3109 2513 3406 
Q 2513 3716 2298 3927 
Q 2084 4138 1766 4138 
Q 1444 4138 1231 3931 
Q 1019 3725 1019 3438 
z
M 838 1322 
Q 838 1081 952 856 
Q 1066 631 1291 507 
Q 1516 384 1775 384 
Q 2178 384 2440 643 
Q 2703 903 2703 1303 
Q 2703 1709 2433 1975 
Q 2163 2241 1756 2241 
Q 1359 2241 1098 1978 
Q 838 1716 838 1322 
z
" transform="scale(0.015625)"/>
       </defs>
       <use xlink:href="#ArialMT-38"/>
       <use xlink:href="#ArialMT-30" x="55.615234"/>
      </g>
     </g>
    </g>
    <g id="text_5">
     <!-- sequence identity [%] -->
     <g transform="translate(201.843125 150.69375) scale(0.12 -0.12)">
      <defs>
       <path id="ArialMT-73" d="M 197 991 
L 753 1078 
Q 800 744 1014 566 
Q 1228 388 1613 388 
Q 2000 388 2187 545 
Q 2375 703 2375 916 
Q 2375 1106 2209 1216 
Q 2094 1291 1634 1406 
Q 1016 1563 777 1677 
Q 538 1791 414 1992 
Q 291 2194 291 2438 
Q 291 2659 392 2848 
Q 494 3038 669 3163 
Q 800 3259 1026 3326 
Q 1253 3394 1513 3394 
Q 1903 3394 2198 3281 
Q 2494 3169 2634 2976 
Q 2775 2784 2828 2463 
L 2278 2388 
Q 2241 2644 2061 2787 
Q 1881 2931 1553 2931 
Q 1166 2931 1000 2803 
Q 834 2675 834 2503 
Q 834 2394 903 2306 
Q 972 2216 1119 2156 
Q 1203 2125 1616 2013 
Q 2213 1853 2448 1751 
Q 2684 1650 2818 1456 
Q 2953 1263 2953 975 
Q 2953 694 2789 445 
Q 2625 197 2315 61 
Q 2006 -75 1616 -75 
Q 969 -75 630 194 
Q 291 463 197 991 
z
" transform="scale(0.015625)"/>
       <path id="ArialMT-65" d="M 2694 1069 
L 3275 997 
Q 3138 488 2766 206 
Q 2394 -75 1816 -75 
Q 1088 -75 661 373 
Q 234 822 234 1631 
Q 234 2469 665 2931 
Q 1097 3394 1784 3394 
Q 2450 3394 2872 2941 
Q 3294 2488 3294 1666 
Q 3294 1616 3291 1516 
L 816 1516 
Q 847 969 1125 678 
Q 1403 388 1819 388 
Q 2128 388 2347 550 
Q 2566 713 2694 1069 
z
M 847 1978 
L 2700 1978 
Q 2663 2397 2488 2606 
Q 2219 2931 1791 2931 
Q 1403 2931 1139 2672 
Q 875 2413 847 1978 
z
" transform="scale(0.015625)"/>
       <path id="ArialMT-71" d="M 2538 -1272 
L 2538 353 
Q 2406 169 2170 47 
Q 1934 -75 1669 -75 
Q 1078 -75 651 397 
Q 225 869 225 1691 
Q 225 2191 398 2587 
Q 572 2984 901 3189 
Q 1231 3394 1625 3394 
Q 2241 3394 2594 2875 
L 2594 3319 
L 3100 3319 
L 3100 -1272 
L 2538 -1272 
z
M 803 1669 
Q 803 1028 1072 708 
Q 1341 388 1716 388 
Q 2075 388 2334 692 
Q 2594 997 2594 1619 
Q 2594 2281 2320 2615 
Q 2047 2950 1678 2950 
Q 1313 2950 1058 2639 
Q 803 2328 803 1669 
z
" transform="scale(0.015625)"/>
       <path id="ArialMT-75" d="M 2597 0 
L 2597 488 
Q 2209 -75 1544 -75 
Q 1250 -75 995 37 
Q 741 150 617 320 
Q 494 491 444 738 
Q 409 903 409 1263 
L 409 3319 
L 972 3319 
L 972 1478 
Q 972 1038 1006 884 
Q 1059 663 1231 536 
Q 1403 409 1656 409 
Q 1909 409 2131 539 
Q 2353 669 2445 892 
Q 2538 1116 2538 1541 
L 2538 3319 
L 3100 3319 
L 3100 0 
L 2597 0 
z
" transform="scale(0.015625)"/>
       <path id="ArialMT-6e" d="M 422 0 
L 422 3319 
L 928 3319 
L 928 2847 
Q 1294 3394 1984 3394 
Q 2284 3394 2536 3286 
Q 2788 3178 2913 3003 
Q 3038 2828 3088 2588 
Q 3119 2431 3119 2041 
L 3119 0 
L 2556 0 
L 2556 2019 
Q 2556 2363 2490 2533 
Q 2425 2703 2258 2804 
Q 2091 2906 1866 2906 
Q 1506 2906 1245 2678 
Q 984 2450 984 1813 
L 984 0 
L 422 0 
z
" transform="scale(0.015625)"/>
       <path id="ArialMT-63" d="M 2588 1216 
L 3141 1144 
Q 3050 572 2676 248 
Q 2303 -75 1759 -75 
Q 1078 -75 664 370 
Q 250 816 250 1647 
Q 250 2184 428 2587 
Q 606 2991 970 3192 
Q 1334 3394 1763 3394 
Q 2303 3394 2647 3120 
Q 2991 2847 3088 2344 
L 2541 2259 
Q 2463 2594 2264 2762 
Q 2066 2931 1784 2931 
Q 1359 2931 1093 2626 
Q 828 2322 828 1663 
Q 828 994 1084 691 
Q 1341 388 1753 388 
Q 2084 388 2306 591 
Q 2528 794 2588 1216 
z
" transform="scale(0.015625)"/>
       <path id="ArialMT-20" transform="scale(0.015625)"/>
       <path id="ArialMT-69" d="M 425 3934 
L 425 4581 
L 988 4581 
L 988 3934 
L 425 3934 
z
M 425 0 
L 425 3319 
L 988 3319 
L 988 0 
L 425 0 
z
" transform="scale(0.015625)"/>
       <path id="ArialMT-64" d="M 2575 0 
L 2575 419 
Q 2259 -75 1647 -75 
Q 1250 -75 917 144 
Q 584 363 401 755 
Q 219 1147 219 1656 
Q 219 2153 384 2558 
Q 550 2963 881 3178 
Q 1213 3394 1622 3394 
Q 1922 3394 2156 3267 
Q 2391 3141 2538 2938 
L 2538 4581 
L 3097 4581 
L 3097 0 
L 2575 0 
z
M 797 1656 
Q 797 1019 1065 703 
Q 1334 388 1700 388 
Q 2069 388 2326 689 
Q 2584 991 2584 1609 
Q 2584 2291 2321 2609 
Q 2059 2928 1675 2928 
Q 1300 2928 1048 2622 
Q 797 2316 797 1656 
z
" transform="scale(0.015625)"/>
       <path id="ArialMT-74" d="M 1650 503 
L 1731 6 
Q 1494 -44 1306 -44 
Q 1000 -44 831 53 
Q 663 150 594 308 
Q 525 466 525 972 
L 525 2881 
L 113 2881 
L 113 3319 
L 525 3319 
L 525 4141 
L 1084 4478 
L 1084 3319 
L 1650 3319 
L 1650 2881 
L 1084 2881 
L 1084 941 
Q 1084 700 1114 631 
Q 1144 563 1211 522 
Q 1278 481 1403 481 
Q 1497 481 1650 503 
z
" transform="scale(0.015625)"/>
       <path id="ArialMT-79" d="M 397 -1278 
L 334 -750 
Q 519 -800 656 -800 
Q 844 -800 956 -737 
Q 1069 -675 1141 -563 
Q 1194 -478 1313 -144 
Q 1328 -97 1363 -6 
L 103 3319 
L 709 3319 
L 1400 1397 
Q 1534 1031 1641 628 
Q 1738 1016 1872 1384 
L 2581 3319 
L 3144 3319 
L 1881 -56 
Q 1678 -603 1566 -809 
Q 1416 -1088 1222 -1217 
Q 1028 -1347 759 -1347 
Q 597 -1347 397 -1278 
z
" transform="scale(0.015625)"/>
       <path id="ArialMT-5b" d="M 434 -1272 
L 434 4581 
L 1675 4581 
L 1675 4116 
L 997 4116 
L 997 -806 
L 1675 -806 
L 1675 -1272 
L 434 -1272 
z
" transform="scale(0.015625)"/>
       <path id="ArialMT-25" d="M 372 3481 
Q 372 3972 619 4315 
Q 866 4659 1334 4659 
Q 1766 4659 2048 4351 
Q 2331 4044 2331 3447 
Q 2331 2866 2045 2552 
Q 1759 2238 1341 2238 
Q 925 2238 648 2547 
Q 372 2856 372 3481 
z
M 1350 4272 
Q 1141 4272 1002 4090 
Q 863 3909 863 3425 
Q 863 2984 1003 2804 
Q 1144 2625 1350 2625 
Q 1563 2625 1702 2806 
Q 1841 2988 1841 3469 
Q 1841 3913 1700 4092 
Q 1559 4272 1350 4272 
z
M 1353 -169 
L 3859 4659 
L 4316 4659 
L 1819 -169 
L 1353 -169 
z
M 3334 1075 
Q 3334 1569 3581 1911 
Q 3828 2253 4300 2253 
Q 4731 2253 5014 1945 
Q 5297 1638 5297 1041 
Q 5297 459 5011 145 
Q 4725 -169 4303 -169 
Q 3888 -169 3611 142 
Q 3334 453 3334 1075 
z
M 4316 1866 
Q 4103 1866 3964 1684 
Q 3825 1503 3825 1019 
Q 3825 581 3965 400 
Q 4106 219 4313 219 
Q 4528 219 4667 400 
Q 4806 581 4806 1063 
Q 4806 1506 4665 1686 
Q 4525 1866 4316 1866 
z
" transform="scale(0.015625)"/>
       <path id="ArialMT-5d" d="M 1363 -1272 
L 122 -1272 
L 122 -806 
L 800 -806 
L 800 4116 
L 122 4116 
L 122 4581 
L 1363 4581 
L 1363 -1272 
z
" transform="scale(0.015625)"/>
      </defs>
      <use xlink:href="#ArialMT-73"/>
      <use xlink:href="#ArialMT-65" x="50"/>
      <use xlink:href="#ArialMT-71" x="105.615234"/>
      <use xlink:href="#ArialMT-75" x="161.230469"/>
      <use xlink:href="#ArialMT-65" x="216.845703"/>
      <use xlink:href="#ArialMT-6e" x="272.460938"/>
      <use xlink:href="#ArialMT-63" x="328.076172"/>
      <use xlink:href="#ArialMT-65" x="378.076172"/>
      <use xlink:href="#ArialMT-20" x="433.691406"/>
      <use xlink:href="#ArialMT-69" x="461.474609"/>
      <use xlink:href="#ArialMT-64" x="483.691406"/>
      <use xlink:href="#ArialMT-65" x="539.306641"/>
      <use xlink:href="#ArialMT-6e" x="594.921875"/>
      <use xlink:href="#ArialMT-74" x="650.537109"/>
      <use xlink:href="#ArialMT-69" x="678.320312"/>
      <use xlink:href="#ArialMT-74" x="700.537109"/>
      <use xlink:href="#ArialMT-79" x="728.320312"/>
      <use xlink:href="#ArialMT-20" x="778.320312"/>
      <use xlink:href="#ArialMT-5b" x="806.103516"/>
      <use xlink:href="#ArialMT-25" x="833.886719"/>
      <use xlink:href="#ArialMT-5d" x="922.802734"/>
     </g>
    </g>
   </g>
   <g id="matplotlib.axis_2">
    <g id="ytick_1">
     <g id="line2d_5">
      <defs>
       <path id="m5ca277beb1" d="M 0 0 
L -3.5 0 
" style="stroke: #000000; stroke-width: 0.8"/>
      </defs>
      <g>
       <use xlink:href="#m5ca277beb1" x="177.37" y="104.779939" style="stroke: #000000; stroke-width: 0.8"/>
      </g>
     </g>
     <g id="text_6">
      <!-- ProteinMPNN vs ESM-IF1 -->
      <g transform="translate(31.014375 109.074626) scale(0.12 -0.12)">
       <defs>
        <path id="ArialMT-50" d="M 494 0 
L 494 4581 
L 2222 4581 
Q 2678 4581 2919 4538 
Q 3256 4481 3484 4323 
Q 3713 4166 3852 3881 
Q 3991 3597 3991 3256 
Q 3991 2672 3619 2267 
Q 3247 1863 2275 1863 
L 1100 1863 
L 1100 0 
L 494 0 
z
M 1100 2403 
L 2284 2403 
Q 2872 2403 3119 2622 
Q 3366 2841 3366 3238 
Q 3366 3525 3220 3729 
Q 3075 3934 2838 4000 
Q 2684 4041 2272 4041 
L 1100 4041 
L 1100 2403 
z
" transform="scale(0.015625)"/>
        <path id="ArialMT-72" d="M 416 0 
L 416 3319 
L 922 3319 
L 922 2816 
Q 1116 3169 1280 3281 
Q 1444 3394 1641 3394 
Q 1925 3394 2219 3213 
L 2025 2691 
Q 1819 2813 1613 2813 
Q 1428 2813 1281 2702 
Q 1134 2591 1072 2394 
Q 978 2094 978 1738 
L 978 0 
L 416 0 
z
" transform="scale(0.015625)"/>
        <path id="ArialMT-6f" d="M 213 1659 
Q 213 2581 725 3025 
Q 1153 3394 1769 3394 
Q 2453 3394 2887 2945 
Q 3322 2497 3322 1706 
Q 3322 1066 3130 698 
Q 2938 331 2570 128 
Q 2203 -75 1769 -75 
Q 1072 -75 642 372 
Q 213 819 213 1659 
z
M 791 1659 
Q 791 1022 1069 705 
Q 1347 388 1769 388 
Q 2188 388 2466 706 
Q 2744 1025 2744 1678 
Q 2744 2294 2464 2611 
Q 2184 2928 1769 2928 
Q 1347 2928 1069 2612 
Q 791 2297 791 1659 
z
" transform="scale(0.015625)"/>
        <path id="ArialMT-4d" d="M 475 0 
L 475 4581 
L 1388 4581 
L 2472 1338 
Q 2622 884 2691 659 
Q 2769 909 2934 1394 
L 4031 4581 
L 4847 4581 
L 4847 0 
L 4263 0 
L 4263 3834 
L 2931 0 
L 2384 0 
L 1059 3900 
L 1059 0 
L 475 0 
z
" transform="scale(0.015625)"/>
        <path id="ArialMT-4e" d="M 488 0 
L 488 4581 
L 1109 4581 
L 3516 984 
L 3516 4581 
L 4097 4581 
L 4097 0 
L 3475 0 
L 1069 3600 
L 1069 0 
L 488 0 
z
" transform="scale(0.015625)"/>
        <path id="ArialMT-76" d="M 1344 0 
L 81 3319 
L 675 3319 
L 1388 1331 
Q 1503 1009 1600 663 
Q 1675 925 1809 1294 
L 2547 3319 
L 3125 3319 
L 1869 0 
L 1344 0 
z
" transform="scale(0.015625)"/>
        <path id="ArialMT-45" d="M 506 0 
L 506 4581 
L 3819 4581 
L 3819 4041 
L 1113 4041 
L 1113 2638 
L 3647 2638 
L 3647 2100 
L 1113 2100 
L 1113 541 
L 3925 541 
L 3925 0 
L 506 0 
z
" transform="scale(0.015625)"/>
        <path id="ArialMT-53" d="M 288 1472 
L 859 1522 
Q 900 1178 1048 958 
Q 1197 738 1509 602 
Q 1822 466 2213 466 
Q 2559 466 2825 569 
Q 3091 672 3220 851 
Q 3350 1031 3350 1244 
Q 3350 1459 3225 1620 
Q 3100 1781 2813 1891 
Q 2628 1963 1997 2114 
Q 1366 2266 1113 2400 
Q 784 2572 623 2826 
Q 463 3081 463 3397 
Q 463 3744 659 4045 
Q 856 4347 1234 4503 
Q 1613 4659 2075 4659 
Q 2584 4659 2973 4495 
Q 3363 4331 3572 4012 
Q 3781 3694 3797 3291 
L 3216 3247 
Q 3169 3681 2898 3903 
Q 2628 4125 2100 4125 
Q 1550 4125 1298 3923 
Q 1047 3722 1047 3438 
Q 1047 3191 1225 3031 
Q 1400 2872 2139 2705 
Q 2878 2538 3153 2413 
Q 3553 2228 3743 1945 
Q 3934 1663 3934 1294 
Q 3934 928 3725 604 
Q 3516 281 3123 101 
Q 2731 -78 2241 -78 
Q 1619 -78 1198 103 
Q 778 284 539 648 
Q 300 1013 288 1472 
z
" transform="scale(0.015625)"/>
        <path id="ArialMT-2d" d="M 203 1375 
L 203 1941 
L 1931 1941 
L 1931 1375 
L 203 1375 
z
" transform="scale(0.015625)"/>
        <path id="ArialMT-49" d="M 597 0 
L 597 4581 
L 1203 4581 
L 1203 0 
L 597 0 
z
" transform="scale(0.015625)"/>
        <path id="ArialMT-46" d="M 525 0 
L 525 4581 
L 3616 4581 
L 3616 4041 
L 1131 4041 
L 1131 2622 
L 3281 2622 
L 3281 2081 
L 1131 2081 
L 1131 0 
L 525 0 
z
" transform="scale(0.015625)"/>
        <path id="ArialMT-31" d="M 2384 0 
L 1822 0 
L 1822 3584 
Q 1619 3391 1289 3197 
Q 959 3003 697 2906 
L 697 3450 
Q 1169 3672 1522 3987 
Q 1875 4303 2022 4600 
L 2384 4600 
L 2384 0 
z
" transform="scale(0.015625)"/>
       </defs>
       <use xlink:href="#ArialMT-50"/>
       <use xlink:href="#ArialMT-72" x="66.699219"/>
       <use xlink:href="#ArialMT-6f" x="100"/>
       <use xlink:href="#ArialMT-74" x="155.615234"/>
       <use xlink:href="#ArialMT-65" x="183.398438"/>
       <use xlink:href="#ArialMT-69" x="239.013672"/>
       <use xlink:href="#ArialMT-6e" x="261.230469"/>
       <use xlink:href="#ArialMT-4d" x="316.845703"/>
       <use xlink:href="#ArialMT-50" x="400.146484"/>
       <use xlink:href="#ArialMT-4e" x="466.845703"/>
       <use xlink:href="#ArialMT-4e" x="539.0625"/>
       <use xlink:href="#ArialMT-20" x="611.279297"/>
       <use xlink:href="#ArialMT-76" x="639.0625"/>
       <use xlink:href="#ArialMT-73" x="689.0625"/>
       <use xlink:href="#ArialMT-20" x="739.0625"/>
       <use xlink:href="#ArialMT-45" x="766.845703"/>
       <use xlink:href="#ArialMT-53" x="833.544922"/>
       <use xlink:href="#ArialMT-4d" x="900.244141"/>
       <use xlink:href="#ArialMT-2d" x="983.544922"/>
       <use xlink:href="#ArialMT-49" x="1016.845703"/>
       <use xlink:href="#ArialMT-46" x="1044.628906"/>
       <use xlink:href="#ArialMT-31" x="1105.712891"/>
      </g>
     </g>
    </g>
    <g id="ytick_2">
     <g id="line2d_6">
      <g>
       <use xlink:href="#m5ca277beb1" x="177.37" y="73.431875" style="stroke: #000000; stroke-width: 0.8"/>
      </g>
     </g>
     <g id="text_7">
      <!-- CARBonAra vs ESM-IF1 -->
      <g transform="translate(39.005625 77.726563) scale(0.12 -0.12)">
       <defs>
        <path id="ArialMT-43" d="M 3763 1606 
L 4369 1453 
Q 4178 706 3683 314 
Q 3188 -78 2472 -78 
Q 1731 -78 1267 223 
Q 803 525 561 1097 
Q 319 1669 319 2325 
Q 319 3041 592 3573 
Q 866 4106 1370 4382 
Q 1875 4659 2481 4659 
Q 3169 4659 3637 4309 
Q 4106 3959 4291 3325 
L 3694 3184 
Q 3534 3684 3231 3912 
Q 2928 4141 2469 4141 
Q 1941 4141 1586 3887 
Q 1231 3634 1087 3207 
Q 944 2781 944 2328 
Q 944 1744 1114 1308 
Q 1284 872 1643 656 
Q 2003 441 2422 441 
Q 2931 441 3284 734 
Q 3638 1028 3763 1606 
z
" transform="scale(0.015625)"/>
        <path id="ArialMT-41" d="M -9 0 
L 1750 4581 
L 2403 4581 
L 4278 0 
L 3588 0 
L 3053 1388 
L 1138 1388 
L 634 0 
L -9 0 
z
M 1313 1881 
L 2866 1881 
L 2388 3150 
Q 2169 3728 2063 4100 
Q 1975 3659 1816 3225 
L 1313 1881 
z
" transform="scale(0.015625)"/>
        <path id="ArialMT-52" d="M 503 0 
L 503 4581 
L 2534 4581 
Q 3147 4581 3465 4457 
Q 3784 4334 3975 4021 
Q 4166 3709 4166 3331 
Q 4166 2844 3850 2509 
Q 3534 2175 2875 2084 
Q 3116 1969 3241 1856 
Q 3506 1613 3744 1247 
L 4541 0 
L 3778 0 
L 3172 953 
Q 2906 1366 2734 1584 
Q 2563 1803 2427 1890 
Q 2291 1978 2150 2013 
Q 2047 2034 1813 2034 
L 1109 2034 
L 1109 0 
L 503 0 
z
M 1109 2559 
L 2413 2559 
Q 2828 2559 3062 2645 
Q 3297 2731 3419 2920 
Q 3541 3109 3541 3331 
Q 3541 3656 3305 3865 
Q 3069 4075 2559 4075 
L 1109 4075 
L 1109 2559 
z
" transform="scale(0.015625)"/>
        <path id="ArialMT-42" d="M 469 0 
L 469 4581 
L 2188 4581 
Q 2713 4581 3030 4442 
Q 3347 4303 3526 4014 
Q 3706 3725 3706 3409 
Q 3706 3116 3547 2856 
Q 3388 2597 3066 2438 
Q 3481 2316 3704 2022 
Q 3928 1728 3928 1328 
Q 3928 1006 3792 729 
Q 3656 453 3456 303 
Q 3256 153 2954 76 
Q 2653 0 2216 0 
L 469 0 
z
M 1075 2656 
L 2066 2656 
Q 2469 2656 2644 2709 
Q 2875 2778 2992 2937 
Q 3109 3097 3109 3338 
Q 3109 3566 3000 3739 
Q 2891 3913 2687 3977 
Q 2484 4041 1991 4041 
L 1075 4041 
L 1075 2656 
z
M 1075 541 
L 2216 541 
Q 2509 541 2628 563 
Q 2838 600 2978 687 
Q 3119 775 3209 942 
Q 3300 1109 3300 1328 
Q 3300 1584 3169 1773 
Q 3038 1963 2805 2039 
Q 2572 2116 2134 2116 
L 1075 2116 
L 1075 541 
z
" transform="scale(0.015625)"/>
        <path id="ArialMT-61" d="M 2588 409 
Q 2275 144 1986 34 
Q 1697 -75 1366 -75 
Q 819 -75 525 192 
Q 231 459 231 875 
Q 231 1119 342 1320 
Q 453 1522 633 1644 
Q 813 1766 1038 1828 
Q 1203 1872 1538 1913 
Q 2219 1994 2541 2106 
Q 2544 2222 2544 2253 
Q 2544 2597 2384 2738 
Q 2169 2928 1744 2928 
Q 1347 2928 1158 2789 
Q 969 2650 878 2297 
L 328 2372 
Q 403 2725 575 2942 
Q 747 3159 1072 3276 
Q 1397 3394 1825 3394 
Q 2250 3394 2515 3294 
Q 2781 3194 2906 3042 
Q 3031 2891 3081 2659 
Q 3109 2516 3109 2141 
L 3109 1391 
Q 3109 606 3145 398 
Q 3181 191 3288 0 
L 2700 0 
Q 2613 175 2588 409 
z
M 2541 1666 
Q 2234 1541 1622 1453 
Q 1275 1403 1131 1340 
Q 988 1278 909 1158 
Q 831 1038 831 891 
Q 831 666 1001 516 
Q 1172 366 1500 366 
Q 1825 366 2078 508 
Q 2331 650 2450 897 
Q 2541 1088 2541 1459 
L 2541 1666 
z
" transform="scale(0.015625)"/>
       </defs>
       <use xlink:href="#ArialMT-43"/>
       <use xlink:href="#ArialMT-41" x="72.216797"/>
       <use xlink:href="#ArialMT-52" x="138.916016"/>
       <use xlink:href="#ArialMT-42" x="211.132812"/>
       <use xlink:href="#ArialMT-6f" x="277.832031"/>
       <use xlink:href="#ArialMT-6e" x="333.447266"/>
       <use xlink:href="#ArialMT-41" x="389.0625"/>
       <use xlink:href="#ArialMT-72" x="455.761719"/>
       <use xlink:href="#ArialMT-61" x="489.0625"/>
       <use xlink:href="#ArialMT-20" x="544.677734"/>
       <use xlink:href="#ArialMT-76" x="572.460938"/>
       <use xlink:href="#ArialMT-73" x="622.460938"/>
       <use xlink:href="#ArialMT-20" x="672.460938"/>
       <use xlink:href="#ArialMT-45" x="700.244141"/>
       <use xlink:href="#ArialMT-53" x="766.943359"/>
       <use xlink:href="#ArialMT-4d" x="833.642578"/>
       <use xlink:href="#ArialMT-2d" x="916.943359"/>
       <use xlink:href="#ArialMT-49" x="950.244141"/>
       <use xlink:href="#ArialMT-46" x="978.027344"/>
       <use xlink:href="#ArialMT-31" x="1039.111328"/>
      </g>
     </g>
    </g>
    <g id="ytick_3">
     <g id="line2d_7">
      <g>
       <use xlink:href="#m5ca277beb1" x="177.37" y="42.083811" style="stroke: #000000; stroke-width: 0.8"/>
      </g>
     </g>
     <g id="text_8">
      <!-- CARBonAra vs ProteinMPNN -->
      <g transform="translate(12.99 46.378499) scale(0.12 -0.12)">
       <use xlink:href="#ArialMT-43"/>
       <use xlink:href="#ArialMT-41" x="72.216797"/>
       <use xlink:href="#ArialMT-52" x="138.916016"/>
       <use xlink:href="#ArialMT-42" x="211.132812"/>
       <use xlink:href="#ArialMT-6f" x="277.832031"/>
       <use xlink:href="#ArialMT-6e" x="333.447266"/>
       <use xlink:href="#ArialMT-41" x="389.0625"/>
       <use xlink:href="#ArialMT-72" x="455.761719"/>
       <use xlink:href="#ArialMT-61" x="489.0625"/>
       <use xlink:href="#ArialMT-20" x="544.677734"/>
       <use xlink:href="#ArialMT-76" x="572.460938"/>
       <use xlink:href="#ArialMT-73" x="622.460938"/>
       <use xlink:href="#ArialMT-20" x="672.460938"/>
       <use xlink:href="#ArialMT-50" x="700.244141"/>
       <use xlink:href="#ArialMT-72" x="766.943359"/>
       <use xlink:href="#ArialMT-6f" x="800.244141"/>
       <use xlink:href="#ArialMT-74" x="855.859375"/>
       <use xlink:href="#ArialMT-65" x="883.642578"/>
       <use xlink:href="#ArialMT-69" x="939.257812"/>
       <use xlink:href="#ArialMT-6e" x="961.474609"/>
       <use xlink:href="#ArialMT-4d" x="1017.089844"/>
       <use xlink:href="#ArialMT-50" x="1100.390625"/>
       <use xlink:href="#ArialMT-4e" x="1167.089844"/>
       <use xlink:href="#ArialMT-4e" x="1239.306641"/>
      </g>
     </g>
    </g>
   </g>
   <g id="LineCollection_1">
    <path d="M 280.531471 110.26585 
L 280.531471 99.294028 
" clip-path="url(#p548fb88f2c)" style="fill: none; stroke: #0d3b66; stroke-width: 1.5"/>
   </g>
   <g id="LineCollection_2">
    <path d="M 288.655387 78.917786 
L 288.655387 67.945964 
" clip-path="url(#p548fb88f2c)" style="fill: none; stroke: #0d3b66; stroke-width: 1.5"/>
   </g>
   <g id="LineCollection_3">
    <path d="M 283.069685 47.569722 
L 283.069685 36.5979 
" clip-path="url(#p548fb88f2c)" style="fill: none; stroke: #0d3b66; stroke-width: 1.5"/>
   </g>
   <g id="patch_3">
    <path d="M 177.37 119.98375 
L 177.37 26.88 
" style="fill: none; stroke: #000000; stroke-width: 0.8; stroke-linejoin: miter; stroke-linecap: square"/>
   </g>
   <g id="patch_4">
    <path d="M 340.38 119.98375 
L 340.38 26.88 
" style="fill: none; stroke: #000000; stroke-width: 0.8; stroke-linejoin: miter; stroke-linecap: square"/>
   </g>
   <g id="patch_5">
    <path d="M 177.37 119.98375 
L 340.38 119.98375 
" style="fill: none; stroke: #000000; stroke-width: 0.8; stroke-linejoin: miter; stroke-linecap: square"/>
   </g>
   <g id="patch_6">
    <path d="M 177.37 26.88 
L 340.38 26.88 
" style="fill: none; stroke: #000000; stroke-width: 0.8; stroke-linejoin: miter; stroke-linecap: square"/>
   </g>
   <g id="text_9">
    <!-- 54.3 -->
    <g transform="translate(282.860185 108.716736) scale(0.11 -0.11)">
     <defs>
      <path id="ArialMT-35" d="M 266 1200 
L 856 1250 
Q 922 819 1161 601 
Q 1400 384 1738 384 
Q 2144 384 2425 690 
Q 2706 997 2706 1503 
Q 2706 1984 2436 2262 
Q 2166 2541 1728 2541 
Q 1456 2541 1237 2417 
Q 1019 2294 894 2097 
L 366 2166 
L 809 4519 
L 3088 4519 
L 3088 3981 
L 1259 3981 
L 1013 2750 
Q 1425 3038 1878 3038 
Q 2478 3038 2890 2622 
Q 3303 2206 3303 1553 
Q 3303 931 2941 478 
Q 2500 -78 1738 -78 
Q 1113 -78 717 272 
Q 322 622 266 1200 
z
" transform="scale(0.015625)"/>
      <path id="ArialMT-2e" d="M 581 0 
L 581 641 
L 1222 641 
L 1222 0 
L 581 0 
z
" transform="scale(0.015625)"/>
      <path id="ArialMT-33" d="M 269 1209 
L 831 1284 
Q 928 806 1161 595 
Q 1394 384 1728 384 
Q 2125 384 2398 659 
Q 2672 934 2672 1341 
Q 2672 1728 2419 1979 
Q 2166 2231 1775 2231 
Q 1616 2231 1378 2169 
L 1441 2663 
Q 1497 2656 1531 2656 
Q 1891 2656 2178 2843 
Q 2466 3031 2466 3422 
Q 2466 3731 2256 3934 
Q 2047 4138 1716 4138 
Q 1388 4138 1169 3931 
Q 950 3725 888 3313 
L 325 3413 
Q 428 3978 793 4289 
Q 1159 4600 1703 4600 
Q 2078 4600 2393 4439 
Q 2709 4278 2876 4000 
Q 3044 3722 3044 3409 
Q 3044 3113 2884 2869 
Q 2725 2625 2413 2481 
Q 2819 2388 3044 2092 
Q 3269 1797 3269 1353 
Q 3269 753 2831 336 
Q 2394 -81 1725 -81 
Q 1122 -81 723 278 
Q 325 638 269 1209 
z
" transform="scale(0.015625)"/>
     </defs>
     <use xlink:href="#ArialMT-35"/>
     <use xlink:href="#ArialMT-34" x="55.615234"/>
     <use xlink:href="#ArialMT-2e" x="111.230469"/>
     <use xlink:href="#ArialMT-33" x="139.013672"/>
    </g>
   </g>
   <g id="text_10">
    <!-- 57.8 -->
    <g transform="translate(290.984101 77.368672) scale(0.11 -0.11)">
     <defs>
      <path id="ArialMT-37" d="M 303 3981 
L 303 4522 
L 3269 4522 
L 3269 4084 
Q 2831 3619 2401 2847 
Q 1972 2075 1738 1259 
Q 1569 684 1522 0 
L 944 0 
Q 953 541 1156 1306 
Q 1359 2072 1739 2783 
Q 2119 3494 2547 3981 
L 303 3981 
z
" transform="scale(0.015625)"/>
     </defs>
     <use xlink:href="#ArialMT-35"/>
     <use xlink:href="#ArialMT-37" x="55.615234"/>
     <use xlink:href="#ArialMT-2e" x="111.230469"/>
     <use xlink:href="#ArialMT-38" x="139.013672"/>
    </g>
   </g>
   <g id="text_11">
    <!-- 55.4 -->
    <g transform="translate(285.398399 46.020608) scale(0.11 -0.11)">
     <use xlink:href="#ArialMT-35"/>
     <use xlink:href="#ArialMT-35" x="55.615234"/>
     <use xlink:href="#ArialMT-2e" x="111.230469"/>
     <use xlink:href="#ArialMT-34" x="139.013672"/>
    </g>
   </g>
   <g id="text_12">
    <!-- monomers -->
    <g transform="translate(232.896953 20.88) scale(0.11 -0.11)">
     <defs>
      <path id="ArialMT-6d" d="M 422 0 
L 422 3319 
L 925 3319 
L 925 2853 
Q 1081 3097 1340 3245 
Q 1600 3394 1931 3394 
Q 2300 3394 2536 3241 
Q 2772 3088 2869 2813 
Q 3263 3394 3894 3394 
Q 4388 3394 4653 3120 
Q 4919 2847 4919 2278 
L 4919 0 
L 4359 0 
L 4359 2091 
Q 4359 2428 4304 2576 
Q 4250 2725 4106 2815 
Q 3963 2906 3769 2906 
Q 3419 2906 3187 2673 
Q 2956 2441 2956 1928 
L 2956 0 
L 2394 0 
L 2394 2156 
Q 2394 2531 2256 2718 
Q 2119 2906 1806 2906 
Q 1569 2906 1367 2781 
Q 1166 2656 1075 2415 
Q 984 2175 984 1722 
L 984 0 
L 422 0 
z
" transform="scale(0.015625)"/>
     </defs>
     <use xlink:href="#ArialMT-6d"/>
     <use xlink:href="#ArialMT-6f" x="83.300781"/>
     <use xlink:href="#ArialMT-6e" x="138.916016"/>
     <use xlink:href="#ArialMT-6f" x="194.53125"/>
     <use xlink:href="#ArialMT-6d" x="250.146484"/>
     <use xlink:href="#ArialMT-65" x="333.447266"/>
     <use xlink:href="#ArialMT-72" x="389.0625"/>
     <use xlink:href="#ArialMT-73" x="422.363281"/>
    </g>
   </g>
  </g>
 </g>
 <defs>
  <clipPath id="p548fb88f2c">
   <rect x="177.37" y="26.88" width="163.01" height="93.10375"/>
  </clipPath>
 </defs>
</svg>
