<?xml version="1.0" encoding="utf-8" standalone="no"?>
<!DOCTYPE svg PUBLIC "-//W3C//DTD SVG 1.1//EN"
  "http://www.w3.org/Graphics/SVG/1.1/DTD/svg11.dtd">
<svg xmlns:xlink="http://www.w3.org/1999/xlink" width="432pt" height="288pt" viewBox="0 0 432 288" xmlns="http://www.w3.org/2000/svg" version="1.1">
 <metadata>
  <rdf:RDF xmlns:dc="http://purl.org/dc/elements/1.1/" xmlns:cc="http://creativecommons.org/ns#" xmlns:rdf="http://www.w3.org/1999/02/22-rdf-syntax-ns#">
   <cc:Work>
    <dc:type rdf:resource="http://purl.org/dc/dcmitype/StillImage"/>
    <dc:date>2024-05-06T09:42:21.841485</dc:date>
    <dc:format>image/svg+xml</dc:format>
    <dc:creator>
     <cc:Agent>
      <dc:title>Matplotlib v3.7.1, https://matplotlib.org/</dc:title>
     </cc:Agent>
    </dc:creator>
   </cc:Work>
  </rdf:RDF>
 </metadata>
 <defs>
  <style type="text/css">*{stroke-linejoin: round; stroke-linecap: butt}</style>
 </defs>
 <g id="figure_1">
  <g id="patch_1">
   <path d="M 0 288 
L 432 288 
L 432 0 
L 0 0 
z
" style="fill: #ffffff"/>
  </g>
  <g id="axes_1">
   <g id="patch_2">
    <path d="M 61.45625 242.38375 
L 290.28 242.38375 
L 290.28 13.6128 
L 61.45625 13.6128 
z
" style="fill: #ffffff"/>
   </g>
   <g id="matplotlib.axis_1">
    <g id="xtick_1">
     <g id="line2d_1">
      <defs>
       <path id="m7f9f07749e" d="M 0 0 
L 0 3.5 
" style="stroke: #000000; stroke-width: 0.8"/>
      </defs>
      <g>
       <use xlink:href="#m7f9f07749e" x="95.536383" y="242.38375" style="stroke: #000000; stroke-width: 0.8"/>
      </g>
     </g>
     <g id="text_1">
      <!-- 100 -->
      <g transform="translate(85.526695 257.973125) scale(0.12 -0.12)">
       <defs>
        <path id="ArialMT-31" d="M 2384 0 
L 1822 0 
L 1822 3584 
Q 1619 3391 1289 3197 
Q 959 3003 697 2906 
L 697 3450 
Q 1169 3672 1522 3987 
Q 1875 4303 2022 4600 
L 2384 4600 
L 2384 0 
z
" transform="scale(0.015625)"/>
        <path id="ArialMT-30" d="M 266 2259 
Q 266 3072 433 3567 
Q 600 4063 929 4331 
Q 1259 4600 1759 4600 
Q 2128 4600 2406 4451 
Q 2684 4303 2865 4023 
Q 3047 3744 3150 3342 
Q 3253 2941 3253 2259 
Q 3253 1453 3087 958 
Q 2922 463 2592 192 
Q 2263 -78 1759 -78 
Q 1097 -78 719 397 
Q 266 969 266 2259 
z
M 844 2259 
Q 844 1131 1108 757 
Q 1372 384 1759 384 
Q 2147 384 2411 759 
Q 2675 1134 2675 2259 
Q 2675 3391 2411 3762 
Q 2147 4134 1753 4134 
Q 1366 4134 1134 3806 
Q 844 3388 844 2259 
z
" transform="scale(0.015625)"/>
       </defs>
       <use xlink:href="#ArialMT-31"/>
       <use xlink:href="#ArialMT-30" x="55.615234"/>
       <use xlink:href="#ArialMT-30" x="111.230469"/>
      </g>
     </g>
    </g>
    <g id="xtick_2">
     <g id="line2d_2">
      <g>
       <use xlink:href="#m7f9f07749e" x="144.222287" y="242.38375" style="stroke: #000000; stroke-width: 0.8"/>
      </g>
     </g>
     <g id="text_2">
      <!-- 200 -->
      <g transform="translate(134.2126 257.973125) scale(0.12 -0.12)">
       <defs>
        <path id="ArialMT-32" d="M 3222 541 
L 3222 0 
L 194 0 
Q 188 203 259 391 
Q 375 700 629 1000 
Q 884 1300 1366 1694 
Q 2113 2306 2375 2664 
Q 2638 3022 2638 3341 
Q 2638 3675 2398 3904 
Q 2159 4134 1775 4134 
Q 1369 4134 1125 3890 
Q 881 3647 878 3216 
L 300 3275 
Q 359 3922 746 4261 
Q 1134 4600 1788 4600 
Q 2447 4600 2831 4234 
Q 3216 3869 3216 3328 
Q 3216 3053 3103 2787 
Q 2991 2522 2730 2228 
Q 2469 1934 1863 1422 
Q 1356 997 1212 845 
Q 1069 694 975 541 
L 3222 541 
z
" transform="scale(0.015625)"/>
       </defs>
       <use xlink:href="#ArialMT-32"/>
       <use xlink:href="#ArialMT-30" x="55.615234"/>
       <use xlink:href="#ArialMT-30" x="111.230469"/>
      </g>
     </g>
    </g>
    <g id="xtick_3">
     <g id="line2d_3">
      <g>
       <use xlink:href="#m7f9f07749e" x="192.908191" y="242.38375" style="stroke: #000000; stroke-width: 0.8"/>
      </g>
     </g>
     <g id="text_3">
      <!-- 300 -->
      <g transform="translate(182.898504 257.973125) scale(0.12 -0.12)">
       <defs>
        <path id="ArialMT-33" d="M 269 1209 
L 831 1284 
Q 928 806 1161 595 
Q 1394 384 1728 384 
Q 2125 384 2398 659 
Q 2672 934 2672 1341 
Q 2672 1728 2419 1979 
Q 2166 2231 1775 2231 
Q 1616 2231 1378 2169 
L 1441 2663 
Q 1497 2656 1531 2656 
Q 1891 2656 2178 2843 
Q 2466 3031 2466 3422 
Q 2466 3731 2256 3934 
Q 2047 4138 1716 4138 
Q 1388 4138 1169 3931 
Q 950 3725 888 3313 
L 325 3413 
Q 428 3978 793 4289 
Q 1159 4600 1703 4600 
Q 2078 4600 2393 4439 
Q 2709 4278 2876 4000 
Q 3044 3722 3044 3409 
Q 3044 3113 2884 2869 
Q 2725 2625 2413 2481 
Q 2819 2388 3044 2092 
Q 3269 1797 3269 1353 
Q 3269 753 2831 336 
Q 2394 -81 1725 -81 
Q 1122 -81 723 278 
Q 325 638 269 1209 
z
" transform="scale(0.015625)"/>
       </defs>
       <use xlink:href="#ArialMT-33"/>
       <use xlink:href="#ArialMT-30" x="55.615234"/>
       <use xlink:href="#ArialMT-30" x="111.230469"/>
      </g>
     </g>
    </g>
    <g id="xtick_4">
     <g id="line2d_4">
      <g>
       <use xlink:href="#m7f9f07749e" x="241.594096" y="242.38375" style="stroke: #000000; stroke-width: 0.8"/>
      </g>
     </g>
     <g id="text_4">
      <!-- 400 -->
      <g transform="translate(231.584408 257.973125) scale(0.12 -0.12)">
       <defs>
        <path id="ArialMT-34" d="M 2069 0 
L 2069 1097 
L 81 1097 
L 81 1613 
L 2172 4581 
L 2631 4581 
L 2631 1613 
L 3250 1613 
L 3250 1097 
L 2631 1097 
L 2631 0 
L 2069 0 
z
M 2069 1613 
L 2069 3678 
L 634 1613 
L 2069 1613 
z
" transform="scale(0.015625)"/>
       </defs>
       <use xlink:href="#ArialMT-34"/>
       <use xlink:href="#ArialMT-30" x="55.615234"/>
       <use xlink:href="#ArialMT-30" x="111.230469"/>
      </g>
     </g>
    </g>
    <g id="xtick_5">
     <g id="line2d_5">
      <g>
       <use xlink:href="#m7f9f07749e" x="290.28" y="242.38375" style="stroke: #000000; stroke-width: 0.8"/>
      </g>
     </g>
     <g id="text_5">
      <!-- 500 -->
      <g transform="translate(280.270312 257.973125) scale(0.12 -0.12)">
       <defs>
        <path id="ArialMT-35" d="M 266 1200 
L 856 1250 
Q 922 819 1161 601 
Q 1400 384 1738 384 
Q 2144 384 2425 690 
Q 2706 997 2706 1503 
Q 2706 1984 2436 2262 
Q 2166 2541 1728 2541 
Q 1456 2541 1237 2417 
Q 1019 2294 894 2097 
L 366 2166 
L 809 4519 
L 3088 4519 
L 3088 3981 
L 1259 3981 
L 1013 2750 
Q 1425 3038 1878 3038 
Q 2478 3038 2890 2622 
Q 3303 2206 3303 1553 
Q 3303 931 2941 478 
Q 2500 -78 1738 -78 
Q 1113 -78 717 272 
Q 322 622 266 1200 
z
" transform="scale(0.015625)"/>
       </defs>
       <use xlink:href="#ArialMT-35"/>
       <use xlink:href="#ArialMT-30" x="55.615234"/>
       <use xlink:href="#ArialMT-30" x="111.230469"/>
      </g>
     </g>
    </g>
    <g id="text_6">
     <!-- sequence length -->
     <g transform="translate(131.835625 272.9475) scale(0.12 -0.12)">
      <defs>
       <path id="ArialMT-73" d="M 197 991 
L 753 1078 
Q 800 744 1014 566 
Q 1228 388 1613 388 
Q 2000 388 2187 545 
Q 2375 703 2375 916 
Q 2375 1106 2209 1216 
Q 2094 1291 1634 1406 
Q 1016 1563 777 1677 
Q 538 1791 414 1992 
Q 291 2194 291 2438 
Q 291 2659 392 2848 
Q 494 3038 669 3163 
Q 800 3259 1026 3326 
Q 1253 3394 1513 3394 
Q 1903 3394 2198 3281 
Q 2494 3169 2634 2976 
Q 2775 2784 2828 2463 
L 2278 2388 
Q 2241 2644 2061 2787 
Q 1881 2931 1553 2931 
Q 1166 2931 1000 2803 
Q 834 2675 834 2503 
Q 834 2394 903 2306 
Q 972 2216 1119 2156 
Q 1203 2125 1616 2013 
Q 2213 1853 2448 1751 
Q 2684 1650 2818 1456 
Q 2953 1263 2953 975 
Q 2953 694 2789 445 
Q 2625 197 2315 61 
Q 2006 -75 1616 -75 
Q 969 -75 630 194 
Q 291 463 197 991 
z
" transform="scale(0.015625)"/>
       <path id="ArialMT-65" d="M 2694 1069 
L 3275 997 
Q 3138 488 2766 206 
Q 2394 -75 1816 -75 
Q 1088 -75 661 373 
Q 234 822 234 1631 
Q 234 2469 665 2931 
Q 1097 3394 1784 3394 
Q 2450 3394 2872 2941 
Q 3294 2488 3294 1666 
Q 3294 1616 3291 1516 
L 816 1516 
Q 847 969 1125 678 
Q 1403 388 1819 388 
Q 2128 388 2347 550 
Q 2566 713 2694 1069 
z
M 847 1978 
L 2700 1978 
Q 2663 2397 2488 2606 
Q 2219 2931 1791 2931 
Q 1403 2931 1139 2672 
Q 875 2413 847 1978 
z
" transform="scale(0.015625)"/>
       <path id="ArialMT-71" d="M 2538 -1272 
L 2538 353 
Q 2406 169 2170 47 
Q 1934 -75 1669 -75 
Q 1078 -75 651 397 
Q 225 869 225 1691 
Q 225 2191 398 2587 
Q 572 2984 901 3189 
Q 1231 3394 1625 3394 
Q 2241 3394 2594 2875 
L 2594 3319 
L 3100 3319 
L 3100 -1272 
L 2538 -1272 
z
M 803 1669 
Q 803 1028 1072 708 
Q 1341 388 1716 388 
Q 2075 388 2334 692 
Q 2594 997 2594 1619 
Q 2594 2281 2320 2615 
Q 2047 2950 1678 2950 
Q 1313 2950 1058 2639 
Q 803 2328 803 1669 
z
" transform="scale(0.015625)"/>
       <path id="ArialMT-75" d="M 2597 0 
L 2597 488 
Q 2209 -75 1544 -75 
Q 1250 -75 995 37 
Q 741 150 617 320 
Q 494 491 444 738 
Q 409 903 409 1263 
L 409 3319 
L 972 3319 
L 972 1478 
Q 972 1038 1006 884 
Q 1059 663 1231 536 
Q 1403 409 1656 409 
Q 1909 409 2131 539 
Q 2353 669 2445 892 
Q 2538 1116 2538 1541 
L 2538 3319 
L 3100 3319 
L 3100 0 
L 2597 0 
z
" transform="scale(0.015625)"/>
       <path id="ArialMT-6e" d="M 422 0 
L 422 3319 
L 928 3319 
L 928 2847 
Q 1294 3394 1984 3394 
Q 2284 3394 2536 3286 
Q 2788 3178 2913 3003 
Q 3038 2828 3088 2588 
Q 3119 2431 3119 2041 
L 3119 0 
L 2556 0 
L 2556 2019 
Q 2556 2363 2490 2533 
Q 2425 2703 2258 2804 
Q 2091 2906 1866 2906 
Q 1506 2906 1245 2678 
Q 984 2450 984 1813 
L 984 0 
L 422 0 
z
" transform="scale(0.015625)"/>
       <path id="ArialMT-63" d="M 2588 1216 
L 3141 1144 
Q 3050 572 2676 248 
Q 2303 -75 1759 -75 
Q 1078 -75 664 370 
Q 250 816 250 1647 
Q 250 2184 428 2587 
Q 606 2991 970 3192 
Q 1334 3394 1763 3394 
Q 2303 3394 2647 3120 
Q 2991 2847 3088 2344 
L 2541 2259 
Q 2463 2594 2264 2762 
Q 2066 2931 1784 2931 
Q 1359 2931 1093 2626 
Q 828 2322 828 1663 
Q 828 994 1084 691 
Q 1341 388 1753 388 
Q 2084 388 2306 591 
Q 2528 794 2588 1216 
z
" transform="scale(0.015625)"/>
       <path id="ArialMT-20" transform="scale(0.015625)"/>
       <path id="ArialMT-6c" d="M 409 0 
L 409 4581 
L 972 4581 
L 972 0 
L 409 0 
z
" transform="scale(0.015625)"/>
       <path id="ArialMT-67" d="M 319 -275 
L 866 -356 
Q 900 -609 1056 -725 
Q 1266 -881 1628 -881 
Q 2019 -881 2231 -725 
Q 2444 -569 2519 -288 
Q 2563 -116 2559 434 
Q 2191 0 1641 0 
Q 956 0 581 494 
Q 206 988 206 1678 
Q 206 2153 378 2554 
Q 550 2956 876 3175 
Q 1203 3394 1644 3394 
Q 2231 3394 2613 2919 
L 2613 3319 
L 3131 3319 
L 3131 450 
Q 3131 -325 2973 -648 
Q 2816 -972 2473 -1159 
Q 2131 -1347 1631 -1347 
Q 1038 -1347 672 -1080 
Q 306 -813 319 -275 
z
M 784 1719 
Q 784 1066 1043 766 
Q 1303 466 1694 466 
Q 2081 466 2343 764 
Q 2606 1063 2606 1700 
Q 2606 2309 2336 2618 
Q 2066 2928 1684 2928 
Q 1309 2928 1046 2623 
Q 784 2319 784 1719 
z
" transform="scale(0.015625)"/>
       <path id="ArialMT-74" d="M 1650 503 
L 1731 6 
Q 1494 -44 1306 -44 
Q 1000 -44 831 53 
Q 663 150 594 308 
Q 525 466 525 972 
L 525 2881 
L 113 2881 
L 113 3319 
L 525 3319 
L 525 4141 
L 1084 4478 
L 1084 3319 
L 1650 3319 
L 1650 2881 
L 1084 2881 
L 1084 941 
Q 1084 700 1114 631 
Q 1144 563 1211 522 
Q 1278 481 1403 481 
Q 1497 481 1650 503 
z
" transform="scale(0.015625)"/>
       <path id="ArialMT-68" d="M 422 0 
L 422 4581 
L 984 4581 
L 984 2938 
Q 1378 3394 1978 3394 
Q 2347 3394 2619 3248 
Q 2891 3103 3008 2847 
Q 3125 2591 3125 2103 
L 3125 0 
L 2563 0 
L 2563 2103 
Q 2563 2525 2380 2717 
Q 2197 2909 1863 2909 
Q 1613 2909 1392 2779 
Q 1172 2650 1078 2428 
Q 984 2206 984 1816 
L 984 0 
L 422 0 
z
" transform="scale(0.015625)"/>
      </defs>
      <use xlink:href="#ArialMT-73"/>
      <use xlink:href="#ArialMT-65" x="50"/>
      <use xlink:href="#ArialMT-71" x="105.615234"/>
      <use xlink:href="#ArialMT-75" x="161.230469"/>
      <use xlink:href="#ArialMT-65" x="216.845703"/>
      <use xlink:href="#ArialMT-6e" x="272.460938"/>
      <use xlink:href="#ArialMT-63" x="328.076172"/>
      <use xlink:href="#ArialMT-65" x="378.076172"/>
      <use xlink:href="#ArialMT-20" x="433.691406"/>
      <use xlink:href="#ArialMT-6c" x="461.474609"/>
      <use xlink:href="#ArialMT-65" x="483.691406"/>
      <use xlink:href="#ArialMT-6e" x="539.306641"/>
      <use xlink:href="#ArialMT-67" x="594.921875"/>
      <use xlink:href="#ArialMT-74" x="650.537109"/>
      <use xlink:href="#ArialMT-68" x="678.320312"/>
     </g>
    </g>
   </g>
   <g id="matplotlib.axis_2">
    <g id="ytick_1">
     <g id="line2d_6">
      <defs>
       <path id="m20ee913cf7" d="M 0 0 
L -3.5 0 
" style="stroke: #000000; stroke-width: 0.8"/>
      </defs>
      <g>
       <use xlink:href="#m20ee913cf7" x="61.45625" y="242.38375" style="stroke: #000000; stroke-width: 0.8"/>
      </g>
     </g>
     <g id="text_7">
      <!-- 0 -->
      <g transform="translate(47.783125 246.678438) scale(0.12 -0.12)">
       <use xlink:href="#ArialMT-30"/>
      </g>
     </g>
    </g>
    <g id="ytick_2">
     <g id="line2d_7">
      <g>
       <use xlink:href="#m20ee913cf7" x="61.45625" y="215.149113" style="stroke: #000000; stroke-width: 0.8"/>
      </g>
     </g>
     <g id="text_8">
      <!-- 500 -->
      <g transform="translate(34.436875 219.443801) scale(0.12 -0.12)">
       <use xlink:href="#ArialMT-35"/>
       <use xlink:href="#ArialMT-30" x="55.615234"/>
       <use xlink:href="#ArialMT-30" x="111.230469"/>
      </g>
     </g>
    </g>
    <g id="ytick_3">
     <g id="line2d_8">
      <g>
       <use xlink:href="#m20ee913cf7" x="61.45625" y="187.914476" style="stroke: #000000; stroke-width: 0.8"/>
      </g>
     </g>
     <g id="text_9">
      <!-- 1000 -->
      <g transform="translate(27.76375 192.209164) scale(0.12 -0.12)">
       <use xlink:href="#ArialMT-31"/>
       <use xlink:href="#ArialMT-30" x="55.615234"/>
       <use xlink:href="#ArialMT-30" x="111.230469"/>
       <use xlink:href="#ArialMT-30" x="166.845703"/>
      </g>
     </g>
    </g>
    <g id="ytick_4">
     <g id="line2d_9">
      <g>
       <use xlink:href="#m20ee913cf7" x="61.45625" y="160.679839" style="stroke: #000000; stroke-width: 0.8"/>
      </g>
     </g>
     <g id="text_10">
      <!-- 1500 -->
      <g transform="translate(27.76375 164.974527) scale(0.12 -0.12)">
       <use xlink:href="#ArialMT-31"/>
       <use xlink:href="#ArialMT-35" x="55.615234"/>
       <use xlink:href="#ArialMT-30" x="111.230469"/>
       <use xlink:href="#ArialMT-30" x="166.845703"/>
      </g>
     </g>
    </g>
    <g id="ytick_5">
     <g id="line2d_10">
      <g>
       <use xlink:href="#m20ee913cf7" x="61.45625" y="133.445202" style="stroke: #000000; stroke-width: 0.8"/>
      </g>
     </g>
     <g id="text_11">
      <!-- 2000 -->
      <g transform="translate(27.76375 137.73989) scale(0.12 -0.12)">
       <use xlink:href="#ArialMT-32"/>
       <use xlink:href="#ArialMT-30" x="55.615234"/>
       <use xlink:href="#ArialMT-30" x="111.230469"/>
       <use xlink:href="#ArialMT-30" x="166.845703"/>
      </g>
     </g>
    </g>
    <g id="ytick_6">
     <g id="line2d_11">
      <g>
       <use xlink:href="#m20ee913cf7" x="61.45625" y="106.210565" style="stroke: #000000; stroke-width: 0.8"/>
      </g>
     </g>
     <g id="text_12">
      <!-- 2500 -->
      <g transform="translate(27.76375 110.505253) scale(0.12 -0.12)">
       <use xlink:href="#ArialMT-32"/>
       <use xlink:href="#ArialMT-35" x="55.615234"/>
       <use xlink:href="#ArialMT-30" x="111.230469"/>
       <use xlink:href="#ArialMT-30" x="166.845703"/>
      </g>
     </g>
    </g>
    <g id="ytick_7">
     <g id="line2d_12">
      <g>
       <use xlink:href="#m20ee913cf7" x="61.45625" y="78.975929" style="stroke: #000000; stroke-width: 0.8"/>
      </g>
     </g>
     <g id="text_13">
      <!-- 3000 -->
      <g transform="translate(27.76375 83.270616) scale(0.12 -0.12)">
       <use xlink:href="#ArialMT-33"/>
       <use xlink:href="#ArialMT-30" x="55.615234"/>
       <use xlink:href="#ArialMT-30" x="111.230469"/>
       <use xlink:href="#ArialMT-30" x="166.845703"/>
      </g>
     </g>
    </g>
    <g id="ytick_8">
     <g id="line2d_13">
      <g>
       <use xlink:href="#m20ee913cf7" x="61.45625" y="51.741292" style="stroke: #000000; stroke-width: 0.8"/>
      </g>
     </g>
     <g id="text_14">
      <!-- 3500 -->
      <g transform="translate(27.76375 56.035979) scale(0.12 -0.12)">
       <use xlink:href="#ArialMT-33"/>
       <use xlink:href="#ArialMT-35" x="55.615234"/>
       <use xlink:href="#ArialMT-30" x="111.230469"/>
       <use xlink:href="#ArialMT-30" x="166.845703"/>
      </g>
     </g>
    </g>
    <g id="ytick_9">
     <g id="line2d_14">
      <g>
       <use xlink:href="#m20ee913cf7" x="61.45625" y="24.506655" style="stroke: #000000; stroke-width: 0.8"/>
      </g>
     </g>
     <g id="text_15">
      <!-- 4000 -->
      <g transform="translate(27.76375 28.801342) scale(0.12 -0.12)">
       <use xlink:href="#ArialMT-34"/>
       <use xlink:href="#ArialMT-30" x="55.615234"/>
       <use xlink:href="#ArialMT-30" x="111.230469"/>
       <use xlink:href="#ArialMT-30" x="166.845703"/>
      </g>
     </g>
    </g>
    <g id="text_16">
     <!-- time [ms] -->
     <g transform="translate(21.37875 152.331088) rotate(-90) scale(0.12 -0.12)">
      <defs>
       <path id="ArialMT-69" d="M 425 3934 
L 425 4581 
L 988 4581 
L 988 3934 
L 425 3934 
z
M 425 0 
L 425 3319 
L 988 3319 
L 988 0 
L 425 0 
z
" transform="scale(0.015625)"/>
       <path id="ArialMT-6d" d="M 422 0 
L 422 3319 
L 925 3319 
L 925 2853 
Q 1081 3097 1340 3245 
Q 1600 3394 1931 3394 
Q 2300 3394 2536 3241 
Q 2772 3088 2869 2813 
Q 3263 3394 3894 3394 
Q 4388 3394 4653 3120 
Q 4919 2847 4919 2278 
L 4919 0 
L 4359 0 
L 4359 2091 
Q 4359 2428 4304 2576 
Q 4250 2725 4106 2815 
Q 3963 2906 3769 2906 
Q 3419 2906 3187 2673 
Q 2956 2441 2956 1928 
L 2956 0 
L 2394 0 
L 2394 2156 
Q 2394 2531 2256 2718 
Q 2119 2906 1806 2906 
Q 1569 2906 1367 2781 
Q 1166 2656 1075 2415 
Q 984 2175 984 1722 
L 984 0 
L 422 0 
z
" transform="scale(0.015625)"/>
       <path id="ArialMT-5b" d="M 434 -1272 
L 434 4581 
L 1675 4581 
L 1675 4116 
L 997 4116 
L 997 -806 
L 1675 -806 
L 1675 -1272 
L 434 -1272 
z
" transform="scale(0.015625)"/>
       <path id="ArialMT-5d" d="M 1363 -1272 
L 122 -1272 
L 122 -806 
L 800 -806 
L 800 4116 
L 122 4116 
L 122 4581 
L 1363 4581 
L 1363 -1272 
z
" transform="scale(0.015625)"/>
      </defs>
      <use xlink:href="#ArialMT-74"/>
      <use xlink:href="#ArialMT-69" x="27.783203"/>
      <use xlink:href="#ArialMT-6d" x="50"/>
      <use xlink:href="#ArialMT-65" x="133.300781"/>
      <use xlink:href="#ArialMT-20" x="188.916016"/>
      <use xlink:href="#ArialMT-5b" x="216.699219"/>
      <use xlink:href="#ArialMT-6d" x="244.482422"/>
      <use xlink:href="#ArialMT-73" x="327.783203"/>
      <use xlink:href="#ArialMT-5d" x="377.783203"/>
     </g>
    </g>
   </g>
   <g id="line2d_15">
    <defs>
     <path id="m9a1d6eb357" d="M 0 1.5 
C 0.397805 1.5 0.77937 1.341951 1.06066 1.06066 
C 1.341951 0.77937 1.5 0.397805 1.5 0 
C 1.5 -0.397805 1.341951 -0.77937 1.06066 -1.06066 
C 0.77937 -1.341951 0.397805 -1.5 0 -1.5 
C -0.397805 -1.5 -0.77937 -1.341951 -1.06066 -1.06066 
C -1.341951 -0.77937 -1.5 -0.397805 -1.5 0 
C -1.5 0.397805 -1.341951 0.77937 -1.06066 1.06066 
C -0.77937 1.341951 -0.397805 1.5 0 1.5 
z
" style="stroke: #bf4e30"/>
    </defs>
    <g clip-path="url(#pac131c5d6a)">
     <use xlink:href="#m9a1d6eb357" x="75.575162" y="221.40347" style="fill: #bf4e30; stroke: #bf4e30"/>
     <use xlink:href="#m9a1d6eb357" x="79.470035" y="238.667381" style="fill: #bf4e30; stroke: #bf4e30"/>
     <use xlink:href="#m9a1d6eb357" x="74.114585" y="238.967914" style="fill: #bf4e30; stroke: #bf4e30"/>
     <use xlink:href="#m9a1d6eb357" x="89.207215" y="238.12239" style="fill: #bf4e30; stroke: #bf4e30"/>
     <use xlink:href="#m9a1d6eb357" x="227.475184" y="226.55669" style="fill: #bf4e30; stroke: #bf4e30"/>
     <use xlink:href="#m9a1d6eb357" x="166.130944" y="232.614522" style="fill: #bf4e30; stroke: #bf4e30"/>
     <use xlink:href="#m9a1d6eb357" x="83.364907" y="238.54201" style="fill: #bf4e30; stroke: #bf4e30"/>
     <use xlink:href="#m9a1d6eb357" x="210.435117" y="229.0559" style="fill: #bf4e30; stroke: #bf4e30"/>
     <use xlink:href="#m9a1d6eb357" x="77.035739" y="238.318629" style="fill: #bf4e30; stroke: #bf4e30"/>
     <use xlink:href="#m9a1d6eb357" x="124.261066" y="235.744928" style="fill: #bf4e30; stroke: #bf4e30"/>
     <use xlink:href="#m9a1d6eb357" x="83.364907" y="238.482064" style="fill: #bf4e30; stroke: #bf4e30"/>
     <use xlink:href="#m9a1d6eb357" x="194.855628" y="230.419326" style="fill: #bf4e30; stroke: #bf4e30"/>
     <use xlink:href="#m9a1d6eb357" x="75.088303" y="239.011017" style="fill: #bf4e30; stroke: #bf4e30"/>
     <use xlink:href="#m9a1d6eb357" x="75.575162" y="238.941305" style="fill: #bf4e30; stroke: #bf4e30"/>
     <use xlink:href="#m9a1d6eb357" x="204.105949" y="229.693524" style="fill: #bf4e30; stroke: #bf4e30"/>
     <use xlink:href="#m9a1d6eb357" x="74.601444" y="239.083637" style="fill: #bf4e30; stroke: #bf4e30"/>
     <use xlink:href="#m9a1d6eb357" x="75.088303" y="239.06756" style="fill: #bf4e30; stroke: #bf4e30"/>
     <use xlink:href="#m9a1d6eb357" x="208.487681" y="229.20057" style="fill: #bf4e30; stroke: #bf4e30"/>
     <use xlink:href="#m9a1d6eb357" x="75.088303" y="239.025055" style="fill: #bf4e30; stroke: #bf4e30"/>
     <use xlink:href="#m9a1d6eb357" x="251.818136" y="225.958156" style="fill: #bf4e30; stroke: #bf4e30"/>
     <use xlink:href="#m9a1d6eb357" x="200.211077" y="230.003018" style="fill: #bf4e30; stroke: #bf4e30"/>
     <use xlink:href="#m9a1d6eb357" x="200.211077" y="230.038211" style="fill: #bf4e30; stroke: #bf4e30"/>
     <use xlink:href="#m9a1d6eb357" x="74.114585" y="239.060417" style="fill: #bf4e30; stroke: #bf4e30"/>
     <use xlink:href="#m9a1d6eb357" x="283.950832" y="222.76983" style="fill: #bf4e30; stroke: #bf4e30"/>
     <use xlink:href="#m9a1d6eb357" x="93.102088" y="237.879205" style="fill: #bf4e30; stroke: #bf4e30"/>
     <use xlink:href="#m9a1d6eb357" x="208.97454" y="229.168285" style="fill: #bf4e30; stroke: #bf4e30"/>
     <use xlink:href="#m9a1d6eb357" x="104.299846" y="237.27358" style="fill: #bf4e30; stroke: #bf4e30"/>
     <use xlink:href="#m9a1d6eb357" x="200.211077" y="230.05347" style="fill: #bf4e30; stroke: #bf4e30"/>
     <use xlink:href="#m9a1d6eb357" x="97.970678" y="237.620722" style="fill: #bf4e30; stroke: #bf4e30"/>
     <use xlink:href="#m9a1d6eb357" x="103.326128" y="237.153975" style="fill: #bf4e30; stroke: #bf4e30"/>
     <use xlink:href="#m9a1d6eb357" x="75.575162" y="238.98829" style="fill: #bf4e30; stroke: #bf4e30"/>
     <use xlink:href="#m9a1d6eb357" x="96.023242" y="237.742406" style="fill: #bf4e30; stroke: #bf4e30"/>
     <use xlink:href="#m9a1d6eb357" x="68.272277" y="239.39191" style="fill: #bf4e30; stroke: #bf4e30"/>
     <use xlink:href="#m9a1d6eb357" x="210.921976" y="228.58488" style="fill: #bf4e30; stroke: #bf4e30"/>
     <use xlink:href="#m9a1d6eb357" x="74.114585" y="239.052794" style="fill: #bf4e30; stroke: #bf4e30"/>
     <use xlink:href="#m9a1d6eb357" x="83.364907" y="238.420053" style="fill: #bf4e30; stroke: #bf4e30"/>
     <use xlink:href="#m9a1d6eb357" x="199.724218" y="230.038692" style="fill: #bf4e30; stroke: #bf4e30"/>
     <use xlink:href="#m9a1d6eb357" x="107.221" y="236.999501" style="fill: #bf4e30; stroke: #bf4e30"/>
     <use xlink:href="#m9a1d6eb357" x="77.522598" y="238.851581" style="fill: #bf4e30; stroke: #bf4e30"/>
     <use xlink:href="#m9a1d6eb357" x="98.944396" y="237.584464" style="fill: #bf4e30; stroke: #bf4e30"/>
     <use xlink:href="#m9a1d6eb357" x="204.105949" y="229.666928" style="fill: #bf4e30; stroke: #bf4e30"/>
     <use xlink:href="#m9a1d6eb357" x="88.720356" y="238.355614" style="fill: #bf4e30; stroke: #bf4e30"/>
     <use xlink:href="#m9a1d6eb357" x="241.107237" y="226.622038" style="fill: #bf4e30; stroke: #bf4e30"/>
     <use xlink:href="#m9a1d6eb357" x="125.234785" y="235.662827" style="fill: #bf4e30; stroke: #bf4e30"/>
     <use xlink:href="#m9a1d6eb357" x="208.487681" y="229.131612" style="fill: #bf4e30; stroke: #bf4e30"/>
     <use xlink:href="#m9a1d6eb357" x="201.184795" y="229.574853" style="fill: #bf4e30; stroke: #bf4e30"/>
     <use xlink:href="#m9a1d6eb357" x="100.404973" y="237.508857" style="fill: #bf4e30; stroke: #bf4e30"/>
     <use xlink:href="#m9a1d6eb357" x="77.522598" y="238.923319" style="fill: #bf4e30; stroke: #bf4e30"/>
     <use xlink:href="#m9a1d6eb357" x="74.601444" y="238.995472" style="fill: #bf4e30; stroke: #bf4e30"/>
     <use xlink:href="#m9a1d6eb357" x="199.724218" y="229.683641" style="fill: #bf4e30; stroke: #bf4e30"/>
     <use xlink:href="#m9a1d6eb357" x="208.97454" y="229.030564" style="fill: #bf4e30; stroke: #bf4e30"/>
     <use xlink:href="#m9a1d6eb357" x="83.364907" y="238.519244" style="fill: #bf4e30; stroke: #bf4e30"/>
     <use xlink:href="#m9a1d6eb357" x="82.878048" y="238.609695" style="fill: #bf4e30; stroke: #bf4e30"/>
     <use xlink:href="#m9a1d6eb357" x="127.182221" y="235.62979" style="fill: #bf4e30; stroke: #bf4e30"/>
     <use xlink:href="#m9a1d6eb357" x="73.627726" y="239.141907" style="fill: #bf4e30; stroke: #bf4e30"/>
     <use xlink:href="#m9a1d6eb357" x="75.575162" y="238.989732" style="fill: #bf4e30; stroke: #bf4e30"/>
     <use xlink:href="#m9a1d6eb357" x="82.391189" y="238.579099" style="fill: #bf4e30; stroke: #bf4e30"/>
     <use xlink:href="#m9a1d6eb357" x="203.61909" y="229.889983" style="fill: #bf4e30; stroke: #bf4e30"/>
     <use xlink:href="#m9a1d6eb357" x="88.720356" y="238.289734" style="fill: #bf4e30; stroke: #bf4e30"/>
     <use xlink:href="#m9a1d6eb357" x="198.263641" y="229.783442" style="fill: #bf4e30; stroke: #bf4e30"/>
     <use xlink:href="#m9a1d6eb357" x="74.114585" y="239.078001" style="fill: #bf4e30; stroke: #bf4e30"/>
     <use xlink:href="#m9a1d6eb357" x="199.724218" y="229.750703" style="fill: #bf4e30; stroke: #bf4e30"/>
     <use xlink:href="#m9a1d6eb357" x="82.878048" y="238.540243" style="fill: #bf4e30; stroke: #bf4e30"/>
     <use xlink:href="#m9a1d6eb357" x="71.68029" y="239.225514" style="fill: #bf4e30; stroke: #bf4e30"/>
     <use xlink:href="#m9a1d6eb357" x="78.009457" y="238.862997" style="fill: #bf4e30; stroke: #bf4e30"/>
     <use xlink:href="#m9a1d6eb357" x="78.496316" y="238.855516" style="fill: #bf4e30; stroke: #bf4e30"/>
     <use xlink:href="#m9a1d6eb357" x="74.601444" y="239.010159" style="fill: #bf4e30; stroke: #bf4e30"/>
     <use xlink:href="#m9a1d6eb357" x="75.088303" y="239.036951" style="fill: #bf4e30; stroke: #bf4e30"/>
     <use xlink:href="#m9a1d6eb357" x="253.278713" y="225.739074" style="fill: #bf4e30; stroke: #bf4e30"/>
     <use xlink:href="#m9a1d6eb357" x="71.68029" y="239.213294" style="fill: #bf4e30; stroke: #bf4e30"/>
     <use xlink:href="#m9a1d6eb357" x="205.566527" y="229.607852" style="fill: #bf4e30; stroke: #bf4e30"/>
     <use xlink:href="#m9a1d6eb357" x="206.540245" y="228.865285" style="fill: #bf4e30; stroke: #bf4e30"/>
     <use xlink:href="#m9a1d6eb357" x="208.97454" y="229.189908" style="fill: #bf4e30; stroke: #bf4e30"/>
     <use xlink:href="#m9a1d6eb357" x="74.601444" y="238.975953" style="fill: #bf4e30; stroke: #bf4e30"/>
     <use xlink:href="#m9a1d6eb357" x="77.035739" y="238.930617" style="fill: #bf4e30; stroke: #bf4e30"/>
     <use xlink:href="#m9a1d6eb357" x="75.575162" y="239.002406" style="fill: #bf4e30; stroke: #bf4e30"/>
     <use xlink:href="#m9a1d6eb357" x="74.601444" y="239.060703" style="fill: #bf4e30; stroke: #bf4e30"/>
     <use xlink:href="#m9a1d6eb357" x="210.435117" y="228.931892" style="fill: #bf4e30; stroke: #bf4e30"/>
     <use xlink:href="#m9a1d6eb357" x="103.326128" y="237.154222" style="fill: #bf4e30; stroke: #bf4e30"/>
     <use xlink:href="#m9a1d6eb357" x="166.130944" y="232.467892" style="fill: #bf4e30; stroke: #bf4e30"/>
     <use xlink:href="#m9a1d6eb357" x="96.023242" y="237.742587" style="fill: #bf4e30; stroke: #bf4e30"/>
     <use xlink:href="#m9a1d6eb357" x="251.331277" y="225.755502" style="fill: #bf4e30; stroke: #bf4e30"/>
     <use xlink:href="#m9a1d6eb357" x="104.299846" y="237.208531" style="fill: #bf4e30; stroke: #bf4e30"/>
     <use xlink:href="#m9a1d6eb357" x="210.435117" y="229.036135" style="fill: #bf4e30; stroke: #bf4e30"/>
     <use xlink:href="#m9a1d6eb357" x="195.342487" y="230.173504" style="fill: #bf4e30; stroke: #bf4e30"/>
     <use xlink:href="#m9a1d6eb357" x="209.948258" y="229.032174" style="fill: #bf4e30; stroke: #bf4e30"/>
     <use xlink:href="#m9a1d6eb357" x="83.364907" y="238.451689" style="fill: #bf4e30; stroke: #bf4e30"/>
     <use xlink:href="#m9a1d6eb357" x="225.527747" y="227.790874" style="fill: #bf4e30; stroke: #bf4e30"/>
     <use xlink:href="#m9a1d6eb357" x="199.724218" y="230.016848" style="fill: #bf4e30; stroke: #bf4e30"/>
     <use xlink:href="#m9a1d6eb357" x="88.720356" y="238.289903" style="fill: #bf4e30; stroke: #bf4e30"/>
     <use xlink:href="#m9a1d6eb357" x="203.61909" y="229.631851" style="fill: #bf4e30; stroke: #bf4e30"/>
     <use xlink:href="#m9a1d6eb357" x="77.035739" y="238.906268" style="fill: #bf4e30; stroke: #bf4e30"/>
     <use xlink:href="#m9a1d6eb357" x="74.601444" y="239.056145" style="fill: #bf4e30; stroke: #bf4e30"/>
     <use xlink:href="#m9a1d6eb357" x="74.114585" y="239.069521" style="fill: #bf4e30; stroke: #bf4e30"/>
     <use xlink:href="#m9a1d6eb357" x="100.404973" y="237.504493" style="fill: #bf4e30; stroke: #bf4e30"/>
     <use xlink:href="#m9a1d6eb357" x="70.219713" y="239.301174" style="fill: #bf4e30; stroke: #bf4e30"/>
     <use xlink:href="#m9a1d6eb357" x="76.062021" y="238.983849" style="fill: #bf4e30; stroke: #bf4e30"/>
     <use xlink:href="#m9a1d6eb357" x="205.079668" y="229.490675" style="fill: #bf4e30; stroke: #bf4e30"/>
     <use xlink:href="#m9a1d6eb357" x="206.540245" y="229.341733" style="fill: #bf4e30; stroke: #bf4e30"/>
     <use xlink:href="#m9a1d6eb357" x="81.90433" y="238.566645" style="fill: #bf4e30; stroke: #bf4e30"/>
     <use xlink:href="#m9a1d6eb357" x="74.601444" y="239.064235" style="fill: #bf4e30; stroke: #bf4e30"/>
     <use xlink:href="#m9a1d6eb357" x="198.7505" y="230.280227" style="fill: #bf4e30; stroke: #bf4e30"/>
     <use xlink:href="#m9a1d6eb357" x="206.053386" y="227.465393" style="fill: #bf4e30; stroke: #bf4e30"/>
     <use xlink:href="#m9a1d6eb357" x="198.263641" y="229.767625" style="fill: #bf4e30; stroke: #bf4e30"/>
     <use xlink:href="#m9a1d6eb357" x="75.088303" y="239.006562" style="fill: #bf4e30; stroke: #bf4e30"/>
     <use xlink:href="#m9a1d6eb357" x="110.142154" y="236.863065" style="fill: #bf4e30; stroke: #bf4e30"/>
     <use xlink:href="#m9a1d6eb357" x="103.326128" y="237.178312" style="fill: #bf4e30; stroke: #bf4e30"/>
     <use xlink:href="#m9a1d6eb357" x="75.575162" y="239.036197" style="fill: #bf4e30; stroke: #bf4e30"/>
     <use xlink:href="#m9a1d6eb357" x="86.286061" y="238.346303" style="fill: #bf4e30; stroke: #bf4e30"/>
     <use xlink:href="#m9a1d6eb357" x="88.720356" y="238.333602" style="fill: #bf4e30; stroke: #bf4e30"/>
     <use xlink:href="#m9a1d6eb357" x="75.575162" y="238.913163" style="fill: #bf4e30; stroke: #bf4e30"/>
     <use xlink:href="#m9a1d6eb357" x="90.667793" y="237.814961" style="fill: #bf4e30; stroke: #bf4e30"/>
     <use xlink:href="#m9a1d6eb357" x="205.566527" y="229.640747" style="fill: #bf4e30; stroke: #bf4e30"/>
     <use xlink:href="#m9a1d6eb357" x="122.800489" y="235.857755" style="fill: #bf4e30; stroke: #bf4e30"/>
     <use xlink:href="#m9a1d6eb357" x="189.500178" y="230.679938" style="fill: #bf4e30; stroke: #bf4e30"/>
     <use xlink:href="#m9a1d6eb357" x="201.184795" y="229.632345" style="fill: #bf4e30; stroke: #bf4e30"/>
     <use xlink:href="#m9a1d6eb357" x="75.088303" y="239.057157" style="fill: #bf4e30; stroke: #bf4e30"/>
     <use xlink:href="#m9a1d6eb357" x="68.272277" y="239.397416" style="fill: #bf4e30; stroke: #bf4e30"/>
     <use xlink:href="#m9a1d6eb357" x="216.277426" y="228.71833" style="fill: #bf4e30; stroke: #bf4e30"/>
     <use xlink:href="#m9a1d6eb357" x="103.326128" y="237.181597" style="fill: #bf4e30; stroke: #bf4e30"/>
     <use xlink:href="#m9a1d6eb357" x="202.158513" y="229.832336" style="fill: #bf4e30; stroke: #bf4e30"/>
     <use xlink:href="#m9a1d6eb357" x="74.114585" y="239.06004" style="fill: #bf4e30; stroke: #bf4e30"/>
     <use xlink:href="#m9a1d6eb357" x="231.856915" y="227.509002" style="fill: #bf4e30; stroke: #bf4e30"/>
     <use xlink:href="#m9a1d6eb357" x="208.97454" y="229.103392" style="fill: #bf4e30; stroke: #bf4e30"/>
     <use xlink:href="#m9a1d6eb357" x="248.896981" y="225.9787" style="fill: #bf4e30; stroke: #bf4e30"/>
     <use xlink:href="#m9a1d6eb357" x="83.851766" y="238.532231" style="fill: #bf4e30; stroke: #bf4e30"/>
     <use xlink:href="#m9a1d6eb357" x="69.732854" y="239.305875" style="fill: #bf4e30; stroke: #bf4e30"/>
     <use xlink:href="#m9a1d6eb357" x="75.088303" y="239.066742" style="fill: #bf4e30; stroke: #bf4e30"/>
     <use xlink:href="#m9a1d6eb357" x="203.61909" y="229.302397" style="fill: #bf4e30; stroke: #bf4e30"/>
     <use xlink:href="#m9a1d6eb357" x="75.088303" y="239.064105" style="fill: #bf4e30; stroke: #bf4e30"/>
     <use xlink:href="#m9a1d6eb357" x="89.694074" y="238.268865" style="fill: #bf4e30; stroke: #bf4e30"/>
     <use xlink:href="#m9a1d6eb357" x="204.105949" y="229.646318" style="fill: #bf4e30; stroke: #bf4e30"/>
     <use xlink:href="#m9a1d6eb357" x="75.088303" y="239.031717" style="fill: #bf4e30; stroke: #bf4e30"/>
     <use xlink:href="#m9a1d6eb357" x="201.671654" y="229.955968" style="fill: #bf4e30; stroke: #bf4e30"/>
     <use xlink:href="#m9a1d6eb357" x="95.049524" y="237.882101" style="fill: #bf4e30; stroke: #bf4e30"/>
     <use xlink:href="#m9a1d6eb357" x="88.233497" y="238.228126" style="fill: #bf4e30; stroke: #bf4e30"/>
     <use xlink:href="#m9a1d6eb357" x="74.601444" y="239.044379" style="fill: #bf4e30; stroke: #bf4e30"/>
     <use xlink:href="#m9a1d6eb357" x="73.627726" y="239.15092" style="fill: #bf4e30; stroke: #bf4e30"/>
     <use xlink:href="#m9a1d6eb357" x="203.61909" y="229.697329" style="fill: #bf4e30; stroke: #bf4e30"/>
     <use xlink:href="#m9a1d6eb357" x="205.079668" y="229.494909" style="fill: #bf4e30; stroke: #bf4e30"/>
     <use xlink:href="#m9a1d6eb357" x="209.948258" y="229.100301" style="fill: #bf4e30; stroke: #bf4e30"/>
     <use xlink:href="#m9a1d6eb357" x="121.826771" y="235.870884" style="fill: #bf4e30; stroke: #bf4e30"/>
    </g>
   </g>
   <g id="line2d_16">
    <path d="M 46.850479 240.955116 
L 49.309363 240.775667 
L 51.768247 240.596218 
L 54.227131 240.416769 
L 56.686015 240.237321 
L 59.144899 240.057872 
L 61.603783 239.878423 
L 64.062667 239.698975 
L 66.521551 239.519526 
L 68.980435 239.340077 
L 71.439319 239.160628 
L 73.898203 238.98118 
L 76.357087 238.801731 
L 78.815971 238.622282 
L 81.274855 238.442834 
L 83.73374 238.263385 
L 86.192624 238.083936 
L 88.651508 237.904487 
L 91.110392 237.725039 
L 93.569276 237.54559 
L 96.02816 237.366141 
L 98.487044 237.186692 
L 100.945928 237.007244 
L 103.404812 236.827795 
L 105.863696 236.648346 
L 108.32258 236.468898 
L 110.781464 236.289449 
L 113.240348 236.11 
L 115.699232 235.930551 
L 118.158116 235.751103 
L 120.617 235.571654 
L 123.075884 235.392205 
L 125.534768 235.212757 
L 127.993652 235.033308 
L 130.452537 234.853859 
L 132.911421 234.67441 
L 135.370305 234.494962 
L 137.829189 234.315513 
L 140.288073 234.136064 
L 142.746957 233.956615 
L 145.205841 233.777167 
L 147.664725 233.597718 
L 150.123609 233.418269 
L 152.582493 233.238821 
L 155.041377 233.059372 
L 157.500261 232.879923 
L 159.959145 232.700474 
L 162.418029 232.521026 
L 164.876913 232.341577 
L 167.335797 232.162128 
L 169.794681 231.98268 
L 172.253565 231.803231 
L 174.712449 231.623782 
L 177.171334 231.444333 
L 179.630218 231.264885 
L 182.089102 231.085436 
L 184.547986 230.905987 
L 187.00687 230.726539 
L 189.465754 230.54709 
L 191.924638 230.367641 
L 194.383522 230.188192 
L 196.842406 230.008744 
L 199.30129 229.829295 
L 201.760174 229.649846 
L 204.219058 229.470397 
L 206.677942 229.290949 
L 209.136826 229.1115 
L 211.59571 228.932051 
L 214.054594 228.752603 
L 216.513478 228.573154 
L 218.972362 228.393705 
L 221.431247 228.214256 
L 223.890131 228.034808 
L 226.349015 227.855359 
L 228.807899 227.67591 
L 231.266783 227.496462 
L 233.725667 227.317013 
L 236.184551 227.137564 
L 238.643435 226.958115 
L 241.102319 226.778667 
L 243.561203 226.599218 
L 246.020087 226.419769 
L 248.478971 226.24032 
L 250.937855 226.060872 
L 253.396739 225.881423 
L 255.855623 225.701974 
L 258.314507 225.522526 
L 260.773391 225.343077 
L 263.232275 225.163628 
L 265.691159 224.984179 
L 268.150044 224.804731 
L 270.608928 224.625282 
L 273.067812 224.445833 
L 275.526696 224.266385 
L 277.98558 224.086936 
L 280.444464 223.907487 
L 282.903348 223.728038 
L 285.362232 223.54859 
L 287.821116 223.369141 
L 290.28 223.189692 
" clip-path="url(#pac131c5d6a)" style="fill: none; stroke-dasharray: 5.55,2.4; stroke-dashoffset: 0; stroke: #bf4e30; stroke-width: 1.5"/>
   </g>
   <g id="line2d_17">
    <defs>
     <path id="m72a181778c" d="M 0 1.5 
C 0.397805 1.5 0.77937 1.341951 1.06066 1.06066 
C 1.341951 0.77937 1.5 0.397805 1.5 0 
C 1.5 -0.397805 1.341951 -0.77937 1.06066 -1.06066 
C 0.77937 -1.341951 0.397805 -1.5 0 -1.5 
C -0.397805 -1.5 -0.77937 -1.341951 -1.06066 -1.06066 
C -1.341951 -0.77937 -1.5 -0.397805 -1.5 0 
C -1.5 0.397805 -1.341951 0.77937 -1.06066 1.06066 
C -0.77937 1.341951 -0.397805 1.5 0 1.5 
z
" style="stroke: #0d3b66"/>
    </defs>
    <g clip-path="url(#pac131c5d6a)">
     <use xlink:href="#m72a181778c" x="75.575162" y="207.324196" style="fill: #0d3b66; stroke: #0d3b66"/>
     <use xlink:href="#m72a181778c" x="79.470035" y="213.174271" style="fill: #0d3b66; stroke: #0d3b66"/>
     <use xlink:href="#m72a181778c" x="74.114585" y="218.457823" style="fill: #0d3b66; stroke: #0d3b66"/>
     <use xlink:href="#m72a181778c" x="89.207215" y="204.494454" style="fill: #0d3b66; stroke: #0d3b66"/>
     <use xlink:href="#m72a181778c" x="227.475184" y="63.672613" style="fill: #0d3b66; stroke: #0d3b66"/>
     <use xlink:href="#m72a181778c" x="166.130944" y="141.856433" style="fill: #0d3b66; stroke: #0d3b66"/>
     <use xlink:href="#m72a181778c" x="83.364907" y="211.115601" style="fill: #0d3b66; stroke: #0d3b66"/>
     <use xlink:href="#m72a181778c" x="210.435117" y="101.883767" style="fill: #0d3b66; stroke: #0d3b66"/>
     <use xlink:href="#m72a181778c" x="77.035739" y="216.784943" style="fill: #0d3b66; stroke: #0d3b66"/>
     <use xlink:href="#m72a181778c" x="124.261066" y="178.608048" style="fill: #0d3b66; stroke: #0d3b66"/>
     <use xlink:href="#m72a181778c" x="83.364907" y="211.724486" style="fill: #0d3b66; stroke: #0d3b66"/>
     <use xlink:href="#m72a181778c" x="194.855628" y="120.05894" style="fill: #0d3b66; stroke: #0d3b66"/>
     <use xlink:href="#m72a181778c" x="75.088303" y="218.386398" style="fill: #0d3b66; stroke: #0d3b66"/>
     <use xlink:href="#m72a181778c" x="75.575162" y="218.143394" style="fill: #0d3b66; stroke: #0d3b66"/>
     <use xlink:href="#m72a181778c" x="204.105949" y="108.116384" style="fill: #0d3b66; stroke: #0d3b66"/>
     <use xlink:href="#m72a181778c" x="74.601444" y="218.80964" style="fill: #0d3b66; stroke: #0d3b66"/>
     <use xlink:href="#m72a181778c" x="75.088303" y="218.457641" style="fill: #0d3b66; stroke: #0d3b66"/>
     <use xlink:href="#m72a181778c" x="208.487681" y="107.462813" style="fill: #0d3b66; stroke: #0d3b66"/>
     <use xlink:href="#m72a181778c" x="75.088303" y="218.297687" style="fill: #0d3b66; stroke: #0d3b66"/>
     <use xlink:href="#m72a181778c" x="251.818136" y="62.750625" style="fill: #0d3b66; stroke: #0d3b66"/>
     <use xlink:href="#m72a181778c" x="200.211077" y="114.477321" style="fill: #0d3b66; stroke: #0d3b66"/>
     <use xlink:href="#m72a181778c" x="200.211077" y="110.851494" style="fill: #0d3b66; stroke: #0d3b66"/>
     <use xlink:href="#m72a181778c" x="74.114585" y="219.113134" style="fill: #0d3b66; stroke: #0d3b66"/>
     <use xlink:href="#m72a181778c" x="283.950832" y="30.320069" style="fill: #0d3b66; stroke: #0d3b66"/>
     <use xlink:href="#m72a181778c" x="93.102088" y="203.351812" style="fill: #0d3b66; stroke: #0d3b66"/>
     <use xlink:href="#m72a181778c" x="208.97454" y="106.191852" style="fill: #0d3b66; stroke: #0d3b66"/>
     <use xlink:href="#m72a181778c" x="104.299846" y="194.042384" style="fill: #0d3b66; stroke: #0d3b66"/>
     <use xlink:href="#m72a181778c" x="200.211077" y="110.931102" style="fill: #0d3b66; stroke: #0d3b66"/>
     <use xlink:href="#m72a181778c" x="97.970678" y="199.371441" style="fill: #0d3b66; stroke: #0d3b66"/>
     <use xlink:href="#m72a181778c" x="103.326128" y="195.254101" style="fill: #0d3b66; stroke: #0d3b66"/>
     <use xlink:href="#m72a181778c" x="75.575162" y="217.860497" style="fill: #0d3b66; stroke: #0d3b66"/>
     <use xlink:href="#m72a181778c" x="96.023242" y="200.905184" style="fill: #0d3b66; stroke: #0d3b66"/>
     <use xlink:href="#m72a181778c" x="68.272277" y="223.851111" style="fill: #0d3b66; stroke: #0d3b66"/>
     <use xlink:href="#m72a181778c" x="210.921976" y="102.127263" style="fill: #0d3b66; stroke: #0d3b66"/>
     <use xlink:href="#m72a181778c" x="74.114585" y="218.930973" style="fill: #0d3b66; stroke: #0d3b66"/>
     <use xlink:href="#m72a181778c" x="83.364907" y="211.464418" style="fill: #0d3b66; stroke: #0d3b66"/>
     <use xlink:href="#m72a181778c" x="199.724218" y="115.266341" style="fill: #0d3b66; stroke: #0d3b66"/>
     <use xlink:href="#m72a181778c" x="107.221" y="191.969091" style="fill: #0d3b66; stroke: #0d3b66"/>
     <use xlink:href="#m72a181778c" x="77.522598" y="216.125009" style="fill: #0d3b66; stroke: #0d3b66"/>
     <use xlink:href="#m72a181778c" x="98.944396" y="198.302835" style="fill: #0d3b66; stroke: #0d3b66"/>
     <use xlink:href="#m72a181778c" x="204.105949" y="107.981507" style="fill: #0d3b66; stroke: #0d3b66"/>
     <use xlink:href="#m72a181778c" x="88.720356" y="206.900538" style="fill: #0d3b66; stroke: #0d3b66"/>
     <use xlink:href="#m72a181778c" x="241.107237" y="81.004885" style="fill: #0d3b66; stroke: #0d3b66"/>
     <use xlink:href="#m72a181778c" x="125.234785" y="173.773569" style="fill: #0d3b66; stroke: #0d3b66"/>
     <use xlink:href="#m72a181778c" x="208.487681" y="108.306805" style="fill: #0d3b66; stroke: #0d3b66"/>
     <use xlink:href="#m72a181778c" x="201.184795" y="106.711013" style="fill: #0d3b66; stroke: #0d3b66"/>
     <use xlink:href="#m72a181778c" x="100.404973" y="197.380106" style="fill: #0d3b66; stroke: #0d3b66"/>
     <use xlink:href="#m72a181778c" x="77.522598" y="216.311585" style="fill: #0d3b66; stroke: #0d3b66"/>
     <use xlink:href="#m72a181778c" x="74.601444" y="218.657075" style="fill: #0d3b66; stroke: #0d3b66"/>
     <use xlink:href="#m72a181778c" x="199.724218" y="114.671067" style="fill: #0d3b66; stroke: #0d3b66"/>
     <use xlink:href="#m72a181778c" x="208.97454" y="102.510728" style="fill: #0d3b66; stroke: #0d3b66"/>
     <use xlink:href="#m72a181778c" x="83.364907" y="209.949687" style="fill: #0d3b66; stroke: #0d3b66"/>
     <use xlink:href="#m72a181778c" x="82.878048" y="211.146665" style="fill: #0d3b66; stroke: #0d3b66"/>
     <use xlink:href="#m72a181778c" x="127.182221" y="175.463669" style="fill: #0d3b66; stroke: #0d3b66"/>
     <use xlink:href="#m72a181778c" x="73.627726" y="219.462068" style="fill: #0d3b66; stroke: #0d3b66"/>
     <use xlink:href="#m72a181778c" x="75.575162" y="217.973921" style="fill: #0d3b66; stroke: #0d3b66"/>
     <use xlink:href="#m72a181778c" x="82.391189" y="212.19383" style="fill: #0d3b66; stroke: #0d3b66"/>
     <use xlink:href="#m72a181778c" x="203.61909" y="106.821307" style="fill: #0d3b66; stroke: #0d3b66"/>
     <use xlink:href="#m72a181778c" x="88.720356" y="206.935991" style="fill: #0d3b66; stroke: #0d3b66"/>
     <use xlink:href="#m72a181778c" x="198.263641" y="116.282716" style="fill: #0d3b66; stroke: #0d3b66"/>
     <use xlink:href="#m72a181778c" x="74.114585" y="218.925077" style="fill: #0d3b66; stroke: #0d3b66"/>
     <use xlink:href="#m72a181778c" x="199.724218" y="114.935887" style="fill: #0d3b66; stroke: #0d3b66"/>
     <use xlink:href="#m72a181778c" x="82.878048" y="208.250341" style="fill: #0d3b66; stroke: #0d3b66"/>
     <use xlink:href="#m72a181778c" x="71.68029" y="221.148299" style="fill: #0d3b66; stroke: #0d3b66"/>
     <use xlink:href="#m72a181778c" x="78.009457" y="215.904407" style="fill: #0d3b66; stroke: #0d3b66"/>
     <use xlink:href="#m72a181778c" x="78.496316" y="215.438582" style="fill: #0d3b66; stroke: #0d3b66"/>
     <use xlink:href="#m72a181778c" x="74.601444" y="218.738162" style="fill: #0d3b66; stroke: #0d3b66"/>
     <use xlink:href="#m72a181778c" x="75.088303" y="218.338659" style="fill: #0d3b66; stroke: #0d3b66"/>
     <use xlink:href="#m72a181778c" x="253.278713" y="65.590198" style="fill: #0d3b66; stroke: #0d3b66"/>
     <use xlink:href="#m72a181778c" x="71.68029" y="220.947424" style="fill: #0d3b66; stroke: #0d3b66"/>
     <use xlink:href="#m72a181778c" x="205.566527" y="107.20185" style="fill: #0d3b66; stroke: #0d3b66"/>
     <use xlink:href="#m72a181778c" x="206.540245" y="109.261857" style="fill: #0d3b66; stroke: #0d3b66"/>
     <use xlink:href="#m72a181778c" x="208.97454" y="102.833443" style="fill: #0d3b66; stroke: #0d3b66"/>
     <use xlink:href="#m72a181778c" x="74.601444" y="218.493653" style="fill: #0d3b66; stroke: #0d3b66"/>
     <use xlink:href="#m72a181778c" x="77.035739" y="216.722478" style="fill: #0d3b66; stroke: #0d3b66"/>
     <use xlink:href="#m72a181778c" x="75.575162" y="217.926832" style="fill: #0d3b66; stroke: #0d3b66"/>
     <use xlink:href="#m72a181778c" x="74.601444" y="218.625674" style="fill: #0d3b66; stroke: #0d3b66"/>
     <use xlink:href="#m72a181778c" x="210.435117" y="106.929186" style="fill: #0d3b66; stroke: #0d3b66"/>
     <use xlink:href="#m72a181778c" x="103.326128" y="194.43168" style="fill: #0d3b66; stroke: #0d3b66"/>
     <use xlink:href="#m72a181778c" x="166.130944" y="140.114711" style="fill: #0d3b66; stroke: #0d3b66"/>
     <use xlink:href="#m72a181778c" x="96.023242" y="201.401073" style="fill: #0d3b66; stroke: #0d3b66"/>
     <use xlink:href="#m72a181778c" x="251.331277" y="65.880511" style="fill: #0d3b66; stroke: #0d3b66"/>
     <use xlink:href="#m72a181778c" x="104.299846" y="194.417408" style="fill: #0d3b66; stroke: #0d3b66"/>
     <use xlink:href="#m72a181778c" x="210.435117" y="107.004079" style="fill: #0d3b66; stroke: #0d3b66"/>
     <use xlink:href="#m72a181778c" x="195.342487" y="115.280938" style="fill: #0d3b66; stroke: #0d3b66"/>
     <use xlink:href="#m72a181778c" x="209.948258" y="106.580031" style="fill: #0d3b66; stroke: #0d3b66"/>
     <use xlink:href="#m72a181778c" x="83.364907" y="211.039046" style="fill: #0d3b66; stroke: #0d3b66"/>
     <use xlink:href="#m72a181778c" x="225.527747" y="93.513898" style="fill: #0d3b66; stroke: #0d3b66"/>
     <use xlink:href="#m72a181778c" x="199.724218" y="111.621164" style="fill: #0d3b66; stroke: #0d3b66"/>
     <use xlink:href="#m72a181778c" x="88.720356" y="206.988366" style="fill: #0d3b66; stroke: #0d3b66"/>
     <use xlink:href="#m72a181778c" x="203.61909" y="112.202998" style="fill: #0d3b66; stroke: #0d3b66"/>
     <use xlink:href="#m72a181778c" x="77.035739" y="215.884564" style="fill: #0d3b66; stroke: #0d3b66"/>
     <use xlink:href="#m72a181778c" x="74.601444" y="218.633907" style="fill: #0d3b66; stroke: #0d3b66"/>
     <use xlink:href="#m72a181778c" x="74.114585" y="219.059124" style="fill: #0d3b66; stroke: #0d3b66"/>
     <use xlink:href="#m72a181778c" x="100.404973" y="193.541352" style="fill: #0d3b66; stroke: #0d3b66"/>
     <use xlink:href="#m72a181778c" x="70.219713" y="222.191256" style="fill: #0d3b66; stroke: #0d3b66"/>
     <use xlink:href="#m72a181778c" x="76.062021" y="217.483564" style="fill: #0d3b66; stroke: #0d3b66"/>
     <use xlink:href="#m72a181778c" x="205.079668" y="110.047917" style="fill: #0d3b66; stroke: #0d3b66"/>
     <use xlink:href="#m72a181778c" x="206.540245" y="104.917592" style="fill: #0d3b66; stroke: #0d3b66"/>
     <use xlink:href="#m72a181778c" x="81.90433" y="212.522414" style="fill: #0d3b66; stroke: #0d3b66"/>
     <use xlink:href="#m72a181778c" x="74.601444" y="218.795641" style="fill: #0d3b66; stroke: #0d3b66"/>
     <use xlink:href="#m72a181778c" x="198.7505" y="115.581459" style="fill: #0d3b66; stroke: #0d3b66"/>
     <use xlink:href="#m72a181778c" x="206.053386" y="105.472388" style="fill: #0d3b66; stroke: #0d3b66"/>
     <use xlink:href="#m72a181778c" x="198.263641" y="116.049336" style="fill: #0d3b66; stroke: #0d3b66"/>
     <use xlink:href="#m72a181778c" x="75.088303" y="218.071099" style="fill: #0d3b66; stroke: #0d3b66"/>
     <use xlink:href="#m72a181778c" x="110.142154" y="189.174503" style="fill: #0d3b66; stroke: #0d3b66"/>
     <use xlink:href="#m72a181778c" x="103.326128" y="195.021669" style="fill: #0d3b66; stroke: #0d3b66"/>
     <use xlink:href="#m72a181778c" x="75.575162" y="217.759306" style="fill: #0d3b66; stroke: #0d3b66"/>
     <use xlink:href="#m72a181778c" x="86.286061" y="209.068736" style="fill: #0d3b66; stroke: #0d3b66"/>
     <use xlink:href="#m72a181778c" x="88.720356" y="203.313372" style="fill: #0d3b66; stroke: #0d3b66"/>
     <use xlink:href="#m72a181778c" x="75.575162" y="217.747527" style="fill: #0d3b66; stroke: #0d3b66"/>
     <use xlink:href="#m72a181778c" x="90.667793" y="205.024043" style="fill: #0d3b66; stroke: #0d3b66"/>
     <use xlink:href="#m72a181778c" x="205.566527" y="109.058489" style="fill: #0d3b66; stroke: #0d3b66"/>
     <use xlink:href="#m72a181778c" x="122.800489" y="161.918425" style="fill: #0d3b66; stroke: #0d3b66"/>
     <use xlink:href="#m72a181778c" x="189.500178" y="99.43697" style="fill: #0d3b66; stroke: #0d3b66"/>
     <use xlink:href="#m72a181778c" x="201.184795" y="107.572445" style="fill: #0d3b66; stroke: #0d3b66"/>
     <use xlink:href="#m72a181778c" x="75.088303" y="217.409671" style="fill: #0d3b66; stroke: #0d3b66"/>
     <use xlink:href="#m72a181778c" x="68.272277" y="223.314899" style="fill: #0d3b66; stroke: #0d3b66"/>
     <use xlink:href="#m72a181778c" x="216.277426" y="91.816408" style="fill: #0d3b66; stroke: #0d3b66"/>
     <use xlink:href="#m72a181778c" x="103.326128" y="192.996595" style="fill: #0d3b66; stroke: #0d3b66"/>
     <use xlink:href="#m72a181778c" x="202.158513" y="109.134057" style="fill: #0d3b66; stroke: #0d3b66"/>
     <use xlink:href="#m72a181778c" x="74.114585" y="218.022906" style="fill: #0d3b66; stroke: #0d3b66"/>
     <use xlink:href="#m72a181778c" x="231.856915" y="78.915386" style="fill: #0d3b66; stroke: #0d3b66"/>
     <use xlink:href="#m72a181778c" x="208.97454" y="99.160293" style="fill: #0d3b66; stroke: #0d3b66"/>
     <use xlink:href="#m72a181778c" x="248.896981" y="68.492899" style="fill: #0d3b66; stroke: #0d3b66"/>
     <use xlink:href="#m72a181778c" x="83.851766" y="209.896326" style="fill: #0d3b66; stroke: #0d3b66"/>
     <use xlink:href="#m72a181778c" x="69.732854" y="222.17379" style="fill: #0d3b66; stroke: #0d3b66"/>
     <use xlink:href="#m72a181778c" x="75.088303" y="217.534445" style="fill: #0d3b66; stroke: #0d3b66"/>
     <use xlink:href="#m72a181778c" x="203.61909" y="104.427339" style="fill: #0d3b66; stroke: #0d3b66"/>
     <use xlink:href="#m72a181778c" x="75.088303" y="216.607885" style="fill: #0d3b66; stroke: #0d3b66"/>
     <use xlink:href="#m72a181778c" x="89.694074" y="198.627925" style="fill: #0d3b66; stroke: #0d3b66"/>
     <use xlink:href="#m72a181778c" x="204.105949" y="92.379775" style="fill: #0d3b66; stroke: #0d3b66"/>
     <use xlink:href="#m72a181778c" x="75.088303" y="217.18081" style="fill: #0d3b66; stroke: #0d3b66"/>
     <use xlink:href="#m72a181778c" x="201.671654" y="106.14288" style="fill: #0d3b66; stroke: #0d3b66"/>
     <use xlink:href="#m72a181778c" x="95.049524" y="200.323246" style="fill: #0d3b66; stroke: #0d3b66"/>
     <use xlink:href="#m72a181778c" x="88.233497" y="206.419662" style="fill: #0d3b66; stroke: #0d3b66"/>
     <use xlink:href="#m72a181778c" x="74.601444" y="218.034074" style="fill: #0d3b66; stroke: #0d3b66"/>
     <use xlink:href="#m72a181778c" x="73.627726" y="218.833133" style="fill: #0d3b66; stroke: #0d3b66"/>
     <use xlink:href="#m72a181778c" x="203.61909" y="108.128968" style="fill: #0d3b66; stroke: #0d3b66"/>
     <use xlink:href="#m72a181778c" x="205.079668" y="102.561168" style="fill: #0d3b66; stroke: #0d3b66"/>
     <use xlink:href="#m72a181778c" x="209.948258" y="98.050636" style="fill: #0d3b66; stroke: #0d3b66"/>
     <use xlink:href="#m72a181778c" x="121.826771" y="177.977164" style="fill: #0d3b66; stroke: #0d3b66"/>
    </g>
   </g>
   <g id="line2d_18">
    <path d="M 46.850479 242.203399 
L 49.309363 240.086887 
L 51.768247 237.970374 
L 54.227131 235.853862 
L 56.686015 233.737349 
L 59.144899 231.620837 
L 61.603783 229.504325 
L 64.062667 227.387812 
L 66.521551 225.2713 
L 68.980435 223.154788 
L 71.439319 221.038275 
L 73.898203 218.921763 
L 76.357087 216.80525 
L 78.815971 214.688738 
L 81.274855 212.572226 
L 83.73374 210.455713 
L 86.192624 208.339201 
L 88.651508 206.222689 
L 91.110392 204.106176 
L 93.569276 201.989664 
L 96.02816 199.873151 
L 98.487044 197.756639 
L 100.945928 195.640127 
L 103.404812 193.523614 
L 105.863696 191.407102 
L 108.32258 189.29059 
L 110.781464 187.174077 
L 113.240348 185.057565 
L 115.699232 182.941053 
L 118.158116 180.82454 
L 120.617 178.708028 
L 123.075884 176.591515 
L 125.534768 174.475003 
L 127.993652 172.358491 
L 130.452537 170.241978 
L 132.911421 168.125466 
L 135.370305 166.008954 
L 137.829189 163.892441 
L 140.288073 161.775929 
L 142.746957 159.659416 
L 145.205841 157.542904 
L 147.664725 155.426392 
L 150.123609 153.309879 
L 152.582493 151.193367 
L 155.041377 149.076855 
L 157.500261 146.960342 
L 159.959145 144.84383 
L 162.418029 142.727317 
L 164.876913 140.610805 
L 167.335797 138.494293 
L 169.794681 136.37778 
L 172.253565 134.261268 
L 174.712449 132.144756 
L 177.171334 130.028243 
L 179.630218 127.911731 
L 182.089102 125.795218 
L 184.547986 123.678706 
L 187.00687 121.562194 
L 189.465754 119.445681 
L 191.924638 117.329169 
L 194.383522 115.212657 
L 196.842406 113.096144 
L 199.30129 110.979632 
L 201.760174 108.863119 
L 204.219058 106.746607 
L 206.677942 104.630095 
L 209.136826 102.513582 
L 211.59571 100.39707 
L 214.054594 98.280558 
L 216.513478 96.164045 
L 218.972362 94.047533 
L 221.431247 91.93102 
L 223.890131 89.814508 
L 226.349015 87.697996 
L 228.807899 85.581483 
L 231.266783 83.464971 
L 233.725667 81.348459 
L 236.184551 79.231946 
L 238.643435 77.115434 
L 241.102319 74.998922 
L 243.561203 72.882409 
L 246.020087 70.765897 
L 248.478971 68.649384 
L 250.937855 66.532872 
L 253.396739 64.41636 
L 255.855623 62.299847 
L 258.314507 60.183335 
L 260.773391 58.066823 
L 263.232275 55.95031 
L 265.691159 53.833798 
L 268.150044 51.717285 
L 270.608928 49.600773 
L 273.067812 47.484261 
L 275.526696 45.367748 
L 277.98558 43.251236 
L 280.444464 41.134724 
L 282.903348 39.018211 
L 285.362232 36.901699 
L 287.821116 34.785186 
L 290.28 32.668674 
" clip-path="url(#pac131c5d6a)" style="fill: none; stroke-dasharray: 5.55,2.4; stroke-dashoffset: 0; stroke: #0d3b66; stroke-width: 1.5"/>
   </g>
   <g id="line2d_19">
    <defs>
     <path id="m65a4ae98e4" d="M 0 1.5 
C 0.397805 1.5 0.77937 1.341951 1.06066 1.06066 
C 1.341951 0.77937 1.5 0.397805 1.5 0 
C 1.5 -0.397805 1.341951 -0.77937 1.06066 -1.06066 
C 0.77937 -1.341951 0.397805 -1.5 0 -1.5 
C -0.397805 -1.5 -0.77937 -1.341951 -1.06066 -1.06066 
C -1.341951 -0.77937 -1.5 -0.397805 -1.5 0 
C -1.5 0.397805 -1.341951 0.77937 -1.06066 1.06066 
C -0.77937 1.341951 -0.397805 1.5 0 1.5 
z
" style="stroke: #0e9595"/>
    </defs>
    <g clip-path="url(#pac131c5d6a)">
     <use xlink:href="#m65a4ae98e4" x="75.575162" y="56.855474" style="fill: #0e9595; stroke: #0e9595"/>
     <use xlink:href="#m65a4ae98e4" x="79.470035" y="94.171261" style="fill: #0e9595; stroke: #0e9595"/>
     <use xlink:href="#m65a4ae98e4" x="74.114585" y="96.30946" style="fill: #0e9595; stroke: #0e9595"/>
     <use xlink:href="#m65a4ae98e4" x="89.207215" y="92.657478" style="fill: #0e9595; stroke: #0e9595"/>
     <use xlink:href="#m65a4ae98e4" x="227.475184" y="46.048211" style="fill: #0e9595; stroke: #0e9595"/>
     <use xlink:href="#m65a4ae98e4" x="166.130944" y="68.590947" style="fill: #0e9595; stroke: #0e9595"/>
     <use xlink:href="#m65a4ae98e4" x="83.364907" y="92.860782" style="fill: #0e9595; stroke: #0e9595"/>
     <use xlink:href="#m65a4ae98e4" x="210.435117" y="49.967558" style="fill: #0e9595; stroke: #0e9595"/>
     <use xlink:href="#m65a4ae98e4" x="77.035739" y="97.63564" style="fill: #0e9595; stroke: #0e9595"/>
     <use xlink:href="#m65a4ae98e4" x="124.261066" y="78.545816" style="fill: #0e9595; stroke: #0e9595"/>
     <use xlink:href="#m65a4ae98e4" x="83.364907" y="93.638529" style="fill: #0e9595; stroke: #0e9595"/>
     <use xlink:href="#m65a4ae98e4" x="194.855628" y="53.693589" style="fill: #0e9595; stroke: #0e9595"/>
     <use xlink:href="#m65a4ae98e4" x="75.088303" y="93.681891" style="fill: #0e9595; stroke: #0e9595"/>
     <use xlink:href="#m65a4ae98e4" x="75.575162" y="95.730068" style="fill: #0e9595; stroke: #0e9595"/>
     <use xlink:href="#m65a4ae98e4" x="204.105949" y="52.467171" style="fill: #0e9595; stroke: #0e9595"/>
     <use xlink:href="#m65a4ae98e4" x="74.601444" y="96.724898" style="fill: #0e9595; stroke: #0e9595"/>
     <use xlink:href="#m65a4ae98e4" x="75.088303" y="92.137227" style="fill: #0e9595; stroke: #0e9595"/>
     <use xlink:href="#m65a4ae98e4" x="208.487681" y="52.692383" style="fill: #0e9595; stroke: #0e9595"/>
     <use xlink:href="#m65a4ae98e4" x="75.088303" y="97.460232" style="fill: #0e9595; stroke: #0e9595"/>
     <use xlink:href="#m65a4ae98e4" x="251.818136" y="36.134716" style="fill: #0e9595; stroke: #0e9595"/>
     <use xlink:href="#m65a4ae98e4" x="200.211077" y="56.18641" style="fill: #0e9595; stroke: #0e9595"/>
     <use xlink:href="#m65a4ae98e4" x="200.211077" y="54.994835" style="fill: #0e9595; stroke: #0e9595"/>
     <use xlink:href="#m65a4ae98e4" x="74.114585" y="95.59245" style="fill: #0e9595; stroke: #0e9595"/>
     <use xlink:href="#m65a4ae98e4" x="283.950832" y="28.327201" style="fill: #0e9595; stroke: #0e9595"/>
     <use xlink:href="#m65a4ae98e4" x="93.102088" y="90.582458" style="fill: #0e9595; stroke: #0e9595"/>
     <use xlink:href="#m65a4ae98e4" x="208.97454" y="49.697011" style="fill: #0e9595; stroke: #0e9595"/>
     <use xlink:href="#m65a4ae98e4" x="104.299846" y="85.801223" style="fill: #0e9595; stroke: #0e9595"/>
     <use xlink:href="#m65a4ae98e4" x="200.211077" y="53.642942" style="fill: #0e9595; stroke: #0e9595"/>
     <use xlink:href="#m65a4ae98e4" x="97.970678" y="86.811819" style="fill: #0e9595; stroke: #0e9595"/>
     <use xlink:href="#m65a4ae98e4" x="103.326128" y="83.945091" style="fill: #0e9595; stroke: #0e9595"/>
     <use xlink:href="#m65a4ae98e4" x="75.575162" y="97.749895" style="fill: #0e9595; stroke: #0e9595"/>
     <use xlink:href="#m65a4ae98e4" x="96.023242" y="91.726841" style="fill: #0e9595; stroke: #0e9595"/>
     <use xlink:href="#m65a4ae98e4" x="68.272277" y="98.112335" style="fill: #0e9595; stroke: #0e9595"/>
     <use xlink:href="#m65a4ae98e4" x="210.921976" y="53.056083" style="fill: #0e9595; stroke: #0e9595"/>
     <use xlink:href="#m65a4ae98e4" x="74.114585" y="97.816906" style="fill: #0e9595; stroke: #0e9595"/>
     <use xlink:href="#m65a4ae98e4" x="83.364907" y="93.637516" style="fill: #0e9595; stroke: #0e9595"/>
     <use xlink:href="#m65a4ae98e4" x="199.724218" y="52.156457" style="fill: #0e9595; stroke: #0e9595"/>
     <use xlink:href="#m65a4ae98e4" x="107.221" y="85.2914" style="fill: #0e9595; stroke: #0e9595"/>
     <use xlink:href="#m65a4ae98e4" x="77.522598" y="93.653386" style="fill: #0e9595; stroke: #0e9595"/>
     <use xlink:href="#m65a4ae98e4" x="98.944396" y="83.039128" style="fill: #0e9595; stroke: #0e9595"/>
     <use xlink:href="#m65a4ae98e4" x="204.105949" y="53.248581" style="fill: #0e9595; stroke: #0e9595"/>
     <use xlink:href="#m65a4ae98e4" x="88.720356" y="86.811053" style="fill: #0e9595; stroke: #0e9595"/>
     <use xlink:href="#m65a4ae98e4" x="241.107237" y="40.395141" style="fill: #0e9595; stroke: #0e9595"/>
     <use xlink:href="#m65a4ae98e4" x="125.234785" y="80.156777" style="fill: #0e9595; stroke: #0e9595"/>
     <use xlink:href="#m65a4ae98e4" x="208.487681" y="52.239882" style="fill: #0e9595; stroke: #0e9595"/>
     <use xlink:href="#m65a4ae98e4" x="201.184795" y="52.699448" style="fill: #0e9595; stroke: #0e9595"/>
     <use xlink:href="#m65a4ae98e4" x="100.404973" y="88.40204" style="fill: #0e9595; stroke: #0e9595"/>
     <use xlink:href="#m65a4ae98e4" x="77.522598" y="96.915124" style="fill: #0e9595; stroke: #0e9595"/>
     <use xlink:href="#m65a4ae98e4" x="74.601444" y="88.961498" style="fill: #0e9595; stroke: #0e9595"/>
     <use xlink:href="#m65a4ae98e4" x="199.724218" y="55.050885" style="fill: #0e9595; stroke: #0e9595"/>
     <use xlink:href="#m65a4ae98e4" x="208.97454" y="54.204581" style="fill: #0e9595; stroke: #0e9595"/>
     <use xlink:href="#m65a4ae98e4" x="83.364907" y="95.787494" style="fill: #0e9595; stroke: #0e9595"/>
     <use xlink:href="#m65a4ae98e4" x="82.878048" y="87.532374" style="fill: #0e9595; stroke: #0e9595"/>
     <use xlink:href="#m65a4ae98e4" x="127.182221" y="77.553116" style="fill: #0e9595; stroke: #0e9595"/>
     <use xlink:href="#m65a4ae98e4" x="73.627726" y="96.124649" style="fill: #0e9595; stroke: #0e9595"/>
     <use xlink:href="#m65a4ae98e4" x="75.575162" y="89.832112" style="fill: #0e9595; stroke: #0e9595"/>
     <use xlink:href="#m65a4ae98e4" x="82.391189" y="91.408139" style="fill: #0e9595; stroke: #0e9595"/>
     <use xlink:href="#m65a4ae98e4" x="203.61909" y="52.519767" style="fill: #0e9595; stroke: #0e9595"/>
     <use xlink:href="#m65a4ae98e4" x="88.720356" y="89.715325" style="fill: #0e9595; stroke: #0e9595"/>
     <use xlink:href="#m65a4ae98e4" x="198.263641" y="51.981477" style="fill: #0e9595; stroke: #0e9595"/>
     <use xlink:href="#m65a4ae98e4" x="74.114585" y="91.941845" style="fill: #0e9595; stroke: #0e9595"/>
     <use xlink:href="#m65a4ae98e4" x="199.724218" y="48.330742" style="fill: #0e9595; stroke: #0e9595"/>
     <use xlink:href="#m65a4ae98e4" x="82.878048" y="91.339155" style="fill: #0e9595; stroke: #0e9595"/>
     <use xlink:href="#m65a4ae98e4" x="71.68029" y="93.650126" style="fill: #0e9595; stroke: #0e9595"/>
     <use xlink:href="#m65a4ae98e4" x="78.009457" y="95.987551" style="fill: #0e9595; stroke: #0e9595"/>
     <use xlink:href="#m65a4ae98e4" x="78.496316" y="97.180879" style="fill: #0e9595; stroke: #0e9595"/>
     <use xlink:href="#m65a4ae98e4" x="74.601444" y="98.389428" style="fill: #0e9595; stroke: #0e9595"/>
     <use xlink:href="#m65a4ae98e4" x="75.088303" y="99.718465" style="fill: #0e9595; stroke: #0e9595"/>
     <use xlink:href="#m65a4ae98e4" x="253.278713" y="21.306005" style="fill: #0e9595; stroke: #0e9595"/>
     <use xlink:href="#m65a4ae98e4" x="71.68029" y="98.675533" style="fill: #0e9595; stroke: #0e9595"/>
     <use xlink:href="#m65a4ae98e4" x="205.566527" y="56.810606" style="fill: #0e9595; stroke: #0e9595"/>
     <use xlink:href="#m65a4ae98e4" x="206.540245" y="55.280603" style="fill: #0e9595; stroke: #0e9595"/>
     <use xlink:href="#m65a4ae98e4" x="208.97454" y="55.597135" style="fill: #0e9595; stroke: #0e9595"/>
     <use xlink:href="#m65a4ae98e4" x="74.601444" y="97.052768" style="fill: #0e9595; stroke: #0e9595"/>
     <use xlink:href="#m65a4ae98e4" x="77.035739" y="98.385519" style="fill: #0e9595; stroke: #0e9595"/>
     <use xlink:href="#m65a4ae98e4" x="75.575162" y="98.346391" style="fill: #0e9595; stroke: #0e9595"/>
     <use xlink:href="#m65a4ae98e4" x="74.601444" y="98.199604" style="fill: #0e9595; stroke: #0e9595"/>
     <use xlink:href="#m65a4ae98e4" x="210.435117" y="54.64733" style="fill: #0e9595; stroke: #0e9595"/>
     <use xlink:href="#m65a4ae98e4" x="103.326128" y="89.727909" style="fill: #0e9595; stroke: #0e9595"/>
     <use xlink:href="#m65a4ae98e4" x="166.130944" y="69.432588" style="fill: #0e9595; stroke: #0e9595"/>
     <use xlink:href="#m65a4ae98e4" x="96.023242" y="91.559977" style="fill: #0e9595; stroke: #0e9595"/>
     <use xlink:href="#m65a4ae98e4" x="251.331277" y="39.945614" style="fill: #0e9595; stroke: #0e9595"/>
     <use xlink:href="#m65a4ae98e4" x="104.299846" y="89.883811" style="fill: #0e9595; stroke: #0e9595"/>
     <use xlink:href="#m65a4ae98e4" x="210.435117" y="54.532997" style="fill: #0e9595; stroke: #0e9595"/>
     <use xlink:href="#m65a4ae98e4" x="195.342487" y="58.751995" style="fill: #0e9595; stroke: #0e9595"/>
     <use xlink:href="#m65a4ae98e4" x="209.948258" y="55.955822" style="fill: #0e9595; stroke: #0e9595"/>
     <use xlink:href="#m65a4ae98e4" x="83.364907" y="96.337147" style="fill: #0e9595; stroke: #0e9595"/>
     <use xlink:href="#m65a4ae98e4" x="225.527747" y="49.114632" style="fill: #0e9595; stroke: #0e9595"/>
     <use xlink:href="#m65a4ae98e4" x="199.724218" y="57.348168" style="fill: #0e9595; stroke: #0e9595"/>
     <use xlink:href="#m65a4ae98e4" x="88.720356" y="94.04089" style="fill: #0e9595; stroke: #0e9595"/>
     <use xlink:href="#m65a4ae98e4" x="203.61909" y="55.860475" style="fill: #0e9595; stroke: #0e9595"/>
     <use xlink:href="#m65a4ae98e4" x="77.035739" y="97.591889" style="fill: #0e9595; stroke: #0e9595"/>
     <use xlink:href="#m65a4ae98e4" x="74.601444" y="99.374609" style="fill: #0e9595; stroke: #0e9595"/>
     <use xlink:href="#m65a4ae98e4" x="74.114585" y="98.815787" style="fill: #0e9595; stroke: #0e9595"/>
     <use xlink:href="#m65a4ae98e4" x="100.404973" y="91.13941" style="fill: #0e9595; stroke: #0e9595"/>
     <use xlink:href="#m65a4ae98e4" x="70.219713" y="100.875574" style="fill: #0e9595; stroke: #0e9595"/>
     <use xlink:href="#m65a4ae98e4" x="76.062021" y="97.879734" style="fill: #0e9595; stroke: #0e9595"/>
     <use xlink:href="#m65a4ae98e4" x="205.079668" y="56.139997" style="fill: #0e9595; stroke: #0e9595"/>
     <use xlink:href="#m65a4ae98e4" x="206.540245" y="55.771726" style="fill: #0e9595; stroke: #0e9595"/>
     <use xlink:href="#m65a4ae98e4" x="81.90433" y="97.20171" style="fill: #0e9595; stroke: #0e9595"/>
     <use xlink:href="#m65a4ae98e4" x="74.601444" y="99.367479" style="fill: #0e9595; stroke: #0e9595"/>
     <use xlink:href="#m65a4ae98e4" x="198.7505" y="59.375138" style="fill: #0e9595; stroke: #0e9595"/>
     <use xlink:href="#m65a4ae98e4" x="206.053386" y="54.820466" style="fill: #0e9595; stroke: #0e9595"/>
     <use xlink:href="#m65a4ae98e4" x="198.263641" y="57.709414" style="fill: #0e9595; stroke: #0e9595"/>
     <use xlink:href="#m65a4ae98e4" x="75.088303" y="99.003442" style="fill: #0e9595; stroke: #0e9595"/>
     <use xlink:href="#m65a4ae98e4" x="110.142154" y="88.536853" style="fill: #0e9595; stroke: #0e9595"/>
     <use xlink:href="#m65a4ae98e4" x="103.326128" y="90.933561" style="fill: #0e9595; stroke: #0e9595"/>
     <use xlink:href="#m65a4ae98e4" x="75.575162" y="96.067704" style="fill: #0e9595; stroke: #0e9595"/>
     <use xlink:href="#m65a4ae98e4" x="86.286061" y="95.220257" style="fill: #0e9595; stroke: #0e9595"/>
     <use xlink:href="#m65a4ae98e4" x="88.720356" y="94.743381" style="fill: #0e9595; stroke: #0e9595"/>
     <use xlink:href="#m65a4ae98e4" x="75.575162" y="99.259496" style="fill: #0e9595; stroke: #0e9595"/>
     <use xlink:href="#m65a4ae98e4" x="90.667793" y="93.725409" style="fill: #0e9595; stroke: #0e9595"/>
     <use xlink:href="#m65a4ae98e4" x="205.566527" y="53.917502" style="fill: #0e9595; stroke: #0e9595"/>
     <use xlink:href="#m65a4ae98e4" x="122.800489" y="78.823467" style="fill: #0e9595; stroke: #0e9595"/>
     <use xlink:href="#m65a4ae98e4" x="189.500178" y="58.499667" style="fill: #0e9595; stroke: #0e9595"/>
     <use xlink:href="#m65a4ae98e4" x="201.184795" y="56.831631" style="fill: #0e9595; stroke: #0e9595"/>
     <use xlink:href="#m65a4ae98e4" x="75.088303" y="99.60047" style="fill: #0e9595; stroke: #0e9595"/>
     <use xlink:href="#m65a4ae98e4" x="68.272277" y="99.934638" style="fill: #0e9595; stroke: #0e9595"/>
     <use xlink:href="#m65a4ae98e4" x="216.277426" y="52.167638" style="fill: #0e9595; stroke: #0e9595"/>
     <use xlink:href="#m65a4ae98e4" x="103.326128" y="88.970511" style="fill: #0e9595; stroke: #0e9595"/>
     <use xlink:href="#m65a4ae98e4" x="202.158513" y="57.151189" style="fill: #0e9595; stroke: #0e9595"/>
     <use xlink:href="#m65a4ae98e4" x="74.114585" y="98.112166" style="fill: #0e9595; stroke: #0e9595"/>
     <use xlink:href="#m65a4ae98e4" x="231.856915" y="47.512853" style="fill: #0e9595; stroke: #0e9595"/>
     <use xlink:href="#m65a4ae98e4" x="208.97454" y="53.75621" style="fill: #0e9595; stroke: #0e9595"/>
     <use xlink:href="#m65a4ae98e4" x="248.896981" y="42.478901" style="fill: #0e9595; stroke: #0e9595"/>
     <use xlink:href="#m65a4ae98e4" x="83.851766" y="95.445248" style="fill: #0e9595; stroke: #0e9595"/>
     <use xlink:href="#m65a4ae98e4" x="69.732854" y="100.983349" style="fill: #0e9595; stroke: #0e9595"/>
     <use xlink:href="#m65a4ae98e4" x="75.088303" y="97.635328" style="fill: #0e9595; stroke: #0e9595"/>
     <use xlink:href="#m65a4ae98e4" x="203.61909" y="56.965768" style="fill: #0e9595; stroke: #0e9595"/>
     <use xlink:href="#m65a4ae98e4" x="75.088303" y="98.743634" style="fill: #0e9595; stroke: #0e9595"/>
     <use xlink:href="#m65a4ae98e4" x="89.694074" y="96.096365" style="fill: #0e9595; stroke: #0e9595"/>
     <use xlink:href="#m65a4ae98e4" x="204.105949" y="56.272238" style="fill: #0e9595; stroke: #0e9595"/>
     <use xlink:href="#m65a4ae98e4" x="75.088303" y="97.623017" style="fill: #0e9595; stroke: #0e9595"/>
     <use xlink:href="#m65a4ae98e4" x="201.671654" y="58.443527" style="fill: #0e9595; stroke: #0e9595"/>
     <use xlink:href="#m65a4ae98e4" x="95.049524" y="92.222392" style="fill: #0e9595; stroke: #0e9595"/>
     <use xlink:href="#m65a4ae98e4" x="88.233497" y="92.706035" style="fill: #0e9595; stroke: #0e9595"/>
     <use xlink:href="#m65a4ae98e4" x="74.601444" y="98.523033" style="fill: #0e9595; stroke: #0e9595"/>
     <use xlink:href="#m65a4ae98e4" x="73.627726" y="98.434218" style="fill: #0e9595; stroke: #0e9595"/>
     <use xlink:href="#m65a4ae98e4" x="203.61909" y="56.094674" style="fill: #0e9595; stroke: #0e9595"/>
     <use xlink:href="#m65a4ae98e4" x="205.079668" y="53.670889" style="fill: #0e9595; stroke: #0e9595"/>
     <use xlink:href="#m65a4ae98e4" x="209.948258" y="54.424313" style="fill: #0e9595; stroke: #0e9595"/>
     <use xlink:href="#m65a4ae98e4" x="121.826771" y="82.305183" style="fill: #0e9595; stroke: #0e9595"/>
    </g>
   </g>
   <g id="line2d_20">
    <path d="M 46.850479 105.635396 
L 49.309363 104.833216 
L 51.768247 104.031037 
L 54.227131 103.228857 
L 56.686015 102.426677 
L 59.144899 101.624498 
L 61.603783 100.822318 
L 64.062667 100.020139 
L 66.521551 99.217959 
L 68.980435 98.41578 
L 71.439319 97.6136 
L 73.898203 96.811421 
L 76.357087 96.009241 
L 78.815971 95.207062 
L 81.274855 94.404882 
L 83.73374 93.602703 
L 86.192624 92.800523 
L 88.651508 91.998344 
L 91.110392 91.196164 
L 93.569276 90.393985 
L 96.02816 89.591805 
L 98.487044 88.789625 
L 100.945928 87.987446 
L 103.404812 87.185266 
L 105.863696 86.383087 
L 108.32258 85.580907 
L 110.781464 84.778728 
L 113.240348 83.976548 
L 115.699232 83.174369 
L 118.158116 82.372189 
L 120.617 81.57001 
L 123.075884 80.76783 
L 125.534768 79.965651 
L 127.993652 79.163471 
L 130.452537 78.361292 
L 132.911421 77.559112 
L 135.370305 76.756933 
L 137.829189 75.954753 
L 140.288073 75.152574 
L 142.746957 74.350394 
L 145.205841 73.548214 
L 147.664725 72.746035 
L 150.123609 71.943855 
L 152.582493 71.141676 
L 155.041377 70.339496 
L 157.500261 69.537317 
L 159.959145 68.735137 
L 162.418029 67.932958 
L 164.876913 67.130778 
L 167.335797 66.328599 
L 169.794681 65.526419 
L 172.253565 64.72424 
L 174.712449 63.92206 
L 177.171334 63.119881 
L 179.630218 62.317701 
L 182.089102 61.515522 
L 184.547986 60.713342 
L 187.00687 59.911162 
L 189.465754 59.108983 
L 191.924638 58.306803 
L 194.383522 57.504624 
L 196.842406 56.702444 
L 199.30129 55.900265 
L 201.760174 55.098085 
L 204.219058 54.295906 
L 206.677942 53.493726 
L 209.136826 52.691547 
L 211.59571 51.889367 
L 214.054594 51.087188 
L 216.513478 50.285008 
L 218.972362 49.482829 
L 221.431247 48.680649 
L 223.890131 47.87847 
L 226.349015 47.07629 
L 228.807899 46.274111 
L 231.266783 45.471931 
L 233.725667 44.669751 
L 236.184551 43.867572 
L 238.643435 43.065392 
L 241.102319 42.263213 
L 243.561203 41.461033 
L 246.020087 40.658854 
L 248.478971 39.856674 
L 250.937855 39.054495 
L 253.396739 38.252315 
L 255.855623 37.450136 
L 258.314507 36.647956 
L 260.773391 35.845777 
L 263.232275 35.043597 
L 265.691159 34.241418 
L 268.150044 33.439238 
L 270.608928 32.637059 
L 273.067812 31.834879 
L 275.526696 31.0327 
L 277.98558 30.23052 
L 280.444464 29.42834 
L 282.903348 28.626161 
L 285.362232 27.823981 
L 287.821116 27.021802 
L 290.28 26.219622 
" clip-path="url(#pac131c5d6a)" style="fill: none; stroke-dasharray: 5.55,2.4; stroke-dashoffset: 0; stroke: #0e9595; stroke-width: 1.5"/>
   </g>
   <g id="patch_3">
    <path d="M 61.45625 242.38375 
L 61.45625 13.6128 
" style="fill: none; stroke: #000000; stroke-width: 0.8; stroke-linejoin: miter; stroke-linecap: square"/>
   </g>
   <g id="patch_4">
    <path d="M 290.28 242.38375 
L 290.28 13.6128 
" style="fill: none; stroke: #000000; stroke-width: 0.8; stroke-linejoin: miter; stroke-linecap: square"/>
   </g>
   <g id="patch_5">
    <path d="M 61.45625 242.38375 
L 290.28 242.38375 
" style="fill: none; stroke: #000000; stroke-width: 0.8; stroke-linejoin: miter; stroke-linecap: square"/>
   </g>
   <g id="patch_6">
    <path d="M 61.45625 13.6128 
L 290.28 13.6128 
" style="fill: none; stroke: #000000; stroke-width: 0.8; stroke-linejoin: miter; stroke-linecap: square"/>
   </g>
   <g id="legend_1">
    <g id="patch_7">
     <path d="M 298.68 118.195922 
L 416.80875 118.195922 
Q 419.20875 118.195922 419.20875 115.795922 
L 419.20875 15.149672 
Q 419.20875 12.749672 416.80875 12.749672 
L 298.68 12.749672 
Q 296.28 12.749672 296.28 15.149672 
L 296.28 115.795922 
Q 296.28 118.195922 298.68 118.195922 
z
" style="fill: #ffffff; opacity: 0.8; stroke: #cccccc; stroke-linejoin: miter"/>
    </g>
    <g id="line2d_21">
     <g>
      <use xlink:href="#m9a1d6eb357" x="313.08" y="21.939047" style="fill: #bf4e30; stroke: #bf4e30"/>
     </g>
    </g>
    <g id="text_17">
     <!-- CARBonAra -->
     <g transform="translate(334.68 26.139047) scale(0.12 -0.12)">
      <defs>
       <path id="ArialMT-43" d="M 3763 1606 
L 4369 1453 
Q 4178 706 3683 314 
Q 3188 -78 2472 -78 
Q 1731 -78 1267 223 
Q 803 525 561 1097 
Q 319 1669 319 2325 
Q 319 3041 592 3573 
Q 866 4106 1370 4382 
Q 1875 4659 2481 4659 
Q 3169 4659 3637 4309 
Q 4106 3959 4291 3325 
L 3694 3184 
Q 3534 3684 3231 3912 
Q 2928 4141 2469 4141 
Q 1941 4141 1586 3887 
Q 1231 3634 1087 3207 
Q 944 2781 944 2328 
Q 944 1744 1114 1308 
Q 1284 872 1643 656 
Q 2003 441 2422 441 
Q 2931 441 3284 734 
Q 3638 1028 3763 1606 
z
" transform="scale(0.015625)"/>
       <path id="ArialMT-41" d="M -9 0 
L 1750 4581 
L 2403 4581 
L 4278 0 
L 3588 0 
L 3053 1388 
L 1138 1388 
L 634 0 
L -9 0 
z
M 1313 1881 
L 2866 1881 
L 2388 3150 
Q 2169 3728 2063 4100 
Q 1975 3659 1816 3225 
L 1313 1881 
z
" transform="scale(0.015625)"/>
       <path id="ArialMT-52" d="M 503 0 
L 503 4581 
L 2534 4581 
Q 3147 4581 3465 4457 
Q 3784 4334 3975 4021 
Q 4166 3709 4166 3331 
Q 4166 2844 3850 2509 
Q 3534 2175 2875 2084 
Q 3116 1969 3241 1856 
Q 3506 1613 3744 1247 
L 4541 0 
L 3778 0 
L 3172 953 
Q 2906 1366 2734 1584 
Q 2563 1803 2427 1890 
Q 2291 1978 2150 2013 
Q 2047 2034 1813 2034 
L 1109 2034 
L 1109 0 
L 503 0 
z
M 1109 2559 
L 2413 2559 
Q 2828 2559 3062 2645 
Q 3297 2731 3419 2920 
Q 3541 3109 3541 3331 
Q 3541 3656 3305 3865 
Q 3069 4075 2559 4075 
L 1109 4075 
L 1109 2559 
z
" transform="scale(0.015625)"/>
       <path id="ArialMT-42" d="M 469 0 
L 469 4581 
L 2188 4581 
Q 2713 4581 3030 4442 
Q 3347 4303 3526 4014 
Q 3706 3725 3706 3409 
Q 3706 3116 3547 2856 
Q 3388 2597 3066 2438 
Q 3481 2316 3704 2022 
Q 3928 1728 3928 1328 
Q 3928 1006 3792 729 
Q 3656 453 3456 303 
Q 3256 153 2954 76 
Q 2653 0 2216 0 
L 469 0 
z
M 1075 2656 
L 2066 2656 
Q 2469 2656 2644 2709 
Q 2875 2778 2992 2937 
Q 3109 3097 3109 3338 
Q 3109 3566 3000 3739 
Q 2891 3913 2687 3977 
Q 2484 4041 1991 4041 
L 1075 4041 
L 1075 2656 
z
M 1075 541 
L 2216 541 
Q 2509 541 2628 563 
Q 2838 600 2978 687 
Q 3119 775 3209 942 
Q 3300 1109 3300 1328 
Q 3300 1584 3169 1773 
Q 3038 1963 2805 2039 
Q 2572 2116 2134 2116 
L 1075 2116 
L 1075 541 
z
" transform="scale(0.015625)"/>
       <path id="ArialMT-6f" d="M 213 1659 
Q 213 2581 725 3025 
Q 1153 3394 1769 3394 
Q 2453 3394 2887 2945 
Q 3322 2497 3322 1706 
Q 3322 1066 3130 698 
Q 2938 331 2570 128 
Q 2203 -75 1769 -75 
Q 1072 -75 642 372 
Q 213 819 213 1659 
z
M 791 1659 
Q 791 1022 1069 705 
Q 1347 388 1769 388 
Q 2188 388 2466 706 
Q 2744 1025 2744 1678 
Q 2744 2294 2464 2611 
Q 2184 2928 1769 2928 
Q 1347 2928 1069 2612 
Q 791 2297 791 1659 
z
" transform="scale(0.015625)"/>
       <path id="ArialMT-72" d="M 416 0 
L 416 3319 
L 922 3319 
L 922 2816 
Q 1116 3169 1280 3281 
Q 1444 3394 1641 3394 
Q 1925 3394 2219 3213 
L 2025 2691 
Q 1819 2813 1613 2813 
Q 1428 2813 1281 2702 
Q 1134 2591 1072 2394 
Q 978 2094 978 1738 
L 978 0 
L 416 0 
z
" transform="scale(0.015625)"/>
       <path id="ArialMT-61" d="M 2588 409 
Q 2275 144 1986 34 
Q 1697 -75 1366 -75 
Q 819 -75 525 192 
Q 231 459 231 875 
Q 231 1119 342 1320 
Q 453 1522 633 1644 
Q 813 1766 1038 1828 
Q 1203 1872 1538 1913 
Q 2219 1994 2541 2106 
Q 2544 2222 2544 2253 
Q 2544 2597 2384 2738 
Q 2169 2928 1744 2928 
Q 1347 2928 1158 2789 
Q 969 2650 878 2297 
L 328 2372 
Q 403 2725 575 2942 
Q 747 3159 1072 3276 
Q 1397 3394 1825 3394 
Q 2250 3394 2515 3294 
Q 2781 3194 2906 3042 
Q 3031 2891 3081 2659 
Q 3109 2516 3109 2141 
L 3109 1391 
Q 3109 606 3145 398 
Q 3181 191 3288 0 
L 2700 0 
Q 2613 175 2588 409 
z
M 2541 1666 
Q 2234 1541 1622 1453 
Q 1275 1403 1131 1340 
Q 988 1278 909 1158 
Q 831 1038 831 891 
Q 831 666 1001 516 
Q 1172 366 1500 366 
Q 1825 366 2078 508 
Q 2331 650 2450 897 
Q 2541 1088 2541 1459 
L 2541 1666 
z
" transform="scale(0.015625)"/>
      </defs>
      <use xlink:href="#ArialMT-43"/>
      <use xlink:href="#ArialMT-41" x="72.216797"/>
      <use xlink:href="#ArialMT-52" x="138.916016"/>
      <use xlink:href="#ArialMT-42" x="211.132812"/>
      <use xlink:href="#ArialMT-6f" x="277.832031"/>
      <use xlink:href="#ArialMT-6e" x="333.447266"/>
      <use xlink:href="#ArialMT-41" x="389.0625"/>
      <use xlink:href="#ArialMT-72" x="455.761719"/>
      <use xlink:href="#ArialMT-61" x="489.0625"/>
     </g>
    </g>
    <g id="line2d_22">
     <path d="M 301.08 38.913422 
L 313.08 38.913422 
L 325.08 38.913422 
" style="fill: none; stroke-dasharray: 5.55,2.4; stroke-dashoffset: 0; stroke: #bf4e30; stroke-width: 1.5"/>
    </g>
    <g id="text_18">
     <!-- 0.65x + 26.2 -->
     <g transform="translate(334.68 43.113422) scale(0.12 -0.12)">
      <defs>
       <path id="ArialMT-2e" d="M 581 0 
L 581 641 
L 1222 641 
L 1222 0 
L 581 0 
z
" transform="scale(0.015625)"/>
       <path id="ArialMT-36" d="M 3184 3459 
L 2625 3416 
Q 2550 3747 2413 3897 
Q 2184 4138 1850 4138 
Q 1581 4138 1378 3988 
Q 1113 3794 959 3422 
Q 806 3050 800 2363 
Q 1003 2672 1297 2822 
Q 1591 2972 1913 2972 
Q 2475 2972 2870 2558 
Q 3266 2144 3266 1488 
Q 3266 1056 3080 686 
Q 2894 316 2569 119 
Q 2244 -78 1831 -78 
Q 1128 -78 684 439 
Q 241 956 241 2144 
Q 241 3472 731 4075 
Q 1159 4600 1884 4600 
Q 2425 4600 2770 4297 
Q 3116 3994 3184 3459 
z
M 888 1484 
Q 888 1194 1011 928 
Q 1134 663 1356 523 
Q 1578 384 1822 384 
Q 2178 384 2434 671 
Q 2691 959 2691 1453 
Q 2691 1928 2437 2201 
Q 2184 2475 1800 2475 
Q 1419 2475 1153 2201 
Q 888 1928 888 1484 
z
" transform="scale(0.015625)"/>
       <path id="ArialMT-78" d="M 47 0 
L 1259 1725 
L 138 3319 
L 841 3319 
L 1350 2541 
Q 1494 2319 1581 2169 
Q 1719 2375 1834 2534 
L 2394 3319 
L 3066 3319 
L 1919 1756 
L 3153 0 
L 2463 0 
L 1781 1031 
L 1600 1309 
L 728 0 
L 47 0 
z
" transform="scale(0.015625)"/>
       <path id="ArialMT-2b" d="M 1603 741 
L 1603 1997 
L 356 1997 
L 356 2522 
L 1603 2522 
L 1603 3769 
L 2134 3769 
L 2134 2522 
L 3381 2522 
L 3381 1997 
L 2134 1997 
L 2134 741 
L 1603 741 
z
" transform="scale(0.015625)"/>
      </defs>
      <use xlink:href="#ArialMT-30"/>
      <use xlink:href="#ArialMT-2e" x="55.615234"/>
      <use xlink:href="#ArialMT-36" x="83.398438"/>
      <use xlink:href="#ArialMT-35" x="139.013672"/>
      <use xlink:href="#ArialMT-78" x="194.628906"/>
      <use xlink:href="#ArialMT-20" x="244.628906"/>
      <use xlink:href="#ArialMT-2b" x="272.412109"/>
      <use xlink:href="#ArialMT-20" x="330.810547"/>
      <use xlink:href="#ArialMT-32" x="358.59375"/>
      <use xlink:href="#ArialMT-36" x="414.208984"/>
      <use xlink:href="#ArialMT-2e" x="469.824219"/>
      <use xlink:href="#ArialMT-32" x="497.607422"/>
     </g>
    </g>
    <g id="line2d_23">
     <g>
      <use xlink:href="#m72a181778c" x="313.08" y="55.887797" style="fill: #0d3b66; stroke: #0d3b66"/>
     </g>
    </g>
    <g id="text_19">
     <!-- ESM-IF1 -->
     <g transform="translate(334.68 60.087797) scale(0.12 -0.12)">
      <defs>
       <path id="ArialMT-45" d="M 506 0 
L 506 4581 
L 3819 4581 
L 3819 4041 
L 1113 4041 
L 1113 2638 
L 3647 2638 
L 3647 2100 
L 1113 2100 
L 1113 541 
L 3925 541 
L 3925 0 
L 506 0 
z
" transform="scale(0.015625)"/>
       <path id="ArialMT-53" d="M 288 1472 
L 859 1522 
Q 900 1178 1048 958 
Q 1197 738 1509 602 
Q 1822 466 2213 466 
Q 2559 466 2825 569 
Q 3091 672 3220 851 
Q 3350 1031 3350 1244 
Q 3350 1459 3225 1620 
Q 3100 1781 2813 1891 
Q 2628 1963 1997 2114 
Q 1366 2266 1113 2400 
Q 784 2572 623 2826 
Q 463 3081 463 3397 
Q 463 3744 659 4045 
Q 856 4347 1234 4503 
Q 1613 4659 2075 4659 
Q 2584 4659 2973 4495 
Q 3363 4331 3572 4012 
Q 3781 3694 3797 3291 
L 3216 3247 
Q 3169 3681 2898 3903 
Q 2628 4125 2100 4125 
Q 1550 4125 1298 3923 
Q 1047 3722 1047 3438 
Q 1047 3191 1225 3031 
Q 1400 2872 2139 2705 
Q 2878 2538 3153 2413 
Q 3553 2228 3743 1945 
Q 3934 1663 3934 1294 
Q 3934 928 3725 604 
Q 3516 281 3123 101 
Q 2731 -78 2241 -78 
Q 1619 -78 1198 103 
Q 778 284 539 648 
Q 300 1013 288 1472 
z
" transform="scale(0.015625)"/>
       <path id="ArialMT-4d" d="M 475 0 
L 475 4581 
L 1388 4581 
L 2472 1338 
Q 2622 884 2691 659 
Q 2769 909 2934 1394 
L 4031 4581 
L 4847 4581 
L 4847 0 
L 4263 0 
L 4263 3834 
L 2931 0 
L 2384 0 
L 1059 3900 
L 1059 0 
L 475 0 
z
" transform="scale(0.015625)"/>
       <path id="ArialMT-2d" d="M 203 1375 
L 203 1941 
L 1931 1941 
L 1931 1375 
L 203 1375 
z
" transform="scale(0.015625)"/>
       <path id="ArialMT-49" d="M 597 0 
L 597 4581 
L 1203 4581 
L 1203 0 
L 597 0 
z
" transform="scale(0.015625)"/>
       <path id="ArialMT-46" d="M 525 0 
L 525 4581 
L 3616 4581 
L 3616 4041 
L 1131 4041 
L 1131 2622 
L 3281 2622 
L 3281 2081 
L 1131 2081 
L 1131 0 
L 525 0 
z
" transform="scale(0.015625)"/>
      </defs>
      <use xlink:href="#ArialMT-45"/>
      <use xlink:href="#ArialMT-53" x="66.699219"/>
      <use xlink:href="#ArialMT-4d" x="133.398438"/>
      <use xlink:href="#ArialMT-2d" x="216.699219"/>
      <use xlink:href="#ArialMT-49" x="250"/>
      <use xlink:href="#ArialMT-46" x="277.783203"/>
      <use xlink:href="#ArialMT-31" x="338.867188"/>
     </g>
    </g>
    <g id="line2d_24">
     <path d="M 301.08 72.862172 
L 313.08 72.862172 
L 325.08 72.862172 
" style="fill: none; stroke-dasharray: 5.55,2.4; stroke-dashoffset: 0; stroke: #0d3b66; stroke-width: 1.5"/>
    </g>
    <g id="text_20">
     <!-- 7.69x + 3.3 -->
     <g transform="translate(334.68 77.062172) scale(0.12 -0.12)">
      <defs>
       <path id="ArialMT-37" d="M 303 3981 
L 303 4522 
L 3269 4522 
L 3269 4084 
Q 2831 3619 2401 2847 
Q 1972 2075 1738 1259 
Q 1569 684 1522 0 
L 944 0 
Q 953 541 1156 1306 
Q 1359 2072 1739 2783 
Q 2119 3494 2547 3981 
L 303 3981 
z
" transform="scale(0.015625)"/>
       <path id="ArialMT-39" d="M 350 1059 
L 891 1109 
Q 959 728 1153 556 
Q 1347 384 1650 384 
Q 1909 384 2104 503 
Q 2300 622 2425 820 
Q 2550 1019 2634 1356 
Q 2719 1694 2719 2044 
Q 2719 2081 2716 2156 
Q 2547 1888 2255 1720 
Q 1963 1553 1622 1553 
Q 1053 1553 659 1965 
Q 266 2378 266 3053 
Q 266 3750 677 4175 
Q 1088 4600 1706 4600 
Q 2153 4600 2523 4359 
Q 2894 4119 3086 3673 
Q 3278 3228 3278 2384 
Q 3278 1506 3087 986 
Q 2897 466 2520 194 
Q 2144 -78 1638 -78 
Q 1100 -78 759 220 
Q 419 519 350 1059 
z
M 2653 3081 
Q 2653 3566 2395 3850 
Q 2138 4134 1775 4134 
Q 1400 4134 1122 3828 
Q 844 3522 844 3034 
Q 844 2597 1108 2323 
Q 1372 2050 1759 2050 
Q 2150 2050 2401 2323 
Q 2653 2597 2653 3081 
z
" transform="scale(0.015625)"/>
      </defs>
      <use xlink:href="#ArialMT-37"/>
      <use xlink:href="#ArialMT-2e" x="55.615234"/>
      <use xlink:href="#ArialMT-36" x="83.398438"/>
      <use xlink:href="#ArialMT-39" x="139.013672"/>
      <use xlink:href="#ArialMT-78" x="194.628906"/>
      <use xlink:href="#ArialMT-20" x="244.628906"/>
      <use xlink:href="#ArialMT-2b" x="272.412109"/>
      <use xlink:href="#ArialMT-20" x="330.810547"/>
      <use xlink:href="#ArialMT-33" x="358.59375"/>
      <use xlink:href="#ArialMT-2e" x="414.208984"/>
      <use xlink:href="#ArialMT-33" x="441.992188"/>
     </g>
    </g>
    <g id="line2d_25">
     <g>
      <use xlink:href="#m65a4ae98e4" x="313.08" y="89.836547" style="fill: #0e9595; stroke: #0e9595"/>
     </g>
    </g>
    <g id="text_21">
     <!-- ProteinMPNN -->
     <g transform="translate(334.68 94.036547) scale(0.12 -0.12)">
      <defs>
       <path id="ArialMT-50" d="M 494 0 
L 494 4581 
L 2222 4581 
Q 2678 4581 2919 4538 
Q 3256 4481 3484 4323 
Q 3713 4166 3852 3881 
Q 3991 3597 3991 3256 
Q 3991 2672 3619 2267 
Q 3247 1863 2275 1863 
L 1100 1863 
L 1100 0 
L 494 0 
z
M 1100 2403 
L 2284 2403 
Q 2872 2403 3119 2622 
Q 3366 2841 3366 3238 
Q 3366 3525 3220 3729 
Q 3075 3934 2838 4000 
Q 2684 4041 2272 4041 
L 1100 4041 
L 1100 2403 
z
" transform="scale(0.015625)"/>
       <path id="ArialMT-4e" d="M 488 0 
L 488 4581 
L 1109 4581 
L 3516 984 
L 3516 4581 
L 4097 4581 
L 4097 0 
L 3475 0 
L 1069 3600 
L 1069 0 
L 488 0 
z
" transform="scale(0.015625)"/>
      </defs>
      <use xlink:href="#ArialMT-50"/>
      <use xlink:href="#ArialMT-72" x="66.699219"/>
      <use xlink:href="#ArialMT-6f" x="100"/>
      <use xlink:href="#ArialMT-74" x="155.615234"/>
      <use xlink:href="#ArialMT-65" x="183.398438"/>
      <use xlink:href="#ArialMT-69" x="239.013672"/>
      <use xlink:href="#ArialMT-6e" x="261.230469"/>
      <use xlink:href="#ArialMT-4d" x="316.845703"/>
      <use xlink:href="#ArialMT-50" x="400.146484"/>
      <use xlink:href="#ArialMT-4e" x="466.845703"/>
      <use xlink:href="#ArialMT-4e" x="539.0625"/>
     </g>
    </g>
    <g id="line2d_26">
     <path d="M 301.08 106.810922 
L 313.08 106.810922 
L 325.08 106.810922 
" style="fill: none; stroke-dasharray: 5.55,2.4; stroke-dashoffset: 0; stroke: #0e9595; stroke-width: 1.5"/>
    </g>
    <g id="text_22">
     <!-- 2.92x + 2510.6 -->
     <g transform="translate(334.68 111.010922) scale(0.12 -0.12)">
      <use xlink:href="#ArialMT-32"/>
      <use xlink:href="#ArialMT-2e" x="55.615234"/>
      <use xlink:href="#ArialMT-39" x="83.398438"/>
      <use xlink:href="#ArialMT-32" x="139.013672"/>
      <use xlink:href="#ArialMT-78" x="194.628906"/>
      <use xlink:href="#ArialMT-20" x="244.628906"/>
      <use xlink:href="#ArialMT-2b" x="272.412109"/>
      <use xlink:href="#ArialMT-20" x="330.810547"/>
      <use xlink:href="#ArialMT-32" x="358.59375"/>
      <use xlink:href="#ArialMT-35" x="414.208984"/>
      <use xlink:href="#ArialMT-31" x="469.824219"/>
      <use xlink:href="#ArialMT-30" x="525.439453"/>
      <use xlink:href="#ArialMT-2e" x="581.054688"/>
      <use xlink:href="#ArialMT-36" x="608.837891"/>
     </g>
    </g>
   </g>
  </g>
 </g>
 <defs>
  <clipPath id="pac131c5d6a">
   <rect x="61.45625" y="13.6128" width="228.82375" height="228.77095"/>
  </clipPath>
 </defs>
</svg>
