<?xml version="1.0" encoding="utf-8" standalone="no"?>
<!DOCTYPE svg PUBLIC "-//W3C//DTD SVG 1.1//EN"
  "http://www.w3.org/Graphics/SVG/1.1/DTD/svg11.dtd">
<svg xmlns:xlink="http://www.w3.org/1999/xlink" width="432pt" height="288pt" viewBox="0 0 432 288" xmlns="http://www.w3.org/2000/svg" version="1.1">
 <metadata>
  <rdf:RDF xmlns:dc="http://purl.org/dc/elements/1.1/" xmlns:cc="http://creativecommons.org/ns#" xmlns:rdf="http://www.w3.org/1999/02/22-rdf-syntax-ns#">
   <cc:Work>
    <dc:type rdf:resource="http://purl.org/dc/dcmitype/StillImage"/>
    <dc:date>2023-10-20T13:04:37.653146</dc:date>
    <dc:format>image/svg+xml</dc:format>
    <dc:creator>
     <cc:Agent>
      <dc:title>Matplotlib v3.7.1, https://matplotlib.org/</dc:title>
     </cc:Agent>
    </dc:creator>
   </cc:Work>
  </rdf:RDF>
 </metadata>
 <defs>
  <style type="text/css">*{stroke-linejoin: round; stroke-linecap: butt}</style>
 </defs>
 <g id="figure_1">
  <g id="patch_1">
   <path d="M 0 288 
L 432 288 
L 432 0 
L 0 0 
z
" style="fill: #ffffff"/>
  </g>
  <g id="axes_1">
   <g id="patch_2">
    <path d="M 47.81 246.04 
L 421.2 246.04 
L 421.2 14.538462 
L 47.81 14.538462 
z
" style="fill: #ffffff"/>
   </g>
   <g id="PolyCollection_1">
    <defs>
     <path id="m87a5f8fc72" d="M 63.496309 -58.962551 
L 61.994891 -58.962551 
L 61.847227 -60.07802 
L 61.683346 -61.19349 
L 61.50286 -62.308959 
L 61.30577 -63.424429 
L 61.092823 -64.539898 
L 60.865898 -65.655368 
L 60.628297 -66.770837 
L 60.384856 -67.886307 
L 60.141792 -69.001776 
L 59.906256 -70.117246 
L 59.685622 -71.232716 
L 59.486584 -72.348185 
L 59.31421 -73.463655 
L 59.1711 -74.579124 
L 59.056796 -75.694594 
L 58.967561 -76.810063 
L 58.896586 -77.925533 
L 58.834605 -79.041002 
L 58.770856 -80.156472 
L 58.694233 -81.271941 
L 58.594494 -82.387411 
L 58.463349 -83.50288 
L 58.295284 -84.61835 
L 58.088055 -85.733819 
L 57.842791 -86.849289 
L 57.563749 -87.964759 
L 57.257796 -89.080228 
L 56.933719 -90.195698 
L 56.601479 -91.311167 
L 56.271515 -92.426637 
L 55.95414 -93.542106 
L 55.659072 -94.657576 
L 55.395058 -95.773045 
L 55.16956 -96.888515 
L 54.988448 -98.003984 
L 54.855686 -99.119454 
L 54.773 -100.234923 
L 54.739589 -101.350393 
L 54.751963 -102.465862 
L 54.803977 -103.581332 
L 54.887156 -104.696802 
L 54.991326 -105.812271 
L 55.105488 -106.927741 
L 55.218833 -108.04321 
L 55.321718 -109.15868 
L 55.406399 -110.274149 
L 55.467392 -111.389619 
L 55.5014 -112.505088 
L 55.506839 -113.620558 
L 55.483155 -114.736027 
L 55.430137 -115.851497 
L 55.347465 -116.966966 
L 55.234671 -118.082436 
L 55.091538 -119.197905 
L 54.918888 -120.313375 
L 54.719523 -121.428845 
L 54.499091 -122.544314 
L 54.266589 -123.659784 
L 54.034309 -124.775253 
L 53.817163 -125.890723 
L 53.631421 -127.006192 
L 53.493072 -128.121662 
L 53.416077 -129.237131 
L 53.41085 -130.352601 
L 53.483238 -131.46807 
L 53.634181 -132.58354 
L 53.860083 -133.699009 
L 54.153759 -134.814479 
L 54.505694 -135.929948 
L 54.905323 -137.045418 
L 55.342057 -138.160887 
L 55.805883 -139.276357 
L 56.28754 -140.391827 
L 56.778372 -141.507296 
L 57.270056 -142.622766 
L 57.754407 -143.738235 
L 58.223396 -144.853705 
L 58.66943 -145.969174 
L 59.085825 -147.084644 
L 59.467364 -148.200113 
L 59.810774 -149.315583 
L 60.114996 -150.431052 
L 60.381182 -151.546522 
L 60.612416 -152.661991 
L 60.813199 -153.777461 
L 60.988813 -154.89293 
L 61.144671 -156.0084 
L 61.285737 -157.12387 
L 61.416126 -158.239339 
L 61.53888 -159.354809 
L 61.655944 -160.470278 
L 61.768293 -161.585748 
L 61.876153 -162.701217 
L 61.979254 -163.816687 
L 62.077065 -164.932156 
L 62.168971 -166.047626 
L 62.254388 -167.163095 
L 62.332821 -168.278565 
L 62.403888 -169.394034 
L 63.087312 -169.394034 
L 63.087312 -169.394034 
L 63.158379 -168.278565 
L 63.236812 -167.163095 
L 63.322229 -166.047626 
L 63.414135 -164.932156 
L 63.511946 -163.816687 
L 63.615047 -162.701217 
L 63.722907 -161.585748 
L 63.835256 -160.470278 
L 63.95232 -159.354809 
L 64.075074 -158.239339 
L 64.205463 -157.12387 
L 64.346529 -156.0084 
L 64.502387 -154.89293 
L 64.678001 -153.777461 
L 64.878784 -152.661991 
L 65.110018 -151.546522 
L 65.376204 -150.431052 
L 65.680426 -149.315583 
L 66.023836 -148.200113 
L 66.405375 -147.084644 
L 66.82177 -145.969174 
L 67.267804 -144.853705 
L 67.736793 -143.738235 
L 68.221144 -142.622766 
L 68.712828 -141.507296 
L 69.20366 -140.391827 
L 69.685317 -139.276357 
L 70.149143 -138.160887 
L 70.585877 -137.045418 
L 70.985506 -135.929948 
L 71.337441 -134.814479 
L 71.631117 -133.699009 
L 71.857019 -132.58354 
L 72.007962 -131.46807 
L 72.08035 -130.352601 
L 72.075123 -129.237131 
L 71.998128 -128.121662 
L 71.859779 -127.006192 
L 71.674037 -125.890723 
L 71.456891 -124.775253 
L 71.224611 -123.659784 
L 70.992109 -122.544314 
L 70.771677 -121.428845 
L 70.572312 -120.313375 
L 70.399662 -119.197905 
L 70.256529 -118.082436 
L 70.143735 -116.966966 
L 70.061063 -115.851497 
L 70.008045 -114.736027 
L 69.984361 -113.620558 
L 69.9898 -112.505088 
L 70.023808 -111.389619 
L 70.084801 -110.274149 
L 70.169482 -109.15868 
L 70.272367 -108.04321 
L 70.385712 -106.927741 
L 70.499874 -105.812271 
L 70.604044 -104.696802 
L 70.687223 -103.581332 
L 70.739237 -102.465862 
L 70.751611 -101.350393 
L 70.7182 -100.234923 
L 70.635514 -99.119454 
L 70.502752 -98.003984 
L 70.32164 -96.888515 
L 70.096142 -95.773045 
L 69.832128 -94.657576 
L 69.53706 -93.542106 
L 69.219685 -92.426637 
L 68.889721 -91.311167 
L 68.557481 -90.195698 
L 68.233404 -89.080228 
L 67.927451 -87.964759 
L 67.648409 -86.849289 
L 67.403145 -85.733819 
L 67.195916 -84.61835 
L 67.027851 -83.50288 
L 66.896706 -82.387411 
L 66.796967 -81.271941 
L 66.720344 -80.156472 
L 66.656595 -79.041002 
L 66.594614 -77.925533 
L 66.523639 -76.810063 
L 66.434404 -75.694594 
L 66.3201 -74.579124 
L 66.17699 -73.463655 
L 66.004616 -72.348185 
L 65.805578 -71.232716 
L 65.584944 -70.117246 
L 65.349408 -69.001776 
L 65.106344 -67.886307 
L 64.862903 -66.770837 
L 64.625302 -65.655368 
L 64.398377 -64.539898 
L 64.18543 -63.424429 
L 63.98834 -62.308959 
L 63.807854 -61.19349 
L 63.643973 -60.07802 
L 63.496309 -58.962551 
z
" style="stroke: #0d3b66; stroke-opacity: 0.3"/>
    </defs>
    <g clip-path="url(#p23216bd57b)">
     <use xlink:href="#m87a5f8fc72" x="0" y="288" style="fill: #0d3b66; fill-opacity: 0.3; stroke: #0d3b66; stroke-opacity: 0.3"/>
    </g>
   </g>
   <g id="PolyCollection_2">
    <defs>
     <path id="m4deda1852c" d="M 140.619635 -43.888736 
L 134.227565 -43.888736 
L 133.491863 -45.823125 
L 132.731095 -47.757514 
L 131.970966 -49.691903 
L 131.233755 -51.626292 
L 130.537721 -53.560681 
L 129.898358 -55.49507 
L 129.33048 -57.429459 
L 128.84977 -59.363848 
L 128.472782 -61.298237 
L 128.215176 -63.232626 
L 128.08885 -65.167015 
L 128.099095 -67.101404 
L 128.242856 -69.035793 
L 128.508674 -70.970182 
L 128.878217 -72.904571 
L 129.328832 -74.83896 
L 129.836322 -76.773349 
L 130.377314 -78.707738 
L 130.930843 -80.642128 
L 131.47914 -82.576517 
L 132.007819 -84.510906 
L 132.505787 -86.445295 
L 132.965102 -88.379684 
L 133.380873 -90.314073 
L 133.751164 -92.248462 
L 134.076735 -94.182851 
L 134.360521 -96.11724 
L 134.606871 -98.051629 
L 134.820688 -99.986018 
L 135.00673 -101.920407 
L 135.169242 -103.854796 
L 135.311981 -105.789185 
L 135.438482 -107.723574 
L 135.552305 -109.657963 
L 135.657072 -111.592352 
L 135.756188 -113.526741 
L 135.852386 -115.46113 
L 135.947305 -117.395519 
L 136.041339 -119.329908 
L 136.133823 -121.264297 
L 136.223495 -123.198686 
L 136.309014 -125.133075 
L 136.38933 -127.067464 
L 136.463818 -129.001853 
L 136.532207 -130.936242 
L 136.594442 -132.870631 
L 136.650636 -134.80502 
L 136.70113 -136.739409 
L 136.746597 -138.673798 
L 136.788072 -140.608187 
L 136.826812 -142.542576 
L 136.864013 -144.476965 
L 136.900462 -146.411354 
L 136.936293 -148.345743 
L 136.970903 -150.280133 
L 137.003084 -152.214522 
L 137.03129 -154.148911 
L 137.05398 -156.0833 
L 137.069951 -158.017689 
L 137.078622 -159.952078 
L 137.080219 -161.886467 
L 137.075822 -163.820856 
L 137.067252 -165.755245 
L 137.056789 -167.689634 
L 137.046797 -169.624023 
L 137.03933 -171.558412 
L 137.035858 -173.492801 
L 137.037154 -175.42719 
L 137.043351 -177.361579 
L 137.054099 -179.295968 
L 137.06872 -181.230357 
L 137.086323 -183.164746 
L 137.105887 -185.099135 
L 137.12634 -187.033524 
L 137.146691 -188.967913 
L 137.166187 -190.902302 
L 137.184438 -192.836691 
L 137.201442 -194.77108 
L 137.217448 -196.705469 
L 137.232709 -198.639858 
L 137.247211 -200.574247 
L 137.260502 -202.508636 
L 137.271731 -204.443025 
L 137.279892 -206.377414 
L 137.284205 -208.311803 
L 137.284479 -210.246192 
L 137.281314 -212.180581 
L 137.276043 -214.11497 
L 137.270445 -216.049359 
L 137.266318 -217.983748 
L 137.265068 -219.918137 
L 137.267454 -221.852527 
L 137.273531 -223.786916 
L 137.2828 -225.721305 
L 137.29445 -227.655694 
L 137.307611 -229.590083 
L 137.321528 -231.524472 
L 137.335619 -233.458861 
L 137.349452 -235.39325 
L 137.497748 -235.39325 
L 137.497748 -235.39325 
L 137.511581 -233.458861 
L 137.525672 -231.524472 
L 137.539589 -229.590083 
L 137.55275 -227.655694 
L 137.5644 -225.721305 
L 137.573669 -223.786916 
L 137.579746 -221.852527 
L 137.582132 -219.918137 
L 137.580882 -217.983748 
L 137.576755 -216.049359 
L 137.571157 -214.11497 
L 137.565886 -212.180581 
L 137.562721 -210.246192 
L 137.562995 -208.311803 
L 137.567308 -206.377414 
L 137.575469 -204.443025 
L 137.586698 -202.508636 
L 137.599989 -200.574247 
L 137.614491 -198.639858 
L 137.629752 -196.705469 
L 137.645758 -194.77108 
L 137.662762 -192.836691 
L 137.681013 -190.902302 
L 137.700509 -188.967913 
L 137.72086 -187.033524 
L 137.741313 -185.099135 
L 137.760877 -183.164746 
L 137.77848 -181.230357 
L 137.793101 -179.295968 
L 137.803849 -177.361579 
L 137.810046 -175.42719 
L 137.811342 -173.492801 
L 137.80787 -171.558412 
L 137.800403 -169.624023 
L 137.790411 -167.689634 
L 137.779948 -165.755245 
L 137.771378 -163.820856 
L 137.766981 -161.886467 
L 137.768578 -159.952078 
L 137.777249 -158.017689 
L 137.79322 -156.0833 
L 137.81591 -154.148911 
L 137.844116 -152.214522 
L 137.876297 -150.280133 
L 137.910907 -148.345743 
L 137.946738 -146.411354 
L 137.983187 -144.476965 
L 138.020388 -142.542576 
L 138.059128 -140.608187 
L 138.100603 -138.673798 
L 138.14607 -136.739409 
L 138.196564 -134.80502 
L 138.252758 -132.870631 
L 138.314993 -130.936242 
L 138.383382 -129.001853 
L 138.45787 -127.067464 
L 138.538186 -125.133075 
L 138.623705 -123.198686 
L 138.713377 -121.264297 
L 138.805861 -119.329908 
L 138.899895 -117.395519 
L 138.994814 -115.46113 
L 139.091012 -113.526741 
L 139.190128 -111.592352 
L 139.294895 -109.657963 
L 139.408718 -107.723574 
L 139.535219 -105.789185 
L 139.677958 -103.854796 
L 139.84047 -101.920407 
L 140.026512 -99.986018 
L 140.240329 -98.051629 
L 140.486679 -96.11724 
L 140.770465 -94.182851 
L 141.096036 -92.248462 
L 141.466327 -90.314073 
L 141.882098 -88.379684 
L 142.341413 -86.445295 
L 142.839381 -84.510906 
L 143.36806 -82.576517 
L 143.916357 -80.642128 
L 144.469886 -78.707738 
L 145.010878 -76.773349 
L 145.518368 -74.83896 
L 145.968983 -72.904571 
L 146.338526 -70.970182 
L 146.604344 -69.035793 
L 146.748105 -67.101404 
L 146.75835 -65.167015 
L 146.632024 -63.232626 
L 146.374418 -61.298237 
L 145.99743 -59.363848 
L 145.51672 -57.429459 
L 144.948842 -55.49507 
L 144.309479 -53.560681 
L 143.613445 -51.626292 
L 142.876234 -49.691903 
L 142.116105 -47.757514 
L 141.355337 -45.823125 
L 140.619635 -43.888736 
z
" style="stroke: #0d3b66; stroke-opacity: 0.3"/>
    </defs>
    <g clip-path="url(#p23216bd57b)">
     <use xlink:href="#m4deda1852c" x="0" y="288" style="fill: #0d3b66; fill-opacity: 0.3; stroke: #0d3b66; stroke-opacity: 0.3"/>
    </g>
   </g>
   <g id="PolyCollection_3">
    <defs>
     <path id="m91fa6a8d1c" d="M 214.867852 -43.463164 
L 209.335348 -43.463164 
L 208.70228 -45.308837 
L 208.013173 -47.15451 
L 207.28645 -49.000183 
L 206.544895 -50.845856 
L 205.814013 -52.691529 
L 205.119957 -54.537203 
L 204.487335 -56.382876 
L 203.937192 -58.228549 
L 203.48543 -60.074222 
L 203.141883 -61.919895 
L 202.91006 -63.765569 
L 202.787543 -65.611242 
L 202.76685 -67.456915 
L 202.836586 -69.302588 
L 202.982684 -71.148261 
L 203.189597 -72.993934 
L 203.441351 -74.839608 
L 203.722434 -76.685281 
L 204.018541 -78.530954 
L 204.31717 -80.376627 
L 204.60809 -82.2223 
L 204.883657 -84.067973 
L 205.138942 -85.913647 
L 205.371642 -87.75932 
L 205.581757 -89.604993 
L 205.771053 -91.450666 
L 205.942374 -93.296339 
L 206.098901 -95.142012 
L 206.243464 -96.987686 
L 206.378033 -98.833359 
L 206.503459 -100.679032 
L 206.619508 -102.524705 
L 206.725159 -104.370378 
L 206.819106 -106.216051 
L 206.900328 -108.061725 
L 206.968604 -109.907398 
L 207.024858 -111.753071 
L 207.071237 -113.598744 
L 207.110925 -115.444417 
L 207.147709 -117.290091 
L 207.185403 -119.135764 
L 207.227247 -120.981437 
L 207.27539 -122.82711 
L 207.330554 -124.672783 
L 207.391914 -126.518456 
L 207.45721 -128.36413 
L 207.523021 -130.209803 
L 207.585174 -132.055476 
L 207.639206 -133.901149 
L 207.680822 -135.746822 
L 207.706334 -137.592495 
L 207.713033 -139.438169 
L 207.699505 -141.283842 
L 207.665858 -143.129515 
L 207.613858 -144.975188 
L 207.546959 -146.820861 
L 207.470192 -148.666534 
L 207.38994 -150.512208 
L 207.313559 -152.357881 
L 207.248908 -154.203554 
L 207.203799 -156.049227 
L 207.185427 -157.8949 
L 207.199839 -159.740573 
L 207.251494 -161.586247 
L 207.342954 -163.43192 
L 207.474747 -165.277593 
L 207.645389 -167.123266 
L 207.851565 -168.968939 
L 208.088436 -170.814613 
L 208.350021 -172.660286 
L 208.629625 -174.505959 
L 208.92025 -176.351632 
L 209.214975 -178.197305 
L 209.50727 -180.042978 
L 209.791241 -181.888652 
L 210.061801 -183.734325 
L 210.314789 -185.579998 
L 210.547035 -187.425671 
L 210.756394 -189.271344 
L 210.941741 -191.117017 
L 211.102947 -192.962691 
L 211.240802 -194.808364 
L 211.356905 -196.654037 
L 211.453504 -198.49971 
L 211.533287 -200.345383 
L 211.599159 -202.191056 
L 211.654006 -204.03673 
L 211.700483 -205.882403 
L 211.740857 -207.728076 
L 211.776905 -209.573749 
L 211.809893 -211.419422 
L 211.840615 -213.265095 
L 211.869474 -215.110769 
L 211.896599 -216.956442 
L 211.921957 -218.802115 
L 211.945452 -220.647788 
L 211.966994 -222.493461 
L 211.986543 -224.339135 
L 212.004116 -226.184808 
L 212.199084 -226.184808 
L 212.199084 -226.184808 
L 212.216657 -224.339135 
L 212.236206 -222.493461 
L 212.257748 -220.647788 
L 212.281243 -218.802115 
L 212.306601 -216.956442 
L 212.333726 -215.110769 
L 212.362585 -213.265095 
L 212.393307 -211.419422 
L 212.426295 -209.573749 
L 212.462343 -207.728076 
L 212.502717 -205.882403 
L 212.549194 -204.03673 
L 212.604041 -202.191056 
L 212.669913 -200.345383 
L 212.749696 -198.49971 
L 212.846295 -196.654037 
L 212.962398 -194.808364 
L 213.100253 -192.962691 
L 213.261459 -191.117017 
L 213.446806 -189.271344 
L 213.656165 -187.425671 
L 213.888411 -185.579998 
L 214.141399 -183.734325 
L 214.411959 -181.888652 
L 214.69593 -180.042978 
L 214.988225 -178.197305 
L 215.28295 -176.351632 
L 215.573575 -174.505959 
L 215.853179 -172.660286 
L 216.114764 -170.814613 
L 216.351635 -168.968939 
L 216.557811 -167.123266 
L 216.728453 -165.277593 
L 216.860246 -163.43192 
L 216.951706 -161.586247 
L 217.003361 -159.740573 
L 217.017773 -157.8949 
L 216.999401 -156.049227 
L 216.954292 -154.203554 
L 216.889641 -152.357881 
L 216.81326 -150.512208 
L 216.733008 -148.666534 
L 216.656241 -146.820861 
L 216.589342 -144.975188 
L 216.537342 -143.129515 
L 216.503695 -141.283842 
L 216.490167 -139.438169 
L 216.496866 -137.592495 
L 216.522378 -135.746822 
L 216.563994 -133.901149 
L 216.618026 -132.055476 
L 216.680179 -130.209803 
L 216.74599 -128.36413 
L 216.811286 -126.518456 
L 216.872646 -124.672783 
L 216.92781 -122.82711 
L 216.975953 -120.981437 
L 217.017797 -119.135764 
L 217.055491 -117.290091 
L 217.092275 -115.444417 
L 217.131963 -113.598744 
L 217.178342 -111.753071 
L 217.234596 -109.907398 
L 217.302872 -108.061725 
L 217.384094 -106.216051 
L 217.478041 -104.370378 
L 217.583692 -102.524705 
L 217.699741 -100.679032 
L 217.825167 -98.833359 
L 217.959736 -96.987686 
L 218.104299 -95.142012 
L 218.260826 -93.296339 
L 218.432147 -91.450666 
L 218.621443 -89.604993 
L 218.831558 -87.75932 
L 219.064258 -85.913647 
L 219.319543 -84.067973 
L 219.59511 -82.2223 
L 219.88603 -80.376627 
L 220.184659 -78.530954 
L 220.480766 -76.685281 
L 220.761849 -74.839608 
L 221.013603 -72.993934 
L 221.220516 -71.148261 
L 221.366614 -69.302588 
L 221.43635 -67.456915 
L 221.415657 -65.611242 
L 221.29314 -63.765569 
L 221.061317 -61.919895 
L 220.71777 -60.074222 
L 220.266008 -58.228549 
L 219.715865 -56.382876 
L 219.083243 -54.537203 
L 218.389187 -52.691529 
L 217.658305 -50.845856 
L 216.91675 -49.000183 
L 216.190027 -47.15451 
L 215.50092 -45.308837 
L 214.867852 -43.463164 
z
" style="stroke: #0d3b66; stroke-opacity: 0.3"/>
    </defs>
    <g clip-path="url(#p23216bd57b)">
     <use xlink:href="#m91fa6a8d1c" x="0" y="288" style="fill: #0d3b66; fill-opacity: 0.3; stroke: #0d3b66; stroke-opacity: 0.3"/>
    </g>
   </g>
   <g id="PolyCollection_4">
    <defs>
     <path id="m6c2a769188" d="M 294.068478 -47.586799 
L 279.490722 -47.586799 
L 279.071942 -49.820689 
L 278.708452 -52.054578 
L 278.408566 -54.288468 
L 278.178752 -56.522357 
L 278.02335 -58.756247 
L 277.944425 -60.990136 
L 277.941732 -63.224026 
L 278.012809 -65.457915 
L 278.153181 -67.691805 
L 278.356658 -69.925694 
L 278.615704 -72.159584 
L 278.921844 -74.393473 
L 279.266085 -76.627363 
L 279.639317 -78.861252 
L 280.032679 -81.095142 
L 280.437859 -83.329031 
L 280.847331 -85.562921 
L 281.254512 -87.79681 
L 281.653843 -90.0307 
L 282.040808 -92.264589 
L 282.411888 -94.498479 
L 282.764483 -96.732368 
L 283.096788 -98.966258 
L 283.40767 -101.200147 
L 283.696533 -103.434037 
L 283.963186 -105.667926 
L 284.207736 -107.901816 
L 284.430486 -110.135705 
L 284.631866 -112.369595 
L 284.812376 -114.603484 
L 284.972544 -116.837374 
L 285.112911 -119.071263 
L 285.234013 -121.305153 
L 285.336377 -123.539042 
L 285.420521 -125.772932 
L 285.486952 -128.006821 
L 285.53616 -130.240711 
L 285.568615 -132.4746 
L 285.584751 -134.70849 
L 285.584956 -136.942379 
L 285.569547 -139.176269 
L 285.538754 -141.410158 
L 285.492696 -143.644048 
L 285.431361 -145.877937 
L 285.354593 -148.111827 
L 285.262081 -150.345716 
L 285.15336 -152.579606 
L 285.027822 -154.813496 
L 284.884738 -157.047385 
L 284.7233 -159.281275 
L 284.542668 -161.515164 
L 284.342035 -163.749054 
L 284.120708 -165.982943 
L 283.878188 -168.216833 
L 283.614261 -170.450722 
L 283.32909 -172.684612 
L 283.023295 -174.918501 
L 282.698026 -177.152391 
L 282.355016 -179.38628 
L 281.996614 -181.62017 
L 281.625784 -183.854059 
L 281.246081 -186.087949 
L 280.861586 -188.321838 
L 280.476822 -190.555728 
L 280.09663 -192.789617 
L 279.726032 -195.023507 
L 279.37007 -197.257396 
L 279.033644 -199.491286 
L 278.721351 -201.725175 
L 278.437328 -203.959065 
L 278.185121 -206.192954 
L 277.967583 -208.426844 
L 277.786794 -210.660733 
L 277.644031 -212.894623 
L 277.539763 -215.128512 
L 277.473698 -217.362402 
L 277.44485 -219.596291 
L 277.451642 -221.830181 
L 277.492031 -224.06407 
L 277.56365 -226.29796 
L 277.663946 -228.531849 
L 277.790328 -230.765739 
L 277.94029 -232.999628 
L 278.111528 -235.233518 
L 278.302021 -237.467407 
L 278.510084 -239.701297 
L 278.73439 -241.935186 
L 278.973953 -244.169076 
L 279.228083 -246.402965 
L 279.496305 -248.636855 
L 279.778267 -250.870744 
L 280.073621 -253.104634 
L 280.381906 -255.338523 
L 280.702438 -257.572413 
L 281.034209 -259.806302 
L 281.37582 -262.040192 
L 281.725435 -264.274081 
L 282.08078 -266.507971 
L 282.439172 -268.74186 
L 291.120028 -268.74186 
L 291.120028 -268.74186 
L 291.47842 -266.507971 
L 291.833765 -264.274081 
L 292.18338 -262.040192 
L 292.524991 -259.806302 
L 292.856762 -257.572413 
L 293.177294 -255.338523 
L 293.485579 -253.104634 
L 293.780933 -250.870744 
L 294.062895 -248.636855 
L 294.331117 -246.402965 
L 294.585247 -244.169076 
L 294.82481 -241.935186 
L 295.049116 -239.701297 
L 295.257179 -237.467407 
L 295.447672 -235.233518 
L 295.61891 -232.999628 
L 295.768872 -230.765739 
L 295.895254 -228.531849 
L 295.99555 -226.29796 
L 296.067169 -224.06407 
L 296.107558 -221.830181 
L 296.11435 -219.596291 
L 296.085502 -217.362402 
L 296.019437 -215.128512 
L 295.915169 -212.894623 
L 295.772406 -210.660733 
L 295.591617 -208.426844 
L 295.374079 -206.192954 
L 295.121872 -203.959065 
L 294.837849 -201.725175 
L 294.525556 -199.491286 
L 294.18913 -197.257396 
L 293.833168 -195.023507 
L 293.46257 -192.789617 
L 293.082378 -190.555728 
L 292.697614 -188.321838 
L 292.313119 -186.087949 
L 291.933416 -183.854059 
L 291.562586 -181.62017 
L 291.204184 -179.38628 
L 290.861174 -177.152391 
L 290.535905 -174.918501 
L 290.23011 -172.684612 
L 289.944939 -170.450722 
L 289.681012 -168.216833 
L 289.438492 -165.982943 
L 289.217165 -163.749054 
L 289.016532 -161.515164 
L 288.8359 -159.281275 
L 288.674462 -157.047385 
L 288.531378 -154.813496 
L 288.40584 -152.579606 
L 288.297119 -150.345716 
L 288.204607 -148.111827 
L 288.127839 -145.877937 
L 288.066504 -143.644048 
L 288.020446 -141.410158 
L 287.989653 -139.176269 
L 287.974244 -136.942379 
L 287.974449 -134.70849 
L 287.990585 -132.4746 
L 288.02304 -130.240711 
L 288.072248 -128.006821 
L 288.138679 -125.772932 
L 288.222823 -123.539042 
L 288.325187 -121.305153 
L 288.446289 -119.071263 
L 288.586656 -116.837374 
L 288.746824 -114.603484 
L 288.927334 -112.369595 
L 289.128714 -110.135705 
L 289.351464 -107.901816 
L 289.596014 -105.667926 
L 289.862667 -103.434037 
L 290.15153 -101.200147 
L 290.462412 -98.966258 
L 290.794717 -96.732368 
L 291.147312 -94.498479 
L 291.518392 -92.264589 
L 291.905357 -90.0307 
L 292.304688 -87.79681 
L 292.711869 -85.562921 
L 293.121341 -83.329031 
L 293.526521 -81.095142 
L 293.919883 -78.861252 
L 294.293115 -76.627363 
L 294.637356 -74.393473 
L 294.943496 -72.159584 
L 295.202542 -69.925694 
L 295.406019 -67.691805 
L 295.546391 -65.457915 
L 295.617468 -63.224026 
L 295.614775 -60.990136 
L 295.53585 -58.756247 
L 295.380448 -56.522357 
L 295.150634 -54.288468 
L 294.850748 -52.054578 
L 294.487258 -49.820689 
L 294.068478 -47.586799 
z
" style="stroke: #0d3b66; stroke-opacity: 0.3"/>
    </defs>
    <g clip-path="url(#p23216bd57b)">
     <use xlink:href="#m6c2a769188" x="0" y="288" style="fill: #0d3b66; fill-opacity: 0.3; stroke: #0d3b66; stroke-opacity: 0.3"/>
    </g>
   </g>
   <g id="PolyCollection_5">
    <defs>
     <path id="m29a0985284" d="M 361.518483 -251.956794 
L 361.396717 -251.956794 
L 361.392621 -252.167782 
L 361.390308 -252.37877 
L 361.389625 -252.589758 
L 361.390115 -252.800746 
L 361.391099 -253.011734 
L 361.391806 -253.222722 
L 361.391533 -253.43371 
L 361.389782 -253.644698 
L 361.386363 -253.855686 
L 361.381411 -254.066674 
L 361.375344 -254.277663 
L 361.368754 -254.488651 
L 361.362288 -254.699639 
L 361.356535 -254.910627 
L 361.35195 -255.121615 
L 361.348827 -255.332603 
L 361.347306 -255.543591 
L 361.347399 -255.754579 
L 361.349005 -255.965567 
L 361.35191 -256.176555 
L 361.355752 -256.387543 
L 361.359982 -256.598531 
L 361.363818 -256.809519 
L 361.366241 -257.020507 
L 361.36602 -257.231495 
L 361.361799 -257.442483 
L 361.352223 -257.653471 
L 361.336092 -257.864459 
L 361.312521 -258.075447 
L 361.281083 -258.286436 
L 361.241892 -258.497424 
L 361.19562 -258.708412 
L 361.143423 -258.9194 
L 361.086781 -259.130388 
L 361.027268 -259.341376 
L 360.966306 -259.552364 
L 360.904954 -259.763352 
L 360.843786 -259.97434 
L 360.782902 -260.185328 
L 360.722063 -260.396316 
L 360.660913 -260.607304 
L 360.599198 -260.818292 
L 360.536896 -261.02928 
L 360.474204 -261.240268 
L 360.411379 -261.451256 
L 360.348488 -261.662244 
L 360.285179 -261.873232 
L 360.220578 -262.08422 
L 360.153383 -262.295209 
L 360.08213 -262.506197 
L 360.005556 -262.717185 
L 359.922904 -262.928173 
L 359.834053 -263.139161 
L 359.739382 -263.350149 
L 359.639378 -263.561137 
L 359.534104 -263.772125 
L 359.422677 -263.983113 
L 359.302972 -264.194101 
L 359.171685 -264.405089 
L 359.024834 -264.616077 
L 358.858683 -264.827065 
L 358.670915 -265.038053 
L 358.461849 -265.249041 
L 358.235401 -265.460029 
L 357.999523 -265.671017 
L 357.765938 -265.882005 
L 357.549124 -266.092993 
L 357.364662 -266.303982 
L 357.227237 -266.51497 
L 357.148683 -266.725958 
L 357.136463 -266.936946 
L 357.192877 -267.147934 
L 357.315111 -267.358922 
L 357.496025 -267.56991 
L 357.725401 -267.780898 
L 357.991284 -267.991886 
L 358.281069 -268.202874 
L 358.582102 -268.413862 
L 358.881699 -268.62485 
L 359.166669 -268.835838 
L 359.422491 -269.046826 
L 359.632388 -269.257814 
L 359.776576 -269.468802 
L 359.832027 -269.67979 
L 359.773114 -269.890778 
L 359.573563 -270.101766 
L 359.209978 -270.312755 
L 358.666944 -270.523743 
L 357.943176 -270.734731 
L 357.057554 -270.945719 
L 356.053352 -271.156707 
L 354.998816 -271.367695 
L 353.982641 -271.578683 
L 353.104056 -271.789671 
L 352.45868 -272.000659 
L 352.12285 -272.211647 
L 352.139985 -272.422635 
L 352.512421 -272.633623 
L 353.200917 -272.844611 
L 369.714283 -272.844611 
L 369.714283 -272.844611 
L 370.402779 -272.633623 
L 370.775215 -272.422635 
L 370.79235 -272.211647 
L 370.45652 -272.000659 
L 369.811144 -271.789671 
L 368.932559 -271.578683 
L 367.916384 -271.367695 
L 366.861848 -271.156707 
L 365.857646 -270.945719 
L 364.972024 -270.734731 
L 364.248256 -270.523743 
L 363.705222 -270.312755 
L 363.341637 -270.101766 
L 363.142086 -269.890778 
L 363.083173 -269.67979 
L 363.138624 -269.468802 
L 363.282812 -269.257814 
L 363.492709 -269.046826 
L 363.748531 -268.835838 
L 364.033501 -268.62485 
L 364.333098 -268.413862 
L 364.634131 -268.202874 
L 364.923916 -267.991886 
L 365.189799 -267.780898 
L 365.419175 -267.56991 
L 365.600089 -267.358922 
L 365.722323 -267.147934 
L 365.778737 -266.936946 
L 365.766517 -266.725958 
L 365.687963 -266.51497 
L 365.550538 -266.303982 
L 365.366076 -266.092993 
L 365.149262 -265.882005 
L 364.915677 -265.671017 
L 364.679799 -265.460029 
L 364.453351 -265.249041 
L 364.244285 -265.038053 
L 364.056517 -264.827065 
L 363.890366 -264.616077 
L 363.743515 -264.405089 
L 363.612228 -264.194101 
L 363.492523 -263.983113 
L 363.381096 -263.772125 
L 363.275822 -263.561137 
L 363.175818 -263.350149 
L 363.081147 -263.139161 
L 362.992296 -262.928173 
L 362.909644 -262.717185 
L 362.83307 -262.506197 
L 362.761817 -262.295209 
L 362.694622 -262.08422 
L 362.630021 -261.873232 
L 362.566712 -261.662244 
L 362.503821 -261.451256 
L 362.440996 -261.240268 
L 362.378304 -261.02928 
L 362.316002 -260.818292 
L 362.254287 -260.607304 
L 362.193137 -260.396316 
L 362.132298 -260.185328 
L 362.071414 -259.97434 
L 362.010246 -259.763352 
L 361.948894 -259.552364 
L 361.887932 -259.341376 
L 361.828419 -259.130388 
L 361.771777 -258.9194 
L 361.71958 -258.708412 
L 361.673308 -258.497424 
L 361.634117 -258.286436 
L 361.602679 -258.075447 
L 361.579108 -257.864459 
L 361.562977 -257.653471 
L 361.553401 -257.442483 
L 361.54918 -257.231495 
L 361.548959 -257.020507 
L 361.551382 -256.809519 
L 361.555218 -256.598531 
L 361.559448 -256.387543 
L 361.56329 -256.176555 
L 361.566195 -255.965567 
L 361.567801 -255.754579 
L 361.567894 -255.543591 
L 361.566373 -255.332603 
L 361.56325 -255.121615 
L 361.558665 -254.910627 
L 361.552912 -254.699639 
L 361.546446 -254.488651 
L 361.539856 -254.277663 
L 361.533789 -254.066674 
L 361.528837 -253.855686 
L 361.525418 -253.644698 
L 361.523667 -253.43371 
L 361.523394 -253.222722 
L 361.524101 -253.011734 
L 361.525085 -252.800746 
L 361.525575 -252.589758 
L 361.524892 -252.37877 
L 361.522579 -252.167782 
L 361.518483 -251.956794 
z
" style="stroke: #0d3b66; stroke-opacity: 0.3"/>
    </defs>
    <g clip-path="url(#p23216bd57b)">
     <use xlink:href="#m29a0985284" x="0" y="288" style="fill: #0d3b66; fill-opacity: 0.3; stroke: #0d3b66; stroke-opacity: 0.3"/>
    </g>
   </g>
   <g id="PolyCollection_6">
    <defs>
     <path id="m4686af8285" d="M 90.308751 -223.709106 
L 87.457049 -223.709106 
L 87.282364 -224.178385 
L 87.100707 -224.647664 
L 86.914171 -225.116943 
L 86.725119 -225.586222 
L 86.536114 -226.055501 
L 86.349837 -226.524781 
L 86.168992 -226.99406 
L 85.996211 -227.463339 
L 85.833949 -227.932618 
L 85.684393 -228.401897 
L 85.549379 -228.871176 
L 85.430323 -229.340455 
L 85.32818 -229.809735 
L 85.243419 -230.279014 
L 85.176026 -230.748293 
L 85.125534 -231.217572 
L 85.091065 -231.686851 
L 85.071398 -232.15613 
L 85.065039 -232.625409 
L 85.070312 -233.094689 
L 85.085429 -233.563968 
L 85.108576 -234.033247 
L 85.13798 -234.502526 
L 85.171959 -234.971805 
L 85.208975 -235.441084 
L 85.247651 -235.910363 
L 85.286798 -236.379643 
L 85.325414 -236.848922 
L 85.362681 -237.318201 
L 85.397959 -237.78748 
L 85.430772 -238.256759 
L 85.460802 -238.726038 
L 85.487876 -239.195318 
L 85.511963 -239.664597 
L 85.533171 -240.133876 
L 85.551751 -240.603155 
L 85.568093 -241.072434 
L 85.582733 -241.541713 
L 85.59635 -242.010992 
L 85.609759 -242.480272 
L 85.623902 -242.949551 
L 85.639824 -243.41883 
L 85.658649 -243.888109 
L 85.681541 -244.357388 
L 85.709669 -244.826667 
L 85.744155 -245.295946 
L 85.786034 -245.765226 
L 85.836207 -246.234505 
L 85.895398 -246.703784 
L 85.964125 -247.173063 
L 86.042668 -247.642342 
L 86.131055 -248.111621 
L 86.229056 -248.5809 
L 86.336181 -249.05018 
L 86.451694 -249.519459 
L 86.57463 -249.988738 
L 86.703817 -250.458017 
L 86.837904 -250.927296 
L 86.975392 -251.396575 
L 87.114662 -251.865854 
L 87.253999 -252.335134 
L 87.391618 -252.804413 
L 87.525678 -253.273692 
L 87.654291 -253.742971 
L 87.775516 -254.21225 
L 87.88735 -254.681529 
L 87.987699 -255.150808 
L 88.074348 -255.620088 
L 88.144914 -256.089367 
L 88.1968 -256.558646 
L 88.227157 -257.027925 
L 88.232842 -257.497204 
L 88.210415 -257.966483 
L 88.156147 -258.435762 
L 88.066086 -258.905042 
L 87.936161 -259.374321 
L 87.762347 -259.8436 
L 87.540894 -260.312879 
L 87.268602 -260.782158 
L 86.943153 -261.251437 
L 86.563467 -261.720716 
L 86.130072 -262.189996 
L 85.64544 -262.659275 
L 85.11428 -263.128554 
L 84.543722 -263.597833 
L 83.943395 -264.067112 
L 83.32533 -264.536391 
L 82.70371 -265.00567 
L 82.094438 -265.47495 
L 81.514534 -265.944229 
L 80.981409 -266.413508 
L 80.512027 -266.882787 
L 80.122043 -267.352066 
L 79.824946 -267.821345 
L 79.631306 -268.290624 
L 79.54815 -268.759904 
L 79.578554 -269.229183 
L 79.721456 -269.698462 
L 79.971718 -270.167741 
L 97.794082 -270.167741 
L 97.794082 -270.167741 
L 98.044344 -269.698462 
L 98.187246 -269.229183 
L 98.21765 -268.759904 
L 98.134494 -268.290624 
L 97.940854 -267.821345 
L 97.643757 -267.352066 
L 97.253773 -266.882787 
L 96.784391 -266.413508 
L 96.251266 -265.944229 
L 95.671362 -265.47495 
L 95.06209 -265.00567 
L 94.44047 -264.536391 
L 93.822405 -264.067112 
L 93.222078 -263.597833 
L 92.65152 -263.128554 
L 92.12036 -262.659275 
L 91.635728 -262.189996 
L 91.202333 -261.720716 
L 90.822647 -261.251437 
L 90.497198 -260.782158 
L 90.224906 -260.312879 
L 90.003453 -259.8436 
L 89.829639 -259.374321 
L 89.699714 -258.905042 
L 89.609653 -258.435762 
L 89.555385 -257.966483 
L 89.532958 -257.497204 
L 89.538643 -257.027925 
L 89.569 -256.558646 
L 89.620886 -256.089367 
L 89.691452 -255.620088 
L 89.778101 -255.150808 
L 89.87845 -254.681529 
L 89.990284 -254.21225 
L 90.111509 -253.742971 
L 90.240122 -253.273692 
L 90.374182 -252.804413 
L 90.511801 -252.335134 
L 90.651138 -251.865854 
L 90.790408 -251.396575 
L 90.927896 -250.927296 
L 91.061983 -250.458017 
L 91.19117 -249.988738 
L 91.314106 -249.519459 
L 91.429619 -249.05018 
L 91.536744 -248.5809 
L 91.634745 -248.111621 
L 91.723132 -247.642342 
L 91.801675 -247.173063 
L 91.870402 -246.703784 
L 91.929593 -246.234505 
L 91.979766 -245.765226 
L 92.021645 -245.295946 
L 92.056131 -244.826667 
L 92.084259 -244.357388 
L 92.107151 -243.888109 
L 92.125976 -243.41883 
L 92.141898 -242.949551 
L 92.156041 -242.480272 
L 92.16945 -242.010992 
L 92.183067 -241.541713 
L 92.197707 -241.072434 
L 92.214049 -240.603155 
L 92.232629 -240.133876 
L 92.253837 -239.664597 
L 92.277924 -239.195318 
L 92.304998 -238.726038 
L 92.335028 -238.256759 
L 92.367841 -237.78748 
L 92.403119 -237.318201 
L 92.440386 -236.848922 
L 92.479002 -236.379643 
L 92.518149 -235.910363 
L 92.556825 -235.441084 
L 92.593841 -234.971805 
L 92.62782 -234.502526 
L 92.657224 -234.033247 
L 92.680371 -233.563968 
L 92.695488 -233.094689 
L 92.700761 -232.625409 
L 92.694402 -232.15613 
L 92.674735 -231.686851 
L 92.640266 -231.217572 
L 92.589774 -230.748293 
L 92.522381 -230.279014 
L 92.43762 -229.809735 
L 92.335477 -229.340455 
L 92.216421 -228.871176 
L 92.081407 -228.401897 
L 91.931851 -227.932618 
L 91.769589 -227.463339 
L 91.596808 -226.99406 
L 91.415963 -226.524781 
L 91.229686 -226.055501 
L 91.040681 -225.586222 
L 90.851629 -225.116943 
L 90.665093 -224.647664 
L 90.483436 -224.178385 
L 90.308751 -223.709106 
z
" style="stroke: #bf4e30; stroke-opacity: 0.3"/>
    </defs>
    <g clip-path="url(#p23216bd57b)">
     <use xlink:href="#m4686af8285" x="0" y="288" style="fill: #bf4e30; fill-opacity: 0.3; stroke: #bf4e30; stroke-opacity: 0.3"/>
    </g>
   </g>
   <g id="PolyCollection_7">
    <defs>
     <path id="me0515f252a" d="M 163.584546 -133.165371 
L 163.537254 -133.165371 
L 163.536605 -134.569234 
L 163.5365 -135.973096 
L 163.535752 -137.376959 
L 163.533356 -138.780821 
L 163.529088 -140.184684 
L 163.523787 -141.588546 
L 163.519109 -142.992409 
L 163.516842 -144.396271 
L 163.518121 -145.800134 
L 163.522943 -147.203996 
L 163.530238 -148.607859 
L 163.538386 -150.011721 
L 163.545886 -151.415584 
L 163.55181 -152.819447 
L 163.555906 -154.223309 
L 163.55841 -155.627172 
L 163.559774 -157.031034 
L 163.560438 -158.434897 
L 163.560728 -159.838759 
L 163.560841 -161.242622 
L 163.560877 -162.646484 
L 163.560875 -164.050347 
L 163.560833 -165.454209 
L 163.560706 -166.858072 
L 163.560379 -168.261934 
L 163.559633 -169.665797 
L 163.558108 -171.069659 
L 163.55533 -172.473522 
L 163.550828 -173.877384 
L 163.544385 -175.281247 
L 163.536303 -176.685109 
L 163.527521 -178.088972 
L 163.519376 -179.492835 
L 163.512991 -180.896697 
L 163.508578 -182.30056 
L 163.505107 -183.704422 
L 163.500698 -185.108285 
L 163.493626 -186.512147 
L 163.483344 -187.91601 
L 163.47084 -189.319872 
L 163.457993 -190.723735 
L 163.446327 -192.127597 
L 163.436022 -193.53146 
L 163.42593 -194.935322 
L 163.41461 -196.339185 
L 163.401696 -197.743047 
L 163.38862 -199.14691 
L 163.378201 -200.550772 
L 163.373312 -201.954635 
L 163.375334 -203.358498 
L 163.383115 -204.76236 
L 163.392879 -206.166223 
L 163.399135 -207.570085 
L 163.39634 -208.973948 
L 163.380763 -210.37781 
L 163.351825 -211.781673 
L 163.312236 -213.185535 
L 163.266666 -214.589398 
L 163.219439 -215.99326 
L 163.172371 -217.397123 
L 163.123918 -218.800985 
L 163.070107 -220.204848 
L 163.006684 -221.60871 
L 162.931258 -223.012573 
L 162.844253 -224.416435 
L 162.748133 -225.820298 
L 162.645249 -227.224161 
L 162.535384 -228.628023 
L 162.414452 -230.031886 
L 162.275505 -231.435748 
L 162.112163 -232.839611 
L 161.923219 -234.243473 
L 161.716118 -235.647336 
L 161.507162 -237.051198 
L 161.317598 -238.455061 
L 161.166717 -239.858923 
L 161.064687 -241.262786 
L 161.008268 -242.666648 
L 160.981463 -244.070511 
L 160.961035 -245.474373 
L 160.924521 -246.878236 
L 160.857098 -248.282098 
L 160.754181 -249.685961 
L 160.618778 -251.089824 
L 160.455314 -252.493686 
L 160.263154 -253.897549 
L 160.0326 -255.301411 
L 159.744192 -256.705274 
L 159.370581 -258.109136 
L 158.880612 -259.512999 
L 158.247145 -260.916861 
L 157.461245 -262.320724 
L 156.552624 -263.724586 
L 155.609318 -265.128449 
L 154.78259 -266.532311 
L 154.263078 -267.936174 
L 154.22615 -269.340036 
L 154.764407 -270.743899 
L 155.840141 -272.147761 
L 171.281659 -272.147761 
L 171.281659 -272.147761 
L 172.357393 -270.743899 
L 172.89565 -269.340036 
L 172.858722 -267.936174 
L 172.33921 -266.532311 
L 171.512482 -265.128449 
L 170.569176 -263.724586 
L 169.660555 -262.320724 
L 168.874655 -260.916861 
L 168.241188 -259.512999 
L 167.751219 -258.109136 
L 167.377608 -256.705274 
L 167.0892 -255.301411 
L 166.858646 -253.897549 
L 166.666486 -252.493686 
L 166.503022 -251.089824 
L 166.367619 -249.685961 
L 166.264702 -248.282098 
L 166.197279 -246.878236 
L 166.160765 -245.474373 
L 166.140337 -244.070511 
L 166.113532 -242.666648 
L 166.057113 -241.262786 
L 165.955083 -239.858923 
L 165.804202 -238.455061 
L 165.614638 -237.051198 
L 165.405682 -235.647336 
L 165.198581 -234.243473 
L 165.009637 -232.839611 
L 164.846295 -231.435748 
L 164.707348 -230.031886 
L 164.586416 -228.628023 
L 164.476551 -227.224161 
L 164.373667 -225.820298 
L 164.277547 -224.416435 
L 164.190542 -223.012573 
L 164.115116 -221.60871 
L 164.051693 -220.204848 
L 163.997882 -218.800985 
L 163.949429 -217.397123 
L 163.902361 -215.99326 
L 163.855134 -214.589398 
L 163.809564 -213.185535 
L 163.769975 -211.781673 
L 163.741037 -210.37781 
L 163.72546 -208.973948 
L 163.722665 -207.570085 
L 163.728921 -206.166223 
L 163.738685 -204.76236 
L 163.746466 -203.358498 
L 163.748488 -201.954635 
L 163.743599 -200.550772 
L 163.73318 -199.14691 
L 163.720104 -197.743047 
L 163.70719 -196.339185 
L 163.69587 -194.935322 
L 163.685778 -193.53146 
L 163.675473 -192.127597 
L 163.663807 -190.723735 
L 163.65096 -189.319872 
L 163.638456 -187.91601 
L 163.628174 -186.512147 
L 163.621102 -185.108285 
L 163.616693 -183.704422 
L 163.613222 -182.30056 
L 163.608809 -180.896697 
L 163.602424 -179.492835 
L 163.594279 -178.088972 
L 163.585497 -176.685109 
L 163.577415 -175.281247 
L 163.570972 -173.877384 
L 163.56647 -172.473522 
L 163.563692 -171.069659 
L 163.562167 -169.665797 
L 163.561421 -168.261934 
L 163.561094 -166.858072 
L 163.560967 -165.454209 
L 163.560925 -164.050347 
L 163.560923 -162.646484 
L 163.560959 -161.242622 
L 163.561072 -159.838759 
L 163.561362 -158.434897 
L 163.562026 -157.031034 
L 163.56339 -155.627172 
L 163.565894 -154.223309 
L 163.56999 -152.819447 
L 163.575914 -151.415584 
L 163.583414 -150.011721 
L 163.591562 -148.607859 
L 163.598857 -147.203996 
L 163.603679 -145.800134 
L 163.604958 -144.396271 
L 163.602691 -142.992409 
L 163.598013 -141.588546 
L 163.592712 -140.184684 
L 163.588444 -138.780821 
L 163.586048 -137.376959 
L 163.5853 -135.973096 
L 163.585195 -134.569234 
L 163.584546 -133.165371 
z
" style="stroke: #bf4e30; stroke-opacity: 0.3"/>
    </defs>
    <g clip-path="url(#p23216bd57b)">
     <use xlink:href="#me0515f252a" x="0" y="288" style="fill: #bf4e30; fill-opacity: 0.3; stroke: #bf4e30; stroke-opacity: 0.3"/>
    </g>
   </g>
   <g id="PolyCollection_8">
    <defs>
     <path id="ma270ef006e" d="M 238.613664 -52.268992 
L 237.864136 -52.268992 
L 237.807378 -54.360705 
L 237.741165 -56.452418 
L 237.66329 -58.544131 
L 237.571384 -60.635844 
L 237.463095 -62.727557 
L 237.336299 -64.81927 
L 237.189344 -66.910982 
L 237.021292 -69.002695 
L 236.832149 -71.094408 
L 236.62304 -73.186121 
L 236.396331 -75.277834 
L 236.155653 -77.369547 
L 235.90584 -79.46126 
L 235.652757 -81.552973 
L 235.403048 -83.644686 
L 235.163793 -85.736399 
L 234.942131 -87.828112 
L 234.744841 -89.919825 
L 234.577949 -92.011538 
L 234.446373 -94.103251 
L 234.353633 -96.194964 
L 234.301666 -98.286677 
L 234.290728 -100.37839 
L 234.319413 -102.470103 
L 234.384761 -104.561816 
L 234.482463 -106.653529 
L 234.607114 -108.745242 
L 234.752525 -110.836955 
L 234.912053 -112.928668 
L 235.078929 -115.020381 
L 235.246583 -117.112094 
L 235.408935 -119.203807 
L 235.560644 -121.29552 
L 235.69731 -123.387233 
L 235.815608 -125.478946 
L 235.913359 -127.570659 
L 235.989527 -129.662372 
L 236.044143 -131.754085 
L 236.078162 -133.845798 
L 236.093267 -135.937511 
L 236.091642 -138.029224 
L 236.075727 -140.120937 
L 236.047987 -142.21265 
L 236.010718 -144.304363 
L 235.965903 -146.396076 
L 235.915141 -148.487789 
L 235.859628 -150.579502 
L 235.800208 -152.671215 
L 235.737458 -154.762928 
L 235.671798 -156.854641 
L 235.603588 -158.946354 
L 235.533217 -161.038067 
L 235.461147 -163.12978 
L 235.38792 -165.221493 
L 235.314123 -167.313206 
L 235.240338 -169.404919 
L 235.16706 -171.496632 
L 235.094632 -173.588345 
L 235.023184 -175.680058 
L 234.952594 -177.771771 
L 234.882466 -179.863484 
L 234.812132 -181.955197 
L 234.740652 -184.04691 
L 234.666815 -186.138623 
L 234.589131 -188.230336 
L 234.505807 -190.322049 
L 234.414704 -192.413762 
L 234.313302 -194.505475 
L 234.198667 -196.597188 
L 234.067449 -198.688901 
L 233.915942 -200.780614 
L 233.740213 -202.872327 
L 233.536329 -204.96404 
L 233.300682 -207.055753 
L 233.030419 -209.147466 
L 232.723946 -211.239179 
L 232.381476 -213.330892 
L 232.005568 -215.422605 
L 231.601576 -217.514318 
L 231.177957 -219.606031 
L 230.74634 -221.697744 
L 230.321312 -223.789457 
L 229.919881 -225.88117 
L 229.560626 -227.972883 
L 229.26256 -230.064596 
L 229.043815 -232.156309 
L 228.920254 -234.248022 
L 228.90415 -236.339735 
L 229.003088 -238.431448 
L 229.219213 -240.523161 
L 229.548916 -242.614874 
L 229.983002 -244.706587 
L 230.507319 -246.7983 
L 231.103793 -248.890013 
L 231.751741 -250.981726 
L 232.429328 -253.073439 
L 233.115014 -255.165152 
L 233.788859 -257.256865 
L 234.433577 -259.348578 
L 242.044223 -259.348578 
L 242.044223 -259.348578 
L 242.688941 -257.256865 
L 243.362786 -255.165152 
L 244.048472 -253.073439 
L 244.726059 -250.981726 
L 245.374007 -248.890013 
L 245.970481 -246.7983 
L 246.494798 -244.706587 
L 246.928884 -242.614874 
L 247.258587 -240.523161 
L 247.474712 -238.431448 
L 247.57365 -236.339735 
L 247.557546 -234.248022 
L 247.433985 -232.156309 
L 247.21524 -230.064596 
L 246.917174 -227.972883 
L 246.557919 -225.88117 
L 246.156488 -223.789457 
L 245.73146 -221.697744 
L 245.299843 -219.606031 
L 244.876224 -217.514318 
L 244.472232 -215.422605 
L 244.096324 -213.330892 
L 243.753854 -211.239179 
L 243.447381 -209.147466 
L 243.177118 -207.055753 
L 242.941471 -204.96404 
L 242.737587 -202.872327 
L 242.561858 -200.780614 
L 242.410351 -198.688901 
L 242.279133 -196.597188 
L 242.164498 -194.505475 
L 242.063096 -192.413762 
L 241.971993 -190.322049 
L 241.888669 -188.230336 
L 241.810985 -186.138623 
L 241.737148 -184.04691 
L 241.665668 -181.955197 
L 241.595334 -179.863484 
L 241.525206 -177.771771 
L 241.454616 -175.680058 
L 241.383168 -173.588345 
L 241.31074 -171.496632 
L 241.237462 -169.404919 
L 241.163677 -167.313206 
L 241.08988 -165.221493 
L 241.016653 -163.12978 
L 240.944583 -161.038067 
L 240.874212 -158.946354 
L 240.806002 -156.854641 
L 240.740342 -154.762928 
L 240.677592 -152.671215 
L 240.618172 -150.579502 
L 240.562659 -148.487789 
L 240.511897 -146.396076 
L 240.467082 -144.304363 
L 240.429813 -142.21265 
L 240.402073 -140.120937 
L 240.386158 -138.029224 
L 240.384533 -135.937511 
L 240.399638 -133.845798 
L 240.433657 -131.754085 
L 240.488273 -129.662372 
L 240.564441 -127.570659 
L 240.662192 -125.478946 
L 240.78049 -123.387233 
L 240.917156 -121.29552 
L 241.068865 -119.203807 
L 241.231217 -117.112094 
L 241.398871 -115.020381 
L 241.565747 -112.928668 
L 241.725275 -110.836955 
L 241.870686 -108.745242 
L 241.995337 -106.653529 
L 242.093039 -104.561816 
L 242.158387 -102.470103 
L 242.187072 -100.37839 
L 242.176134 -98.286677 
L 242.124167 -96.194964 
L 242.031427 -94.103251 
L 241.899851 -92.011538 
L 241.732959 -89.919825 
L 241.535669 -87.828112 
L 241.314007 -85.736399 
L 241.074752 -83.644686 
L 240.825043 -81.552973 
L 240.57196 -79.46126 
L 240.322147 -77.369547 
L 240.081469 -75.277834 
L 239.85476 -73.186121 
L 239.645651 -71.094408 
L 239.456508 -69.002695 
L 239.288456 -66.910982 
L 239.141501 -64.81927 
L 239.014705 -62.727557 
L 238.906416 -60.635844 
L 238.81451 -58.544131 
L 238.736635 -56.452418 
L 238.670422 -54.360705 
L 238.613664 -52.268992 
z
" style="stroke: #bf4e30; stroke-opacity: 0.3"/>
    </defs>
    <g clip-path="url(#p23216bd57b)">
     <use xlink:href="#ma270ef006e" x="0" y="288" style="fill: #bf4e30; fill-opacity: 0.3; stroke: #bf4e30; stroke-opacity: 0.3"/>
    </g>
   </g>
   <g id="PolyCollection_9">
    <defs>
     <path id="m0d487f55e0" d="M 312.989609 -66.878826 
L 312.844191 -66.878826 
L 312.827412 -68.949955 
L 312.809995 -71.021084 
L 312.793007 -73.092213 
L 312.777735 -75.163342 
L 312.765487 -77.234472 
L 312.757321 -79.305601 
L 312.753742 -81.37673 
L 312.754521 -83.447859 
L 312.758697 -85.518988 
L 312.764821 -87.590118 
L 312.771353 -89.661247 
L 312.777078 -91.732376 
L 312.781382 -93.803505 
L 312.784291 -95.874634 
L 312.78627 -97.945764 
L 312.787904 -100.016893 
L 312.789595 -102.088022 
L 312.791403 -104.159151 
L 312.793069 -106.230281 
L 312.794183 -108.30141 
L 312.794396 -110.372539 
L 312.793583 -112.443668 
L 312.791903 -114.514797 
L 312.789749 -116.585927 
L 312.787625 -118.657056 
L 312.786008 -120.728185 
L 312.785238 -122.799314 
L 312.785461 -124.870443 
L 312.786633 -126.941573 
L 312.788572 -129.012702 
L 312.791019 -131.083831 
L 312.793702 -133.15496 
L 312.796376 -135.226089 
L 312.798826 -137.297219 
L 312.800857 -139.368348 
L 312.802268 -141.439477 
L 312.802849 -143.510606 
L 312.802404 -145.581735 
L 312.800797 -147.652865 
L 312.798036 -149.723994 
L 312.794334 -151.795123 
L 312.790134 -153.866252 
L 312.786068 -155.937381 
L 312.78283 -158.008511 
L 312.781006 -160.07964 
L 312.780904 -162.150769 
L 312.782451 -164.221898 
L 312.78521 -166.293028 
L 312.788508 -168.364157 
L 312.791632 -170.435286 
L 312.79401 -172.506415 
L 312.795311 -174.577544 
L 312.795449 -176.648674 
L 312.794503 -178.719803 
L 312.792637 -180.790932 
L 312.790043 -182.862061 
L 312.786918 -184.93319 
L 312.783451 -187.00432 
L 312.779753 -189.075449 
L 312.775746 -191.146578 
L 312.771039 -193.217707 
L 312.764859 -195.288836 
L 312.756116 -197.359966 
L 312.743581 -199.431095 
L 312.726157 -201.502224 
L 312.703114 -203.573353 
L 312.674209 -205.644482 
L 312.639628 -207.715612 
L 312.599728 -209.786741 
L 312.55464 -211.85787 
L 312.503822 -213.928999 
L 312.445694 -216.000128 
L 312.377491 -218.071258 
L 312.295451 -220.142387 
L 312.195367 -222.213516 
L 312.073447 -224.284645 
L 311.927275 -226.355774 
L 311.756594 -228.426904 
L 311.563594 -230.498033 
L 311.352481 -232.569162 
L 311.128288 -234.640291 
L 310.895122 -236.711421 
L 310.65428 -238.78255 
L 310.402704 -240.853679 
L 310.132193 -242.924808 
L 309.82952 -244.995937 
L 309.477469 -247.067067 
L 309.056777 -249.138196 
L 308.549188 -251.209325 
L 307.942015 -253.280454 
L 307.234396 -255.351583 
L 306.444581 -257.422713 
L 305.616222 -259.493842 
L 304.820485 -261.564971 
L 304.150751 -263.6361 
L 303.708476 -265.707229 
L 303.58215 -267.778359 
L 303.824858 -269.849488 
L 304.437874 -271.920617 
L 321.395926 -271.920617 
L 321.395926 -271.920617 
L 322.008942 -269.849488 
L 322.25165 -267.778359 
L 322.125324 -265.707229 
L 321.683049 -263.6361 
L 321.013315 -261.564971 
L 320.217578 -259.493842 
L 319.389219 -257.422713 
L 318.599404 -255.351583 
L 317.891785 -253.280454 
L 317.284612 -251.209325 
L 316.777023 -249.138196 
L 316.356331 -247.067067 
L 316.00428 -244.995937 
L 315.701607 -242.924808 
L 315.431096 -240.853679 
L 315.17952 -238.78255 
L 314.938678 -236.711421 
L 314.705512 -234.640291 
L 314.481319 -232.569162 
L 314.270206 -230.498033 
L 314.077206 -228.426904 
L 313.906525 -226.355774 
L 313.760353 -224.284645 
L 313.638433 -222.213516 
L 313.538349 -220.142387 
L 313.456309 -218.071258 
L 313.388106 -216.000128 
L 313.329978 -213.928999 
L 313.27916 -211.85787 
L 313.234072 -209.786741 
L 313.194172 -207.715612 
L 313.159591 -205.644482 
L 313.130686 -203.573353 
L 313.107643 -201.502224 
L 313.090219 -199.431095 
L 313.077684 -197.359966 
L 313.068941 -195.288836 
L 313.062761 -193.217707 
L 313.058054 -191.146578 
L 313.054047 -189.075449 
L 313.050349 -187.00432 
L 313.046882 -184.93319 
L 313.043757 -182.862061 
L 313.041163 -180.790932 
L 313.039297 -178.719803 
L 313.038351 -176.648674 
L 313.038489 -174.577544 
L 313.03979 -172.506415 
L 313.042168 -170.435286 
L 313.045292 -168.364157 
L 313.04859 -166.293028 
L 313.051349 -164.221898 
L 313.052896 -162.150769 
L 313.052794 -160.07964 
L 313.05097 -158.008511 
L 313.047732 -155.937381 
L 313.043666 -153.866252 
L 313.039466 -151.795123 
L 313.035764 -149.723994 
L 313.033003 -147.652865 
L 313.031396 -145.581735 
L 313.030951 -143.510606 
L 313.031532 -141.439477 
L 313.032943 -139.368348 
L 313.034974 -137.297219 
L 313.037424 -135.226089 
L 313.040098 -133.15496 
L 313.042781 -131.083831 
L 313.045228 -129.012702 
L 313.047167 -126.941573 
L 313.048339 -124.870443 
L 313.048562 -122.799314 
L 313.047792 -120.728185 
L 313.046175 -118.657056 
L 313.044051 -116.585927 
L 313.041897 -114.514797 
L 313.040217 -112.443668 
L 313.039404 -110.372539 
L 313.039617 -108.30141 
L 313.040731 -106.230281 
L 313.042397 -104.159151 
L 313.044205 -102.088022 
L 313.045896 -100.016893 
L 313.04753 -97.945764 
L 313.049509 -95.874634 
L 313.052418 -93.803505 
L 313.056722 -91.732376 
L 313.062447 -89.661247 
L 313.068979 -87.590118 
L 313.075103 -85.518988 
L 313.079279 -83.447859 
L 313.080058 -81.37673 
L 313.076479 -79.305601 
L 313.068313 -77.234472 
L 313.056065 -75.163342 
L 313.040793 -73.092213 
L 313.023805 -71.021084 
L 313.006388 -68.949955 
L 312.989609 -66.878826 
z
" style="stroke: #bf4e30; stroke-opacity: 0.3"/>
    </defs>
    <g clip-path="url(#p23216bd57b)">
     <use xlink:href="#m0d487f55e0" x="0" y="288" style="fill: #bf4e30; fill-opacity: 0.3; stroke: #bf4e30; stroke-opacity: 0.3"/>
    </g>
   </g>
   <g id="PolyCollection_10">
    <defs>
     <path id="mc4c4331f38" d="M 387.824905 -273.182997 
L 387.364895 -273.182997 
L 387.32934 -273.183408 
L 387.290212 -273.183819 
L 387.246952 -273.18423 
L 387.198787 -273.184641 
L 387.144722 -273.185052 
L 387.08354 -273.185463 
L 387.013843 -273.185875 
L 386.934104 -273.186286 
L 386.84275 -273.186697 
L 386.738261 -273.187108 
L 386.619287 -273.187519 
L 386.484776 -273.18793 
L 386.334093 -273.188341 
L 386.167146 -273.188753 
L 385.984475 -273.189164 
L 385.787329 -273.189575 
L 385.577686 -273.189986 
L 385.358234 -273.190397 
L 385.132294 -273.190808 
L 384.90368 -273.191219 
L 384.676513 -273.191631 
L 384.454988 -273.192042 
L 384.243124 -273.192453 
L 384.044511 -273.192864 
L 383.862083 -273.193275 
L 383.69795 -273.193686 
L 383.553294 -273.194098 
L 383.428358 -273.194509 
L 383.322525 -273.19492 
L 383.234471 -273.195331 
L 383.162386 -273.195742 
L 383.104226 -273.196153 
L 383.057965 -273.196564 
L 383.021823 -273.196976 
L 382.994438 -273.197387 
L 382.974969 -273.197798 
L 382.96312 -273.198209 
L 382.959099 -273.19862 
L 382.963513 -273.199031 
L 382.977237 -273.199442 
L 383.001255 -273.199854 
L 383.036521 -273.200265 
L 383.083827 -273.200676 
L 383.14371 -273.201087 
L 383.216384 -273.201498 
L 383.301707 -273.201909 
L 383.399169 -273.20232 
L 383.507904 -273.202732 
L 383.626718 -273.203143 
L 383.754133 -273.203554 
L 383.888438 -273.203965 
L 384.027755 -273.204376 
L 384.170105 -273.204787 
L 384.313477 -273.205198 
L 384.455891 -273.20561 
L 384.595442 -273.206021 
L 384.730326 -273.206432 
L 384.858829 -273.206843 
L 384.979292 -273.207254 
L 385.090045 -273.207665 
L 385.189317 -273.208077 
L 385.275138 -273.208488 
L 385.34524 -273.208899 
L 385.39698 -273.20931 
L 385.427292 -273.209721 
L 385.432689 -273.210132 
L 385.409319 -273.210543 
L 385.353089 -273.210955 
L 385.259843 -273.211366 
L 385.125603 -273.211777 
L 384.946857 -273.212188 
L 384.720864 -273.212599 
L 384.445973 -273.21301 
L 384.121914 -273.213421 
L 383.750049 -273.213833 
L 383.333555 -273.214244 
L 382.877529 -273.214655 
L 382.389004 -273.215066 
L 381.876876 -273.215477 
L 381.351764 -273.215888 
L 380.825782 -273.216299 
L 380.312268 -273.216711 
L 379.825447 -273.217122 
L 379.380037 -273.217533 
L 378.990795 -273.217944 
L 378.671982 -273.218355 
L 378.43676 -273.218766 
L 378.296515 -273.219177 
L 378.26015 -273.219589 
L 378.333393 -273.22 
L 378.518187 -273.220411 
L 378.812256 -273.220822 
L 379.20891 -273.221233 
L 379.697169 -273.221644 
L 380.262216 -273.222056 
L 380.886184 -273.222467 
L 381.549198 -273.222878 
L 382.230601 -273.223289 
L 382.910218 -273.2237 
L 392.279582 -273.2237 
L 392.279582 -273.2237 
L 392.959199 -273.223289 
L 393.640602 -273.222878 
L 394.303616 -273.222467 
L 394.927584 -273.222056 
L 395.492631 -273.221644 
L 395.98089 -273.221233 
L 396.377544 -273.220822 
L 396.671613 -273.220411 
L 396.856407 -273.22 
L 396.92965 -273.219589 
L 396.893285 -273.219177 
L 396.75304 -273.218766 
L 396.517818 -273.218355 
L 396.199005 -273.217944 
L 395.809763 -273.217533 
L 395.364353 -273.217122 
L 394.877532 -273.216711 
L 394.364018 -273.216299 
L 393.838036 -273.215888 
L 393.312924 -273.215477 
L 392.800796 -273.215066 
L 392.312271 -273.214655 
L 391.856245 -273.214244 
L 391.439751 -273.213833 
L 391.067886 -273.213421 
L 390.743827 -273.21301 
L 390.468936 -273.212599 
L 390.242943 -273.212188 
L 390.064197 -273.211777 
L 389.929957 -273.211366 
L 389.836711 -273.210955 
L 389.780481 -273.210543 
L 389.757111 -273.210132 
L 389.762508 -273.209721 
L 389.79282 -273.20931 
L 389.84456 -273.208899 
L 389.914662 -273.208488 
L 390.000483 -273.208077 
L 390.099755 -273.207665 
L 390.210508 -273.207254 
L 390.330971 -273.206843 
L 390.459474 -273.206432 
L 390.594358 -273.206021 
L 390.733909 -273.20561 
L 390.876323 -273.205198 
L 391.019695 -273.204787 
L 391.162045 -273.204376 
L 391.301362 -273.203965 
L 391.435667 -273.203554 
L 391.563082 -273.203143 
L 391.681896 -273.202732 
L 391.790631 -273.20232 
L 391.888093 -273.201909 
L 391.973416 -273.201498 
L 392.04609 -273.201087 
L 392.105973 -273.200676 
L 392.153279 -273.200265 
L 392.188545 -273.199854 
L 392.212563 -273.199442 
L 392.226287 -273.199031 
L 392.230701 -273.19862 
L 392.22668 -273.198209 
L 392.214831 -273.197798 
L 392.195362 -273.197387 
L 392.167977 -273.196976 
L 392.131835 -273.196564 
L 392.085574 -273.196153 
L 392.027414 -273.195742 
L 391.955329 -273.195331 
L 391.867275 -273.19492 
L 391.761442 -273.194509 
L 391.636506 -273.194098 
L 391.49185 -273.193686 
L 391.327717 -273.193275 
L 391.145289 -273.192864 
L 390.946676 -273.192453 
L 390.734812 -273.192042 
L 390.513287 -273.191631 
L 390.28612 -273.191219 
L 390.057506 -273.190808 
L 389.831566 -273.190397 
L 389.612114 -273.189986 
L 389.402471 -273.189575 
L 389.205325 -273.189164 
L 389.022654 -273.188753 
L 388.855707 -273.188341 
L 388.705024 -273.18793 
L 388.570513 -273.187519 
L 388.451539 -273.187108 
L 388.34705 -273.186697 
L 388.255696 -273.186286 
L 388.175957 -273.185875 
L 388.10626 -273.185463 
L 388.045078 -273.185052 
L 387.991013 -273.184641 
L 387.942848 -273.18423 
L 387.899588 -273.183819 
L 387.86046 -273.183408 
L 387.824905 -273.182997 
z
" style="stroke: #bf4e30; stroke-opacity: 0.3"/>
    </defs>
    <g clip-path="url(#p23216bd57b)">
     <use xlink:href="#mc4c4331f38" x="0" y="288" style="fill: #bf4e30; fill-opacity: 0.3; stroke: #bf4e30; stroke-opacity: 0.3"/>
    </g>
   </g>
   <g id="matplotlib.axis_1">
    <g id="xtick_1">
     <g id="line2d_1">
      <defs>
       <path id="med46a34e01" d="M 0 0 
L 0 3.5 
" style="stroke: #000000; stroke-width: 0.8"/>
      </defs>
      <g>
       <use xlink:href="#med46a34e01" x="75.81425" y="246.04" style="stroke: #000000; stroke-width: 0.8"/>
      </g>
     </g>
     <g id="text_1">
      <!-- S70 -->
      <g transform="translate(66.277531 260.638438) scale(0.1 -0.1)">
       <defs>
        <path id="DejaVuSans-53" d="M 3425 4513 
L 3425 3897 
Q 3066 4069 2747 4153 
Q 2428 4238 2131 4238 
Q 1616 4238 1336 4038 
Q 1056 3838 1056 3469 
Q 1056 3159 1242 3001 
Q 1428 2844 1947 2747 
L 2328 2669 
Q 3034 2534 3370 2195 
Q 3706 1856 3706 1288 
Q 3706 609 3251 259 
Q 2797 -91 1919 -91 
Q 1588 -91 1214 -16 
Q 841 59 441 206 
L 441 856 
Q 825 641 1194 531 
Q 1563 422 1919 422 
Q 2459 422 2753 634 
Q 3047 847 3047 1241 
Q 3047 1584 2836 1778 
Q 2625 1972 2144 2069 
L 1759 2144 
Q 1053 2284 737 2584 
Q 422 2884 422 3419 
Q 422 4038 858 4394 
Q 1294 4750 2059 4750 
Q 2388 4750 2728 4690 
Q 3069 4631 3425 4513 
z
" transform="scale(0.015625)"/>
        <path id="DejaVuSans-37" d="M 525 4666 
L 3525 4666 
L 3525 4397 
L 1831 0 
L 1172 0 
L 2766 4134 
L 525 4134 
L 525 4666 
z
" transform="scale(0.015625)"/>
        <path id="DejaVuSans-30" d="M 2034 4250 
Q 1547 4250 1301 3770 
Q 1056 3291 1056 2328 
Q 1056 1369 1301 889 
Q 1547 409 2034 409 
Q 2525 409 2770 889 
Q 3016 1369 3016 2328 
Q 3016 3291 2770 3770 
Q 2525 4250 2034 4250 
z
M 2034 4750 
Q 2819 4750 3233 4129 
Q 3647 3509 3647 2328 
Q 3647 1150 3233 529 
Q 2819 -91 2034 -91 
Q 1250 -91 836 529 
Q 422 1150 422 2328 
Q 422 3509 836 4129 
Q 1250 4750 2034 4750 
z
" transform="scale(0.015625)"/>
       </defs>
       <use xlink:href="#DejaVuSans-53"/>
       <use xlink:href="#DejaVuSans-37" x="63.476562"/>
       <use xlink:href="#DejaVuSans-30" x="127.099609"/>
      </g>
     </g>
    </g>
    <g id="xtick_2">
     <g id="line2d_2">
      <g>
       <use xlink:href="#med46a34e01" x="150.49225" y="246.04" style="stroke: #000000; stroke-width: 0.8"/>
      </g>
     </g>
     <g id="text_2">
      <!-- R244 -->
      <g transform="translate(137.474281 260.638438) scale(0.1 -0.1)">
       <defs>
        <path id="DejaVuSans-52" d="M 2841 2188 
Q 3044 2119 3236 1894 
Q 3428 1669 3622 1275 
L 4263 0 
L 3584 0 
L 2988 1197 
Q 2756 1666 2539 1819 
Q 2322 1972 1947 1972 
L 1259 1972 
L 1259 0 
L 628 0 
L 628 4666 
L 2053 4666 
Q 2853 4666 3247 4331 
Q 3641 3997 3641 3322 
Q 3641 2881 3436 2590 
Q 3231 2300 2841 2188 
z
M 1259 4147 
L 1259 2491 
L 2053 2491 
Q 2509 2491 2742 2702 
Q 2975 2913 2975 3322 
Q 2975 3731 2742 3939 
Q 2509 4147 2053 4147 
L 1259 4147 
z
" transform="scale(0.015625)"/>
        <path id="DejaVuSans-32" d="M 1228 531 
L 3431 531 
L 3431 0 
L 469 0 
L 469 531 
Q 828 903 1448 1529 
Q 2069 2156 2228 2338 
Q 2531 2678 2651 2914 
Q 2772 3150 2772 3378 
Q 2772 3750 2511 3984 
Q 2250 4219 1831 4219 
Q 1534 4219 1204 4116 
Q 875 4013 500 3803 
L 500 4441 
Q 881 4594 1212 4672 
Q 1544 4750 1819 4750 
Q 2544 4750 2975 4387 
Q 3406 4025 3406 3419 
Q 3406 3131 3298 2873 
Q 3191 2616 2906 2266 
Q 2828 2175 2409 1742 
Q 1991 1309 1228 531 
z
" transform="scale(0.015625)"/>
        <path id="DejaVuSans-34" d="M 2419 4116 
L 825 1625 
L 2419 1625 
L 2419 4116 
z
M 2253 4666 
L 3047 4666 
L 3047 1625 
L 3713 1625 
L 3713 1100 
L 3047 1100 
L 3047 0 
L 2419 0 
L 2419 1100 
L 313 1100 
L 313 1709 
L 2253 4666 
z
" transform="scale(0.015625)"/>
       </defs>
       <use xlink:href="#DejaVuSans-52"/>
       <use xlink:href="#DejaVuSans-32" x="69.482422"/>
       <use xlink:href="#DejaVuSans-34" x="133.105469"/>
       <use xlink:href="#DejaVuSans-34" x="196.728516"/>
      </g>
     </g>
    </g>
    <g id="xtick_3">
     <g id="line2d_3">
      <g>
       <use xlink:href="#med46a34e01" x="225.17025" y="246.04" style="stroke: #000000; stroke-width: 0.8"/>
      </g>
     </g>
     <g id="text_3">
      <!-- E166 -->
      <g transform="translate(212.467125 260.638438) scale(0.1 -0.1)">
       <defs>
        <path id="DejaVuSans-45" d="M 628 4666 
L 3578 4666 
L 3578 4134 
L 1259 4134 
L 1259 2753 
L 3481 2753 
L 3481 2222 
L 1259 2222 
L 1259 531 
L 3634 531 
L 3634 0 
L 628 0 
L 628 4666 
z
" transform="scale(0.015625)"/>
        <path id="DejaVuSans-31" d="M 794 531 
L 1825 531 
L 1825 4091 
L 703 3866 
L 703 4441 
L 1819 4666 
L 2450 4666 
L 2450 531 
L 3481 531 
L 3481 0 
L 794 0 
L 794 531 
z
" transform="scale(0.015625)"/>
        <path id="DejaVuSans-36" d="M 2113 2584 
Q 1688 2584 1439 2293 
Q 1191 2003 1191 1497 
Q 1191 994 1439 701 
Q 1688 409 2113 409 
Q 2538 409 2786 701 
Q 3034 994 3034 1497 
Q 3034 2003 2786 2293 
Q 2538 2584 2113 2584 
z
M 3366 4563 
L 3366 3988 
Q 3128 4100 2886 4159 
Q 2644 4219 2406 4219 
Q 1781 4219 1451 3797 
Q 1122 3375 1075 2522 
Q 1259 2794 1537 2939 
Q 1816 3084 2150 3084 
Q 2853 3084 3261 2657 
Q 3669 2231 3669 1497 
Q 3669 778 3244 343 
Q 2819 -91 2113 -91 
Q 1303 -91 875 529 
Q 447 1150 447 2328 
Q 447 3434 972 4092 
Q 1497 4750 2381 4750 
Q 2619 4750 2861 4703 
Q 3103 4656 3366 4563 
z
" transform="scale(0.015625)"/>
       </defs>
       <use xlink:href="#DejaVuSans-45"/>
       <use xlink:href="#DejaVuSans-31" x="63.183594"/>
       <use xlink:href="#DejaVuSans-36" x="126.806641"/>
       <use xlink:href="#DejaVuSans-36" x="190.429688"/>
      </g>
     </g>
    </g>
    <g id="xtick_4">
     <g id="line2d_4">
      <g>
       <use xlink:href="#med46a34e01" x="299.84825" y="246.04" style="stroke: #000000; stroke-width: 0.8"/>
      </g>
     </g>
     <g id="text_4">
      <!-- K73 -->
      <g transform="translate(290.206844 260.638438) scale(0.1 -0.1)">
       <defs>
        <path id="DejaVuSans-4b" d="M 628 4666 
L 1259 4666 
L 1259 2694 
L 3353 4666 
L 4166 4666 
L 1850 2491 
L 4331 0 
L 3500 0 
L 1259 2247 
L 1259 0 
L 628 0 
L 628 4666 
z
" transform="scale(0.015625)"/>
        <path id="DejaVuSans-33" d="M 2597 2516 
Q 3050 2419 3304 2112 
Q 3559 1806 3559 1356 
Q 3559 666 3084 287 
Q 2609 -91 1734 -91 
Q 1441 -91 1130 -33 
Q 819 25 488 141 
L 488 750 
Q 750 597 1062 519 
Q 1375 441 1716 441 
Q 2309 441 2620 675 
Q 2931 909 2931 1356 
Q 2931 1769 2642 2001 
Q 2353 2234 1838 2234 
L 1294 2234 
L 1294 2753 
L 1863 2753 
Q 2328 2753 2575 2939 
Q 2822 3125 2822 3475 
Q 2822 3834 2567 4026 
Q 2313 4219 1838 4219 
Q 1578 4219 1281 4162 
Q 984 4106 628 3988 
L 628 4550 
Q 988 4650 1302 4700 
Q 1616 4750 1894 4750 
Q 2613 4750 3031 4423 
Q 3450 4097 3450 3541 
Q 3450 3153 3228 2886 
Q 3006 2619 2597 2516 
z
" transform="scale(0.015625)"/>
       </defs>
       <use xlink:href="#DejaVuSans-4b"/>
       <use xlink:href="#DejaVuSans-37" x="65.576172"/>
       <use xlink:href="#DejaVuSans-33" x="129.199219"/>
      </g>
     </g>
    </g>
    <g id="xtick_5">
     <g id="line2d_5">
      <g>
       <use xlink:href="#med46a34e01" x="374.52625" y="246.04" style="stroke: #000000; stroke-width: 0.8"/>
      </g>
     </g>
     <g id="text_5">
      <!-- N132 -->
      <g transform="translate(361.241875 260.638438) scale(0.1 -0.1)">
       <defs>
        <path id="DejaVuSans-4e" d="M 628 4666 
L 1478 4666 
L 3547 763 
L 3547 4666 
L 4159 4666 
L 4159 0 
L 3309 0 
L 1241 3903 
L 1241 0 
L 628 0 
L 628 4666 
z
" transform="scale(0.015625)"/>
       </defs>
       <use xlink:href="#DejaVuSans-4e"/>
       <use xlink:href="#DejaVuSans-31" x="74.804688"/>
       <use xlink:href="#DejaVuSans-33" x="138.427734"/>
       <use xlink:href="#DejaVuSans-32" x="202.050781"/>
      </g>
     </g>
    </g>
    <g id="text_6">
     <!-- protein interface type -->
     <g transform="translate(180.085469 274.316562) scale(0.1 -0.1)">
      <defs>
       <path id="DejaVuSans-70" d="M 1159 525 
L 1159 -1331 
L 581 -1331 
L 581 3500 
L 1159 3500 
L 1159 2969 
Q 1341 3281 1617 3432 
Q 1894 3584 2278 3584 
Q 2916 3584 3314 3078 
Q 3713 2572 3713 1747 
Q 3713 922 3314 415 
Q 2916 -91 2278 -91 
Q 1894 -91 1617 61 
Q 1341 213 1159 525 
z
M 3116 1747 
Q 3116 2381 2855 2742 
Q 2594 3103 2138 3103 
Q 1681 3103 1420 2742 
Q 1159 2381 1159 1747 
Q 1159 1113 1420 752 
Q 1681 391 2138 391 
Q 2594 391 2855 752 
Q 3116 1113 3116 1747 
z
" transform="scale(0.015625)"/>
       <path id="DejaVuSans-72" d="M 2631 2963 
Q 2534 3019 2420 3045 
Q 2306 3072 2169 3072 
Q 1681 3072 1420 2755 
Q 1159 2438 1159 1844 
L 1159 0 
L 581 0 
L 581 3500 
L 1159 3500 
L 1159 2956 
Q 1341 3275 1631 3429 
Q 1922 3584 2338 3584 
Q 2397 3584 2469 3576 
Q 2541 3569 2628 3553 
L 2631 2963 
z
" transform="scale(0.015625)"/>
       <path id="DejaVuSans-6f" d="M 1959 3097 
Q 1497 3097 1228 2736 
Q 959 2375 959 1747 
Q 959 1119 1226 758 
Q 1494 397 1959 397 
Q 2419 397 2687 759 
Q 2956 1122 2956 1747 
Q 2956 2369 2687 2733 
Q 2419 3097 1959 3097 
z
M 1959 3584 
Q 2709 3584 3137 3096 
Q 3566 2609 3566 1747 
Q 3566 888 3137 398 
Q 2709 -91 1959 -91 
Q 1206 -91 779 398 
Q 353 888 353 1747 
Q 353 2609 779 3096 
Q 1206 3584 1959 3584 
z
" transform="scale(0.015625)"/>
       <path id="DejaVuSans-74" d="M 1172 4494 
L 1172 3500 
L 2356 3500 
L 2356 3053 
L 1172 3053 
L 1172 1153 
Q 1172 725 1289 603 
Q 1406 481 1766 481 
L 2356 481 
L 2356 0 
L 1766 0 
Q 1100 0 847 248 
Q 594 497 594 1153 
L 594 3053 
L 172 3053 
L 172 3500 
L 594 3500 
L 594 4494 
L 1172 4494 
z
" transform="scale(0.015625)"/>
       <path id="DejaVuSans-65" d="M 3597 1894 
L 3597 1613 
L 953 1613 
Q 991 1019 1311 708 
Q 1631 397 2203 397 
Q 2534 397 2845 478 
Q 3156 559 3463 722 
L 3463 178 
Q 3153 47 2828 -22 
Q 2503 -91 2169 -91 
Q 1331 -91 842 396 
Q 353 884 353 1716 
Q 353 2575 817 3079 
Q 1281 3584 2069 3584 
Q 2775 3584 3186 3129 
Q 3597 2675 3597 1894 
z
M 3022 2063 
Q 3016 2534 2758 2815 
Q 2500 3097 2075 3097 
Q 1594 3097 1305 2825 
Q 1016 2553 972 2059 
L 3022 2063 
z
" transform="scale(0.015625)"/>
       <path id="DejaVuSans-69" d="M 603 3500 
L 1178 3500 
L 1178 0 
L 603 0 
L 603 3500 
z
M 603 4863 
L 1178 4863 
L 1178 4134 
L 603 4134 
L 603 4863 
z
" transform="scale(0.015625)"/>
       <path id="DejaVuSans-6e" d="M 3513 2113 
L 3513 0 
L 2938 0 
L 2938 2094 
Q 2938 2591 2744 2837 
Q 2550 3084 2163 3084 
Q 1697 3084 1428 2787 
Q 1159 2491 1159 1978 
L 1159 0 
L 581 0 
L 581 3500 
L 1159 3500 
L 1159 2956 
Q 1366 3272 1645 3428 
Q 1925 3584 2291 3584 
Q 2894 3584 3203 3211 
Q 3513 2838 3513 2113 
z
" transform="scale(0.015625)"/>
       <path id="DejaVuSans-20" transform="scale(0.015625)"/>
       <path id="DejaVuSans-66" d="M 2375 4863 
L 2375 4384 
L 1825 4384 
Q 1516 4384 1395 4259 
Q 1275 4134 1275 3809 
L 1275 3500 
L 2222 3500 
L 2222 3053 
L 1275 3053 
L 1275 0 
L 697 0 
L 697 3053 
L 147 3053 
L 147 3500 
L 697 3500 
L 697 3744 
Q 697 4328 969 4595 
Q 1241 4863 1831 4863 
L 2375 4863 
z
" transform="scale(0.015625)"/>
       <path id="DejaVuSans-61" d="M 2194 1759 
Q 1497 1759 1228 1600 
Q 959 1441 959 1056 
Q 959 750 1161 570 
Q 1363 391 1709 391 
Q 2188 391 2477 730 
Q 2766 1069 2766 1631 
L 2766 1759 
L 2194 1759 
z
M 3341 1997 
L 3341 0 
L 2766 0 
L 2766 531 
Q 2569 213 2275 61 
Q 1981 -91 1556 -91 
Q 1019 -91 701 211 
Q 384 513 384 1019 
Q 384 1609 779 1909 
Q 1175 2209 1959 2209 
L 2766 2209 
L 2766 2266 
Q 2766 2663 2505 2880 
Q 2244 3097 1772 3097 
Q 1472 3097 1187 3025 
Q 903 2953 641 2809 
L 641 3341 
Q 956 3463 1253 3523 
Q 1550 3584 1831 3584 
Q 2591 3584 2966 3190 
Q 3341 2797 3341 1997 
z
" transform="scale(0.015625)"/>
       <path id="DejaVuSans-63" d="M 3122 3366 
L 3122 2828 
Q 2878 2963 2633 3030 
Q 2388 3097 2138 3097 
Q 1578 3097 1268 2742 
Q 959 2388 959 1747 
Q 959 1106 1268 751 
Q 1578 397 2138 397 
Q 2388 397 2633 464 
Q 2878 531 3122 666 
L 3122 134 
Q 2881 22 2623 -34 
Q 2366 -91 2075 -91 
Q 1284 -91 818 406 
Q 353 903 353 1747 
Q 353 2603 823 3093 
Q 1294 3584 2113 3584 
Q 2378 3584 2631 3529 
Q 2884 3475 3122 3366 
z
" transform="scale(0.015625)"/>
       <path id="DejaVuSans-79" d="M 2059 -325 
Q 1816 -950 1584 -1140 
Q 1353 -1331 966 -1331 
L 506 -1331 
L 506 -850 
L 844 -850 
Q 1081 -850 1212 -737 
Q 1344 -625 1503 -206 
L 1606 56 
L 191 3500 
L 800 3500 
L 1894 763 
L 2988 3500 
L 3597 3500 
L 2059 -325 
z
" transform="scale(0.015625)"/>
      </defs>
      <use xlink:href="#DejaVuSans-70"/>
      <use xlink:href="#DejaVuSans-72" x="63.476562"/>
      <use xlink:href="#DejaVuSans-6f" x="102.339844"/>
      <use xlink:href="#DejaVuSans-74" x="163.521484"/>
      <use xlink:href="#DejaVuSans-65" x="202.730469"/>
      <use xlink:href="#DejaVuSans-69" x="264.253906"/>
      <use xlink:href="#DejaVuSans-6e" x="292.037109"/>
      <use xlink:href="#DejaVuSans-20" x="355.416016"/>
      <use xlink:href="#DejaVuSans-69" x="387.203125"/>
      <use xlink:href="#DejaVuSans-6e" x="414.986328"/>
      <use xlink:href="#DejaVuSans-74" x="478.365234"/>
      <use xlink:href="#DejaVuSans-65" x="517.574219"/>
      <use xlink:href="#DejaVuSans-72" x="579.097656"/>
      <use xlink:href="#DejaVuSans-66" x="620.210938"/>
      <use xlink:href="#DejaVuSans-61" x="655.416016"/>
      <use xlink:href="#DejaVuSans-63" x="716.695312"/>
      <use xlink:href="#DejaVuSans-65" x="771.675781"/>
      <use xlink:href="#DejaVuSans-20" x="833.199219"/>
      <use xlink:href="#DejaVuSans-74" x="864.986328"/>
      <use xlink:href="#DejaVuSans-79" x="904.195312"/>
      <use xlink:href="#DejaVuSans-70" x="963.375"/>
      <use xlink:href="#DejaVuSans-65" x="1026.851562"/>
     </g>
    </g>
   </g>
   <g id="matplotlib.axis_2">
    <g id="ytick_1">
     <g id="line2d_6">
      <defs>
       <path id="me97db74b26" d="M 0 0 
L -3.5 0 
" style="stroke: #000000; stroke-width: 0.8"/>
      </defs>
      <g>
       <use xlink:href="#me97db74b26" x="47.81" y="246.04" style="stroke: #000000; stroke-width: 0.8"/>
      </g>
     </g>
     <g id="text_7">
      <!-- 0.0 -->
      <g transform="translate(24.906875 249.839219) scale(0.1 -0.1)">
       <defs>
        <path id="DejaVuSans-2e" d="M 684 794 
L 1344 794 
L 1344 0 
L 684 0 
L 684 794 
z
" transform="scale(0.015625)"/>
       </defs>
       <use xlink:href="#DejaVuSans-30"/>
       <use xlink:href="#DejaVuSans-2e" x="63.623047"/>
       <use xlink:href="#DejaVuSans-30" x="95.410156"/>
      </g>
     </g>
    </g>
    <g id="ytick_2">
     <g id="line2d_7">
      <g>
       <use xlink:href="#me97db74b26" x="47.81" y="199.785946" style="stroke: #000000; stroke-width: 0.8"/>
      </g>
     </g>
     <g id="text_8">
      <!-- 0.2 -->
      <g transform="translate(24.906875 203.585165) scale(0.1 -0.1)">
       <use xlink:href="#DejaVuSans-30"/>
       <use xlink:href="#DejaVuSans-2e" x="63.623047"/>
       <use xlink:href="#DejaVuSans-32" x="95.410156"/>
      </g>
     </g>
    </g>
    <g id="ytick_3">
     <g id="line2d_8">
      <g>
       <use xlink:href="#me97db74b26" x="47.81" y="153.531893" style="stroke: #000000; stroke-width: 0.8"/>
      </g>
     </g>
     <g id="text_9">
      <!-- 0.4 -->
      <g transform="translate(24.906875 157.331111) scale(0.1 -0.1)">
       <use xlink:href="#DejaVuSans-30"/>
       <use xlink:href="#DejaVuSans-2e" x="63.623047"/>
       <use xlink:href="#DejaVuSans-34" x="95.410156"/>
      </g>
     </g>
    </g>
    <g id="ytick_4">
     <g id="line2d_9">
      <g>
       <use xlink:href="#me97db74b26" x="47.81" y="107.277839" style="stroke: #000000; stroke-width: 0.8"/>
      </g>
     </g>
     <g id="text_10">
      <!-- 0.6 -->
      <g transform="translate(24.906875 111.077058) scale(0.1 -0.1)">
       <use xlink:href="#DejaVuSans-30"/>
       <use xlink:href="#DejaVuSans-2e" x="63.623047"/>
       <use xlink:href="#DejaVuSans-36" x="95.410156"/>
      </g>
     </g>
    </g>
    <g id="ytick_5">
     <g id="line2d_10">
      <g>
       <use xlink:href="#me97db74b26" x="47.81" y="61.023785" style="stroke: #000000; stroke-width: 0.8"/>
      </g>
     </g>
     <g id="text_11">
      <!-- 0.8 -->
      <g transform="translate(24.906875 64.823004) scale(0.1 -0.1)">
       <defs>
        <path id="DejaVuSans-38" d="M 2034 2216 
Q 1584 2216 1326 1975 
Q 1069 1734 1069 1313 
Q 1069 891 1326 650 
Q 1584 409 2034 409 
Q 2484 409 2743 651 
Q 3003 894 3003 1313 
Q 3003 1734 2745 1975 
Q 2488 2216 2034 2216 
z
M 1403 2484 
Q 997 2584 770 2862 
Q 544 3141 544 3541 
Q 544 4100 942 4425 
Q 1341 4750 2034 4750 
Q 2731 4750 3128 4425 
Q 3525 4100 3525 3541 
Q 3525 3141 3298 2862 
Q 3072 2584 2669 2484 
Q 3125 2378 3379 2068 
Q 3634 1759 3634 1313 
Q 3634 634 3220 271 
Q 2806 -91 2034 -91 
Q 1263 -91 848 271 
Q 434 634 434 1313 
Q 434 1759 690 2068 
Q 947 2378 1403 2484 
z
M 1172 3481 
Q 1172 3119 1398 2916 
Q 1625 2713 2034 2713 
Q 2441 2713 2670 2916 
Q 2900 3119 2900 3481 
Q 2900 3844 2670 4047 
Q 2441 4250 2034 4250 
Q 1625 4250 1398 4047 
Q 1172 3844 1172 3481 
z
" transform="scale(0.015625)"/>
       </defs>
       <use xlink:href="#DejaVuSans-30"/>
       <use xlink:href="#DejaVuSans-2e" x="63.623047"/>
       <use xlink:href="#DejaVuSans-38" x="95.410156"/>
      </g>
     </g>
    </g>
    <g id="ytick_6">
     <g id="line2d_11">
      <g>
       <use xlink:href="#me97db74b26" x="47.81" y="14.769732" style="stroke: #000000; stroke-width: 0.8"/>
      </g>
     </g>
     <g id="text_12">
      <!-- 1.0 -->
      <g transform="translate(24.906875 18.568951) scale(0.1 -0.1)">
       <use xlink:href="#DejaVuSans-31"/>
       <use xlink:href="#DejaVuSans-2e" x="63.623047"/>
       <use xlink:href="#DejaVuSans-30" x="95.410156"/>
      </g>
     </g>
    </g>
    <g id="text_13">
     <!-- number of options per position -->
     <g transform="translate(18.827188 207.505637) rotate(-90) scale(0.1 -0.1)">
      <defs>
       <path id="DejaVuSans-75" d="M 544 1381 
L 544 3500 
L 1119 3500 
L 1119 1403 
Q 1119 906 1312 657 
Q 1506 409 1894 409 
Q 2359 409 2629 706 
Q 2900 1003 2900 1516 
L 2900 3500 
L 3475 3500 
L 3475 0 
L 2900 0 
L 2900 538 
Q 2691 219 2414 64 
Q 2138 -91 1772 -91 
Q 1169 -91 856 284 
Q 544 659 544 1381 
z
M 1991 3584 
L 1991 3584 
z
" transform="scale(0.015625)"/>
       <path id="DejaVuSans-6d" d="M 3328 2828 
Q 3544 3216 3844 3400 
Q 4144 3584 4550 3584 
Q 5097 3584 5394 3201 
Q 5691 2819 5691 2113 
L 5691 0 
L 5113 0 
L 5113 2094 
Q 5113 2597 4934 2840 
Q 4756 3084 4391 3084 
Q 3944 3084 3684 2787 
Q 3425 2491 3425 1978 
L 3425 0 
L 2847 0 
L 2847 2094 
Q 2847 2600 2669 2842 
Q 2491 3084 2119 3084 
Q 1678 3084 1418 2786 
Q 1159 2488 1159 1978 
L 1159 0 
L 581 0 
L 581 3500 
L 1159 3500 
L 1159 2956 
Q 1356 3278 1631 3431 
Q 1906 3584 2284 3584 
Q 2666 3584 2933 3390 
Q 3200 3197 3328 2828 
z
" transform="scale(0.015625)"/>
       <path id="DejaVuSans-62" d="M 3116 1747 
Q 3116 2381 2855 2742 
Q 2594 3103 2138 3103 
Q 1681 3103 1420 2742 
Q 1159 2381 1159 1747 
Q 1159 1113 1420 752 
Q 1681 391 2138 391 
Q 2594 391 2855 752 
Q 3116 1113 3116 1747 
z
M 1159 2969 
Q 1341 3281 1617 3432 
Q 1894 3584 2278 3584 
Q 2916 3584 3314 3078 
Q 3713 2572 3713 1747 
Q 3713 922 3314 415 
Q 2916 -91 2278 -91 
Q 1894 -91 1617 61 
Q 1341 213 1159 525 
L 1159 0 
L 581 0 
L 581 4863 
L 1159 4863 
L 1159 2969 
z
" transform="scale(0.015625)"/>
       <path id="DejaVuSans-73" d="M 2834 3397 
L 2834 2853 
Q 2591 2978 2328 3040 
Q 2066 3103 1784 3103 
Q 1356 3103 1142 2972 
Q 928 2841 928 2578 
Q 928 2378 1081 2264 
Q 1234 2150 1697 2047 
L 1894 2003 
Q 2506 1872 2764 1633 
Q 3022 1394 3022 966 
Q 3022 478 2636 193 
Q 2250 -91 1575 -91 
Q 1294 -91 989 -36 
Q 684 19 347 128 
L 347 722 
Q 666 556 975 473 
Q 1284 391 1588 391 
Q 1994 391 2212 530 
Q 2431 669 2431 922 
Q 2431 1156 2273 1281 
Q 2116 1406 1581 1522 
L 1381 1569 
Q 847 1681 609 1914 
Q 372 2147 372 2553 
Q 372 3047 722 3315 
Q 1072 3584 1716 3584 
Q 2034 3584 2315 3537 
Q 2597 3491 2834 3397 
z
" transform="scale(0.015625)"/>
      </defs>
      <use xlink:href="#DejaVuSans-6e"/>
      <use xlink:href="#DejaVuSans-75" x="63.378906"/>
      <use xlink:href="#DejaVuSans-6d" x="126.757812"/>
      <use xlink:href="#DejaVuSans-62" x="224.169922"/>
      <use xlink:href="#DejaVuSans-65" x="287.646484"/>
      <use xlink:href="#DejaVuSans-72" x="349.169922"/>
      <use xlink:href="#DejaVuSans-20" x="390.283203"/>
      <use xlink:href="#DejaVuSans-6f" x="422.070312"/>
      <use xlink:href="#DejaVuSans-66" x="483.251953"/>
      <use xlink:href="#DejaVuSans-20" x="518.457031"/>
      <use xlink:href="#DejaVuSans-6f" x="550.244141"/>
      <use xlink:href="#DejaVuSans-70" x="611.425781"/>
      <use xlink:href="#DejaVuSans-74" x="674.902344"/>
      <use xlink:href="#DejaVuSans-69" x="714.111328"/>
      <use xlink:href="#DejaVuSans-6f" x="741.894531"/>
      <use xlink:href="#DejaVuSans-6e" x="803.076172"/>
      <use xlink:href="#DejaVuSans-73" x="866.455078"/>
      <use xlink:href="#DejaVuSans-20" x="918.554688"/>
      <use xlink:href="#DejaVuSans-70" x="950.341797"/>
      <use xlink:href="#DejaVuSans-65" x="1013.818359"/>
      <use xlink:href="#DejaVuSans-72" x="1075.341797"/>
      <use xlink:href="#DejaVuSans-20" x="1116.455078"/>
      <use xlink:href="#DejaVuSans-70" x="1148.242188"/>
      <use xlink:href="#DejaVuSans-6f" x="1211.71875"/>
      <use xlink:href="#DejaVuSans-73" x="1272.900391"/>
      <use xlink:href="#DejaVuSans-69" x="1325"/>
      <use xlink:href="#DejaVuSans-74" x="1352.783203"/>
      <use xlink:href="#DejaVuSans-69" x="1391.992188"/>
      <use xlink:href="#DejaVuSans-6f" x="1419.775391"/>
      <use xlink:href="#DejaVuSans-6e" x="1480.957031"/>
     </g>
    </g>
   </g>
   <g id="LineCollection_1">
    <path d="M 58.078225 173.221657 
L 67.412975 173.221657 
" clip-path="url(#p23216bd57b)" style="fill: none; stroke: #0d3b66; stroke-width: 1.5"/>
    <path d="M 132.756225 216.616696 
L 142.090975 216.616696 
" clip-path="url(#p23216bd57b)" style="fill: none; stroke: #0d3b66; stroke-width: 1.5"/>
    <path d="M 207.434225 190.103585 
L 216.768975 190.103585 
" clip-path="url(#p23216bd57b)" style="fill: none; stroke: #0d3b66; stroke-width: 1.5"/>
    <path d="M 282.112225 92.714484 
L 291.446975 92.714484 
" clip-path="url(#p23216bd57b)" style="fill: none; stroke: #0d3b66; stroke-width: 1.5"/>
    <path d="M 356.790225 17.129833 
L 366.124975 17.129833 
" clip-path="url(#p23216bd57b)" style="fill: none; stroke: #0d3b66; stroke-width: 1.5"/>
   </g>
   <g id="LineCollection_2">
    <path d="M 84.215525 20.870757 
L 93.550275 20.870757 
" clip-path="url(#p23216bd57b)" style="fill: none; stroke: #bf4e30; stroke-width: 1.5"/>
    <path d="M 158.893525 24.230579 
L 168.228275 24.230579 
" clip-path="url(#p23216bd57b)" style="fill: none; stroke: #bf4e30; stroke-width: 1.5"/>
    <path d="M 233.571525 80.741599 
L 242.906275 80.741599 
" clip-path="url(#p23216bd57b)" style="fill: none; stroke: #bf4e30; stroke-width: 1.5"/>
    <path d="M 308.249525 21.811975 
L 317.584275 21.811975 
" clip-path="url(#p23216bd57b)" style="fill: none; stroke: #bf4e30; stroke-width: 1.5"/>
    <path d="M 382.927525 14.786164 
L 392.262275 14.786164 
" clip-path="url(#p23216bd57b)" style="fill: none; stroke: #bf4e30; stroke-width: 1.5"/>
   </g>
   <g id="line2d_12">
    <path d="M 47.81 130.404866 
L 421.2 130.404866 
" clip-path="url(#p23216bd57b)" style="fill: none; stroke-dasharray: 5.55,2.4; stroke-dashoffset: 0; stroke: #000000; stroke-width: 1.5"/>
   </g>
   <g id="patch_3">
    <path d="M 47.81 246.04 
L 47.81 14.538462 
" style="fill: none; stroke: #000000; stroke-width: 0.8; stroke-linejoin: miter; stroke-linecap: square"/>
   </g>
   <g id="patch_4">
    <path d="M 421.2 246.04 
L 421.2 14.538462 
" style="fill: none; stroke: #000000; stroke-width: 0.8; stroke-linejoin: miter; stroke-linecap: square"/>
   </g>
   <g id="patch_5">
    <path d="M 47.81 246.04 
L 421.2 246.04 
" style="fill: none; stroke: #000000; stroke-width: 0.8; stroke-linejoin: miter; stroke-linecap: square"/>
   </g>
   <g id="patch_6">
    <path d="M 47.81 14.538462 
L 421.2 14.538462 
" style="fill: none; stroke: #000000; stroke-width: 0.8; stroke-linejoin: miter; stroke-linecap: square"/>
   </g>
   <g id="text_14">
    <!-- 0.31 -->
    <g transform="translate(51.612788 186.271687) scale(0.1 -0.1)">
     <use xlink:href="#DejaVuSans-30"/>
     <use xlink:href="#DejaVuSans-2e" x="63.623047"/>
     <use xlink:href="#DejaVuSans-33" x="95.410156"/>
     <use xlink:href="#DejaVuSans-31" x="159.033203"/>
    </g>
   </g>
   <g id="text_15">
    <!-- 0.97 -->
    <g transform="translate(77.750088 33.920787) scale(0.1 -0.1)">
     <defs>
      <path id="DejaVuSans-39" d="M 703 97 
L 703 672 
Q 941 559 1184 500 
Q 1428 441 1663 441 
Q 2288 441 2617 861 
Q 2947 1281 2994 2138 
Q 2813 1869 2534 1725 
Q 2256 1581 1919 1581 
Q 1219 1581 811 2004 
Q 403 2428 403 3163 
Q 403 3881 828 4315 
Q 1253 4750 1959 4750 
Q 2769 4750 3195 4129 
Q 3622 3509 3622 2328 
Q 3622 1225 3098 567 
Q 2575 -91 1691 -91 
Q 1453 -91 1209 -44 
Q 966 3 703 97 
z
M 1959 2075 
Q 2384 2075 2632 2365 
Q 2881 2656 2881 3163 
Q 2881 3666 2632 3958 
Q 2384 4250 1959 4250 
Q 1534 4250 1286 3958 
Q 1038 3666 1038 3163 
Q 1038 2656 1286 2365 
Q 1534 2075 1959 2075 
z
" transform="scale(0.015625)"/>
     </defs>
     <use xlink:href="#DejaVuSans-30"/>
     <use xlink:href="#DejaVuSans-2e" x="63.623047"/>
     <use xlink:href="#DejaVuSans-39" x="95.410156"/>
     <use xlink:href="#DejaVuSans-37" x="159.033203"/>
    </g>
   </g>
   <g id="text_16">
    <!-- 0.13 -->
    <g transform="translate(126.290788 229.666725) scale(0.1 -0.1)">
     <use xlink:href="#DejaVuSans-30"/>
     <use xlink:href="#DejaVuSans-2e" x="63.623047"/>
     <use xlink:href="#DejaVuSans-31" x="95.410156"/>
     <use xlink:href="#DejaVuSans-33" x="159.033203"/>
    </g>
   </g>
   <g id="text_17">
    <!-- 0.96 -->
    <g transform="translate(152.428088 37.280608) scale(0.1 -0.1)">
     <use xlink:href="#DejaVuSans-30"/>
     <use xlink:href="#DejaVuSans-2e" x="63.623047"/>
     <use xlink:href="#DejaVuSans-39" x="95.410156"/>
     <use xlink:href="#DejaVuSans-36" x="159.033203"/>
    </g>
   </g>
   <g id="text_18">
    <!-- 0.24 -->
    <g transform="translate(200.968788 203.153615) scale(0.1 -0.1)">
     <use xlink:href="#DejaVuSans-30"/>
     <use xlink:href="#DejaVuSans-2e" x="63.623047"/>
     <use xlink:href="#DejaVuSans-32" x="95.410156"/>
     <use xlink:href="#DejaVuSans-34" x="159.033203"/>
    </g>
   </g>
   <g id="text_19">
    <!-- 0.71 -->
    <g transform="translate(227.106088 93.791629) scale(0.1 -0.1)">
     <use xlink:href="#DejaVuSans-30"/>
     <use xlink:href="#DejaVuSans-2e" x="63.623047"/>
     <use xlink:href="#DejaVuSans-37" x="95.410156"/>
     <use xlink:href="#DejaVuSans-31" x="159.033203"/>
    </g>
   </g>
   <g id="text_20">
    <!-- 0.66 -->
    <g transform="translate(275.646788 105.764514) scale(0.1 -0.1)">
     <use xlink:href="#DejaVuSans-30"/>
     <use xlink:href="#DejaVuSans-2e" x="63.623047"/>
     <use xlink:href="#DejaVuSans-36" x="95.410156"/>
     <use xlink:href="#DejaVuSans-36" x="159.033203"/>
    </g>
   </g>
   <g id="text_21">
    <!-- 0.97 -->
    <g transform="translate(301.784087 34.862005) scale(0.1 -0.1)">
     <use xlink:href="#DejaVuSans-30"/>
     <use xlink:href="#DejaVuSans-2e" x="63.623047"/>
     <use xlink:href="#DejaVuSans-39" x="95.410156"/>
     <use xlink:href="#DejaVuSans-37" x="159.033203"/>
    </g>
   </g>
   <g id="text_22">
    <!-- 0.99 -->
    <g transform="translate(350.324788 30.179863) scale(0.1 -0.1)">
     <use xlink:href="#DejaVuSans-30"/>
     <use xlink:href="#DejaVuSans-2e" x="63.623047"/>
     <use xlink:href="#DejaVuSans-39" x="95.410156"/>
     <use xlink:href="#DejaVuSans-39" x="159.033203"/>
    </g>
   </g>
   <g id="text_23">
    <!-- 1.00 -->
    <g transform="translate(376.462087 27.836193) scale(0.1 -0.1)">
     <use xlink:href="#DejaVuSans-31"/>
     <use xlink:href="#DejaVuSans-2e" x="63.623047"/>
     <use xlink:href="#DejaVuSans-30" x="95.410156"/>
     <use xlink:href="#DejaVuSans-30" x="159.033203"/>
    </g>
   </g>
   <g id="legend_1">
    <g id="patch_7">
     <path d="M 327.23125 242.04 
L 415.6 242.04 
Q 417.2 242.04 417.2 240.44 
L 417.2 220.955 
Q 417.2 219.355 415.6 219.355 
L 327.23125 219.355 
Q 325.63125 219.355 325.63125 220.955 
L 325.63125 240.44 
Q 325.63125 242.04 327.23125 242.04 
z
" style="fill: #ffffff; opacity: 0.8; stroke: #cccccc; stroke-linejoin: miter"/>
    </g>
    <g id="patch_8">
     <path d="M 328.83125 228.63375 
L 344.83125 228.63375 
L 344.83125 223.03375 
L 328.83125 223.03375 
z
" style="fill: #0d3b66; fill-opacity: 0.3; stroke: #0d3b66; stroke-opacity: 0.3; stroke-linejoin: miter"/>
    </g>
    <g id="text_24">
     <!-- without context -->
     <g transform="translate(351.23125 228.63375) scale(0.08 -0.08)">
      <defs>
       <path id="DejaVuSans-77" d="M 269 3500 
L 844 3500 
L 1563 769 
L 2278 3500 
L 2956 3500 
L 3675 769 
L 4391 3500 
L 4966 3500 
L 4050 0 
L 3372 0 
L 2619 2869 
L 1863 0 
L 1184 0 
L 269 3500 
z
" transform="scale(0.015625)"/>
       <path id="DejaVuSans-68" d="M 3513 2113 
L 3513 0 
L 2938 0 
L 2938 2094 
Q 2938 2591 2744 2837 
Q 2550 3084 2163 3084 
Q 1697 3084 1428 2787 
Q 1159 2491 1159 1978 
L 1159 0 
L 581 0 
L 581 4863 
L 1159 4863 
L 1159 2956 
Q 1366 3272 1645 3428 
Q 1925 3584 2291 3584 
Q 2894 3584 3203 3211 
Q 3513 2838 3513 2113 
z
" transform="scale(0.015625)"/>
       <path id="DejaVuSans-78" d="M 3513 3500 
L 2247 1797 
L 3578 0 
L 2900 0 
L 1881 1375 
L 863 0 
L 184 0 
L 1544 1831 
L 300 3500 
L 978 3500 
L 1906 2253 
L 2834 3500 
L 3513 3500 
z
" transform="scale(0.015625)"/>
      </defs>
      <use xlink:href="#DejaVuSans-77"/>
      <use xlink:href="#DejaVuSans-69" x="81.787109"/>
      <use xlink:href="#DejaVuSans-74" x="109.570312"/>
      <use xlink:href="#DejaVuSans-68" x="148.779297"/>
      <use xlink:href="#DejaVuSans-6f" x="212.158203"/>
      <use xlink:href="#DejaVuSans-75" x="273.339844"/>
      <use xlink:href="#DejaVuSans-74" x="336.71875"/>
      <use xlink:href="#DejaVuSans-20" x="375.927734"/>
      <use xlink:href="#DejaVuSans-63" x="407.714844"/>
      <use xlink:href="#DejaVuSans-6f" x="462.695312"/>
      <use xlink:href="#DejaVuSans-6e" x="523.876953"/>
      <use xlink:href="#DejaVuSans-74" x="587.255859"/>
      <use xlink:href="#DejaVuSans-65" x="626.464844"/>
      <use xlink:href="#DejaVuSans-78" x="686.238281"/>
      <use xlink:href="#DejaVuSans-74" x="745.417969"/>
     </g>
    </g>
    <g id="patch_9">
     <path d="M 328.83125 237.17625 
L 344.83125 237.17625 
L 344.83125 231.57625 
L 328.83125 231.57625 
z
" style="fill: #bf4e30; fill-opacity: 0.3; stroke: #bf4e30; stroke-opacity: 0.3; stroke-linejoin: miter"/>
    </g>
    <g id="text_25">
     <!-- with context -->
     <g transform="translate(351.23125 237.17625) scale(0.08 -0.08)">
      <use xlink:href="#DejaVuSans-77"/>
      <use xlink:href="#DejaVuSans-69" x="81.787109"/>
      <use xlink:href="#DejaVuSans-74" x="109.570312"/>
      <use xlink:href="#DejaVuSans-68" x="148.779297"/>
      <use xlink:href="#DejaVuSans-20" x="212.158203"/>
      <use xlink:href="#DejaVuSans-63" x="243.945312"/>
      <use xlink:href="#DejaVuSans-6f" x="298.925781"/>
      <use xlink:href="#DejaVuSans-6e" x="360.107422"/>
      <use xlink:href="#DejaVuSans-74" x="423.486328"/>
      <use xlink:href="#DejaVuSans-65" x="462.695312"/>
      <use xlink:href="#DejaVuSans-78" x="522.46875"/>
      <use xlink:href="#DejaVuSans-74" x="581.648438"/>
     </g>
    </g>
   </g>
  </g>
 </g>
 <defs>
  <clipPath id="p23216bd57b">
   <rect x="47.81" y="14.538462" width="373.39" height="231.501538"/>
  </clipPath>
 </defs>
</svg>
