<?xml version="1.0" encoding="utf-8" standalone="no"?>
<!DOCTYPE svg PUBLIC "-//W3C//DTD SVG 1.1//EN"
  "http://www.w3.org/Graphics/SVG/1.1/DTD/svg11.dtd">
<svg xmlns:xlink="http://www.w3.org/1999/xlink" width="460.8pt" height="172.8pt" viewBox="0 0 460.8 172.8" xmlns="http://www.w3.org/2000/svg" version="1.1">
 <metadata>
  <rdf:RDF xmlns:dc="http://purl.org/dc/elements/1.1/" xmlns:cc="http://creativecommons.org/ns#" xmlns:rdf="http://www.w3.org/1999/02/22-rdf-syntax-ns#">
   <cc:Work>
    <dc:type rdf:resource="http://purl.org/dc/dcmitype/StillImage"/>
    <dc:date>2023-05-03T15:23:21.652050</dc:date>
    <dc:format>image/svg+xml</dc:format>
    <dc:creator>
     <cc:Agent>
      <dc:title>Matplotlib v3.7.1, https://matplotlib.org/</dc:title>
     </cc:Agent>
    </dc:creator>
   </cc:Work>
  </rdf:RDF>
 </metadata>
 <defs>
  <style type="text/css">*{stroke-linejoin: round; stroke-linecap: butt}</style>
 </defs>
 <g id="figure_1">
  <g id="patch_1">
   <path d="M 0 172.8 
L 460.8 172.8 
L 460.8 0 
L 0 0 
z
" style="fill: #ffffff"/>
  </g>
  <g id="axes_1">
   <g id="patch_2">
    <path d="M 51.46625 127.24 
L 447.84 127.24 
L 447.84 17.28 
L 51.46625 17.28 
z
" style="fill: #ffffff"/>
   </g>
   <g id="patch_3">
    <path d="M 55.870403 237.2 
L 62.476632 237.2 
L 62.476632 32.983176 
L 55.870403 32.983176 
z
" clip-path="url(#pc6f5961b40)" style="fill: #c2c1c2; opacity: 0.5"/>
   </g>
   <g id="patch_4">
    <path d="M 77.891167 237.2 
L 84.497396 237.2 
L 84.497396 50.839344 
L 77.891167 50.839344 
z
" clip-path="url(#pc6f5961b40)" style="fill: #c2c1c2; opacity: 0.5"/>
   </g>
   <g id="patch_5">
    <path d="M 99.911931 237.2 
L 106.51816 237.2 
L 106.51816 27.699685 
L 99.911931 27.699685 
z
" clip-path="url(#pc6f5961b40)" style="fill: #c2c1c2; opacity: 0.5"/>
   </g>
   <g id="patch_6">
    <path d="M 121.932694 237.2 
L 128.538924 237.2 
L 128.538924 66.751007 
L 121.932694 66.751007 
z
" clip-path="url(#pc6f5961b40)" style="fill: #c2c1c2; opacity: 0.5"/>
   </g>
   <g id="patch_7">
    <path d="M 143.953458 237.2 
L 150.559687 237.2 
L 150.559687 61.737284 
L 143.953458 61.737284 
z
" clip-path="url(#pc6f5961b40)" style="fill: #c2c1c2; opacity: 0.5"/>
   </g>
   <g id="patch_8">
    <path d="M 165.974222 237.2 
L 172.580451 237.2 
L 172.580451 65.092866 
L 165.974222 65.092866 
z
" clip-path="url(#pc6f5961b40)" style="fill: #c2c1c2; opacity: 0.5"/>
   </g>
   <g id="patch_9">
    <path d="M 187.994986 237.2 
L 194.601215 237.2 
L 194.601215 65.760495 
L 187.994986 65.760495 
z
" clip-path="url(#pc6f5961b40)" style="fill: #c2c1c2; opacity: 0.5"/>
   </g>
   <g id="patch_10">
    <path d="M 210.01575 237.2 
L 216.621979 237.2 
L 216.621979 28.766094 
L 210.01575 28.766094 
z
" clip-path="url(#pc6f5961b40)" style="fill: #c2c1c2; opacity: 0.5"/>
   </g>
   <g id="patch_11">
    <path d="M 232.036514 237.2 
L 238.642743 237.2 
L 238.642743 18.508427 
L 232.036514 18.508427 
z
" clip-path="url(#pc6f5961b40)" style="fill: #c2c1c2; opacity: 0.5"/>
   </g>
   <g id="patch_12">
    <path d="M 254.057278 237.2 
L 260.663507 237.2 
L 260.663507 59.553973 
L 254.057278 59.553973 
z
" clip-path="url(#pc6f5961b40)" style="fill: #c2c1c2; opacity: 0.5"/>
   </g>
   <g id="patch_13">
    <path d="M 276.078042 237.2 
L 282.684271 237.2 
L 282.684271 17.330454 
L 276.078042 17.330454 
z
" clip-path="url(#pc6f5961b40)" style="fill: #c2c1c2; opacity: 0.5"/>
   </g>
   <g id="patch_14">
    <path d="M 298.098806 237.2 
L 304.705035 237.2 
L 304.705035 17.326469 
L 298.098806 17.326469 
z
" clip-path="url(#pc6f5961b40)" style="fill: #c2c1c2; opacity: 0.5"/>
   </g>
   <g id="patch_15">
    <path d="M 320.119569 237.2 
L 326.725799 237.2 
L 326.725799 17.302441 
L 320.119569 17.302441 
z
" clip-path="url(#pc6f5961b40)" style="fill: #c2c1c2; opacity: 0.5"/>
   </g>
   <g id="patch_16">
    <path d="M 342.140333 237.2 
L 348.746562 237.2 
L 348.746562 23.616359 
L 342.140333 23.616359 
z
" clip-path="url(#pc6f5961b40)" style="fill: #c2c1c2; opacity: 0.5"/>
   </g>
   <g id="patch_17">
    <path d="M 364.161097 237.2 
L 370.767326 237.2 
L 370.767326 67.59299 
L 364.161097 67.59299 
z
" clip-path="url(#pc6f5961b40)" style="fill: #c2c1c2; opacity: 0.5"/>
   </g>
   <g id="patch_18">
    <path d="M 386.181861 237.2 
L 392.78809 237.2 
L 392.78809 42.195277 
L 386.181861 42.195277 
z
" clip-path="url(#pc6f5961b40)" style="fill: #c2c1c2; opacity: 0.5"/>
   </g>
   <g id="patch_19">
    <path d="M 408.202625 237.2 
L 414.808854 237.2 
L 414.808854 53.359026 
L 408.202625 53.359026 
z
" clip-path="url(#pc6f5961b40)" style="fill: #c2c1c2; opacity: 0.5"/>
   </g>
   <g id="patch_20">
    <path d="M 430.223389 237.2 
L 436.829618 237.2 
L 436.829618 28.613121 
L 430.223389 28.613121 
z
" clip-path="url(#pc6f5961b40)" style="fill: #c2c1c2; opacity: 0.5"/>
   </g>
   <g id="patch_21">
    <path d="M 55.870403 237.2 
L 62.476632 237.2 
L 62.476632 124.932515 
L 55.870403 124.932515 
z
" clip-path="url(#pc6f5961b40)" style="fill: #0d3b66"/>
   </g>
   <g id="patch_22">
    <path d="M 77.891167 237.2 
L 84.497396 237.2 
L 84.497396 154.827715 
L 77.891167 154.827715 
z
" clip-path="url(#pc6f5961b40)" style="fill: #0d3b66"/>
   </g>
   <g id="patch_23">
    <path d="M 99.911931 237.2 
L 106.51816 237.2 
L 106.51816 214.274541 
L 99.911931 214.274541 
z
" clip-path="url(#pc6f5961b40)" style="fill: #0d3b66"/>
   </g>
   <g id="patch_24">
    <path d="M 121.932694 237.2 
L 128.538924 237.2 
L 128.538924 171.543249 
L 121.932694 171.543249 
z
" clip-path="url(#pc6f5961b40)" style="fill: #0d3b66"/>
   </g>
   <g id="patch_25">
    <path d="M 143.953458 237.2 
L 150.559687 237.2 
L 150.559687 122.756112 
L 143.953458 122.756112 
z
" clip-path="url(#pc6f5961b40)" style="fill: #0d3b66"/>
   </g>
   <g id="patch_26">
    <path d="M 165.974222 237.2 
L 172.580451 237.2 
L 172.580451 87.456451 
L 165.974222 87.456451 
z
" clip-path="url(#pc6f5961b40)" style="fill: #0d3b66"/>
   </g>
   <g id="patch_27">
    <path d="M 187.994986 237.2 
L 194.601215 237.2 
L 194.601215 104.410941 
L 187.994986 104.410941 
z
" clip-path="url(#pc6f5961b40)" style="fill: #0d3b66"/>
   </g>
   <g id="patch_28">
    <path d="M 210.01575 237.2 
L 216.621979 237.2 
L 216.621979 37.049488 
L 210.01575 37.049488 
z
" clip-path="url(#pc6f5961b40)" style="fill: #0d3b66"/>
   </g>
   <g id="patch_29">
    <path d="M 232.036514 237.2 
L 238.642743 237.2 
L 238.642743 80.299488 
L 232.036514 80.299488 
z
" clip-path="url(#pc6f5961b40)" style="fill: #0d3b66"/>
   </g>
   <g id="patch_30">
    <path d="M 254.057278 237.2 
L 260.663507 237.2 
L 260.663507 106.865514 
L 254.057278 106.865514 
z
" clip-path="url(#pc6f5961b40)" style="fill: #0d3b66"/>
   </g>
   <g id="patch_31">
    <path d="M 276.078042 237.2 
L 282.684271 237.2 
L 282.684271 17.330454 
L 276.078042 17.330454 
z
" clip-path="url(#pc6f5961b40)" style="fill: #0d3b66"/>
   </g>
   <g id="patch_32">
    <path d="M 298.098806 237.2 
L 304.705035 237.2 
L 304.705035 17.326469 
L 298.098806 17.326469 
z
" clip-path="url(#pc6f5961b40)" style="fill: #0d3b66"/>
   </g>
   <g id="patch_33">
    <path d="M 320.119569 237.2 
L 326.725799 237.2 
L 326.725799 17.302441 
L 320.119569 17.302441 
z
" clip-path="url(#pc6f5961b40)" style="fill: #0d3b66"/>
   </g>
   <g id="patch_34">
    <path d="M 342.140333 237.2 
L 348.746562 237.2 
L 348.746562 23.616359 
L 342.140333 23.616359 
z
" clip-path="url(#pc6f5961b40)" style="fill: #0d3b66"/>
   </g>
   <g id="patch_35">
    <path d="M 364.161097 237.2 
L 370.767326 237.2 
L 370.767326 88.703465 
L 364.161097 88.703465 
z
" clip-path="url(#pc6f5961b40)" style="fill: #0d3b66"/>
   </g>
   <g id="patch_36">
    <path d="M 386.181861 237.2 
L 392.78809 237.2 
L 392.78809 78.197357 
L 386.181861 78.197357 
z
" clip-path="url(#pc6f5961b40)" style="fill: #0d3b66"/>
   </g>
   <g id="patch_37">
    <path d="M 408.202625 237.2 
L 414.808854 237.2 
L 414.808854 180.5237 
L 408.202625 180.5237 
z
" clip-path="url(#pc6f5961b40)" style="fill: #0d3b66"/>
   </g>
   <g id="patch_38">
    <path d="M 430.223389 237.2 
L 436.829618 237.2 
L 436.829618 151.791654 
L 430.223389 151.791654 
z
" clip-path="url(#pc6f5961b40)" style="fill: #0d3b66"/>
   </g>
   <g id="patch_39">
    <path d="M 62.476632 237.2 
L 69.082861 237.2 
L 69.082861 34.334729 
L 62.476632 34.334729 
z
" clip-path="url(#pc6f5961b40)" style="fill: #c2c1c2; opacity: 0.5"/>
   </g>
   <g id="patch_40">
    <path d="M 84.497396 237.2 
L 91.103625 237.2 
L 91.103625 52.203809 
L 84.497396 52.203809 
z
" clip-path="url(#pc6f5961b40)" style="fill: #c2c1c2; opacity: 0.5"/>
   </g>
   <g id="patch_41">
    <path d="M 106.51816 237.2 
L 113.124389 237.2 
L 113.124389 32.003033 
L 106.51816 32.003033 
z
" clip-path="url(#pc6f5961b40)" style="fill: #c2c1c2; opacity: 0.5"/>
   </g>
   <g id="patch_42">
    <path d="M 128.538924 237.2 
L 135.145153 237.2 
L 135.145153 48.241577 
L 128.538924 48.241577 
z
" clip-path="url(#pc6f5961b40)" style="fill: #c2c1c2; opacity: 0.5"/>
   </g>
   <g id="patch_43">
    <path d="M 150.559687 237.2 
L 157.165917 237.2 
L 157.165917 53.31451 
L 150.559687 53.31451 
z
" clip-path="url(#pc6f5961b40)" style="fill: #c2c1c2; opacity: 0.5"/>
   </g>
   <g id="patch_44">
    <path d="M 172.580451 237.2 
L 179.186681 237.2 
L 179.186681 53.920308 
L 172.580451 53.920308 
z
" clip-path="url(#pc6f5961b40)" style="fill: #c2c1c2; opacity: 0.5"/>
   </g>
   <g id="patch_45">
    <path d="M 194.601215 237.2 
L 201.207444 237.2 
L 201.207444 64.457968 
L 194.601215 64.457968 
z
" clip-path="url(#pc6f5961b40)" style="fill: #c2c1c2; opacity: 0.5"/>
   </g>
   <g id="patch_46">
    <path d="M 216.621979 237.2 
L 223.228208 237.2 
L 223.228208 30.014419 
L 216.621979 30.014419 
z
" clip-path="url(#pc6f5961b40)" style="fill: #c2c1c2; opacity: 0.5"/>
   </g>
   <g id="patch_47">
    <path d="M 238.642743 237.2 
L 245.248972 237.2 
L 245.248972 20.071022 
L 238.642743 20.071022 
z
" clip-path="url(#pc6f5961b40)" style="fill: #c2c1c2; opacity: 0.5"/>
   </g>
   <g id="patch_48">
    <path d="M 260.663507 237.2 
L 267.269736 237.2 
L 267.269736 33.859201 
L 260.663507 33.859201 
z
" clip-path="url(#pc6f5961b40)" style="fill: #c2c1c2; opacity: 0.5"/>
   </g>
   <g id="patch_49">
    <path d="M 282.684271 237.2 
L 289.2905 237.2 
L 289.2905 17.510417 
L 282.684271 17.510417 
z
" clip-path="url(#pc6f5961b40)" style="fill: #c2c1c2; opacity: 0.5"/>
   </g>
   <g id="patch_50">
    <path d="M 304.705035 237.2 
L 311.311264 237.2 
L 311.311264 17.324529 
L 304.705035 17.324529 
z
" clip-path="url(#pc6f5961b40)" style="fill: #c2c1c2; opacity: 0.5"/>
   </g>
   <g id="patch_51">
    <path d="M 326.725799 237.2 
L 333.332028 237.2 
L 333.332028 17.305876 
L 326.725799 17.305876 
z
" clip-path="url(#pc6f5961b40)" style="fill: #c2c1c2; opacity: 0.5"/>
   </g>
   <g id="patch_52">
    <path d="M 348.746562 237.2 
L 355.352792 237.2 
L 355.352792 19.946913 
L 348.746562 19.946913 
z
" clip-path="url(#pc6f5961b40)" style="fill: #c2c1c2; opacity: 0.5"/>
   </g>
   <g id="patch_53">
    <path d="M 370.767326 237.2 
L 377.373556 237.2 
L 377.373556 41.813997 
L 370.767326 41.813997 
z
" clip-path="url(#pc6f5961b40)" style="fill: #c2c1c2; opacity: 0.5"/>
   </g>
   <g id="patch_54">
    <path d="M 392.78809 237.2 
L 399.394319 237.2 
L 399.394319 22.520352 
L 392.78809 22.520352 
z
" clip-path="url(#pc6f5961b40)" style="fill: #c2c1c2; opacity: 0.5"/>
   </g>
   <g id="patch_55">
    <path d="M 414.808854 237.2 
L 421.415083 237.2 
L 421.415083 70.172445 
L 414.808854 70.172445 
z
" clip-path="url(#pc6f5961b40)" style="fill: #c2c1c2; opacity: 0.5"/>
   </g>
   <g id="patch_56">
    <path d="M 436.829618 237.2 
L 443.435847 237.2 
L 443.435847 17.523696 
L 436.829618 17.523696 
z
" clip-path="url(#pc6f5961b40)" style="fill: #c2c1c2; opacity: 0.5"/>
   </g>
   <g id="patch_57">
    <path d="M 62.476632 237.2 
L 69.082861 237.2 
L 69.082861 163.45699 
L 62.476632 163.45699 
z
" clip-path="url(#pc6f5961b40)" style="fill: #bf4e30"/>
   </g>
   <g id="patch_58">
    <path d="M 84.497396 237.2 
L 91.103625 237.2 
L 91.103625 159.647889 
L 84.497396 159.647889 
z
" clip-path="url(#pc6f5961b40)" style="fill: #bf4e30"/>
   </g>
   <g id="patch_59">
    <path d="M 106.51816 237.2 
L 113.124389 237.2 
L 113.124389 153.442134 
L 106.51816 153.442134 
z
" clip-path="url(#pc6f5961b40)" style="fill: #bf4e30"/>
   </g>
   <g id="patch_60">
    <path d="M 128.538924 237.2 
L 135.145153 237.2 
L 135.145153 143.227029 
L 128.538924 143.227029 
z
" clip-path="url(#pc6f5961b40)" style="fill: #bf4e30"/>
   </g>
   <g id="patch_61">
    <path d="M 150.559687 237.2 
L 157.165917 237.2 
L 157.165917 122.946575 
L 150.559687 122.946575 
z
" clip-path="url(#pc6f5961b40)" style="fill: #bf4e30"/>
   </g>
   <g id="patch_62">
    <path d="M 172.580451 237.2 
L 179.186681 237.2 
L 179.186681 99.645475 
L 172.580451 99.645475 
z
" clip-path="url(#pc6f5961b40)" style="fill: #bf4e30"/>
   </g>
   <g id="patch_63">
    <path d="M 194.601215 237.2 
L 201.207444 237.2 
L 201.207444 106.765446 
L 194.601215 106.765446 
z
" clip-path="url(#pc6f5961b40)" style="fill: #bf4e30"/>
   </g>
   <g id="patch_64">
    <path d="M 216.621979 237.2 
L 223.228208 237.2 
L 223.228208 32.342458 
L 216.621979 32.342458 
z
" clip-path="url(#pc6f5961b40)" style="fill: #bf4e30"/>
   </g>
   <g id="patch_65">
    <path d="M 238.642743 237.2 
L 245.248972 237.2 
L 245.248972 34.807203 
L 238.642743 34.807203 
z
" clip-path="url(#pc6f5961b40)" style="fill: #bf4e30"/>
   </g>
   <g id="patch_66">
    <path d="M 260.663507 237.2 
L 267.269736 237.2 
L 267.269736 40.936032 
L 260.663507 40.936032 
z
" clip-path="url(#pc6f5961b40)" style="fill: #bf4e30"/>
   </g>
   <g id="patch_67">
    <path d="M 282.684271 237.2 
L 289.2905 237.2 
L 289.2905 17.510417 
L 282.684271 17.510417 
z
" clip-path="url(#pc6f5961b40)" style="fill: #bf4e30"/>
   </g>
   <g id="patch_68">
    <path d="M 304.705035 237.2 
L 311.311264 237.2 
L 311.311264 17.324529 
L 304.705035 17.324529 
z
" clip-path="url(#pc6f5961b40)" style="fill: #bf4e30"/>
   </g>
   <g id="patch_69">
    <path d="M 326.725799 237.2 
L 333.332028 237.2 
L 333.332028 17.305876 
L 326.725799 17.305876 
z
" clip-path="url(#pc6f5961b40)" style="fill: #bf4e30"/>
   </g>
   <g id="patch_70">
    <path d="M 348.746562 237.2 
L 355.352792 237.2 
L 355.352792 19.946913 
L 348.746562 19.946913 
z
" clip-path="url(#pc6f5961b40)" style="fill: #bf4e30"/>
   </g>
   <g id="patch_71">
    <path d="M 370.767326 237.2 
L 377.373556 237.2 
L 377.373556 41.813997 
L 370.767326 41.813997 
z
" clip-path="url(#pc6f5961b40)" style="fill: #bf4e30"/>
   </g>
   <g id="patch_72">
    <path d="M 392.78809 237.2 
L 399.394319 237.2 
L 399.394319 22.520352 
L 392.78809 22.520352 
z
" clip-path="url(#pc6f5961b40)" style="fill: #bf4e30"/>
   </g>
   <g id="patch_73">
    <path d="M 414.808854 237.2 
L 421.415083 237.2 
L 421.415083 70.172445 
L 414.808854 70.172445 
z
" clip-path="url(#pc6f5961b40)" style="fill: #bf4e30"/>
   </g>
   <g id="patch_74">
    <path d="M 436.829618 237.2 
L 443.435847 237.2 
L 443.435847 17.523696 
L 436.829618 17.523696 
z
" clip-path="url(#pc6f5961b40)" style="fill: #bf4e30"/>
   </g>
   <g id="matplotlib.axis_1">
    <g id="xtick_1">
     <g id="line2d_1">
      <defs>
       <path id="m0cf0d55eaf" d="M 0 0 
L 0 3.5 
" style="stroke: #000000; stroke-width: 0.8"/>
      </defs>
      <g>
       <use xlink:href="#m0cf0d55eaf" x="62.476632" y="127.24" style="stroke: #000000; stroke-width: 0.8"/>
      </g>
     </g>
     <g id="text_1">
      <!-- 141 -->
      <g transform="translate(52.466944 142.829375) scale(0.12 -0.12)">
       <defs>
        <path id="ArialMT-31" d="M 2384 0 
L 1822 0 
L 1822 3584 
Q 1619 3391 1289 3197 
Q 959 3003 697 2906 
L 697 3450 
Q 1169 3672 1522 3987 
Q 1875 4303 2022 4600 
L 2384 4600 
L 2384 0 
z
" transform="scale(0.015625)"/>
        <path id="ArialMT-34" d="M 2069 0 
L 2069 1097 
L 81 1097 
L 81 1613 
L 2172 4581 
L 2631 4581 
L 2631 1613 
L 3250 1613 
L 3250 1097 
L 2631 1097 
L 2631 0 
L 2069 0 
z
M 2069 1613 
L 2069 3678 
L 634 1613 
L 2069 1613 
z
" transform="scale(0.015625)"/>
       </defs>
       <use xlink:href="#ArialMT-31"/>
       <use xlink:href="#ArialMT-34" x="55.615234"/>
       <use xlink:href="#ArialMT-31" x="111.230469"/>
      </g>
     </g>
    </g>
    <g id="xtick_2">
     <g id="line2d_2">
      <g>
       <use xlink:href="#m0cf0d55eaf" x="84.497396" y="127.24" style="stroke: #000000; stroke-width: 0.8"/>
      </g>
     </g>
     <g id="text_2">
      <!-- 104 -->
      <g transform="translate(74.487708 142.829375) scale(0.12 -0.12)">
       <defs>
        <path id="ArialMT-30" d="M 266 2259 
Q 266 3072 433 3567 
Q 600 4063 929 4331 
Q 1259 4600 1759 4600 
Q 2128 4600 2406 4451 
Q 2684 4303 2865 4023 
Q 3047 3744 3150 3342 
Q 3253 2941 3253 2259 
Q 3253 1453 3087 958 
Q 2922 463 2592 192 
Q 2263 -78 1759 -78 
Q 1097 -78 719 397 
Q 266 969 266 2259 
z
M 844 2259 
Q 844 1131 1108 757 
Q 1372 384 1759 384 
Q 2147 384 2411 759 
Q 2675 1134 2675 2259 
Q 2675 3391 2411 3762 
Q 2147 4134 1753 4134 
Q 1366 4134 1134 3806 
Q 844 3388 844 2259 
z
" transform="scale(0.015625)"/>
       </defs>
       <use xlink:href="#ArialMT-31"/>
       <use xlink:href="#ArialMT-30" x="55.615234"/>
       <use xlink:href="#ArialMT-34" x="111.230469"/>
      </g>
     </g>
    </g>
    <g id="xtick_3">
     <g id="line2d_3">
      <g>
       <use xlink:href="#m0cf0d55eaf" x="106.51816" y="127.24" style="stroke: #000000; stroke-width: 0.8"/>
      </g>
     </g>
     <g id="text_3">
      <!-- 218 -->
      <g transform="translate(96.508472 142.829375) scale(0.12 -0.12)">
       <defs>
        <path id="ArialMT-32" d="M 3222 541 
L 3222 0 
L 194 0 
Q 188 203 259 391 
Q 375 700 629 1000 
Q 884 1300 1366 1694 
Q 2113 2306 2375 2664 
Q 2638 3022 2638 3341 
Q 2638 3675 2398 3904 
Q 2159 4134 1775 4134 
Q 1369 4134 1125 3890 
Q 881 3647 878 3216 
L 300 3275 
Q 359 3922 746 4261 
Q 1134 4600 1788 4600 
Q 2447 4600 2831 4234 
Q 3216 3869 3216 3328 
Q 3216 3053 3103 2787 
Q 2991 2522 2730 2228 
Q 2469 1934 1863 1422 
Q 1356 997 1212 845 
Q 1069 694 975 541 
L 3222 541 
z
" transform="scale(0.015625)"/>
        <path id="ArialMT-38" d="M 1131 2484 
Q 781 2613 612 2850 
Q 444 3088 444 3419 
Q 444 3919 803 4259 
Q 1163 4600 1759 4600 
Q 2359 4600 2725 4251 
Q 3091 3903 3091 3403 
Q 3091 3084 2923 2848 
Q 2756 2613 2416 2484 
Q 2838 2347 3058 2040 
Q 3278 1734 3278 1309 
Q 3278 722 2862 322 
Q 2447 -78 1769 -78 
Q 1091 -78 675 323 
Q 259 725 259 1325 
Q 259 1772 486 2073 
Q 713 2375 1131 2484 
z
M 1019 3438 
Q 1019 3113 1228 2906 
Q 1438 2700 1772 2700 
Q 2097 2700 2305 2904 
Q 2513 3109 2513 3406 
Q 2513 3716 2298 3927 
Q 2084 4138 1766 4138 
Q 1444 4138 1231 3931 
Q 1019 3725 1019 3438 
z
M 838 1322 
Q 838 1081 952 856 
Q 1066 631 1291 507 
Q 1516 384 1775 384 
Q 2178 384 2440 643 
Q 2703 903 2703 1303 
Q 2703 1709 2433 1975 
Q 2163 2241 1756 2241 
Q 1359 2241 1098 1978 
Q 838 1716 838 1322 
z
" transform="scale(0.015625)"/>
       </defs>
       <use xlink:href="#ArialMT-32"/>
       <use xlink:href="#ArialMT-31" x="55.615234"/>
       <use xlink:href="#ArialMT-38" x="111.230469"/>
      </g>
     </g>
    </g>
    <g id="xtick_4">
     <g id="line2d_4">
      <g>
       <use xlink:href="#m0cf0d55eaf" x="128.538924" y="127.24" style="stroke: #000000; stroke-width: 0.8"/>
      </g>
     </g>
     <g id="text_4">
      <!-- 105 -->
      <g transform="translate(118.529236 142.829375) scale(0.12 -0.12)">
       <defs>
        <path id="ArialMT-35" d="M 266 1200 
L 856 1250 
Q 922 819 1161 601 
Q 1400 384 1738 384 
Q 2144 384 2425 690 
Q 2706 997 2706 1503 
Q 2706 1984 2436 2262 
Q 2166 2541 1728 2541 
Q 1456 2541 1237 2417 
Q 1019 2294 894 2097 
L 366 2166 
L 809 4519 
L 3088 4519 
L 3088 3981 
L 1259 3981 
L 1013 2750 
Q 1425 3038 1878 3038 
Q 2478 3038 2890 2622 
Q 3303 2206 3303 1553 
Q 3303 931 2941 478 
Q 2500 -78 1738 -78 
Q 1113 -78 717 272 
Q 322 622 266 1200 
z
" transform="scale(0.015625)"/>
       </defs>
       <use xlink:href="#ArialMT-31"/>
       <use xlink:href="#ArialMT-30" x="55.615234"/>
       <use xlink:href="#ArialMT-35" x="111.230469"/>
      </g>
     </g>
    </g>
    <g id="xtick_5">
     <g id="line2d_5">
      <g>
       <use xlink:href="#m0cf0d55eaf" x="150.559687" y="127.24" style="stroke: #000000; stroke-width: 0.8"/>
      </g>
     </g>
     <g id="text_5">
      <!-- 191 -->
      <g transform="translate(140.55 142.829375) scale(0.12 -0.12)">
       <defs>
        <path id="ArialMT-39" d="M 350 1059 
L 891 1109 
Q 959 728 1153 556 
Q 1347 384 1650 384 
Q 1909 384 2104 503 
Q 2300 622 2425 820 
Q 2550 1019 2634 1356 
Q 2719 1694 2719 2044 
Q 2719 2081 2716 2156 
Q 2547 1888 2255 1720 
Q 1963 1553 1622 1553 
Q 1053 1553 659 1965 
Q 266 2378 266 3053 
Q 266 3750 677 4175 
Q 1088 4600 1706 4600 
Q 2153 4600 2523 4359 
Q 2894 4119 3086 3673 
Q 3278 3228 3278 2384 
Q 3278 1506 3087 986 
Q 2897 466 2520 194 
Q 2144 -78 1638 -78 
Q 1100 -78 759 220 
Q 419 519 350 1059 
z
M 2653 3081 
Q 2653 3566 2395 3850 
Q 2138 4134 1775 4134 
Q 1400 4134 1122 3828 
Q 844 3522 844 3034 
Q 844 2597 1108 2323 
Q 1372 2050 1759 2050 
Q 2150 2050 2401 2323 
Q 2653 2597 2653 3081 
z
" transform="scale(0.015625)"/>
       </defs>
       <use xlink:href="#ArialMT-31"/>
       <use xlink:href="#ArialMT-39" x="55.615234"/>
       <use xlink:href="#ArialMT-31" x="111.230469"/>
      </g>
     </g>
    </g>
    <g id="xtick_6">
     <g id="line2d_6">
      <g>
       <use xlink:href="#m0cf0d55eaf" x="172.580451" y="127.24" style="stroke: #000000; stroke-width: 0.8"/>
      </g>
     </g>
     <g id="text_6">
      <!-- 214 -->
      <g transform="translate(162.570764 142.829375) scale(0.12 -0.12)">
       <use xlink:href="#ArialMT-32"/>
       <use xlink:href="#ArialMT-31" x="55.615234"/>
       <use xlink:href="#ArialMT-34" x="111.230469"/>
      </g>
     </g>
    </g>
    <g id="xtick_7">
     <g id="line2d_7">
      <g>
       <use xlink:href="#m0cf0d55eaf" x="194.601215" y="127.24" style="stroke: #000000; stroke-width: 0.8"/>
      </g>
     </g>
     <g id="text_7">
      <!-- 245 -->
      <g transform="translate(184.591528 142.829375) scale(0.12 -0.12)">
       <use xlink:href="#ArialMT-32"/>
       <use xlink:href="#ArialMT-34" x="55.615234"/>
       <use xlink:href="#ArialMT-35" x="111.230469"/>
      </g>
     </g>
    </g>
    <g id="xtick_8">
     <g id="line2d_8">
      <g>
       <use xlink:href="#m0cf0d55eaf" x="216.621979" y="127.24" style="stroke: #000000; stroke-width: 0.8"/>
      </g>
     </g>
     <g id="text_8">
      <!-- 209 -->
      <g transform="translate(206.612292 142.829375) scale(0.12 -0.12)">
       <use xlink:href="#ArialMT-32"/>
       <use xlink:href="#ArialMT-30" x="55.615234"/>
       <use xlink:href="#ArialMT-39" x="111.230469"/>
      </g>
     </g>
    </g>
    <g id="xtick_9">
     <g id="line2d_9">
      <g>
       <use xlink:href="#m0cf0d55eaf" x="238.642743" y="127.24" style="stroke: #000000; stroke-width: 0.8"/>
      </g>
     </g>
     <g id="text_9">
      <!-- 210 -->
      <g transform="translate(228.633056 142.829375) scale(0.12 -0.12)">
       <use xlink:href="#ArialMT-32"/>
       <use xlink:href="#ArialMT-31" x="55.615234"/>
       <use xlink:href="#ArialMT-30" x="111.230469"/>
      </g>
     </g>
    </g>
    <g id="xtick_10">
     <g id="line2d_10">
      <g>
       <use xlink:href="#m0cf0d55eaf" x="260.663507" y="127.24" style="stroke: #000000; stroke-width: 0.8"/>
      </g>
     </g>
     <g id="text_10">
      <!-- 212 -->
      <g transform="translate(250.653819 142.829375) scale(0.12 -0.12)">
       <use xlink:href="#ArialMT-32"/>
       <use xlink:href="#ArialMT-31" x="55.615234"/>
       <use xlink:href="#ArialMT-32" x="111.230469"/>
      </g>
     </g>
    </g>
    <g id="xtick_11">
     <g id="line2d_11">
      <g>
       <use xlink:href="#m0cf0d55eaf" x="282.684271" y="127.24" style="stroke: #000000; stroke-width: 0.8"/>
      </g>
     </g>
     <g id="text_11">
      <!-- 211 -->
      <g transform="translate(273.117083 142.829375) scale(0.12 -0.12)">
       <use xlink:href="#ArialMT-32"/>
       <use xlink:href="#ArialMT-31" x="55.615234"/>
       <use xlink:href="#ArialMT-31" x="103.855469"/>
      </g>
     </g>
    </g>
    <g id="xtick_12">
     <g id="line2d_12">
      <g>
       <use xlink:href="#m0cf0d55eaf" x="304.705035" y="127.24" style="stroke: #000000; stroke-width: 0.8"/>
      </g>
     </g>
     <g id="text_12">
      <!-- 213 -->
      <g transform="translate(294.695347 142.829375) scale(0.12 -0.12)">
       <defs>
        <path id="ArialMT-33" d="M 269 1209 
L 831 1284 
Q 928 806 1161 595 
Q 1394 384 1728 384 
Q 2125 384 2398 659 
Q 2672 934 2672 1341 
Q 2672 1728 2419 1979 
Q 2166 2231 1775 2231 
Q 1616 2231 1378 2169 
L 1441 2663 
Q 1497 2656 1531 2656 
Q 1891 2656 2178 2843 
Q 2466 3031 2466 3422 
Q 2466 3731 2256 3934 
Q 2047 4138 1716 4138 
Q 1388 4138 1169 3931 
Q 950 3725 888 3313 
L 325 3413 
Q 428 3978 793 4289 
Q 1159 4600 1703 4600 
Q 2078 4600 2393 4439 
Q 2709 4278 2876 4000 
Q 3044 3722 3044 3409 
Q 3044 3113 2884 2869 
Q 2725 2625 2413 2481 
Q 2819 2388 3044 2092 
Q 3269 1797 3269 1353 
Q 3269 753 2831 336 
Q 2394 -81 1725 -81 
Q 1122 -81 723 278 
Q 325 638 269 1209 
z
" transform="scale(0.015625)"/>
       </defs>
       <use xlink:href="#ArialMT-32"/>
       <use xlink:href="#ArialMT-31" x="55.615234"/>
       <use xlink:href="#ArialMT-33" x="111.230469"/>
      </g>
     </g>
    </g>
    <g id="xtick_13">
     <g id="line2d_13">
      <g>
       <use xlink:href="#m0cf0d55eaf" x="326.725799" y="127.24" style="stroke: #000000; stroke-width: 0.8"/>
      </g>
     </g>
     <g id="text_13">
      <!-- 106 -->
      <g transform="translate(316.716111 142.829375) scale(0.12 -0.12)">
       <defs>
        <path id="ArialMT-36" d="M 3184 3459 
L 2625 3416 
Q 2550 3747 2413 3897 
Q 2184 4138 1850 4138 
Q 1581 4138 1378 3988 
Q 1113 3794 959 3422 
Q 806 3050 800 2363 
Q 1003 2672 1297 2822 
Q 1591 2972 1913 2972 
Q 2475 2972 2870 2558 
Q 3266 2144 3266 1488 
Q 3266 1056 3080 686 
Q 2894 316 2569 119 
Q 2244 -78 1831 -78 
Q 1128 -78 684 439 
Q 241 956 241 2144 
Q 241 3472 731 4075 
Q 1159 4600 1884 4600 
Q 2425 4600 2770 4297 
Q 3116 3994 3184 3459 
z
M 888 1484 
Q 888 1194 1011 928 
Q 1134 663 1356 523 
Q 1578 384 1822 384 
Q 2178 384 2434 671 
Q 2691 959 2691 1453 
Q 2691 1928 2437 2201 
Q 2184 2475 1800 2475 
Q 1419 2475 1153 2201 
Q 888 1928 888 1484 
z
" transform="scale(0.015625)"/>
       </defs>
       <use xlink:href="#ArialMT-31"/>
       <use xlink:href="#ArialMT-30" x="55.615234"/>
       <use xlink:href="#ArialMT-36" x="111.230469"/>
      </g>
     </g>
    </g>
    <g id="xtick_14">
     <g id="line2d_14">
      <g>
       <use xlink:href="#m0cf0d55eaf" x="348.746562" y="127.24" style="stroke: #000000; stroke-width: 0.8"/>
      </g>
     </g>
     <g id="text_14">
      <!-- 107 -->
      <g transform="translate(338.736875 142.829375) scale(0.12 -0.12)">
       <defs>
        <path id="ArialMT-37" d="M 303 3981 
L 303 4522 
L 3269 4522 
L 3269 4084 
Q 2831 3619 2401 2847 
Q 1972 2075 1738 1259 
Q 1569 684 1522 0 
L 944 0 
Q 953 541 1156 1306 
Q 1359 2072 1739 2783 
Q 2119 3494 2547 3981 
L 303 3981 
z
" transform="scale(0.015625)"/>
       </defs>
       <use xlink:href="#ArialMT-31"/>
       <use xlink:href="#ArialMT-30" x="55.615234"/>
       <use xlink:href="#ArialMT-37" x="111.230469"/>
      </g>
     </g>
    </g>
    <g id="xtick_15">
     <g id="line2d_15">
      <g>
       <use xlink:href="#m0cf0d55eaf" x="370.767326" y="127.24" style="stroke: #000000; stroke-width: 0.8"/>
      </g>
     </g>
     <g id="text_15">
      <!-- 145 -->
      <g transform="translate(360.757639 142.829375) scale(0.12 -0.12)">
       <use xlink:href="#ArialMT-31"/>
       <use xlink:href="#ArialMT-34" x="55.615234"/>
       <use xlink:href="#ArialMT-35" x="111.230469"/>
      </g>
     </g>
    </g>
    <g id="xtick_16">
     <g id="line2d_16">
      <g>
       <use xlink:href="#m0cf0d55eaf" x="392.78809" y="127.24" style="stroke: #000000; stroke-width: 0.8"/>
      </g>
     </g>
     <g id="text_16">
      <!-- 48 -->
      <g transform="translate(386.114965 142.829375) scale(0.12 -0.12)">
       <use xlink:href="#ArialMT-34"/>
       <use xlink:href="#ArialMT-38" x="55.615234"/>
      </g>
     </g>
    </g>
    <g id="xtick_17">
     <g id="line2d_17">
      <g>
       <use xlink:href="#m0cf0d55eaf" x="414.808854" y="127.24" style="stroke: #000000; stroke-width: 0.8"/>
      </g>
     </g>
     <g id="text_17">
      <!-- 80 -->
      <g transform="translate(408.135729 142.829375) scale(0.12 -0.12)">
       <use xlink:href="#ArialMT-38"/>
       <use xlink:href="#ArialMT-30" x="55.615234"/>
      </g>
     </g>
    </g>
    <g id="xtick_18">
     <g id="line2d_18">
      <g>
       <use xlink:href="#m0cf0d55eaf" x="436.829618" y="127.24" style="stroke: #000000; stroke-width: 0.8"/>
      </g>
     </g>
     <g id="text_18">
      <!-- 45 -->
      <g transform="translate(430.156493 142.829375) scale(0.12 -0.12)">
       <use xlink:href="#ArialMT-34"/>
       <use xlink:href="#ArialMT-35" x="55.615234"/>
      </g>
     </g>
    </g>
    <g id="text_19">
     <!-- interface residue index -->
     <g transform="translate(189.288437 157.80375) scale(0.12 -0.12)">
      <defs>
       <path id="ArialMT-69" d="M 425 3934 
L 425 4581 
L 988 4581 
L 988 3934 
L 425 3934 
z
M 425 0 
L 425 3319 
L 988 3319 
L 988 0 
L 425 0 
z
" transform="scale(0.015625)"/>
       <path id="ArialMT-6e" d="M 422 0 
L 422 3319 
L 928 3319 
L 928 2847 
Q 1294 3394 1984 3394 
Q 2284 3394 2536 3286 
Q 2788 3178 2913 3003 
Q 3038 2828 3088 2588 
Q 3119 2431 3119 2041 
L 3119 0 
L 2556 0 
L 2556 2019 
Q 2556 2363 2490 2533 
Q 2425 2703 2258 2804 
Q 2091 2906 1866 2906 
Q 1506 2906 1245 2678 
Q 984 2450 984 1813 
L 984 0 
L 422 0 
z
" transform="scale(0.015625)"/>
       <path id="ArialMT-74" d="M 1650 503 
L 1731 6 
Q 1494 -44 1306 -44 
Q 1000 -44 831 53 
Q 663 150 594 308 
Q 525 466 525 972 
L 525 2881 
L 113 2881 
L 113 3319 
L 525 3319 
L 525 4141 
L 1084 4478 
L 1084 3319 
L 1650 3319 
L 1650 2881 
L 1084 2881 
L 1084 941 
Q 1084 700 1114 631 
Q 1144 563 1211 522 
Q 1278 481 1403 481 
Q 1497 481 1650 503 
z
" transform="scale(0.015625)"/>
       <path id="ArialMT-65" d="M 2694 1069 
L 3275 997 
Q 3138 488 2766 206 
Q 2394 -75 1816 -75 
Q 1088 -75 661 373 
Q 234 822 234 1631 
Q 234 2469 665 2931 
Q 1097 3394 1784 3394 
Q 2450 3394 2872 2941 
Q 3294 2488 3294 1666 
Q 3294 1616 3291 1516 
L 816 1516 
Q 847 969 1125 678 
Q 1403 388 1819 388 
Q 2128 388 2347 550 
Q 2566 713 2694 1069 
z
M 847 1978 
L 2700 1978 
Q 2663 2397 2488 2606 
Q 2219 2931 1791 2931 
Q 1403 2931 1139 2672 
Q 875 2413 847 1978 
z
" transform="scale(0.015625)"/>
       <path id="ArialMT-72" d="M 416 0 
L 416 3319 
L 922 3319 
L 922 2816 
Q 1116 3169 1280 3281 
Q 1444 3394 1641 3394 
Q 1925 3394 2219 3213 
L 2025 2691 
Q 1819 2813 1613 2813 
Q 1428 2813 1281 2702 
Q 1134 2591 1072 2394 
Q 978 2094 978 1738 
L 978 0 
L 416 0 
z
" transform="scale(0.015625)"/>
       <path id="ArialMT-66" d="M 556 0 
L 556 2881 
L 59 2881 
L 59 3319 
L 556 3319 
L 556 3672 
Q 556 4006 616 4169 
Q 697 4388 901 4523 
Q 1106 4659 1475 4659 
Q 1713 4659 2000 4603 
L 1916 4113 
Q 1741 4144 1584 4144 
Q 1328 4144 1222 4034 
Q 1116 3925 1116 3625 
L 1116 3319 
L 1763 3319 
L 1763 2881 
L 1116 2881 
L 1116 0 
L 556 0 
z
" transform="scale(0.015625)"/>
       <path id="ArialMT-61" d="M 2588 409 
Q 2275 144 1986 34 
Q 1697 -75 1366 -75 
Q 819 -75 525 192 
Q 231 459 231 875 
Q 231 1119 342 1320 
Q 453 1522 633 1644 
Q 813 1766 1038 1828 
Q 1203 1872 1538 1913 
Q 2219 1994 2541 2106 
Q 2544 2222 2544 2253 
Q 2544 2597 2384 2738 
Q 2169 2928 1744 2928 
Q 1347 2928 1158 2789 
Q 969 2650 878 2297 
L 328 2372 
Q 403 2725 575 2942 
Q 747 3159 1072 3276 
Q 1397 3394 1825 3394 
Q 2250 3394 2515 3294 
Q 2781 3194 2906 3042 
Q 3031 2891 3081 2659 
Q 3109 2516 3109 2141 
L 3109 1391 
Q 3109 606 3145 398 
Q 3181 191 3288 0 
L 2700 0 
Q 2613 175 2588 409 
z
M 2541 1666 
Q 2234 1541 1622 1453 
Q 1275 1403 1131 1340 
Q 988 1278 909 1158 
Q 831 1038 831 891 
Q 831 666 1001 516 
Q 1172 366 1500 366 
Q 1825 366 2078 508 
Q 2331 650 2450 897 
Q 2541 1088 2541 1459 
L 2541 1666 
z
" transform="scale(0.015625)"/>
       <path id="ArialMT-63" d="M 2588 1216 
L 3141 1144 
Q 3050 572 2676 248 
Q 2303 -75 1759 -75 
Q 1078 -75 664 370 
Q 250 816 250 1647 
Q 250 2184 428 2587 
Q 606 2991 970 3192 
Q 1334 3394 1763 3394 
Q 2303 3394 2647 3120 
Q 2991 2847 3088 2344 
L 2541 2259 
Q 2463 2594 2264 2762 
Q 2066 2931 1784 2931 
Q 1359 2931 1093 2626 
Q 828 2322 828 1663 
Q 828 994 1084 691 
Q 1341 388 1753 388 
Q 2084 388 2306 591 
Q 2528 794 2588 1216 
z
" transform="scale(0.015625)"/>
       <path id="ArialMT-20" transform="scale(0.015625)"/>
       <path id="ArialMT-73" d="M 197 991 
L 753 1078 
Q 800 744 1014 566 
Q 1228 388 1613 388 
Q 2000 388 2187 545 
Q 2375 703 2375 916 
Q 2375 1106 2209 1216 
Q 2094 1291 1634 1406 
Q 1016 1563 777 1677 
Q 538 1791 414 1992 
Q 291 2194 291 2438 
Q 291 2659 392 2848 
Q 494 3038 669 3163 
Q 800 3259 1026 3326 
Q 1253 3394 1513 3394 
Q 1903 3394 2198 3281 
Q 2494 3169 2634 2976 
Q 2775 2784 2828 2463 
L 2278 2388 
Q 2241 2644 2061 2787 
Q 1881 2931 1553 2931 
Q 1166 2931 1000 2803 
Q 834 2675 834 2503 
Q 834 2394 903 2306 
Q 972 2216 1119 2156 
Q 1203 2125 1616 2013 
Q 2213 1853 2448 1751 
Q 2684 1650 2818 1456 
Q 2953 1263 2953 975 
Q 2953 694 2789 445 
Q 2625 197 2315 61 
Q 2006 -75 1616 -75 
Q 969 -75 630 194 
Q 291 463 197 991 
z
" transform="scale(0.015625)"/>
       <path id="ArialMT-64" d="M 2575 0 
L 2575 419 
Q 2259 -75 1647 -75 
Q 1250 -75 917 144 
Q 584 363 401 755 
Q 219 1147 219 1656 
Q 219 2153 384 2558 
Q 550 2963 881 3178 
Q 1213 3394 1622 3394 
Q 1922 3394 2156 3267 
Q 2391 3141 2538 2938 
L 2538 4581 
L 3097 4581 
L 3097 0 
L 2575 0 
z
M 797 1656 
Q 797 1019 1065 703 
Q 1334 388 1700 388 
Q 2069 388 2326 689 
Q 2584 991 2584 1609 
Q 2584 2291 2321 2609 
Q 2059 2928 1675 2928 
Q 1300 2928 1048 2622 
Q 797 2316 797 1656 
z
" transform="scale(0.015625)"/>
       <path id="ArialMT-75" d="M 2597 0 
L 2597 488 
Q 2209 -75 1544 -75 
Q 1250 -75 995 37 
Q 741 150 617 320 
Q 494 491 444 738 
Q 409 903 409 1263 
L 409 3319 
L 972 3319 
L 972 1478 
Q 972 1038 1006 884 
Q 1059 663 1231 536 
Q 1403 409 1656 409 
Q 1909 409 2131 539 
Q 2353 669 2445 892 
Q 2538 1116 2538 1541 
L 2538 3319 
L 3100 3319 
L 3100 0 
L 2597 0 
z
" transform="scale(0.015625)"/>
       <path id="ArialMT-78" d="M 47 0 
L 1259 1725 
L 138 3319 
L 841 3319 
L 1350 2541 
Q 1494 2319 1581 2169 
Q 1719 2375 1834 2534 
L 2394 3319 
L 3066 3319 
L 1919 1756 
L 3153 0 
L 2463 0 
L 1781 1031 
L 1600 1309 
L 728 0 
L 47 0 
z
" transform="scale(0.015625)"/>
      </defs>
      <use xlink:href="#ArialMT-69"/>
      <use xlink:href="#ArialMT-6e" x="22.216797"/>
      <use xlink:href="#ArialMT-74" x="77.832031"/>
      <use xlink:href="#ArialMT-65" x="105.615234"/>
      <use xlink:href="#ArialMT-72" x="161.230469"/>
      <use xlink:href="#ArialMT-66" x="194.53125"/>
      <use xlink:href="#ArialMT-61" x="222.314453"/>
      <use xlink:href="#ArialMT-63" x="277.929688"/>
      <use xlink:href="#ArialMT-65" x="327.929688"/>
      <use xlink:href="#ArialMT-20" x="383.544922"/>
      <use xlink:href="#ArialMT-72" x="411.328125"/>
      <use xlink:href="#ArialMT-65" x="444.628906"/>
      <use xlink:href="#ArialMT-73" x="500.244141"/>
      <use xlink:href="#ArialMT-69" x="550.244141"/>
      <use xlink:href="#ArialMT-64" x="572.460938"/>
      <use xlink:href="#ArialMT-75" x="628.076172"/>
      <use xlink:href="#ArialMT-65" x="683.691406"/>
      <use xlink:href="#ArialMT-20" x="739.306641"/>
      <use xlink:href="#ArialMT-69" x="767.089844"/>
      <use xlink:href="#ArialMT-6e" x="789.306641"/>
      <use xlink:href="#ArialMT-64" x="844.921875"/>
      <use xlink:href="#ArialMT-65" x="900.537109"/>
      <use xlink:href="#ArialMT-78" x="956.152344"/>
     </g>
    </g>
   </g>
   <g id="matplotlib.axis_2">
    <g id="ytick_1">
     <g id="line2d_19">
      <defs>
       <path id="mbfc34fde04" d="M 0 0 
L -3.5 0 
" style="stroke: #000000; stroke-width: 0.8"/>
      </defs>
      <g>
       <use xlink:href="#mbfc34fde04" x="51.46625" y="127.24" style="stroke: #000000; stroke-width: 0.8"/>
      </g>
     </g>
     <g id="text_20">
      <!-- 0.5 -->
      <g transform="translate(27.78625 131.534687) scale(0.12 -0.12)">
       <defs>
        <path id="ArialMT-2e" d="M 581 0 
L 581 641 
L 1222 641 
L 1222 0 
L 581 0 
z
" transform="scale(0.015625)"/>
       </defs>
       <use xlink:href="#ArialMT-30"/>
       <use xlink:href="#ArialMT-2e" x="55.615234"/>
       <use xlink:href="#ArialMT-35" x="83.398438"/>
      </g>
     </g>
    </g>
    <g id="ytick_2">
     <g id="line2d_20">
      <g>
       <use xlink:href="#mbfc34fde04" x="51.46625" y="105.248" style="stroke: #000000; stroke-width: 0.8"/>
      </g>
     </g>
     <g id="text_21">
      <!-- 0.6 -->
      <g transform="translate(27.78625 109.542687) scale(0.12 -0.12)">
       <use xlink:href="#ArialMT-30"/>
       <use xlink:href="#ArialMT-2e" x="55.615234"/>
       <use xlink:href="#ArialMT-36" x="83.398438"/>
      </g>
     </g>
    </g>
    <g id="ytick_3">
     <g id="line2d_21">
      <g>
       <use xlink:href="#mbfc34fde04" x="51.46625" y="83.256" style="stroke: #000000; stroke-width: 0.8"/>
      </g>
     </g>
     <g id="text_22">
      <!-- 0.7 -->
      <g transform="translate(27.78625 87.550687) scale(0.12 -0.12)">
       <use xlink:href="#ArialMT-30"/>
       <use xlink:href="#ArialMT-2e" x="55.615234"/>
       <use xlink:href="#ArialMT-37" x="83.398438"/>
      </g>
     </g>
    </g>
    <g id="ytick_4">
     <g id="line2d_22">
      <g>
       <use xlink:href="#mbfc34fde04" x="51.46625" y="61.264" style="stroke: #000000; stroke-width: 0.8"/>
      </g>
     </g>
     <g id="text_23">
      <!-- 0.8 -->
      <g transform="translate(27.78625 65.558687) scale(0.12 -0.12)">
       <use xlink:href="#ArialMT-30"/>
       <use xlink:href="#ArialMT-2e" x="55.615234"/>
       <use xlink:href="#ArialMT-38" x="83.398438"/>
      </g>
     </g>
    </g>
    <g id="ytick_5">
     <g id="line2d_23">
      <g>
       <use xlink:href="#mbfc34fde04" x="51.46625" y="39.272" style="stroke: #000000; stroke-width: 0.8"/>
      </g>
     </g>
     <g id="text_24">
      <!-- 0.9 -->
      <g transform="translate(27.78625 43.566687) scale(0.12 -0.12)">
       <use xlink:href="#ArialMT-30"/>
       <use xlink:href="#ArialMT-2e" x="55.615234"/>
       <use xlink:href="#ArialMT-39" x="83.398438"/>
      </g>
     </g>
    </g>
    <g id="ytick_6">
     <g id="line2d_24">
      <g>
       <use xlink:href="#mbfc34fde04" x="51.46625" y="17.28" style="stroke: #000000; stroke-width: 0.8"/>
      </g>
     </g>
     <g id="text_25">
      <!-- 1.0 -->
      <g transform="translate(27.78625 21.574687) scale(0.12 -0.12)">
       <use xlink:href="#ArialMT-31"/>
       <use xlink:href="#ArialMT-2e" x="55.615234"/>
       <use xlink:href="#ArialMT-30" x="83.398438"/>
      </g>
     </g>
    </g>
    <g id="text_26">
     <!-- prediction confidence -->
     <g transform="translate(21.40125 128.96) rotate(-90) scale(0.12 -0.12)">
      <defs>
       <path id="ArialMT-70" d="M 422 -1272 
L 422 3319 
L 934 3319 
L 934 2888 
Q 1116 3141 1344 3267 
Q 1572 3394 1897 3394 
Q 2322 3394 2647 3175 
Q 2972 2956 3137 2557 
Q 3303 2159 3303 1684 
Q 3303 1175 3120 767 
Q 2938 359 2589 142 
Q 2241 -75 1856 -75 
Q 1575 -75 1351 44 
Q 1128 163 984 344 
L 984 -1272 
L 422 -1272 
z
M 931 1641 
Q 931 1000 1190 694 
Q 1450 388 1819 388 
Q 2194 388 2461 705 
Q 2728 1022 2728 1688 
Q 2728 2322 2467 2637 
Q 2206 2953 1844 2953 
Q 1484 2953 1207 2617 
Q 931 2281 931 1641 
z
" transform="scale(0.015625)"/>
       <path id="ArialMT-6f" d="M 213 1659 
Q 213 2581 725 3025 
Q 1153 3394 1769 3394 
Q 2453 3394 2887 2945 
Q 3322 2497 3322 1706 
Q 3322 1066 3130 698 
Q 2938 331 2570 128 
Q 2203 -75 1769 -75 
Q 1072 -75 642 372 
Q 213 819 213 1659 
z
M 791 1659 
Q 791 1022 1069 705 
Q 1347 388 1769 388 
Q 2188 388 2466 706 
Q 2744 1025 2744 1678 
Q 2744 2294 2464 2611 
Q 2184 2928 1769 2928 
Q 1347 2928 1069 2612 
Q 791 2297 791 1659 
z
" transform="scale(0.015625)"/>
      </defs>
      <use xlink:href="#ArialMT-70"/>
      <use xlink:href="#ArialMT-72" x="55.615234"/>
      <use xlink:href="#ArialMT-65" x="88.916016"/>
      <use xlink:href="#ArialMT-64" x="144.53125"/>
      <use xlink:href="#ArialMT-69" x="200.146484"/>
      <use xlink:href="#ArialMT-63" x="222.363281"/>
      <use xlink:href="#ArialMT-74" x="272.363281"/>
      <use xlink:href="#ArialMT-69" x="300.146484"/>
      <use xlink:href="#ArialMT-6f" x="322.363281"/>
      <use xlink:href="#ArialMT-6e" x="377.978516"/>
      <use xlink:href="#ArialMT-20" x="433.59375"/>
      <use xlink:href="#ArialMT-63" x="461.376953"/>
      <use xlink:href="#ArialMT-6f" x="511.376953"/>
      <use xlink:href="#ArialMT-6e" x="566.992188"/>
      <use xlink:href="#ArialMT-66" x="622.607422"/>
      <use xlink:href="#ArialMT-69" x="650.390625"/>
      <use xlink:href="#ArialMT-64" x="672.607422"/>
      <use xlink:href="#ArialMT-65" x="728.222656"/>
      <use xlink:href="#ArialMT-6e" x="783.837891"/>
      <use xlink:href="#ArialMT-63" x="839.453125"/>
      <use xlink:href="#ArialMT-65" x="889.453125"/>
     </g>
    </g>
   </g>
   <g id="line2d_25">
    <path d="M 56.531026 32.983176 
L 61.816009 32.983176 
" clip-path="url(#pc6f5961b40)" style="fill: none; stroke: #000000; stroke-opacity: 0.5; stroke-width: 1.5; stroke-linecap: square"/>
   </g>
   <g id="line2d_26">
    <path d="M 63.137255 34.334729 
L 68.422238 34.334729 
" clip-path="url(#pc6f5961b40)" style="fill: none; stroke: #000000; stroke-opacity: 0.5; stroke-width: 1.5; stroke-linecap: square"/>
   </g>
   <g id="line2d_27">
    <path d="M 78.55179 50.839344 
L 83.836773 50.839344 
" clip-path="url(#pc6f5961b40)" style="fill: none; stroke: #000000; stroke-opacity: 0.5; stroke-width: 1.5; stroke-linecap: square"/>
   </g>
   <g id="line2d_28">
    <path d="M 85.158019 52.203809 
L 90.443002 52.203809 
" clip-path="url(#pc6f5961b40)" style="fill: none; stroke: #000000; stroke-opacity: 0.5; stroke-width: 1.5; stroke-linecap: square"/>
   </g>
   <g id="line2d_29">
    <path d="M 100.572553 27.699685 
L 105.857537 27.699685 
" clip-path="url(#pc6f5961b40)" style="fill: none; stroke: #000000; stroke-opacity: 0.5; stroke-width: 1.5; stroke-linecap: square"/>
   </g>
   <g id="line2d_30">
    <path d="M 107.178783 32.003033 
L 112.463766 32.003033 
" clip-path="url(#pc6f5961b40)" style="fill: none; stroke: #000000; stroke-opacity: 0.5; stroke-width: 1.5; stroke-linecap: square"/>
   </g>
   <g id="line2d_31">
    <path d="M 122.593317 66.751007 
L 127.878301 66.751007 
" clip-path="url(#pc6f5961b40)" style="fill: none; stroke: #000000; stroke-opacity: 0.5; stroke-width: 1.5; stroke-linecap: square"/>
   </g>
   <g id="line2d_32">
    <path d="M 129.199547 48.241577 
L 134.48453 48.241577 
" clip-path="url(#pc6f5961b40)" style="fill: none; stroke: #000000; stroke-opacity: 0.5; stroke-width: 1.5; stroke-linecap: square"/>
   </g>
   <g id="line2d_33">
    <path d="M 144.614081 61.737284 
L 149.899065 61.737284 
" clip-path="url(#pc6f5961b40)" style="fill: none; stroke: #000000; stroke-opacity: 0.5; stroke-width: 1.5; stroke-linecap: square"/>
   </g>
   <g id="line2d_34">
    <path d="M 151.22031 53.31451 
L 156.505294 53.31451 
" clip-path="url(#pc6f5961b40)" style="fill: none; stroke: #000000; stroke-opacity: 0.5; stroke-width: 1.5; stroke-linecap: square"/>
   </g>
   <g id="line2d_35">
    <path d="M 166.634845 65.092866 
L 171.919828 65.092866 
" clip-path="url(#pc6f5961b40)" style="fill: none; stroke: #000000; stroke-opacity: 0.5; stroke-width: 1.5; stroke-linecap: square"/>
   </g>
   <g id="line2d_36">
    <path d="M 173.241074 53.920308 
L 178.526058 53.920308 
" clip-path="url(#pc6f5961b40)" style="fill: none; stroke: #000000; stroke-opacity: 0.5; stroke-width: 1.5; stroke-linecap: square"/>
   </g>
   <g id="line2d_37">
    <path d="M 188.655609 65.760495 
L 193.940592 65.760495 
" clip-path="url(#pc6f5961b40)" style="fill: none; stroke: #000000; stroke-opacity: 0.5; stroke-width: 1.5; stroke-linecap: square"/>
   </g>
   <g id="line2d_38">
    <path d="M 195.261838 64.457968 
L 200.546822 64.457968 
" clip-path="url(#pc6f5961b40)" style="fill: none; stroke: #000000; stroke-opacity: 0.5; stroke-width: 1.5; stroke-linecap: square"/>
   </g>
   <g id="line2d_39">
    <path d="M 210.676373 28.766094 
L 215.961356 28.766094 
" clip-path="url(#pc6f5961b40)" style="fill: none; stroke: #000000; stroke-opacity: 0.5; stroke-width: 1.5; stroke-linecap: square"/>
   </g>
   <g id="line2d_40">
    <path d="M 217.282602 30.014419 
L 222.567585 30.014419 
" clip-path="url(#pc6f5961b40)" style="fill: none; stroke: #000000; stroke-opacity: 0.5; stroke-width: 1.5; stroke-linecap: square"/>
   </g>
   <g id="line2d_41">
    <path d="M 232.697137 18.508427 
L 237.98212 18.508427 
" clip-path="url(#pc6f5961b40)" style="fill: none; stroke: #000000; stroke-opacity: 0.5; stroke-width: 1.5; stroke-linecap: square"/>
   </g>
   <g id="line2d_42">
    <path d="M 239.303366 20.071022 
L 244.588349 20.071022 
" clip-path="url(#pc6f5961b40)" style="fill: none; stroke: #000000; stroke-opacity: 0.5; stroke-width: 1.5; stroke-linecap: square"/>
   </g>
   <g id="line2d_43">
    <path d="M 254.717901 59.553973 
L 260.002884 59.553973 
" clip-path="url(#pc6f5961b40)" style="fill: none; stroke: #000000; stroke-opacity: 0.5; stroke-width: 1.5; stroke-linecap: square"/>
   </g>
   <g id="line2d_44">
    <path d="M 261.32413 33.859201 
L 266.609113 33.859201 
" clip-path="url(#pc6f5961b40)" style="fill: none; stroke: #000000; stroke-opacity: 0.5; stroke-width: 1.5; stroke-linecap: square"/>
   </g>
   <g id="line2d_45">
    <path d="M 276.738665 17.330454 
L 282.023648 17.330454 
" clip-path="url(#pc6f5961b40)" style="fill: none; stroke: #000000; stroke-opacity: 0.5; stroke-width: 1.5; stroke-linecap: square"/>
   </g>
   <g id="line2d_46">
    <path d="M 283.344894 17.510417 
L 288.629877 17.510417 
" clip-path="url(#pc6f5961b40)" style="fill: none; stroke: #000000; stroke-opacity: 0.5; stroke-width: 1.5; stroke-linecap: square"/>
   </g>
   <g id="line2d_47">
    <path d="M 298.759428 17.326469 
L 304.044412 17.326469 
" clip-path="url(#pc6f5961b40)" style="fill: none; stroke: #000000; stroke-opacity: 0.5; stroke-width: 1.5; stroke-linecap: square"/>
   </g>
   <g id="line2d_48">
    <path d="M 305.365658 17.324529 
L 310.650641 17.324529 
" clip-path="url(#pc6f5961b40)" style="fill: none; stroke: #000000; stroke-opacity: 0.5; stroke-width: 1.5; stroke-linecap: square"/>
   </g>
   <g id="line2d_49">
    <path d="M 320.780192 17.302441 
L 326.065176 17.302441 
" clip-path="url(#pc6f5961b40)" style="fill: none; stroke: #000000; stroke-opacity: 0.5; stroke-width: 1.5; stroke-linecap: square"/>
   </g>
   <g id="line2d_50">
    <path d="M 327.386422 17.305876 
L 332.671405 17.305876 
" clip-path="url(#pc6f5961b40)" style="fill: none; stroke: #000000; stroke-opacity: 0.5; stroke-width: 1.5; stroke-linecap: square"/>
   </g>
   <g id="line2d_51">
    <path d="M 342.800956 23.616359 
L 348.08594 23.616359 
" clip-path="url(#pc6f5961b40)" style="fill: none; stroke: #000000; stroke-opacity: 0.5; stroke-width: 1.5; stroke-linecap: square"/>
   </g>
   <g id="line2d_52">
    <path d="M 349.407185 19.946913 
L 354.692169 19.946913 
" clip-path="url(#pc6f5961b40)" style="fill: none; stroke: #000000; stroke-opacity: 0.5; stroke-width: 1.5; stroke-linecap: square"/>
   </g>
   <g id="line2d_53">
    <path d="M 364.82172 67.59299 
L 370.106703 67.59299 
" clip-path="url(#pc6f5961b40)" style="fill: none; stroke: #000000; stroke-opacity: 0.5; stroke-width: 1.5; stroke-linecap: square"/>
   </g>
   <g id="line2d_54">
    <path d="M 371.427949 41.813997 
L 376.712933 41.813997 
" clip-path="url(#pc6f5961b40)" style="fill: none; stroke: #000000; stroke-opacity: 0.5; stroke-width: 1.5; stroke-linecap: square"/>
   </g>
   <g id="line2d_55">
    <path d="M 386.842484 42.195277 
L 392.127467 42.195277 
" clip-path="url(#pc6f5961b40)" style="fill: none; stroke: #000000; stroke-opacity: 0.5; stroke-width: 1.5; stroke-linecap: square"/>
   </g>
   <g id="line2d_56">
    <path d="M 393.448713 22.520352 
L 398.733697 22.520352 
" clip-path="url(#pc6f5961b40)" style="fill: none; stroke: #000000; stroke-opacity: 0.5; stroke-width: 1.5; stroke-linecap: square"/>
   </g>
   <g id="line2d_57">
    <path d="M 408.863248 53.359026 
L 414.148231 53.359026 
" clip-path="url(#pc6f5961b40)" style="fill: none; stroke: #000000; stroke-opacity: 0.5; stroke-width: 1.5; stroke-linecap: square"/>
   </g>
   <g id="line2d_58">
    <path d="M 415.469477 70.172445 
L 420.75446 70.172445 
" clip-path="url(#pc6f5961b40)" style="fill: none; stroke: #000000; stroke-opacity: 0.5; stroke-width: 1.5; stroke-linecap: square"/>
   </g>
   <g id="line2d_59">
    <path d="M 430.884012 28.613121 
L 436.168995 28.613121 
" clip-path="url(#pc6f5961b40)" style="fill: none; stroke: #000000; stroke-opacity: 0.5; stroke-width: 1.5; stroke-linecap: square"/>
   </g>
   <g id="line2d_60">
    <path d="M 437.490241 17.523696 
L 442.775224 17.523696 
" clip-path="url(#pc6f5961b40)" style="fill: none; stroke: #000000; stroke-opacity: 0.5; stroke-width: 1.5; stroke-linecap: square"/>
   </g>
   <g id="line2d_61">
    <path d="M 51.46625 127.24 
L 447.84 127.24 
" clip-path="url(#pc6f5961b40)" style="fill: none; stroke: #000000; stroke-opacity: 0.5; stroke-width: 1.5; stroke-linecap: square"/>
   </g>
   <g id="patch_75">
    <path d="M 51.46625 127.24 
L 51.46625 17.28 
" style="fill: none; stroke: #000000; stroke-width: 0.8; stroke-linejoin: miter; stroke-linecap: square"/>
   </g>
   <g id="patch_76">
    <path d="M 447.84 127.24 
L 447.84 17.28 
" style="fill: none; stroke: #000000; stroke-width: 0.8; stroke-linejoin: miter; stroke-linecap: square"/>
   </g>
   <g id="patch_77">
    <path d="M 51.46625 127.24 
L 447.84 127.24 
" style="fill: none; stroke: #000000; stroke-width: 0.8; stroke-linejoin: miter; stroke-linecap: square"/>
   </g>
   <g id="patch_78">
    <path d="M 51.46625 17.28 
L 447.84 17.28 
" style="fill: none; stroke: #000000; stroke-width: 0.8; stroke-linejoin: miter; stroke-linecap: square"/>
   </g>
  </g>
 </g>
 <defs>
  <clipPath id="pc6f5961b40">
   <rect x="51.46625" y="17.28" width="396.37375" height="109.96"/>
  </clipPath>
 </defs>
</svg>
