<?xml version="1.0" encoding="utf-8" standalone="no"?>
<!DOCTYPE svg PUBLIC "-//W3C//DTD SVG 1.1//EN"
  "http://www.w3.org/Graphics/SVG/1.1/DTD/svg11.dtd">
<svg xmlns:xlink="http://www.w3.org/1999/xlink" width="216pt" height="259.2pt" viewBox="0 0 216 259.2" xmlns="http://www.w3.org/2000/svg" version="1.1">
 <metadata>
  <rdf:RDF xmlns:dc="http://purl.org/dc/elements/1.1/" xmlns:cc="http://creativecommons.org/ns#" xmlns:rdf="http://www.w3.org/1999/02/22-rdf-syntax-ns#">
   <cc:Work>
    <dc:type rdf:resource="http://purl.org/dc/dcmitype/StillImage"/>
    <dc:date>2023-06-09T10:56:51.565538</dc:date>
    <dc:format>image/svg+xml</dc:format>
    <dc:creator>
     <cc:Agent>
      <dc:title>Matplotlib v3.7.1, https://matplotlib.org/</dc:title>
     </cc:Agent>
    </dc:creator>
   </cc:Work>
  </rdf:RDF>
 </metadata>
 <defs>
  <style type="text/css">*{stroke-linejoin: round; stroke-linecap: butt}</style>
 </defs>
 <g id="figure_1">
  <g id="patch_1">
   <path d="M 0 259.2 
L 216 259.2 
L 216 0 
L 0 0 
z
" style="fill: #ffffff"/>
  </g>
  <g id="axes_1">
   <g id="patch_2">
    <path d="M 54.74 207.14875 
L 203.04 207.14875 
L 203.04 17.28 
L 54.74 17.28 
z
" style="fill: #ffffff"/>
   </g>
   <g id="matplotlib.axis_1">
    <g id="xtick_1">
     <g id="line2d_1">
      <defs>
       <path id="m86951b8978" d="M 0 0 
L 0 3.5 
" style="stroke: #000000; stroke-width: 0.8"/>
      </defs>
      <g>
       <use xlink:href="#m86951b8978" x="54.74" y="207.14875" style="stroke: #000000; stroke-width: 0.8"/>
      </g>
     </g>
     <g id="text_1">
      <!-- $\mathdefault{10^{-1}}$ -->
      <g transform="translate(42.86 226.52375) scale(0.12 -0.12)">
       <defs>
        <path id="ArialMT-31" d="M 2384 0 
L 1822 0 
L 1822 3584 
Q 1619 3391 1289 3197 
Q 959 3003 697 2906 
L 697 3450 
Q 1169 3672 1522 3987 
Q 1875 4303 2022 4600 
L 2384 4600 
L 2384 0 
z
" transform="scale(0.015625)"/>
        <path id="ArialMT-30" d="M 266 2259 
Q 266 3072 433 3567 
Q 600 4063 929 4331 
Q 1259 4600 1759 4600 
Q 2128 4600 2406 4451 
Q 2684 4303 2865 4023 
Q 3047 3744 3150 3342 
Q 3253 2941 3253 2259 
Q 3253 1453 3087 958 
Q 2922 463 2592 192 
Q 2263 -78 1759 -78 
Q 1097 -78 719 397 
Q 266 969 266 2259 
z
M 844 2259 
Q 844 1131 1108 757 
Q 1372 384 1759 384 
Q 2147 384 2411 759 
Q 2675 1134 2675 2259 
Q 2675 3391 2411 3762 
Q 2147 4134 1753 4134 
Q 1366 4134 1134 3806 
Q 844 3388 844 2259 
z
" transform="scale(0.015625)"/>
        <path id="ArialMT-2212" d="M 3381 1997 
L 356 1997 
L 356 2522 
L 3381 2522 
L 3381 1997 
z
" transform="scale(0.015625)"/>
       </defs>
       <use xlink:href="#ArialMT-31" transform="translate(0 0.99375)"/>
       <use xlink:href="#ArialMT-30" transform="translate(55.615234 0.99375)"/>
       <use xlink:href="#ArialMT-2212" transform="translate(112.972813 70.6875) scale(0.7)"/>
       <use xlink:href="#ArialMT-31" transform="translate(153.851719 70.6875) scale(0.7)"/>
      </g>
     </g>
    </g>
    <g id="xtick_2">
     <g id="line2d_2">
      <g>
       <use xlink:href="#m86951b8978" x="116.58475" y="207.14875" style="stroke: #000000; stroke-width: 0.8"/>
      </g>
     </g>
     <g id="text_2">
      <!-- $\mathdefault{10^{0}}$ -->
      <g transform="translate(107.16475 226.52375) scale(0.12 -0.12)">
       <use xlink:href="#ArialMT-31" transform="translate(0 0.99375)"/>
       <use xlink:href="#ArialMT-30" transform="translate(55.615234 0.99375)"/>
       <use xlink:href="#ArialMT-30" transform="translate(112.972813 70.6875) scale(0.7)"/>
      </g>
     </g>
    </g>
    <g id="xtick_3">
     <g id="line2d_3">
      <g>
       <use xlink:href="#m86951b8978" x="178.4295" y="207.14875" style="stroke: #000000; stroke-width: 0.8"/>
      </g>
     </g>
     <g id="text_3">
      <!-- $\mathdefault{10^{1}}$ -->
      <g transform="translate(169.0095 226.52375) scale(0.12 -0.12)">
       <use xlink:href="#ArialMT-31" transform="translate(0 0.99375)"/>
       <use xlink:href="#ArialMT-30" transform="translate(55.615234 0.99375)"/>
       <use xlink:href="#ArialMT-31" transform="translate(112.972813 70.6875) scale(0.7)"/>
      </g>
     </g>
    </g>
    <g id="xtick_4">
     <g id="line2d_4">
      <defs>
       <path id="mfeca990c8d" d="M 0 0 
L 0 2 
" style="stroke: #000000; stroke-width: 0.6"/>
      </defs>
      <g>
       <use xlink:href="#mfeca990c8d" x="73.357125" y="207.14875" style="stroke: #000000; stroke-width: 0.6"/>
      </g>
     </g>
    </g>
    <g id="xtick_5">
     <g id="line2d_5">
      <g>
       <use xlink:href="#mfeca990c8d" x="84.247445" y="207.14875" style="stroke: #000000; stroke-width: 0.6"/>
      </g>
     </g>
    </g>
    <g id="xtick_6">
     <g id="line2d_6">
      <g>
       <use xlink:href="#mfeca990c8d" x="91.97425" y="207.14875" style="stroke: #000000; stroke-width: 0.6"/>
      </g>
     </g>
    </g>
    <g id="xtick_7">
     <g id="line2d_7">
      <g>
       <use xlink:href="#mfeca990c8d" x="97.967625" y="207.14875" style="stroke: #000000; stroke-width: 0.6"/>
      </g>
     </g>
    </g>
    <g id="xtick_8">
     <g id="line2d_8">
      <g>
       <use xlink:href="#mfeca990c8d" x="102.864569" y="207.14875" style="stroke: #000000; stroke-width: 0.6"/>
      </g>
     </g>
    </g>
    <g id="xtick_9">
     <g id="line2d_9">
      <g>
       <use xlink:href="#mfeca990c8d" x="107.004877" y="207.14875" style="stroke: #000000; stroke-width: 0.6"/>
      </g>
     </g>
    </g>
    <g id="xtick_10">
     <g id="line2d_10">
      <g>
       <use xlink:href="#mfeca990c8d" x="110.591374" y="207.14875" style="stroke: #000000; stroke-width: 0.6"/>
      </g>
     </g>
    </g>
    <g id="xtick_11">
     <g id="line2d_11">
      <g>
       <use xlink:href="#mfeca990c8d" x="113.754889" y="207.14875" style="stroke: #000000; stroke-width: 0.6"/>
      </g>
     </g>
    </g>
    <g id="xtick_12">
     <g id="line2d_12">
      <g>
       <use xlink:href="#mfeca990c8d" x="135.201875" y="207.14875" style="stroke: #000000; stroke-width: 0.6"/>
      </g>
     </g>
    </g>
    <g id="xtick_13">
     <g id="line2d_13">
      <g>
       <use xlink:href="#mfeca990c8d" x="146.092195" y="207.14875" style="stroke: #000000; stroke-width: 0.6"/>
      </g>
     </g>
    </g>
    <g id="xtick_14">
     <g id="line2d_14">
      <g>
       <use xlink:href="#mfeca990c8d" x="153.818999" y="207.14875" style="stroke: #000000; stroke-width: 0.6"/>
      </g>
     </g>
    </g>
    <g id="xtick_15">
     <g id="line2d_15">
      <g>
       <use xlink:href="#mfeca990c8d" x="159.812375" y="207.14875" style="stroke: #000000; stroke-width: 0.6"/>
      </g>
     </g>
    </g>
    <g id="xtick_16">
     <g id="line2d_16">
      <g>
       <use xlink:href="#mfeca990c8d" x="164.709319" y="207.14875" style="stroke: #000000; stroke-width: 0.6"/>
      </g>
     </g>
    </g>
    <g id="xtick_17">
     <g id="line2d_17">
      <g>
       <use xlink:href="#mfeca990c8d" x="168.849627" y="207.14875" style="stroke: #000000; stroke-width: 0.6"/>
      </g>
     </g>
    </g>
    <g id="xtick_18">
     <g id="line2d_18">
      <g>
       <use xlink:href="#mfeca990c8d" x="172.436124" y="207.14875" style="stroke: #000000; stroke-width: 0.6"/>
      </g>
     </g>
    </g>
    <g id="xtick_19">
     <g id="line2d_19">
      <g>
       <use xlink:href="#mfeca990c8d" x="175.599639" y="207.14875" style="stroke: #000000; stroke-width: 0.6"/>
      </g>
     </g>
    </g>
    <g id="xtick_20">
     <g id="line2d_20">
      <g>
       <use xlink:href="#mfeca990c8d" x="197.046624" y="207.14875" style="stroke: #000000; stroke-width: 0.6"/>
      </g>
     </g>
    </g>
    <g id="text_4">
     <!-- e-value -->
     <g transform="translate(109.212812 241.498125) scale(0.12 -0.12)">
      <defs>
       <path id="ArialMT-65" d="M 2694 1069 
L 3275 997 
Q 3138 488 2766 206 
Q 2394 -75 1816 -75 
Q 1088 -75 661 373 
Q 234 822 234 1631 
Q 234 2469 665 2931 
Q 1097 3394 1784 3394 
Q 2450 3394 2872 2941 
Q 3294 2488 3294 1666 
Q 3294 1616 3291 1516 
L 816 1516 
Q 847 969 1125 678 
Q 1403 388 1819 388 
Q 2128 388 2347 550 
Q 2566 713 2694 1069 
z
M 847 1978 
L 2700 1978 
Q 2663 2397 2488 2606 
Q 2219 2931 1791 2931 
Q 1403 2931 1139 2672 
Q 875 2413 847 1978 
z
" transform="scale(0.015625)"/>
       <path id="ArialMT-2d" d="M 203 1375 
L 203 1941 
L 1931 1941 
L 1931 1375 
L 203 1375 
z
" transform="scale(0.015625)"/>
       <path id="ArialMT-76" d="M 1344 0 
L 81 3319 
L 675 3319 
L 1388 1331 
Q 1503 1009 1600 663 
Q 1675 925 1809 1294 
L 2547 3319 
L 3125 3319 
L 1869 0 
L 1344 0 
z
" transform="scale(0.015625)"/>
       <path id="ArialMT-61" d="M 2588 409 
Q 2275 144 1986 34 
Q 1697 -75 1366 -75 
Q 819 -75 525 192 
Q 231 459 231 875 
Q 231 1119 342 1320 
Q 453 1522 633 1644 
Q 813 1766 1038 1828 
Q 1203 1872 1538 1913 
Q 2219 1994 2541 2106 
Q 2544 2222 2544 2253 
Q 2544 2597 2384 2738 
Q 2169 2928 1744 2928 
Q 1347 2928 1158 2789 
Q 969 2650 878 2297 
L 328 2372 
Q 403 2725 575 2942 
Q 747 3159 1072 3276 
Q 1397 3394 1825 3394 
Q 2250 3394 2515 3294 
Q 2781 3194 2906 3042 
Q 3031 2891 3081 2659 
Q 3109 2516 3109 2141 
L 3109 1391 
Q 3109 606 3145 398 
Q 3181 191 3288 0 
L 2700 0 
Q 2613 175 2588 409 
z
M 2541 1666 
Q 2234 1541 1622 1453 
Q 1275 1403 1131 1340 
Q 988 1278 909 1158 
Q 831 1038 831 891 
Q 831 666 1001 516 
Q 1172 366 1500 366 
Q 1825 366 2078 508 
Q 2331 650 2450 897 
Q 2541 1088 2541 1459 
L 2541 1666 
z
" transform="scale(0.015625)"/>
       <path id="ArialMT-6c" d="M 409 0 
L 409 4581 
L 972 4581 
L 972 0 
L 409 0 
z
" transform="scale(0.015625)"/>
       <path id="ArialMT-75" d="M 2597 0 
L 2597 488 
Q 2209 -75 1544 -75 
Q 1250 -75 995 37 
Q 741 150 617 320 
Q 494 491 444 738 
Q 409 903 409 1263 
L 409 3319 
L 972 3319 
L 972 1478 
Q 972 1038 1006 884 
Q 1059 663 1231 536 
Q 1403 409 1656 409 
Q 1909 409 2131 539 
Q 2353 669 2445 892 
Q 2538 1116 2538 1541 
L 2538 3319 
L 3100 3319 
L 3100 0 
L 2597 0 
z
" transform="scale(0.015625)"/>
      </defs>
      <use xlink:href="#ArialMT-65"/>
      <use xlink:href="#ArialMT-2d" x="55.615234"/>
      <use xlink:href="#ArialMT-76" x="88.916016"/>
      <use xlink:href="#ArialMT-61" x="138.916016"/>
      <use xlink:href="#ArialMT-6c" x="194.53125"/>
      <use xlink:href="#ArialMT-75" x="216.748047"/>
      <use xlink:href="#ArialMT-65" x="272.363281"/>
     </g>
    </g>
   </g>
   <g id="matplotlib.axis_2">
    <g id="ytick_1">
     <g id="line2d_21">
      <defs>
       <path id="m9e02e363da" d="M 0 0 
L -3.5 0 
" style="stroke: #000000; stroke-width: 0.8"/>
      </defs>
      <g>
       <use xlink:href="#m9e02e363da" x="54.74" y="195.98" style="stroke: #000000; stroke-width: 0.8"/>
      </g>
     </g>
     <g id="text_5">
      <!-- 20 -->
      <g transform="translate(34.39375 200.274688) scale(0.12 -0.12)">
       <defs>
        <path id="ArialMT-32" d="M 3222 541 
L 3222 0 
L 194 0 
Q 188 203 259 391 
Q 375 700 629 1000 
Q 884 1300 1366 1694 
Q 2113 2306 2375 2664 
Q 2638 3022 2638 3341 
Q 2638 3675 2398 3904 
Q 2159 4134 1775 4134 
Q 1369 4134 1125 3890 
Q 881 3647 878 3216 
L 300 3275 
Q 359 3922 746 4261 
Q 1134 4600 1788 4600 
Q 2447 4600 2831 4234 
Q 3216 3869 3216 3328 
Q 3216 3053 3103 2787 
Q 2991 2522 2730 2228 
Q 2469 1934 1863 1422 
Q 1356 997 1212 845 
Q 1069 694 975 541 
L 3222 541 
z
" transform="scale(0.015625)"/>
       </defs>
       <use xlink:href="#ArialMT-32"/>
       <use xlink:href="#ArialMT-30" x="55.615234"/>
      </g>
     </g>
    </g>
    <g id="ytick_2">
     <g id="line2d_22">
      <g>
       <use xlink:href="#m9e02e363da" x="54.74" y="151.305" style="stroke: #000000; stroke-width: 0.8"/>
      </g>
     </g>
     <g id="text_6">
      <!-- 40 -->
      <g transform="translate(34.39375 155.599688) scale(0.12 -0.12)">
       <defs>
        <path id="ArialMT-34" d="M 2069 0 
L 2069 1097 
L 81 1097 
L 81 1613 
L 2172 4581 
L 2631 4581 
L 2631 1613 
L 3250 1613 
L 3250 1097 
L 2631 1097 
L 2631 0 
L 2069 0 
z
M 2069 1613 
L 2069 3678 
L 634 1613 
L 2069 1613 
z
" transform="scale(0.015625)"/>
       </defs>
       <use xlink:href="#ArialMT-34"/>
       <use xlink:href="#ArialMT-30" x="55.615234"/>
      </g>
     </g>
    </g>
    <g id="ytick_3">
     <g id="line2d_23">
      <g>
       <use xlink:href="#m9e02e363da" x="54.74" y="106.63" style="stroke: #000000; stroke-width: 0.8"/>
      </g>
     </g>
     <g id="text_7">
      <!-- 60 -->
      <g transform="translate(34.39375 110.924688) scale(0.12 -0.12)">
       <defs>
        <path id="ArialMT-36" d="M 3184 3459 
L 2625 3416 
Q 2550 3747 2413 3897 
Q 2184 4138 1850 4138 
Q 1581 4138 1378 3988 
Q 1113 3794 959 3422 
Q 806 3050 800 2363 
Q 1003 2672 1297 2822 
Q 1591 2972 1913 2972 
Q 2475 2972 2870 2558 
Q 3266 2144 3266 1488 
Q 3266 1056 3080 686 
Q 2894 316 2569 119 
Q 2244 -78 1831 -78 
Q 1128 -78 684 439 
Q 241 956 241 2144 
Q 241 3472 731 4075 
Q 1159 4600 1884 4600 
Q 2425 4600 2770 4297 
Q 3116 3994 3184 3459 
z
M 888 1484 
Q 888 1194 1011 928 
Q 1134 663 1356 523 
Q 1578 384 1822 384 
Q 2178 384 2434 671 
Q 2691 959 2691 1453 
Q 2691 1928 2437 2201 
Q 2184 2475 1800 2475 
Q 1419 2475 1153 2201 
Q 888 1928 888 1484 
z
" transform="scale(0.015625)"/>
       </defs>
       <use xlink:href="#ArialMT-36"/>
       <use xlink:href="#ArialMT-30" x="55.615234"/>
      </g>
     </g>
    </g>
    <g id="ytick_4">
     <g id="line2d_24">
      <g>
       <use xlink:href="#m9e02e363da" x="54.74" y="61.955" style="stroke: #000000; stroke-width: 0.8"/>
      </g>
     </g>
     <g id="text_8">
      <!-- 80 -->
      <g transform="translate(34.39375 66.249688) scale(0.12 -0.12)">
       <defs>
        <path id="ArialMT-38" d="M 1131 2484 
Q 781 2613 612 2850 
Q 444 3088 444 3419 
Q 444 3919 803 4259 
Q 1163 4600 1759 4600 
Q 2359 4600 2725 4251 
Q 3091 3903 3091 3403 
Q 3091 3084 2923 2848 
Q 2756 2613 2416 2484 
Q 2838 2347 3058 2040 
Q 3278 1734 3278 1309 
Q 3278 722 2862 322 
Q 2447 -78 1769 -78 
Q 1091 -78 675 323 
Q 259 725 259 1325 
Q 259 1772 486 2073 
Q 713 2375 1131 2484 
z
M 1019 3438 
Q 1019 3113 1228 2906 
Q 1438 2700 1772 2700 
Q 2097 2700 2305 2904 
Q 2513 3109 2513 3406 
Q 2513 3716 2298 3927 
Q 2084 4138 1766 4138 
Q 1444 4138 1231 3931 
Q 1019 3725 1019 3438 
z
M 838 1322 
Q 838 1081 952 856 
Q 1066 631 1291 507 
Q 1516 384 1775 384 
Q 2178 384 2440 643 
Q 2703 903 2703 1303 
Q 2703 1709 2433 1975 
Q 2163 2241 1756 2241 
Q 1359 2241 1098 1978 
Q 838 1716 838 1322 
z
" transform="scale(0.015625)"/>
       </defs>
       <use xlink:href="#ArialMT-38"/>
       <use xlink:href="#ArialMT-30" x="55.615234"/>
      </g>
     </g>
    </g>
    <g id="ytick_5">
     <g id="line2d_25">
      <g>
       <use xlink:href="#m9e02e363da" x="54.74" y="17.28" style="stroke: #000000; stroke-width: 0.8"/>
      </g>
     </g>
     <g id="text_9">
      <!-- 100 -->
      <g transform="translate(27.720625 21.574688) scale(0.12 -0.12)">
       <use xlink:href="#ArialMT-31"/>
       <use xlink:href="#ArialMT-30" x="55.615234"/>
       <use xlink:href="#ArialMT-30" x="111.230469"/>
      </g>
     </g>
    </g>
    <g id="text_10">
     <!-- lDDT -->
     <g transform="translate(21.335625 125.878438) rotate(-90) scale(0.12 -0.12)">
      <defs>
       <path id="ArialMT-44" d="M 494 0 
L 494 4581 
L 2072 4581 
Q 2606 4581 2888 4516 
Q 3281 4425 3559 4188 
Q 3922 3881 4101 3404 
Q 4281 2928 4281 2316 
Q 4281 1794 4159 1391 
Q 4038 988 3847 723 
Q 3656 459 3429 307 
Q 3203 156 2883 78 
Q 2563 0 2147 0 
L 494 0 
z
M 1100 541 
L 2078 541 
Q 2531 541 2789 625 
Q 3047 709 3200 863 
Q 3416 1078 3536 1442 
Q 3656 1806 3656 2325 
Q 3656 3044 3420 3430 
Q 3184 3816 2847 3947 
Q 2603 4041 2063 4041 
L 1100 4041 
L 1100 541 
z
" transform="scale(0.015625)"/>
       <path id="ArialMT-54" d="M 1659 0 
L 1659 4041 
L 150 4041 
L 150 4581 
L 3781 4581 
L 3781 4041 
L 2266 4041 
L 2266 0 
L 1659 0 
z
" transform="scale(0.015625)"/>
      </defs>
      <use xlink:href="#ArialMT-6c"/>
      <use xlink:href="#ArialMT-44" x="22.216797"/>
      <use xlink:href="#ArialMT-44" x="94.433594"/>
      <use xlink:href="#ArialMT-54" x="166.650391"/>
     </g>
    </g>
   </g>
   <g id="line2d_26">
    <defs>
     <path id="m2af3ffe4d7" d="M 0 1.5 
C 0.397805 1.5 0.77937 1.341951 1.06066 1.06066 
C 1.341951 0.77937 1.5 0.397805 1.5 0 
C 1.5 -0.397805 1.341951 -0.77937 1.06066 -1.06066 
C 0.77937 -1.341951 0.397805 -1.5 0 -1.5 
C -0.397805 -1.5 -0.77937 -1.341951 -1.06066 -1.06066 
C -1.341951 -0.77937 -1.5 -0.397805 -1.5 0 
C -1.5 0.397805 -1.341951 0.77937 -1.06066 1.06066 
C -0.77937 1.341951 -0.397805 1.5 0 1.5 
z
" style="stroke: #bf4e30"/>
    </defs>
    <g clip-path="url(#p614a134659)">
     <use xlink:href="#m2af3ffe4d7" x="-1" y="45.889716" style="fill: #bf4e30; stroke: #bf4e30"/>
     <use xlink:href="#m2af3ffe4d7" x="28.035544" y="46.594935" style="fill: #bf4e30; stroke: #bf4e30"/>
     <use xlink:href="#m2af3ffe4d7" x="129.208499" y="116.678714" style="fill: #bf4e30; stroke: #bf4e30"/>
     <use xlink:href="#m2af3ffe4d7" x="-1" y="94.17227" style="fill: #bf4e30; stroke: #bf4e30"/>
     <use xlink:href="#m2af3ffe4d7" x="-1" y="96.626332" style="fill: #bf4e30; stroke: #bf4e30"/>
     <use xlink:href="#m2af3ffe4d7" x="146.092195" y="123.054782" style="fill: #bf4e30; stroke: #bf4e30"/>
     <use xlink:href="#m2af3ffe4d7" x="-1" y="122.015681" style="fill: #bf4e30; stroke: #bf4e30"/>
     <use xlink:href="#m2af3ffe4d7" x="-1" y="80.604526" style="fill: #bf4e30; stroke: #bf4e30"/>
     <use xlink:href="#m2af3ffe4d7" x="57.29992" y="76.732155" style="fill: #bf4e30; stroke: #bf4e30"/>
     <use xlink:href="#m2af3ffe4d7" x="121.481694" y="76.941722" style="fill: #bf4e30; stroke: #bf4e30"/>
     <use xlink:href="#m2af3ffe4d7" x="5.518999" y="99.757008" style="fill: #bf4e30; stroke: #bf4e30"/>
     <use xlink:href="#m2af3ffe4d7" x="-1" y="96.460627" style="fill: #bf4e30; stroke: #bf4e30"/>
     <use xlink:href="#m2af3ffe4d7" x="-1" y="53.060736" style="fill: #bf4e30; stroke: #bf4e30"/>
     <use xlink:href="#m2af3ffe4d7" x="146.972891" y="60.560525" style="fill: #bf4e30; stroke: #bf4e30"/>
     <use xlink:href="#m2af3ffe4d7" x="17.50575" y="110.142466" style="fill: #bf4e30; stroke: #bf4e30"/>
     <use xlink:href="#m2af3ffe4d7" x="-1" y="107.884721" style="fill: #bf4e30; stroke: #bf4e30"/>
     <use xlink:href="#m2af3ffe4d7" x="-1" y="145.063752" style="fill: #bf4e30; stroke: #bf4e30"/>
     <use xlink:href="#m2af3ffe4d7" x="93.916698" y="154.584465" style="fill: #bf4e30; stroke: #bf4e30"/>
     <use xlink:href="#m2af3ffe4d7" x="162.372295" y="131.661439" style="fill: #bf4e30; stroke: #bf4e30"/>
     <use xlink:href="#m2af3ffe4d7" x="-1" y="107.449799" style="fill: #bf4e30; stroke: #bf4e30"/>
     <use xlink:href="#m2af3ffe4d7" x="-1" y="152.166897" style="fill: #bf4e30; stroke: #bf4e30"/>
     <use xlink:href="#m2af3ffe4d7" x="130.836806" y="157.6394" style="fill: #bf4e30; stroke: #bf4e30"/>
     <use xlink:href="#m2af3ffe4d7" x="-1" y="143.465287" style="fill: #bf4e30; stroke: #bf4e30"/>
     <use xlink:href="#m2af3ffe4d7" x="-1" y="57.188617" style="fill: #bf4e30; stroke: #bf4e30"/>
     <use xlink:href="#m2af3ffe4d7" x="130.836806" y="57.153201" style="fill: #bf4e30; stroke: #bf4e30"/>
     <use xlink:href="#m2af3ffe4d7" x="-1" y="53.874327" style="fill: #bf4e30; stroke: #bf4e30"/>
     <use xlink:href="#m2af3ffe4d7" x="-1" y="134.011634" style="fill: #bf4e30; stroke: #bf4e30"/>
     <use xlink:href="#m2af3ffe4d7" x="192.681556" y="144.395128" style="fill: #bf4e30; stroke: #bf4e30"/>
     <use xlink:href="#m2af3ffe4d7" x="-1" y="142.474868" style="fill: #bf4e30; stroke: #bf4e30"/>
     <use xlink:href="#m2af3ffe4d7" x="-1" y="52.433431" style="fill: #bf4e30; stroke: #bf4e30"/>
     <use xlink:href="#m2af3ffe4d7" x="45.160127" y="50.125781" style="fill: #bf4e30; stroke: #bf4e30"/>
     <use xlink:href="#m2af3ffe4d7" x="166.442749" y="129.296985" style="fill: #bf4e30; stroke: #bf4e30"/>
     <use xlink:href="#m2af3ffe4d7" x="39.642142" y="76.20666" style="fill: #bf4e30; stroke: #bf4e30"/>
     <use xlink:href="#m2af3ffe4d7" x="173.099339" y="84.867213" style="fill: #bf4e30; stroke: #bf4e30"/>
     <use xlink:href="#m2af3ffe4d7" x="127.47507" y="115.077202" style="fill: #bf4e30; stroke: #bf4e30"/>
     <use xlink:href="#m2af3ffe4d7" x="-1" y="90.320048" style="fill: #bf4e30; stroke: #bf4e30"/>
     <use xlink:href="#m2af3ffe4d7" x="-1" y="32.63004" style="fill: #bf4e30; stroke: #bf4e30"/>
     <use xlink:href="#m2af3ffe4d7" x="-0.057952" y="32.601481" style="fill: #bf4e30; stroke: #bf4e30"/>
     <use xlink:href="#m2af3ffe4d7" x="-1" y="32.603796" style="fill: #bf4e30; stroke: #bf4e30"/>
     <use xlink:href="#m2af3ffe4d7" x="-1" y="55.583825" style="fill: #bf4e30; stroke: #bf4e30"/>
     <use xlink:href="#m2af3ffe4d7" x="159.269754" y="57.126411" style="fill: #bf4e30; stroke: #bf4e30"/>
     <use xlink:href="#m2af3ffe4d7" x="-1" y="57.025719" style="fill: #bf4e30; stroke: #bf4e30"/>
     <use xlink:href="#m2af3ffe4d7" x="-1" y="56.590375" style="fill: #bf4e30; stroke: #bf4e30"/>
     <use xlink:href="#m2af3ffe4d7" x="113.454787" y="56.652161" style="fill: #bf4e30; stroke: #bf4e30"/>
     <use xlink:href="#m2af3ffe4d7" x="-1" y="56.94374" style="fill: #bf4e30; stroke: #bf4e30"/>
     <use xlink:href="#m2af3ffe4d7" x="-1" y="92.754781" style="fill: #bf4e30; stroke: #bf4e30"/>
     <use xlink:href="#m2af3ffe4d7" x="125.622002" y="65.957982" style="fill: #bf4e30; stroke: #bf4e30"/>
     <use xlink:href="#m2af3ffe4d7" x="145.181638" y="65.466554" style="fill: #bf4e30; stroke: #bf4e30"/>
     <use xlink:href="#m2af3ffe4d7" x="-1" y="53.148367" style="fill: #bf4e30; stroke: #bf4e30"/>
     <use xlink:href="#m2af3ffe4d7" x="-1" y="92.810807" style="fill: #bf4e30; stroke: #bf4e30"/>
     <use xlink:href="#m2af3ffe4d7" x="146.092195" y="134.428106" style="fill: #bf4e30; stroke: #bf4e30"/>
     <use xlink:href="#m2af3ffe4d7" x="-1" y="128.327123" style="fill: #bf4e30; stroke: #bf4e30"/>
     <use xlink:href="#m2af3ffe4d7" x="-1" y="131.472786" style="fill: #bf4e30; stroke: #bf4e30"/>
     <use xlink:href="#m2af3ffe4d7" x="112.844333" y="133.275673" style="fill: #bf4e30; stroke: #bf4e30"/>
     <use xlink:href="#m2af3ffe4d7" x="168.071055" y="135.755878" style="fill: #bf4e30; stroke: #bf4e30"/>
     <use xlink:href="#m2af3ffe4d7" x="-1" y="128.643983" style="fill: #bf4e30; stroke: #bf4e30"/>
    </g>
   </g>
   <g id="line2d_27">
    <defs>
     <path id="m376e0a4171" d="M 0 1.5 
C 0.397805 1.5 0.77937 1.341951 1.06066 1.06066 
C 1.341951 0.77937 1.5 0.397805 1.5 0 
C 1.5 -0.397805 1.341951 -0.77937 1.06066 -1.06066 
C 0.77937 -1.341951 0.397805 -1.5 0 -1.5 
C -0.397805 -1.5 -0.77937 -1.341951 -1.06066 -1.06066 
C -1.341951 -0.77937 -1.5 -0.397805 -1.5 0 
C -1.5 0.397805 -1.341951 0.77937 -1.06066 1.06066 
C -0.77937 1.341951 -0.397805 1.5 0 1.5 
z
" style="stroke: #0d3b66"/>
    </defs>
    <g clip-path="url(#p614a134659)">
     <use xlink:href="#m376e0a4171" x="-1" y="62.313892" style="fill: #0d3b66; stroke: #0d3b66"/>
     <use xlink:href="#m376e0a4171" x="143.262334" y="108.045266" style="fill: #0d3b66; stroke: #0d3b66"/>
     <use xlink:href="#m376e0a4171" x="194.216764" y="121.14243" style="fill: #0d3b66; stroke: #0d3b66"/>
     <use xlink:href="#m376e0a4171" x="-1" y="135.756637" style="fill: #0d3b66; stroke: #0d3b66"/>
     <use xlink:href="#m376e0a4171" x="-1" y="135.770901" style="fill: #0d3b66; stroke: #0d3b66"/>
     <use xlink:href="#m376e0a4171" x="163.798763" y="123.510362" style="fill: #0d3b66; stroke: #0d3b66"/>
     <use xlink:href="#m376e0a4171" x="-1" y="153.905025" style="fill: #0d3b66; stroke: #0d3b66"/>
     <use xlink:href="#m376e0a4171" x="-1" y="153.145435" style="fill: #0d3b66; stroke: #0d3b66"/>
     <use xlink:href="#m376e0a4171" x="89.144389" y="79.827778" style="fill: #0d3b66; stroke: #0d3b66"/>
     <use xlink:href="#m376e0a4171" x="176.767599" y="136.089512" style="fill: #0d3b66; stroke: #0d3b66"/>
     <use xlink:href="#m376e0a4171" x="141.19525" y="52.730914" style="fill: #0d3b66; stroke: #0d3b66"/>
     <use xlink:href="#m376e0a4171" x="119.14467" y="152.626142" style="fill: #0d3b66; stroke: #0d3b66"/>
     <use xlink:href="#m376e0a4171" x="177.051822" y="115.951942" style="fill: #0d3b66; stroke: #0d3b66"/>
     <use xlink:href="#m376e0a4171" x="162.372295" y="97.733115" style="fill: #0d3b66; stroke: #0d3b66"/>
     <use xlink:href="#m376e0a4171" x="-1" y="79.045703" style="fill: #0d3b66; stroke: #0d3b66"/>
     <use xlink:href="#m376e0a4171" x="-1" y="118.093914" style="fill: #0d3b66; stroke: #0d3b66"/>
     <use xlink:href="#m376e0a4171" x="166.859173" y="138.439652" style="fill: #0d3b66; stroke: #0d3b66"/>
     <use xlink:href="#m376e0a4171" x="-1" y="117.234766" style="fill: #0d3b66; stroke: #0d3b66"/>
     <use xlink:href="#m376e0a4171" x="-1" y="126.45966" style="fill: #0d3b66; stroke: #0d3b66"/>
     <use xlink:href="#m376e0a4171" x="144.239126" y="141.835302" style="fill: #0d3b66; stroke: #0d3b66"/>
     <use xlink:href="#m376e0a4171" x="172.098273" y="139.18177" style="fill: #0d3b66; stroke: #0d3b66"/>
     <use xlink:href="#m376e0a4171" x="-1" y="103.72383" style="fill: #0d3b66; stroke: #0d3b66"/>
     <use xlink:href="#m376e0a4171" x="-1" y="142.499478" style="fill: #0d3b66; stroke: #0d3b66"/>
     <use xlink:href="#m376e0a4171" x="138.955717" y="146.262498" style="fill: #0d3b66; stroke: #0d3b66"/>
     <use xlink:href="#m376e0a4171" x="-1" y="144.960953" style="fill: #0d3b66; stroke: #0d3b66"/>
     <use xlink:href="#m376e0a4171" x="-1" y="112.855536" style="fill: #0d3b66; stroke: #0d3b66"/>
     <use xlink:href="#m376e0a4171" x="138.955717" y="97.827801" style="fill: #0d3b66; stroke: #0d3b66"/>
     <use xlink:href="#m376e0a4171" x="78.254069" y="79.282207" style="fill: #0d3b66; stroke: #0d3b66"/>
     <use xlink:href="#m376e0a4171" x="65.63032" y="68.294087" style="fill: #0d3b66; stroke: #0d3b66"/>
     <use xlink:href="#m376e0a4171" x="163.331641" y="70.156983" style="fill: #0d3b66; stroke: #0d3b66"/>
     <use xlink:href="#m376e0a4171" x="47.013195" y="72.94387" style="fill: #0d3b66; stroke: #0d3b66"/>
     <use xlink:href="#m376e0a4171" x="-1" y="75.122384" style="fill: #0d3b66; stroke: #0d3b66"/>
     <use xlink:href="#m376e0a4171" x="-1" y="121.304638" style="fill: #0d3b66; stroke: #0d3b66"/>
     <use xlink:href="#m376e0a4171" x="150.989139" y="129.658696" style="fill: #0d3b66; stroke: #0d3b66"/>
     <use xlink:href="#m376e0a4171" x="154.482214" y="114.307229" style="fill: #0d3b66; stroke: #0d3b66"/>
     <use xlink:href="#m376e0a4171" x="97.967625" y="123.596859" style="fill: #0d3b66; stroke: #0d3b66"/>
     <use xlink:href="#m376e0a4171" x="165.153277" y="108.008319" style="fill: #0d3b66; stroke: #0d3b66"/>
     <use xlink:href="#m376e0a4171" x="169.230609" y="122.507047" style="fill: #0d3b66; stroke: #0d3b66"/>
     <use xlink:href="#m376e0a4171" x="112.533823" y="71.204956" style="fill: #0d3b66; stroke: #0d3b66"/>
     <use xlink:href="#m376e0a4171" x="180.98942" y="71.710375" style="fill: #0d3b66; stroke: #0d3b66"/>
     <use xlink:href="#m376e0a4171" x="138.955717" y="110.672537" style="fill: #0d3b66; stroke: #0d3b66"/>
     <use xlink:href="#m376e0a4171" x="-1" y="61.295719" style="fill: #0d3b66; stroke: #0d3b66"/>
     <use xlink:href="#m376e0a4171" x="-1" y="52.759128" style="fill: #0d3b66; stroke: #0d3b66"/>
     <use xlink:href="#m376e0a4171" x="138.955717" y="86.573849" style="fill: #0d3b66; stroke: #0d3b66"/>
     <use xlink:href="#m376e0a4171" x="-1" y="88.582549" style="fill: #0d3b66; stroke: #0d3b66"/>
     <use xlink:href="#m376e0a4171" x="-1" y="131.346258" style="fill: #0d3b66; stroke: #0d3b66"/>
     <use xlink:href="#m376e0a4171" x="84.247445" y="134.767382" style="fill: #0d3b66; stroke: #0d3b66"/>
     <use xlink:href="#m376e0a4171" x="70.527264" y="31.612491" style="fill: #0d3b66; stroke: #0d3b66"/>
     <use xlink:href="#m376e0a4171" x="-1" y="54.40986" style="fill: #0d3b66; stroke: #0d3b66"/>
     <use xlink:href="#m376e0a4171" x="-1" y="65.655072" style="fill: #0d3b66; stroke: #0d3b66"/>
     <use xlink:href="#m376e0a4171" x="107.004877" y="44.541525" style="fill: #0d3b66; stroke: #0d3b66"/>
     <use xlink:href="#m376e0a4171" x="89.144389" y="136.437573" style="fill: #0d3b66; stroke: #0d3b66"/>
     <use xlink:href="#m376e0a4171" x="97.967625" y="109.709288" style="fill: #0d3b66; stroke: #0d3b66"/>
     <use xlink:href="#m376e0a4171" x="74.667572" y="42.487996" style="fill: #0d3b66; stroke: #0d3b66"/>
     <use xlink:href="#m376e0a4171" x="-1" y="43.641269" style="fill: #0d3b66; stroke: #0d3b66"/>
     <use xlink:href="#m376e0a4171" x="-1" y="49.813742" style="fill: #0d3b66; stroke: #0d3b66"/>
     <use xlink:href="#m376e0a4171" x="52.500467" y="47.055005" style="fill: #0d3b66; stroke: #0d3b66"/>
     <use xlink:href="#m376e0a4171" x="-1" y="46.879922" style="fill: #0d3b66; stroke: #0d3b66"/>
     <use xlink:href="#m376e0a4171" x="-1" y="32.388321" style="fill: #0d3b66; stroke: #0d3b66"/>
     <use xlink:href="#m376e0a4171" x="32.68942" y="32.186914" style="fill: #0d3b66; stroke: #0d3b66"/>
     <use xlink:href="#m376e0a4171" x="71.979447" y="33.976034" style="fill: #0d3b66; stroke: #0d3b66"/>
     <use xlink:href="#m376e0a4171" x="-1" y="28.795206" style="fill: #0d3b66; stroke: #0d3b66"/>
     <use xlink:href="#m376e0a4171" x="-1" y="79.978573" style="fill: #0d3b66; stroke: #0d3b66"/>
     <use xlink:href="#m376e0a4171" x="106.226305" y="48.095157" style="fill: #0d3b66; stroke: #0d3b66"/>
     <use xlink:href="#m376e0a4171" x="30.1295" y="86.886709" style="fill: #0d3b66; stroke: #0d3b66"/>
     <use xlink:href="#m376e0a4171" x="102.864569" y="74.027939" style="fill: #0d3b66; stroke: #0d3b66"/>
     <use xlink:href="#m376e0a4171" x="48.408773" y="30.660004" style="fill: #0d3b66; stroke: #0d3b66"/>
     <use xlink:href="#m376e0a4171" x="-1" y="29.301166" style="fill: #0d3b66; stroke: #0d3b66"/>
     <use xlink:href="#m376e0a4171" x="-1" y="55.338135" style="fill: #0d3b66; stroke: #0d3b66"/>
     <use xlink:href="#m376e0a4171" x="91.294243" y="136.113192" style="fill: #0d3b66; stroke: #0d3b66"/>
     <use xlink:href="#m376e0a4171" x="-1" y="133.418358" style="fill: #0d3b66; stroke: #0d3b66"/>
     <use xlink:href="#m376e0a4171" x="-1" y="56.446108" style="fill: #0d3b66; stroke: #0d3b66"/>
     <use xlink:href="#m376e0a4171" x="164.2579" y="58.53832" style="fill: #0d3b66; stroke: #0d3b66"/>
     <use xlink:href="#m376e0a4171" x="-1" y="60.975539" style="fill: #0d3b66; stroke: #0d3b66"/>
     <use xlink:href="#m376e0a4171" x="-1" y="61.316648" style="fill: #0d3b66; stroke: #0d3b66"/>
     <use xlink:href="#m376e0a4171" x="180.98942" y="58.658791" style="fill: #0d3b66; stroke: #0d3b66"/>
     <use xlink:href="#m376e0a4171" x="-1" y="66.920548" style="fill: #0d3b66; stroke: #0d3b66"/>
     <use xlink:href="#m376e0a4171" x="-1" y="108.186419" style="fill: #0d3b66; stroke: #0d3b66"/>
     <use xlink:href="#m376e0a4171" x="48.746624" y="107.77825" style="fill: #0d3b66; stroke: #0d3b66"/>
     <use xlink:href="#m376e0a4171" x="-1" y="115.601584" style="fill: #0d3b66; stroke: #0d3b66"/>
     <use xlink:href="#m376e0a4171" x="-1" y="109.940614" style="fill: #0d3b66; stroke: #0d3b66"/>
     <use xlink:href="#m376e0a4171" x="197.046624" y="62.295536" style="fill: #0d3b66; stroke: #0d3b66"/>
     <use xlink:href="#m376e0a4171" x="156.37892" y="70.363397" style="fill: #0d3b66; stroke: #0d3b66"/>
     <use xlink:href="#m376e0a4171" x="110.925029" y="121.82047" style="fill: #0d3b66; stroke: #0d3b66"/>
     <use xlink:href="#m376e0a4171" x="111.580155" y="154.827657" style="fill: #0d3b66; stroke: #0d3b66"/>
     <use xlink:href="#m376e0a4171" x="35.580254" y="28.977057" style="fill: #0d3b66; stroke: #0d3b66"/>
     <use xlink:href="#m376e0a4171" x="142.248673" y="91.060709" style="fill: #0d3b66; stroke: #0d3b66"/>
     <use xlink:href="#m376e0a4171" x="-1" y="87.328199" style="fill: #0d3b66; stroke: #0d3b66"/>
     <use xlink:href="#m376e0a4171" x="-1" y="133.464975" style="fill: #0d3b66; stroke: #0d3b66"/>
     <use xlink:href="#m376e0a4171" x="98.499501" y="135.327063" style="fill: #0d3b66; stroke: #0d3b66"/>
     <use xlink:href="#m376e0a4171" x="165.153277" y="135.082227" style="fill: #0d3b66; stroke: #0d3b66"/>
     <use xlink:href="#m376e0a4171" x="-1" y="125.713666" style="fill: #0d3b66; stroke: #0d3b66"/>
     <use xlink:href="#m376e0a4171" x="-1" y="123.861087" style="fill: #0d3b66; stroke: #0d3b66"/>
     <use xlink:href="#m376e0a4171" x="141.19525" y="131.717159" style="fill: #0d3b66; stroke: #0d3b66"/>
     <use xlink:href="#m376e0a4171" x="150.232502" y="142.580053" style="fill: #0d3b66; stroke: #0d3b66"/>
     <use xlink:href="#m376e0a4171" x="-1" y="138.10525" style="fill: #0d3b66; stroke: #0d3b66"/>
     <use xlink:href="#m376e0a4171" x="-1" y="85.187993" style="fill: #0d3b66; stroke: #0d3b66"/>
     <use xlink:href="#m376e0a4171" x="84.247445" y="100.033687" style="fill: #0d3b66; stroke: #0d3b66"/>
     <use xlink:href="#m376e0a4171" x="-1" y="75.935345" style="fill: #0d3b66; stroke: #0d3b66"/>
     <use xlink:href="#m376e0a4171" x="-1" y="53.909339" style="fill: #0d3b66; stroke: #0d3b66"/>
     <use xlink:href="#m376e0a4171" x="116.58475" y="83.317007" style="fill: #0d3b66; stroke: #0d3b66"/>
    </g>
   </g>
   <g id="patch_3">
    <path d="M 54.74 207.14875 
L 54.74 17.28 
" style="fill: none; stroke: #000000; stroke-width: 0.8; stroke-linejoin: miter; stroke-linecap: square"/>
   </g>
   <g id="patch_4">
    <path d="M 203.04 207.14875 
L 203.04 17.28 
" style="fill: none; stroke: #000000; stroke-width: 0.8; stroke-linejoin: miter; stroke-linecap: square"/>
   </g>
   <g id="patch_5">
    <path d="M 54.74 207.14875 
L 203.04 207.14875 
" style="fill: none; stroke: #000000; stroke-width: 0.8; stroke-linejoin: miter; stroke-linecap: square"/>
   </g>
   <g id="patch_6">
    <path d="M 54.74 17.28 
L 203.04 17.28 
" style="fill: none; stroke: #000000; stroke-width: 0.8; stroke-linejoin: miter; stroke-linecap: square"/>
   </g>
  </g>
 </g>
 <defs>
  <clipPath id="p614a134659">
   <rect x="54.74" y="17.28" width="148.3" height="189.86875"/>
  </clipPath>
 </defs>
</svg>
