<?xml version="1.0" encoding="utf-8" standalone="no"?>
<!DOCTYPE svg PUBLIC "-//W3C//DTD SVG 1.1//EN"
  "http://www.w3.org/Graphics/SVG/1.1/DTD/svg11.dtd">
<svg xmlns:xlink="http://www.w3.org/1999/xlink" width="360pt" height="144pt" viewBox="0 0 360 144" xmlns="http://www.w3.org/2000/svg" version="1.1">
 <metadata>
  <rdf:RDF xmlns:dc="http://purl.org/dc/elements/1.1/" xmlns:cc="http://creativecommons.org/ns#" xmlns:rdf="http://www.w3.org/1999/02/22-rdf-syntax-ns#">
   <cc:Work>
    <dc:type rdf:resource="http://purl.org/dc/dcmitype/StillImage"/>
    <dc:date>2023-05-30T14:50:56.455204</dc:date>
    <dc:format>image/svg+xml</dc:format>
    <dc:creator>
     <cc:Agent>
      <dc:title>Matplotlib v3.7.1, https://matplotlib.org/</dc:title>
     </cc:Agent>
    </dc:creator>
   </cc:Work>
  </rdf:RDF>
 </metadata>
 <defs>
  <style type="text/css">*{stroke-linejoin: round; stroke-linecap: butt}</style>
 </defs>
 <g id="figure_1">
  <g id="patch_1">
   <path d="M 0 144 
L 360 144 
L 360 0 
L 0 0 
z
" style="fill: #ffffff"/>
  </g>
  <g id="axes_1">
   <g id="patch_2">
    <path d="M 153.61 98.44 
L 337.05 98.44 
L 337.05 12.96 
L 153.61 12.96 
z
" style="fill: #ffffff"/>
   </g>
   <g id="PolyCollection_1">
    <defs>
     <path id="m6fc7682bf8" d="M 182.2725 -119.394069 
L 182.2725 -119.373203 
L 183.563678 -119.369491 
L 184.854856 -119.365554 
L 186.146033 -119.360399 
L 187.437211 -119.35339 
L 188.728389 -119.344727 
L 190.019567 -119.335376 
L 191.310744 -119.326904 
L 192.601922 -119.320784 
L 193.8931 -119.316688 
L 195.184278 -119.311767 
L 196.475456 -119.303375 
L 197.766633 -119.292306 
L 199.057811 -119.281692 
L 200.348989 -119.272954 
L 201.640167 -119.263909 
L 202.931344 -119.251048 
L 204.222522 -119.23339 
L 205.5137 -119.21326 
L 206.804878 -119.19238 
L 208.096056 -119.168219 
L 209.387233 -119.136594 
L 210.678411 -119.097032 
L 211.969589 -119.050834 
L 213.260767 -118.993515 
L 214.551944 -118.916854 
L 215.843122 -118.822302 
L 217.1343 -118.723991 
L 218.425478 -118.630509 
L 219.716656 -118.529963 
L 221.007833 -118.402291 
L 222.299011 -118.240682 
L 223.590189 -118.051983 
L 224.881367 -117.844183 
L 226.172544 -117.620987 
L 227.463722 -117.379841 
L 228.7549 -117.115067 
L 230.046078 -116.827942 
L 231.337256 -116.520899 
L 232.628433 -116.178228 
L 233.919611 -115.771794 
L 235.210789 -115.295237 
L 236.501967 -114.783555 
L 237.793144 -114.291179 
L 239.084322 -113.851637 
L 240.3755 -113.460526 
L 241.666678 -113.092944 
L 242.957856 -112.731848 
L 244.249033 -112.383901 
L 245.540211 -112.074542 
L 246.831389 -111.831 
L 248.122567 -111.673519 
L 249.413744 -111.612727 
L 250.704922 -111.640969 
L 251.9961 -111.736596 
L 253.287278 -111.886361 
L 254.578455 -112.089622 
L 255.869633 -112.341235 
L 257.160811 -112.628733 
L 258.451989 -112.943779 
L 259.743167 -113.285128 
L 261.034344 -113.65128 
L 262.325522 -114.031644 
L 263.6167 -114.407899 
L 264.907878 -114.767414 
L 266.199055 -115.109274 
L 267.490233 -115.435189 
L 268.781411 -115.743931 
L 270.072589 -116.03541 
L 271.363767 -116.30957 
L 272.654944 -116.560264 
L 273.946122 -116.778841 
L 275.2373 -116.965672 
L 276.528478 -117.13195 
L 277.819655 -117.286949 
L 279.110833 -117.429188 
L 280.402011 -117.555928 
L 281.693189 -117.673599 
L 282.984367 -117.787585 
L 284.275544 -117.890508 
L 285.566722 -117.97451 
L 286.8579 -118.047769 
L 288.149078 -118.127939 
L 289.440255 -118.223047 
L 290.731433 -118.326234 
L 292.022611 -118.428581 
L 293.313789 -118.52888 
L 294.604967 -118.629551 
L 295.896144 -118.731599 
L 297.187322 -118.834896 
L 298.4785 -118.936834 
L 299.769678 -119.030396 
L 301.060855 -119.108258 
L 302.352033 -119.169203 
L 303.643211 -119.218436 
L 304.934389 -119.262028 
L 306.225567 -119.301748 
L 307.516744 -119.334795 
L 308.807922 -119.358001 
L 310.0991 -119.371528 
L 310.0991 -119.395744 
L 310.0991 -119.395744 
L 308.807922 -119.409271 
L 307.516744 -119.432478 
L 306.225567 -119.465524 
L 304.934389 -119.505245 
L 303.643211 -119.548836 
L 302.352033 -119.598069 
L 301.060855 -119.659014 
L 299.769678 -119.736876 
L 298.4785 -119.830439 
L 297.187322 -119.932376 
L 295.896144 -120.035673 
L 294.604967 -120.137722 
L 293.313789 -120.238392 
L 292.022611 -120.338692 
L 290.731433 -120.441039 
L 289.440255 -120.544225 
L 288.149078 -120.639333 
L 286.8579 -120.719504 
L 285.566722 -120.792763 
L 284.275544 -120.876765 
L 282.984367 -120.979687 
L 281.693189 -121.093674 
L 280.402011 -121.211345 
L 279.110833 -121.338085 
L 277.819655 -121.480323 
L 276.528478 -121.635322 
L 275.2373 -121.801601 
L 273.946122 -121.988431 
L 272.654944 -122.207009 
L 271.363767 -122.457703 
L 270.072589 -122.731863 
L 268.781411 -123.023342 
L 267.490233 -123.332084 
L 266.199055 -123.657998 
L 264.907878 -123.999858 
L 263.6167 -124.359374 
L 262.325522 -124.735628 
L 261.034344 -125.115993 
L 259.743167 -125.482145 
L 258.451989 -125.823494 
L 257.160811 -126.13854 
L 255.869633 -126.426038 
L 254.578455 -126.67765 
L 253.287278 -126.880912 
L 251.9961 -127.030677 
L 250.704922 -127.126304 
L 249.413744 -127.154545 
L 248.122567 -127.093753 
L 246.831389 -126.936273 
L 245.540211 -126.692731 
L 244.249033 -126.383371 
L 242.957856 -126.035425 
L 241.666678 -125.674329 
L 240.3755 -125.306747 
L 239.084322 -124.915636 
L 237.793144 -124.476093 
L 236.501967 -123.983718 
L 235.210789 -123.472035 
L 233.919611 -122.995479 
L 232.628433 -122.589045 
L 231.337256 -122.246374 
L 230.046078 -121.939331 
L 228.7549 -121.652206 
L 227.463722 -121.387431 
L 226.172544 -121.146286 
L 224.881367 -120.92309 
L 223.590189 -120.715289 
L 222.299011 -120.526591 
L 221.007833 -120.364981 
L 219.716656 -120.23731 
L 218.425478 -120.136764 
L 217.1343 -120.043282 
L 215.843122 -119.944971 
L 214.551944 -119.850418 
L 213.260767 -119.773758 
L 211.969589 -119.716439 
L 210.678411 -119.670241 
L 209.387233 -119.630679 
L 208.096056 -119.599054 
L 206.804878 -119.574892 
L 205.5137 -119.554013 
L 204.222522 -119.533883 
L 202.931344 -119.516225 
L 201.640167 -119.503364 
L 200.348989 -119.494319 
L 199.057811 -119.485581 
L 197.766633 -119.474966 
L 196.475456 -119.463898 
L 195.184278 -119.455506 
L 193.8931 -119.450584 
L 192.601922 -119.446489 
L 191.310744 -119.440369 
L 190.019567 -119.431897 
L 188.728389 -119.422546 
L 187.437211 -119.413883 
L 186.146033 -119.406874 
L 184.854856 -119.401718 
L 183.563678 -119.397782 
L 182.2725 -119.394069 
z
" style="stroke: #0d3b66; stroke-opacity: 0.3"/>
    </defs>
    <g clip-path="url(#pcfac56eb46)">
     <use xlink:href="#m6fc7682bf8" x="0" y="144" style="fill: #0d3b66; fill-opacity: 0.3; stroke: #0d3b66; stroke-opacity: 0.3"/>
    </g>
   </g>
   <g id="PolyCollection_2">
    <defs>
     <path id="m53b9d607ad" d="M 182.2725 -88.30416 
L 182.2725 -88.29584 
L 183.585742 -88.295267 
L 184.898985 -88.295162 
L 186.212227 -88.294151 
L 187.52547 -88.29134 
L 188.838712 -88.287724 
L 190.151955 -88.284838 
L 191.465197 -88.282473 
L 192.77844 -88.279584 
L 194.091682 -88.276279 
L 195.404924 -88.272623 
L 196.718167 -88.267679 
L 198.031409 -88.262006 
L 199.344652 -88.258017 
L 200.657894 -88.256139 
L 201.971137 -88.254159 
L 203.284379 -88.250248 
L 204.597622 -88.243553 
L 205.910864 -88.234149 
L 207.224107 -88.223936 
L 208.537349 -88.214925 
L 209.850591 -88.206127 
L 211.163834 -88.192153 
L 212.477076 -88.166458 
L 213.790319 -88.129144 
L 215.103561 -88.088459 
L 216.416804 -88.051643 
L 217.730046 -88.019075 
L 219.043289 -87.987405 
L 220.356531 -87.953073 
L 221.669773 -87.915101 
L 222.983016 -87.873483 
L 224.296258 -87.818685 
L 225.609501 -87.731329 
L 226.922743 -87.602335 
L 228.235986 -87.446236 
L 229.549228 -87.287372 
L 230.862471 -87.138334 
L 232.175713 -86.99303 
L 233.488956 -86.832644 
L 234.802198 -86.637414 
L 236.11544 -86.393977 
L 237.428683 -86.091655 
L 238.741925 -85.72288 
L 240.055168 -85.291987 
L 241.36841 -84.818829 
L 242.681653 -84.331701 
L 243.994895 -83.845845 
L 245.308138 -83.353247 
L 246.62138 -82.849425 
L 247.934622 -82.354612 
L 249.247865 -81.899319 
L 250.561107 -81.501174 
L 251.87435 -81.158228 
L 253.187592 -80.869138 
L 254.500835 -80.653083 
L 255.814077 -80.535502 
L 257.12732 -80.529091 
L 258.440562 -80.638323 
L 259.753804 -80.856965 
L 261.067047 -81.160488 
L 262.380289 -81.528858 
L 263.693532 -81.964881 
L 265.006774 -82.464284 
L 266.320017 -82.983122 
L 267.633259 -83.461999 
L 268.946502 -83.88886 
L 270.259744 -84.308411 
L 271.572987 -84.745354 
L 272.886229 -85.158114 
L 274.199471 -85.493865 
L 275.512714 -85.751604 
L 276.825956 -85.969874 
L 278.139199 -86.176247 
L 279.452441 -86.373475 
L 280.765684 -86.559622 
L 282.078926 -86.733568 
L 283.392169 -86.88867 
L 284.705411 -87.019031 
L 286.018653 -87.130347 
L 287.331896 -87.236217 
L 288.645138 -87.342378 
L 289.958381 -87.439724 
L 291.271623 -87.514357 
L 292.584866 -87.564742 
L 293.898108 -87.608971 
L 295.211351 -87.667038 
L 296.524593 -87.739129 
L 297.837836 -87.811819 
L 299.151078 -87.876482 
L 300.46432 -87.934698 
L 301.777563 -87.99251 
L 303.090805 -88.052221 
L 304.404048 -88.110469 
L 305.71729 -88.162538 
L 307.030533 -88.205177 
L 308.343775 -88.236981 
L 309.657018 -88.258702 
L 310.97026 -88.273185 
L 312.283502 -88.283626 
L 312.283502 -88.316374 
L 312.283502 -88.316374 
L 310.97026 -88.326815 
L 309.657018 -88.341298 
L 308.343775 -88.363019 
L 307.030533 -88.394823 
L 305.71729 -88.437462 
L 304.404048 -88.489531 
L 303.090805 -88.547779 
L 301.777563 -88.60749 
L 300.46432 -88.665302 
L 299.151078 -88.723518 
L 297.837836 -88.788181 
L 296.524593 -88.860871 
L 295.211351 -88.932962 
L 293.898108 -88.991029 
L 292.584866 -89.035258 
L 291.271623 -89.085643 
L 289.958381 -89.160276 
L 288.645138 -89.257622 
L 287.331896 -89.363783 
L 286.018653 -89.469653 
L 284.705411 -89.580969 
L 283.392169 -89.71133 
L 282.078926 -89.866432 
L 280.765684 -90.040378 
L 279.452441 -90.226525 
L 278.139199 -90.423753 
L 276.825956 -90.630126 
L 275.512714 -90.848396 
L 274.199471 -91.106135 
L 272.886229 -91.441886 
L 271.572987 -91.854646 
L 270.259744 -92.291589 
L 268.946502 -92.71114 
L 267.633259 -93.138001 
L 266.320017 -93.616878 
L 265.006774 -94.135716 
L 263.693532 -94.635119 
L 262.380289 -95.071142 
L 261.067047 -95.439512 
L 259.753804 -95.743035 
L 258.440562 -95.961677 
L 257.12732 -96.070909 
L 255.814077 -96.064498 
L 254.500835 -95.946917 
L 253.187592 -95.730862 
L 251.87435 -95.441772 
L 250.561107 -95.098826 
L 249.247865 -94.700681 
L 247.934622 -94.245388 
L 246.62138 -93.750575 
L 245.308138 -93.246753 
L 243.994895 -92.754155 
L 242.681653 -92.268299 
L 241.36841 -91.781171 
L 240.055168 -91.308013 
L 238.741925 -90.87712 
L 237.428683 -90.508345 
L 236.11544 -90.206023 
L 234.802198 -89.962586 
L 233.488956 -89.767356 
L 232.175713 -89.60697 
L 230.862471 -89.461666 
L 229.549228 -89.312628 
L 228.235986 -89.153764 
L 226.922743 -88.997665 
L 225.609501 -88.868671 
L 224.296258 -88.781315 
L 222.983016 -88.726517 
L 221.669773 -88.684899 
L 220.356531 -88.646927 
L 219.043289 -88.612595 
L 217.730046 -88.580925 
L 216.416804 -88.548357 
L 215.103561 -88.511541 
L 213.790319 -88.470856 
L 212.477076 -88.433542 
L 211.163834 -88.407847 
L 209.850591 -88.393873 
L 208.537349 -88.385075 
L 207.224107 -88.376064 
L 205.910864 -88.365851 
L 204.597622 -88.356447 
L 203.284379 -88.349752 
L 201.971137 -88.345841 
L 200.657894 -88.343861 
L 199.344652 -88.341983 
L 198.031409 -88.337994 
L 196.718167 -88.332321 
L 195.404924 -88.327377 
L 194.091682 -88.323721 
L 192.77844 -88.320416 
L 191.465197 -88.317527 
L 190.151955 -88.315162 
L 188.838712 -88.312276 
L 187.52547 -88.30866 
L 186.212227 -88.305849 
L 184.898985 -88.304838 
L 183.585742 -88.304733 
L 182.2725 -88.30416 
z
" style="stroke: #0d3b66; stroke-opacity: 0.3"/>
    </defs>
    <g clip-path="url(#pcfac56eb46)">
     <use xlink:href="#m53b9d607ad" x="0" y="144" style="fill: #0d3b66; fill-opacity: 0.3; stroke: #0d3b66; stroke-opacity: 0.3"/>
    </g>
   </g>
   <g id="PolyCollection_3">
    <defs>
     <path id="mc34bce4047" d="M 189.915834 -57.227676 
L 189.915834 -57.205051 
L 191.160351 -57.202055 
L 192.404869 -57.201319 
L 193.649386 -57.202036 
L 194.893903 -57.202191 
L 196.13842 -57.199897 
L 197.382938 -57.195081 
L 198.627455 -57.190219 
L 199.871972 -57.188084 
L 201.116489 -57.188347 
L 202.361006 -57.18786 
L 203.605524 -57.184504 
L 204.850041 -57.178815 
L 206.094558 -57.171932 
L 207.339075 -57.164286 
L 208.583592 -57.156072 
L 209.82811 -57.146795 
L 211.072627 -57.134347 
L 212.317144 -57.116946 
L 213.561661 -57.096455 
L 214.806178 -57.077231 
L 216.050696 -57.061192 
L 217.295213 -57.045661 
L 218.53973 -57.025604 
L 219.784247 -56.997586 
L 221.028765 -56.963328 
L 222.273282 -56.928119 
L 223.517799 -56.89359 
L 224.762316 -56.854877 
L 226.006833 -56.805139 
L 227.251351 -56.739923 
L 228.495868 -56.658717 
L 229.740385 -56.561792 
L 230.984902 -56.44338 
L 232.229419 -56.29495 
L 233.473937 -56.120616 
L 234.718454 -55.938629 
L 235.962971 -55.756306 
L 237.207488 -55.552888 
L 238.452006 -55.302082 
L 239.696523 -55.002668 
L 240.94104 -54.676364 
L 242.185557 -54.346492 
L 243.430074 -54.016667 
L 244.674592 -53.661511 
L 245.919109 -53.252484 
L 247.163626 -52.799198 
L 248.408143 -52.349937 
L 249.65266 -51.934059 
L 250.897178 -51.515434 
L 252.141695 -51.046885 
L 253.386212 -50.56275 
L 254.630729 -50.155122 
L 255.875246 -49.862394 
L 257.119764 -49.647629 
L 258.364281 -49.492331 
L 259.608798 -49.445455 
L 260.853315 -49.553593 
L 262.097833 -49.788374 
L 263.34235 -50.074675 
L 264.586867 -50.368693 
L 265.831384 -50.684272 
L 267.075901 -51.050466 
L 268.320419 -51.467491 
L 269.564936 -51.910945 
L 270.809453 -52.354723 
L 272.05397 -52.779779 
L 273.298487 -53.181984 
L 274.543005 -53.572825 
L 275.787522 -53.956254 
L 277.032039 -54.314451 
L 278.276556 -54.628692 
L 279.521074 -54.897869 
L 280.765591 -55.129202 
L 282.010108 -55.330793 
L 283.254625 -55.512354 
L 284.499142 -55.676033 
L 285.74366 -55.819523 
L 286.988177 -55.95263 
L 288.232694 -56.085864 
L 289.477211 -56.20907 
L 290.721728 -56.302905 
L 291.966246 -56.36089 
L 293.210763 -56.396337 
L 294.45528 -56.437287 
L 295.699797 -56.504639 
L 296.944314 -56.591135 
L 298.188832 -56.672894 
L 299.433349 -56.738639 
L 300.677866 -56.797457 
L 301.922383 -56.861245 
L 303.166901 -56.930545 
L 304.411418 -56.998012 
L 305.655935 -57.056552 
L 306.900452 -57.102752 
L 308.144969 -57.137662 
L 309.389487 -57.1642 
L 310.634004 -57.183542 
L 311.878521 -57.196115 
L 313.123038 -57.203956 
L 313.123038 -57.228771 
L 313.123038 -57.228771 
L 311.878521 -57.236612 
L 310.634004 -57.249185 
L 309.389487 -57.268528 
L 308.144969 -57.295065 
L 306.900452 -57.329975 
L 305.655935 -57.376175 
L 304.411418 -57.434715 
L 303.166901 -57.502182 
L 301.922383 -57.571482 
L 300.677866 -57.635271 
L 299.433349 -57.694088 
L 298.188832 -57.759833 
L 296.944314 -57.841592 
L 295.699797 -57.928088 
L 294.45528 -57.99544 
L 293.210763 -58.03639 
L 291.966246 -58.071837 
L 290.721728 -58.129822 
L 289.477211 -58.223657 
L 288.232694 -58.346863 
L 286.988177 -58.480097 
L 285.74366 -58.613205 
L 284.499142 -58.756694 
L 283.254625 -58.920374 
L 282.010108 -59.101934 
L 280.765591 -59.303525 
L 279.521074 -59.534859 
L 278.276556 -59.804036 
L 277.032039 -60.118276 
L 275.787522 -60.476473 
L 274.543005 -60.859902 
L 273.298487 -61.250743 
L 272.05397 -61.652948 
L 270.809453 -62.078004 
L 269.564936 -62.521782 
L 268.320419 -62.965236 
L 267.075901 -63.382262 
L 265.831384 -63.748456 
L 264.586867 -64.064034 
L 263.34235 -64.358052 
L 262.097833 -64.644353 
L 260.853315 -64.879135 
L 259.608798 -64.987273 
L 258.364281 -64.940396 
L 257.119764 -64.785098 
L 255.875246 -64.570334 
L 254.630729 -64.277605 
L 253.386212 -63.869977 
L 252.141695 -63.385842 
L 250.897178 -62.917294 
L 249.65266 -62.498668 
L 248.408143 -62.08279 
L 247.163626 -61.633529 
L 245.919109 -61.180243 
L 244.674592 -60.771217 
L 243.430074 -60.41606 
L 242.185557 -60.086236 
L 240.94104 -59.756364 
L 239.696523 -59.430059 
L 238.452006 -59.130645 
L 237.207488 -58.879839 
L 235.962971 -58.676421 
L 234.718454 -58.494098 
L 233.473937 -58.312111 
L 232.229419 -58.137777 
L 230.984902 -57.989347 
L 229.740385 -57.870935 
L 228.495868 -57.77401 
L 227.251351 -57.692805 
L 226.006833 -57.627589 
L 224.762316 -57.57785 
L 223.517799 -57.539137 
L 222.273282 -57.504608 
L 221.028765 -57.469399 
L 219.784247 -57.435141 
L 218.53973 -57.407124 
L 217.295213 -57.387067 
L 216.050696 -57.371535 
L 214.806178 -57.355497 
L 213.561661 -57.336273 
L 212.317144 -57.315781 
L 211.072627 -57.298381 
L 209.82811 -57.285932 
L 208.583592 -57.276655 
L 207.339075 -57.268441 
L 206.094558 -57.260795 
L 204.850041 -57.253913 
L 203.605524 -57.248223 
L 202.361006 -57.244867 
L 201.116489 -57.24438 
L 199.871972 -57.244644 
L 198.627455 -57.242508 
L 197.382938 -57.237647 
L 196.13842 -57.232831 
L 194.893903 -57.230536 
L 193.649386 -57.230692 
L 192.404869 -57.231408 
L 191.160351 -57.230672 
L 189.915834 -57.227676 
z
" style="stroke: #0d3b66; stroke-opacity: 0.3"/>
    </defs>
    <g clip-path="url(#pcfac56eb46)">
     <use xlink:href="#mc34bce4047" x="0" y="144" style="fill: #0d3b66; fill-opacity: 0.3; stroke: #0d3b66; stroke-opacity: 0.3"/>
    </g>
   </g>
   <g id="matplotlib.axis_1">
    <g id="xtick_1">
     <g id="line2d_1">
      <defs>
       <path id="mcd494694b1" d="M 0 0 
L 0 3.5 
" style="stroke: #000000; stroke-width: 0.8"/>
      </defs>
      <g>
       <use xlink:href="#mcd494694b1" x="153.61" y="98.44" style="stroke: #000000; stroke-width: 0.8"/>
      </g>
     </g>
     <g id="text_1">
      <!-- 0 -->
      <g transform="translate(150.273437 114.029375) scale(0.12 -0.12)">
       <defs>
        <path id="ArialMT-30" d="M 266 2259 
Q 266 3072 433 3567 
Q 600 4063 929 4331 
Q 1259 4600 1759 4600 
Q 2128 4600 2406 4451 
Q 2684 4303 2865 4023 
Q 3047 3744 3150 3342 
Q 3253 2941 3253 2259 
Q 3253 1453 3087 958 
Q 2922 463 2592 192 
Q 2263 -78 1759 -78 
Q 1097 -78 719 397 
Q 266 969 266 2259 
z
M 844 2259 
Q 844 1131 1108 757 
Q 1372 384 1759 384 
Q 2147 384 2411 759 
Q 2675 1134 2675 2259 
Q 2675 3391 2411 3762 
Q 2147 4134 1753 4134 
Q 1366 4134 1134 3806 
Q 844 3388 844 2259 
z
" transform="scale(0.015625)"/>
       </defs>
       <use xlink:href="#ArialMT-30"/>
      </g>
     </g>
    </g>
    <g id="xtick_2">
     <g id="line2d_2">
      <g>
       <use xlink:href="#mcd494694b1" x="190.298" y="98.44" style="stroke: #000000; stroke-width: 0.8"/>
      </g>
     </g>
     <g id="text_2">
      <!-- 20 -->
      <g transform="translate(183.624875 114.029375) scale(0.12 -0.12)">
       <defs>
        <path id="ArialMT-32" d="M 3222 541 
L 3222 0 
L 194 0 
Q 188 203 259 391 
Q 375 700 629 1000 
Q 884 1300 1366 1694 
Q 2113 2306 2375 2664 
Q 2638 3022 2638 3341 
Q 2638 3675 2398 3904 
Q 2159 4134 1775 4134 
Q 1369 4134 1125 3890 
Q 881 3647 878 3216 
L 300 3275 
Q 359 3922 746 4261 
Q 1134 4600 1788 4600 
Q 2447 4600 2831 4234 
Q 3216 3869 3216 3328 
Q 3216 3053 3103 2787 
Q 2991 2522 2730 2228 
Q 2469 1934 1863 1422 
Q 1356 997 1212 845 
Q 1069 694 975 541 
L 3222 541 
z
" transform="scale(0.015625)"/>
       </defs>
       <use xlink:href="#ArialMT-32"/>
       <use xlink:href="#ArialMT-30" x="55.615234"/>
      </g>
     </g>
    </g>
    <g id="xtick_3">
     <g id="line2d_3">
      <g>
       <use xlink:href="#mcd494694b1" x="226.986" y="98.44" style="stroke: #000000; stroke-width: 0.8"/>
      </g>
     </g>
     <g id="text_3">
      <!-- 40 -->
      <g transform="translate(220.312875 114.029375) scale(0.12 -0.12)">
       <defs>
        <path id="ArialMT-34" d="M 2069 0 
L 2069 1097 
L 81 1097 
L 81 1613 
L 2172 4581 
L 2631 4581 
L 2631 1613 
L 3250 1613 
L 3250 1097 
L 2631 1097 
L 2631 0 
L 2069 0 
z
M 2069 1613 
L 2069 3678 
L 634 1613 
L 2069 1613 
z
" transform="scale(0.015625)"/>
       </defs>
       <use xlink:href="#ArialMT-34"/>
       <use xlink:href="#ArialMT-30" x="55.615234"/>
      </g>
     </g>
    </g>
    <g id="xtick_4">
     <g id="line2d_4">
      <g>
       <use xlink:href="#mcd494694b1" x="263.674" y="98.44" style="stroke: #000000; stroke-width: 0.8"/>
      </g>
     </g>
     <g id="text_4">
      <!-- 60 -->
      <g transform="translate(257.000875 114.029375) scale(0.12 -0.12)">
       <defs>
        <path id="ArialMT-36" d="M 3184 3459 
L 2625 3416 
Q 2550 3747 2413 3897 
Q 2184 4138 1850 4138 
Q 1581 4138 1378 3988 
Q 1113 3794 959 3422 
Q 806 3050 800 2363 
Q 1003 2672 1297 2822 
Q 1591 2972 1913 2972 
Q 2475 2972 2870 2558 
Q 3266 2144 3266 1488 
Q 3266 1056 3080 686 
Q 2894 316 2569 119 
Q 2244 -78 1831 -78 
Q 1128 -78 684 439 
Q 241 956 241 2144 
Q 241 3472 731 4075 
Q 1159 4600 1884 4600 
Q 2425 4600 2770 4297 
Q 3116 3994 3184 3459 
z
M 888 1484 
Q 888 1194 1011 928 
Q 1134 663 1356 523 
Q 1578 384 1822 384 
Q 2178 384 2434 671 
Q 2691 959 2691 1453 
Q 2691 1928 2437 2201 
Q 2184 2475 1800 2475 
Q 1419 2475 1153 2201 
Q 888 1928 888 1484 
z
" transform="scale(0.015625)"/>
       </defs>
       <use xlink:href="#ArialMT-36"/>
       <use xlink:href="#ArialMT-30" x="55.615234"/>
      </g>
     </g>
    </g>
    <g id="xtick_5">
     <g id="line2d_5">
      <g>
       <use xlink:href="#mcd494694b1" x="300.362" y="98.44" style="stroke: #000000; stroke-width: 0.8"/>
      </g>
     </g>
     <g id="text_5">
      <!-- 80 -->
      <g transform="translate(293.688875 114.029375) scale(0.12 -0.12)">
       <defs>
        <path id="ArialMT-38" d="M 1131 2484 
Q 781 2613 612 2850 
Q 444 3088 444 3419 
Q 444 3919 803 4259 
Q 1163 4600 1759 4600 
Q 2359 4600 2725 4251 
Q 3091 3903 3091 3403 
Q 3091 3084 2923 2848 
Q 2756 2613 2416 2484 
Q 2838 2347 3058 2040 
Q 3278 1734 3278 1309 
Q 3278 722 2862 322 
Q 2447 -78 1769 -78 
Q 1091 -78 675 323 
Q 259 725 259 1325 
Q 259 1772 486 2073 
Q 713 2375 1131 2484 
z
M 1019 3438 
Q 1019 3113 1228 2906 
Q 1438 2700 1772 2700 
Q 2097 2700 2305 2904 
Q 2513 3109 2513 3406 
Q 2513 3716 2298 3927 
Q 2084 4138 1766 4138 
Q 1444 4138 1231 3931 
Q 1019 3725 1019 3438 
z
M 838 1322 
Q 838 1081 952 856 
Q 1066 631 1291 507 
Q 1516 384 1775 384 
Q 2178 384 2440 643 
Q 2703 903 2703 1303 
Q 2703 1709 2433 1975 
Q 2163 2241 1756 2241 
Q 1359 2241 1098 1978 
Q 838 1716 838 1322 
z
" transform="scale(0.015625)"/>
       </defs>
       <use xlink:href="#ArialMT-38"/>
       <use xlink:href="#ArialMT-30" x="55.615234"/>
      </g>
     </g>
    </g>
    <g id="xtick_6">
     <g id="line2d_6">
      <g>
       <use xlink:href="#mcd494694b1" x="337.05" y="98.44" style="stroke: #000000; stroke-width: 0.8"/>
      </g>
     </g>
     <g id="text_6">
      <!-- 100 -->
      <g transform="translate(327.040313 114.029375) scale(0.12 -0.12)">
       <defs>
        <path id="ArialMT-31" d="M 2384 0 
L 1822 0 
L 1822 3584 
Q 1619 3391 1289 3197 
Q 959 3003 697 2906 
L 697 3450 
Q 1169 3672 1522 3987 
Q 1875 4303 2022 4600 
L 2384 4600 
L 2384 0 
z
" transform="scale(0.015625)"/>
       </defs>
       <use xlink:href="#ArialMT-31"/>
       <use xlink:href="#ArialMT-30" x="55.615234"/>
       <use xlink:href="#ArialMT-30" x="111.230469"/>
      </g>
     </g>
    </g>
    <g id="text_7">
     <!-- sequence recovery [%] -->
     <g transform="translate(184.3025 129.15) scale(0.12 -0.12)">
      <defs>
       <path id="ArialMT-73" d="M 197 991 
L 753 1078 
Q 800 744 1014 566 
Q 1228 388 1613 388 
Q 2000 388 2187 545 
Q 2375 703 2375 916 
Q 2375 1106 2209 1216 
Q 2094 1291 1634 1406 
Q 1016 1563 777 1677 
Q 538 1791 414 1992 
Q 291 2194 291 2438 
Q 291 2659 392 2848 
Q 494 3038 669 3163 
Q 800 3259 1026 3326 
Q 1253 3394 1513 3394 
Q 1903 3394 2198 3281 
Q 2494 3169 2634 2976 
Q 2775 2784 2828 2463 
L 2278 2388 
Q 2241 2644 2061 2787 
Q 1881 2931 1553 2931 
Q 1166 2931 1000 2803 
Q 834 2675 834 2503 
Q 834 2394 903 2306 
Q 972 2216 1119 2156 
Q 1203 2125 1616 2013 
Q 2213 1853 2448 1751 
Q 2684 1650 2818 1456 
Q 2953 1263 2953 975 
Q 2953 694 2789 445 
Q 2625 197 2315 61 
Q 2006 -75 1616 -75 
Q 969 -75 630 194 
Q 291 463 197 991 
z
" transform="scale(0.015625)"/>
       <path id="ArialMT-65" d="M 2694 1069 
L 3275 997 
Q 3138 488 2766 206 
Q 2394 -75 1816 -75 
Q 1088 -75 661 373 
Q 234 822 234 1631 
Q 234 2469 665 2931 
Q 1097 3394 1784 3394 
Q 2450 3394 2872 2941 
Q 3294 2488 3294 1666 
Q 3294 1616 3291 1516 
L 816 1516 
Q 847 969 1125 678 
Q 1403 388 1819 388 
Q 2128 388 2347 550 
Q 2566 713 2694 1069 
z
M 847 1978 
L 2700 1978 
Q 2663 2397 2488 2606 
Q 2219 2931 1791 2931 
Q 1403 2931 1139 2672 
Q 875 2413 847 1978 
z
" transform="scale(0.015625)"/>
       <path id="ArialMT-71" d="M 2538 -1272 
L 2538 353 
Q 2406 169 2170 47 
Q 1934 -75 1669 -75 
Q 1078 -75 651 397 
Q 225 869 225 1691 
Q 225 2191 398 2587 
Q 572 2984 901 3189 
Q 1231 3394 1625 3394 
Q 2241 3394 2594 2875 
L 2594 3319 
L 3100 3319 
L 3100 -1272 
L 2538 -1272 
z
M 803 1669 
Q 803 1028 1072 708 
Q 1341 388 1716 388 
Q 2075 388 2334 692 
Q 2594 997 2594 1619 
Q 2594 2281 2320 2615 
Q 2047 2950 1678 2950 
Q 1313 2950 1058 2639 
Q 803 2328 803 1669 
z
" transform="scale(0.015625)"/>
       <path id="ArialMT-75" d="M 2597 0 
L 2597 488 
Q 2209 -75 1544 -75 
Q 1250 -75 995 37 
Q 741 150 617 320 
Q 494 491 444 738 
Q 409 903 409 1263 
L 409 3319 
L 972 3319 
L 972 1478 
Q 972 1038 1006 884 
Q 1059 663 1231 536 
Q 1403 409 1656 409 
Q 1909 409 2131 539 
Q 2353 669 2445 892 
Q 2538 1116 2538 1541 
L 2538 3319 
L 3100 3319 
L 3100 0 
L 2597 0 
z
" transform="scale(0.015625)"/>
       <path id="ArialMT-6e" d="M 422 0 
L 422 3319 
L 928 3319 
L 928 2847 
Q 1294 3394 1984 3394 
Q 2284 3394 2536 3286 
Q 2788 3178 2913 3003 
Q 3038 2828 3088 2588 
Q 3119 2431 3119 2041 
L 3119 0 
L 2556 0 
L 2556 2019 
Q 2556 2363 2490 2533 
Q 2425 2703 2258 2804 
Q 2091 2906 1866 2906 
Q 1506 2906 1245 2678 
Q 984 2450 984 1813 
L 984 0 
L 422 0 
z
" transform="scale(0.015625)"/>
       <path id="ArialMT-63" d="M 2588 1216 
L 3141 1144 
Q 3050 572 2676 248 
Q 2303 -75 1759 -75 
Q 1078 -75 664 370 
Q 250 816 250 1647 
Q 250 2184 428 2587 
Q 606 2991 970 3192 
Q 1334 3394 1763 3394 
Q 2303 3394 2647 3120 
Q 2991 2847 3088 2344 
L 2541 2259 
Q 2463 2594 2264 2762 
Q 2066 2931 1784 2931 
Q 1359 2931 1093 2626 
Q 828 2322 828 1663 
Q 828 994 1084 691 
Q 1341 388 1753 388 
Q 2084 388 2306 591 
Q 2528 794 2588 1216 
z
" transform="scale(0.015625)"/>
       <path id="ArialMT-20" transform="scale(0.015625)"/>
       <path id="ArialMT-72" d="M 416 0 
L 416 3319 
L 922 3319 
L 922 2816 
Q 1116 3169 1280 3281 
Q 1444 3394 1641 3394 
Q 1925 3394 2219 3213 
L 2025 2691 
Q 1819 2813 1613 2813 
Q 1428 2813 1281 2702 
Q 1134 2591 1072 2394 
Q 978 2094 978 1738 
L 978 0 
L 416 0 
z
" transform="scale(0.015625)"/>
       <path id="ArialMT-6f" d="M 213 1659 
Q 213 2581 725 3025 
Q 1153 3394 1769 3394 
Q 2453 3394 2887 2945 
Q 3322 2497 3322 1706 
Q 3322 1066 3130 698 
Q 2938 331 2570 128 
Q 2203 -75 1769 -75 
Q 1072 -75 642 372 
Q 213 819 213 1659 
z
M 791 1659 
Q 791 1022 1069 705 
Q 1347 388 1769 388 
Q 2188 388 2466 706 
Q 2744 1025 2744 1678 
Q 2744 2294 2464 2611 
Q 2184 2928 1769 2928 
Q 1347 2928 1069 2612 
Q 791 2297 791 1659 
z
" transform="scale(0.015625)"/>
       <path id="ArialMT-76" d="M 1344 0 
L 81 3319 
L 675 3319 
L 1388 1331 
Q 1503 1009 1600 663 
Q 1675 925 1809 1294 
L 2547 3319 
L 3125 3319 
L 1869 0 
L 1344 0 
z
" transform="scale(0.015625)"/>
       <path id="ArialMT-79" d="M 397 -1278 
L 334 -750 
Q 519 -800 656 -800 
Q 844 -800 956 -737 
Q 1069 -675 1141 -563 
Q 1194 -478 1313 -144 
Q 1328 -97 1363 -6 
L 103 3319 
L 709 3319 
L 1400 1397 
Q 1534 1031 1641 628 
Q 1738 1016 1872 1384 
L 2581 3319 
L 3144 3319 
L 1881 -56 
Q 1678 -603 1566 -809 
Q 1416 -1088 1222 -1217 
Q 1028 -1347 759 -1347 
Q 597 -1347 397 -1278 
z
" transform="scale(0.015625)"/>
       <path id="ArialMT-5b" d="M 434 -1272 
L 434 4581 
L 1675 4581 
L 1675 4116 
L 997 4116 
L 997 -806 
L 1675 -806 
L 1675 -1272 
L 434 -1272 
z
" transform="scale(0.015625)"/>
       <path id="ArialMT-25" d="M 372 3481 
Q 372 3972 619 4315 
Q 866 4659 1334 4659 
Q 1766 4659 2048 4351 
Q 2331 4044 2331 3447 
Q 2331 2866 2045 2552 
Q 1759 2238 1341 2238 
Q 925 2238 648 2547 
Q 372 2856 372 3481 
z
M 1350 4272 
Q 1141 4272 1002 4090 
Q 863 3909 863 3425 
Q 863 2984 1003 2804 
Q 1144 2625 1350 2625 
Q 1563 2625 1702 2806 
Q 1841 2988 1841 3469 
Q 1841 3913 1700 4092 
Q 1559 4272 1350 4272 
z
M 1353 -169 
L 3859 4659 
L 4316 4659 
L 1819 -169 
L 1353 -169 
z
M 3334 1075 
Q 3334 1569 3581 1911 
Q 3828 2253 4300 2253 
Q 4731 2253 5014 1945 
Q 5297 1638 5297 1041 
Q 5297 459 5011 145 
Q 4725 -169 4303 -169 
Q 3888 -169 3611 142 
Q 3334 453 3334 1075 
z
M 4316 1866 
Q 4103 1866 3964 1684 
Q 3825 1503 3825 1019 
Q 3825 581 3965 400 
Q 4106 219 4313 219 
Q 4528 219 4667 400 
Q 4806 581 4806 1063 
Q 4806 1506 4665 1686 
Q 4525 1866 4316 1866 
z
" transform="scale(0.015625)"/>
       <path id="ArialMT-5d" d="M 1363 -1272 
L 122 -1272 
L 122 -806 
L 800 -806 
L 800 4116 
L 122 4116 
L 122 4581 
L 1363 4581 
L 1363 -1272 
z
" transform="scale(0.015625)"/>
      </defs>
      <use xlink:href="#ArialMT-73"/>
      <use xlink:href="#ArialMT-65" x="50"/>
      <use xlink:href="#ArialMT-71" x="105.615234"/>
      <use xlink:href="#ArialMT-75" x="161.230469"/>
      <use xlink:href="#ArialMT-65" x="216.845703"/>
      <use xlink:href="#ArialMT-6e" x="272.460938"/>
      <use xlink:href="#ArialMT-63" x="328.076172"/>
      <use xlink:href="#ArialMT-65" x="378.076172"/>
      <use xlink:href="#ArialMT-20" x="433.691406"/>
      <use xlink:href="#ArialMT-72" x="461.474609"/>
      <use xlink:href="#ArialMT-65" x="494.775391"/>
      <use xlink:href="#ArialMT-63" x="550.390625"/>
      <use xlink:href="#ArialMT-6f" x="600.390625"/>
      <use xlink:href="#ArialMT-76" x="656.005859"/>
      <use xlink:href="#ArialMT-65" x="706.005859"/>
      <use xlink:href="#ArialMT-72" x="761.621094"/>
      <use xlink:href="#ArialMT-79" x="794.921875"/>
      <use xlink:href="#ArialMT-20" x="844.921875"/>
      <use xlink:href="#ArialMT-5b" x="872.705078"/>
      <use xlink:href="#ArialMT-25" x="900.488281"/>
      <use xlink:href="#ArialMT-5d" x="989.404297"/>
     </g>
    </g>
   </g>
   <g id="matplotlib.axis_2">
    <g id="ytick_1">
     <g id="line2d_7">
      <defs>
       <path id="md8b84bf04d" d="M 0 0 
L -3.5 0 
" style="stroke: #000000; stroke-width: 0.8"/>
      </defs>
      <g>
       <use xlink:href="#md8b84bf04d" x="153.61" y="24.616364" style="stroke: #000000; stroke-width: 0.8"/>
      </g>
     </g>
     <g id="text_8">
      <!-- monomers -->
      <g transform="translate(89.930625 28.911051) scale(0.12 -0.12)">
       <defs>
        <path id="ArialMT-6d" d="M 422 0 
L 422 3319 
L 925 3319 
L 925 2853 
Q 1081 3097 1340 3245 
Q 1600 3394 1931 3394 
Q 2300 3394 2536 3241 
Q 2772 3088 2869 2813 
Q 3263 3394 3894 3394 
Q 4388 3394 4653 3120 
Q 4919 2847 4919 2278 
L 4919 0 
L 4359 0 
L 4359 2091 
Q 4359 2428 4304 2576 
Q 4250 2725 4106 2815 
Q 3963 2906 3769 2906 
Q 3419 2906 3187 2673 
Q 2956 2441 2956 1928 
L 2956 0 
L 2394 0 
L 2394 2156 
Q 2394 2531 2256 2718 
Q 2119 2906 1806 2906 
Q 1569 2906 1367 2781 
Q 1166 2656 1075 2415 
Q 984 2175 984 1722 
L 984 0 
L 422 0 
z
" transform="scale(0.015625)"/>
       </defs>
       <use xlink:href="#ArialMT-6d"/>
       <use xlink:href="#ArialMT-6f" x="83.300781"/>
       <use xlink:href="#ArialMT-6e" x="138.916016"/>
       <use xlink:href="#ArialMT-6f" x="194.53125"/>
       <use xlink:href="#ArialMT-6d" x="250.146484"/>
       <use xlink:href="#ArialMT-65" x="333.447266"/>
       <use xlink:href="#ArialMT-72" x="389.0625"/>
       <use xlink:href="#ArialMT-73" x="422.363281"/>
      </g>
     </g>
    </g>
    <g id="ytick_2">
     <g id="line2d_8">
      <g>
       <use xlink:href="#md8b84bf04d" x="153.61" y="55.7" style="stroke: #000000; stroke-width: 0.8"/>
      </g>
     </g>
     <g id="text_9">
      <!-- multimers -->
      <g transform="translate(94.610625 59.994687) scale(0.12 -0.12)">
       <defs>
        <path id="ArialMT-6c" d="M 409 0 
L 409 4581 
L 972 4581 
L 972 0 
L 409 0 
z
" transform="scale(0.015625)"/>
        <path id="ArialMT-74" d="M 1650 503 
L 1731 6 
Q 1494 -44 1306 -44 
Q 1000 -44 831 53 
Q 663 150 594 308 
Q 525 466 525 972 
L 525 2881 
L 113 2881 
L 113 3319 
L 525 3319 
L 525 4141 
L 1084 4478 
L 1084 3319 
L 1650 3319 
L 1650 2881 
L 1084 2881 
L 1084 941 
Q 1084 700 1114 631 
Q 1144 563 1211 522 
Q 1278 481 1403 481 
Q 1497 481 1650 503 
z
" transform="scale(0.015625)"/>
        <path id="ArialMT-69" d="M 425 3934 
L 425 4581 
L 988 4581 
L 988 3934 
L 425 3934 
z
M 425 0 
L 425 3319 
L 988 3319 
L 988 0 
L 425 0 
z
" transform="scale(0.015625)"/>
       </defs>
       <use xlink:href="#ArialMT-6d"/>
       <use xlink:href="#ArialMT-75" x="83.300781"/>
       <use xlink:href="#ArialMT-6c" x="138.916016"/>
       <use xlink:href="#ArialMT-74" x="161.132812"/>
       <use xlink:href="#ArialMT-69" x="188.916016"/>
       <use xlink:href="#ArialMT-6d" x="211.132812"/>
       <use xlink:href="#ArialMT-65" x="294.433594"/>
       <use xlink:href="#ArialMT-72" x="350.048828"/>
       <use xlink:href="#ArialMT-73" x="383.349609"/>
      </g>
     </g>
    </g>
    <g id="ytick_3">
     <g id="line2d_9">
      <g>
       <use xlink:href="#md8b84bf04d" x="153.61" y="86.783636" style="stroke: #000000; stroke-width: 0.8"/>
      </g>
     </g>
     <g id="text_10">
      <!-- multimers, ligands &amp; ions -->
      <g transform="translate(13.23375 91.151449) scale(0.12 -0.12)">
       <defs>
        <path id="ArialMT-2c" d="M 569 0 
L 569 641 
L 1209 641 
L 1209 0 
Q 1209 -353 1084 -570 
Q 959 -788 688 -906 
L 531 -666 
Q 709 -588 793 -436 
Q 878 -284 888 0 
L 569 0 
z
" transform="scale(0.015625)"/>
        <path id="ArialMT-67" d="M 319 -275 
L 866 -356 
Q 900 -609 1056 -725 
Q 1266 -881 1628 -881 
Q 2019 -881 2231 -725 
Q 2444 -569 2519 -288 
Q 2563 -116 2559 434 
Q 2191 0 1641 0 
Q 956 0 581 494 
Q 206 988 206 1678 
Q 206 2153 378 2554 
Q 550 2956 876 3175 
Q 1203 3394 1644 3394 
Q 2231 3394 2613 2919 
L 2613 3319 
L 3131 3319 
L 3131 450 
Q 3131 -325 2973 -648 
Q 2816 -972 2473 -1159 
Q 2131 -1347 1631 -1347 
Q 1038 -1347 672 -1080 
Q 306 -813 319 -275 
z
M 784 1719 
Q 784 1066 1043 766 
Q 1303 466 1694 466 
Q 2081 466 2343 764 
Q 2606 1063 2606 1700 
Q 2606 2309 2336 2618 
Q 2066 2928 1684 2928 
Q 1309 2928 1046 2623 
Q 784 2319 784 1719 
z
" transform="scale(0.015625)"/>
        <path id="ArialMT-61" d="M 2588 409 
Q 2275 144 1986 34 
Q 1697 -75 1366 -75 
Q 819 -75 525 192 
Q 231 459 231 875 
Q 231 1119 342 1320 
Q 453 1522 633 1644 
Q 813 1766 1038 1828 
Q 1203 1872 1538 1913 
Q 2219 1994 2541 2106 
Q 2544 2222 2544 2253 
Q 2544 2597 2384 2738 
Q 2169 2928 1744 2928 
Q 1347 2928 1158 2789 
Q 969 2650 878 2297 
L 328 2372 
Q 403 2725 575 2942 
Q 747 3159 1072 3276 
Q 1397 3394 1825 3394 
Q 2250 3394 2515 3294 
Q 2781 3194 2906 3042 
Q 3031 2891 3081 2659 
Q 3109 2516 3109 2141 
L 3109 1391 
Q 3109 606 3145 398 
Q 3181 191 3288 0 
L 2700 0 
Q 2613 175 2588 409 
z
M 2541 1666 
Q 2234 1541 1622 1453 
Q 1275 1403 1131 1340 
Q 988 1278 909 1158 
Q 831 1038 831 891 
Q 831 666 1001 516 
Q 1172 366 1500 366 
Q 1825 366 2078 508 
Q 2331 650 2450 897 
Q 2541 1088 2541 1459 
L 2541 1666 
z
" transform="scale(0.015625)"/>
        <path id="ArialMT-64" d="M 2575 0 
L 2575 419 
Q 2259 -75 1647 -75 
Q 1250 -75 917 144 
Q 584 363 401 755 
Q 219 1147 219 1656 
Q 219 2153 384 2558 
Q 550 2963 881 3178 
Q 1213 3394 1622 3394 
Q 1922 3394 2156 3267 
Q 2391 3141 2538 2938 
L 2538 4581 
L 3097 4581 
L 3097 0 
L 2575 0 
z
M 797 1656 
Q 797 1019 1065 703 
Q 1334 388 1700 388 
Q 2069 388 2326 689 
Q 2584 991 2584 1609 
Q 2584 2291 2321 2609 
Q 2059 2928 1675 2928 
Q 1300 2928 1048 2622 
Q 797 2316 797 1656 
z
" transform="scale(0.015625)"/>
        <path id="ArialMT-26" d="M 3041 541 
Q 2763 231 2434 76 
Q 2106 -78 1725 -78 
Q 1022 -78 609 397 
Q 275 784 275 1263 
Q 275 1688 548 2030 
Q 822 2372 1366 2631 
Q 1056 2988 953 3209 
Q 850 3431 850 3638 
Q 850 4050 1173 4354 
Q 1497 4659 1988 4659 
Q 2456 4659 2754 4371 
Q 3053 4084 3053 3681 
Q 3053 3028 2188 2566 
L 3009 1519 
Q 3150 1794 3228 2156 
L 3813 2031 
Q 3663 1431 3406 1044 
Q 3722 625 4122 341 
L 3744 -106 
Q 3403 113 3041 541 
z
M 1897 2928 
Q 2263 3144 2370 3306 
Q 2478 3469 2478 3666 
Q 2478 3900 2329 4048 
Q 2181 4197 1959 4197 
Q 1731 4197 1579 4050 
Q 1428 3903 1428 3691 
Q 1428 3584 1483 3467 
Q 1538 3350 1647 3219 
L 1897 2928 
z
M 2688 984 
L 1656 2263 
Q 1200 1991 1040 1758 
Q 881 1525 881 1297 
Q 881 1019 1103 719 
Q 1325 419 1731 419 
Q 1984 419 2254 576 
Q 2525 734 2688 984 
z
" transform="scale(0.015625)"/>
       </defs>
       <use xlink:href="#ArialMT-6d"/>
       <use xlink:href="#ArialMT-75" x="83.300781"/>
       <use xlink:href="#ArialMT-6c" x="138.916016"/>
       <use xlink:href="#ArialMT-74" x="161.132812"/>
       <use xlink:href="#ArialMT-69" x="188.916016"/>
       <use xlink:href="#ArialMT-6d" x="211.132812"/>
       <use xlink:href="#ArialMT-65" x="294.433594"/>
       <use xlink:href="#ArialMT-72" x="350.048828"/>
       <use xlink:href="#ArialMT-73" x="383.349609"/>
       <use xlink:href="#ArialMT-2c" x="433.349609"/>
       <use xlink:href="#ArialMT-20" x="461.132812"/>
       <use xlink:href="#ArialMT-6c" x="488.916016"/>
       <use xlink:href="#ArialMT-69" x="511.132812"/>
       <use xlink:href="#ArialMT-67" x="533.349609"/>
       <use xlink:href="#ArialMT-61" x="588.964844"/>
       <use xlink:href="#ArialMT-6e" x="644.580078"/>
       <use xlink:href="#ArialMT-64" x="700.195312"/>
       <use xlink:href="#ArialMT-73" x="755.810547"/>
       <use xlink:href="#ArialMT-20" x="805.810547"/>
       <use xlink:href="#ArialMT-26" x="833.59375"/>
       <use xlink:href="#ArialMT-20" x="900.292969"/>
       <use xlink:href="#ArialMT-69" x="928.076172"/>
       <use xlink:href="#ArialMT-6f" x="950.292969"/>
       <use xlink:href="#ArialMT-6e" x="1005.908203"/>
       <use xlink:href="#ArialMT-73" x="1061.523438"/>
      </g>
     </g>
    </g>
   </g>
   <g id="LineCollection_1">
    <path d="M 251.881425 28.501818 
L 251.881425 20.730909 
" clip-path="url(#pcfac56eb46)" style="fill: none; stroke: #0d3b66; stroke-width: 1.5"/>
    <path d="M 257.130233 59.585455 
L 257.130233 51.814545 
" clip-path="url(#pcfac56eb46)" style="fill: none; stroke: #0d3b66; stroke-width: 1.5"/>
    <path d="M 259.988446 90.669091 
L 259.988446 82.898182 
" clip-path="url(#pcfac56eb46)" style="fill: none; stroke: #0d3b66; stroke-width: 1.5"/>
   </g>
   <g id="patch_3">
    <path d="M 153.61 98.44 
L 153.61 12.96 
" style="fill: none; stroke: #000000; stroke-width: 0.8; stroke-linejoin: miter; stroke-linecap: square"/>
   </g>
   <g id="patch_4">
    <path d="M 337.05 98.44 
L 337.05 12.96 
" style="fill: none; stroke: #000000; stroke-width: 0.8; stroke-linejoin: miter; stroke-linecap: square"/>
   </g>
   <g id="patch_5">
    <path d="M 153.61 98.44 
L 337.05 98.44 
" style="fill: none; stroke: #000000; stroke-width: 0.8; stroke-linejoin: miter; stroke-linecap: square"/>
   </g>
   <g id="patch_6">
    <path d="M 153.61 12.96 
L 337.05 12.96 
" style="fill: none; stroke: #000000; stroke-width: 0.8; stroke-linejoin: miter; stroke-linecap: square"/>
   </g>
   <g id="text_11">
    <!-- 53.6 -->
    <g transform="translate(253.715825 28.19527) scale(0.1 -0.1)">
     <defs>
      <path id="ArialMT-35" d="M 266 1200 
L 856 1250 
Q 922 819 1161 601 
Q 1400 384 1738 384 
Q 2144 384 2425 690 
Q 2706 997 2706 1503 
Q 2706 1984 2436 2262 
Q 2166 2541 1728 2541 
Q 1456 2541 1237 2417 
Q 1019 2294 894 2097 
L 366 2166 
L 809 4519 
L 3088 4519 
L 3088 3981 
L 1259 3981 
L 1013 2750 
Q 1425 3038 1878 3038 
Q 2478 3038 2890 2622 
Q 3303 2206 3303 1553 
Q 3303 931 2941 478 
Q 2500 -78 1738 -78 
Q 1113 -78 717 272 
Q 322 622 266 1200 
z
" transform="scale(0.015625)"/>
      <path id="ArialMT-33" d="M 269 1209 
L 831 1284 
Q 928 806 1161 595 
Q 1394 384 1728 384 
Q 2125 384 2398 659 
Q 2672 934 2672 1341 
Q 2672 1728 2419 1979 
Q 2166 2231 1775 2231 
Q 1616 2231 1378 2169 
L 1441 2663 
Q 1497 2656 1531 2656 
Q 1891 2656 2178 2843 
Q 2466 3031 2466 3422 
Q 2466 3731 2256 3934 
Q 2047 4138 1716 4138 
Q 1388 4138 1169 3931 
Q 950 3725 888 3313 
L 325 3413 
Q 428 3978 793 4289 
Q 1159 4600 1703 4600 
Q 2078 4600 2393 4439 
Q 2709 4278 2876 4000 
Q 3044 3722 3044 3409 
Q 3044 3113 2884 2869 
Q 2725 2625 2413 2481 
Q 2819 2388 3044 2092 
Q 3269 1797 3269 1353 
Q 3269 753 2831 336 
Q 2394 -81 1725 -81 
Q 1122 -81 723 278 
Q 325 638 269 1209 
z
" transform="scale(0.015625)"/>
      <path id="ArialMT-2e" d="M 581 0 
L 581 641 
L 1222 641 
L 1222 0 
L 581 0 
z
" transform="scale(0.015625)"/>
     </defs>
     <use xlink:href="#ArialMT-35"/>
     <use xlink:href="#ArialMT-33" x="55.615234"/>
     <use xlink:href="#ArialMT-2e" x="111.230469"/>
     <use xlink:href="#ArialMT-36" x="139.013672"/>
    </g>
   </g>
   <g id="text_12">
    <!-- 56.4 -->
    <g transform="translate(258.964633 59.278906) scale(0.1 -0.1)">
     <use xlink:href="#ArialMT-35"/>
     <use xlink:href="#ArialMT-36" x="55.615234"/>
     <use xlink:href="#ArialMT-2e" x="111.230469"/>
     <use xlink:href="#ArialMT-34" x="139.013672"/>
    </g>
   </g>
   <g id="text_13">
    <!-- 58.0 -->
    <g transform="translate(261.822846 90.362543) scale(0.1 -0.1)">
     <use xlink:href="#ArialMT-35"/>
     <use xlink:href="#ArialMT-38" x="55.615234"/>
     <use xlink:href="#ArialMT-2e" x="111.230469"/>
     <use xlink:href="#ArialMT-30" x="139.013672"/>
    </g>
   </g>
  </g>
 </g>
 <defs>
  <clipPath id="pcfac56eb46">
   <rect x="153.61" y="12.96" width="183.44" height="85.48"/>
  </clipPath>
 </defs>
</svg>
