<?xml version="1.0" encoding="utf-8" standalone="no"?>
<!DOCTYPE svg PUBLIC "-//W3C//DTD SVG 1.1//EN"
  "http://www.w3.org/Graphics/SVG/1.1/DTD/svg11.dtd">
<svg xmlns:xlink="http://www.w3.org/1999/xlink" width="216pt" height="216pt" viewBox="0 0 216 216" xmlns="http://www.w3.org/2000/svg" version="1.1">
 <metadata>
  <rdf:RDF xmlns:dc="http://purl.org/dc/elements/1.1/" xmlns:cc="http://creativecommons.org/ns#" xmlns:rdf="http://www.w3.org/1999/02/22-rdf-syntax-ns#">
   <cc:Work>
    <dc:type rdf:resource="http://purl.org/dc/dcmitype/StillImage"/>
    <dc:date>2023-05-15T10:48:26.123722</dc:date>
    <dc:format>image/svg+xml</dc:format>
    <dc:creator>
     <cc:Agent>
      <dc:title>Matplotlib v3.7.1, https://matplotlib.org/</dc:title>
     </cc:Agent>
    </dc:creator>
   </cc:Work>
  </rdf:RDF>
 </metadata>
 <defs>
  <style type="text/css">*{stroke-linejoin: round; stroke-linecap: butt}</style>
 </defs>
 <g id="figure_1">
  <g id="patch_1">
   <path d="M 0 216 
L 216 216 
L 216 0 
L 0 0 
z
" style="fill: #ffffff"/>
  </g>
  <g id="axes_1">
   <g id="patch_2">
    <path d="M 48.13625 170.38375 
L 203.04 170.38375 
L 203.04 12.96 
L 48.13625 12.96 
z
" style="fill: #ffffff"/>
   </g>
   <g id="matplotlib.axis_1">
    <g id="xtick_1">
     <g id="line2d_1">
      <defs>
       <path id="mec28064c0c" d="M 0 0 
L 0 3.5 
" style="stroke: #000000; stroke-width: 0.8"/>
      </defs>
      <g>
       <use xlink:href="#mec28064c0c" x="67.499219" y="170.38375" style="stroke: #000000; stroke-width: 0.8"/>
      </g>
     </g>
     <g id="text_1">
      <!-- 20 -->
      <g transform="translate(60.826094 185.973125) scale(0.12 -0.12)">
       <defs>
        <path id="ArialMT-32" d="M 3222 541 
L 3222 0 
L 194 0 
Q 188 203 259 391 
Q 375 700 629 1000 
Q 884 1300 1366 1694 
Q 2113 2306 2375 2664 
Q 2638 3022 2638 3341 
Q 2638 3675 2398 3904 
Q 2159 4134 1775 4134 
Q 1369 4134 1125 3890 
Q 881 3647 878 3216 
L 300 3275 
Q 359 3922 746 4261 
Q 1134 4600 1788 4600 
Q 2447 4600 2831 4234 
Q 3216 3869 3216 3328 
Q 3216 3053 3103 2787 
Q 2991 2522 2730 2228 
Q 2469 1934 1863 1422 
Q 1356 997 1212 845 
Q 1069 694 975 541 
L 3222 541 
z
" transform="scale(0.015625)"/>
        <path id="ArialMT-30" d="M 266 2259 
Q 266 3072 433 3567 
Q 600 4063 929 4331 
Q 1259 4600 1759 4600 
Q 2128 4600 2406 4451 
Q 2684 4303 2865 4023 
Q 3047 3744 3150 3342 
Q 3253 2941 3253 2259 
Q 3253 1453 3087 958 
Q 2922 463 2592 192 
Q 2263 -78 1759 -78 
Q 1097 -78 719 397 
Q 266 969 266 2259 
z
M 844 2259 
Q 844 1131 1108 757 
Q 1372 384 1759 384 
Q 2147 384 2411 759 
Q 2675 1134 2675 2259 
Q 2675 3391 2411 3762 
Q 2147 4134 1753 4134 
Q 1366 4134 1134 3806 
Q 844 3388 844 2259 
z
" transform="scale(0.015625)"/>
       </defs>
       <use xlink:href="#ArialMT-32"/>
       <use xlink:href="#ArialMT-30" x="55.615234"/>
      </g>
     </g>
    </g>
    <g id="xtick_2">
     <g id="line2d_2">
      <g>
       <use xlink:href="#mec28064c0c" x="106.225156" y="170.38375" style="stroke: #000000; stroke-width: 0.8"/>
      </g>
     </g>
     <g id="text_2">
      <!-- 40 -->
      <g transform="translate(99.552031 185.973125) scale(0.12 -0.12)">
       <defs>
        <path id="ArialMT-34" d="M 2069 0 
L 2069 1097 
L 81 1097 
L 81 1613 
L 2172 4581 
L 2631 4581 
L 2631 1613 
L 3250 1613 
L 3250 1097 
L 2631 1097 
L 2631 0 
L 2069 0 
z
M 2069 1613 
L 2069 3678 
L 634 1613 
L 2069 1613 
z
" transform="scale(0.015625)"/>
       </defs>
       <use xlink:href="#ArialMT-34"/>
       <use xlink:href="#ArialMT-30" x="55.615234"/>
      </g>
     </g>
    </g>
    <g id="xtick_3">
     <g id="line2d_3">
      <g>
       <use xlink:href="#mec28064c0c" x="144.951094" y="170.38375" style="stroke: #000000; stroke-width: 0.8"/>
      </g>
     </g>
     <g id="text_3">
      <!-- 60 -->
      <g transform="translate(138.277969 185.973125) scale(0.12 -0.12)">
       <defs>
        <path id="ArialMT-36" d="M 3184 3459 
L 2625 3416 
Q 2550 3747 2413 3897 
Q 2184 4138 1850 4138 
Q 1581 4138 1378 3988 
Q 1113 3794 959 3422 
Q 806 3050 800 2363 
Q 1003 2672 1297 2822 
Q 1591 2972 1913 2972 
Q 2475 2972 2870 2558 
Q 3266 2144 3266 1488 
Q 3266 1056 3080 686 
Q 2894 316 2569 119 
Q 2244 -78 1831 -78 
Q 1128 -78 684 439 
Q 241 956 241 2144 
Q 241 3472 731 4075 
Q 1159 4600 1884 4600 
Q 2425 4600 2770 4297 
Q 3116 3994 3184 3459 
z
M 888 1484 
Q 888 1194 1011 928 
Q 1134 663 1356 523 
Q 1578 384 1822 384 
Q 2178 384 2434 671 
Q 2691 959 2691 1453 
Q 2691 1928 2437 2201 
Q 2184 2475 1800 2475 
Q 1419 2475 1153 2201 
Q 888 1928 888 1484 
z
" transform="scale(0.015625)"/>
       </defs>
       <use xlink:href="#ArialMT-36"/>
       <use xlink:href="#ArialMT-30" x="55.615234"/>
      </g>
     </g>
    </g>
    <g id="xtick_4">
     <g id="line2d_4">
      <g>
       <use xlink:href="#mec28064c0c" x="183.677031" y="170.38375" style="stroke: #000000; stroke-width: 0.8"/>
      </g>
     </g>
     <g id="text_4">
      <!-- 80 -->
      <g transform="translate(177.003906 185.973125) scale(0.12 -0.12)">
       <defs>
        <path id="ArialMT-38" d="M 1131 2484 
Q 781 2613 612 2850 
Q 444 3088 444 3419 
Q 444 3919 803 4259 
Q 1163 4600 1759 4600 
Q 2359 4600 2725 4251 
Q 3091 3903 3091 3403 
Q 3091 3084 2923 2848 
Q 2756 2613 2416 2484 
Q 2838 2347 3058 2040 
Q 3278 1734 3278 1309 
Q 3278 722 2862 322 
Q 2447 -78 1769 -78 
Q 1091 -78 675 323 
Q 259 725 259 1325 
Q 259 1772 486 2073 
Q 713 2375 1131 2484 
z
M 1019 3438 
Q 1019 3113 1228 2906 
Q 1438 2700 1772 2700 
Q 2097 2700 2305 2904 
Q 2513 3109 2513 3406 
Q 2513 3716 2298 3927 
Q 2084 4138 1766 4138 
Q 1444 4138 1231 3931 
Q 1019 3725 1019 3438 
z
M 838 1322 
Q 838 1081 952 856 
Q 1066 631 1291 507 
Q 1516 384 1775 384 
Q 2178 384 2440 643 
Q 2703 903 2703 1303 
Q 2703 1709 2433 1975 
Q 2163 2241 1756 2241 
Q 1359 2241 1098 1978 
Q 838 1716 838 1322 
z
" transform="scale(0.015625)"/>
       </defs>
       <use xlink:href="#ArialMT-38"/>
       <use xlink:href="#ArialMT-30" x="55.615234"/>
      </g>
     </g>
    </g>
    <g id="text_5">
     <!-- reference recovery rate [%] -->
     <g transform="translate(53.23 201.09375) scale(0.12 -0.12)">
      <defs>
       <path id="ArialMT-72" d="M 416 0 
L 416 3319 
L 922 3319 
L 922 2816 
Q 1116 3169 1280 3281 
Q 1444 3394 1641 3394 
Q 1925 3394 2219 3213 
L 2025 2691 
Q 1819 2813 1613 2813 
Q 1428 2813 1281 2702 
Q 1134 2591 1072 2394 
Q 978 2094 978 1738 
L 978 0 
L 416 0 
z
" transform="scale(0.015625)"/>
       <path id="ArialMT-65" d="M 2694 1069 
L 3275 997 
Q 3138 488 2766 206 
Q 2394 -75 1816 -75 
Q 1088 -75 661 373 
Q 234 822 234 1631 
Q 234 2469 665 2931 
Q 1097 3394 1784 3394 
Q 2450 3394 2872 2941 
Q 3294 2488 3294 1666 
Q 3294 1616 3291 1516 
L 816 1516 
Q 847 969 1125 678 
Q 1403 388 1819 388 
Q 2128 388 2347 550 
Q 2566 713 2694 1069 
z
M 847 1978 
L 2700 1978 
Q 2663 2397 2488 2606 
Q 2219 2931 1791 2931 
Q 1403 2931 1139 2672 
Q 875 2413 847 1978 
z
" transform="scale(0.015625)"/>
       <path id="ArialMT-66" d="M 556 0 
L 556 2881 
L 59 2881 
L 59 3319 
L 556 3319 
L 556 3672 
Q 556 4006 616 4169 
Q 697 4388 901 4523 
Q 1106 4659 1475 4659 
Q 1713 4659 2000 4603 
L 1916 4113 
Q 1741 4144 1584 4144 
Q 1328 4144 1222 4034 
Q 1116 3925 1116 3625 
L 1116 3319 
L 1763 3319 
L 1763 2881 
L 1116 2881 
L 1116 0 
L 556 0 
z
" transform="scale(0.015625)"/>
       <path id="ArialMT-6e" d="M 422 0 
L 422 3319 
L 928 3319 
L 928 2847 
Q 1294 3394 1984 3394 
Q 2284 3394 2536 3286 
Q 2788 3178 2913 3003 
Q 3038 2828 3088 2588 
Q 3119 2431 3119 2041 
L 3119 0 
L 2556 0 
L 2556 2019 
Q 2556 2363 2490 2533 
Q 2425 2703 2258 2804 
Q 2091 2906 1866 2906 
Q 1506 2906 1245 2678 
Q 984 2450 984 1813 
L 984 0 
L 422 0 
z
" transform="scale(0.015625)"/>
       <path id="ArialMT-63" d="M 2588 1216 
L 3141 1144 
Q 3050 572 2676 248 
Q 2303 -75 1759 -75 
Q 1078 -75 664 370 
Q 250 816 250 1647 
Q 250 2184 428 2587 
Q 606 2991 970 3192 
Q 1334 3394 1763 3394 
Q 2303 3394 2647 3120 
Q 2991 2847 3088 2344 
L 2541 2259 
Q 2463 2594 2264 2762 
Q 2066 2931 1784 2931 
Q 1359 2931 1093 2626 
Q 828 2322 828 1663 
Q 828 994 1084 691 
Q 1341 388 1753 388 
Q 2084 388 2306 591 
Q 2528 794 2588 1216 
z
" transform="scale(0.015625)"/>
       <path id="ArialMT-20" transform="scale(0.015625)"/>
       <path id="ArialMT-6f" d="M 213 1659 
Q 213 2581 725 3025 
Q 1153 3394 1769 3394 
Q 2453 3394 2887 2945 
Q 3322 2497 3322 1706 
Q 3322 1066 3130 698 
Q 2938 331 2570 128 
Q 2203 -75 1769 -75 
Q 1072 -75 642 372 
Q 213 819 213 1659 
z
M 791 1659 
Q 791 1022 1069 705 
Q 1347 388 1769 388 
Q 2188 388 2466 706 
Q 2744 1025 2744 1678 
Q 2744 2294 2464 2611 
Q 2184 2928 1769 2928 
Q 1347 2928 1069 2612 
Q 791 2297 791 1659 
z
" transform="scale(0.015625)"/>
       <path id="ArialMT-76" d="M 1344 0 
L 81 3319 
L 675 3319 
L 1388 1331 
Q 1503 1009 1600 663 
Q 1675 925 1809 1294 
L 2547 3319 
L 3125 3319 
L 1869 0 
L 1344 0 
z
" transform="scale(0.015625)"/>
       <path id="ArialMT-79" d="M 397 -1278 
L 334 -750 
Q 519 -800 656 -800 
Q 844 -800 956 -737 
Q 1069 -675 1141 -563 
Q 1194 -478 1313 -144 
Q 1328 -97 1363 -6 
L 103 3319 
L 709 3319 
L 1400 1397 
Q 1534 1031 1641 628 
Q 1738 1016 1872 1384 
L 2581 3319 
L 3144 3319 
L 1881 -56 
Q 1678 -603 1566 -809 
Q 1416 -1088 1222 -1217 
Q 1028 -1347 759 -1347 
Q 597 -1347 397 -1278 
z
" transform="scale(0.015625)"/>
       <path id="ArialMT-61" d="M 2588 409 
Q 2275 144 1986 34 
Q 1697 -75 1366 -75 
Q 819 -75 525 192 
Q 231 459 231 875 
Q 231 1119 342 1320 
Q 453 1522 633 1644 
Q 813 1766 1038 1828 
Q 1203 1872 1538 1913 
Q 2219 1994 2541 2106 
Q 2544 2222 2544 2253 
Q 2544 2597 2384 2738 
Q 2169 2928 1744 2928 
Q 1347 2928 1158 2789 
Q 969 2650 878 2297 
L 328 2372 
Q 403 2725 575 2942 
Q 747 3159 1072 3276 
Q 1397 3394 1825 3394 
Q 2250 3394 2515 3294 
Q 2781 3194 2906 3042 
Q 3031 2891 3081 2659 
Q 3109 2516 3109 2141 
L 3109 1391 
Q 3109 606 3145 398 
Q 3181 191 3288 0 
L 2700 0 
Q 2613 175 2588 409 
z
M 2541 1666 
Q 2234 1541 1622 1453 
Q 1275 1403 1131 1340 
Q 988 1278 909 1158 
Q 831 1038 831 891 
Q 831 666 1001 516 
Q 1172 366 1500 366 
Q 1825 366 2078 508 
Q 2331 650 2450 897 
Q 2541 1088 2541 1459 
L 2541 1666 
z
" transform="scale(0.015625)"/>
       <path id="ArialMT-74" d="M 1650 503 
L 1731 6 
Q 1494 -44 1306 -44 
Q 1000 -44 831 53 
Q 663 150 594 308 
Q 525 466 525 972 
L 525 2881 
L 113 2881 
L 113 3319 
L 525 3319 
L 525 4141 
L 1084 4478 
L 1084 3319 
L 1650 3319 
L 1650 2881 
L 1084 2881 
L 1084 941 
Q 1084 700 1114 631 
Q 1144 563 1211 522 
Q 1278 481 1403 481 
Q 1497 481 1650 503 
z
" transform="scale(0.015625)"/>
       <path id="ArialMT-5b" d="M 434 -1272 
L 434 4581 
L 1675 4581 
L 1675 4116 
L 997 4116 
L 997 -806 
L 1675 -806 
L 1675 -1272 
L 434 -1272 
z
" transform="scale(0.015625)"/>
       <path id="ArialMT-25" d="M 372 3481 
Q 372 3972 619 4315 
Q 866 4659 1334 4659 
Q 1766 4659 2048 4351 
Q 2331 4044 2331 3447 
Q 2331 2866 2045 2552 
Q 1759 2238 1341 2238 
Q 925 2238 648 2547 
Q 372 2856 372 3481 
z
M 1350 4272 
Q 1141 4272 1002 4090 
Q 863 3909 863 3425 
Q 863 2984 1003 2804 
Q 1144 2625 1350 2625 
Q 1563 2625 1702 2806 
Q 1841 2988 1841 3469 
Q 1841 3913 1700 4092 
Q 1559 4272 1350 4272 
z
M 1353 -169 
L 3859 4659 
L 4316 4659 
L 1819 -169 
L 1353 -169 
z
M 3334 1075 
Q 3334 1569 3581 1911 
Q 3828 2253 4300 2253 
Q 4731 2253 5014 1945 
Q 5297 1638 5297 1041 
Q 5297 459 5011 145 
Q 4725 -169 4303 -169 
Q 3888 -169 3611 142 
Q 3334 453 3334 1075 
z
M 4316 1866 
Q 4103 1866 3964 1684 
Q 3825 1503 3825 1019 
Q 3825 581 3965 400 
Q 4106 219 4313 219 
Q 4528 219 4667 400 
Q 4806 581 4806 1063 
Q 4806 1506 4665 1686 
Q 4525 1866 4316 1866 
z
" transform="scale(0.015625)"/>
       <path id="ArialMT-5d" d="M 1363 -1272 
L 122 -1272 
L 122 -806 
L 800 -806 
L 800 4116 
L 122 4116 
L 122 4581 
L 1363 4581 
L 1363 -1272 
z
" transform="scale(0.015625)"/>
      </defs>
      <use xlink:href="#ArialMT-72"/>
      <use xlink:href="#ArialMT-65" x="33.300781"/>
      <use xlink:href="#ArialMT-66" x="88.916016"/>
      <use xlink:href="#ArialMT-65" x="116.699219"/>
      <use xlink:href="#ArialMT-72" x="172.314453"/>
      <use xlink:href="#ArialMT-65" x="205.615234"/>
      <use xlink:href="#ArialMT-6e" x="261.230469"/>
      <use xlink:href="#ArialMT-63" x="316.845703"/>
      <use xlink:href="#ArialMT-65" x="366.845703"/>
      <use xlink:href="#ArialMT-20" x="422.460938"/>
      <use xlink:href="#ArialMT-72" x="450.244141"/>
      <use xlink:href="#ArialMT-65" x="483.544922"/>
      <use xlink:href="#ArialMT-63" x="539.160156"/>
      <use xlink:href="#ArialMT-6f" x="589.160156"/>
      <use xlink:href="#ArialMT-76" x="644.775391"/>
      <use xlink:href="#ArialMT-65" x="694.775391"/>
      <use xlink:href="#ArialMT-72" x="750.390625"/>
      <use xlink:href="#ArialMT-79" x="783.691406"/>
      <use xlink:href="#ArialMT-20" x="833.691406"/>
      <use xlink:href="#ArialMT-72" x="861.474609"/>
      <use xlink:href="#ArialMT-61" x="894.775391"/>
      <use xlink:href="#ArialMT-74" x="950.390625"/>
      <use xlink:href="#ArialMT-65" x="978.173828"/>
      <use xlink:href="#ArialMT-20" x="1033.789062"/>
      <use xlink:href="#ArialMT-5b" x="1061.572266"/>
      <use xlink:href="#ArialMT-25" x="1089.355469"/>
      <use xlink:href="#ArialMT-5d" x="1178.271484"/>
     </g>
    </g>
   </g>
   <g id="matplotlib.axis_2">
    <g id="ytick_1">
     <g id="line2d_5">
      <defs>
       <path id="mf9a91d7d21" d="M 0 0 
L -3.5 0 
" style="stroke: #000000; stroke-width: 0.8"/>
      </defs>
      <g>
       <use xlink:href="#mf9a91d7d21" x="48.13625" y="150.705781" style="stroke: #000000; stroke-width: 0.8"/>
      </g>
     </g>
     <g id="text_6">
      <!-- 20 -->
      <g transform="translate(27.79 155.000469) scale(0.12 -0.12)">
       <use xlink:href="#ArialMT-32"/>
       <use xlink:href="#ArialMT-30" x="55.615234"/>
      </g>
     </g>
    </g>
    <g id="ytick_2">
     <g id="line2d_6">
      <g>
       <use xlink:href="#mf9a91d7d21" x="48.13625" y="111.349844" style="stroke: #000000; stroke-width: 0.8"/>
      </g>
     </g>
     <g id="text_7">
      <!-- 40 -->
      <g transform="translate(27.79 115.644531) scale(0.12 -0.12)">
       <use xlink:href="#ArialMT-34"/>
       <use xlink:href="#ArialMT-30" x="55.615234"/>
      </g>
     </g>
    </g>
    <g id="ytick_3">
     <g id="line2d_7">
      <g>
       <use xlink:href="#mf9a91d7d21" x="48.13625" y="71.993906" style="stroke: #000000; stroke-width: 0.8"/>
      </g>
     </g>
     <g id="text_8">
      <!-- 60 -->
      <g transform="translate(27.79 76.288594) scale(0.12 -0.12)">
       <use xlink:href="#ArialMT-36"/>
       <use xlink:href="#ArialMT-30" x="55.615234"/>
      </g>
     </g>
    </g>
    <g id="ytick_4">
     <g id="line2d_8">
      <g>
       <use xlink:href="#mf9a91d7d21" x="48.13625" y="32.637969" style="stroke: #000000; stroke-width: 0.8"/>
      </g>
     </g>
     <g id="text_9">
      <!-- 80 -->
      <g transform="translate(27.79 36.932656) scale(0.12 -0.12)">
       <use xlink:href="#ArialMT-38"/>
       <use xlink:href="#ArialMT-30" x="55.615234"/>
      </g>
     </g>
    </g>
    <g id="text_10">
     <!-- MD recovery rate [%] -->
     <g transform="translate(21.264375 148.015625) rotate(-90) scale(0.12 -0.12)">
      <defs>
       <path id="ArialMT-4d" d="M 475 0 
L 475 4581 
L 1388 4581 
L 2472 1338 
Q 2622 884 2691 659 
Q 2769 909 2934 1394 
L 4031 4581 
L 4847 4581 
L 4847 0 
L 4263 0 
L 4263 3834 
L 2931 0 
L 2384 0 
L 1059 3900 
L 1059 0 
L 475 0 
z
" transform="scale(0.015625)"/>
       <path id="ArialMT-44" d="M 494 0 
L 494 4581 
L 2072 4581 
Q 2606 4581 2888 4516 
Q 3281 4425 3559 4188 
Q 3922 3881 4101 3404 
Q 4281 2928 4281 2316 
Q 4281 1794 4159 1391 
Q 4038 988 3847 723 
Q 3656 459 3429 307 
Q 3203 156 2883 78 
Q 2563 0 2147 0 
L 494 0 
z
M 1100 541 
L 2078 541 
Q 2531 541 2789 625 
Q 3047 709 3200 863 
Q 3416 1078 3536 1442 
Q 3656 1806 3656 2325 
Q 3656 3044 3420 3430 
Q 3184 3816 2847 3947 
Q 2603 4041 2063 4041 
L 1100 4041 
L 1100 541 
z
" transform="scale(0.015625)"/>
      </defs>
      <use xlink:href="#ArialMT-4d"/>
      <use xlink:href="#ArialMT-44" x="83.300781"/>
      <use xlink:href="#ArialMT-20" x="155.517578"/>
      <use xlink:href="#ArialMT-72" x="183.300781"/>
      <use xlink:href="#ArialMT-65" x="216.601562"/>
      <use xlink:href="#ArialMT-63" x="272.216797"/>
      <use xlink:href="#ArialMT-6f" x="322.216797"/>
      <use xlink:href="#ArialMT-76" x="377.832031"/>
      <use xlink:href="#ArialMT-65" x="427.832031"/>
      <use xlink:href="#ArialMT-72" x="483.447266"/>
      <use xlink:href="#ArialMT-79" x="516.748047"/>
      <use xlink:href="#ArialMT-20" x="566.748047"/>
      <use xlink:href="#ArialMT-72" x="594.53125"/>
      <use xlink:href="#ArialMT-61" x="627.832031"/>
      <use xlink:href="#ArialMT-74" x="683.447266"/>
      <use xlink:href="#ArialMT-65" x="711.230469"/>
      <use xlink:href="#ArialMT-20" x="766.845703"/>
      <use xlink:href="#ArialMT-5b" x="794.628906"/>
      <use xlink:href="#ArialMT-25" x="822.412109"/>
      <use xlink:href="#ArialMT-5d" x="911.328125"/>
     </g>
    </g>
   </g>
   <g id="line2d_9">
    <defs>
     <path id="mf78cb3819f" d="M 0 1 
C 0.265203 1 0.51958 0.894634 0.707107 0.707107 
C 0.894634 0.51958 1 0.265203 1 0 
C 1 -0.265203 0.894634 -0.51958 0.707107 -0.707107 
C 0.51958 -0.894634 0.265203 -1 0 -1 
C -0.265203 -1 -0.51958 -0.894634 -0.707107 -0.707107 
C -0.894634 -0.51958 -1 -0.265203 -1 0 
C -1 0.265203 -0.894634 0.51958 -0.707107 0.707107 
C -0.51958 0.894634 -0.265203 1 0 1 
z
" style="stroke: #bf4e30"/>
    </defs>
    <g clip-path="url(#p3ee042d599)">
     <use xlink:href="#mf78cb3819f" x="160.441469" y="67.755575" style="fill: #bf4e30; stroke: #bf4e30"/>
     <use xlink:href="#mf78cb3819f" x="162.362756" y="63.451532" style="fill: #bf4e30; stroke: #bf4e30"/>
     <use xlink:href="#mf78cb3819f" x="123.226787" y="108.470141" style="fill: #bf4e30; stroke: #bf4e30"/>
     <use xlink:href="#mf78cb3819f" x="132.213423" y="81.898049" style="fill: #bf4e30; stroke: #bf4e30"/>
     <use xlink:href="#mf78cb3819f" x="154.675993" y="71.817422" style="fill: #bf4e30; stroke: #bf4e30"/>
     <use xlink:href="#mf78cb3819f" x="132.042448" y="94.131621" style="fill: #bf4e30; stroke: #bf4e30"/>
     <use xlink:href="#mf78cb3819f" x="126.422736" y="92.520063" style="fill: #bf4e30; stroke: #bf4e30"/>
     <use xlink:href="#mf78cb3819f" x="154.063079" y="66.592111" style="fill: #bf4e30; stroke: #bf4e30"/>
     <use xlink:href="#mf78cb3819f" x="125.983288" y="84.844825" style="fill: #bf4e30; stroke: #bf4e30"/>
     <use xlink:href="#mf78cb3819f" x="137.450813" y="78.838417" style="fill: #bf4e30; stroke: #bf4e30"/>
     <use xlink:href="#mf78cb3819f" x="160.215332" y="67.972132" style="fill: #bf4e30; stroke: #bf4e30"/>
     <use xlink:href="#mf78cb3819f" x="136.483686" y="73.63901" style="fill: #bf4e30; stroke: #bf4e30"/>
     <use xlink:href="#mf78cb3819f" x="121.073443" y="98.29917" style="fill: #bf4e30; stroke: #bf4e30"/>
     <use xlink:href="#mf78cb3819f" x="167.859395" y="45.941384" style="fill: #bf4e30; stroke: #bf4e30"/>
     <use xlink:href="#mf78cb3819f" x="137.624565" y="71.993906" style="fill: #bf4e30; stroke: #bf4e30"/>
     <use xlink:href="#mf78cb3819f" x="140.110352" y="79.865094" style="fill: #bf4e30; stroke: #bf4e30"/>
     <use xlink:href="#mf78cb3819f" x="131.921806" y="86.154687" style="fill: #bf4e30; stroke: #bf4e30"/>
     <use xlink:href="#mf78cb3819f" x="128.158431" y="78.611276" style="fill: #bf4e30; stroke: #bf4e30"/>
     <use xlink:href="#mf78cb3819f" x="128.49257" y="77.897297" style="fill: #bf4e30; stroke: #bf4e30"/>
     <use xlink:href="#mf78cb3819f" x="135.212993" y="83.041187" style="fill: #bf4e30; stroke: #bf4e30"/>
     <use xlink:href="#mf78cb3819f" x="135.603454" y="95.064628" style="fill: #bf4e30; stroke: #bf4e30"/>
     <use xlink:href="#mf78cb3819f" x="125.588125" y="68.966526" style="fill: #bf4e30; stroke: #bf4e30"/>
     <use xlink:href="#mf78cb3819f" x="172.26671" y="47.747838" style="fill: #bf4e30; stroke: #bf4e30"/>
     <use xlink:href="#mf78cb3819f" x="137.350676" y="98.108594" style="fill: #bf4e30; stroke: #bf4e30"/>
     <use xlink:href="#mf78cb3819f" x="137.756111" y="81.456536" style="fill: #bf4e30; stroke: #bf4e30"/>
     <use xlink:href="#mf78cb3819f" x="150.583957" y="74.140594" style="fill: #bf4e30; stroke: #bf4e30"/>
     <use xlink:href="#mf78cb3819f" x="137.829082" y="95.064628" style="fill: #bf4e30; stroke: #bf4e30"/>
     <use xlink:href="#mf78cb3819f" x="132.406072" y="94.44342" style="fill: #bf4e30; stroke: #bf4e30"/>
     <use xlink:href="#mf78cb3819f" x="124.683313" y="96.269531" style="fill: #bf4e30; stroke: #bf4e30"/>
     <use xlink:href="#mf78cb3819f" x="143.786404" y="81.56164" style="fill: #bf4e30; stroke: #bf4e30"/>
     <use xlink:href="#mf78cb3819f" x="153.073695" y="85.835189" style="fill: #bf4e30; stroke: #bf4e30"/>
     <use xlink:href="#mf78cb3819f" x="92.142997" y="104.194219" style="fill: #bf4e30; stroke: #bf4e30"/>
     <use xlink:href="#mf78cb3819f" x="121.983317" y="89.578474" style="fill: #bf4e30; stroke: #bf4e30"/>
     <use xlink:href="#mf78cb3819f" x="93.702997" y="117.005787" style="fill: #bf4e30; stroke: #bf4e30"/>
     <use xlink:href="#mf78cb3819f" x="102.929332" y="97.952078" style="fill: #bf4e30; stroke: #bf4e30"/>
     <use xlink:href="#mf78cb3819f" x="137.002976" y="87.805025" style="fill: #bf4e30; stroke: #bf4e30"/>
     <use xlink:href="#mf78cb3819f" x="131.99747" y="84.472618" style="fill: #bf4e30; stroke: #bf4e30"/>
     <use xlink:href="#mf78cb3819f" x="111.303968" y="96.51072" style="fill: #bf4e30; stroke: #bf4e30"/>
     <use xlink:href="#mf78cb3819f" x="123.37774" y="104.700667" style="fill: #bf4e30; stroke: #bf4e30"/>
     <use xlink:href="#mf78cb3819f" x="118.911239" y="88.279122" style="fill: #bf4e30; stroke: #bf4e30"/>
     <use xlink:href="#mf78cb3819f" x="130.067104" y="89.571024" style="fill: #bf4e30; stroke: #bf4e30"/>
     <use xlink:href="#mf78cb3819f" x="79.361218" y="104.9678" style="fill: #bf4e30; stroke: #bf4e30"/>
     <use xlink:href="#mf78cb3819f" x="186.949646" y="51.484474" style="fill: #bf4e30; stroke: #bf4e30"/>
     <use xlink:href="#mf78cb3819f" x="146.469758" y="66.592111" style="fill: #bf4e30; stroke: #bf4e30"/>
     <use xlink:href="#mf78cb3819f" x="131.109884" y="81.571017" style="fill: #bf4e30; stroke: #bf4e30"/>
     <use xlink:href="#mf78cb3819f" x="116.265214" y="95.315943" style="fill: #bf4e30; stroke: #bf4e30"/>
     <use xlink:href="#mf78cb3819f" x="133.209119" y="90.811322" style="fill: #bf4e30; stroke: #bf4e30"/>
     <use xlink:href="#mf78cb3819f" x="115.215106" y="77.616183" style="fill: #bf4e30; stroke: #bf4e30"/>
     <use xlink:href="#mf78cb3819f" x="134.389474" y="73.18651" style="fill: #bf4e30; stroke: #bf4e30"/>
     <use xlink:href="#mf78cb3819f" x="143.63835" y="61.654635" style="fill: #bf4e30; stroke: #bf4e30"/>
     <use xlink:href="#mf78cb3819f" x="143.740908" y="73.223779" style="fill: #bf4e30; stroke: #bf4e30"/>
     <use xlink:href="#mf78cb3819f" x="73.236395" y="90.943061" style="fill: #bf4e30; stroke: #bf4e30"/>
     <use xlink:href="#mf78cb3819f" x="143.77758" y="74.379115" style="fill: #bf4e30; stroke: #bf4e30"/>
     <use xlink:href="#mf78cb3819f" x="108.129711" y="99.736616" style="fill: #bf4e30; stroke: #bf4e30"/>
     <use xlink:href="#mf78cb3819f" x="104.336086" y="103.670636" style="fill: #bf4e30; stroke: #bf4e30"/>
     <use xlink:href="#mf78cb3819f" x="135.961144" y="84.644029" style="fill: #bf4e30; stroke: #bf4e30"/>
     <use xlink:href="#mf78cb3819f" x="134.389474" y="82.727344" style="fill: #bf4e30; stroke: #bf4e30"/>
     <use xlink:href="#mf78cb3819f" x="157.417663" y="84.932845" style="fill: #bf4e30; stroke: #bf4e30"/>
     <use xlink:href="#mf78cb3819f" x="141.723932" y="87.572298" style="fill: #bf4e30; stroke: #bf4e30"/>
     <use xlink:href="#mf78cb3819f" x="151.693189" y="83.107154" style="fill: #bf4e30; stroke: #bf4e30"/>
     <use xlink:href="#mf78cb3819f" x="112.007762" y="97.459513" style="fill: #bf4e30; stroke: #bf4e30"/>
     <use xlink:href="#mf78cb3819f" x="118.547045" y="95.249687" style="fill: #bf4e30; stroke: #bf4e30"/>
     <use xlink:href="#mf78cb3819f" x="99.326609" y="108.800471" style="fill: #bf4e30; stroke: #bf4e30"/>
     <use xlink:href="#mf78cb3819f" x="150.944394" y="79.958798" style="fill: #bf4e30; stroke: #bf4e30"/>
     <use xlink:href="#mf78cb3819f" x="139.746818" y="81.171773" style="fill: #bf4e30; stroke: #bf4e30"/>
     <use xlink:href="#mf78cb3819f" x="93.784215" y="105.455959" style="fill: #bf4e30; stroke: #bf4e30"/>
     <use xlink:href="#mf78cb3819f" x="151.192051" y="75.409091" style="fill: #bf4e30; stroke: #bf4e30"/>
     <use xlink:href="#mf78cb3819f" x="150.266419" y="70.450536" style="fill: #bf4e30; stroke: #bf4e30"/>
     <use xlink:href="#mf78cb3819f" x="135.579693" y="80.117196" style="fill: #bf4e30; stroke: #bf4e30"/>
     <use xlink:href="#mf78cb3819f" x="128.815286" y="86.752383" style="fill: #bf4e30; stroke: #bf4e30"/>
     <use xlink:href="#mf78cb3819f" x="133.035421" y="76.534976" style="fill: #bf4e30; stroke: #bf4e30"/>
     <use xlink:href="#mf78cb3819f" x="140.110352" y="90.032044" style="fill: #bf4e30; stroke: #bf4e30"/>
     <use xlink:href="#mf78cb3819f" x="145.628515" y="93.679831" style="fill: #bf4e30; stroke: #bf4e30"/>
     <use xlink:href="#mf78cb3819f" x="110.176783" y="82.435277" style="fill: #bf4e30; stroke: #bf4e30"/>
     <use xlink:href="#mf78cb3819f" x="127.286631" y="81.890429" style="fill: #bf4e30; stroke: #bf4e30"/>
     <use xlink:href="#mf78cb3819f" x="129.637415" y="81.571017" style="fill: #bf4e30; stroke: #bf4e30"/>
     <use xlink:href="#mf78cb3819f" x="135.639939" y="83.607134" style="fill: #bf4e30; stroke: #bf4e30"/>
     <use xlink:href="#mf78cb3819f" x="141.841712" y="66.535784" style="fill: #bf4e30; stroke: #bf4e30"/>
     <use xlink:href="#mf78cb3819f" x="93.055202" y="111.190508" style="fill: #bf4e30; stroke: #bf4e30"/>
     <use xlink:href="#mf78cb3819f" x="137.962955" y="79.09573" style="fill: #bf4e30; stroke: #bf4e30"/>
     <use xlink:href="#mf78cb3819f" x="141.811153" y="69.866558" style="fill: #bf4e30; stroke: #bf4e30"/>
     <use xlink:href="#mf78cb3819f" x="166.865772" y="60.400684" style="fill: #bf4e30; stroke: #bf4e30"/>
     <use xlink:href="#mf78cb3819f" x="128.926568" y="88.279122" style="fill: #bf4e30; stroke: #bf4e30"/>
     <use xlink:href="#mf78cb3819f" x="110.470857" y="81.538702" style="fill: #bf4e30; stroke: #bf4e30"/>
     <use xlink:href="#mf78cb3819f" x="121.609433" y="74.150396" style="fill: #bf4e30; stroke: #bf4e30"/>
     <use xlink:href="#mf78cb3819f" x="111.094885" y="115.827465" style="fill: #bf4e30; stroke: #bf4e30"/>
     <use xlink:href="#mf78cb3819f" x="125.588125" y="90.286103" style="fill: #bf4e30; stroke: #bf4e30"/>
     <use xlink:href="#mf78cb3819f" x="145.993047" y="81.524044" style="fill: #bf4e30; stroke: #bf4e30"/>
     <use xlink:href="#mf78cb3819f" x="121.680799" y="91.230665" style="fill: #bf4e30; stroke: #bf4e30"/>
     <use xlink:href="#mf78cb3819f" x="146.124607" y="80.342135" style="fill: #bf4e30; stroke: #bf4e30"/>
     <use xlink:href="#mf78cb3819f" x="141.651574" y="73.582262" style="fill: #bf4e30; stroke: #bf4e30"/>
     <use xlink:href="#mf78cb3819f" x="135.656869" y="84.587806" style="fill: #bf4e30; stroke: #bf4e30"/>
     <use xlink:href="#mf78cb3819f" x="142.673097" y="62.733686" style="fill: #bf4e30; stroke: #bf4e30"/>
     <use xlink:href="#mf78cb3819f" x="105.021241" y="98.29917" style="fill: #bf4e30; stroke: #bf4e30"/>
     <use xlink:href="#mf78cb3819f" x="129.871968" y="87.318342" style="fill: #bf4e30; stroke: #bf4e30"/>
     <use xlink:href="#mf78cb3819f" x="113.48627" y="79.373145" style="fill: #bf4e30; stroke: #bf4e30"/>
     <use xlink:href="#mf78cb3819f" x="106.578818" y="107.396279" style="fill: #bf4e30; stroke: #bf4e30"/>
     <use xlink:href="#mf78cb3819f" x="107.271803" y="92.55827" style="fill: #bf4e30; stroke: #bf4e30"/>
     <use xlink:href="#mf78cb3819f" x="143.956159" y="81.171773" style="fill: #bf4e30; stroke: #bf4e30"/>
     <use xlink:href="#mf78cb3819f" x="119.408454" y="81.20487" style="fill: #bf4e30; stroke: #bf4e30"/>
    </g>
   </g>
   <g id="line2d_10">
    <path d="M 28.773281 190.061719 
L 216.776532 -1 
" clip-path="url(#p3ee042d599)" style="fill: none; stroke: #000000; stroke-opacity: 0.5; stroke-width: 1.5; stroke-linecap: square"/>
   </g>
   <g id="patch_3">
    <path d="M 48.13625 170.38375 
L 48.13625 12.96 
" style="fill: none; stroke: #000000; stroke-width: 0.8; stroke-linejoin: miter; stroke-linecap: square"/>
   </g>
   <g id="patch_4">
    <path d="M 203.04 170.38375 
L 203.04 12.96 
" style="fill: none; stroke: #000000; stroke-width: 0.8; stroke-linejoin: miter; stroke-linecap: square"/>
   </g>
   <g id="patch_5">
    <path d="M 48.13625 170.38375 
L 203.04 170.38375 
" style="fill: none; stroke: #000000; stroke-width: 0.8; stroke-linejoin: miter; stroke-linecap: square"/>
   </g>
   <g id="patch_6">
    <path d="M 48.13625 12.96 
L 203.04 12.96 
" style="fill: none; stroke: #000000; stroke-width: 0.8; stroke-linejoin: miter; stroke-linecap: square"/>
   </g>
  </g>
 </g>
 <defs>
  <clipPath id="p3ee042d599">
   <rect x="48.13625" y="12.96" width="154.90375" height="157.42375"/>
  </clipPath>
 </defs>
</svg>
