<?xml version="1.0" encoding="utf-8" standalone="no"?>
<!DOCTYPE svg PUBLIC "-//W3C//DTD SVG 1.1//EN"
  "http://www.w3.org/Graphics/SVG/1.1/DTD/svg11.dtd">
<svg xmlns:xlink="http://www.w3.org/1999/xlink" width="360pt" height="216pt" viewBox="0 0 360 216" xmlns="http://www.w3.org/2000/svg" version="1.1">
 <metadata>
  <rdf:RDF xmlns:dc="http://purl.org/dc/elements/1.1/" xmlns:cc="http://creativecommons.org/ns#" xmlns:rdf="http://www.w3.org/1999/02/22-rdf-syntax-ns#">
   <cc:Work>
    <dc:type rdf:resource="http://purl.org/dc/dcmitype/StillImage"/>
    <dc:date>2023-05-15T09:11:29.669635</dc:date>
    <dc:format>image/svg+xml</dc:format>
    <dc:creator>
     <cc:Agent>
      <dc:title>Matplotlib v3.7.1, https://matplotlib.org/</dc:title>
     </cc:Agent>
    </dc:creator>
   </cc:Work>
  </rdf:RDF>
 </metadata>
 <defs>
  <style type="text/css">*{stroke-linejoin: round; stroke-linecap: butt}</style>
 </defs>
 <g id="figure_1">
  <g id="patch_1">
   <path d="M 0 216 
L 360 216 
L 360 0 
L 0 0 
z
" style="fill: #ffffff"/>
  </g>
  <g id="axes_1">
   <g id="patch_2">
    <path d="M 54.74 170.3275 
L 347.04 170.3275 
L 347.04 17.28 
L 54.74 17.28 
z
" style="fill: #ffffff"/>
   </g>
   <g id="PolyCollection_1">
    <defs>
     <path id="m95d286aa97" d="M 75.389572 -45.6725 
L 72.741668 -45.6725 
L 72.928399 -47.218434 
L 73.34243 -48.764369 
L 73.714413 -50.310303 
L 73.909343 -51.856237 
L 73.953328 -53.402172 
L 73.916115 -54.948106 
L 73.841568 -56.49404 
L 73.74928 -58.039975 
L 73.650184 -59.585909 
L 73.551057 -61.131843 
L 73.4552 -62.677778 
L 73.363879 -64.223712 
L 73.273331 -65.769646 
L 73.171225 -67.315581 
L 73.043332 -68.861515 
L 72.885861 -70.407449 
L 72.705615 -71.953384 
L 72.511448 -73.499318 
L 72.317091 -75.045253 
L 72.137679 -76.591187 
L 71.962767 -78.137121 
L 71.752107 -79.683056 
L 71.480829 -81.22899 
L 71.179334 -82.774924 
L 70.903684 -84.320859 
L 70.664295 -85.866793 
L 70.425709 -87.412727 
L 70.17621 -88.958662 
L 69.930937 -90.504596 
L 69.666176 -92.05053 
L 69.331232 -93.596465 
L 68.961533 -95.142399 
L 68.700498 -96.688333 
L 68.625527 -98.234268 
L 68.636052 -99.780202 
L 68.595028 -101.326136 
L 68.470026 -102.872071 
L 68.296735 -104.418005 
L 68.127909 -105.963939 
L 68.026868 -107.509874 
L 68.026364 -109.055808 
L 68.107108 -110.601742 
L 68.244502 -112.147677 
L 68.441345 -113.693611 
L 68.700347 -115.239545 
L 68.966873 -116.78548 
L 69.117852 -118.331414 
L 69.094728 -119.877348 
L 69.062606 -121.423283 
L 69.276348 -122.969217 
L 69.747644 -124.515152 
L 70.235882 -126.061086 
L 70.568709 -127.60702 
L 70.777596 -129.152955 
L 70.956882 -130.698889 
L 71.150977 -132.244823 
L 71.361462 -133.790758 
L 71.577736 -135.336692 
L 71.796015 -136.882626 
L 72.023615 -138.428561 
L 72.261224 -139.974495 
L 72.491198 -141.520429 
L 72.687959 -143.066364 
L 72.835453 -144.612298 
L 72.945931 -146.158232 
L 73.058842 -147.704167 
L 73.199313 -149.250101 
L 73.348682 -150.796035 
L 73.475988 -152.34197 
L 73.575977 -153.887904 
L 73.658902 -155.433838 
L 73.72591 -156.979773 
L 73.772528 -158.525707 
L 73.80561 -160.071641 
L 73.840252 -161.617576 
L 73.881008 -163.16351 
L 73.918006 -164.709444 
L 73.941817 -166.255379 
L 73.953866 -167.801313 
L 73.961389 -169.347247 
L 73.968596 -170.893182 
L 73.976065 -172.439116 
L 73.984077 -173.985051 
L 73.992716 -175.530985 
L 74.0017 -177.076919 
L 74.011543 -178.622854 
L 74.022691 -180.168788 
L 74.034037 -181.714722 
L 74.043855 -183.260657 
L 74.05123 -184.806591 
L 74.056046 -186.352525 
L 74.05871 -187.89846 
L 74.059799 -189.444394 
L 74.058286 -190.990328 
L 74.048732 -192.536263 
L 74.021471 -194.082197 
L 73.972354 -195.628131 
L 73.918332 -197.174066 
L 73.894012 -198.72 
L 74.237227 -198.72 
L 74.237227 -198.72 
L 74.212907 -197.174066 
L 74.158886 -195.628131 
L 74.109769 -194.082197 
L 74.082508 -192.536263 
L 74.072953 -190.990328 
L 74.07144 -189.444394 
L 74.07253 -187.89846 
L 74.075194 -186.352525 
L 74.08001 -184.806591 
L 74.087384 -183.260657 
L 74.097203 -181.714722 
L 74.108549 -180.168788 
L 74.119696 -178.622854 
L 74.129539 -177.076919 
L 74.138523 -175.530985 
L 74.147162 -173.985051 
L 74.155175 -172.439116 
L 74.162644 -170.893182 
L 74.169851 -169.347247 
L 74.177373 -167.801313 
L 74.189422 -166.255379 
L 74.213234 -164.709444 
L 74.250232 -163.16351 
L 74.290988 -161.617576 
L 74.325629 -160.071641 
L 74.358712 -158.525707 
L 74.40533 -156.979773 
L 74.472338 -155.433838 
L 74.555262 -153.887904 
L 74.655252 -152.34197 
L 74.782557 -150.796035 
L 74.931927 -149.250101 
L 75.072397 -147.704167 
L 75.185309 -146.158232 
L 75.295787 -144.612298 
L 75.443281 -143.066364 
L 75.640042 -141.520429 
L 75.870015 -139.974495 
L 76.107624 -138.428561 
L 76.335225 -136.882626 
L 76.553504 -135.336692 
L 76.769777 -133.790758 
L 76.980263 -132.244823 
L 77.174357 -130.698889 
L 77.353643 -129.152955 
L 77.56253 -127.60702 
L 77.895358 -126.061086 
L 78.383596 -124.515152 
L 78.854891 -122.969217 
L 79.068634 -121.423283 
L 79.036512 -119.877348 
L 79.013388 -118.331414 
L 79.164367 -116.78548 
L 79.430893 -115.239545 
L 79.689894 -113.693611 
L 79.886738 -112.147677 
L 80.024132 -110.601742 
L 80.104876 -109.055808 
L 80.104372 -107.509874 
L 80.00333 -105.963939 
L 79.834505 -104.418005 
L 79.661214 -102.872071 
L 79.536212 -101.326136 
L 79.495188 -99.780202 
L 79.505712 -98.234268 
L 79.430742 -96.688333 
L 79.169707 -95.142399 
L 78.800008 -93.596465 
L 78.465064 -92.05053 
L 78.200303 -90.504596 
L 77.95503 -88.958662 
L 77.70553 -87.412727 
L 77.466945 -85.866793 
L 77.227555 -84.320859 
L 76.951905 -82.774924 
L 76.650411 -81.22899 
L 76.379133 -79.683056 
L 76.168472 -78.137121 
L 75.993561 -76.591187 
L 75.814148 -75.045253 
L 75.619792 -73.499318 
L 75.425625 -71.953384 
L 75.245379 -70.407449 
L 75.087908 -68.861515 
L 74.960015 -67.315581 
L 74.857909 -65.769646 
L 74.767361 -64.223712 
L 74.676039 -62.677778 
L 74.580183 -61.131843 
L 74.481056 -59.585909 
L 74.38196 -58.039975 
L 74.289672 -56.49404 
L 74.215125 -54.948106 
L 74.177911 -53.402172 
L 74.221897 -51.856237 
L 74.416827 -50.310303 
L 74.78881 -48.764369 
L 75.202841 -47.218434 
L 75.389572 -45.6725 
z
" style="stroke: #0d3b66; stroke-opacity: 0.3"/>
    </defs>
    <g clip-path="url(#p738a8280fe)">
     <use xlink:href="#m95d286aa97" x="0" y="216" style="fill: #0d3b66; fill-opacity: 0.3; stroke: #0d3b66; stroke-opacity: 0.3"/>
    </g>
   </g>
   <g id="PolyCollection_2">
    <defs>
     <path id="m425d2d61f0" d="M 124.801663 -45.6725 
L 119.957676 -45.6725 
L 120.006756 -47.218434 
L 120.196732 -48.764369 
L 120.461011 -50.310303 
L 120.720185 -51.856237 
L 120.907705 -53.402172 
L 120.987069 -54.948106 
L 120.955348 -56.49404 
L 120.834925 -58.039975 
L 120.659571 -59.585909 
L 120.461296 -61.131843 
L 120.261902 -62.677778 
L 120.070259 -64.223712 
L 119.884203 -65.769646 
L 119.695142 -67.315581 
L 119.493391 -68.861515 
L 119.272552 -70.407449 
L 119.031729 -71.953384 
L 118.775138 -73.499318 
L 118.509715 -75.045253 
L 118.242258 -76.591187 
L 117.977822 -78.137121 
L 117.72018 -79.683056 
L 117.473631 -81.22899 
L 117.244448 -82.774924 
L 117.040516 -84.320859 
L 116.869096 -85.866793 
L 116.734015 -87.412727 
L 116.633975 -88.958662 
L 116.562892 -90.504596 
L 116.511955 -92.05053 
L 116.472313 -93.596465 
L 116.437297 -95.142399 
L 116.403726 -96.688333 
L 116.372468 -98.234268 
L 116.34851 -99.780202 
L 116.340413 -101.326136 
L 116.358721 -102.872071 
L 116.413186 -104.418005 
L 116.509503 -105.963939 
L 116.646916 -107.509874 
L 116.817995 -109.055808 
L 117.010888 -110.601742 
L 117.213238 -112.147677 
L 117.416239 -113.693611 
L 117.617431 -115.239545 
L 117.821381 -116.78548 
L 118.038051 -118.331414 
L 118.27919 -119.877348 
L 118.553654 -121.423283 
L 118.863112 -122.969217 
L 119.199861 -124.515152 
L 119.547926 -126.061086 
L 119.887306 -127.60702 
L 120.199778 -129.152955 
L 120.473913 -130.698889 
L 120.707383 -132.244823 
L 120.905915 -133.790758 
L 121.07967 -135.336692 
L 121.238756 -136.882626 
L 121.38971 -138.428561 
L 121.53413 -139.974495 
L 121.669607 -141.520429 
L 121.792059 -143.066364 
L 121.898147 -144.612298 
L 121.986664 -146.158232 
L 122.05855 -147.704167 
L 122.115997 -149.250101 
L 122.161396 -150.796035 
L 122.196765 -152.34197 
L 122.223748 -153.887904 
L 122.243922 -155.433838 
L 122.259033 -156.979773 
L 122.270954 -158.525707 
L 122.281419 -160.071641 
L 122.291705 -161.617576 
L 122.302431 -163.16351 
L 122.313558 -164.709444 
L 122.324552 -166.255379 
L 122.334671 -167.801313 
L 122.343269 -169.347247 
L 122.350031 -170.893182 
L 122.355069 -172.439116 
L 122.358831 -173.985051 
L 122.361888 -175.530985 
L 122.364706 -177.076919 
L 122.367489 -178.622854 
L 122.37016 -180.168788 
L 122.372424 -181.714722 
L 122.373865 -183.260657 
L 122.373988 -184.806591 
L 122.372231 -186.352525 
L 122.367993 -187.89846 
L 122.360773 -189.444394 
L 122.350434 -190.990328 
L 122.337542 -192.536263 
L 122.323576 -194.082197 
L 122.310809 -195.628131 
L 122.301783 -197.174066 
L 122.298519 -198.72 
L 122.46082 -198.72 
L 122.46082 -198.72 
L 122.457555 -197.174066 
L 122.44853 -195.628131 
L 122.435763 -194.082197 
L 122.421796 -192.536263 
L 122.408905 -190.990328 
L 122.398566 -189.444394 
L 122.391345 -187.89846 
L 122.387108 -186.352525 
L 122.385351 -184.806591 
L 122.385474 -183.260657 
L 122.386915 -181.714722 
L 122.389179 -180.168788 
L 122.391849 -178.622854 
L 122.394633 -177.076919 
L 122.397451 -175.530985 
L 122.400508 -173.985051 
L 122.404269 -172.439116 
L 122.409308 -170.893182 
L 122.41607 -169.347247 
L 122.424668 -167.801313 
L 122.434787 -166.255379 
L 122.445781 -164.709444 
L 122.456908 -163.16351 
L 122.467634 -161.617576 
L 122.477919 -160.071641 
L 122.488385 -158.525707 
L 122.500306 -156.979773 
L 122.515417 -155.433838 
L 122.535591 -153.887904 
L 122.562574 -152.34197 
L 122.597943 -150.796035 
L 122.643342 -149.250101 
L 122.700789 -147.704167 
L 122.772675 -146.158232 
L 122.861192 -144.612298 
L 122.96728 -143.066364 
L 123.089732 -141.520429 
L 123.225209 -139.974495 
L 123.369629 -138.428561 
L 123.520583 -136.882626 
L 123.679669 -135.336692 
L 123.853423 -133.790758 
L 124.051956 -132.244823 
L 124.285426 -130.698889 
L 124.559561 -129.152955 
L 124.872033 -127.60702 
L 125.211413 -126.061086 
L 125.559478 -124.515152 
L 125.896227 -122.969217 
L 126.205685 -121.423283 
L 126.480148 -119.877348 
L 126.721287 -118.331414 
L 126.937958 -116.78548 
L 127.141908 -115.239545 
L 127.3431 -113.693611 
L 127.546101 -112.147677 
L 127.74845 -110.601742 
L 127.941344 -109.055808 
L 128.112423 -107.509874 
L 128.249836 -105.963939 
L 128.346152 -104.418005 
L 128.400618 -102.872071 
L 128.418926 -101.326136 
L 128.410829 -99.780202 
L 128.386871 -98.234268 
L 128.355613 -96.688333 
L 128.322042 -95.142399 
L 128.287026 -93.596465 
L 128.247384 -92.05053 
L 128.196447 -90.504596 
L 128.125364 -88.958662 
L 128.025324 -87.412727 
L 127.890243 -85.866793 
L 127.718822 -84.320859 
L 127.514891 -82.774924 
L 127.285708 -81.22899 
L 127.039159 -79.683056 
L 126.781516 -78.137121 
L 126.517081 -76.591187 
L 126.249624 -75.045253 
L 125.984201 -73.499318 
L 125.72761 -71.953384 
L 125.486786 -70.407449 
L 125.265948 -68.861515 
L 125.064197 -67.315581 
L 124.875136 -65.769646 
L 124.689079 -64.223712 
L 124.497436 -62.677778 
L 124.298043 -61.131843 
L 124.099767 -59.585909 
L 123.924414 -58.039975 
L 123.803991 -56.49404 
L 123.77227 -54.948106 
L 123.851634 -53.402172 
L 124.039154 -51.856237 
L 124.298328 -50.310303 
L 124.562607 -48.764369 
L 124.752583 -47.218434 
L 124.801663 -45.6725 
z
" style="stroke: #0d3b66; stroke-opacity: 0.3"/>
    </defs>
    <g clip-path="url(#p738a8280fe)">
     <use xlink:href="#m425d2d61f0" x="0" y="216" style="fill: #0d3b66; fill-opacity: 0.3; stroke: #0d3b66; stroke-opacity: 0.3"/>
    </g>
   </g>
   <g id="PolyCollection_3">
    <defs>
     <path id="mf806b8184b" d="M 172.398493 -45.6725 
L 168.988945 -45.6725 
L 168.978683 -46.874893 
L 168.996799 -48.077287 
L 169.038515 -49.27968 
L 169.096948 -50.482074 
L 169.163704 -51.684467 
L 169.229601 -52.88686 
L 169.285446 -54.089254 
L 169.32276 -55.291647 
L 169.33439 -56.494041 
L 169.314947 -57.696434 
L 169.261053 -58.898827 
L 169.171386 -60.101221 
L 169.046558 -61.303614 
L 168.888844 -62.506008 
L 168.701825 -63.708401 
L 168.48997 -64.910794 
L 168.258218 -66.113188 
L 168.011594 -67.315581 
L 167.754891 -68.517975 
L 167.492453 -69.720368 
L 167.228058 -70.922761 
L 166.964914 -72.125155 
L 166.705743 -73.327548 
L 166.452923 -74.529942 
L 166.208661 -75.732335 
L 165.975141 -76.934728 
L 165.754617 -78.137122 
L 165.549432 -79.339515 
L 165.361947 -80.541909 
L 165.194386 -81.744302 
L 165.048645 -82.946695 
L 164.926082 -84.149089 
L 164.827335 -85.351482 
L 164.752214 -86.553876 
L 164.699676 -87.756269 
L 164.667902 -88.958662 
L 164.654463 -90.161056 
L 164.656553 -91.363449 
L 164.67125 -92.565843 
L 164.695782 -93.768236 
L 164.727745 -94.970629 
L 164.765265 -96.173023 
L 164.80708 -97.375416 
L 164.852536 -98.57781 
L 164.901512 -99.780203 
L 164.954293 -100.982596 
L 165.011412 -102.18499 
L 165.073487 -103.387383 
L 165.141083 -104.589777 
L 165.214604 -105.79217 
L 165.294244 -106.994563 
L 165.379983 -108.196957 
L 165.471621 -109.39935 
L 165.568846 -110.601744 
L 165.671312 -111.804137 
L 165.778709 -113.00653 
L 165.890815 -114.208924 
L 166.007516 -115.411317 
L 166.128797 -116.613711 
L 166.2547 -117.816104 
L 166.385268 -119.018497 
L 166.520473 -120.220891 
L 166.660162 -121.423284 
L 166.804012 -122.625678 
L 166.951515 -123.828071 
L 167.102 -125.030464 
L 167.25468 -126.232858 
L 167.408722 -127.435251 
L 167.563324 -128.637645 
L 167.717794 -129.840038 
L 167.871599 -131.042431 
L 168.024394 -132.244825 
L 168.176012 -133.447218 
L 168.326415 -134.649612 
L 168.475625 -135.852005 
L 168.623637 -137.054398 
L 168.770337 -138.256792 
L 168.915432 -139.459185 
L 169.05841 -140.661578 
L 169.198538 -141.863972 
L 169.334893 -143.066365 
L 169.466421 -144.268759 
L 169.592024 -145.471152 
L 169.710646 -146.673545 
L 169.821364 -147.875939 
L 169.923454 -149.078332 
L 170.016444 -150.280726 
L 170.100138 -151.483119 
L 170.174611 -152.685512 
L 170.240194 -153.887906 
L 170.297428 -155.090299 
L 170.347022 -156.292693 
L 170.389794 -157.495086 
L 170.426623 -158.697479 
L 170.458393 -159.899873 
L 170.485953 -161.102266 
L 170.510078 -162.30466 
L 170.531442 -163.507053 
L 170.550602 -164.709446 
L 170.836836 -164.709446 
L 170.836836 -164.709446 
L 170.855996 -163.507053 
L 170.87736 -162.30466 
L 170.901485 -161.102266 
L 170.929045 -159.899873 
L 170.960815 -158.697479 
L 170.997644 -157.495086 
L 171.040416 -156.292693 
L 171.09001 -155.090299 
L 171.147244 -153.887906 
L 171.212827 -152.685512 
L 171.2873 -151.483119 
L 171.370994 -150.280726 
L 171.463984 -149.078332 
L 171.566074 -147.875939 
L 171.676792 -146.673545 
L 171.795414 -145.471152 
L 171.921017 -144.268759 
L 172.052545 -143.066365 
L 172.1889 -141.863972 
L 172.329028 -140.661578 
L 172.472006 -139.459185 
L 172.617101 -138.256792 
L 172.763801 -137.054398 
L 172.911813 -135.852005 
L 173.061023 -134.649612 
L 173.211426 -133.447218 
L 173.363044 -132.244825 
L 173.515839 -131.042431 
L 173.669644 -129.840038 
L 173.824114 -128.637645 
L 173.978716 -127.435251 
L 174.132758 -126.232858 
L 174.285438 -125.030464 
L 174.435923 -123.828071 
L 174.583426 -122.625678 
L 174.727276 -121.423284 
L 174.866965 -120.220891 
L 175.00217 -119.018497 
L 175.132738 -117.816104 
L 175.258641 -116.613711 
L 175.379922 -115.411317 
L 175.496623 -114.208924 
L 175.608729 -113.00653 
L 175.716126 -111.804137 
L 175.818592 -110.601744 
L 175.915817 -109.39935 
L 176.007455 -108.196957 
L 176.093194 -106.994563 
L 176.172834 -105.79217 
L 176.246355 -104.589777 
L 176.313951 -103.387383 
L 176.376026 -102.18499 
L 176.433146 -100.982596 
L 176.485927 -99.780203 
L 176.534902 -98.57781 
L 176.580358 -97.375416 
L 176.622173 -96.173023 
L 176.659693 -94.970629 
L 176.691656 -93.768236 
L 176.716188 -92.565843 
L 176.730885 -91.363449 
L 176.732975 -90.161056 
L 176.719537 -88.958662 
L 176.687762 -87.756269 
L 176.635224 -86.553876 
L 176.560103 -85.351482 
L 176.461356 -84.149089 
L 176.338793 -82.946695 
L 176.193052 -81.744302 
L 176.025491 -80.541909 
L 175.838006 -79.339515 
L 175.632821 -78.137122 
L 175.412297 -76.934728 
L 175.178777 -75.732335 
L 174.934515 -74.529942 
L 174.681695 -73.327548 
L 174.422524 -72.125155 
L 174.15938 -70.922761 
L 173.894985 -69.720368 
L 173.632547 -68.517975 
L 173.375844 -67.315581 
L 173.12922 -66.113188 
L 172.897468 -64.910794 
L 172.685613 -63.708401 
L 172.498594 -62.506008 
L 172.34088 -61.303614 
L 172.216052 -60.101221 
L 172.126385 -58.898827 
L 172.072491 -57.696434 
L 172.053048 -56.494041 
L 172.064678 -55.291647 
L 172.101992 -54.089254 
L 172.157837 -52.88686 
L 172.223734 -51.684467 
L 172.29049 -50.482074 
L 172.348923 -49.27968 
L 172.390639 -48.077287 
L 172.408755 -46.874893 
L 172.398493 -45.6725 
z
" style="stroke: #0d3b66; stroke-opacity: 0.3"/>
    </defs>
    <g clip-path="url(#p738a8280fe)">
     <use xlink:href="#mf806b8184b" x="0" y="216" style="fill: #0d3b66; fill-opacity: 0.3; stroke: #0d3b66; stroke-opacity: 0.3"/>
    </g>
   </g>
   <g id="PolyCollection_4">
    <defs>
     <path id="mc23e5b12ab" d="M 225.047025 -45.6725 
L 212.968512 -45.6725 
L 213.243278 -47.218434 
L 213.996632 -48.764369 
L 215.036278 -50.310303 
L 216.13075 -51.856237 
L 217.089709 -53.402172 
L 217.809486 -54.948106 
L 218.273169 -56.49404 
L 218.520255 -58.039975 
L 218.610001 -59.585909 
L 218.595598 -61.131843 
L 218.513749 -62.677778 
L 218.385471 -64.223712 
L 218.221731 -65.769646 
L 218.029391 -67.315581 
L 217.815581 -68.861515 
L 217.590037 -70.407449 
L 217.365182 -71.953384 
L 217.153864 -73.499318 
L 216.965649 -75.045253 
L 216.804164 -76.591187 
L 216.668185 -78.137121 
L 216.556511 -79.683056 
L 216.472545 -81.22899 
L 216.422918 -82.774924 
L 216.408486 -84.320859 
L 216.413193 -85.866793 
L 216.400687 -87.412727 
L 216.325366 -88.958662 
L 216.155113 -90.504596 
L 215.89344 -92.05053 
L 215.586145 -93.596465 
L 215.304855 -95.142399 
L 215.113975 -96.688333 
L 215.039662 -98.234268 
L 215.060188 -99.780202 
L 215.123901 -101.326136 
L 215.182574 -102.872071 
L 215.217925 -104.418005 
L 215.244793 -105.963939 
L 215.290835 -107.509874 
L 215.367095 -109.055808 
L 215.447573 -110.601742 
L 215.469563 -112.147677 
L 215.356344 -113.693611 
L 215.05453 -115.239545 
L 214.571191 -116.78548 
L 213.991734 -118.331414 
L 213.463211 -119.877348 
L 213.142793 -121.423283 
L 213.13251 -122.969217 
L 213.434276 -124.515152 
L 213.950866 -126.061086 
L 214.532038 -127.60702 
L 215.038882 -129.152955 
L 215.392363 -130.698889 
L 215.586434 -132.244823 
L 215.668332 -133.790758 
L 215.703257 -135.336692 
L 215.742087 -136.882626 
L 215.80411 -138.428561 
L 215.878484 -139.974495 
L 215.940854 -141.520429 
L 215.97551 -143.066364 
L 215.990444 -144.612298 
L 216.015962 -146.158232 
L 216.087308 -147.704167 
L 216.222458 -149.250101 
L 216.409752 -150.796035 
L 216.613338 -152.34197 
L 216.792344 -153.887904 
L 216.921379 -155.433838 
L 217.000597 -156.979773 
L 217.051307 -158.525707 
L 217.101854 -160.071641 
L 217.172961 -161.617576 
L 217.270324 -163.16351 
L 217.386719 -164.709444 
L 217.510056 -166.255379 
L 217.631207 -167.801313 
L 217.747319 -169.347247 
L 217.860382 -170.893182 
L 217.97376 -172.439116 
L 218.089468 -173.985051 
L 218.207278 -175.530985 
L 218.32511 -177.076919 
L 218.439766 -178.622854 
L 218.547384 -180.168788 
L 218.643395 -181.714722 
L 218.721907 -183.260657 
L 218.774619 -184.806591 
L 218.789725 -186.352525 
L 218.751973 -187.89846 
L 218.645558 -189.444394 
L 218.460984 -190.990328 
L 218.204745 -192.536263 
L 217.90727 -194.082197 
L 217.622594 -195.628131 
L 217.415675 -197.174066 
L 217.340252 -198.72 
L 220.675286 -198.72 
L 220.675286 -198.72 
L 220.599863 -197.174066 
L 220.392943 -195.628131 
L 220.108267 -194.082197 
L 219.810792 -192.536263 
L 219.554553 -190.990328 
L 219.369979 -189.444394 
L 219.263564 -187.89846 
L 219.225813 -186.352525 
L 219.240918 -184.806591 
L 219.29363 -183.260657 
L 219.372142 -181.714722 
L 219.468153 -180.168788 
L 219.575771 -178.622854 
L 219.690427 -177.076919 
L 219.808259 -175.530985 
L 219.92607 -173.985051 
L 220.041778 -172.439116 
L 220.155155 -170.893182 
L 220.268219 -169.347247 
L 220.384331 -167.801313 
L 220.505481 -166.255379 
L 220.628818 -164.709444 
L 220.745213 -163.16351 
L 220.842576 -161.617576 
L 220.913683 -160.071641 
L 220.964231 -158.525707 
L 221.014941 -156.979773 
L 221.094158 -155.433838 
L 221.223194 -153.887904 
L 221.402199 -152.34197 
L 221.605785 -150.796035 
L 221.793079 -149.250101 
L 221.928229 -147.704167 
L 221.999576 -146.158232 
L 222.025093 -144.612298 
L 222.040027 -143.066364 
L 222.074684 -141.520429 
L 222.137053 -139.974495 
L 222.211427 -138.428561 
L 222.27345 -136.882626 
L 222.31228 -135.336692 
L 222.347205 -133.790758 
L 222.429103 -132.244823 
L 222.623174 -130.698889 
L 222.976656 -129.152955 
L 223.483499 -127.60702 
L 224.064672 -126.061086 
L 224.581261 -124.515152 
L 224.883027 -122.969217 
L 224.872745 -121.423283 
L 224.552326 -119.877348 
L 224.023804 -118.331414 
L 223.444347 -116.78548 
L 222.961007 -115.239545 
L 222.659193 -113.693611 
L 222.545974 -112.147677 
L 222.567965 -110.601742 
L 222.648442 -109.055808 
L 222.724703 -107.509874 
L 222.770745 -105.963939 
L 222.797612 -104.418005 
L 222.832963 -102.872071 
L 222.891636 -101.326136 
L 222.955349 -99.780202 
L 222.975875 -98.234268 
L 222.901562 -96.688333 
L 222.710682 -95.142399 
L 222.429393 -93.596465 
L 222.122097 -92.05053 
L 221.860424 -90.504596 
L 221.690171 -88.958662 
L 221.61485 -87.412727 
L 221.602344 -85.866793 
L 221.607051 -84.320859 
L 221.592619 -82.774924 
L 221.542992 -81.22899 
L 221.459026 -79.683056 
L 221.347353 -78.137121 
L 221.211373 -76.591187 
L 221.049888 -75.045253 
L 220.861673 -73.499318 
L 220.650355 -71.953384 
L 220.425501 -70.407449 
L 220.199956 -68.861515 
L 219.986146 -67.315581 
L 219.793806 -65.769646 
L 219.630066 -64.223712 
L 219.501788 -62.677778 
L 219.419939 -61.131843 
L 219.405536 -59.585909 
L 219.495282 -58.039975 
L 219.742368 -56.49404 
L 220.206051 -54.948106 
L 220.925828 -53.402172 
L 221.884788 -51.856237 
L 222.979259 -50.310303 
L 224.018905 -48.764369 
L 224.772259 -47.218434 
L 225.047025 -45.6725 
z
" style="stroke: #0d3b66; stroke-opacity: 0.3"/>
    </defs>
    <g clip-path="url(#p738a8280fe)">
     <use xlink:href="#mc23e5b12ab" x="0" y="216" style="fill: #0d3b66; fill-opacity: 0.3; stroke: #0d3b66; stroke-opacity: 0.3"/>
    </g>
   </g>
   <g id="PolyCollection_5">
    <defs>
     <path id="m3ff948912a" d="M 273.283112 -45.6725 
L 261.360525 -45.6725 
L 261.569192 -47.218434 
L 262.153574 -48.764369 
L 262.995077 -50.310303 
L 263.938738 -51.856237 
L 264.836782 -53.402172 
L 265.581581 -54.948106 
L 266.118839 -56.49404 
L 266.442165 -58.039975 
L 266.577141 -59.585909 
L 266.564166 -61.131843 
L 266.44594 -62.677778 
L 266.260979 -64.223712 
L 266.041446 -65.769646 
L 265.812784 -67.315581 
L 265.593423 -68.861515 
L 265.394139 -70.407449 
L 265.217627 -71.953384 
L 265.05923 -73.499318 
L 264.909492 -75.045253 
L 264.758389 -76.591187 
L 264.60002 -78.137121 
L 264.435685 -79.683056 
L 264.273316 -81.22899 
L 264.122735 -82.774924 
L 263.988636 -84.320859 
L 263.865251 -85.866793 
L 263.736727 -87.412727 
L 263.584578 -88.958662 
L 263.3993 -90.504596 
L 263.189897 -92.05053 
L 262.984978 -93.596465 
L 262.823158 -95.142399 
L 262.736615 -96.688333 
L 262.736199 -98.234268 
L 262.806324 -99.780202 
L 262.912547 -101.326136 
L 263.017507 -102.872071 
L 263.096169 -104.418005 
L 263.14204 -105.963939 
L 263.161497 -107.509874 
L 263.160318 -109.055808 
L 263.130953 -110.601742 
L 263.049022 -112.147677 
L 262.88294 -113.693611 
L 262.613496 -115.239545 
L 262.25386 -116.78548 
L 261.85819 -118.331414 
L 261.511181 -119.877348 
L 261.300305 -121.423283 
L 261.282562 -122.969217 
L 261.4619 -124.515152 
L 261.78873 -126.061086 
L 262.181435 -127.60702 
L 262.558439 -129.152955 
L 262.865012 -130.698889 
L 263.08358 -132.244823 
L 263.226099 -133.790758 
L 263.315963 -135.336692 
L 263.370486 -136.882626 
L 263.39262 -138.428561 
L 263.374554 -139.974495 
L 263.30951 -141.520429 
L 263.204025 -143.066364 
L 263.083103 -144.612298 
L 262.984594 -146.158232 
L 262.945273 -147.704167 
L 262.985952 -149.250101 
L 263.103635 -150.796035 
L 263.274686 -152.34197 
L 263.466822 -153.887904 
L 263.653151 -155.433838 
L 263.82125 -156.979773 
L 263.973878 -158.525707 
L 264.122852 -160.071641 
L 264.280722 -161.617576 
L 264.45483 -163.16351 
L 264.645837 -164.709444 
L 264.849811 -166.255379 
L 265.061422 -167.801313 
L 265.276103 -169.347247 
L 265.49051 -170.893182 
L 265.701923 -172.439116 
L 265.907555 -173.985051 
L 266.104319 -175.530985 
L 266.288906 -177.076919 
L 266.457768 -178.622854 
L 266.606689 -180.168788 
L 266.729905 -181.714722 
L 266.819044 -183.260657 
L 266.862411 -184.806591 
L 266.845445 -186.352525 
L 266.753275 -187.89846 
L 266.575887 -189.444394 
L 266.315175 -190.990328 
L 265.991445 -192.536263 
L 265.645744 -194.082197 
L 265.334865 -195.628131 
L 265.118648 -197.174066 
L 265.043184 -198.72 
L 269.600452 -198.72 
L 269.600452 -198.72 
L 269.524988 -197.174066 
L 269.308772 -195.628131 
L 268.997892 -194.082197 
L 268.652192 -192.536263 
L 268.328462 -190.990328 
L 268.067749 -189.444394 
L 267.890361 -187.89846 
L 267.798192 -186.352525 
L 267.781225 -184.806591 
L 267.824592 -183.260657 
L 267.913731 -181.714722 
L 268.036947 -180.168788 
L 268.185868 -178.622854 
L 268.354731 -177.076919 
L 268.539318 -175.530985 
L 268.736081 -173.985051 
L 268.941713 -172.439116 
L 269.153126 -170.893182 
L 269.367534 -169.347247 
L 269.582214 -167.801313 
L 269.793825 -166.255379 
L 269.997799 -164.709444 
L 270.188806 -163.16351 
L 270.362915 -161.617576 
L 270.520784 -160.071641 
L 270.669758 -158.525707 
L 270.822387 -156.979773 
L 270.990486 -155.433838 
L 271.176815 -153.887904 
L 271.36895 -152.34197 
L 271.540002 -150.796035 
L 271.657684 -149.250101 
L 271.698364 -147.704167 
L 271.659042 -146.158232 
L 271.560533 -144.612298 
L 271.439612 -143.066364 
L 271.334127 -141.520429 
L 271.269082 -139.974495 
L 271.251017 -138.428561 
L 271.27315 -136.882626 
L 271.327673 -135.336692 
L 271.417537 -133.790758 
L 271.560056 -132.244823 
L 271.778624 -130.698889 
L 272.085197 -129.152955 
L 272.462201 -127.60702 
L 272.854906 -126.061086 
L 273.181736 -124.515152 
L 273.361074 -122.969217 
L 273.343332 -121.423283 
L 273.132455 -119.877348 
L 272.785446 -118.331414 
L 272.389777 -116.78548 
L 272.030141 -115.239545 
L 271.760697 -113.693611 
L 271.594614 -112.147677 
L 271.512684 -110.601742 
L 271.483318 -109.055808 
L 271.482139 -107.509874 
L 271.501597 -105.963939 
L 271.547467 -104.418005 
L 271.626129 -102.872071 
L 271.731089 -101.326136 
L 271.837312 -99.780202 
L 271.907438 -98.234268 
L 271.907022 -96.688333 
L 271.820478 -95.142399 
L 271.658659 -93.596465 
L 271.453739 -92.05053 
L 271.244336 -90.504596 
L 271.059059 -88.958662 
L 270.906909 -87.412727 
L 270.778386 -85.866793 
L 270.655 -84.320859 
L 270.520901 -82.774924 
L 270.37032 -81.22899 
L 270.207951 -79.683056 
L 270.043616 -78.137121 
L 269.885248 -76.591187 
L 269.734144 -75.045253 
L 269.584406 -73.499318 
L 269.42601 -71.953384 
L 269.249497 -70.407449 
L 269.050213 -68.861515 
L 268.830852 -67.315581 
L 268.60219 -65.769646 
L 268.382657 -64.223712 
L 268.197696 -62.677778 
L 268.07947 -61.131843 
L 268.066495 -59.585909 
L 268.201471 -58.039975 
L 268.524797 -56.49404 
L 269.062056 -54.948106 
L 269.806854 -53.402172 
L 270.704899 -51.856237 
L 271.64856 -50.310303 
L 272.490062 -48.764369 
L 273.074445 -47.218434 
L 273.283112 -45.6725 
z
" style="stroke: #0d3b66; stroke-opacity: 0.3"/>
    </defs>
    <g clip-path="url(#p738a8280fe)">
     <use xlink:href="#m3ff948912a" x="0" y="216" style="fill: #0d3b66; fill-opacity: 0.3; stroke: #0d3b66; stroke-opacity: 0.3"/>
    </g>
   </g>
   <g id="PolyCollection_6">
    <defs>
     <path id="m0e4171fbc1" d="M 316.191337 -45.6725 
L 315.080398 -45.6725 
L 315.070242 -47.218434 
L 315.072048 -48.764369 
L 315.083134 -50.310303 
L 315.099694 -51.856237 
L 315.117257 -53.402172 
L 315.131143 -54.948106 
L 315.136816 -56.49404 
L 315.130095 -58.039975 
L 315.10722 -59.585909 
L 315.064836 -61.131843 
L 314.999973 -62.677778 
L 314.910092 -64.223712 
L 314.793242 -65.769646 
L 314.648316 -67.315581 
L 314.47535 -68.861515 
L 314.275775 -70.407449 
L 314.052517 -71.953384 
L 313.809857 -73.499318 
L 313.553006 -75.045253 
L 313.287419 -76.591187 
L 313.017963 -78.137121 
L 312.748108 -79.683056 
L 312.479371 -81.22899 
L 312.211223 -82.774924 
L 311.941575 -84.320859 
L 311.667819 -85.866793 
L 311.388238 -87.412727 
L 311.103433 -88.958662 
L 310.817375 -90.504596 
L 310.537713 -92.05053 
L 310.275186 -93.596465 
L 310.042156 -95.142399 
L 309.850593 -96.688333 
L 309.709937 -98.234268 
L 309.625331 -99.780202 
L 309.596612 -101.326136 
L 309.618272 -102.872071 
L 309.680372 -104.418005 
L 309.770204 -105.963939 
L 309.874406 -107.509874 
L 309.981136 -109.055808 
L 310.081984 -110.601742 
L 310.173294 -112.147677 
L 310.256714 -113.693611 
L 310.338837 -115.239545 
L 310.429981 -116.78548 
L 310.542279 -118.331414 
L 310.687397 -119.877348 
L 310.874298 -121.423283 
L 311.107472 -122.969217 
L 311.385988 -124.515152 
L 311.703509 -126.061086 
L 312.049239 -127.60702 
L 312.409548 -129.152955 
L 312.769903 -130.698889 
L 313.116714 -132.244823 
L 313.438784 -133.790758 
L 313.728194 -135.336692 
L 313.980594 -136.882626 
L 314.194999 -138.428561 
L 314.373248 -139.974495 
L 314.519276 -141.520429 
L 314.638341 -143.066364 
L 314.73628 -144.612298 
L 314.818853 -146.158232 
L 314.891212 -147.704167 
L 314.957516 -149.250101 
L 315.020718 -150.796035 
L 315.082529 -152.34197 
L 315.143546 -153.887904 
L 315.203505 -155.433838 
L 315.261593 -156.979773 
L 315.31677 -158.525707 
L 315.368032 -160.071641 
L 315.414588 -161.617576 
L 315.455944 -163.16351 
L 315.49191 -164.709444 
L 315.52255 -166.255379 
L 315.548112 -167.801313 
L 315.568944 -169.347247 
L 315.585431 -170.893182 
L 315.597935 -172.439116 
L 315.606742 -173.985051 
L 315.612028 -175.530985 
L 315.613825 -177.076919 
L 315.612013 -178.622854 
L 315.606331 -180.168788 
L 315.596435 -181.714722 
L 315.581992 -183.260657 
L 315.562812 -184.806591 
L 315.539007 -186.352525 
L 315.511139 -187.89846 
L 315.480322 -189.444394 
L 315.448244 -190.990328 
L 315.417078 -192.536263 
L 315.389276 -194.082197 
L 315.36727 -195.628131 
L 315.353132 -197.174066 
L 315.348257 -198.72 
L 315.923479 -198.72 
L 315.923479 -198.72 
L 315.918603 -197.174066 
L 315.904465 -195.628131 
L 315.882459 -194.082197 
L 315.854657 -192.536263 
L 315.823492 -190.990328 
L 315.791414 -189.444394 
L 315.760597 -187.89846 
L 315.732728 -186.352525 
L 315.708924 -184.806591 
L 315.689744 -183.260657 
L 315.6753 -181.714722 
L 315.665405 -180.168788 
L 315.659723 -178.622854 
L 315.65791 -177.076919 
L 315.659708 -175.530985 
L 315.664994 -173.985051 
L 315.673801 -172.439116 
L 315.686305 -170.893182 
L 315.702792 -169.347247 
L 315.723624 -167.801313 
L 315.749185 -166.255379 
L 315.779826 -164.709444 
L 315.815791 -163.16351 
L 315.857147 -161.617576 
L 315.903703 -160.071641 
L 315.954965 -158.525707 
L 316.010143 -156.979773 
L 316.068231 -155.433838 
L 316.128189 -153.887904 
L 316.189207 -152.34197 
L 316.251018 -150.796035 
L 316.314219 -149.250101 
L 316.380524 -147.704167 
L 316.452883 -146.158232 
L 316.535456 -144.612298 
L 316.633395 -143.066364 
L 316.75246 -141.520429 
L 316.898488 -139.974495 
L 317.076736 -138.428561 
L 317.291142 -136.882626 
L 317.543541 -135.336692 
L 317.832951 -133.790758 
L 318.155022 -132.244823 
L 318.501833 -130.698889 
L 318.862188 -129.152955 
L 319.222497 -127.60702 
L 319.568227 -126.061086 
L 319.885747 -124.515152 
L 320.164263 -122.969217 
L 320.397438 -121.423283 
L 320.584338 -119.877348 
L 320.729456 -118.331414 
L 320.841754 -116.78548 
L 320.932898 -115.239545 
L 321.015021 -113.693611 
L 321.098441 -112.147677 
L 321.189752 -110.601742 
L 321.290599 -109.055808 
L 321.39733 -107.509874 
L 321.501531 -105.963939 
L 321.591364 -104.418005 
L 321.653463 -102.872071 
L 321.675124 -101.326136 
L 321.646405 -99.780202 
L 321.561798 -98.234268 
L 321.421143 -96.688333 
L 321.22958 -95.142399 
L 320.99655 -93.596465 
L 320.734022 -92.05053 
L 320.454361 -90.504596 
L 320.168302 -88.958662 
L 319.883498 -87.412727 
L 319.603916 -85.866793 
L 319.33016 -84.320859 
L 319.060512 -82.774924 
L 318.792365 -81.22899 
L 318.523628 -79.683056 
L 318.253772 -78.137121 
L 317.984316 -76.591187 
L 317.71873 -75.045253 
L 317.461879 -73.499318 
L 317.219219 -71.953384 
L 316.995961 -70.407449 
L 316.796385 -68.861515 
L 316.623419 -67.315581 
L 316.478494 -65.769646 
L 316.361644 -64.223712 
L 316.271763 -62.677778 
L 316.2069 -61.131843 
L 316.164515 -59.585909 
L 316.14164 -58.039975 
L 316.134919 -56.49404 
L 316.140593 -54.948106 
L 316.154478 -53.402172 
L 316.172042 -51.856237 
L 316.188602 -50.310303 
L 316.199688 -48.764369 
L 316.201494 -47.218434 
L 316.191337 -45.6725 
z
" style="stroke: #0d3b66; stroke-opacity: 0.3"/>
    </defs>
    <g clip-path="url(#p738a8280fe)">
     <use xlink:href="#m0e4171fbc1" x="0" y="216" style="fill: #0d3b66; fill-opacity: 0.3; stroke: #0d3b66; stroke-opacity: 0.3"/>
    </g>
   </g>
   <g id="PolyCollection_7">
    <defs>
     <path id="m6d217a99f4" d="M 86.978921 -45.6725 
L 85.309344 -45.6725 
L 85.411084 -47.218434 
L 85.647591 -48.764369 
L 85.883852 -50.310303 
L 86.036112 -51.856237 
L 86.102814 -53.402172 
L 86.118625 -54.948106 
L 86.112127 -56.49404 
L 86.096282 -58.039975 
L 86.074257 -59.585909 
L 86.045379 -61.131843 
L 86.009046 -62.677778 
L 85.967488 -64.223712 
L 85.925782 -65.769646 
L 85.887838 -67.315581 
L 85.852256 -68.861515 
L 85.813356 -70.407449 
L 85.766075 -71.953384 
L 85.71103 -73.499318 
L 85.65756 -75.045253 
L 85.616962 -76.591187 
L 85.585516 -78.137121 
L 85.540781 -79.683056 
L 85.466129 -81.22899 
L 85.374761 -82.774924 
L 85.295767 -84.320859 
L 85.23781 -85.866793 
L 85.182533 -87.412727 
L 85.111099 -88.958662 
L 85.013718 -90.504596 
L 84.873819 -92.05053 
L 84.676205 -93.596465 
L 84.445186 -95.142399 
L 84.243004 -96.688333 
L 84.103068 -98.234268 
L 83.987654 -99.780202 
L 83.833442 -101.326136 
L 83.614602 -102.872071 
L 83.35029 -104.418005 
L 83.078266 -105.963939 
L 82.82888 -107.509874 
L 82.608738 -109.055808 
L 82.409078 -110.601742 
L 82.229199 -112.147677 
L 82.076869 -113.693611 
L 81.93669 -115.239545 
L 81.738842 -116.78548 
L 81.389772 -118.331414 
L 80.895192 -119.877348 
L 80.4408 -121.423283 
L 80.242195 -122.969217 
L 80.297302 -124.515152 
L 80.396617 -126.061086 
L 80.378335 -127.60702 
L 80.263157 -129.152955 
L 80.152782 -130.698889 
L 80.104876 -132.244823 
L 80.120509 -133.790758 
L 80.188197 -135.336692 
L 80.307702 -136.882626 
L 80.478644 -138.428561 
L 80.681167 -139.974495 
L 80.879114 -141.520429 
L 81.039756 -143.066364 
L 81.153924 -144.612298 
L 81.257191 -146.158232 
L 81.420255 -147.704167 
L 81.682197 -149.250101 
L 82.005109 -150.796035 
L 82.32343 -152.34197 
L 82.612207 -153.887904 
L 82.882326 -155.433838 
L 83.139831 -156.979773 
L 83.379807 -158.525707 
L 83.605904 -160.071641 
L 83.830714 -161.617576 
L 84.058064 -163.16351 
L 84.279175 -164.709444 
L 84.484745 -166.255379 
L 84.672534 -167.801313 
L 84.845676 -169.347247 
L 85.009273 -170.893182 
L 85.168056 -172.439116 
L 85.322557 -173.985051 
L 85.466071 -175.530985 
L 85.589594 -177.076919 
L 85.690867 -178.622854 
L 85.775046 -180.168788 
L 85.847449 -181.714722 
L 85.909869 -183.260657 
L 85.962958 -184.806591 
L 86.007999 -186.352525 
L 86.045577 -187.89846 
L 86.073824 -189.444394 
L 86.086941 -190.990328 
L 86.073593 -192.536263 
L 86.020494 -194.082197 
L 85.929192 -195.628131 
L 85.835093 -197.174066 
L 85.795018 -198.72 
L 86.493247 -198.72 
L 86.493247 -198.72 
L 86.453171 -197.174066 
L 86.359073 -195.628131 
L 86.26777 -194.082197 
L 86.214671 -192.536263 
L 86.201323 -190.990328 
L 86.21444 -189.444394 
L 86.242687 -187.89846 
L 86.280266 -186.352525 
L 86.325306 -184.806591 
L 86.378396 -183.260657 
L 86.440816 -181.714722 
L 86.513219 -180.168788 
L 86.597398 -178.622854 
L 86.698671 -177.076919 
L 86.822193 -175.530985 
L 86.965707 -173.985051 
L 87.120209 -172.439116 
L 87.278991 -170.893182 
L 87.442588 -169.347247 
L 87.615731 -167.801313 
L 87.80352 -166.255379 
L 88.00909 -164.709444 
L 88.2302 -163.16351 
L 88.45755 -161.617576 
L 88.682361 -160.071641 
L 88.908458 -158.525707 
L 89.148433 -156.979773 
L 89.405938 -155.433838 
L 89.676057 -153.887904 
L 89.964835 -152.34197 
L 90.283156 -150.796035 
L 90.606068 -149.250101 
L 90.86801 -147.704167 
L 91.031073 -146.158232 
L 91.13434 -144.612298 
L 91.248508 -143.066364 
L 91.40915 -141.520429 
L 91.607098 -139.974495 
L 91.809621 -138.428561 
L 91.980563 -136.882626 
L 92.100068 -135.336692 
L 92.167755 -133.790758 
L 92.183388 -132.244823 
L 92.135482 -130.698889 
L 92.025108 -129.152955 
L 91.90993 -127.60702 
L 91.891647 -126.061086 
L 91.990962 -124.515152 
L 92.04607 -122.969217 
L 91.847464 -121.423283 
L 91.393072 -119.877348 
L 90.898493 -118.331414 
L 90.549423 -116.78548 
L 90.351575 -115.239545 
L 90.211395 -113.693611 
L 90.059065 -112.147677 
L 89.879187 -110.601742 
L 89.679526 -109.055808 
L 89.459385 -107.509874 
L 89.209999 -105.963939 
L 88.937974 -104.418005 
L 88.673663 -102.872071 
L 88.454823 -101.326136 
L 88.30061 -99.780202 
L 88.185196 -98.234268 
L 88.04526 -96.688333 
L 87.843078 -95.142399 
L 87.61206 -93.596465 
L 87.414446 -92.05053 
L 87.274547 -90.504596 
L 87.177165 -88.958662 
L 87.105732 -87.412727 
L 87.050455 -85.866793 
L 86.992498 -84.320859 
L 86.913504 -82.774924 
L 86.822136 -81.22899 
L 86.747484 -79.683056 
L 86.702748 -78.137121 
L 86.671303 -76.591187 
L 86.630704 -75.045253 
L 86.577234 -73.499318 
L 86.52219 -71.953384 
L 86.474908 -70.407449 
L 86.436009 -68.861515 
L 86.400427 -67.315581 
L 86.362483 -65.769646 
L 86.320777 -64.223712 
L 86.279218 -62.677778 
L 86.242885 -61.131843 
L 86.214008 -59.585909 
L 86.191983 -58.039975 
L 86.176137 -56.49404 
L 86.169639 -54.948106 
L 86.18545 -53.402172 
L 86.252152 -51.856237 
L 86.404412 -50.310303 
L 86.640673 -48.764369 
L 86.877181 -47.218434 
L 86.978921 -45.6725 
z
" style="stroke: #bf4e30; stroke-opacity: 0.3"/>
    </defs>
    <g clip-path="url(#p738a8280fe)">
     <use xlink:href="#m6d217a99f4" x="0" y="216" style="fill: #bf4e30; fill-opacity: 0.3; stroke: #bf4e30; stroke-opacity: 0.3"/>
    </g>
   </g>
   <g id="PolyCollection_8">
    <defs>
     <path id="m70cc5cd12a" d="M 134.791777 -45.6725 
L 134.124587 -45.6725 
L 134.136968 -47.218434 
L 134.171919 -48.764369 
L 134.22089 -50.310303 
L 134.273038 -51.856237 
L 134.318448 -53.402172 
L 134.350427 -54.948106 
L 134.366243 -56.49404 
L 134.366591 -58.039975 
L 134.354398 -59.585909 
L 134.333611 -61.131843 
L 134.308196 -62.677778 
L 134.28141 -64.223712 
L 134.255296 -65.769646 
L 134.230497 -67.315581 
L 134.206436 -68.861515 
L 134.181831 -70.407449 
L 134.155321 -71.953384 
L 134.125868 -73.499318 
L 134.092801 -75.045253 
L 134.055569 -76.591187 
L 134.0135 -78.137121 
L 133.965778 -79.683056 
L 133.911587 -81.22899 
L 133.850182 -82.774924 
L 133.780704 -84.320859 
L 133.701905 -85.866793 
L 133.612193 -87.412727 
L 133.510339 -88.958662 
L 133.396679 -90.504596 
L 133.27404 -92.05053 
L 133.147475 -93.596465 
L 133.022402 -95.142399 
L 132.901761 -96.688333 
L 132.783618 -98.234268 
L 132.660605 -99.780202 
L 132.521658 -101.326136 
L 132.355235 -102.872071 
L 132.152499 -104.418005 
L 131.909196 -105.963939 
L 131.62587 -107.509874 
L 131.306974 -109.055808 
L 130.95972 -110.601742 
L 130.593317 -112.147677 
L 130.218816 -113.693611 
L 129.849354 -115.239545 
L 129.500256 -116.78548 
L 129.188113 -118.331414 
L 128.928141 -119.877348 
L 128.730087 -121.423283 
L 128.594451 -122.969217 
L 128.511533 -124.515152 
L 128.464853 -126.061086 
L 128.438044 -127.60702 
L 128.422021 -129.152955 
L 128.418926 -130.698889 
L 128.441018 -132.244823 
L 128.505297 -133.790758 
L 128.626398 -135.336692 
L 128.810677 -136.882626 
L 129.053582 -138.428561 
L 129.341047 -139.974495 
L 129.654175 -141.520429 
L 129.975239 -143.066364 
L 130.292472 -144.612298 
L 130.601675 -146.158232 
L 130.904194 -147.704167 
L 131.202612 -149.250101 
L 131.496577 -150.796035 
L 131.780897 -152.34197 
L 132.046677 -153.887904 
L 132.284621 -155.433838 
L 132.48866 -156.979773 
L 132.658189 -158.525707 
L 132.798123 -160.071641 
L 132.917096 -161.617576 
L 133.024801 -163.16351 
L 133.129509 -164.709444 
L 133.23644 -166.255379 
L 133.347184 -167.801313 
L 133.460089 -169.347247 
L 133.571385 -170.893182 
L 133.676666 -172.439116 
L 133.772289 -173.985051 
L 133.856275 -175.530985 
L 133.928525 -177.076919 
L 133.990443 -178.622854 
L 134.044205 -180.168788 
L 134.091897 -181.714722 
L 134.134642 -183.260657 
L 134.171835 -184.806591 
L 134.200747 -186.352525 
L 134.216854 -187.89846 
L 134.215216 -189.444394 
L 134.192784 -190.990328 
L 134.150924 -192.536263 
L 134.096941 -194.082197 
L 134.04345 -195.628131 
L 134.005228 -197.174066 
L 133.994531 -198.72 
L 134.921833 -198.72 
L 134.921833 -198.72 
L 134.911136 -197.174066 
L 134.872914 -195.628131 
L 134.819422 -194.082197 
L 134.76544 -192.536263 
L 134.723579 -190.990328 
L 134.701147 -189.444394 
L 134.69951 -187.89846 
L 134.715617 -186.352525 
L 134.744529 -184.806591 
L 134.781722 -183.260657 
L 134.824467 -181.714722 
L 134.872159 -180.168788 
L 134.925921 -178.622854 
L 134.987839 -177.076919 
L 135.060089 -175.530985 
L 135.144075 -173.985051 
L 135.239698 -172.439116 
L 135.344979 -170.893182 
L 135.456275 -169.347247 
L 135.56918 -167.801313 
L 135.679924 -166.255379 
L 135.786855 -164.709444 
L 135.891563 -163.16351 
L 135.999267 -161.617576 
L 136.118241 -160.071641 
L 136.258175 -158.525707 
L 136.427704 -156.979773 
L 136.631743 -155.433838 
L 136.869687 -153.887904 
L 137.135467 -152.34197 
L 137.419786 -150.796035 
L 137.713751 -149.250101 
L 138.01217 -147.704167 
L 138.314689 -146.158232 
L 138.623892 -144.612298 
L 138.941125 -143.066364 
L 139.262188 -141.520429 
L 139.575317 -139.974495 
L 139.862782 -138.428561 
L 140.105687 -136.882626 
L 140.289966 -135.336692 
L 140.411066 -133.790758 
L 140.475345 -132.244823 
L 140.497438 -130.698889 
L 140.494343 -129.152955 
L 140.47832 -127.60702 
L 140.45151 -126.061086 
L 140.404831 -124.515152 
L 140.321912 -122.969217 
L 140.186276 -121.423283 
L 139.988222 -119.877348 
L 139.72825 -118.331414 
L 139.416108 -116.78548 
L 139.06701 -115.239545 
L 138.697547 -113.693611 
L 138.323046 -112.147677 
L 137.956644 -110.601742 
L 137.609389 -109.055808 
L 137.290493 -107.509874 
L 137.007168 -105.963939 
L 136.763864 -104.418005 
L 136.561129 -102.872071 
L 136.394705 -101.326136 
L 136.255758 -99.780202 
L 136.132746 -98.234268 
L 136.014603 -96.688333 
L 135.893962 -95.142399 
L 135.768889 -93.596465 
L 135.642324 -92.05053 
L 135.519684 -90.504596 
L 135.406024 -88.958662 
L 135.304171 -87.412727 
L 135.214458 -85.866793 
L 135.135659 -84.320859 
L 135.066182 -82.774924 
L 135.004777 -81.22899 
L 134.950586 -79.683056 
L 134.902864 -78.137121 
L 134.860795 -76.591187 
L 134.823563 -75.045253 
L 134.790496 -73.499318 
L 134.761043 -71.953384 
L 134.734532 -70.407449 
L 134.709928 -68.861515 
L 134.685866 -67.315581 
L 134.661067 -65.769646 
L 134.634954 -64.223712 
L 134.608167 -62.677778 
L 134.582753 -61.131843 
L 134.561966 -59.585909 
L 134.549773 -58.039975 
L 134.55012 -56.49404 
L 134.565937 -54.948106 
L 134.597915 -53.402172 
L 134.643326 -51.856237 
L 134.695474 -50.310303 
L 134.744445 -48.764369 
L 134.779395 -47.218434 
L 134.791777 -45.6725 
z
" style="stroke: #bf4e30; stroke-opacity: 0.3"/>
    </defs>
    <g clip-path="url(#p738a8280fe)">
     <use xlink:href="#m70cc5cd12a" x="0" y="216" style="fill: #bf4e30; fill-opacity: 0.3; stroke: #bf4e30; stroke-opacity: 0.3"/>
    </g>
   </g>
   <g id="PolyCollection_9">
    <defs>
     <path id="m362fcfb49b" d="M 183.261292 -45.6725 
L 182.283171 -45.6725 
L 182.290947 -47.218434 
L 182.313652 -48.764369 
L 182.349071 -50.310303 
L 182.393887 -51.856237 
L 182.444141 -53.402172 
L 182.495723 -54.948106 
L 182.544814 -56.49404 
L 182.588196 -58.039975 
L 182.623403 -59.585909 
L 182.648707 -61.131843 
L 182.663 -62.677778 
L 182.665613 -64.223712 
L 182.656142 -65.769646 
L 182.634329 -67.315581 
L 182.600017 -68.861515 
L 182.553183 -70.407449 
L 182.494025 -71.953384 
L 182.42306 -73.499318 
L 182.341187 -75.045253 
L 182.249673 -76.591187 
L 182.150047 -78.137121 
L 182.043894 -79.683056 
L 181.932587 -81.22899 
L 181.817018 -82.774924 
L 181.697376 -84.320859 
L 181.573046 -85.866793 
L 181.442671 -87.412727 
L 181.304359 -88.958662 
L 181.156021 -90.504596 
L 180.99579 -92.05053 
L 180.822419 -93.596465 
L 180.635616 -95.142399 
L 180.436251 -96.688333 
L 180.226389 -98.234268 
L 180.009148 -99.780202 
L 179.788381 -101.326136 
L 179.568223 -102.872071 
L 179.352561 -104.418005 
L 179.144503 -105.963939 
L 178.945949 -107.509874 
L 178.757363 -109.055808 
L 178.577801 -110.601742 
L 178.405217 -112.147677 
L 178.237003 -113.693611 
L 178.070652 -115.239545 
L 177.9044 -116.78548 
L 177.737734 -118.331414 
L 177.571656 -119.877348 
L 177.408688 -121.423283 
L 177.252644 -122.969217 
L 177.10825 -124.515152 
L 176.980681 -126.061086 
L 176.8751 -127.60702 
L 176.796219 -129.152955 
L 176.747926 -130.698889 
L 176.732975 -132.244823 
L 176.752782 -133.790758 
L 176.807343 -135.336692 
L 176.895305 -136.882626 
L 177.014202 -138.428561 
L 177.160808 -139.974495 
L 177.331563 -141.520429 
L 177.522967 -143.066364 
L 177.731877 -144.612298 
L 177.955649 -146.158232 
L 178.192112 -147.704167 
L 178.439421 -149.250101 
L 178.695835 -150.796035 
L 178.959506 -152.34197 
L 179.228329 -153.887904 
L 179.499875 -155.433838 
L 179.771427 -156.979773 
L 180.040076 -158.525707 
L 180.302858 -160.071641 
L 180.556892 -161.617576 
L 180.799512 -163.16351 
L 181.028365 -164.709444 
L 181.241495 -166.255379 
L 181.437401 -167.801313 
L 181.615081 -169.347247 
L 181.774048 -170.893182 
L 181.91431 -172.439116 
L 182.036298 -173.985051 
L 182.140754 -175.530985 
L 182.228584 -177.076919 
L 182.300697 -178.622854 
L 182.357892 -180.168788 
L 182.400808 -181.714722 
L 182.429972 -183.260657 
L 182.445949 -184.806591 
L 182.449568 -186.352525 
L 182.44216 -187.89846 
L 182.425748 -189.444394 
L 182.403123 -190.990328 
L 182.377749 -192.536263 
L 182.353497 -194.082197 
L 182.334234 -195.628131 
L 182.323345 -197.174066 
L 182.323283 -198.72 
L 183.221179 -198.72 
L 183.221179 -198.72 
L 183.221118 -197.174066 
L 183.210229 -195.628131 
L 183.190966 -194.082197 
L 183.166714 -192.536263 
L 183.14134 -190.990328 
L 183.118715 -189.444394 
L 183.102303 -187.89846 
L 183.094894 -186.352525 
L 183.098514 -184.806591 
L 183.114491 -183.260657 
L 183.143655 -181.714722 
L 183.186571 -180.168788 
L 183.243766 -178.622854 
L 183.315879 -177.076919 
L 183.403708 -175.530985 
L 183.508165 -173.985051 
L 183.630153 -172.439116 
L 183.770414 -170.893182 
L 183.929382 -169.347247 
L 184.107062 -167.801313 
L 184.302968 -166.255379 
L 184.516097 -164.709444 
L 184.744951 -163.16351 
L 184.987571 -161.617576 
L 185.241605 -160.071641 
L 185.504386 -158.525707 
L 185.773035 -156.979773 
L 186.044588 -155.433838 
L 186.316134 -153.887904 
L 186.584957 -152.34197 
L 186.848628 -150.796035 
L 187.105042 -149.250101 
L 187.352351 -147.704167 
L 187.588814 -146.158232 
L 187.812586 -144.612298 
L 188.021496 -143.066364 
L 188.2129 -141.520429 
L 188.383655 -139.974495 
L 188.530261 -138.428561 
L 188.649157 -136.882626 
L 188.73712 -135.336692 
L 188.79168 -133.790758 
L 188.811488 -132.244823 
L 188.796537 -130.698889 
L 188.748243 -129.152955 
L 188.669363 -127.60702 
L 188.563781 -126.061086 
L 188.436213 -124.515152 
L 188.291818 -122.969217 
L 188.135775 -121.423283 
L 187.972807 -119.877348 
L 187.806729 -118.331414 
L 187.640063 -116.78548 
L 187.473811 -115.239545 
L 187.307459 -113.693611 
L 187.139246 -112.147677 
L 186.966662 -110.601742 
L 186.7871 -109.055808 
L 186.598514 -107.509874 
L 186.39996 -105.963939 
L 186.191902 -104.418005 
L 185.97624 -102.872071 
L 185.756082 -101.326136 
L 185.535315 -99.780202 
L 185.318074 -98.234268 
L 185.108212 -96.688333 
L 184.908847 -95.142399 
L 184.722044 -93.596465 
L 184.548672 -92.05053 
L 184.388441 -90.504596 
L 184.240104 -88.958662 
L 184.101791 -87.412727 
L 183.971417 -85.866793 
L 183.847087 -84.320859 
L 183.727444 -82.774924 
L 183.611875 -81.22899 
L 183.500569 -79.683056 
L 183.394416 -78.137121 
L 183.29479 -76.591187 
L 183.203276 -75.045253 
L 183.121403 -73.499318 
L 183.050438 -71.953384 
L 182.99128 -70.407449 
L 182.944446 -68.861515 
L 182.910133 -67.315581 
L 182.88832 -65.769646 
L 182.87885 -64.223712 
L 182.881462 -62.677778 
L 182.895755 -61.131843 
L 182.92106 -59.585909 
L 182.956266 -58.039975 
L 182.999649 -56.49404 
L 183.04874 -54.948106 
L 183.100321 -53.402172 
L 183.150575 -51.856237 
L 183.195392 -50.310303 
L 183.230811 -48.764369 
L 183.253516 -47.218434 
L 183.261292 -45.6725 
z
" style="stroke: #bf4e30; stroke-opacity: 0.3"/>
    </defs>
    <g clip-path="url(#p738a8280fe)">
     <use xlink:href="#m362fcfb49b" x="0" y="216" style="fill: #bf4e30; fill-opacity: 0.3; stroke: #bf4e30; stroke-opacity: 0.3"/>
    </g>
   </g>
   <g id="PolyCollection_10">
    <defs>
     <path id="m9bb2034054" d="M 234.312453 -45.6725 
L 227.860109 -45.6725 
L 228.008161 -47.218434 
L 228.412788 -48.764369 
L 228.972171 -50.310303 
L 229.56354 -51.856237 
L 230.085736 -53.402172 
L 230.483346 -54.948106 
L 230.746752 -56.49404 
L 230.896087 -58.039975 
L 230.961908 -59.585909 
L 230.971665 -61.131843 
L 230.944355 -62.677778 
L 230.8911 -64.223712 
L 230.818158 -65.769646 
L 230.729826 -67.315581 
L 230.63015 -68.861515 
L 230.523241 -70.407449 
L 230.412524 -71.953384 
L 230.299521 -73.499318 
L 230.183234 -75.045253 
L 230.061386 -76.591187 
L 229.933878 -78.137121 
L 229.806821 -79.683056 
L 229.69353 -81.22899 
L 229.609459 -82.774924 
L 229.561892 -84.320859 
L 229.540201 -85.866793 
L 229.514353 -87.412727 
L 229.445723 -88.958662 
L 229.306661 -90.504596 
L 229.098452 -92.05053 
L 228.856063 -93.596465 
L 228.634377 -95.142399 
L 228.481747 -96.688333 
L 228.415894 -98.234268 
L 228.417233 -99.780202 
L 228.444086 -101.326136 
L 228.459622 -102.872071 
L 228.452489 -104.418005 
L 228.437797 -105.963939 
L 228.438383 -107.509874 
L 228.458375 -109.055808 
L 228.46488 -110.601742 
L 228.389079 -112.147677 
L 228.14969 -113.693611 
L 227.692623 -115.239545 
L 227.031651 -116.78548 
L 226.268558 -118.331414 
L 225.574168 -119.877348 
L 225.12893 -121.423283 
L 225.047025 -122.969217 
L 225.323739 -124.515152 
L 225.836704 -126.061086 
L 226.400792 -127.60702 
L 226.845643 -129.152955 
L 227.07561 -130.698889 
L 227.087724 -132.244823 
L 226.948813 -133.790758 
L 226.750682 -135.336692 
L 226.566103 -136.882626 
L 226.42292 -138.428561 
L 226.304622 -139.974495 
L 226.174968 -141.520429 
L 226.012825 -143.066364 
L 225.836381 -144.612298 
L 225.700423 -146.158232 
L 225.666742 -147.704167 
L 225.766229 -149.250101 
L 225.97758 -150.796035 
L 226.236399 -152.34197 
L 226.468031 -153.887904 
L 226.623148 -155.433838 
L 226.695958 -156.979773 
L 226.718017 -158.525707 
L 226.735523 -160.071641 
L 226.78552 -161.617576 
L 226.883788 -163.16351 
L 227.027579 -164.709444 
L 227.206743 -166.255379 
L 227.413396 -167.801313 
L 227.644403 -169.347247 
L 227.898098 -170.893182 
L 228.170556 -172.439116 
L 228.455142 -173.985051 
L 228.744836 -175.530985 
L 229.034426 -177.076919 
L 229.320321 -178.622854 
L 229.59802 -180.168788 
L 229.858656 -181.714722 
L 230.085781 -183.260657 
L 230.252801 -184.806591 
L 230.321587 -186.352525 
L 230.244447 -187.89846 
L 229.973426 -189.444394 
L 229.479923 -190.990328 
L 228.781536 -192.536263 
L 227.963701 -194.082197 
L 227.1782 -195.628131 
L 226.607331 -197.174066 
L 226.40194 -198.72 
L 235.770622 -198.72 
L 235.770622 -198.72 
L 235.565231 -197.174066 
L 234.994362 -195.628131 
L 234.208861 -194.082197 
L 233.391026 -192.536263 
L 232.692639 -190.990328 
L 232.199135 -189.444394 
L 231.928115 -187.89846 
L 231.850975 -186.352525 
L 231.919761 -184.806591 
L 232.086781 -183.260657 
L 232.313906 -181.714722 
L 232.574542 -180.168788 
L 232.852241 -178.622854 
L 233.138136 -177.076919 
L 233.427726 -175.530985 
L 233.71742 -173.985051 
L 234.002006 -172.439116 
L 234.274464 -170.893182 
L 234.528159 -169.347247 
L 234.759166 -167.801313 
L 234.965819 -166.255379 
L 235.144983 -164.709444 
L 235.288774 -163.16351 
L 235.387042 -161.617576 
L 235.437039 -160.071641 
L 235.454545 -158.525707 
L 235.476604 -156.979773 
L 235.549414 -155.433838 
L 235.704531 -153.887904 
L 235.936163 -152.34197 
L 236.194982 -150.796035 
L 236.406333 -149.250101 
L 236.50582 -147.704167 
L 236.472139 -146.158232 
L 236.336181 -144.612298 
L 236.159737 -143.066364 
L 235.997594 -141.520429 
L 235.86794 -139.974495 
L 235.749641 -138.428561 
L 235.606459 -136.882626 
L 235.42188 -135.336692 
L 235.223749 -133.790758 
L 235.084838 -132.244823 
L 235.096952 -130.698889 
L 235.326919 -129.152955 
L 235.77177 -127.60702 
L 236.335858 -126.061086 
L 236.848823 -124.515152 
L 237.125537 -122.969217 
L 237.043632 -121.423283 
L 236.598394 -119.877348 
L 235.904004 -118.331414 
L 235.140911 -116.78548 
L 234.479939 -115.239545 
L 234.022872 -113.693611 
L 233.783483 -112.147677 
L 233.707682 -110.601742 
L 233.714187 -109.055808 
L 233.734179 -107.509874 
L 233.734765 -105.963939 
L 233.720073 -104.418005 
L 233.71294 -102.872071 
L 233.728476 -101.326136 
L 233.755329 -99.780202 
L 233.756668 -98.234268 
L 233.690815 -96.688333 
L 233.538185 -95.142399 
L 233.316499 -93.596465 
L 233.07411 -92.05053 
L 232.865901 -90.504596 
L 232.726839 -88.958662 
L 232.658209 -87.412727 
L 232.632361 -85.866793 
L 232.61067 -84.320859 
L 232.563103 -82.774924 
L 232.479032 -81.22899 
L 232.365741 -79.683056 
L 232.238684 -78.137121 
L 232.111176 -76.591187 
L 231.989328 -75.045253 
L 231.873041 -73.499318 
L 231.760038 -71.953384 
L 231.649321 -70.407449 
L 231.542412 -68.861515 
L 231.442736 -67.315581 
L 231.354404 -65.769646 
L 231.281462 -64.223712 
L 231.228207 -62.677778 
L 231.200897 -61.131843 
L 231.210654 -59.585909 
L 231.276475 -58.039975 
L 231.42581 -56.49404 
L 231.689216 -54.948106 
L 232.086826 -53.402172 
L 232.609022 -51.856237 
L 233.200391 -50.310303 
L 233.759774 -48.764369 
L 234.164401 -47.218434 
L 234.312453 -45.6725 
z
" style="stroke: #bf4e30; stroke-opacity: 0.3"/>
    </defs>
    <g clip-path="url(#p738a8280fe)">
     <use xlink:href="#m9bb2034054" x="0" y="216" style="fill: #bf4e30; fill-opacity: 0.3; stroke: #bf4e30; stroke-opacity: 0.3"/>
    </g>
   </g>
   <g id="PolyCollection_11">
    <defs>
     <path id="m57ac2c4578" d="M 281.705555 -45.6725 
L 277.095106 -45.6725 
L 277.179669 -47.218434 
L 277.415307 -48.764369 
L 277.753425 -50.310303 
L 278.131305 -51.856237 
L 278.490589 -53.402172 
L 278.790723 -54.948106 
L 279.013568 -56.49404 
L 279.159996 -58.039975 
L 279.242289 -59.585909 
L 279.276448 -61.131843 
L 279.276919 -62.677778 
L 279.254296 -64.223712 
L 279.21522 -65.769646 
L 279.163379 -67.315581 
L 279.100697 -68.861515 
L 279.028244 -70.407449 
L 278.946752 -71.953384 
L 278.856887 -73.499318 
L 278.759595 -75.045253 
L 278.656704 -76.591187 
L 278.551649 -78.137121 
L 278.449626 -79.683056 
L 278.356375 -81.22899 
L 278.275361 -82.774924 
L 278.204373 -84.320859 
L 278.133736 -85.866793 
L 278.048266 -87.412727 
L 277.933482 -88.958662 
L 277.78388 -90.504596 
L 277.609037 -92.05053 
L 277.433473 -93.596465 
L 277.289012 -95.142399 
L 277.202562 -96.688333 
L 277.185224 -98.234268 
L 277.228342 -99.780202 
L 277.308361 -101.326136 
L 277.397391 -102.872071 
L 277.473318 -104.418005 
L 277.523934 -105.963939 
L 277.543454 -107.509874 
L 277.524424 -109.055808 
L 277.450935 -110.601742 
L 277.298789 -112.147677 
L 277.044909 -113.693611 
L 276.68312 -115.239545 
L 276.238683 -116.78548 
L 275.772307 -118.331414 
L 275.367819 -119.877348 
L 275.105634 -121.423283 
L 275.032719 -122.969217 
L 275.143416 -124.515152 
L 275.381142 -126.061086 
L 275.660461 -127.60702 
L 275.898664 -129.152955 
L 276.041941 -130.698889 
L 276.075396 -132.244823 
L 276.015267 -133.790758 
L 275.890344 -135.336692 
L 275.723391 -136.882626 
L 275.521802 -138.428561 
L 275.281007 -139.974495 
L 274.997367 -141.520429 
L 274.6822 -143.066364 
L 274.367768 -144.612298 
L 274.100386 -146.158232 
L 273.923374 -147.704167 
L 273.858995 -149.250101 
L 273.899463 -150.796035 
L 274.01189 -152.34197 
L 274.153859 -153.887904 
L 274.290793 -155.433838 
L 274.406423 -156.979773 
L 274.502792 -158.525707 
L 274.592354 -160.071641 
L 274.688117 -161.617576 
L 274.797154 -163.16351 
L 274.919508 -164.709444 
L 275.051114 -166.255379 
L 275.187915 -167.801313 
L 275.328902 -169.347247 
L 275.477362 -170.893182 
L 275.640598 -172.439116 
L 275.828505 -173.985051 
L 276.051041 -175.530985 
L 276.314694 -177.076919 
L 276.618494 -178.622854 
L 276.950506 -180.168788 
L 277.285625 -181.714722 
L 277.585056 -183.260657 
L 277.797776 -184.806591 
L 277.864945 -186.352525 
L 277.729053 -187.89846 
L 277.349204 -189.444394 
L 276.721096 -190.990328 
L 275.895545 -192.536263 
L 274.985377 -194.082197 
L 274.151341 -195.628131 
L 273.565332 -197.174066 
L 273.361074 -198.72 
L 285.439587 -198.72 
L 285.439587 -198.72 
L 285.235329 -197.174066 
L 284.64932 -195.628131 
L 283.815285 -194.082197 
L 282.905116 -192.536263 
L 282.079565 -190.990328 
L 281.451457 -189.444394 
L 281.071608 -187.89846 
L 280.935717 -186.352525 
L 281.002885 -184.806591 
L 281.215605 -183.260657 
L 281.515036 -181.714722 
L 281.850155 -180.168788 
L 282.182167 -178.622854 
L 282.485967 -177.076919 
L 282.749621 -175.530985 
L 282.972157 -173.985051 
L 283.160063 -172.439116 
L 283.323299 -170.893182 
L 283.471759 -169.347247 
L 283.612746 -167.801313 
L 283.749547 -166.255379 
L 283.881154 -164.709444 
L 284.003507 -163.16351 
L 284.112544 -161.617576 
L 284.208307 -160.071641 
L 284.297869 -158.525707 
L 284.394239 -156.979773 
L 284.509868 -155.433838 
L 284.646802 -153.887904 
L 284.788772 -152.34197 
L 284.901198 -150.796035 
L 284.941666 -149.250101 
L 284.877287 -147.704167 
L 284.700275 -146.158232 
L 284.432893 -144.612298 
L 284.118461 -143.066364 
L 283.803294 -141.520429 
L 283.519654 -139.974495 
L 283.278859 -138.428561 
L 283.07727 -136.882626 
L 282.910318 -135.336692 
L 282.785394 -133.790758 
L 282.725266 -132.244823 
L 282.75872 -130.698889 
L 282.901997 -129.152955 
L 283.1402 -127.60702 
L 283.419519 -126.061086 
L 283.657246 -124.515152 
L 283.767943 -122.969217 
L 283.695027 -121.423283 
L 283.432842 -119.877348 
L 283.028354 -118.331414 
L 282.561978 -116.78548 
L 282.117541 -115.239545 
L 281.755752 -113.693611 
L 281.501872 -112.147677 
L 281.349726 -110.601742 
L 281.276237 -109.055808 
L 281.257207 -107.509874 
L 281.276727 -105.963939 
L 281.327343 -104.418005 
L 281.40327 -102.872071 
L 281.4923 -101.326136 
L 281.572319 -99.780202 
L 281.615437 -98.234268 
L 281.598099 -96.688333 
L 281.511649 -95.142399 
L 281.367188 -93.596465 
L 281.191624 -92.05053 
L 281.016781 -90.504596 
L 280.867179 -88.958662 
L 280.752395 -87.412727 
L 280.666925 -85.866793 
L 280.596288 -84.320859 
L 280.5253 -82.774924 
L 280.444286 -81.22899 
L 280.351036 -79.683056 
L 280.249012 -78.137121 
L 280.143957 -76.591187 
L 280.041066 -75.045253 
L 279.943774 -73.499318 
L 279.85391 -71.953384 
L 279.772417 -70.407449 
L 279.699964 -68.861515 
L 279.637282 -67.315581 
L 279.585442 -65.769646 
L 279.546365 -64.223712 
L 279.523742 -62.677778 
L 279.524213 -61.131843 
L 279.558372 -59.585909 
L 279.640665 -58.039975 
L 279.787093 -56.49404 
L 280.009938 -54.948106 
L 280.310073 -53.402172 
L 280.669357 -51.856237 
L 281.047236 -50.310303 
L 281.385354 -48.764369 
L 281.620992 -47.218434 
L 281.705555 -45.6725 
z
" style="stroke: #bf4e30; stroke-opacity: 0.3"/>
    </defs>
    <g clip-path="url(#p738a8280fe)">
     <use xlink:href="#m57ac2c4578" x="0" y="216" style="fill: #bf4e30; fill-opacity: 0.3; stroke: #bf4e30; stroke-opacity: 0.3"/>
    </g>
   </g>
   <g id="PolyCollection_12">
    <defs>
     <path id="m6a1890a539" d="M 327.802107 -45.6725 
L 327.626653 -45.6725 
L 327.62749 -47.218434 
L 327.630201 -48.764369 
L 327.63447 -50.310303 
L 327.639817 -51.856237 
L 327.645613 -53.402172 
L 327.651102 -54.948106 
L 327.65542 -56.49404 
L 327.657605 -58.039975 
L 327.656601 -59.585909 
L 327.651256 -61.131843 
L 327.640308 -62.677778 
L 327.622385 -64.223712 
L 327.596006 -65.769646 
L 327.559596 -67.315581 
L 327.511517 -68.861515 
L 327.450114 -70.407449 
L 327.373779 -71.953384 
L 327.281021 -73.499318 
L 327.170554 -75.045253 
L 327.041395 -76.591187 
L 326.892967 -78.137121 
L 326.725213 -79.683056 
L 326.538722 -81.22899 
L 326.334826 -82.774924 
L 326.115691 -84.320859 
L 325.88433 -85.866793 
L 325.64455 -87.412727 
L 325.400781 -88.958662 
L 325.157796 -90.504596 
L 324.92033 -92.05053 
L 324.692631 -93.596465 
L 324.478008 -95.142399 
L 324.27844 -96.688333 
L 324.094324 -98.234268 
L 323.924414 -99.780202 
L 323.76598 -101.326136 
L 323.61518 -102.872071 
L 323.467613 -104.418005 
L 323.318973 -105.963939 
L 323.165726 -107.509874 
L 323.005704 -109.055808 
L 322.838546 -110.601742 
L 322.665904 -112.147677 
L 322.491382 -113.693611 
L 322.320199 -115.239545 
L 322.158608 -116.78548 
L 322.013134 -118.331414 
L 321.889729 -119.877348 
L 321.792957 -121.423283 
L 321.725327 -122.969217 
L 321.686883 -124.515152 
L 321.675124 -126.061086 
L 321.685278 -127.60702 
L 321.710906 -129.152955 
L 321.744757 -130.698889 
L 321.779746 -132.244823 
L 321.809919 -133.790758 
L 321.83126 -135.336692 
L 321.84222 -136.882626 
L 321.843892 -138.428561 
L 321.839826 -139.974495 
L 321.835509 -141.520429 
L 321.837611 -143.066364 
L 321.85312 -144.612298 
L 321.888489 -146.158232 
L 321.948934 -147.704167 
L 322.037961 -149.250101 
L 322.157164 -150.796035 
L 322.306295 -152.34197 
L 322.483546 -153.887904 
L 322.68596 -155.433838 
L 322.909885 -156.979773 
L 323.151387 -158.525707 
L 323.406549 -160.071641 
L 323.671657 -161.617576 
L 323.943241 -163.16351 
L 324.218035 -164.709444 
L 324.492872 -166.255379 
L 324.764571 -167.801313 
L 325.029838 -169.347247 
L 325.285219 -170.893182 
L 325.527096 -172.439116 
L 325.751745 -173.985051 
L 325.955437 -175.530985 
L 326.134598 -177.076919 
L 326.286009 -178.622854 
L 326.40706 -180.168788 
L 326.496031 -181.714722 
L 326.552391 -183.260657 
L 326.577082 -184.806591 
L 326.572722 -186.352525 
L 326.543697 -187.89846 
L 326.496076 -189.444394 
L 326.437325 -190.990328 
L 326.375813 -192.536263 
L 326.320153 -194.082197 
L 326.278441 -195.628131 
L 326.257495 -197.174066 
L 326.262203 -198.72 
L 329.166558 -198.72 
L 329.166558 -198.72 
L 329.171266 -197.174066 
L 329.15032 -195.628131 
L 329.108607 -194.082197 
L 329.052947 -192.536263 
L 328.991435 -190.990328 
L 328.932684 -189.444394 
L 328.885064 -187.89846 
L 328.856039 -186.352525 
L 328.851678 -184.806591 
L 328.876369 -183.260657 
L 328.93273 -181.714722 
L 329.0217 -180.168788 
L 329.142751 -178.622854 
L 329.294163 -177.076919 
L 329.473323 -175.530985 
L 329.677015 -173.985051 
L 329.901664 -172.439116 
L 330.143542 -170.893182 
L 330.398923 -169.347247 
L 330.66419 -167.801313 
L 330.935888 -166.255379 
L 331.210725 -164.709444 
L 331.485519 -163.16351 
L 331.757103 -161.617576 
L 332.022211 -160.071641 
L 332.277374 -158.525707 
L 332.518875 -156.979773 
L 332.742801 -155.433838 
L 332.945214 -153.887904 
L 333.122465 -152.34197 
L 333.271597 -150.796035 
L 333.3908 -149.250101 
L 333.479826 -147.704167 
L 333.540271 -146.158232 
L 333.57564 -144.612298 
L 333.591149 -143.066364 
L 333.593252 -141.520429 
L 333.588934 -139.974495 
L 333.584868 -138.428561 
L 333.58654 -136.882626 
L 333.5975 -135.336692 
L 333.618842 -133.790758 
L 333.649015 -132.244823 
L 333.684003 -130.698889 
L 333.717854 -129.152955 
L 333.743483 -127.60702 
L 333.753636 -126.061086 
L 333.741877 -124.515152 
L 333.703433 -122.969217 
L 333.635803 -121.423283 
L 333.539031 -119.877348 
L 333.415626 -118.331414 
L 333.270152 -116.78548 
L 333.108561 -115.239545 
L 332.937378 -113.693611 
L 332.762856 -112.147677 
L 332.590214 -110.601742 
L 332.423057 -109.055808 
L 332.263035 -107.509874 
L 332.109787 -105.963939 
L 331.961148 -104.418005 
L 331.81358 -102.872071 
L 331.66278 -101.326136 
L 331.504346 -99.780202 
L 331.334437 -98.234268 
L 331.150321 -96.688333 
L 330.950752 -95.142399 
L 330.736129 -93.596465 
L 330.50843 -92.05053 
L 330.270964 -90.504596 
L 330.02798 -88.958662 
L 329.78421 -87.412727 
L 329.54443 -85.866793 
L 329.313069 -84.320859 
L 329.093934 -82.774924 
L 328.890039 -81.22899 
L 328.703547 -79.683056 
L 328.535794 -78.137121 
L 328.387365 -76.591187 
L 328.258206 -75.045253 
L 328.147739 -73.499318 
L 328.054981 -71.953384 
L 327.978646 -70.407449 
L 327.917243 -68.861515 
L 327.869164 -67.315581 
L 327.832755 -65.769646 
L 327.806376 -64.223712 
L 327.788453 -62.677778 
L 327.777505 -61.131843 
L 327.772159 -59.585909 
L 327.771156 -58.039975 
L 327.77334 -56.49404 
L 327.777658 -54.948106 
L 327.783147 -53.402172 
L 327.788943 -51.856237 
L 327.79429 -50.310303 
L 327.79856 -48.764369 
L 327.80127 -47.218434 
L 327.802107 -45.6725 
z
" style="stroke: #bf4e30; stroke-opacity: 0.3"/>
    </defs>
    <g clip-path="url(#p738a8280fe)">
     <use xlink:href="#m6a1890a539" x="0" y="216" style="fill: #bf4e30; fill-opacity: 0.3; stroke: #bf4e30; stroke-opacity: 0.3"/>
    </g>
   </g>
   <g id="matplotlib.axis_1">
    <g id="xtick_1">
     <g id="line2d_1">
      <defs>
       <path id="m42003a8dff" d="M 0 0 
L 0 3.5 
" style="stroke: #000000; stroke-width: 0.8"/>
      </defs>
      <g>
       <use xlink:href="#m42003a8dff" x="80.104876" y="170.3275" style="stroke: #000000; stroke-width: 0.8"/>
      </g>
     </g>
     <g id="text_1">
      <!-- protein -->
      <g transform="translate(61.760814 185.916875) scale(0.12 -0.12)">
       <defs>
        <path id="ArialMT-70" d="M 422 -1272 
L 422 3319 
L 934 3319 
L 934 2888 
Q 1116 3141 1344 3267 
Q 1572 3394 1897 3394 
Q 2322 3394 2647 3175 
Q 2972 2956 3137 2557 
Q 3303 2159 3303 1684 
Q 3303 1175 3120 767 
Q 2938 359 2589 142 
Q 2241 -75 1856 -75 
Q 1575 -75 1351 44 
Q 1128 163 984 344 
L 984 -1272 
L 422 -1272 
z
M 931 1641 
Q 931 1000 1190 694 
Q 1450 388 1819 388 
Q 2194 388 2461 705 
Q 2728 1022 2728 1688 
Q 2728 2322 2467 2637 
Q 2206 2953 1844 2953 
Q 1484 2953 1207 2617 
Q 931 2281 931 1641 
z
" transform="scale(0.015625)"/>
        <path id="ArialMT-72" d="M 416 0 
L 416 3319 
L 922 3319 
L 922 2816 
Q 1116 3169 1280 3281 
Q 1444 3394 1641 3394 
Q 1925 3394 2219 3213 
L 2025 2691 
Q 1819 2813 1613 2813 
Q 1428 2813 1281 2702 
Q 1134 2591 1072 2394 
Q 978 2094 978 1738 
L 978 0 
L 416 0 
z
" transform="scale(0.015625)"/>
        <path id="ArialMT-6f" d="M 213 1659 
Q 213 2581 725 3025 
Q 1153 3394 1769 3394 
Q 2453 3394 2887 2945 
Q 3322 2497 3322 1706 
Q 3322 1066 3130 698 
Q 2938 331 2570 128 
Q 2203 -75 1769 -75 
Q 1072 -75 642 372 
Q 213 819 213 1659 
z
M 791 1659 
Q 791 1022 1069 705 
Q 1347 388 1769 388 
Q 2188 388 2466 706 
Q 2744 1025 2744 1678 
Q 2744 2294 2464 2611 
Q 2184 2928 1769 2928 
Q 1347 2928 1069 2612 
Q 791 2297 791 1659 
z
" transform="scale(0.015625)"/>
        <path id="ArialMT-74" d="M 1650 503 
L 1731 6 
Q 1494 -44 1306 -44 
Q 1000 -44 831 53 
Q 663 150 594 308 
Q 525 466 525 972 
L 525 2881 
L 113 2881 
L 113 3319 
L 525 3319 
L 525 4141 
L 1084 4478 
L 1084 3319 
L 1650 3319 
L 1650 2881 
L 1084 2881 
L 1084 941 
Q 1084 700 1114 631 
Q 1144 563 1211 522 
Q 1278 481 1403 481 
Q 1497 481 1650 503 
z
" transform="scale(0.015625)"/>
        <path id="ArialMT-65" d="M 2694 1069 
L 3275 997 
Q 3138 488 2766 206 
Q 2394 -75 1816 -75 
Q 1088 -75 661 373 
Q 234 822 234 1631 
Q 234 2469 665 2931 
Q 1097 3394 1784 3394 
Q 2450 3394 2872 2941 
Q 3294 2488 3294 1666 
Q 3294 1616 3291 1516 
L 816 1516 
Q 847 969 1125 678 
Q 1403 388 1819 388 
Q 2128 388 2347 550 
Q 2566 713 2694 1069 
z
M 847 1978 
L 2700 1978 
Q 2663 2397 2488 2606 
Q 2219 2931 1791 2931 
Q 1403 2931 1139 2672 
Q 875 2413 847 1978 
z
" transform="scale(0.015625)"/>
        <path id="ArialMT-69" d="M 425 3934 
L 425 4581 
L 988 4581 
L 988 3934 
L 425 3934 
z
M 425 0 
L 425 3319 
L 988 3319 
L 988 0 
L 425 0 
z
" transform="scale(0.015625)"/>
        <path id="ArialMT-6e" d="M 422 0 
L 422 3319 
L 928 3319 
L 928 2847 
Q 1294 3394 1984 3394 
Q 2284 3394 2536 3286 
Q 2788 3178 2913 3003 
Q 3038 2828 3088 2588 
Q 3119 2431 3119 2041 
L 3119 0 
L 2556 0 
L 2556 2019 
Q 2556 2363 2490 2533 
Q 2425 2703 2258 2804 
Q 2091 2906 1866 2906 
Q 1506 2906 1245 2678 
Q 984 2450 984 1813 
L 984 0 
L 422 0 
z
" transform="scale(0.015625)"/>
       </defs>
       <use xlink:href="#ArialMT-70"/>
       <use xlink:href="#ArialMT-72" x="55.615234"/>
       <use xlink:href="#ArialMT-6f" x="88.916016"/>
       <use xlink:href="#ArialMT-74" x="144.53125"/>
       <use xlink:href="#ArialMT-65" x="172.314453"/>
       <use xlink:href="#ArialMT-69" x="227.929688"/>
       <use xlink:href="#ArialMT-6e" x="250.146484"/>
      </g>
     </g>
    </g>
    <g id="xtick_2">
     <g id="line2d_2">
      <g>
       <use xlink:href="#m42003a8dff" x="128.418926" y="170.3275" style="stroke: #000000; stroke-width: 0.8"/>
      </g>
     </g>
     <g id="text_2">
      <!-- DNA -->
      <g transform="translate(115.750488 185.916875) scale(0.12 -0.12)">
       <defs>
        <path id="ArialMT-44" d="M 494 0 
L 494 4581 
L 2072 4581 
Q 2606 4581 2888 4516 
Q 3281 4425 3559 4188 
Q 3922 3881 4101 3404 
Q 4281 2928 4281 2316 
Q 4281 1794 4159 1391 
Q 4038 988 3847 723 
Q 3656 459 3429 307 
Q 3203 156 2883 78 
Q 2563 0 2147 0 
L 494 0 
z
M 1100 541 
L 2078 541 
Q 2531 541 2789 625 
Q 3047 709 3200 863 
Q 3416 1078 3536 1442 
Q 3656 1806 3656 2325 
Q 3656 3044 3420 3430 
Q 3184 3816 2847 3947 
Q 2603 4041 2063 4041 
L 1100 4041 
L 1100 541 
z
" transform="scale(0.015625)"/>
        <path id="ArialMT-4e" d="M 488 0 
L 488 4581 
L 1109 4581 
L 3516 984 
L 3516 4581 
L 4097 4581 
L 4097 0 
L 3475 0 
L 1069 3600 
L 1069 0 
L 488 0 
z
" transform="scale(0.015625)"/>
        <path id="ArialMT-41" d="M -9 0 
L 1750 4581 
L 2403 4581 
L 4278 0 
L 3588 0 
L 3053 1388 
L 1138 1388 
L 634 0 
L -9 0 
z
M 1313 1881 
L 2866 1881 
L 2388 3150 
Q 2169 3728 2063 4100 
Q 1975 3659 1816 3225 
L 1313 1881 
z
" transform="scale(0.015625)"/>
       </defs>
       <use xlink:href="#ArialMT-44"/>
       <use xlink:href="#ArialMT-4e" x="72.216797"/>
       <use xlink:href="#ArialMT-41" x="144.433594"/>
      </g>
     </g>
    </g>
    <g id="xtick_3">
     <g id="line2d_3">
      <g>
       <use xlink:href="#m42003a8dff" x="176.732975" y="170.3275" style="stroke: #000000; stroke-width: 0.8"/>
      </g>
     </g>
     <g id="text_3">
      <!-- RNA -->
      <g transform="translate(164.064538 185.916875) scale(0.12 -0.12)">
       <defs>
        <path id="ArialMT-52" d="M 503 0 
L 503 4581 
L 2534 4581 
Q 3147 4581 3465 4457 
Q 3784 4334 3975 4021 
Q 4166 3709 4166 3331 
Q 4166 2844 3850 2509 
Q 3534 2175 2875 2084 
Q 3116 1969 3241 1856 
Q 3506 1613 3744 1247 
L 4541 0 
L 3778 0 
L 3172 953 
Q 2906 1366 2734 1584 
Q 2563 1803 2427 1890 
Q 2291 1978 2150 2013 
Q 2047 2034 1813 2034 
L 1109 2034 
L 1109 0 
L 503 0 
z
M 1109 2559 
L 2413 2559 
Q 2828 2559 3062 2645 
Q 3297 2731 3419 2920 
Q 3541 3109 3541 3331 
Q 3541 3656 3305 3865 
Q 3069 4075 2559 4075 
L 1109 4075 
L 1109 2559 
z
" transform="scale(0.015625)"/>
       </defs>
       <use xlink:href="#ArialMT-52"/>
       <use xlink:href="#ArialMT-4e" x="72.216797"/>
       <use xlink:href="#ArialMT-41" x="144.433594"/>
      </g>
     </g>
    </g>
    <g id="xtick_4">
     <g id="line2d_4">
      <g>
       <use xlink:href="#m42003a8dff" x="225.047025" y="170.3275" style="stroke: #000000; stroke-width: 0.8"/>
      </g>
     </g>
     <g id="text_4">
      <!-- ligand -->
      <g transform="translate(209.034525 185.916875) scale(0.12 -0.12)">
       <defs>
        <path id="ArialMT-6c" d="M 409 0 
L 409 4581 
L 972 4581 
L 972 0 
L 409 0 
z
" transform="scale(0.015625)"/>
        <path id="ArialMT-67" d="M 319 -275 
L 866 -356 
Q 900 -609 1056 -725 
Q 1266 -881 1628 -881 
Q 2019 -881 2231 -725 
Q 2444 -569 2519 -288 
Q 2563 -116 2559 434 
Q 2191 0 1641 0 
Q 956 0 581 494 
Q 206 988 206 1678 
Q 206 2153 378 2554 
Q 550 2956 876 3175 
Q 1203 3394 1644 3394 
Q 2231 3394 2613 2919 
L 2613 3319 
L 3131 3319 
L 3131 450 
Q 3131 -325 2973 -648 
Q 2816 -972 2473 -1159 
Q 2131 -1347 1631 -1347 
Q 1038 -1347 672 -1080 
Q 306 -813 319 -275 
z
M 784 1719 
Q 784 1066 1043 766 
Q 1303 466 1694 466 
Q 2081 466 2343 764 
Q 2606 1063 2606 1700 
Q 2606 2309 2336 2618 
Q 2066 2928 1684 2928 
Q 1309 2928 1046 2623 
Q 784 2319 784 1719 
z
" transform="scale(0.015625)"/>
        <path id="ArialMT-61" d="M 2588 409 
Q 2275 144 1986 34 
Q 1697 -75 1366 -75 
Q 819 -75 525 192 
Q 231 459 231 875 
Q 231 1119 342 1320 
Q 453 1522 633 1644 
Q 813 1766 1038 1828 
Q 1203 1872 1538 1913 
Q 2219 1994 2541 2106 
Q 2544 2222 2544 2253 
Q 2544 2597 2384 2738 
Q 2169 2928 1744 2928 
Q 1347 2928 1158 2789 
Q 969 2650 878 2297 
L 328 2372 
Q 403 2725 575 2942 
Q 747 3159 1072 3276 
Q 1397 3394 1825 3394 
Q 2250 3394 2515 3294 
Q 2781 3194 2906 3042 
Q 3031 2891 3081 2659 
Q 3109 2516 3109 2141 
L 3109 1391 
Q 3109 606 3145 398 
Q 3181 191 3288 0 
L 2700 0 
Q 2613 175 2588 409 
z
M 2541 1666 
Q 2234 1541 1622 1453 
Q 1275 1403 1131 1340 
Q 988 1278 909 1158 
Q 831 1038 831 891 
Q 831 666 1001 516 
Q 1172 366 1500 366 
Q 1825 366 2078 508 
Q 2331 650 2450 897 
Q 2541 1088 2541 1459 
L 2541 1666 
z
" transform="scale(0.015625)"/>
        <path id="ArialMT-64" d="M 2575 0 
L 2575 419 
Q 2259 -75 1647 -75 
Q 1250 -75 917 144 
Q 584 363 401 755 
Q 219 1147 219 1656 
Q 219 2153 384 2558 
Q 550 2963 881 3178 
Q 1213 3394 1622 3394 
Q 1922 3394 2156 3267 
Q 2391 3141 2538 2938 
L 2538 4581 
L 3097 4581 
L 3097 0 
L 2575 0 
z
M 797 1656 
Q 797 1019 1065 703 
Q 1334 388 1700 388 
Q 2069 388 2326 689 
Q 2584 991 2584 1609 
Q 2584 2291 2321 2609 
Q 2059 2928 1675 2928 
Q 1300 2928 1048 2622 
Q 797 2316 797 1656 
z
" transform="scale(0.015625)"/>
       </defs>
       <use xlink:href="#ArialMT-6c"/>
       <use xlink:href="#ArialMT-69" x="22.216797"/>
       <use xlink:href="#ArialMT-67" x="44.433594"/>
       <use xlink:href="#ArialMT-61" x="100.048828"/>
       <use xlink:href="#ArialMT-6e" x="155.664062"/>
       <use xlink:href="#ArialMT-64" x="211.279297"/>
      </g>
     </g>
    </g>
    <g id="xtick_5">
     <g id="line2d_5">
      <g>
       <use xlink:href="#m42003a8dff" x="273.361074" y="170.3275" style="stroke: #000000; stroke-width: 0.8"/>
      </g>
     </g>
     <g id="text_5">
      <!-- ion -->
      <g transform="translate(265.354824 185.916875) scale(0.12 -0.12)">
       <use xlink:href="#ArialMT-69"/>
       <use xlink:href="#ArialMT-6f" x="22.216797"/>
       <use xlink:href="#ArialMT-6e" x="77.832031"/>
      </g>
     </g>
    </g>
    <g id="xtick_6">
     <g id="line2d_6">
      <g>
       <use xlink:href="#m42003a8dff" x="321.675124" y="170.3275" style="stroke: #000000; stroke-width: 0.8"/>
      </g>
     </g>
     <g id="text_6">
      <!-- lipid -->
      <g transform="translate(311.002624 185.916875) scale(0.12 -0.12)">
       <use xlink:href="#ArialMT-6c"/>
       <use xlink:href="#ArialMT-69" x="22.216797"/>
       <use xlink:href="#ArialMT-70" x="44.433594"/>
       <use xlink:href="#ArialMT-69" x="100.048828"/>
       <use xlink:href="#ArialMT-64" x="122.265625"/>
      </g>
     </g>
    </g>
    <g id="text_7">
     <!-- protein interface type -->
     <g transform="translate(144.86125 201.178125) scale(0.12 -0.12)">
      <defs>
       <path id="ArialMT-20" transform="scale(0.015625)"/>
       <path id="ArialMT-66" d="M 556 0 
L 556 2881 
L 59 2881 
L 59 3319 
L 556 3319 
L 556 3672 
Q 556 4006 616 4169 
Q 697 4388 901 4523 
Q 1106 4659 1475 4659 
Q 1713 4659 2000 4603 
L 1916 4113 
Q 1741 4144 1584 4144 
Q 1328 4144 1222 4034 
Q 1116 3925 1116 3625 
L 1116 3319 
L 1763 3319 
L 1763 2881 
L 1116 2881 
L 1116 0 
L 556 0 
z
" transform="scale(0.015625)"/>
       <path id="ArialMT-63" d="M 2588 1216 
L 3141 1144 
Q 3050 572 2676 248 
Q 2303 -75 1759 -75 
Q 1078 -75 664 370 
Q 250 816 250 1647 
Q 250 2184 428 2587 
Q 606 2991 970 3192 
Q 1334 3394 1763 3394 
Q 2303 3394 2647 3120 
Q 2991 2847 3088 2344 
L 2541 2259 
Q 2463 2594 2264 2762 
Q 2066 2931 1784 2931 
Q 1359 2931 1093 2626 
Q 828 2322 828 1663 
Q 828 994 1084 691 
Q 1341 388 1753 388 
Q 2084 388 2306 591 
Q 2528 794 2588 1216 
z
" transform="scale(0.015625)"/>
       <path id="ArialMT-79" d="M 397 -1278 
L 334 -750 
Q 519 -800 656 -800 
Q 844 -800 956 -737 
Q 1069 -675 1141 -563 
Q 1194 -478 1313 -144 
Q 1328 -97 1363 -6 
L 103 3319 
L 709 3319 
L 1400 1397 
Q 1534 1031 1641 628 
Q 1738 1016 1872 1384 
L 2581 3319 
L 3144 3319 
L 1881 -56 
Q 1678 -603 1566 -809 
Q 1416 -1088 1222 -1217 
Q 1028 -1347 759 -1347 
Q 597 -1347 397 -1278 
z
" transform="scale(0.015625)"/>
      </defs>
      <use xlink:href="#ArialMT-70"/>
      <use xlink:href="#ArialMT-72" x="55.615234"/>
      <use xlink:href="#ArialMT-6f" x="88.916016"/>
      <use xlink:href="#ArialMT-74" x="144.53125"/>
      <use xlink:href="#ArialMT-65" x="172.314453"/>
      <use xlink:href="#ArialMT-69" x="227.929688"/>
      <use xlink:href="#ArialMT-6e" x="250.146484"/>
      <use xlink:href="#ArialMT-20" x="305.761719"/>
      <use xlink:href="#ArialMT-69" x="333.544922"/>
      <use xlink:href="#ArialMT-6e" x="355.761719"/>
      <use xlink:href="#ArialMT-74" x="411.376953"/>
      <use xlink:href="#ArialMT-65" x="439.160156"/>
      <use xlink:href="#ArialMT-72" x="494.775391"/>
      <use xlink:href="#ArialMT-66" x="528.076172"/>
      <use xlink:href="#ArialMT-61" x="555.859375"/>
      <use xlink:href="#ArialMT-63" x="611.474609"/>
      <use xlink:href="#ArialMT-65" x="661.474609"/>
      <use xlink:href="#ArialMT-20" x="717.089844"/>
      <use xlink:href="#ArialMT-74" x="744.873047"/>
      <use xlink:href="#ArialMT-79" x="772.65625"/>
      <use xlink:href="#ArialMT-70" x="822.65625"/>
      <use xlink:href="#ArialMT-65" x="878.271484"/>
     </g>
    </g>
   </g>
   <g id="matplotlib.axis_2">
    <g id="ytick_1">
     <g id="line2d_7">
      <defs>
       <path id="m97478a0538" d="M 0 0 
L -3.5 0 
" style="stroke: #000000; stroke-width: 0.8"/>
      </defs>
      <g>
       <use xlink:href="#m97478a0538" x="54.74" y="170.3275" style="stroke: #000000; stroke-width: 0.8"/>
      </g>
     </g>
     <g id="text_8">
      <!-- 0 -->
      <g transform="translate(41.066875 174.622187) scale(0.12 -0.12)">
       <defs>
        <path id="ArialMT-30" d="M 266 2259 
Q 266 3072 433 3567 
Q 600 4063 929 4331 
Q 1259 4600 1759 4600 
Q 2128 4600 2406 4451 
Q 2684 4303 2865 4023 
Q 3047 3744 3150 3342 
Q 3253 2941 3253 2259 
Q 3253 1453 3087 958 
Q 2922 463 2592 192 
Q 2263 -78 1759 -78 
Q 1097 -78 719 397 
Q 266 969 266 2259 
z
M 844 2259 
Q 844 1131 1108 757 
Q 1372 384 1759 384 
Q 2147 384 2411 759 
Q 2675 1134 2675 2259 
Q 2675 3391 2411 3762 
Q 2147 4134 1753 4134 
Q 1366 4134 1134 3806 
Q 844 3388 844 2259 
z
" transform="scale(0.015625)"/>
       </defs>
       <use xlink:href="#ArialMT-30"/>
      </g>
     </g>
    </g>
    <g id="ytick_2">
     <g id="line2d_8">
      <g>
       <use xlink:href="#m97478a0538" x="54.74" y="139.718" style="stroke: #000000; stroke-width: 0.8"/>
      </g>
     </g>
     <g id="text_9">
      <!-- 20 -->
      <g transform="translate(34.39375 144.012688) scale(0.12 -0.12)">
       <defs>
        <path id="ArialMT-32" d="M 3222 541 
L 3222 0 
L 194 0 
Q 188 203 259 391 
Q 375 700 629 1000 
Q 884 1300 1366 1694 
Q 2113 2306 2375 2664 
Q 2638 3022 2638 3341 
Q 2638 3675 2398 3904 
Q 2159 4134 1775 4134 
Q 1369 4134 1125 3890 
Q 881 3647 878 3216 
L 300 3275 
Q 359 3922 746 4261 
Q 1134 4600 1788 4600 
Q 2447 4600 2831 4234 
Q 3216 3869 3216 3328 
Q 3216 3053 3103 2787 
Q 2991 2522 2730 2228 
Q 2469 1934 1863 1422 
Q 1356 997 1212 845 
Q 1069 694 975 541 
L 3222 541 
z
" transform="scale(0.015625)"/>
       </defs>
       <use xlink:href="#ArialMT-32"/>
       <use xlink:href="#ArialMT-30" x="55.615234"/>
      </g>
     </g>
    </g>
    <g id="ytick_3">
     <g id="line2d_9">
      <g>
       <use xlink:href="#m97478a0538" x="54.74" y="109.1085" style="stroke: #000000; stroke-width: 0.8"/>
      </g>
     </g>
     <g id="text_10">
      <!-- 40 -->
      <g transform="translate(34.39375 113.403188) scale(0.12 -0.12)">
       <defs>
        <path id="ArialMT-34" d="M 2069 0 
L 2069 1097 
L 81 1097 
L 81 1613 
L 2172 4581 
L 2631 4581 
L 2631 1613 
L 3250 1613 
L 3250 1097 
L 2631 1097 
L 2631 0 
L 2069 0 
z
M 2069 1613 
L 2069 3678 
L 634 1613 
L 2069 1613 
z
" transform="scale(0.015625)"/>
       </defs>
       <use xlink:href="#ArialMT-34"/>
       <use xlink:href="#ArialMT-30" x="55.615234"/>
      </g>
     </g>
    </g>
    <g id="ytick_4">
     <g id="line2d_10">
      <g>
       <use xlink:href="#m97478a0538" x="54.74" y="78.499" style="stroke: #000000; stroke-width: 0.8"/>
      </g>
     </g>
     <g id="text_11">
      <!-- 60 -->
      <g transform="translate(34.39375 82.793688) scale(0.12 -0.12)">
       <defs>
        <path id="ArialMT-36" d="M 3184 3459 
L 2625 3416 
Q 2550 3747 2413 3897 
Q 2184 4138 1850 4138 
Q 1581 4138 1378 3988 
Q 1113 3794 959 3422 
Q 806 3050 800 2363 
Q 1003 2672 1297 2822 
Q 1591 2972 1913 2972 
Q 2475 2972 2870 2558 
Q 3266 2144 3266 1488 
Q 3266 1056 3080 686 
Q 2894 316 2569 119 
Q 2244 -78 1831 -78 
Q 1128 -78 684 439 
Q 241 956 241 2144 
Q 241 3472 731 4075 
Q 1159 4600 1884 4600 
Q 2425 4600 2770 4297 
Q 3116 3994 3184 3459 
z
M 888 1484 
Q 888 1194 1011 928 
Q 1134 663 1356 523 
Q 1578 384 1822 384 
Q 2178 384 2434 671 
Q 2691 959 2691 1453 
Q 2691 1928 2437 2201 
Q 2184 2475 1800 2475 
Q 1419 2475 1153 2201 
Q 888 1928 888 1484 
z
" transform="scale(0.015625)"/>
       </defs>
       <use xlink:href="#ArialMT-36"/>
       <use xlink:href="#ArialMT-30" x="55.615234"/>
      </g>
     </g>
    </g>
    <g id="ytick_5">
     <g id="line2d_11">
      <g>
       <use xlink:href="#m97478a0538" x="54.74" y="47.8895" style="stroke: #000000; stroke-width: 0.8"/>
      </g>
     </g>
     <g id="text_12">
      <!-- 80 -->
      <g transform="translate(34.39375 52.184188) scale(0.12 -0.12)">
       <defs>
        <path id="ArialMT-38" d="M 1131 2484 
Q 781 2613 612 2850 
Q 444 3088 444 3419 
Q 444 3919 803 4259 
Q 1163 4600 1759 4600 
Q 2359 4600 2725 4251 
Q 3091 3903 3091 3403 
Q 3091 3084 2923 2848 
Q 2756 2613 2416 2484 
Q 2838 2347 3058 2040 
Q 3278 1734 3278 1309 
Q 3278 722 2862 322 
Q 2447 -78 1769 -78 
Q 1091 -78 675 323 
Q 259 725 259 1325 
Q 259 1772 486 2073 
Q 713 2375 1131 2484 
z
M 1019 3438 
Q 1019 3113 1228 2906 
Q 1438 2700 1772 2700 
Q 2097 2700 2305 2904 
Q 2513 3109 2513 3406 
Q 2513 3716 2298 3927 
Q 2084 4138 1766 4138 
Q 1444 4138 1231 3931 
Q 1019 3725 1019 3438 
z
M 838 1322 
Q 838 1081 952 856 
Q 1066 631 1291 507 
Q 1516 384 1775 384 
Q 2178 384 2440 643 
Q 2703 903 2703 1303 
Q 2703 1709 2433 1975 
Q 2163 2241 1756 2241 
Q 1359 2241 1098 1978 
Q 838 1716 838 1322 
z
" transform="scale(0.015625)"/>
       </defs>
       <use xlink:href="#ArialMT-38"/>
       <use xlink:href="#ArialMT-30" x="55.615234"/>
      </g>
     </g>
    </g>
    <g id="ytick_6">
     <g id="line2d_12">
      <g>
       <use xlink:href="#m97478a0538" x="54.74" y="17.28" style="stroke: #000000; stroke-width: 0.8"/>
      </g>
     </g>
     <g id="text_13">
      <!-- 100 -->
      <g transform="translate(27.720625 21.574688) scale(0.12 -0.12)">
       <defs>
        <path id="ArialMT-31" d="M 2384 0 
L 1822 0 
L 1822 3584 
Q 1619 3391 1289 3197 
Q 959 3003 697 2906 
L 697 3450 
Q 1169 3672 1522 3987 
Q 1875 4303 2022 4600 
L 2384 4600 
L 2384 0 
z
" transform="scale(0.015625)"/>
       </defs>
       <use xlink:href="#ArialMT-31"/>
       <use xlink:href="#ArialMT-30" x="55.615234"/>
       <use xlink:href="#ArialMT-30" x="111.230469"/>
      </g>
     </g>
    </g>
    <g id="text_14">
     <!-- sequence recovery [%] -->
     <g transform="translate(21.195 154.83125) rotate(-90) scale(0.12 -0.12)">
      <defs>
       <path id="ArialMT-73" d="M 197 991 
L 753 1078 
Q 800 744 1014 566 
Q 1228 388 1613 388 
Q 2000 388 2187 545 
Q 2375 703 2375 916 
Q 2375 1106 2209 1216 
Q 2094 1291 1634 1406 
Q 1016 1563 777 1677 
Q 538 1791 414 1992 
Q 291 2194 291 2438 
Q 291 2659 392 2848 
Q 494 3038 669 3163 
Q 800 3259 1026 3326 
Q 1253 3394 1513 3394 
Q 1903 3394 2198 3281 
Q 2494 3169 2634 2976 
Q 2775 2784 2828 2463 
L 2278 2388 
Q 2241 2644 2061 2787 
Q 1881 2931 1553 2931 
Q 1166 2931 1000 2803 
Q 834 2675 834 2503 
Q 834 2394 903 2306 
Q 972 2216 1119 2156 
Q 1203 2125 1616 2013 
Q 2213 1853 2448 1751 
Q 2684 1650 2818 1456 
Q 2953 1263 2953 975 
Q 2953 694 2789 445 
Q 2625 197 2315 61 
Q 2006 -75 1616 -75 
Q 969 -75 630 194 
Q 291 463 197 991 
z
" transform="scale(0.015625)"/>
       <path id="ArialMT-71" d="M 2538 -1272 
L 2538 353 
Q 2406 169 2170 47 
Q 1934 -75 1669 -75 
Q 1078 -75 651 397 
Q 225 869 225 1691 
Q 225 2191 398 2587 
Q 572 2984 901 3189 
Q 1231 3394 1625 3394 
Q 2241 3394 2594 2875 
L 2594 3319 
L 3100 3319 
L 3100 -1272 
L 2538 -1272 
z
M 803 1669 
Q 803 1028 1072 708 
Q 1341 388 1716 388 
Q 2075 388 2334 692 
Q 2594 997 2594 1619 
Q 2594 2281 2320 2615 
Q 2047 2950 1678 2950 
Q 1313 2950 1058 2639 
Q 803 2328 803 1669 
z
" transform="scale(0.015625)"/>
       <path id="ArialMT-75" d="M 2597 0 
L 2597 488 
Q 2209 -75 1544 -75 
Q 1250 -75 995 37 
Q 741 150 617 320 
Q 494 491 444 738 
Q 409 903 409 1263 
L 409 3319 
L 972 3319 
L 972 1478 
Q 972 1038 1006 884 
Q 1059 663 1231 536 
Q 1403 409 1656 409 
Q 1909 409 2131 539 
Q 2353 669 2445 892 
Q 2538 1116 2538 1541 
L 2538 3319 
L 3100 3319 
L 3100 0 
L 2597 0 
z
" transform="scale(0.015625)"/>
       <path id="ArialMT-76" d="M 1344 0 
L 81 3319 
L 675 3319 
L 1388 1331 
Q 1503 1009 1600 663 
Q 1675 925 1809 1294 
L 2547 3319 
L 3125 3319 
L 1869 0 
L 1344 0 
z
" transform="scale(0.015625)"/>
       <path id="ArialMT-5b" d="M 434 -1272 
L 434 4581 
L 1675 4581 
L 1675 4116 
L 997 4116 
L 997 -806 
L 1675 -806 
L 1675 -1272 
L 434 -1272 
z
" transform="scale(0.015625)"/>
       <path id="ArialMT-25" d="M 372 3481 
Q 372 3972 619 4315 
Q 866 4659 1334 4659 
Q 1766 4659 2048 4351 
Q 2331 4044 2331 3447 
Q 2331 2866 2045 2552 
Q 1759 2238 1341 2238 
Q 925 2238 648 2547 
Q 372 2856 372 3481 
z
M 1350 4272 
Q 1141 4272 1002 4090 
Q 863 3909 863 3425 
Q 863 2984 1003 2804 
Q 1144 2625 1350 2625 
Q 1563 2625 1702 2806 
Q 1841 2988 1841 3469 
Q 1841 3913 1700 4092 
Q 1559 4272 1350 4272 
z
M 1353 -169 
L 3859 4659 
L 4316 4659 
L 1819 -169 
L 1353 -169 
z
M 3334 1075 
Q 3334 1569 3581 1911 
Q 3828 2253 4300 2253 
Q 4731 2253 5014 1945 
Q 5297 1638 5297 1041 
Q 5297 459 5011 145 
Q 4725 -169 4303 -169 
Q 3888 -169 3611 142 
Q 3334 453 3334 1075 
z
M 4316 1866 
Q 4103 1866 3964 1684 
Q 3825 1503 3825 1019 
Q 3825 581 3965 400 
Q 4106 219 4313 219 
Q 4528 219 4667 400 
Q 4806 581 4806 1063 
Q 4806 1506 4665 1686 
Q 4525 1866 4316 1866 
z
" transform="scale(0.015625)"/>
       <path id="ArialMT-5d" d="M 1363 -1272 
L 122 -1272 
L 122 -806 
L 800 -806 
L 800 4116 
L 122 4116 
L 122 4581 
L 1363 4581 
L 1363 -1272 
z
" transform="scale(0.015625)"/>
      </defs>
      <use xlink:href="#ArialMT-73"/>
      <use xlink:href="#ArialMT-65" x="50"/>
      <use xlink:href="#ArialMT-71" x="105.615234"/>
      <use xlink:href="#ArialMT-75" x="161.230469"/>
      <use xlink:href="#ArialMT-65" x="216.845703"/>
      <use xlink:href="#ArialMT-6e" x="272.460938"/>
      <use xlink:href="#ArialMT-63" x="328.076172"/>
      <use xlink:href="#ArialMT-65" x="378.076172"/>
      <use xlink:href="#ArialMT-20" x="433.691406"/>
      <use xlink:href="#ArialMT-72" x="461.474609"/>
      <use xlink:href="#ArialMT-65" x="494.775391"/>
      <use xlink:href="#ArialMT-63" x="550.390625"/>
      <use xlink:href="#ArialMT-6f" x="600.390625"/>
      <use xlink:href="#ArialMT-76" x="656.005859"/>
      <use xlink:href="#ArialMT-65" x="706.005859"/>
      <use xlink:href="#ArialMT-72" x="761.621094"/>
      <use xlink:href="#ArialMT-79" x="794.921875"/>
      <use xlink:href="#ArialMT-20" x="844.921875"/>
      <use xlink:href="#ArialMT-5b" x="872.705078"/>
      <use xlink:href="#ArialMT-25" x="900.488281"/>
      <use xlink:href="#ArialMT-5d" x="989.404297"/>
     </g>
    </g>
   </g>
   <g id="LineCollection_1">
    <path d="M 71.045992 109.108499 
L 77.085248 109.108499 
" clip-path="url(#p738a8280fe)" style="fill: none; stroke: #0d3b66; stroke-width: 1.5"/>
    <path d="M 119.360041 119.311665 
L 125.399298 119.311665 
" clip-path="url(#p738a8280fe)" style="fill: none; stroke: #0d3b66; stroke-width: 1.5"/>
    <path d="M 167.674091 119.311665 
L 173.713347 119.311665 
" clip-path="url(#p738a8280fe)" style="fill: none; stroke: #0d3b66; stroke-width: 1.5"/>
    <path d="M 215.98814 104.735714 
L 222.027397 104.735714 
" clip-path="url(#p738a8280fe)" style="fill: none; stroke: #0d3b66; stroke-width: 1.5"/>
    <path d="M 264.30219 93.80375 
L 270.341446 93.80375 
" clip-path="url(#p738a8280fe)" style="fill: none; stroke: #0d3b66; stroke-width: 1.5"/>
    <path d="M 312.61624 111.463076 
L 318.655496 111.463076 
" clip-path="url(#p738a8280fe)" style="fill: none; stroke: #0d3b66; stroke-width: 1.5"/>
   </g>
   <g id="LineCollection_2">
    <path d="M 83.124504 85.301107 
L 89.16376 85.301107 
" clip-path="url(#p738a8280fe)" style="fill: none; stroke: #bf4e30; stroke-width: 1.5"/>
    <path d="M 131.438554 86.847043 
L 137.47781 86.847043 
" clip-path="url(#p738a8280fe)" style="fill: none; stroke: #bf4e30; stroke-width: 1.5"/>
    <path d="M 179.752603 85.301107 
L 185.79186 85.301107 
" clip-path="url(#p738a8280fe)" style="fill: none; stroke: #bf4e30; stroke-width: 1.5"/>
    <path d="M 228.066653 78.498996 
L 234.105909 78.498996 
" clip-path="url(#p738a8280fe)" style="fill: none; stroke: #bf4e30; stroke-width: 1.5"/>
    <path d="M 276.380702 68.29583 
L 282.419959 68.29583 
" clip-path="url(#p738a8280fe)" style="fill: none; stroke: #bf4e30; stroke-width: 1.5"/>
    <path d="M 324.694752 82.871782 
L 330.734008 82.871782 
" clip-path="url(#p738a8280fe)" style="fill: none; stroke: #bf4e30; stroke-width: 1.5"/>
   </g>
   <g id="patch_3">
    <path d="M 54.74 170.3275 
L 54.74 17.28 
" style="fill: none; stroke: #000000; stroke-width: 0.8; stroke-linejoin: miter; stroke-linecap: square"/>
   </g>
   <g id="patch_4">
    <path d="M 347.04 170.3275 
L 347.04 17.28 
" style="fill: none; stroke: #000000; stroke-width: 0.8; stroke-linejoin: miter; stroke-linecap: square"/>
   </g>
   <g id="patch_5">
    <path d="M 54.74 170.3275 
L 347.04 170.3275 
" style="fill: none; stroke: #000000; stroke-width: 0.8; stroke-linejoin: miter; stroke-linecap: square"/>
   </g>
   <g id="patch_6">
    <path d="M 54.74 17.28 
L 347.04 17.28 
" style="fill: none; stroke: #000000; stroke-width: 0.8; stroke-linejoin: miter; stroke-linecap: square"/>
   </g>
   <g id="text_15">
    <!-- 40 -->
    <g transform="translate(68.504682 120.33978) scale(0.1 -0.1)">
     <use xlink:href="#ArialMT-34"/>
     <use xlink:href="#ArialMT-30" x="55.615234"/>
    </g>
   </g>
   <g id="text_16">
    <!-- 56 -->
    <g transform="translate(80.583195 81.227638) scale(0.1 -0.1)">
     <defs>
      <path id="ArialMT-35" d="M 266 1200 
L 856 1250 
Q 922 819 1161 601 
Q 1400 384 1738 384 
Q 2144 384 2425 690 
Q 2706 997 2706 1503 
Q 2706 1984 2436 2262 
Q 2166 2541 1728 2541 
Q 1456 2541 1237 2417 
Q 1019 2294 894 2097 
L 366 2166 
L 809 4519 
L 3088 4519 
L 3088 3981 
L 1259 3981 
L 1013 2750 
Q 1425 3038 1878 3038 
Q 2478 3038 2890 2622 
Q 3303 2206 3303 1553 
Q 3303 931 2941 478 
Q 2500 -78 1738 -78 
Q 1113 -78 717 272 
Q 322 622 266 1200 
z
" transform="scale(0.015625)"/>
     </defs>
     <use xlink:href="#ArialMT-35"/>
     <use xlink:href="#ArialMT-36" x="55.615234"/>
    </g>
   </g>
   <g id="text_17">
    <!-- 33 -->
    <g transform="translate(116.818732 130.542946) scale(0.1 -0.1)">
     <defs>
      <path id="ArialMT-33" d="M 269 1209 
L 831 1284 
Q 928 806 1161 595 
Q 1394 384 1728 384 
Q 2125 384 2398 659 
Q 2672 934 2672 1341 
Q 2672 1728 2419 1979 
Q 2166 2231 1775 2231 
Q 1616 2231 1378 2169 
L 1441 2663 
Q 1497 2656 1531 2656 
Q 1891 2656 2178 2843 
Q 2466 3031 2466 3422 
Q 2466 3731 2256 3934 
Q 2047 4138 1716 4138 
Q 1388 4138 1169 3931 
Q 950 3725 888 3313 
L 325 3413 
Q 428 3978 793 4289 
Q 1159 4600 1703 4600 
Q 2078 4600 2393 4439 
Q 2709 4278 2876 4000 
Q 3044 3722 3044 3409 
Q 3044 3113 2884 2869 
Q 2725 2625 2413 2481 
Q 2819 2388 3044 2092 
Q 3269 1797 3269 1353 
Q 3269 753 2831 336 
Q 2394 -81 1725 -81 
Q 1122 -81 723 278 
Q 325 638 269 1209 
z
" transform="scale(0.015625)"/>
     </defs>
     <use xlink:href="#ArialMT-33"/>
     <use xlink:href="#ArialMT-33" x="55.615234"/>
    </g>
   </g>
   <g id="text_18">
    <!-- 55 -->
    <g transform="translate(128.897244 82.773574) scale(0.1 -0.1)">
     <use xlink:href="#ArialMT-35"/>
     <use xlink:href="#ArialMT-35" x="55.615234"/>
    </g>
   </g>
   <g id="text_19">
    <!-- 33 -->
    <g transform="translate(165.132782 130.542946) scale(0.1 -0.1)">
     <use xlink:href="#ArialMT-33"/>
     <use xlink:href="#ArialMT-33" x="55.615234"/>
    </g>
   </g>
   <g id="text_20">
    <!-- 56 -->
    <g transform="translate(177.211294 81.227638) scale(0.1 -0.1)">
     <use xlink:href="#ArialMT-35"/>
     <use xlink:href="#ArialMT-36" x="55.615234"/>
    </g>
   </g>
   <g id="text_21">
    <!-- 43 -->
    <g transform="translate(213.446831 115.966995) scale(0.1 -0.1)">
     <use xlink:href="#ArialMT-34"/>
     <use xlink:href="#ArialMT-33" x="55.615234"/>
    </g>
   </g>
   <g id="text_22">
    <!-- 60 -->
    <g transform="translate(225.525343 74.425528) scale(0.1 -0.1)">
     <use xlink:href="#ArialMT-36"/>
     <use xlink:href="#ArialMT-30" x="55.615234"/>
    </g>
   </g>
   <g id="text_23">
    <!-- 50 -->
    <g transform="translate(261.760881 105.035031) scale(0.1 -0.1)">
     <use xlink:href="#ArialMT-35"/>
     <use xlink:href="#ArialMT-30" x="55.615234"/>
    </g>
   </g>
   <g id="text_24">
    <!-- 67 -->
    <g transform="translate(273.839393 64.222362) scale(0.1 -0.1)">
     <defs>
      <path id="ArialMT-37" d="M 303 3981 
L 303 4522 
L 3269 4522 
L 3269 4084 
Q 2831 3619 2401 2847 
Q 1972 2075 1738 1259 
Q 1569 684 1522 0 
L 944 0 
Q 953 541 1156 1306 
Q 1359 2072 1739 2783 
Q 2119 3494 2547 3981 
L 303 3981 
z
" transform="scale(0.015625)"/>
     </defs>
     <use xlink:href="#ArialMT-36"/>
     <use xlink:href="#ArialMT-37" x="55.615234"/>
    </g>
   </g>
   <g id="text_25">
    <!-- 38 -->
    <g transform="translate(310.07493 122.694357) scale(0.1 -0.1)">
     <use xlink:href="#ArialMT-33"/>
     <use xlink:href="#ArialMT-38" x="55.615234"/>
    </g>
   </g>
   <g id="text_26">
    <!-- 57 -->
    <g transform="translate(322.153443 78.798313) scale(0.1 -0.1)">
     <use xlink:href="#ArialMT-35"/>
     <use xlink:href="#ArialMT-37" x="55.615234"/>
    </g>
   </g>
   <g id="legend_1">
    <g id="patch_7">
     <path d="M 61.74 49.570625 
L 160.44 49.570625 
Q 162.44 49.570625 162.44 47.570625 
L 162.44 24.28 
Q 162.44 22.28 160.44 22.28 
L 61.74 22.28 
Q 59.74 22.28 59.74 24.28 
L 59.74 47.570625 
Q 59.74 49.570625 61.74 49.570625 
z
" style="fill: #ffffff; opacity: 0.8; stroke: #cccccc; stroke-linejoin: miter"/>
    </g>
    <g id="patch_8">
     <path d="M 63.74 33.437813 
L 83.74 33.437813 
L 83.74 26.437813 
L 63.74 26.437813 
z
" style="fill: #0d3b66; fill-opacity: 0.3; stroke: #0d3b66; stroke-opacity: 0.3; stroke-linejoin: miter"/>
    </g>
    <g id="text_27">
     <!-- without context -->
     <g transform="translate(91.74 33.437813) scale(0.1 -0.1)">
      <defs>
       <path id="ArialMT-77" d="M 1034 0 
L 19 3319 
L 600 3319 
L 1128 1403 
L 1325 691 
Q 1338 744 1497 1375 
L 2025 3319 
L 2603 3319 
L 3100 1394 
L 3266 759 
L 3456 1400 
L 4025 3319 
L 4572 3319 
L 3534 0 
L 2950 0 
L 2422 1988 
L 2294 2553 
L 1622 0 
L 1034 0 
z
" transform="scale(0.015625)"/>
       <path id="ArialMT-68" d="M 422 0 
L 422 4581 
L 984 4581 
L 984 2938 
Q 1378 3394 1978 3394 
Q 2347 3394 2619 3248 
Q 2891 3103 3008 2847 
Q 3125 2591 3125 2103 
L 3125 0 
L 2563 0 
L 2563 2103 
Q 2563 2525 2380 2717 
Q 2197 2909 1863 2909 
Q 1613 2909 1392 2779 
Q 1172 2650 1078 2428 
Q 984 2206 984 1816 
L 984 0 
L 422 0 
z
" transform="scale(0.015625)"/>
       <path id="ArialMT-78" d="M 47 0 
L 1259 1725 
L 138 3319 
L 841 3319 
L 1350 2541 
Q 1494 2319 1581 2169 
Q 1719 2375 1834 2534 
L 2394 3319 
L 3066 3319 
L 1919 1756 
L 3153 0 
L 2463 0 
L 1781 1031 
L 1600 1309 
L 728 0 
L 47 0 
z
" transform="scale(0.015625)"/>
      </defs>
      <use xlink:href="#ArialMT-77"/>
      <use xlink:href="#ArialMT-69" x="72.216797"/>
      <use xlink:href="#ArialMT-74" x="94.433594"/>
      <use xlink:href="#ArialMT-68" x="122.216797"/>
      <use xlink:href="#ArialMT-6f" x="177.832031"/>
      <use xlink:href="#ArialMT-75" x="233.447266"/>
      <use xlink:href="#ArialMT-74" x="289.0625"/>
      <use xlink:href="#ArialMT-20" x="316.845703"/>
      <use xlink:href="#ArialMT-63" x="344.628906"/>
      <use xlink:href="#ArialMT-6f" x="394.628906"/>
      <use xlink:href="#ArialMT-6e" x="450.244141"/>
      <use xlink:href="#ArialMT-74" x="505.859375"/>
      <use xlink:href="#ArialMT-65" x="533.642578"/>
      <use xlink:href="#ArialMT-78" x="589.257812"/>
      <use xlink:href="#ArialMT-74" x="639.257812"/>
     </g>
    </g>
    <g id="patch_9">
     <path d="M 63.74 43.583125 
L 83.74 43.583125 
L 83.74 36.583125 
L 63.74 36.583125 
z
" style="fill: #bf4e30; fill-opacity: 0.3; stroke: #bf4e30; stroke-opacity: 0.3; stroke-linejoin: miter"/>
    </g>
    <g id="text_28">
     <!-- with context -->
     <g transform="translate(91.74 43.583125) scale(0.1 -0.1)">
      <use xlink:href="#ArialMT-77"/>
      <use xlink:href="#ArialMT-69" x="72.216797"/>
      <use xlink:href="#ArialMT-74" x="94.433594"/>
      <use xlink:href="#ArialMT-68" x="122.216797"/>
      <use xlink:href="#ArialMT-20" x="177.832031"/>
      <use xlink:href="#ArialMT-63" x="205.615234"/>
      <use xlink:href="#ArialMT-6f" x="255.615234"/>
      <use xlink:href="#ArialMT-6e" x="311.230469"/>
      <use xlink:href="#ArialMT-74" x="366.845703"/>
      <use xlink:href="#ArialMT-65" x="394.628906"/>
      <use xlink:href="#ArialMT-78" x="450.244141"/>
      <use xlink:href="#ArialMT-74" x="500.244141"/>
     </g>
    </g>
   </g>
  </g>
 </g>
 <defs>
  <clipPath id="p738a8280fe">
   <rect x="54.74" y="17.28" width="292.3" height="153.0475"/>
  </clipPath>
 </defs>
</svg>
