<?xml version="1.0" encoding="utf-8" standalone="no"?>
<!DOCTYPE svg PUBLIC "-//W3C//DTD SVG 1.1//EN"
  "http://www.w3.org/Graphics/SVG/1.1/DTD/svg11.dtd">
<svg xmlns:xlink="http://www.w3.org/1999/xlink" width="360pt" height="216pt" viewBox="0 0 360 216" xmlns="http://www.w3.org/2000/svg" version="1.1">
 <metadata>
  <rdf:RDF xmlns:dc="http://purl.org/dc/elements/1.1/" xmlns:cc="http://creativecommons.org/ns#" xmlns:rdf="http://www.w3.org/1999/02/22-rdf-syntax-ns#">
   <cc:Work>
    <dc:type rdf:resource="http://purl.org/dc/dcmitype/StillImage"/>
    <dc:date>2023-05-15T09:11:37.039355</dc:date>
    <dc:format>image/svg+xml</dc:format>
    <dc:creator>
     <cc:Agent>
      <dc:title>Matplotlib v3.7.1, https://matplotlib.org/</dc:title>
     </cc:Agent>
    </dc:creator>
   </cc:Work>
  </rdf:RDF>
 </metadata>
 <defs>
  <style type="text/css">*{stroke-linejoin: round; stroke-linecap: butt}</style>
 </defs>
 <g id="figure_1">
  <g id="patch_1">
   <path d="M 0 216 
L 360 216 
L 360 0 
L 0 0 
z
" style="fill: #ffffff"/>
  </g>
  <g id="axes_1">
   <g id="patch_2">
    <path d="M 41.47625 170.3275 
L 347.04 170.3275 
L 347.04 12.96 
L 41.47625 12.96 
z
" style="fill: #ffffff"/>
   </g>
   <g id="PolyCollection_1">
    <path d="M 61.711087 170.3275 
L 61.646537 170.3275 
L 61.655854 167.943144 
L 61.661809 165.558788 
L 61.653201 163.174432 
L 61.645039 160.790076 
L 61.638166 158.40572 
L 61.628677 156.021364 
L 61.612847 153.637008 
L 61.593424 151.252652 
L 61.596234 148.868295 
L 61.588938 146.483939 
L 61.528805 144.099583 
L 61.411373 141.715227 
L 61.243569 139.330871 
L 61.021021 136.946515 
L 60.730431 134.562159 
L 60.394311 132.177803 
L 60.051897 129.793447 
L 59.738256 127.409091 
L 59.458357 125.024735 
L 59.169831 122.640379 
L 58.863427 120.256023 
L 58.518718 117.871667 
L 58.114774 115.487311 
L 57.655609 113.102955 
L 57.206009 110.718598 
L 56.794399 108.334242 
L 56.279114 105.949886 
L 55.757405 103.56553 
L 55.437105 101.181174 
L 55.365511 98.796818 
L 55.483567 96.412462 
L 55.739627 94.028106 
L 56.139376 91.64375 
L 56.744533 89.259394 
L 57.355784 86.875038 
L 57.863785 84.490682 
L 58.280302 82.106326 
L 58.709112 79.72197 
L 59.148088 77.337614 
L 59.524179 74.953258 
L 59.810652 72.568902 
L 60.135028 70.184545 
L 60.467246 67.800189 
L 60.723408 65.415833 
L 60.91809 63.031477 
L 61.058326 60.647121 
L 61.161629 58.262765 
L 61.243649 55.878409 
L 61.252146 53.494053 
L 61.305769 51.109697 
L 61.42871 48.725341 
L 61.486979 46.340985 
L 61.513803 43.956629 
L 61.539265 41.572273 
L 61.558652 39.187917 
L 61.572106 36.803561 
L 61.550493 34.419205 
L 61.542354 32.034848 
L 61.603121 29.650492 
L 61.640512 27.266136 
L 61.641899 24.88178 
L 61.640255 22.497424 
L 61.649212 20.113068 
L 61.6585 17.728712 
L 61.648785 15.344356 
L 61.635816 12.96 
L 61.654 10.575644 
L 61.67318 8.191288 
L 61.675071 5.806932 
L 61.6722 3.422576 
L 61.674057 1.03822 
L 61.67582 -1.346136 
L 61.670966 -3.730492 
L 61.663453 -6.114848 
L 61.667153 -8.499205 
L 61.675059 -10.883561 
L 61.677023 -13.267917 
L 61.677128 -15.652273 
L 61.677779 -18.036629 
L 61.67845 -20.420985 
L 61.678114 -22.805341 
L 61.676877 -25.189697 
L 61.676878 -27.574053 
L 61.678143 -29.958409 
L 61.678732 -32.342765 
L 61.678809 -34.727121 
L 61.678812 -37.111477 
L 61.678812 -39.495833 
L 61.678812 -41.880189 
L 61.678812 -44.264545 
L 61.678812 -46.648902 
L 61.678812 -49.033258 
L 61.678812 -51.417614 
L 61.678812 -53.80197 
L 61.678812 -56.186326 
L 61.678793 -58.570682 
L 61.678547 -60.955038 
L 61.677513 -63.339394 
L 61.676603 -65.72375 
L 61.681021 -65.72375 
L 61.681021 -65.72375 
L 61.680111 -63.339394 
L 61.679077 -60.955038 
L 61.678831 -58.570682 
L 61.678812 -56.186326 
L 61.678812 -53.80197 
L 61.678812 -51.417614 
L 61.678812 -49.033258 
L 61.678812 -46.648902 
L 61.678812 -44.264545 
L 61.678812 -41.880189 
L 61.678812 -39.495833 
L 61.678812 -37.111477 
L 61.678815 -34.727121 
L 61.678892 -32.342765 
L 61.679481 -29.958409 
L 61.680746 -27.574053 
L 61.680747 -25.189697 
L 61.67951 -22.805341 
L 61.679174 -20.420985 
L 61.679845 -18.036629 
L 61.680496 -15.652273 
L 61.680601 -13.267917 
L 61.682564 -10.883561 
L 61.690471 -8.499205 
L 61.694171 -6.114848 
L 61.686658 -3.730492 
L 61.681804 -1.346136 
L 61.683567 1.03822 
L 61.685424 3.422576 
L 61.682553 5.806932 
L 61.684444 8.191288 
L 61.703624 10.575644 
L 61.721808 12.96 
L 61.708839 15.344356 
L 61.699124 17.728712 
L 61.708412 20.113068 
L 61.717369 22.497424 
L 61.715725 24.88178 
L 61.717112 27.266136 
L 61.754503 29.650492 
L 61.81527 32.034848 
L 61.807131 34.419205 
L 61.785518 36.803561 
L 61.798972 39.187917 
L 61.818359 41.572273 
L 61.843821 43.956629 
L 61.870645 46.340985 
L 61.928914 48.725341 
L 62.051855 51.109697 
L 62.105478 53.494053 
L 62.113975 55.878409 
L 62.195995 58.262765 
L 62.299298 60.647121 
L 62.439534 63.031477 
L 62.634216 65.415833 
L 62.890378 67.800189 
L 63.222596 70.184545 
L 63.546972 72.568902 
L 63.833445 74.953258 
L 64.209536 77.337614 
L 64.648512 79.72197 
L 65.077322 82.106326 
L 65.493839 84.490682 
L 66.00184 86.875038 
L 66.613091 89.259394 
L 67.218248 91.64375 
L 67.617997 94.028106 
L 67.874057 96.412462 
L 67.992113 98.796818 
L 67.920519 101.181174 
L 67.600219 103.56553 
L 67.07851 105.949886 
L 66.563225 108.334242 
L 66.151615 110.718598 
L 65.702015 113.102955 
L 65.24285 115.487311 
L 64.838906 117.871667 
L 64.494197 120.256023 
L 64.187793 122.640379 
L 63.899267 125.024735 
L 63.619368 127.409091 
L 63.305727 129.793447 
L 62.963313 132.177803 
L 62.627193 134.562159 
L 62.336603 136.946515 
L 62.114055 139.330871 
L 61.946251 141.715227 
L 61.828819 144.099583 
L 61.768686 146.483939 
L 61.761389 148.868295 
L 61.7642 151.252652 
L 61.744777 153.637008 
L 61.728947 156.021364 
L 61.719458 158.40572 
L 61.712585 160.790076 
L 61.704423 163.174432 
L 61.695815 165.558788 
L 61.70177 167.943144 
L 61.711087 170.3275 
z
" clip-path="url(#p4906da9223)" style="fill: #0d3b66; fill-opacity: 0.3; stroke: #0d3b66; stroke-opacity: 0.3"/>
   </g>
   <g id="PolyCollection_2">
    <defs>
     <path id="mc7b679fa9f" d="M 112.210949 -45.6725 
L 112.159485 -45.6725 
L 112.161892 -47.460767 
L 112.167841 -49.249034 
L 112.174563 -51.037301 
L 112.179768 -52.825568 
L 112.182634 -54.613835 
L 112.183364 -56.402102 
L 112.182336 -58.190369 
L 112.179853 -59.978636 
L 112.176513 -61.766903 
L 112.173508 -63.55517 
L 112.172165 -65.343437 
L 112.172923 -67.131705 
L 112.174734 -68.919972 
L 112.175561 -70.708239 
L 112.173432 -72.496506 
L 112.166854 -74.284773 
L 112.15406 -76.07304 
L 112.131875 -77.861307 
L 112.095911 -79.649574 
L 112.042737 -81.437841 
L 111.971881 -83.226108 
L 111.884672 -85.014375 
L 111.780326 -86.802642 
L 111.652856 -88.590909 
L 111.490725 -90.379176 
L 111.278936 -92.167443 
L 111.004347 -93.95571 
L 110.663397 -95.743977 
L 110.265164 -97.532244 
L 109.823924 -99.320511 
L 109.348587 -101.108778 
L 108.842345 -102.897045 
L 108.311909 -104.685313 
L 107.77284 -106.47358 
L 107.246918 -108.261847 
L 106.761402 -110.050114 
L 106.352218 -111.838381 
L 106.058027 -113.626648 
L 105.900907 -115.414915 
L 105.871916 -117.203182 
L 105.938998 -118.991449 
L 106.069585 -120.779716 
L 106.246079 -122.567983 
L 106.46342 -124.35625 
L 106.715458 -126.144517 
L 106.984974 -127.932784 
L 107.248667 -129.721051 
L 107.49502 -131.509318 
L 107.737617 -133.297585 
L 108.005018 -135.085852 
L 108.310788 -136.874119 
L 108.63469 -138.662386 
L 108.940343 -140.450653 
L 109.212024 -142.23892 
L 109.466429 -144.027187 
L 109.725529 -145.815455 
L 109.985968 -147.603722 
L 110.221302 -149.391989 
L 110.409843 -151.180256 
L 110.555456 -152.968523 
L 110.684624 -154.75679 
L 110.827359 -156.545057 
L 110.997773 -158.333324 
L 111.187357 -160.121591 
L 111.37453 -161.909858 
L 111.539986 -163.698125 
L 111.673738 -165.486392 
L 111.772833 -167.274659 
L 111.838969 -169.062926 
L 111.879292 -170.851193 
L 111.905294 -172.63946 
L 111.927743 -174.427727 
L 111.952137 -176.215994 
L 111.978697 -178.004261 
L 112.005666 -179.792528 
L 112.032249 -181.580795 
L 112.058891 -183.369063 
L 112.08538 -185.15733 
L 112.109353 -186.945597 
L 112.127429 -188.733864 
L 112.137959 -190.522131 
L 112.142239 -192.310398 
L 112.142808 -194.098665 
L 112.140988 -195.886932 
L 112.136639 -197.675199 
L 112.130364 -199.463466 
L 112.125284 -201.251733 
L 112.125642 -203.04 
L 112.133136 -204.828267 
L 112.144966 -206.616534 
L 112.155976 -208.404801 
L 112.162621 -210.193068 
L 112.164722 -211.981335 
L 112.164097 -213.769602 
L 112.162452 -215.557869 
L 112.160761 -217.346136 
L 112.159836 -219.134403 
L 112.160623 -220.92267 
L 112.163694 -222.710938 
L 112.20674 -222.710938 
L 112.20674 -222.710938 
L 112.209811 -220.92267 
L 112.210598 -219.134403 
L 112.209673 -217.346136 
L 112.207982 -215.557869 
L 112.206337 -213.769602 
L 112.205711 -211.981335 
L 112.207813 -210.193068 
L 112.214458 -208.404801 
L 112.225468 -206.616534 
L 112.237298 -204.828267 
L 112.244792 -203.04 
L 112.24515 -201.251733 
L 112.240069 -199.463466 
L 112.233795 -197.675199 
L 112.229446 -195.886932 
L 112.227626 -194.098665 
L 112.228195 -192.310398 
L 112.232475 -190.522131 
L 112.243005 -188.733864 
L 112.261081 -186.945597 
L 112.285054 -185.15733 
L 112.311543 -183.369063 
L 112.338185 -181.580795 
L 112.364767 -179.792528 
L 112.391737 -178.004261 
L 112.418297 -176.215994 
L 112.442691 -174.427727 
L 112.46514 -172.63946 
L 112.491142 -170.851193 
L 112.531464 -169.062926 
L 112.597601 -167.274659 
L 112.696696 -165.486392 
L 112.830448 -163.698125 
L 112.995904 -161.909858 
L 113.183077 -160.121591 
L 113.372661 -158.333324 
L 113.543075 -156.545057 
L 113.68581 -154.75679 
L 113.814978 -152.968523 
L 113.960591 -151.180256 
L 114.149132 -149.391989 
L 114.384466 -147.603722 
L 114.644905 -145.815455 
L 114.904005 -144.027187 
L 115.15841 -142.23892 
L 115.430091 -140.450653 
L 115.735744 -138.662386 
L 116.059646 -136.874119 
L 116.365416 -135.085852 
L 116.632817 -133.297585 
L 116.875414 -131.509318 
L 117.121767 -129.721051 
L 117.38546 -127.932784 
L 117.654976 -126.144517 
L 117.907014 -124.35625 
L 118.124355 -122.567983 
L 118.300849 -120.779716 
L 118.431436 -118.991449 
L 118.498518 -117.203182 
L 118.469527 -115.414915 
L 118.312407 -113.626648 
L 118.018216 -111.838381 
L 117.609032 -110.050114 
L 117.123516 -108.261847 
L 116.597594 -106.47358 
L 116.058525 -104.685313 
L 115.528089 -102.897045 
L 115.021847 -101.108778 
L 114.54651 -99.320511 
L 114.10527 -97.532244 
L 113.707037 -95.743977 
L 113.366086 -93.95571 
L 113.091498 -92.167443 
L 112.879709 -90.379176 
L 112.717578 -88.590909 
L 112.590108 -86.802642 
L 112.485762 -85.014375 
L 112.398553 -83.226108 
L 112.327697 -81.437841 
L 112.274523 -79.649574 
L 112.238559 -77.861307 
L 112.216374 -76.07304 
L 112.20358 -74.284773 
L 112.197002 -72.496506 
L 112.194872 -70.708239 
L 112.1957 -68.919972 
L 112.197511 -67.131705 
L 112.198269 -65.343437 
L 112.196926 -63.55517 
L 112.193921 -61.766903 
L 112.190581 -59.978636 
L 112.188098 -58.190369 
L 112.18707 -56.402102 
L 112.187799 -54.613835 
L 112.190666 -52.825568 
L 112.195871 -51.037301 
L 112.202593 -49.249034 
L 112.208542 -47.460767 
L 112.210949 -45.6725 
z
" style="stroke: #0d3b66; stroke-opacity: 0.3"/>
    </defs>
    <g clip-path="url(#p4906da9223)">
     <use xlink:href="#mc7b679fa9f" x="0" y="216" style="fill: #0d3b66; fill-opacity: 0.3; stroke: #0d3b66; stroke-opacity: 0.3"/>
    </g>
   </g>
   <g id="PolyCollection_3">
    <defs>
     <path id="mfaff9b3792" d="M 163.132483 -75.178906 
L 162.250761 -75.178906 
L 162.191869 -76.271736 
L 162.131666 -77.364566 
L 162.070011 -78.457396 
L 162.00669 -79.550226 
L 161.941544 -80.643056 
L 161.874525 -81.735885 
L 161.805628 -82.828715 
L 161.734721 -83.921545 
L 161.661304 -85.014375 
L 161.584312 -86.107205 
L 161.502008 -87.200035 
L 161.412042 -88.292865 
L 161.31166 -89.385694 
L 161.19804 -90.478524 
L 161.068673 -91.571354 
L 160.921729 -92.664184 
L 160.756347 -93.757014 
L 160.572815 -94.849844 
L 160.372615 -95.942674 
L 160.158339 -97.035503 
L 159.933468 -98.128333 
L 159.702026 -99.221163 
L 159.468144 -100.313993 
L 159.235579 -101.406823 
L 159.007276 -102.499653 
L 158.785044 -103.592483 
L 158.569443 -104.685313 
L 158.359897 -105.778142 
L 158.155048 -106.870972 
L 157.95328 -107.963802 
L 157.753318 -109.056632 
L 157.554793 -110.149462 
L 157.358652 -111.242292 
L 157.167356 -112.335122 
L 156.984831 -113.427951 
L 156.81618 -114.520781 
L 156.667226 -115.613611 
L 156.543944 -116.706441 
L 156.451878 -117.799271 
L 156.395606 -118.892101 
L 156.378321 -119.984931 
L 156.401575 -121.07776 
L 156.465203 -122.17059 
L 156.567443 -123.26342 
L 156.705219 -124.35625 
L 156.874524 -125.44908 
L 157.070837 -126.54191 
L 157.289468 -127.63474 
L 157.525764 -128.727569 
L 157.775153 -129.820399 
L 158.033063 -130.913229 
L 158.294796 -132.006059 
L 158.555481 -133.098889 
L 158.8102 -134.191719 
L 159.054325 -135.284549 
L 159.284027 -136.377378 
L 159.496814 -137.470208 
L 159.691951 -138.563038 
L 159.870587 -139.655868 
L 160.035515 -140.748698 
L 160.190581 -141.841528 
L 160.339872 -142.934358 
L 160.486869 -144.027187 
L 160.63378 -145.120017 
L 160.781202 -146.212847 
L 160.928164 -147.305677 
L 161.07251 -148.398507 
L 161.211467 -149.491337 
L 161.342263 -150.584167 
L 161.462609 -151.676997 
L 161.571007 -152.769826 
L 161.666833 -153.862656 
L 161.750275 -154.955486 
L 161.822181 -156.048316 
L 161.883892 -157.141146 
L 161.9371 -158.233976 
L 161.983724 -159.326806 
L 162.025789 -160.419635 
L 162.065297 -161.512465 
L 162.104066 -162.605295 
L 162.143567 -163.698125 
L 162.184776 -164.790955 
L 162.228088 -165.883785 
L 162.273299 -166.976615 
L 162.319674 -168.069444 
L 162.366079 -169.162274 
L 162.411158 -170.255104 
L 162.45352 -171.347934 
L 162.491909 -172.440764 
L 162.525344 -173.533594 
L 162.553219 -174.626424 
L 162.575346 -175.719253 
L 162.591968 -176.812083 
L 162.603706 -177.904913 
L 162.611484 -178.997743 
L 162.616408 -180.090573 
L 162.619636 -181.183403 
L 162.622235 -182.276233 
L 162.625073 -183.369063 
L 162.758171 -183.369063 
L 162.758171 -183.369063 
L 162.761009 -182.276233 
L 162.763608 -181.183403 
L 162.766836 -180.090573 
L 162.77176 -178.997743 
L 162.779538 -177.904913 
L 162.791276 -176.812083 
L 162.807897 -175.719253 
L 162.830025 -174.626424 
L 162.8579 -173.533594 
L 162.891335 -172.440764 
L 162.929724 -171.347934 
L 162.972085 -170.255104 
L 163.017165 -169.162274 
L 163.06357 -168.069444 
L 163.109944 -166.976615 
L 163.155156 -165.883785 
L 163.198468 -164.790955 
L 163.239677 -163.698125 
L 163.279178 -162.605295 
L 163.317947 -161.512465 
L 163.357455 -160.419635 
L 163.39952 -159.326806 
L 163.446144 -158.233976 
L 163.499352 -157.141146 
L 163.561063 -156.048316 
L 163.632968 -154.955486 
L 163.71641 -153.862656 
L 163.812237 -152.769826 
L 163.920635 -151.676997 
L 164.040981 -150.584167 
L 164.171776 -149.491337 
L 164.310734 -148.398507 
L 164.45508 -147.305677 
L 164.602042 -146.212847 
L 164.749464 -145.120017 
L 164.896375 -144.027187 
L 165.043372 -142.934358 
L 165.192663 -141.841528 
L 165.347729 -140.748698 
L 165.512657 -139.655868 
L 165.691292 -138.563038 
L 165.88643 -137.470208 
L 166.099217 -136.377378 
L 166.328919 -135.284549 
L 166.573044 -134.191719 
L 166.827763 -133.098889 
L 167.088448 -132.006059 
L 167.350181 -130.913229 
L 167.608091 -129.820399 
L 167.85748 -128.727569 
L 168.093775 -127.63474 
L 168.312407 -126.54191 
L 168.50872 -125.44908 
L 168.678025 -124.35625 
L 168.8158 -123.26342 
L 168.918041 -122.17059 
L 168.981669 -121.07776 
L 169.004923 -119.984931 
L 168.987638 -118.892101 
L 168.931366 -117.799271 
L 168.8393 -116.706441 
L 168.716018 -115.613611 
L 168.567064 -114.520781 
L 168.398413 -113.427951 
L 168.215888 -112.335122 
L 168.024592 -111.242292 
L 167.828451 -110.149462 
L 167.629926 -109.056632 
L 167.429964 -107.963802 
L 167.228196 -106.870972 
L 167.023347 -105.778142 
L 166.813801 -104.685313 
L 166.5982 -103.592483 
L 166.375968 -102.499653 
L 166.147664 -101.406823 
L 165.9151 -100.313993 
L 165.681218 -99.221163 
L 165.449776 -98.128333 
L 165.224905 -97.035503 
L 165.010629 -95.942674 
L 164.810429 -94.849844 
L 164.626896 -93.757014 
L 164.461515 -92.664184 
L 164.314571 -91.571354 
L 164.185204 -90.478524 
L 164.071583 -89.385694 
L 163.971202 -88.292865 
L 163.881235 -87.200035 
L 163.798932 -86.107205 
L 163.72194 -85.014375 
L 163.648523 -83.921545 
L 163.577615 -82.828715 
L 163.508719 -81.735885 
L 163.4417 -80.643056 
L 163.376553 -79.550226 
L 163.313232 -78.457396 
L 163.251578 -77.364566 
L 163.191375 -76.271736 
L 163.132483 -75.178906 
z
" style="stroke: #0d3b66; stroke-opacity: 0.3"/>
    </defs>
    <g clip-path="url(#p4906da9223)">
     <use xlink:href="#mfaff9b3792" x="0" y="216" style="fill: #0d3b66; fill-opacity: 0.3; stroke: #0d3b66; stroke-opacity: 0.3"/>
    </g>
   </g>
   <g id="PolyCollection_4">
    <path d="M 213.468233 170.3275 
L 212.927821 170.3275 
L 212.926803 168.14184 
L 212.948654 165.956181 
L 212.932502 163.770521 
L 212.861534 161.584861 
L 212.746854 159.399201 
L 212.59148 157.213542 
L 212.390356 155.027882 
L 212.170001 152.842222 
L 212.001072 150.656563 
L 211.908008 148.470903 
L 211.813835 146.285243 
L 211.647888 144.099583 
L 211.420647 141.913924 
L 211.15942 139.728264 
L 210.847766 137.542604 
L 210.444503 135.356944 
L 209.974518 133.171285 
L 209.575572 130.985625 
L 209.320498 128.799965 
L 209.080509 126.614306 
L 208.730464 124.428646 
L 208.313786 122.242986 
L 207.936634 120.057326 
L 207.632231 117.871667 
L 207.334284 115.686007 
L 207.024351 113.500347 
L 206.884726 111.314687 
L 207.054107 109.129028 
L 207.358849 106.943368 
L 207.584579 104.757708 
L 207.744229 102.572049 
L 207.939636 100.386389 
L 208.159686 98.200729 
L 208.269256 96.015069 
L 208.251128 93.82941 
L 208.382058 91.64375 
L 208.864154 89.45809 
L 209.466819 87.272431 
L 209.889946 85.086771 
L 210.137347 82.901111 
L 210.34048 80.715451 
L 210.486993 78.529792 
L 210.428112 76.344132 
L 210.182931 74.158472 
L 210.11925 71.972812 
L 210.503687 69.787153 
L 211.076228 67.601493 
L 211.462083 65.415833 
L 211.642357 63.230174 
L 211.780714 61.044514 
L 211.891512 58.858854 
L 211.834708 56.673194 
L 211.613122 54.487535 
L 211.528524 52.301875 
L 211.806864 50.116215 
L 212.247155 47.930556 
L 212.536629 45.744896 
L 212.642591 43.559236 
L 212.699227 41.373576 
L 212.740668 39.187917 
L 212.68613 37.002257 
L 212.537135 34.816597 
L 212.465316 32.630937 
L 212.59756 30.445278 
L 212.829208 28.259618 
L 212.990805 26.073958 
L 213.052045 23.888299 
L 213.072296 21.702639 
L 213.07796 19.516979 
L 213.049422 17.331319 
L 212.990668 15.14566 
L 212.961358 12.96 
L 213.004827 10.77434 
L 213.085141 8.588681 
L 213.143674 6.403021 
L 213.167722 4.217361 
L 213.174889 2.031701 
L 213.174964 -0.153958 
L 213.1654 -2.339618 
L 213.148768 -4.525278 
L 213.140554 -6.710938 
L 213.151543 -8.896597 
L 213.17245 -11.082257 
L 213.188088 -13.267917 
L 213.194632 -15.453576 
L 213.196137 -17.639236 
L 213.195428 -19.824896 
L 213.192662 -22.010556 
L 213.188705 -24.196215 
L 213.186723 -26.381875 
L 213.188798 -28.567535 
L 213.192985 -30.753194 
L 213.196184 -32.938854 
L 213.197563 -35.124514 
L 213.197864 -37.310174 
L 213.197651 -39.495833 
L 213.197018 -41.681493 
L 213.196182 -43.867153 
L 213.19577 -46.052813 
L 213.200284 -46.052813 
L 213.200284 -46.052813 
L 213.199872 -43.867153 
L 213.199036 -41.681493 
L 213.198403 -39.495833 
L 213.19819 -37.310174 
L 213.198491 -35.124514 
L 213.19987 -32.938854 
L 213.203069 -30.753194 
L 213.207255 -28.567535 
L 213.209331 -26.381875 
L 213.207349 -24.196215 
L 213.203392 -22.010556 
L 213.200626 -19.824896 
L 213.199916 -17.639236 
L 213.201422 -15.453576 
L 213.207966 -13.267917 
L 213.223604 -11.082257 
L 213.244511 -8.896597 
L 213.2555 -6.710938 
L 213.247286 -4.525278 
L 213.230653 -2.339618 
L 213.221089 -0.153958 
L 213.221165 2.031701 
L 213.228332 4.217361 
L 213.25238 6.403021 
L 213.310913 8.588681 
L 213.391227 10.77434 
L 213.434696 12.96 
L 213.405386 15.14566 
L 213.346632 17.331319 
L 213.318094 19.516979 
L 213.323758 21.702639 
L 213.344009 23.888299 
L 213.405249 26.073958 
L 213.566846 28.259618 
L 213.798493 30.445278 
L 213.930738 32.630937 
L 213.858919 34.816597 
L 213.709924 37.002257 
L 213.655386 39.187917 
L 213.696827 41.373576 
L 213.753463 43.559236 
L 213.859424 45.744896 
L 214.148899 47.930556 
L 214.589189 50.116215 
L 214.86753 52.301875 
L 214.782931 54.487535 
L 214.561346 56.673194 
L 214.504542 58.858854 
L 214.615339 61.044514 
L 214.753697 63.230174 
L 214.933971 65.415833 
L 215.319825 67.601493 
L 215.892367 69.787153 
L 216.276804 71.972812 
L 216.213123 74.158472 
L 215.967941 76.344132 
L 215.909061 78.529792 
L 216.055574 80.715451 
L 216.258707 82.901111 
L 216.506107 85.086771 
L 216.929234 87.272431 
L 217.5319 89.45809 
L 218.013996 91.64375 
L 218.144925 93.82941 
L 218.126798 96.015069 
L 218.236367 98.200729 
L 218.456418 100.386389 
L 218.651825 102.572049 
L 218.811475 104.757708 
L 219.037205 106.943368 
L 219.341946 109.129028 
L 219.511327 111.314687 
L 219.371703 113.500347 
L 219.06177 115.686007 
L 218.763823 117.871667 
L 218.45942 120.057326 
L 218.082268 122.242986 
L 217.66559 124.428646 
L 217.315544 126.614306 
L 217.075555 128.799965 
L 216.820481 130.985625 
L 216.421535 133.171285 
L 215.951551 135.356944 
L 215.548288 137.542604 
L 215.236634 139.728264 
L 214.975406 141.913924 
L 214.748165 144.099583 
L 214.582218 146.285243 
L 214.488045 148.470903 
L 214.394982 150.656563 
L 214.226052 152.842222 
L 214.005697 155.027882 
L 213.804574 157.213542 
L 213.649199 159.399201 
L 213.53452 161.584861 
L 213.463552 163.770521 
L 213.4474 165.956181 
L 213.469251 168.14184 
L 213.468233 170.3275 
z
" clip-path="url(#p4906da9223)" style="fill: #0d3b66; fill-opacity: 0.3; stroke: #0d3b66; stroke-opacity: 0.3"/>
   </g>
   <g id="PolyCollection_5">
    <defs>
     <path id="ma9ef51d5f4" d="M 264.04322 -45.6725 
L 263.365644 -45.6725 
L 263.329962 -47.659463 
L 263.308736 -49.646427 
L 263.264134 -51.63339 
L 263.181 -53.620354 
L 263.064928 -55.607317 
L 262.914797 -57.59428 
L 262.709454 -59.581244 
L 262.432296 -61.568207 
L 262.111898 -63.55517 
L 261.812734 -65.542134 
L 261.565224 -67.529097 
L 261.332349 -69.516061 
L 261.062179 -71.503024 
L 260.742037 -73.489987 
L 260.392005 -75.476951 
L 260.029186 -77.463914 
L 259.645019 -79.450878 
L 259.227655 -81.437841 
L 258.820225 -83.424804 
L 258.513464 -85.411768 
L 258.339518 -87.398731 
L 258.229417 -89.385694 
L 258.113634 -91.372658 
L 257.998929 -93.359621 
L 257.918168 -95.346585 
L 257.856445 -97.333548 
L 257.752899 -99.320511 
L 257.578723 -101.307475 
L 257.413755 -103.294438 
L 257.391131 -105.281402 
L 257.535818 -107.268365 
L 257.737333 -109.255328 
L 257.907607 -111.242292 
L 258.074181 -113.229255 
L 258.29747 -115.216218 
L 258.562076 -117.203182 
L 258.776745 -119.190145 
L 258.887909 -121.177109 
L 258.986267 -123.164072 
L 259.230969 -125.151035 
L 259.644627 -127.137999 
L 260.077044 -129.124962 
L 260.392151 -131.111926 
L 260.593267 -133.098889 
L 260.75169 -135.085852 
L 260.889174 -137.072816 
L 260.963151 -139.059779 
L 260.962189 -141.046742 
L 260.987539 -143.033706 
L 261.171492 -145.020669 
L 261.508085 -147.007633 
L 261.850839 -148.994596 
L 262.085627 -150.981559 
L 262.224411 -152.968523 
L 262.330716 -154.955486 
L 262.420506 -156.942449 
L 262.457363 -158.929413 
L 262.433228 -160.916376 
L 262.426765 -162.90334 
L 262.535312 -164.890303 
L 262.753679 -166.877266 
L 262.978819 -168.86423 
L 263.130796 -170.851193 
L 263.214498 -172.838157 
L 263.268683 -174.82512 
L 263.302761 -176.812083 
L 263.298699 -178.799047 
L 263.25985 -180.78601 
L 263.234562 -182.772973 
L 263.272545 -184.759937 
L 263.36788 -186.7469 
L 263.469295 -188.733864 
L 263.538394 -190.720827 
L 263.575003 -192.70779 
L 263.593835 -194.694754 
L 263.599328 -196.681717 
L 263.587999 -198.668681 
L 263.56606 -200.655644 
L 263.554071 -202.642607 
L 263.568491 -204.629571 
L 263.60364 -206.616534 
L 263.639367 -208.603497 
L 263.662391 -210.590461 
L 263.673486 -212.577424 
L 263.678402 -214.564388 
L 263.679415 -216.551351 
L 263.676092 -218.538314 
L 263.670451 -220.525278 
L 263.668078 -222.512241 
L 263.673023 -224.499205 
L 263.683358 -226.486168 
L 263.69359 -228.473131 
L 263.700111 -230.460095 
L 263.702802 -232.447058 
L 263.702881 -234.434021 
L 263.70107 -236.420985 
L 263.697838 -238.407948 
L 263.69448 -240.394912 
L 263.693014 -242.381875 
L 263.715849 -242.381875 
L 263.715849 -242.381875 
L 263.714383 -240.394912 
L 263.711026 -238.407948 
L 263.707793 -236.420985 
L 263.705983 -234.434021 
L 263.706062 -232.447058 
L 263.708753 -230.460095 
L 263.715273 -228.473131 
L 263.725506 -226.486168 
L 263.73584 -224.499205 
L 263.740786 -222.512241 
L 263.738413 -220.525278 
L 263.732772 -218.538314 
L 263.729449 -216.551351 
L 263.730461 -214.564388 
L 263.735378 -212.577424 
L 263.746473 -210.590461 
L 263.769497 -208.603497 
L 263.805223 -206.616534 
L 263.840373 -204.629571 
L 263.854793 -202.642607 
L 263.842804 -200.655644 
L 263.820865 -198.668681 
L 263.809535 -196.681717 
L 263.815029 -194.694754 
L 263.833861 -192.70779 
L 263.870469 -190.720827 
L 263.939568 -188.733864 
L 264.040983 -186.7469 
L 264.136318 -184.759937 
L 264.174302 -182.772973 
L 264.149014 -180.78601 
L 264.110165 -178.799047 
L 264.106103 -176.812083 
L 264.14018 -174.82512 
L 264.194366 -172.838157 
L 264.278068 -170.851193 
L 264.430044 -168.86423 
L 264.655184 -166.877266 
L 264.873551 -164.890303 
L 264.982099 -162.90334 
L 264.975636 -160.916376 
L 264.951501 -158.929413 
L 264.988357 -156.942449 
L 265.078148 -154.955486 
L 265.184452 -152.968523 
L 265.323237 -150.981559 
L 265.558025 -148.994596 
L 265.900779 -147.007633 
L 266.237371 -145.020669 
L 266.421325 -143.033706 
L 266.446675 -141.046742 
L 266.445713 -139.059779 
L 266.51969 -137.072816 
L 266.657174 -135.085852 
L 266.815597 -133.098889 
L 267.016712 -131.111926 
L 267.331819 -129.124962 
L 267.764237 -127.137999 
L 268.177895 -125.151035 
L 268.422596 -123.164072 
L 268.520954 -121.177109 
L 268.632119 -119.190145 
L 268.846787 -117.203182 
L 269.111394 -115.216218 
L 269.334683 -113.229255 
L 269.501257 -111.242292 
L 269.671531 -109.255328 
L 269.873045 -107.268365 
L 270.017732 -105.281402 
L 269.995109 -103.294438 
L 269.830141 -101.307475 
L 269.655964 -99.320511 
L 269.552419 -97.333548 
L 269.490696 -95.346585 
L 269.409934 -93.359621 
L 269.29523 -91.372658 
L 269.179447 -89.385694 
L 269.069346 -87.398731 
L 268.8954 -85.411768 
L 268.588639 -83.424804 
L 268.181209 -81.437841 
L 267.763844 -79.450878 
L 267.379678 -77.463914 
L 267.016859 -75.476951 
L 266.666826 -73.489987 
L 266.346684 -71.503024 
L 266.076515 -69.516061 
L 265.843639 -67.529097 
L 265.59613 -65.542134 
L 265.296966 -63.55517 
L 264.976568 -61.568207 
L 264.69941 -59.581244 
L 264.494067 -57.59428 
L 264.343936 -55.607317 
L 264.227864 -53.620354 
L 264.14473 -51.63339 
L 264.100128 -49.646427 
L 264.078902 -47.659463 
L 264.04322 -45.6725 
z
" style="stroke: #0d3b66; stroke-opacity: 0.3"/>
    </defs>
    <g clip-path="url(#p4906da9223)">
     <use xlink:href="#ma9ef51d5f4" x="0" y="216" style="fill: #0d3b66; fill-opacity: 0.3; stroke: #0d3b66; stroke-opacity: 0.3"/>
    </g>
   </g>
   <g id="PolyCollection_6">
    <defs>
     <path id="me6a1f33c14" d="M 314.880409 -78.457397 
L 313.541264 -78.457397 
L 313.459051 -79.616459 
L 313.378041 -80.775521 
L 313.298369 -81.934583 
L 313.219313 -83.093645 
L 313.139323 -84.252707 
L 313.056159 -85.411769 
L 312.96714 -86.570831 
L 312.869458 -87.729893 
L 312.760485 -88.888955 
L 312.63804 -90.048017 
L 312.500554 -91.207079 
L 312.347125 -92.366141 
L 312.177483 -93.525203 
L 311.991901 -94.684265 
L 311.791114 -95.843327 
L 311.576275 -97.002389 
L 311.348956 -98.161451 
L 311.111198 -99.320513 
L 310.865535 -100.479575 
L 310.614955 -101.638637 
L 310.362767 -102.797699 
L 310.112366 -103.95676 
L 309.866937 -105.115822 
L 309.629176 -106.274884 
L 309.401102 -107.433946 
L 309.184027 -108.593008 
L 308.978707 -109.75207 
L 308.785664 -110.911132 
L 308.605579 -112.070194 
L 308.439673 -113.229256 
L 308.289964 -114.388318 
L 308.159309 -115.54738 
L 308.051208 -116.706442 
L 307.969397 -117.865504 
L 307.917312 -119.024566 
L 307.897536 -120.183628 
L 307.911358 -121.34269 
L 307.958515 -122.501752 
L 308.037185 -123.660814 
L 308.144202 -124.819876 
L 308.27545 -125.978938 
L 308.426355 -127.138 
L 308.592391 -128.297062 
L 308.769529 -129.456124 
L 308.954576 -130.615186 
L 309.145372 -131.774247 
L 309.340843 -132.933309 
L 309.540903 -134.092371 
L 309.746226 -135.251433 
L 309.957916 -136.410495 
L 310.177123 -137.569557 
L 310.404649 -138.728619 
L 310.640609 -139.887681 
L 310.884194 -141.046743 
L 311.133584 -142.205805 
L 311.386015 -143.364867 
L 311.638008 -144.523929 
L 311.8857 -145.682991 
L 312.125241 -146.842053 
L 312.353175 -148.001115 
L 312.566754 -149.160177 
L 312.764133 -150.319239 
L 312.944425 -151.478301 
L 313.107624 -152.637363 
L 313.254421 -153.796425 
L 313.385957 -154.955487 
L 313.503574 -156.114549 
L 313.608584 -157.273611 
L 313.702107 -158.432673 
L 313.784985 -159.591734 
L 313.857763 -160.750796 
L 313.920732 -161.909858 
L 313.974005 -163.06892 
L 314.017617 -164.227982 
L 314.05161 -165.387044 
L 314.076108 -166.546106 
L 314.091374 -167.705168 
L 314.09784 -168.86423 
L 314.096128 -170.023292 
L 314.087058 -171.182354 
L 314.071659 -172.341416 
L 314.051161 -173.500478 
L 314.027 -174.65954 
L 314.000783 -175.818602 
L 313.974244 -176.977664 
L 313.949163 -178.136726 
L 313.927246 -179.295788 
L 313.909994 -180.45485 
L 313.898562 -181.613912 
L 313.893646 -182.772974 
L 313.895413 -183.932036 
L 313.903509 -185.091098 
L 313.917127 -186.25016 
L 313.935142 -187.409221 
L 313.95628 -188.568283 
L 313.979281 -189.727345 
L 314.003036 -190.886407 
L 314.026664 -192.045469 
L 314.049537 -193.204531 
L 314.372137 -193.204531 
L 314.372137 -193.204531 
L 314.39501 -192.045469 
L 314.418638 -190.886407 
L 314.442392 -189.727345 
L 314.465394 -188.568283 
L 314.486532 -187.409221 
L 314.504547 -186.25016 
L 314.518164 -185.091098 
L 314.52626 -183.932036 
L 314.528028 -182.772974 
L 314.523111 -181.613912 
L 314.511679 -180.45485 
L 314.494427 -179.295788 
L 314.47251 -178.136726 
L 314.447429 -176.977664 
L 314.420891 -175.818602 
L 314.394674 -174.65954 
L 314.370512 -173.500478 
L 314.350015 -172.341416 
L 314.334615 -171.182354 
L 314.325546 -170.023292 
L 314.323833 -168.86423 
L 314.330299 -167.705168 
L 314.345565 -166.546106 
L 314.370064 -165.387044 
L 314.404056 -164.227982 
L 314.447668 -163.06892 
L 314.500942 -161.909858 
L 314.56391 -160.750796 
L 314.636688 -159.591734 
L 314.719566 -158.432673 
L 314.81309 -157.273611 
L 314.918099 -156.114549 
L 315.035716 -154.955487 
L 315.167253 -153.796425 
L 315.314049 -152.637363 
L 315.477248 -151.478301 
L 315.657541 -150.319239 
L 315.85492 -149.160177 
L 316.068499 -148.001115 
L 316.296432 -146.842053 
L 316.535973 -145.682991 
L 316.783665 -144.523929 
L 317.035658 -143.364867 
L 317.28809 -142.205805 
L 317.537479 -141.046743 
L 317.781064 -139.887681 
L 318.017024 -138.728619 
L 318.244551 -137.569557 
L 318.463758 -136.410495 
L 318.675448 -135.251433 
L 318.88077 -134.092371 
L 319.080831 -132.933309 
L 319.276302 -131.774247 
L 319.467098 -130.615186 
L 319.652144 -129.456124 
L 319.829283 -128.297062 
L 319.995319 -127.138 
L 320.146224 -125.978938 
L 320.277472 -124.819876 
L 320.384489 -123.660814 
L 320.463159 -122.501752 
L 320.510316 -121.34269 
L 320.524137 -120.183628 
L 320.504362 -119.024566 
L 320.452276 -117.865504 
L 320.370465 -116.706442 
L 320.262364 -115.54738 
L 320.131709 -114.388318 
L 319.982001 -113.229256 
L 319.816095 -112.070194 
L 319.636009 -110.911132 
L 319.442966 -109.75207 
L 319.237647 -108.593008 
L 319.020571 -107.433946 
L 318.792497 -106.274884 
L 318.554737 -105.115822 
L 318.309308 -103.95676 
L 318.058907 -102.797699 
L 317.806719 -101.638637 
L 317.556138 -100.479575 
L 317.310475 -99.320513 
L 317.072718 -98.161451 
L 316.845399 -97.002389 
L 316.630559 -95.843327 
L 316.429773 -94.684265 
L 316.244191 -93.525203 
L 316.074548 -92.366141 
L 315.921119 -91.207079 
L 315.783633 -90.048017 
L 315.661189 -88.888955 
L 315.552216 -87.729893 
L 315.454533 -86.570831 
L 315.365515 -85.411769 
L 315.28235 -84.252707 
L 315.20236 -83.093645 
L 315.123305 -81.934583 
L 315.043632 -80.775521 
L 314.962622 -79.616459 
L 314.880409 -78.457397 
z
" style="stroke: #0d3b66; stroke-opacity: 0.3"/>
    </defs>
    <g clip-path="url(#p4906da9223)">
     <use xlink:href="#me6a1f33c14" x="0" y="216" style="fill: #0d3b66; fill-opacity: 0.3; stroke: #0d3b66; stroke-opacity: 0.3"/>
    </g>
   </g>
   <g id="PolyCollection_7">
    <path d="M 74.363773 170.3275 
L 74.247054 170.3275 
L 74.266591 168.14184 
L 74.287112 165.956181 
L 74.278446 163.770521 
L 74.251991 161.584861 
L 74.218875 159.399201 
L 74.177925 157.213542 
L 74.105154 155.027882 
L 73.959175 152.842222 
L 73.734432 150.656563 
L 73.43439 148.470903 
L 73.007971 146.285243 
L 72.509611 144.099583 
L 72.058718 141.913924 
L 71.677394 139.728264 
L 71.30926 137.542604 
L 70.890104 135.356944 
L 70.403599 133.171285 
L 69.914283 130.985625 
L 69.499795 128.799965 
L 69.056948 126.614306 
L 68.636198 124.428646 
L 68.342693 122.242986 
L 68.091334 120.057326 
L 67.992113 117.871667 
L 68.148231 115.686007 
L 68.445151 113.500347 
L 68.856214 111.314687 
L 69.364705 109.129028 
L 69.834279 106.943368 
L 70.31292 104.757708 
L 70.801205 102.572049 
L 71.215612 100.386389 
L 71.599452 98.200729 
L 71.981901 96.015069 
L 72.286249 93.82941 
L 72.527818 91.64375 
L 72.823493 89.45809 
L 73.087553 87.272431 
L 73.279759 85.086771 
L 73.436868 82.901111 
L 73.559355 80.715451 
L 73.660239 78.529792 
L 73.738188 76.344132 
L 73.758895 74.158472 
L 73.773243 71.972812 
L 73.88124 69.787153 
L 73.98477 67.601493 
L 74.01919 65.415833 
L 74.036367 63.230174 
L 74.072413 61.044514 
L 74.114435 58.858854 
L 74.13303 56.673194 
L 74.110072 54.487535 
L 74.089266 52.301875 
L 74.142333 50.116215 
L 74.197979 47.930556 
L 74.217702 45.744896 
L 74.232241 43.559236 
L 74.251466 41.373576 
L 74.270261 39.187917 
L 74.273213 37.002257 
L 74.245622 34.816597 
L 74.221731 32.630937 
L 74.249627 30.445278 
L 74.282023 28.259618 
L 74.289179 26.073958 
L 74.289087 23.888299 
L 74.291068 21.702639 
L 74.295068 19.516979 
L 74.294534 17.331319 
L 74.280383 15.14566 
L 74.268173 12.96 
L 74.281685 10.77434 
L 74.299012 8.588681 
L 74.303586 6.403021 
L 74.302544 4.217361 
L 74.302566 2.031701 
L 74.304099 -0.153958 
L 74.3038 -2.339618 
L 74.299982 -4.525278 
L 74.296944 -6.710938 
L 74.299996 -8.896597 
L 74.303995 -11.082257 
L 74.305261 -13.267917 
L 74.305407 -15.453576 
L 74.305411 -17.639236 
L 74.305356 -19.824896 
L 74.304881 -22.010556 
L 74.303382 -24.196215 
L 74.302238 -26.381875 
L 74.303382 -28.567535 
L 74.304881 -30.753194 
L 74.305356 -32.938854 
L 74.305411 -35.124514 
L 74.305411 -37.310174 
L 74.305356 -39.495833 
L 74.304881 -41.681493 
L 74.303382 -43.867153 
L 74.302238 -46.052813 
L 74.308589 -46.052813 
L 74.308589 -46.052813 
L 74.307445 -43.867153 
L 74.305945 -41.681493 
L 74.30547 -39.495833 
L 74.305416 -37.310174 
L 74.305416 -35.124514 
L 74.30547 -32.938854 
L 74.305945 -30.753194 
L 74.307445 -28.567535 
L 74.308589 -26.381875 
L 74.307445 -24.196215 
L 74.305945 -22.010556 
L 74.30547 -19.824896 
L 74.305416 -17.639236 
L 74.30542 -15.453576 
L 74.305565 -13.267917 
L 74.306832 -11.082257 
L 74.310831 -8.896597 
L 74.313882 -6.710938 
L 74.310844 -4.525278 
L 74.307026 -2.339618 
L 74.306728 -0.153958 
L 74.308261 2.031701 
L 74.308283 4.217361 
L 74.307241 6.403021 
L 74.311814 8.588681 
L 74.329141 10.77434 
L 74.342654 12.96 
L 74.330443 15.14566 
L 74.316292 17.331319 
L 74.315759 19.516979 
L 74.319759 21.702639 
L 74.321739 23.888299 
L 74.321647 26.073958 
L 74.328803 28.259618 
L 74.361199 30.445278 
L 74.389096 32.630937 
L 74.365205 34.816597 
L 74.337614 37.002257 
L 74.340565 39.187917 
L 74.35936 41.373576 
L 74.378585 43.559236 
L 74.393124 45.744896 
L 74.412847 47.930556 
L 74.468494 50.116215 
L 74.52156 52.301875 
L 74.500754 54.487535 
L 74.477797 56.673194 
L 74.496391 58.858854 
L 74.538413 61.044514 
L 74.574459 63.230174 
L 74.591636 65.415833 
L 74.626056 67.601493 
L 74.729586 69.787153 
L 74.837583 71.972812 
L 74.851931 74.158472 
L 74.872639 76.344132 
L 74.950587 78.529792 
L 75.051471 80.715451 
L 75.173959 82.901111 
L 75.331067 85.086771 
L 75.523274 87.272431 
L 75.787334 89.45809 
L 76.083008 91.64375 
L 76.324578 93.82941 
L 76.628925 96.015069 
L 77.011374 98.200729 
L 77.395214 100.386389 
L 77.809621 102.572049 
L 78.297906 104.757708 
L 78.776547 106.943368 
L 79.246121 109.129028 
L 79.754613 111.314687 
L 80.165676 113.500347 
L 80.462595 115.686007 
L 80.618714 117.871667 
L 80.519493 120.057326 
L 80.268133 122.242986 
L 79.974629 124.428646 
L 79.553878 126.614306 
L 79.111031 128.799965 
L 78.696544 130.985625 
L 78.207227 133.171285 
L 77.720722 135.356944 
L 77.301566 137.542604 
L 76.933433 139.728264 
L 76.552108 141.913924 
L 76.101216 144.099583 
L 75.602855 146.285243 
L 75.176437 148.470903 
L 74.876394 150.656563 
L 74.651652 152.842222 
L 74.505672 155.027882 
L 74.432901 157.213542 
L 74.391952 159.399201 
L 74.358836 161.584861 
L 74.332381 163.770521 
L 74.323714 165.956181 
L 74.344235 168.14184 
L 74.363773 170.3275 
z
" clip-path="url(#p4906da9223)" style="fill: #bf4e30; fill-opacity: 0.3; stroke: #bf4e30; stroke-opacity: 0.3"/>
   </g>
   <g id="PolyCollection_8">
    <defs>
     <path id="meecd175418" d="M 124.918631 -45.6725 
L 124.705005 -45.6725 
L 124.713417 -47.063374 
L 124.734678 -48.454249 
L 124.758804 -49.845123 
L 124.776511 -51.235997 
L 124.783159 -52.626872 
L 124.778321 -54.017746 
L 124.762998 -55.408621 
L 124.737235 -56.799495 
L 124.699274 -58.190369 
L 124.646304 -59.581244 
L 124.576967 -60.972118 
L 124.494982 -62.362992 
L 124.410671 -63.753867 
L 124.336263 -65.144741 
L 124.276093 -66.535616 
L 124.220101 -67.92649 
L 124.148081 -69.317364 
L 124.041427 -70.708239 
L 123.891384 -72.099113 
L 123.69747 -73.489987 
L 123.460441 -74.880862 
L 123.178248 -76.271736 
L 122.847845 -77.66261 
L 122.468742 -79.053485 
L 122.044247 -80.444359 
L 121.58227 -81.835234 
L 121.0992 -83.226108 
L 120.622864 -84.616982 
L 120.185604 -86.007857 
L 119.807965 -87.398731 
L 119.487412 -88.789605 
L 119.205211 -90.18048 
L 118.947553 -91.571354 
L 118.722941 -92.962229 
L 118.561543 -94.353103 
L 118.498518 -95.743977 
L 118.555419 -97.134852 
L 118.731528 -98.525726 
L 119.006849 -99.9166 
L 119.351902 -101.307475 
L 119.738161 -102.698349 
L 120.143128 -104.089223 
L 120.547588 -105.480098 
L 120.931281 -106.870972 
L 121.276575 -108.261847 
L 121.579552 -109.652721 
L 121.855881 -111.043595 
L 122.131442 -112.43447 
L 122.422778 -113.825344 
L 122.723722 -115.216218 
L 123.01015 -116.607093 
L 123.258064 -117.997967 
L 123.458387 -119.388842 
L 123.617921 -120.779716 
L 123.750955 -122.17059 
L 123.870933 -123.561465 
L 123.985351 -124.952339 
L 124.093337 -126.343213 
L 124.187343 -127.734088 
L 124.259394 -129.124962 
L 124.307738 -130.515836 
L 124.339016 -131.906711 
L 124.365272 -133.297585 
L 124.398242 -134.68846 
L 124.443659 -136.079334 
L 124.49818 -137.470208 
L 124.551292 -138.861083 
L 124.592076 -140.251957 
L 124.616633 -141.642831 
L 124.630345 -143.033706 
L 124.643045 -144.42458 
L 124.661593 -145.815455 
L 124.686268 -147.206329 
L 124.71276 -148.597203 
L 124.736185 -149.988078 
L 124.753408 -151.378952 
L 124.763344 -152.769826 
L 124.766743 -154.160701 
L 124.765815 -155.551575 
L 124.763046 -156.942449 
L 124.759613 -158.333324 
L 124.755201 -159.724198 
L 124.749942 -161.115073 
L 124.74628 -162.505947 
L 124.748016 -163.896821 
L 124.757042 -165.287696 
L 124.771337 -166.67857 
L 124.786377 -168.069444 
L 124.798296 -169.460319 
L 124.805739 -170.851193 
L 124.809437 -172.242068 
L 124.810746 -173.632942 
L 124.810562 -175.023816 
L 124.809033 -176.414691 
L 124.80585 -177.805565 
L 124.800915 -179.196439 
L 124.795037 -180.587314 
L 124.79008 -181.978188 
L 124.788121 -183.369063 
L 124.835515 -183.369063 
L 124.835515 -183.369063 
L 124.833556 -181.978188 
L 124.8286 -180.587314 
L 124.822721 -179.196439 
L 124.817786 -177.805565 
L 124.814604 -176.414691 
L 124.813074 -175.023816 
L 124.812891 -173.632942 
L 124.814199 -172.242068 
L 124.817898 -170.851193 
L 124.825341 -169.460319 
L 124.837259 -168.069444 
L 124.8523 -166.67857 
L 124.866594 -165.287696 
L 124.87562 -163.896821 
L 124.877356 -162.505947 
L 124.873695 -161.115073 
L 124.868435 -159.724198 
L 124.864024 -158.333324 
L 124.860591 -156.942449 
L 124.857822 -155.551575 
L 124.856893 -154.160701 
L 124.860292 -152.769826 
L 124.870228 -151.378952 
L 124.887451 -149.988078 
L 124.910877 -148.597203 
L 124.937368 -147.206329 
L 124.962043 -145.815455 
L 124.980591 -144.42458 
L 124.993291 -143.033706 
L 125.007003 -141.642831 
L 125.031561 -140.251957 
L 125.072344 -138.861083 
L 125.125456 -137.470208 
L 125.179978 -136.079334 
L 125.225394 -134.68846 
L 125.258364 -133.297585 
L 125.28462 -131.906711 
L 125.315898 -130.515836 
L 125.364242 -129.124962 
L 125.436294 -127.734088 
L 125.530299 -126.343213 
L 125.638286 -124.952339 
L 125.752703 -123.561465 
L 125.872682 -122.17059 
L 126.005716 -120.779716 
L 126.16525 -119.388842 
L 126.365572 -117.997967 
L 126.613487 -116.607093 
L 126.899914 -115.216218 
L 127.200858 -113.825344 
L 127.492194 -112.43447 
L 127.767756 -111.043595 
L 128.044085 -109.652721 
L 128.347062 -108.261847 
L 128.692356 -106.870972 
L 129.076049 -105.480098 
L 129.480509 -104.089223 
L 129.885475 -102.698349 
L 130.271734 -101.307475 
L 130.616787 -99.9166 
L 130.892109 -98.525726 
L 131.068217 -97.134852 
L 131.125119 -95.743977 
L 131.062094 -94.353103 
L 130.900695 -92.962229 
L 130.676083 -91.571354 
L 130.418425 -90.18048 
L 130.136225 -88.789605 
L 129.815671 -87.398731 
L 129.438033 -86.007857 
L 129.000772 -84.616982 
L 128.524436 -83.226108 
L 128.041367 -81.835234 
L 127.579389 -80.444359 
L 127.154894 -79.053485 
L 126.775791 -77.66261 
L 126.445388 -76.271736 
L 126.163196 -74.880862 
L 125.926167 -73.489987 
L 125.732252 -72.099113 
L 125.58221 -70.708239 
L 125.475555 -69.317364 
L 125.403535 -67.92649 
L 125.347544 -66.535616 
L 125.287373 -65.144741 
L 125.212966 -63.753867 
L 125.128655 -62.362992 
L 125.04667 -60.972118 
L 124.977332 -59.581244 
L 124.924363 -58.190369 
L 124.886401 -56.799495 
L 124.860639 -55.408621 
L 124.845315 -54.017746 
L 124.840477 -52.626872 
L 124.847125 -51.235997 
L 124.864833 -49.845123 
L 124.888958 -48.454249 
L 124.910219 -47.063374 
L 124.918631 -45.6725 
z
" style="stroke: #bf4e30; stroke-opacity: 0.3"/>
    </defs>
    <g clip-path="url(#p4906da9223)">
     <use xlink:href="#meecd175418" x="0" y="216" style="fill: #bf4e30; fill-opacity: 0.3; stroke: #bf4e30; stroke-opacity: 0.3"/>
    </g>
   </g>
   <g id="PolyCollection_9">
    <defs>
     <path id="m2ae08ede87" d="M 175.529595 -45.6725 
L 175.106851 -45.6725 
L 175.078071 -47.063374 
L 175.050298 -48.454249 
L 175.023431 -49.845123 
L 174.99702 -51.235997 
L 174.970211 -52.626872 
L 174.941608 -54.017746 
L 174.909047 -55.408621 
L 174.869379 -56.799495 
L 174.818334 -58.190369 
L 174.750525 -59.581244 
L 174.659616 -60.972118 
L 174.538678 -62.362992 
L 174.380775 -63.753867 
L 174.17983 -65.144741 
L 173.931737 -66.535616 
L 173.635537 -67.92649 
L 173.294286 -69.317364 
L 172.915231 -70.708239 
L 172.509027 -72.099113 
L 172.088153 -73.489987 
L 171.665024 -74.880862 
L 171.250503 -76.271736 
L 170.853338 -77.66261 
L 170.48057 -79.053485 
L 170.138487 -80.444359 
L 169.833361 -81.835234 
L 169.571449 -83.226108 
L 169.358107 -84.616982 
L 169.196486 -86.007857 
L 169.086488 -87.398731 
L 169.024617 -88.789605 
L 169.004923 -90.18048 
L 169.02076 -91.571354 
L 169.066759 -92.962229 
L 169.1403 -94.353103 
L 169.242031 -95.743977 
L 169.375218 -97.134852 
L 169.544149 -98.525726 
L 169.752006 -99.9166 
L 169.998823 -101.307475 
L 170.280127 -102.698349 
L 170.586717 -104.089223 
L 170.905763 -105.480098 
L 171.22302 -106.870972 
L 171.525592 -108.261847 
L 171.804485 -109.652721 
L 172.056178 -111.043595 
L 172.282743 -112.43447 
L 172.490474 -113.825344 
L 172.687486 -115.216218 
L 172.881045 -116.607093 
L 173.075438 -117.997967 
L 173.270991 -119.388842 
L 173.464412 -120.779716 
L 173.650186 -122.17059 
L 173.822464 -123.561465 
L 173.976791 -124.952339 
L 174.111167 -126.343213 
L 174.226245 -127.734088 
L 174.324769 -129.124962 
L 174.410578 -130.515836 
L 174.487561 -131.906711 
L 174.558864 -133.297585 
L 174.626505 -134.68846 
L 174.691366 -136.079334 
L 174.753447 -137.470208 
L 174.812203 -138.861083 
L 174.866851 -140.251957 
L 174.916577 -141.642831 
L 174.960666 -143.033706 
L 174.998586 -144.42458 
L 175.030064 -145.815455 
L 175.055156 -147.206329 
L 175.074287 -148.597203 
L 175.088236 -149.988078 
L 175.098043 -151.378952 
L 175.104864 -152.769826 
L 175.109819 -154.160701 
L 175.113899 -155.551575 
L 175.117938 -156.942449 
L 175.122668 -158.333324 
L 175.12878 -159.724198 
L 175.136931 -161.115073 
L 175.147669 -162.505947 
L 175.161268 -163.896821 
L 175.177561 -165.287696 
L 175.195847 -166.67857 
L 175.214935 -168.069444 
L 175.233328 -169.460319 
L 175.249502 -170.851193 
L 175.262202 -172.242068 
L 175.270669 -173.632942 
L 175.274764 -175.023816 
L 175.274972 -176.414691 
L 175.272298 -177.805565 
L 175.268092 -179.196439 
L 175.263811 -180.587314 
L 175.260772 -181.978188 
L 175.259935 -183.369063 
L 175.376512 -183.369063 
L 175.376512 -183.369063 
L 175.375674 -181.978188 
L 175.372635 -180.587314 
L 175.368354 -179.196439 
L 175.364148 -177.805565 
L 175.361475 -176.414691 
L 175.361682 -175.023816 
L 175.365777 -173.632942 
L 175.374244 -172.242068 
L 175.386944 -170.851193 
L 175.403118 -169.460319 
L 175.421511 -168.069444 
L 175.440599 -166.67857 
L 175.458886 -165.287696 
L 175.475178 -163.896821 
L 175.488777 -162.505947 
L 175.499515 -161.115073 
L 175.507667 -159.724198 
L 175.513778 -158.333324 
L 175.518509 -156.942449 
L 175.522547 -155.551575 
L 175.526627 -154.160701 
L 175.531582 -152.769826 
L 175.538403 -151.378952 
L 175.54821 -149.988078 
L 175.562159 -148.597203 
L 175.581291 -147.206329 
L 175.606382 -145.815455 
L 175.63786 -144.42458 
L 175.67578 -143.033706 
L 175.719869 -141.642831 
L 175.769595 -140.251957 
L 175.824243 -138.861083 
L 175.883 -137.470208 
L 175.945081 -136.079334 
L 176.009942 -134.68846 
L 176.077582 -133.297585 
L 176.148885 -131.906711 
L 176.225868 -130.515836 
L 176.311677 -129.124962 
L 176.410201 -127.734088 
L 176.525279 -126.343213 
L 176.659655 -124.952339 
L 176.813983 -123.561465 
L 176.986261 -122.17059 
L 177.172034 -120.779716 
L 177.365455 -119.388842 
L 177.561009 -117.997967 
L 177.755401 -116.607093 
L 177.94896 -115.216218 
L 178.145973 -113.825344 
L 178.353703 -112.43447 
L 178.580268 -111.043595 
L 178.831962 -109.652721 
L 179.110854 -108.261847 
L 179.413426 -106.870972 
L 179.730683 -105.480098 
L 180.04973 -104.089223 
L 180.35632 -102.698349 
L 180.637623 -101.307475 
L 180.884441 -99.9166 
L 181.092298 -98.525726 
L 181.261229 -97.134852 
L 181.394416 -95.743977 
L 181.496146 -94.353103 
L 181.569688 -92.962229 
L 181.615686 -91.571354 
L 181.631524 -90.18048 
L 181.611829 -88.789605 
L 181.549958 -87.398731 
L 181.439961 -86.007857 
L 181.278339 -84.616982 
L 181.064998 -83.226108 
L 180.803085 -81.835234 
L 180.49796 -80.444359 
L 180.155876 -79.053485 
L 179.783109 -77.66261 
L 179.385943 -76.271736 
L 178.971423 -74.880862 
L 178.548294 -73.489987 
L 178.12742 -72.099113 
L 177.721215 -70.708239 
L 177.34216 -69.317364 
L 177.00091 -67.92649 
L 176.704709 -66.535616 
L 176.456617 -65.144741 
L 176.255671 -63.753867 
L 176.097768 -62.362992 
L 175.97683 -60.972118 
L 175.885921 -59.581244 
L 175.818112 -58.190369 
L 175.767067 -56.799495 
L 175.7274 -55.408621 
L 175.694839 -54.017746 
L 175.666235 -52.626872 
L 175.639427 -51.235997 
L 175.613015 -49.845123 
L 175.586149 -48.454249 
L 175.558375 -47.063374 
L 175.529595 -45.6725 
z
" style="stroke: #bf4e30; stroke-opacity: 0.3"/>
    </defs>
    <g clip-path="url(#p4906da9223)">
     <use xlink:href="#m2ae08ede87" x="0" y="216" style="fill: #bf4e30; fill-opacity: 0.3; stroke: #bf4e30; stroke-opacity: 0.3"/>
    </g>
   </g>
   <g id="PolyCollection_10">
    <path d="M 226.595735 170.3275 
L 225.053521 170.3275 
L 225.085516 168.14184 
L 225.175191 165.956181 
L 225.106328 163.770521 
L 224.876987 161.584861 
L 224.5754 159.399201 
L 224.223732 157.213542 
L 223.726061 155.027882 
L 223.046212 152.842222 
L 222.470225 150.656563 
L 222.233441 148.470903 
L 222.06429 146.285243 
L 221.676946 144.099583 
L 221.194482 141.913924 
L 220.852398 139.728264 
L 220.64271 137.542604 
L 220.319736 135.356944 
L 219.800127 133.171285 
L 219.511327 130.985625 
L 219.80081 128.799965 
L 220.289565 126.614306 
L 220.565425 124.428646 
L 220.713992 122.242986 
L 220.938145 120.057326 
L 221.228158 117.871667 
L 221.377576 115.686007 
L 221.30461 113.500347 
L 221.370833 111.314687 
L 221.884162 109.129028 
L 222.513596 106.943368 
L 222.897751 104.757708 
L 223.113216 102.572049 
L 223.332599 100.386389 
L 223.568177 98.200729 
L 223.693989 96.015069 
L 223.655562 93.82941 
L 223.697413 91.64375 
L 224.04191 89.45809 
L 224.468223 87.272431 
L 224.708 85.086771 
L 224.805706 82.901111 
L 224.895221 80.715451 
L 224.981133 78.529792 
L 224.954059 76.344132 
L 224.791046 74.158472 
L 224.724771 71.972812 
L 224.944977 69.787153 
L 225.26133 67.601493 
L 225.434312 65.415833 
L 225.484357 63.230174 
L 225.521555 61.044514 
L 225.56163 58.858854 
L 225.537104 56.673194 
L 225.431927 54.487535 
L 225.372947 52.301875 
L 225.465747 50.116215 
L 225.619379 47.930556 
L 225.708754 45.744896 
L 225.733335 43.559236 
L 225.742344 41.373576 
L 225.745744 39.187917 
L 225.714904 37.002257 
L 225.64652 34.816597 
L 225.608742 32.630937 
L 225.656234 30.445278 
L 225.739921 28.259618 
L 225.791596 26.073958 
L 225.807351 23.888299 
L 225.810012 21.702639 
L 225.804914 19.516979 
L 225.780579 17.331319 
L 225.738682 15.14566 
L 225.715758 12.96 
L 225.739412 10.77434 
L 225.783052 8.588681 
L 225.810685 6.403021 
L 225.819719 4.217361 
L 225.821459 2.031701 
L 225.819931 -0.153958 
L 225.812535 -2.339618 
L 225.800097 -4.525278 
L 225.793329 -6.710938 
L 225.800199 -8.896597 
L 225.812999 -11.082257 
L 225.821251 -13.267917 
L 225.824005 -15.453576 
L 225.824325 -17.639236 
L 225.823274 -19.824896 
L 225.819976 -22.010556 
L 225.814857 -24.196215 
L 225.812114 -26.381875 
L 225.814857 -28.567535 
L 225.819977 -30.753194 
L 225.823278 -32.938854 
L 225.824387 -35.124514 
L 225.824582 -37.310174 
L 225.824514 -39.495833 
L 225.82424 -41.681493 
L 225.823814 -43.867153 
L 225.823585 -46.052813 
L 225.825671 -46.052813 
L 225.825671 -46.052813 
L 225.825442 -43.867153 
L 225.825016 -41.681493 
L 225.824742 -39.495833 
L 225.824674 -37.310174 
L 225.824869 -35.124514 
L 225.825978 -32.938854 
L 225.82928 -30.753194 
L 225.834399 -28.567535 
L 225.837142 -26.381875 
L 225.834399 -24.196215 
L 225.82928 -22.010556 
L 225.825982 -19.824896 
L 225.824931 -17.639236 
L 225.825251 -15.453576 
L 225.828005 -13.267917 
L 225.836257 -11.082257 
L 225.849057 -8.896597 
L 225.855927 -6.710938 
L 225.849159 -4.525278 
L 225.836722 -2.339618 
L 225.829326 -0.153958 
L 225.827797 2.031701 
L 225.829538 4.217361 
L 225.838571 6.403021 
L 225.866204 8.588681 
L 225.909845 10.77434 
L 225.933498 12.96 
L 225.910574 15.14566 
L 225.868677 17.331319 
L 225.844342 19.516979 
L 225.839244 21.702639 
L 225.841906 23.888299 
L 225.85766 26.073958 
L 225.909335 28.259618 
L 225.993022 30.445278 
L 226.040514 32.630937 
L 226.002736 34.816597 
L 225.934352 37.002257 
L 225.903512 39.187917 
L 225.906912 41.373576 
L 225.915921 43.559236 
L 225.940502 45.744896 
L 226.029877 47.930556 
L 226.183509 50.116215 
L 226.276309 52.301875 
L 226.217329 54.487535 
L 226.112152 56.673194 
L 226.087626 58.858854 
L 226.127701 61.044514 
L 226.164899 63.230174 
L 226.214944 65.415833 
L 226.387926 67.601493 
L 226.704279 69.787153 
L 226.924486 71.972812 
L 226.85821 74.158472 
L 226.695197 76.344132 
L 226.668123 78.529792 
L 226.754035 80.715451 
L 226.84355 82.901111 
L 226.941256 85.086771 
L 227.181033 87.272431 
L 227.607346 89.45809 
L 227.951843 91.64375 
L 227.993694 93.82941 
L 227.955267 96.015069 
L 228.081079 98.200729 
L 228.316657 100.386389 
L 228.53604 102.572049 
L 228.751506 104.757708 
L 229.13566 106.943368 
L 229.765094 109.129028 
L 230.278424 111.314687 
L 230.344646 113.500347 
L 230.27168 115.686007 
L 230.421098 117.871667 
L 230.711111 120.057326 
L 230.935264 122.242986 
L 231.083831 124.428646 
L 231.359692 126.614306 
L 231.848446 128.799965 
L 232.137929 130.985625 
L 231.849129 133.171285 
L 231.32952 135.356944 
L 231.006546 137.542604 
L 230.796858 139.728264 
L 230.454775 141.913924 
L 229.97231 144.099583 
L 229.584967 146.285243 
L 229.415815 148.470903 
L 229.179031 150.656563 
L 228.603044 152.842222 
L 227.923196 155.027882 
L 227.425524 157.213542 
L 227.073856 159.399201 
L 226.772269 161.584861 
L 226.542928 163.770521 
L 226.474065 165.956181 
L 226.56374 168.14184 
L 226.595735 170.3275 
z
" clip-path="url(#p4906da9223)" style="fill: #bf4e30; fill-opacity: 0.3; stroke: #bf4e30; stroke-opacity: 0.3"/>
   </g>
   <g id="PolyCollection_11">
    <defs>
     <path id="ma20f1e19ab" d="M 278.034211 -45.6725 
L 274.627855 -45.6725 
L 274.491731 -47.659463 
L 274.498938 -49.646427 
L 274.387957 -51.63339 
L 274.096297 -53.620354 
L 273.714895 -55.607317 
L 273.324098 -57.59428 
L 272.903155 -59.581244 
L 272.358619 -61.568207 
L 271.720281 -63.55517 
L 271.236584 -65.542134 
L 271.043434 -67.529097 
L 270.932066 -69.516061 
L 270.682584 -71.503024 
L 270.343576 -73.489987 
L 270.093468 -75.476951 
L 270.032049 -77.463914 
L 270.08864 -79.450878 
L 270.088517 -81.437841 
L 270.017732 -83.424804 
L 270.125228 -85.411768 
L 270.530593 -87.398731 
L 270.996661 -89.385694 
L 271.31056 -91.372658 
L 271.532362 -93.359621 
L 271.802903 -95.346585 
L 272.16009 -97.333548 
L 272.513359 -99.320511 
L 272.726561 -101.307475 
L 272.827013 -103.294438 
L 273.04299 -105.281402 
L 273.453309 -107.268365 
L 273.846536 -109.255328 
L 274.066863 -111.242292 
L 274.191525 -113.229255 
L 274.344562 -115.216218 
L 274.542909 -117.203182 
L 274.701978 -119.190145 
L 274.737966 -121.177109 
L 274.71359 -123.164072 
L 274.808151 -125.151035 
L 275.058518 -127.137999 
L 275.304919 -129.124962 
L 275.439906 -131.111926 
L 275.509726 -133.098889 
L 275.58714 -135.085852 
L 275.67585 -137.072816 
L 275.718203 -139.059779 
L 275.67201 -141.046742 
L 275.603015 -143.033706 
L 275.637577 -145.020669 
L 275.789413 -147.007633 
L 275.94928 -148.994596 
L 276.047311 -150.981559 
L 276.103412 -152.968523 
L 276.147874 -154.955486 
L 276.175276 -156.942449 
L 276.162118 -158.929413 
L 276.10749 -160.916376 
L 276.059556 -162.90334 
L 276.075928 -164.890303 
L 276.150448 -166.877266 
L 276.224735 -168.86423 
L 276.264439 -170.851193 
L 276.279612 -172.838157 
L 276.289251 -174.82512 
L 276.297475 -176.812083 
L 276.297855 -178.799047 
L 276.288698 -180.78601 
L 276.28054 -182.772973 
L 276.285196 -184.759937 
L 276.300201 -186.7469 
L 276.313207 -188.733864 
L 276.318054 -190.720827 
L 276.318105 -192.70779 
L 276.318007 -194.694754 
L 276.317656 -196.681717 
L 276.313573 -198.668681 
L 276.30547 -200.655644 
L 276.299988 -202.642607 
L 276.303698 -204.629571 
L 276.314056 -206.616534 
L 276.323215 -208.603497 
L 276.327567 -210.590461 
L 276.328777 -212.577424 
L 276.329096 -214.564388 
L 276.328887 -216.551351 
L 276.327487 -218.538314 
L 276.32519 -220.525278 
L 276.323841 -222.512241 
L 276.324855 -224.499205 
L 276.327373 -226.486168 
L 276.32954 -228.473131 
L 276.330612 -230.460095 
L 276.330935 -232.447058 
L 276.330932 -234.434021 
L 276.330698 -236.420985 
L 276.330182 -238.407948 
L 276.329543 -240.394912 
L 276.329237 -242.381875 
L 276.332829 -242.381875 
L 276.332829 -242.381875 
L 276.332523 -240.394912 
L 276.331884 -238.407948 
L 276.331368 -236.420985 
L 276.331134 -234.434021 
L 276.331131 -232.447058 
L 276.331454 -230.460095 
L 276.332526 -228.473131 
L 276.334693 -226.486168 
L 276.337211 -224.499205 
L 276.338225 -222.512241 
L 276.336876 -220.525278 
L 276.334579 -218.538314 
L 276.333179 -216.551351 
L 276.33297 -214.564388 
L 276.33329 -212.577424 
L 276.334499 -210.590461 
L 276.338851 -208.603497 
L 276.348011 -206.616534 
L 276.358369 -204.629571 
L 276.362078 -202.642607 
L 276.356596 -200.655644 
L 276.348493 -198.668681 
L 276.344411 -196.681717 
L 276.344059 -194.694754 
L 276.343961 -192.70779 
L 276.344012 -190.720827 
L 276.34886 -188.733864 
L 276.361865 -186.7469 
L 276.37687 -184.759937 
L 276.381526 -182.772973 
L 276.373368 -180.78601 
L 276.364211 -178.799047 
L 276.364591 -176.812083 
L 276.372815 -174.82512 
L 276.382454 -172.838157 
L 276.397627 -170.851193 
L 276.437331 -168.86423 
L 276.511618 -166.877266 
L 276.586138 -164.890303 
L 276.60251 -162.90334 
L 276.554576 -160.916376 
L 276.499948 -158.929413 
L 276.48679 -156.942449 
L 276.514192 -154.955486 
L 276.558654 -152.968523 
L 276.614755 -150.981559 
L 276.712786 -148.994596 
L 276.872654 -147.007633 
L 277.024489 -145.020669 
L 277.059051 -143.033706 
L 276.990056 -141.046742 
L 276.943863 -139.059779 
L 276.986216 -137.072816 
L 277.074926 -135.085852 
L 277.15234 -133.098889 
L 277.22216 -131.111926 
L 277.357147 -129.124962 
L 277.603548 -127.137999 
L 277.853915 -125.151035 
L 277.948476 -123.164072 
L 277.9241 -121.177109 
L 277.960088 -119.190145 
L 278.119157 -117.203182 
L 278.317504 -115.216218 
L 278.470541 -113.229255 
L 278.595203 -111.242292 
L 278.81553 -109.255328 
L 279.208757 -107.268365 
L 279.619076 -105.281402 
L 279.835053 -103.294438 
L 279.935506 -101.307475 
L 280.148707 -99.320511 
L 280.501976 -97.333548 
L 280.859163 -95.346585 
L 281.129705 -93.359621 
L 281.351506 -91.372658 
L 281.665405 -89.385694 
L 282.131473 -87.398731 
L 282.536838 -85.411768 
L 282.644334 -83.424804 
L 282.573549 -81.437841 
L 282.573426 -79.450878 
L 282.630017 -77.463914 
L 282.568599 -75.476951 
L 282.31849 -73.489987 
L 281.979482 -71.503024 
L 281.73 -69.516061 
L 281.618632 -67.529097 
L 281.425482 -65.542134 
L 280.941785 -63.55517 
L 280.303447 -61.568207 
L 279.758911 -59.581244 
L 279.337968 -57.59428 
L 278.947172 -55.607317 
L 278.565769 -53.620354 
L 278.274109 -51.63339 
L 278.163128 -49.646427 
L 278.170335 -47.659463 
L 278.034211 -45.6725 
z
" style="stroke: #bf4e30; stroke-opacity: 0.3"/>
    </defs>
    <g clip-path="url(#p4906da9223)">
     <use xlink:href="#ma20f1e19ab" x="0" y="216" style="fill: #bf4e30; fill-opacity: 0.3; stroke: #bf4e30; stroke-opacity: 0.3"/>
    </g>
   </g>
   <g id="PolyCollection_12">
    <defs>
     <path id="m00dc9f6be2" d="M 327.087549 -45.6725 
L 326.587327 -45.6725 
L 326.58967 -46.665982 
L 326.598053 -47.659463 
L 326.611185 -48.652945 
L 326.627166 -49.646427 
L 326.64365 -50.639908 
L 326.658024 -51.63339 
L 326.667618 -52.626872 
L 326.669892 -53.620354 
L 326.66261 -54.613835 
L 326.643985 -55.607317 
L 326.612785 -56.600799 
L 326.56841 -57.59428 
L 326.510905 -58.587762 
L 326.440924 -59.581244 
L 326.359606 -60.574725 
L 326.268387 -61.568207 
L 326.168749 -62.561689 
L 326.061945 -63.55517 
L 325.948747 -64.548652 
L 325.82928 -65.542134 
L 325.702972 -66.535616 
L 325.568661 -67.529097 
L 325.424831 -68.522579 
L 325.269944 -69.516061 
L 325.102787 -70.509542 
L 324.922769 -71.503024 
L 324.73009 -72.496506 
L 324.525761 -73.489987 
L 324.311473 -74.483469 
L 324.089359 -75.476951 
L 323.861722 -76.470432 
L 323.630787 -77.463914 
L 323.398543 -78.457396 
L 323.166687 -79.450878 
L 322.936667 -80.444359 
L 322.709778 -81.437841 
L 322.487266 -82.431323 
L 322.270401 -83.424804 
L 322.060483 -84.418286 
L 321.858806 -85.411768 
L 321.666585 -86.405249 
L 321.484904 -87.398731 
L 321.31472 -88.392213 
L 321.156934 -89.385694 
L 321.012526 -90.379176 
L 320.882725 -91.372658 
L 320.76916 -92.36614 
L 320.673924 -93.359621 
L 320.59953 -94.353103 
L 320.548716 -95.346585 
L 320.524137 -96.340066 
L 320.52799 -97.333548 
L 320.561633 -98.32703 
L 320.625306 -99.320511 
L 320.717986 -100.313993 
L 320.837437 -101.307475 
L 320.980426 -102.300956 
L 321.143077 -103.294438 
L 321.321286 -104.28792 
L 321.511103 -105.281402 
L 321.709041 -106.274883 
L 321.912247 -107.268365 
L 322.11854 -108.261847 
L 322.326341 -109.255328 
L 322.534534 -110.24881 
L 322.742317 -111.242292 
L 322.949076 -112.235773 
L 323.154307 -113.229255 
L 323.357583 -114.222737 
L 323.558543 -115.216218 
L 323.756887 -116.2097 
L 323.952349 -117.203182 
L 324.144637 -118.196664 
L 324.333356 -119.190145 
L 324.517925 -120.183627 
L 324.697514 -121.177109 
L 324.871016 -122.17059 
L 325.037076 -123.164072 
L 325.194165 -124.157554 
L 325.340709 -125.151035 
L 325.47523 -126.144517 
L 325.596514 -127.137999 
L 325.70376 -128.13148 
L 325.796701 -129.124962 
L 325.875682 -130.118444 
L 325.941685 -131.111926 
L 325.996276 -132.105407 
L 326.041498 -133.098889 
L 326.079703 -134.092371 
L 326.113345 -135.085852 
L 326.144769 -136.079334 
L 326.176017 -137.072816 
L 326.208681 -138.066297 
L 326.243817 -139.059779 
L 326.28193 -140.053261 
L 326.323016 -141.046742 
L 326.366655 -142.040224 
L 326.412118 -143.033706 
L 326.458484 -144.027187 
L 327.216392 -144.027187 
L 327.216392 -144.027187 
L 327.262758 -143.033706 
L 327.308221 -142.040224 
L 327.35186 -141.046742 
L 327.392946 -140.053261 
L 327.431059 -139.059779 
L 327.466195 -138.066297 
L 327.498859 -137.072816 
L 327.530107 -136.079334 
L 327.561531 -135.085852 
L 327.595173 -134.092371 
L 327.633378 -133.098889 
L 327.6786 -132.105407 
L 327.733191 -131.111926 
L 327.799194 -130.118444 
L 327.878175 -129.124962 
L 327.971116 -128.13148 
L 328.078362 -127.137999 
L 328.199646 -126.144517 
L 328.334167 -125.151035 
L 328.480711 -124.157554 
L 328.6378 -123.164072 
L 328.80386 -122.17059 
L 328.977362 -121.177109 
L 329.156951 -120.183627 
L 329.34152 -119.190145 
L 329.530239 -118.196664 
L 329.722527 -117.203182 
L 329.917989 -116.2097 
L 330.116333 -115.216218 
L 330.317293 -114.222737 
L 330.520569 -113.229255 
L 330.7258 -112.235773 
L 330.932559 -111.242292 
L 331.140342 -110.24881 
L 331.348535 -109.255328 
L 331.556336 -108.261847 
L 331.762629 -107.268365 
L 331.965835 -106.274883 
L 332.163773 -105.281402 
L 332.35359 -104.28792 
L 332.531799 -103.294438 
L 332.694451 -102.300956 
L 332.837439 -101.307475 
L 332.95689 -100.313993 
L 333.04957 -99.320511 
L 333.113243 -98.32703 
L 333.146886 -97.333548 
L 333.150739 -96.340066 
L 333.12616 -95.346585 
L 333.075346 -94.353103 
L 333.000952 -93.359621 
L 332.905716 -92.36614 
L 332.792151 -91.372658 
L 332.66235 -90.379176 
L 332.517942 -89.385694 
L 332.360156 -88.392213 
L 332.189972 -87.398731 
L 332.008291 -86.405249 
L 331.81607 -85.411768 
L 331.614393 -84.418286 
L 331.404475 -83.424804 
L 331.18761 -82.431323 
L 330.965098 -81.437841 
L 330.738209 -80.444359 
L 330.508189 -79.450878 
L 330.276333 -78.457396 
L 330.044089 -77.463914 
L 329.813154 -76.470432 
L 329.585517 -75.476951 
L 329.363403 -74.483469 
L 329.149115 -73.489987 
L 328.944786 -72.496506 
L 328.752107 -71.503024 
L 328.572089 -70.509542 
L 328.404933 -69.516061 
L 328.250045 -68.522579 
L 328.106215 -67.529097 
L 327.971904 -66.535616 
L 327.845596 -65.542134 
L 327.726129 -64.548652 
L 327.612931 -63.55517 
L 327.506127 -62.561689 
L 327.406489 -61.568207 
L 327.31527 -60.574725 
L 327.233952 -59.581244 
L 327.163971 -58.587762 
L 327.106466 -57.59428 
L 327.062091 -56.600799 
L 327.030891 -55.607317 
L 327.012266 -54.613835 
L 327.004984 -53.620354 
L 327.007258 -52.626872 
L 327.016852 -51.63339 
L 327.031226 -50.639908 
L 327.04771 -49.646427 
L 327.063691 -48.652945 
L 327.076823 -47.659463 
L 327.085207 -46.665982 
L 327.087549 -45.6725 
z
" style="stroke: #bf4e30; stroke-opacity: 0.3"/>
    </defs>
    <g clip-path="url(#p4906da9223)">
     <use xlink:href="#m00dc9f6be2" x="0" y="216" style="fill: #bf4e30; fill-opacity: 0.3; stroke: #bf4e30; stroke-opacity: 0.3"/>
    </g>
   </g>
   <g id="matplotlib.axis_1">
    <g id="xtick_1">
     <g id="line2d_1">
      <defs>
       <path id="mdfbe24cc87" d="M 0 0 
L 0 3.5 
" style="stroke: #000000; stroke-width: 0.8"/>
      </defs>
      <g>
       <use xlink:href="#mdfbe24cc87" x="67.992113" y="170.3275" style="stroke: #000000; stroke-width: 0.8"/>
      </g>
     </g>
     <g id="text_1">
      <!-- protein -->
      <g transform="translate(49.64805 185.916875) scale(0.12 -0.12)">
       <defs>
        <path id="ArialMT-70" d="M 422 -1272 
L 422 3319 
L 934 3319 
L 934 2888 
Q 1116 3141 1344 3267 
Q 1572 3394 1897 3394 
Q 2322 3394 2647 3175 
Q 2972 2956 3137 2557 
Q 3303 2159 3303 1684 
Q 3303 1175 3120 767 
Q 2938 359 2589 142 
Q 2241 -75 1856 -75 
Q 1575 -75 1351 44 
Q 1128 163 984 344 
L 984 -1272 
L 422 -1272 
z
M 931 1641 
Q 931 1000 1190 694 
Q 1450 388 1819 388 
Q 2194 388 2461 705 
Q 2728 1022 2728 1688 
Q 2728 2322 2467 2637 
Q 2206 2953 1844 2953 
Q 1484 2953 1207 2617 
Q 931 2281 931 1641 
z
" transform="scale(0.015625)"/>
        <path id="ArialMT-72" d="M 416 0 
L 416 3319 
L 922 3319 
L 922 2816 
Q 1116 3169 1280 3281 
Q 1444 3394 1641 3394 
Q 1925 3394 2219 3213 
L 2025 2691 
Q 1819 2813 1613 2813 
Q 1428 2813 1281 2702 
Q 1134 2591 1072 2394 
Q 978 2094 978 1738 
L 978 0 
L 416 0 
z
" transform="scale(0.015625)"/>
        <path id="ArialMT-6f" d="M 213 1659 
Q 213 2581 725 3025 
Q 1153 3394 1769 3394 
Q 2453 3394 2887 2945 
Q 3322 2497 3322 1706 
Q 3322 1066 3130 698 
Q 2938 331 2570 128 
Q 2203 -75 1769 -75 
Q 1072 -75 642 372 
Q 213 819 213 1659 
z
M 791 1659 
Q 791 1022 1069 705 
Q 1347 388 1769 388 
Q 2188 388 2466 706 
Q 2744 1025 2744 1678 
Q 2744 2294 2464 2611 
Q 2184 2928 1769 2928 
Q 1347 2928 1069 2612 
Q 791 2297 791 1659 
z
" transform="scale(0.015625)"/>
        <path id="ArialMT-74" d="M 1650 503 
L 1731 6 
Q 1494 -44 1306 -44 
Q 1000 -44 831 53 
Q 663 150 594 308 
Q 525 466 525 972 
L 525 2881 
L 113 2881 
L 113 3319 
L 525 3319 
L 525 4141 
L 1084 4478 
L 1084 3319 
L 1650 3319 
L 1650 2881 
L 1084 2881 
L 1084 941 
Q 1084 700 1114 631 
Q 1144 563 1211 522 
Q 1278 481 1403 481 
Q 1497 481 1650 503 
z
" transform="scale(0.015625)"/>
        <path id="ArialMT-65" d="M 2694 1069 
L 3275 997 
Q 3138 488 2766 206 
Q 2394 -75 1816 -75 
Q 1088 -75 661 373 
Q 234 822 234 1631 
Q 234 2469 665 2931 
Q 1097 3394 1784 3394 
Q 2450 3394 2872 2941 
Q 3294 2488 3294 1666 
Q 3294 1616 3291 1516 
L 816 1516 
Q 847 969 1125 678 
Q 1403 388 1819 388 
Q 2128 388 2347 550 
Q 2566 713 2694 1069 
z
M 847 1978 
L 2700 1978 
Q 2663 2397 2488 2606 
Q 2219 2931 1791 2931 
Q 1403 2931 1139 2672 
Q 875 2413 847 1978 
z
" transform="scale(0.015625)"/>
        <path id="ArialMT-69" d="M 425 3934 
L 425 4581 
L 988 4581 
L 988 3934 
L 425 3934 
z
M 425 0 
L 425 3319 
L 988 3319 
L 988 0 
L 425 0 
z
" transform="scale(0.015625)"/>
        <path id="ArialMT-6e" d="M 422 0 
L 422 3319 
L 928 3319 
L 928 2847 
Q 1294 3394 1984 3394 
Q 2284 3394 2536 3286 
Q 2788 3178 2913 3003 
Q 3038 2828 3088 2588 
Q 3119 2431 3119 2041 
L 3119 0 
L 2556 0 
L 2556 2019 
Q 2556 2363 2490 2533 
Q 2425 2703 2258 2804 
Q 2091 2906 1866 2906 
Q 1506 2906 1245 2678 
Q 984 2450 984 1813 
L 984 0 
L 422 0 
z
" transform="scale(0.015625)"/>
       </defs>
       <use xlink:href="#ArialMT-70"/>
       <use xlink:href="#ArialMT-72" x="55.615234"/>
       <use xlink:href="#ArialMT-6f" x="88.916016"/>
       <use xlink:href="#ArialMT-74" x="144.53125"/>
       <use xlink:href="#ArialMT-65" x="172.314453"/>
       <use xlink:href="#ArialMT-69" x="227.929688"/>
       <use xlink:href="#ArialMT-6e" x="250.146484"/>
      </g>
     </g>
    </g>
    <g id="xtick_2">
     <g id="line2d_2">
      <g>
       <use xlink:href="#mdfbe24cc87" x="118.498518" y="170.3275" style="stroke: #000000; stroke-width: 0.8"/>
      </g>
     </g>
     <g id="text_2">
      <!-- DNA -->
      <g transform="translate(105.83008 185.916875) scale(0.12 -0.12)">
       <defs>
        <path id="ArialMT-44" d="M 494 0 
L 494 4581 
L 2072 4581 
Q 2606 4581 2888 4516 
Q 3281 4425 3559 4188 
Q 3922 3881 4101 3404 
Q 4281 2928 4281 2316 
Q 4281 1794 4159 1391 
Q 4038 988 3847 723 
Q 3656 459 3429 307 
Q 3203 156 2883 78 
Q 2563 0 2147 0 
L 494 0 
z
M 1100 541 
L 2078 541 
Q 2531 541 2789 625 
Q 3047 709 3200 863 
Q 3416 1078 3536 1442 
Q 3656 1806 3656 2325 
Q 3656 3044 3420 3430 
Q 3184 3816 2847 3947 
Q 2603 4041 2063 4041 
L 1100 4041 
L 1100 541 
z
" transform="scale(0.015625)"/>
        <path id="ArialMT-4e" d="M 488 0 
L 488 4581 
L 1109 4581 
L 3516 984 
L 3516 4581 
L 4097 4581 
L 4097 0 
L 3475 0 
L 1069 3600 
L 1069 0 
L 488 0 
z
" transform="scale(0.015625)"/>
        <path id="ArialMT-41" d="M -9 0 
L 1750 4581 
L 2403 4581 
L 4278 0 
L 3588 0 
L 3053 1388 
L 1138 1388 
L 634 0 
L -9 0 
z
M 1313 1881 
L 2866 1881 
L 2388 3150 
Q 2169 3728 2063 4100 
Q 1975 3659 1816 3225 
L 1313 1881 
z
" transform="scale(0.015625)"/>
       </defs>
       <use xlink:href="#ArialMT-44"/>
       <use xlink:href="#ArialMT-4e" x="72.216797"/>
       <use xlink:href="#ArialMT-41" x="144.433594"/>
      </g>
     </g>
    </g>
    <g id="xtick_3">
     <g id="line2d_3">
      <g>
       <use xlink:href="#mdfbe24cc87" x="169.004923" y="170.3275" style="stroke: #000000; stroke-width: 0.8"/>
      </g>
     </g>
     <g id="text_3">
      <!-- RNA -->
      <g transform="translate(156.336485 185.916875) scale(0.12 -0.12)">
       <defs>
        <path id="ArialMT-52" d="M 503 0 
L 503 4581 
L 2534 4581 
Q 3147 4581 3465 4457 
Q 3784 4334 3975 4021 
Q 4166 3709 4166 3331 
Q 4166 2844 3850 2509 
Q 3534 2175 2875 2084 
Q 3116 1969 3241 1856 
Q 3506 1613 3744 1247 
L 4541 0 
L 3778 0 
L 3172 953 
Q 2906 1366 2734 1584 
Q 2563 1803 2427 1890 
Q 2291 1978 2150 2013 
Q 2047 2034 1813 2034 
L 1109 2034 
L 1109 0 
L 503 0 
z
M 1109 2559 
L 2413 2559 
Q 2828 2559 3062 2645 
Q 3297 2731 3419 2920 
Q 3541 3109 3541 3331 
Q 3541 3656 3305 3865 
Q 3069 4075 2559 4075 
L 1109 4075 
L 1109 2559 
z
" transform="scale(0.015625)"/>
       </defs>
       <use xlink:href="#ArialMT-52"/>
       <use xlink:href="#ArialMT-4e" x="72.216797"/>
       <use xlink:href="#ArialMT-41" x="144.433594"/>
      </g>
     </g>
    </g>
    <g id="xtick_4">
     <g id="line2d_4">
      <g>
       <use xlink:href="#mdfbe24cc87" x="219.511327" y="170.3275" style="stroke: #000000; stroke-width: 0.8"/>
      </g>
     </g>
     <g id="text_4">
      <!-- ligand -->
      <g transform="translate(203.498827 185.916875) scale(0.12 -0.12)">
       <defs>
        <path id="ArialMT-6c" d="M 409 0 
L 409 4581 
L 972 4581 
L 972 0 
L 409 0 
z
" transform="scale(0.015625)"/>
        <path id="ArialMT-67" d="M 319 -275 
L 866 -356 
Q 900 -609 1056 -725 
Q 1266 -881 1628 -881 
Q 2019 -881 2231 -725 
Q 2444 -569 2519 -288 
Q 2563 -116 2559 434 
Q 2191 0 1641 0 
Q 956 0 581 494 
Q 206 988 206 1678 
Q 206 2153 378 2554 
Q 550 2956 876 3175 
Q 1203 3394 1644 3394 
Q 2231 3394 2613 2919 
L 2613 3319 
L 3131 3319 
L 3131 450 
Q 3131 -325 2973 -648 
Q 2816 -972 2473 -1159 
Q 2131 -1347 1631 -1347 
Q 1038 -1347 672 -1080 
Q 306 -813 319 -275 
z
M 784 1719 
Q 784 1066 1043 766 
Q 1303 466 1694 466 
Q 2081 466 2343 764 
Q 2606 1063 2606 1700 
Q 2606 2309 2336 2618 
Q 2066 2928 1684 2928 
Q 1309 2928 1046 2623 
Q 784 2319 784 1719 
z
" transform="scale(0.015625)"/>
        <path id="ArialMT-61" d="M 2588 409 
Q 2275 144 1986 34 
Q 1697 -75 1366 -75 
Q 819 -75 525 192 
Q 231 459 231 875 
Q 231 1119 342 1320 
Q 453 1522 633 1644 
Q 813 1766 1038 1828 
Q 1203 1872 1538 1913 
Q 2219 1994 2541 2106 
Q 2544 2222 2544 2253 
Q 2544 2597 2384 2738 
Q 2169 2928 1744 2928 
Q 1347 2928 1158 2789 
Q 969 2650 878 2297 
L 328 2372 
Q 403 2725 575 2942 
Q 747 3159 1072 3276 
Q 1397 3394 1825 3394 
Q 2250 3394 2515 3294 
Q 2781 3194 2906 3042 
Q 3031 2891 3081 2659 
Q 3109 2516 3109 2141 
L 3109 1391 
Q 3109 606 3145 398 
Q 3181 191 3288 0 
L 2700 0 
Q 2613 175 2588 409 
z
M 2541 1666 
Q 2234 1541 1622 1453 
Q 1275 1403 1131 1340 
Q 988 1278 909 1158 
Q 831 1038 831 891 
Q 831 666 1001 516 
Q 1172 366 1500 366 
Q 1825 366 2078 508 
Q 2331 650 2450 897 
Q 2541 1088 2541 1459 
L 2541 1666 
z
" transform="scale(0.015625)"/>
        <path id="ArialMT-64" d="M 2575 0 
L 2575 419 
Q 2259 -75 1647 -75 
Q 1250 -75 917 144 
Q 584 363 401 755 
Q 219 1147 219 1656 
Q 219 2153 384 2558 
Q 550 2963 881 3178 
Q 1213 3394 1622 3394 
Q 1922 3394 2156 3267 
Q 2391 3141 2538 2938 
L 2538 4581 
L 3097 4581 
L 3097 0 
L 2575 0 
z
M 797 1656 
Q 797 1019 1065 703 
Q 1334 388 1700 388 
Q 2069 388 2326 689 
Q 2584 991 2584 1609 
Q 2584 2291 2321 2609 
Q 2059 2928 1675 2928 
Q 1300 2928 1048 2622 
Q 797 2316 797 1656 
z
" transform="scale(0.015625)"/>
       </defs>
       <use xlink:href="#ArialMT-6c"/>
       <use xlink:href="#ArialMT-69" x="22.216797"/>
       <use xlink:href="#ArialMT-67" x="44.433594"/>
       <use xlink:href="#ArialMT-61" x="100.048828"/>
       <use xlink:href="#ArialMT-6e" x="155.664062"/>
       <use xlink:href="#ArialMT-64" x="211.279297"/>
      </g>
     </g>
    </g>
    <g id="xtick_5">
     <g id="line2d_5">
      <g>
       <use xlink:href="#mdfbe24cc87" x="270.017732" y="170.3275" style="stroke: #000000; stroke-width: 0.8"/>
      </g>
     </g>
     <g id="text_5">
      <!-- ion -->
      <g transform="translate(262.011482 185.916875) scale(0.12 -0.12)">
       <use xlink:href="#ArialMT-69"/>
       <use xlink:href="#ArialMT-6f" x="22.216797"/>
       <use xlink:href="#ArialMT-6e" x="77.832031"/>
      </g>
     </g>
    </g>
    <g id="xtick_6">
     <g id="line2d_6">
      <g>
       <use xlink:href="#mdfbe24cc87" x="320.524137" y="170.3275" style="stroke: #000000; stroke-width: 0.8"/>
      </g>
     </g>
     <g id="text_6">
      <!-- lipid -->
      <g transform="translate(309.851637 185.916875) scale(0.12 -0.12)">
       <use xlink:href="#ArialMT-6c"/>
       <use xlink:href="#ArialMT-69" x="22.216797"/>
       <use xlink:href="#ArialMT-70" x="44.433594"/>
       <use xlink:href="#ArialMT-69" x="100.048828"/>
       <use xlink:href="#ArialMT-64" x="122.265625"/>
      </g>
     </g>
    </g>
    <g id="text_7">
     <!-- protein interface type -->
     <g transform="translate(138.229375 201.178125) scale(0.12 -0.12)">
      <defs>
       <path id="ArialMT-20" transform="scale(0.015625)"/>
       <path id="ArialMT-66" d="M 556 0 
L 556 2881 
L 59 2881 
L 59 3319 
L 556 3319 
L 556 3672 
Q 556 4006 616 4169 
Q 697 4388 901 4523 
Q 1106 4659 1475 4659 
Q 1713 4659 2000 4603 
L 1916 4113 
Q 1741 4144 1584 4144 
Q 1328 4144 1222 4034 
Q 1116 3925 1116 3625 
L 1116 3319 
L 1763 3319 
L 1763 2881 
L 1116 2881 
L 1116 0 
L 556 0 
z
" transform="scale(0.015625)"/>
       <path id="ArialMT-63" d="M 2588 1216 
L 3141 1144 
Q 3050 572 2676 248 
Q 2303 -75 1759 -75 
Q 1078 -75 664 370 
Q 250 816 250 1647 
Q 250 2184 428 2587 
Q 606 2991 970 3192 
Q 1334 3394 1763 3394 
Q 2303 3394 2647 3120 
Q 2991 2847 3088 2344 
L 2541 2259 
Q 2463 2594 2264 2762 
Q 2066 2931 1784 2931 
Q 1359 2931 1093 2626 
Q 828 2322 828 1663 
Q 828 994 1084 691 
Q 1341 388 1753 388 
Q 2084 388 2306 591 
Q 2528 794 2588 1216 
z
" transform="scale(0.015625)"/>
       <path id="ArialMT-79" d="M 397 -1278 
L 334 -750 
Q 519 -800 656 -800 
Q 844 -800 956 -737 
Q 1069 -675 1141 -563 
Q 1194 -478 1313 -144 
Q 1328 -97 1363 -6 
L 103 3319 
L 709 3319 
L 1400 1397 
Q 1534 1031 1641 628 
Q 1738 1016 1872 1384 
L 2581 3319 
L 3144 3319 
L 1881 -56 
Q 1678 -603 1566 -809 
Q 1416 -1088 1222 -1217 
Q 1028 -1347 759 -1347 
Q 597 -1347 397 -1278 
z
" transform="scale(0.015625)"/>
      </defs>
      <use xlink:href="#ArialMT-70"/>
      <use xlink:href="#ArialMT-72" x="55.615234"/>
      <use xlink:href="#ArialMT-6f" x="88.916016"/>
      <use xlink:href="#ArialMT-74" x="144.53125"/>
      <use xlink:href="#ArialMT-65" x="172.314453"/>
      <use xlink:href="#ArialMT-69" x="227.929688"/>
      <use xlink:href="#ArialMT-6e" x="250.146484"/>
      <use xlink:href="#ArialMT-20" x="305.761719"/>
      <use xlink:href="#ArialMT-69" x="333.544922"/>
      <use xlink:href="#ArialMT-6e" x="355.761719"/>
      <use xlink:href="#ArialMT-74" x="411.376953"/>
      <use xlink:href="#ArialMT-65" x="439.160156"/>
      <use xlink:href="#ArialMT-72" x="494.775391"/>
      <use xlink:href="#ArialMT-66" x="528.076172"/>
      <use xlink:href="#ArialMT-61" x="555.859375"/>
      <use xlink:href="#ArialMT-63" x="611.474609"/>
      <use xlink:href="#ArialMT-65" x="661.474609"/>
      <use xlink:href="#ArialMT-20" x="717.089844"/>
      <use xlink:href="#ArialMT-74" x="744.873047"/>
      <use xlink:href="#ArialMT-79" x="772.65625"/>
      <use xlink:href="#ArialMT-70" x="822.65625"/>
      <use xlink:href="#ArialMT-65" x="878.271484"/>
     </g>
    </g>
   </g>
   <g id="matplotlib.axis_2">
    <g id="ytick_1">
     <g id="line2d_7">
      <defs>
       <path id="m2a08d198a0" d="M 0 0 
L -3.5 0 
" style="stroke: #000000; stroke-width: 0.8"/>
      </defs>
      <g>
       <use xlink:href="#m2a08d198a0" x="41.47625" y="150.656563" style="stroke: #000000; stroke-width: 0.8"/>
      </g>
     </g>
     <g id="text_8">
      <!-- 2 -->
      <g transform="translate(27.803125 154.95125) scale(0.12 -0.12)">
       <defs>
        <path id="ArialMT-32" d="M 3222 541 
L 3222 0 
L 194 0 
Q 188 203 259 391 
Q 375 700 629 1000 
Q 884 1300 1366 1694 
Q 2113 2306 2375 2664 
Q 2638 3022 2638 3341 
Q 2638 3675 2398 3904 
Q 2159 4134 1775 4134 
Q 1369 4134 1125 3890 
Q 881 3647 878 3216 
L 300 3275 
Q 359 3922 746 4261 
Q 1134 4600 1788 4600 
Q 2447 4600 2831 4234 
Q 3216 3869 3216 3328 
Q 3216 3053 3103 2787 
Q 2991 2522 2730 2228 
Q 2469 1934 1863 1422 
Q 1356 997 1212 845 
Q 1069 694 975 541 
L 3222 541 
z
" transform="scale(0.015625)"/>
       </defs>
       <use xlink:href="#ArialMT-32"/>
      </g>
     </g>
    </g>
    <g id="ytick_2">
     <g id="line2d_8">
      <g>
       <use xlink:href="#m2a08d198a0" x="41.47625" y="111.314687" style="stroke: #000000; stroke-width: 0.8"/>
      </g>
     </g>
     <g id="text_9">
      <!-- 4 -->
      <g transform="translate(27.803125 115.609375) scale(0.12 -0.12)">
       <defs>
        <path id="ArialMT-34" d="M 2069 0 
L 2069 1097 
L 81 1097 
L 81 1613 
L 2172 4581 
L 2631 4581 
L 2631 1613 
L 3250 1613 
L 3250 1097 
L 2631 1097 
L 2631 0 
L 2069 0 
z
M 2069 1613 
L 2069 3678 
L 634 1613 
L 2069 1613 
z
" transform="scale(0.015625)"/>
       </defs>
       <use xlink:href="#ArialMT-34"/>
      </g>
     </g>
    </g>
    <g id="ytick_3">
     <g id="line2d_9">
      <g>
       <use xlink:href="#m2a08d198a0" x="41.47625" y="71.972812" style="stroke: #000000; stroke-width: 0.8"/>
      </g>
     </g>
     <g id="text_10">
      <!-- 6 -->
      <g transform="translate(27.803125 76.2675) scale(0.12 -0.12)">
       <defs>
        <path id="ArialMT-36" d="M 3184 3459 
L 2625 3416 
Q 2550 3747 2413 3897 
Q 2184 4138 1850 4138 
Q 1581 4138 1378 3988 
Q 1113 3794 959 3422 
Q 806 3050 800 2363 
Q 1003 2672 1297 2822 
Q 1591 2972 1913 2972 
Q 2475 2972 2870 2558 
Q 3266 2144 3266 1488 
Q 3266 1056 3080 686 
Q 2894 316 2569 119 
Q 2244 -78 1831 -78 
Q 1128 -78 684 439 
Q 241 956 241 2144 
Q 241 3472 731 4075 
Q 1159 4600 1884 4600 
Q 2425 4600 2770 4297 
Q 3116 3994 3184 3459 
z
M 888 1484 
Q 888 1194 1011 928 
Q 1134 663 1356 523 
Q 1578 384 1822 384 
Q 2178 384 2434 671 
Q 2691 959 2691 1453 
Q 2691 1928 2437 2201 
Q 2184 2475 1800 2475 
Q 1419 2475 1153 2201 
Q 888 1928 888 1484 
z
" transform="scale(0.015625)"/>
       </defs>
       <use xlink:href="#ArialMT-36"/>
      </g>
     </g>
    </g>
    <g id="ytick_4">
     <g id="line2d_10">
      <g>
       <use xlink:href="#m2a08d198a0" x="41.47625" y="32.630937" style="stroke: #000000; stroke-width: 0.8"/>
      </g>
     </g>
     <g id="text_11">
      <!-- 8 -->
      <g transform="translate(27.803125 36.925625) scale(0.12 -0.12)">
       <defs>
        <path id="ArialMT-38" d="M 1131 2484 
Q 781 2613 612 2850 
Q 444 3088 444 3419 
Q 444 3919 803 4259 
Q 1163 4600 1759 4600 
Q 2359 4600 2725 4251 
Q 3091 3903 3091 3403 
Q 3091 3084 2923 2848 
Q 2756 2613 2416 2484 
Q 2838 2347 3058 2040 
Q 3278 1734 3278 1309 
Q 3278 722 2862 322 
Q 2447 -78 1769 -78 
Q 1091 -78 675 323 
Q 259 725 259 1325 
Q 259 1772 486 2073 
Q 713 2375 1131 2484 
z
M 1019 3438 
Q 1019 3113 1228 2906 
Q 1438 2700 1772 2700 
Q 2097 2700 2305 2904 
Q 2513 3109 2513 3406 
Q 2513 3716 2298 3927 
Q 2084 4138 1766 4138 
Q 1444 4138 1231 3931 
Q 1019 3725 1019 3438 
z
M 838 1322 
Q 838 1081 952 856 
Q 1066 631 1291 507 
Q 1516 384 1775 384 
Q 2178 384 2440 643 
Q 2703 903 2703 1303 
Q 2703 1709 2433 1975 
Q 2163 2241 1756 2241 
Q 1359 2241 1098 1978 
Q 838 1716 838 1322 
z
" transform="scale(0.015625)"/>
       </defs>
       <use xlink:href="#ArialMT-38"/>
      </g>
     </g>
    </g>
    <g id="text_12">
     <!-- number of options per position -->
     <g transform="translate(21.418125 172.353125) rotate(-90) scale(0.12 -0.12)">
      <defs>
       <path id="ArialMT-75" d="M 2597 0 
L 2597 488 
Q 2209 -75 1544 -75 
Q 1250 -75 995 37 
Q 741 150 617 320 
Q 494 491 444 738 
Q 409 903 409 1263 
L 409 3319 
L 972 3319 
L 972 1478 
Q 972 1038 1006 884 
Q 1059 663 1231 536 
Q 1403 409 1656 409 
Q 1909 409 2131 539 
Q 2353 669 2445 892 
Q 2538 1116 2538 1541 
L 2538 3319 
L 3100 3319 
L 3100 0 
L 2597 0 
z
" transform="scale(0.015625)"/>
       <path id="ArialMT-6d" d="M 422 0 
L 422 3319 
L 925 3319 
L 925 2853 
Q 1081 3097 1340 3245 
Q 1600 3394 1931 3394 
Q 2300 3394 2536 3241 
Q 2772 3088 2869 2813 
Q 3263 3394 3894 3394 
Q 4388 3394 4653 3120 
Q 4919 2847 4919 2278 
L 4919 0 
L 4359 0 
L 4359 2091 
Q 4359 2428 4304 2576 
Q 4250 2725 4106 2815 
Q 3963 2906 3769 2906 
Q 3419 2906 3187 2673 
Q 2956 2441 2956 1928 
L 2956 0 
L 2394 0 
L 2394 2156 
Q 2394 2531 2256 2718 
Q 2119 2906 1806 2906 
Q 1569 2906 1367 2781 
Q 1166 2656 1075 2415 
Q 984 2175 984 1722 
L 984 0 
L 422 0 
z
" transform="scale(0.015625)"/>
       <path id="ArialMT-62" d="M 941 0 
L 419 0 
L 419 4581 
L 981 4581 
L 981 2947 
Q 1338 3394 1891 3394 
Q 2197 3394 2470 3270 
Q 2744 3147 2920 2923 
Q 3097 2700 3197 2384 
Q 3297 2069 3297 1709 
Q 3297 856 2875 390 
Q 2453 -75 1863 -75 
Q 1275 -75 941 416 
L 941 0 
z
M 934 1684 
Q 934 1088 1097 822 
Q 1363 388 1816 388 
Q 2184 388 2453 708 
Q 2722 1028 2722 1663 
Q 2722 2313 2464 2622 
Q 2206 2931 1841 2931 
Q 1472 2931 1203 2611 
Q 934 2291 934 1684 
z
" transform="scale(0.015625)"/>
       <path id="ArialMT-73" d="M 197 991 
L 753 1078 
Q 800 744 1014 566 
Q 1228 388 1613 388 
Q 2000 388 2187 545 
Q 2375 703 2375 916 
Q 2375 1106 2209 1216 
Q 2094 1291 1634 1406 
Q 1016 1563 777 1677 
Q 538 1791 414 1992 
Q 291 2194 291 2438 
Q 291 2659 392 2848 
Q 494 3038 669 3163 
Q 800 3259 1026 3326 
Q 1253 3394 1513 3394 
Q 1903 3394 2198 3281 
Q 2494 3169 2634 2976 
Q 2775 2784 2828 2463 
L 2278 2388 
Q 2241 2644 2061 2787 
Q 1881 2931 1553 2931 
Q 1166 2931 1000 2803 
Q 834 2675 834 2503 
Q 834 2394 903 2306 
Q 972 2216 1119 2156 
Q 1203 2125 1616 2013 
Q 2213 1853 2448 1751 
Q 2684 1650 2818 1456 
Q 2953 1263 2953 975 
Q 2953 694 2789 445 
Q 2625 197 2315 61 
Q 2006 -75 1616 -75 
Q 969 -75 630 194 
Q 291 463 197 991 
z
" transform="scale(0.015625)"/>
      </defs>
      <use xlink:href="#ArialMT-6e"/>
      <use xlink:href="#ArialMT-75" x="55.615234"/>
      <use xlink:href="#ArialMT-6d" x="111.230469"/>
      <use xlink:href="#ArialMT-62" x="194.53125"/>
      <use xlink:href="#ArialMT-65" x="250.146484"/>
      <use xlink:href="#ArialMT-72" x="305.761719"/>
      <use xlink:href="#ArialMT-20" x="339.0625"/>
      <use xlink:href="#ArialMT-6f" x="366.845703"/>
      <use xlink:href="#ArialMT-66" x="422.460938"/>
      <use xlink:href="#ArialMT-20" x="450.244141"/>
      <use xlink:href="#ArialMT-6f" x="478.027344"/>
      <use xlink:href="#ArialMT-70" x="533.642578"/>
      <use xlink:href="#ArialMT-74" x="589.257812"/>
      <use xlink:href="#ArialMT-69" x="617.041016"/>
      <use xlink:href="#ArialMT-6f" x="639.257812"/>
      <use xlink:href="#ArialMT-6e" x="694.873047"/>
      <use xlink:href="#ArialMT-73" x="750.488281"/>
      <use xlink:href="#ArialMT-20" x="800.488281"/>
      <use xlink:href="#ArialMT-70" x="828.271484"/>
      <use xlink:href="#ArialMT-65" x="883.886719"/>
      <use xlink:href="#ArialMT-72" x="939.501953"/>
      <use xlink:href="#ArialMT-20" x="972.802734"/>
      <use xlink:href="#ArialMT-70" x="1000.585938"/>
      <use xlink:href="#ArialMT-6f" x="1056.201172"/>
      <use xlink:href="#ArialMT-73" x="1111.816406"/>
      <use xlink:href="#ArialMT-69" x="1161.816406"/>
      <use xlink:href="#ArialMT-74" x="1184.033203"/>
      <use xlink:href="#ArialMT-69" x="1211.816406"/>
      <use xlink:href="#ArialMT-6f" x="1234.033203"/>
      <use xlink:href="#ArialMT-6e" x="1289.648438"/>
     </g>
    </g>
   </g>
   <g id="LineCollection_1">
    <path d="M 58.522162 99.020352 
L 64.835462 99.020352 
" clip-path="url(#p4906da9223)" style="fill: none; stroke: #0d3b66; stroke-width: 1.5"/>
    <path d="M 109.028567 93.714376 
L 115.341867 93.714376 
" clip-path="url(#p4906da9223)" style="fill: none; stroke: #0d3b66; stroke-width: 1.5"/>
    <path d="M 159.534972 96.412458 
L 165.848272 96.412458 
" clip-path="url(#p4906da9223)" style="fill: none; stroke: #0d3b66; stroke-width: 1.5"/>
    <path d="M 210.041377 104.757705 
L 216.354677 104.757705 
" clip-path="url(#p4906da9223)" style="fill: none; stroke: #0d3b66; stroke-width: 1.5"/>
    <path d="M 260.547782 111.314687 
L 266.861082 111.314687 
" clip-path="url(#p4906da9223)" style="fill: none; stroke: #0d3b66; stroke-width: 1.5"/>
    <path d="M 311.054186 95.577934 
L 317.367487 95.577934 
" clip-path="url(#p4906da9223)" style="fill: none; stroke: #0d3b66; stroke-width: 1.5"/>
   </g>
   <g id="LineCollection_2">
    <path d="M 71.148763 117.215968 
L 77.462064 117.215968 
" clip-path="url(#p4906da9223)" style="fill: none; stroke: #bf4e30; stroke-width: 1.5"/>
    <path d="M 121.655168 119.597189 
L 127.968468 119.597189 
" clip-path="url(#p4906da9223)" style="fill: none; stroke: #bf4e30; stroke-width: 1.5"/>
    <path d="M 172.161573 121.728714 
L 178.474873 121.728714 
" clip-path="url(#p4906da9223)" style="fill: none; stroke: #bf4e30; stroke-width: 1.5"/>
    <path d="M 222.667978 125.084345 
L 228.981278 125.084345 
" clip-path="url(#p4906da9223)" style="fill: none; stroke: #bf4e30; stroke-width: 1.5"/>
    <path d="M 273.174383 130.985625 
L 279.487683 130.985625 
" clip-path="url(#p4906da9223)" style="fill: none; stroke: #bf4e30; stroke-width: 1.5"/>
    <path d="M 323.680788 118.467754 
L 329.994088 118.467754 
" clip-path="url(#p4906da9223)" style="fill: none; stroke: #bf4e30; stroke-width: 1.5"/>
   </g>
   <g id="patch_3">
    <path d="M 41.47625 170.3275 
L 41.47625 12.96 
" style="fill: none; stroke: #000000; stroke-width: 0.8; stroke-linejoin: miter; stroke-linecap: square"/>
   </g>
   <g id="patch_4">
    <path d="M 347.04 170.3275 
L 347.04 12.96 
" style="fill: none; stroke: #000000; stroke-width: 0.8; stroke-linejoin: miter; stroke-linecap: square"/>
   </g>
   <g id="patch_5">
    <path d="M 41.47625 170.3275 
L 347.04 170.3275 
" style="fill: none; stroke: #000000; stroke-width: 0.8; stroke-linejoin: miter; stroke-linecap: square"/>
   </g>
   <g id="patch_6">
    <path d="M 41.47625 12.96 
L 347.04 12.96 
" style="fill: none; stroke: #000000; stroke-width: 0.8; stroke-linejoin: miter; stroke-linecap: square"/>
   </g>
   <g id="text_13">
    <!-- 4.6 -->
    <g transform="translate(54.728812 94.730883) scale(0.1 -0.1)">
     <defs>
      <path id="ArialMT-2e" d="M 581 0 
L 581 641 
L 1222 641 
L 1222 0 
L 581 0 
z
" transform="scale(0.015625)"/>
     </defs>
     <use xlink:href="#ArialMT-34"/>
     <use xlink:href="#ArialMT-2e" x="55.615234"/>
     <use xlink:href="#ArialMT-36" x="83.398438"/>
    </g>
   </g>
   <g id="text_14">
    <!-- 3.7 -->
    <g transform="translate(67.355413 128.663249) scale(0.1 -0.1)">
     <defs>
      <path id="ArialMT-33" d="M 269 1209 
L 831 1284 
Q 928 806 1161 595 
Q 1394 384 1728 384 
Q 2125 384 2398 659 
Q 2672 934 2672 1341 
Q 2672 1728 2419 1979 
Q 2166 2231 1775 2231 
Q 1616 2231 1378 2169 
L 1441 2663 
Q 1497 2656 1531 2656 
Q 1891 2656 2178 2843 
Q 2466 3031 2466 3422 
Q 2466 3731 2256 3934 
Q 2047 4138 1716 4138 
Q 1388 4138 1169 3931 
Q 950 3725 888 3313 
L 325 3413 
Q 428 3978 793 4289 
Q 1159 4600 1703 4600 
Q 2078 4600 2393 4439 
Q 2709 4278 2876 4000 
Q 3044 3722 3044 3409 
Q 3044 3113 2884 2869 
Q 2725 2625 2413 2481 
Q 2819 2388 3044 2092 
Q 3269 1797 3269 1353 
Q 3269 753 2831 336 
Q 2394 -81 1725 -81 
Q 1122 -81 723 278 
Q 325 638 269 1209 
z
" transform="scale(0.015625)"/>
      <path id="ArialMT-37" d="M 303 3981 
L 303 4522 
L 3269 4522 
L 3269 4084 
Q 2831 3619 2401 2847 
Q 1972 2075 1738 1259 
Q 1569 684 1522 0 
L 944 0 
Q 953 541 1156 1306 
Q 1359 2072 1739 2783 
Q 2119 3494 2547 3981 
L 303 3981 
z
" transform="scale(0.015625)"/>
     </defs>
     <use xlink:href="#ArialMT-33"/>
     <use xlink:href="#ArialMT-2e" x="55.615234"/>
     <use xlink:href="#ArialMT-37" x="83.398438"/>
    </g>
   </g>
   <g id="text_15">
    <!-- 4.9 -->
    <g transform="translate(105.235217 89.424908) scale(0.1 -0.1)">
     <defs>
      <path id="ArialMT-39" d="M 350 1059 
L 891 1109 
Q 959 728 1153 556 
Q 1347 384 1650 384 
Q 1909 384 2104 503 
Q 2300 622 2425 820 
Q 2550 1019 2634 1356 
Q 2719 1694 2719 2044 
Q 2719 2081 2716 2156 
Q 2547 1888 2255 1720 
Q 1963 1553 1622 1553 
Q 1053 1553 659 1965 
Q 266 2378 266 3053 
Q 266 3750 677 4175 
Q 1088 4600 1706 4600 
Q 2153 4600 2523 4359 
Q 2894 4119 3086 3673 
Q 3278 3228 3278 2384 
Q 3278 1506 3087 986 
Q 2897 466 2520 194 
Q 2144 -78 1638 -78 
Q 1100 -78 759 220 
Q 419 519 350 1059 
z
M 2653 3081 
Q 2653 3566 2395 3850 
Q 2138 4134 1775 4134 
Q 1400 4134 1122 3828 
Q 844 3522 844 3034 
Q 844 2597 1108 2323 
Q 1372 2050 1759 2050 
Q 2150 2050 2401 2323 
Q 2653 2597 2653 3081 
z
" transform="scale(0.015625)"/>
     </defs>
     <use xlink:href="#ArialMT-34"/>
     <use xlink:href="#ArialMT-2e" x="55.615234"/>
     <use xlink:href="#ArialMT-39" x="83.398438"/>
    </g>
   </g>
   <g id="text_16">
    <!-- 3.6 -->
    <g transform="translate(117.861818 131.04447) scale(0.1 -0.1)">
     <use xlink:href="#ArialMT-33"/>
     <use xlink:href="#ArialMT-2e" x="55.615234"/>
     <use xlink:href="#ArialMT-36" x="83.398438"/>
    </g>
   </g>
   <g id="text_17">
    <!-- 4.8 -->
    <g transform="translate(155.741622 92.122989) scale(0.1 -0.1)">
     <use xlink:href="#ArialMT-34"/>
     <use xlink:href="#ArialMT-2e" x="55.615234"/>
     <use xlink:href="#ArialMT-38" x="83.398438"/>
    </g>
   </g>
   <g id="text_18">
    <!-- 3.5 -->
    <g transform="translate(168.368223 133.175995) scale(0.1 -0.1)">
     <defs>
      <path id="ArialMT-35" d="M 266 1200 
L 856 1250 
Q 922 819 1161 601 
Q 1400 384 1738 384 
Q 2144 384 2425 690 
Q 2706 997 2706 1503 
Q 2706 1984 2436 2262 
Q 2166 2541 1728 2541 
Q 1456 2541 1237 2417 
Q 1019 2294 894 2097 
L 366 2166 
L 809 4519 
L 3088 4519 
L 3088 3981 
L 1259 3981 
L 1013 2750 
Q 1425 3038 1878 3038 
Q 2478 3038 2890 2622 
Q 3303 2206 3303 1553 
Q 3303 931 2941 478 
Q 2500 -78 1738 -78 
Q 1113 -78 717 272 
Q 322 622 266 1200 
z
" transform="scale(0.015625)"/>
     </defs>
     <use xlink:href="#ArialMT-33"/>
     <use xlink:href="#ArialMT-2e" x="55.615234"/>
     <use xlink:href="#ArialMT-35" x="83.398438"/>
    </g>
   </g>
   <g id="text_19">
    <!-- 4.3 -->
    <g transform="translate(206.248027 100.468236) scale(0.1 -0.1)">
     <use xlink:href="#ArialMT-34"/>
     <use xlink:href="#ArialMT-2e" x="55.615234"/>
     <use xlink:href="#ArialMT-33" x="83.398438"/>
    </g>
   </g>
   <g id="text_20">
    <!-- 3.3 -->
    <g transform="translate(218.874628 136.531626) scale(0.1 -0.1)">
     <use xlink:href="#ArialMT-33"/>
     <use xlink:href="#ArialMT-2e" x="55.615234"/>
     <use xlink:href="#ArialMT-33" x="83.398438"/>
    </g>
   </g>
   <g id="text_21">
    <!-- 4.0 -->
    <g transform="translate(256.754432 107.025219) scale(0.1 -0.1)">
     <defs>
      <path id="ArialMT-30" d="M 266 2259 
Q 266 3072 433 3567 
Q 600 4063 929 4331 
Q 1259 4600 1759 4600 
Q 2128 4600 2406 4451 
Q 2684 4303 2865 4023 
Q 3047 3744 3150 3342 
Q 3253 2941 3253 2259 
Q 3253 1453 3087 958 
Q 2922 463 2592 192 
Q 2263 -78 1759 -78 
Q 1097 -78 719 397 
Q 266 969 266 2259 
z
M 844 2259 
Q 844 1131 1108 757 
Q 1372 384 1759 384 
Q 2147 384 2411 759 
Q 2675 1134 2675 2259 
Q 2675 3391 2411 3762 
Q 2147 4134 1753 4134 
Q 1366 4134 1134 3806 
Q 844 3388 844 2259 
z
" transform="scale(0.015625)"/>
     </defs>
     <use xlink:href="#ArialMT-34"/>
     <use xlink:href="#ArialMT-2e" x="55.615234"/>
     <use xlink:href="#ArialMT-30" x="83.398438"/>
    </g>
   </g>
   <g id="text_22">
    <!-- 3.0 -->
    <g transform="translate(269.381033 142.432906) scale(0.1 -0.1)">
     <use xlink:href="#ArialMT-33"/>
     <use xlink:href="#ArialMT-2e" x="55.615234"/>
     <use xlink:href="#ArialMT-30" x="83.398438"/>
    </g>
   </g>
   <g id="text_23">
    <!-- 4.8 -->
    <g transform="translate(307.260837 91.288465) scale(0.1 -0.1)">
     <use xlink:href="#ArialMT-34"/>
     <use xlink:href="#ArialMT-2e" x="55.615234"/>
     <use xlink:href="#ArialMT-38" x="83.398438"/>
    </g>
   </g>
   <g id="text_24">
    <!-- 3.6 -->
    <g transform="translate(319.887438 129.915035) scale(0.1 -0.1)">
     <use xlink:href="#ArialMT-33"/>
     <use xlink:href="#ArialMT-2e" x="55.615234"/>
     <use xlink:href="#ArialMT-36" x="83.398438"/>
    </g>
   </g>
   <g id="legend_1">
    <g id="patch_7">
     <path d="M 48.47625 45.250625 
L 147.17625 45.250625 
Q 149.17625 45.250625 149.17625 43.250625 
L 149.17625 19.96 
Q 149.17625 17.96 147.17625 17.96 
L 48.47625 17.96 
Q 46.47625 17.96 46.47625 19.96 
L 46.47625 43.250625 
Q 46.47625 45.250625 48.47625 45.250625 
z
" style="fill: #ffffff; opacity: 0.8; stroke: #cccccc; stroke-linejoin: miter"/>
    </g>
    <g id="patch_8">
     <path d="M 50.47625 29.117813 
L 70.47625 29.117813 
L 70.47625 22.117813 
L 50.47625 22.117813 
z
" style="fill: #0d3b66; fill-opacity: 0.3; stroke: #0d3b66; stroke-opacity: 0.3; stroke-linejoin: miter"/>
    </g>
    <g id="text_25">
     <!-- without context -->
     <g transform="translate(78.47625 29.117813) scale(0.1 -0.1)">
      <defs>
       <path id="ArialMT-77" d="M 1034 0 
L 19 3319 
L 600 3319 
L 1128 1403 
L 1325 691 
Q 1338 744 1497 1375 
L 2025 3319 
L 2603 3319 
L 3100 1394 
L 3266 759 
L 3456 1400 
L 4025 3319 
L 4572 3319 
L 3534 0 
L 2950 0 
L 2422 1988 
L 2294 2553 
L 1622 0 
L 1034 0 
z
" transform="scale(0.015625)"/>
       <path id="ArialMT-68" d="M 422 0 
L 422 4581 
L 984 4581 
L 984 2938 
Q 1378 3394 1978 3394 
Q 2347 3394 2619 3248 
Q 2891 3103 3008 2847 
Q 3125 2591 3125 2103 
L 3125 0 
L 2563 0 
L 2563 2103 
Q 2563 2525 2380 2717 
Q 2197 2909 1863 2909 
Q 1613 2909 1392 2779 
Q 1172 2650 1078 2428 
Q 984 2206 984 1816 
L 984 0 
L 422 0 
z
" transform="scale(0.015625)"/>
       <path id="ArialMT-78" d="M 47 0 
L 1259 1725 
L 138 3319 
L 841 3319 
L 1350 2541 
Q 1494 2319 1581 2169 
Q 1719 2375 1834 2534 
L 2394 3319 
L 3066 3319 
L 1919 1756 
L 3153 0 
L 2463 0 
L 1781 1031 
L 1600 1309 
L 728 0 
L 47 0 
z
" transform="scale(0.015625)"/>
      </defs>
      <use xlink:href="#ArialMT-77"/>
      <use xlink:href="#ArialMT-69" x="72.216797"/>
      <use xlink:href="#ArialMT-74" x="94.433594"/>
      <use xlink:href="#ArialMT-68" x="122.216797"/>
      <use xlink:href="#ArialMT-6f" x="177.832031"/>
      <use xlink:href="#ArialMT-75" x="233.447266"/>
      <use xlink:href="#ArialMT-74" x="289.0625"/>
      <use xlink:href="#ArialMT-20" x="316.845703"/>
      <use xlink:href="#ArialMT-63" x="344.628906"/>
      <use xlink:href="#ArialMT-6f" x="394.628906"/>
      <use xlink:href="#ArialMT-6e" x="450.244141"/>
      <use xlink:href="#ArialMT-74" x="505.859375"/>
      <use xlink:href="#ArialMT-65" x="533.642578"/>
      <use xlink:href="#ArialMT-78" x="589.257812"/>
      <use xlink:href="#ArialMT-74" x="639.257812"/>
     </g>
    </g>
    <g id="patch_9">
     <path d="M 50.47625 39.263125 
L 70.47625 39.263125 
L 70.47625 32.263125 
L 50.47625 32.263125 
z
" style="fill: #bf4e30; fill-opacity: 0.3; stroke: #bf4e30; stroke-opacity: 0.3; stroke-linejoin: miter"/>
    </g>
    <g id="text_26">
     <!-- with context -->
     <g transform="translate(78.47625 39.263125) scale(0.1 -0.1)">
      <use xlink:href="#ArialMT-77"/>
      <use xlink:href="#ArialMT-69" x="72.216797"/>
      <use xlink:href="#ArialMT-74" x="94.433594"/>
      <use xlink:href="#ArialMT-68" x="122.216797"/>
      <use xlink:href="#ArialMT-20" x="177.832031"/>
      <use xlink:href="#ArialMT-63" x="205.615234"/>
      <use xlink:href="#ArialMT-6f" x="255.615234"/>
      <use xlink:href="#ArialMT-6e" x="311.230469"/>
      <use xlink:href="#ArialMT-74" x="366.845703"/>
      <use xlink:href="#ArialMT-65" x="394.628906"/>
      <use xlink:href="#ArialMT-78" x="450.244141"/>
      <use xlink:href="#ArialMT-74" x="500.244141"/>
     </g>
    </g>
   </g>
  </g>
 </g>
 <defs>
  <clipPath id="p4906da9223">
   <rect x="41.47625" y="12.96" width="305.56375" height="157.3675"/>
  </clipPath>
 </defs>
</svg>
